# Blender v2.78 (sub 0) OBJ File: ''
# www.blender.org
mtllib CityEngineMaterial_292.mtl
o CityEngineMaterial_292
v -16.064100 1.985160 245.275696
v -8.424300 1.985160 242.834198
v -8.424300 3.588660 242.834198
v -16.064100 3.588660 245.275696
v -9.504900 1.985161 239.446106
v -9.504900 3.588661 239.446106
v -10.737200 1.985161 239.839798
v -10.737200 3.588661 239.839798
v -12.918900 1.985162 233.000000
v -12.918900 3.588662 233.000000
v -19.327900 1.985162 235.043396
v -19.327900 3.588662 235.043396
v -503.581512 9.642495 -586.446228
v -510.211304 9.642499 -608.287476
v -510.211304 11.925300 -608.287476
v -503.581512 11.925296 -586.446228
v -521.567078 9.642498 -604.823914
v -521.567078 11.925299 -604.823914
v -514.902283 9.642495 -583.000000
v -514.902283 11.925296 -583.000000
v -380.127197 3.905555 -335.763611
v -397.866791 3.905554 -329.910309
v -397.866791 5.911454 -329.910309
v -380.127197 5.911455 -335.763611
v -390.989990 3.905551 -312.765808
v -390.989990 5.911451 -312.765808
v -373.058899 3.905552 -318.208588
v -373.058899 5.911452 -318.208588
v 158.975906 46.973904 -640.361511
v 167.925201 46.973904 -641.762878
v 167.925201 48.867603 -641.762878
v 158.975906 48.867603 -640.361511
v 162.772995 46.973907 -661.260681
v 162.772995 48.867607 -661.260681
v 155.860703 46.973907 -660.170593
v 155.860703 48.867607 -660.170593
v 14.354200 34.236004 -1233.881836
v 5.882800 34.236004 -1243.628418
v 5.882800 35.537304 -1243.628418
v 14.354200 35.537304 -1233.881836
v 9.230600 34.236004 -1246.556763
v 9.230600 35.537304 -1246.556763
v 4.545400 34.236004 -1251.947632
v 4.545400 35.537304 -1251.947632
v -2.288700 34.236004 -1245.969727
v -2.288700 35.537304 -1245.969727
v 10.859100 34.236004 -1230.842896
v 10.859100 35.537304 -1230.842896
v 9.399500 3.806580 122.366096
v 4.960500 3.806580 122.806900
v 4.960500 5.407880 122.806900
v 9.399500 5.407880 122.366096
v 5.818300 3.806579 129.058304
v 5.818300 5.407879 129.058304
v 6.436300 3.806579 128.996994
v 6.436300 5.407879 128.996994
v 7.539400 3.806578 137.064301
v 7.539400 5.407877 137.064301
v 11.284300 3.806578 136.150299
v 11.284300 5.407877 136.150299
v 378.216888 26.222368 197.601196
v 376.545410 26.222370 189.957596
v 376.545410 27.823669 189.957596
v 378.216888 27.823668 197.601196
v 365.746704 26.222370 192.302704
v 365.746704 27.823669 192.302704
v 366.269104 26.222368 194.691299
v 366.269104 27.823668 194.691299
v 364.502502 26.222368 195.074600
v 364.502502 27.823668 195.074600
v 365.653687 26.222368 200.327194
v 365.653687 27.823668 200.327194
v -217.505402 2.548784 709.117676
v -217.248001 2.548784 709.396118
v -217.248001 4.215585 709.396118
v -217.505402 4.215585 709.117676
v -215.480606 2.548784 707.762329
v -215.480606 4.215585 707.762329
v -220.559402 2.548785 702.267578
v -220.559402 4.215586 702.267578
v -227.485794 2.548784 708.669800
v -227.485794 4.215585 708.669800
v -222.407104 2.548784 714.164612
v -222.407104 4.215584 714.164612
v -220.697601 2.548784 712.584412
v -220.697601 4.215584 712.584412
v -220.954803 2.548784 712.306091
v -220.954803 4.215584 712.306091
v -532.579224 3.784048 320.544189
v -532.492920 3.784050 305.559601
v -532.492920 6.141050 305.559601
v -532.579224 6.141047 320.544189
v -532.877930 3.784050 305.178894
v -532.877930 6.141050 305.178894
v -553.529175 3.784050 304.932709
v -553.529175 6.141050 304.932709
v -553.614014 3.784048 320.440491
v -553.614014 6.141048 320.440491
v 1170.082397 101.859886 -513.660583
v 1170.446411 101.859886 -514.268127
v 1170.446411 103.463081 -514.268127
v 1170.082397 103.463081 -513.660583
v 1170.755249 101.859886 -514.700500
v 1170.755249 103.463081 -514.700500
v 1171.128662 101.859886 -515.079529
v 1171.128662 103.463081 -515.079529
v 1171.556030 101.859886 -515.396118
v 1171.556030 103.463081 -515.396118
v 1172.027466 101.859886 -515.641418
v 1172.027466 103.463081 -515.641418
v 1174.807739 101.859886 -516.814270
v 1174.807739 103.463081 -516.814270
v 1167.413696 101.859886 -526.010193
v 1167.413696 103.463081 -526.010193
v 1167.195923 101.859886 -525.918274
v 1167.195923 103.463081 -525.918274
v 1165.632202 101.859886 -525.104797
v 1165.632202 103.463081 -525.104797
v 1164.740845 101.859886 -525.642578
v 1164.740845 103.463081 -525.642578
v 1160.897461 101.859886 -519.203979
v 1160.897461 103.463081 -519.203979
v 186.990097 39.946159 -991.119995
v 186.445297 39.946163 -995.215698
v 186.445297 41.999565 -995.215698
v 186.990097 41.999561 -991.119995
v 186.867905 39.946163 -995.271912
v 186.867905 41.999565 -995.271912
v 185.774399 39.946163 -1003.495972
v 185.774399 41.999565 -1003.495972
v 177.618500 39.946163 -1002.409973
v 177.618500 41.999565 -1002.409973
v 179.256607 39.946159 -990.094116
v 179.256607 41.999561 -990.094116
v -547.101807 13.761613 -690.644897
v -542.697327 13.761613 -691.985474
v -542.697327 15.057713 -691.985474
v -547.101807 15.057713 -690.644897
v -538.949097 13.761611 -679.592529
v -538.949097 15.057711 -679.592529
v -534.012329 13.761611 -681.094971
v -534.012329 15.057711 -681.094971
v -539.835327 13.761615 -700.347778
v -539.835327 15.057714 -700.347778
v -549.174500 13.761614 -697.505371
v -549.174500 15.057714 -697.505371
v 451.761993 60.213940 -236.902878
v 450.478912 60.213943 -250.732285
v 450.478912 62.244244 -250.732285
v 451.761993 62.244240 -236.902878
v 447.203796 60.213943 -250.408081
v 447.203796 62.244244 -250.408081
v 438.117615 60.213943 -248.648483
v 438.117615 62.244244 -248.648483
v 440.197998 60.213940 -235.156586
v 440.197998 62.244240 -235.156586
v 449.954407 64.263939 -244.343079
v 449.474487 64.263939 -249.514984
v 449.474487 66.294136 -249.514984
v 449.954407 66.294136 -244.343079
v 447.364685 64.263939 -249.306091
v 447.364685 66.294136 -249.306091
v 439.380188 64.263939 -247.759888
v 439.380188 66.294136 -247.759888
v 440.057495 64.263939 -243.367691
v 440.057495 66.294136 -243.367691
v 445.432312 64.263939 -237.072083
v 444.766113 64.263939 -243.831787
v 444.766113 66.294136 -243.831787
v 445.432312 66.294136 -237.072083
v 441.128387 64.263939 -236.422180
v 441.128387 66.294136 -236.422180
vt 0.0000 0.0000
vt 3.0000 -0.0000
vt 3.0000 1.0000
vt 0.0000 1.0000
vt 0.0000 0.0000
vt 1.5000 -0.0000
vt 1.5000 1.0000
vt 0.0000 1.0000
vt 0.5000 0.0000
vt 1.0000 0.0000
vt 1.0000 1.0000
vt 0.5000 1.0000
vt 0.0000 0.0000
vt 3.0000 -0.0000
vt 3.0000 1.0000
vt 0.0000 1.0000
vt 0.0000 0.0000
vt 2.5000 -0.0000
vt 2.5000 1.0000
vt 0.0000 1.0000
vt 0.0000 0.0000
vt 4.0000 -0.0000
vt 4.0000 1.0000
vt 0.0000 1.0000
vt 0.5000 0.0000
vt 12.0000 0.0000
vt 12.0000 1.0000
vt 0.5000 1.0000
vt 0.0000 0.0000
vt 6.0000 0.0000
vt 6.0000 1.0000
vt 0.0000 1.0000
vt 0.5000 0.0000
vt 12.0000 0.0000
vt 12.0000 1.0000
vt 0.5000 1.0000
vt 0.5000 0.0000
vt 6.5000 0.0000
vt 6.5000 1.0000
vt 0.5000 1.0000
vt 0.5000 0.0000
vt 7.5000 0.0000
vt 7.5000 1.0000
vt 0.5000 1.0000
vt 0.0000 0.0000
vt 7.0000 -0.0000
vt 7.0000 1.0000
vt 0.0000 1.0000
vt 0.0000 0.0000
vt 7.0000 -0.0000
vt 7.0000 1.0000
vt 0.0000 1.0000
vt 0.0000 0.0000
vt 7.0000 -0.0000
vt 7.0000 1.0000
vt 0.0000 1.0000
vt 0.0000 0.0000
vt 3.5000 0.0000
vt 3.5000 1.0000
vt 0.0000 1.0000
vt 0.0000 0.0000
vt 7.5000 0.0000
vt 7.5000 1.0000
vt 0.0000 1.0000
vt 0.0000 0.0000
vt 2.5000 -0.0000
vt 2.5000 1.0000
vt 0.0000 1.0000
vt 0.5000 0.0000
vt 8.0000 -0.0000
vt 8.0000 1.0000
vt 0.5000 1.0000
vt 0.0000 0.0000
vt 5.0000 0.0000
vt 5.0000 1.0000
vt 0.0000 1.0000
vt 0.5000 0.0000
vt 2.0000 0.0000
vt 2.0000 1.0000
vt 0.5000 1.0000
vt 0.5000 0.0000
vt 3.0000 -0.0000
vt 3.0000 1.0000
vt 0.5000 1.0000
vt 0.5000 0.0000
vt 4.0000 -0.0000
vt 4.0000 1.0000
vt 0.5000 1.0000
vt 0.0000 0.0000
vt 7.5000 0.0000
vt 7.5000 1.0000
vt 0.0000 1.0000
vt 0.5000 0.0000
vt 2.0000 0.0000
vt 2.0000 1.0000
vt 0.5000 1.0000
vt 0.0000 0.0000
vt 2.0000 0.0000
vt 2.0000 1.0000
vt 0.0000 1.0000
vt 0.0000 0.0000
vt 2.5000 -0.0000
vt 2.5000 1.0000
vt 0.0000 1.0000
vt 0.5000 0.0000
vt 1.0000 0.0000
vt 1.0000 1.0000
vt 0.5000 1.0000
vt 0.5000 0.0000
vt 4.0000 -0.0000
vt 4.0000 1.0000
vt 0.5000 1.0000
vt 0.0000 0.0000
vt 1.5000 -0.0000
vt 1.5000 1.0000
vt 0.0000 1.0000
vt 0.0000 0.0000
vt 5.5000 0.0000
vt 5.5000 1.0000
vt 0.0000 1.0000
vt 0.5000 0.0000
vt 3.5000 0.0000
vt 3.5000 1.0000
vt 0.5000 1.0000
vt 0.0000 0.0000
vt 4.5000 0.0000
vt 4.5000 1.0000
vt 0.0000 1.0000
vt 0.0000 0.0000
vt 1.0000 0.0000
vt 1.0000 1.0000
vt 0.0000 1.0000
vt 0.0000 0.0000
vt 0.5000 0.0000
vt 0.5000 1.0000
vt 0.0000 1.0000
vt 2.5000 -0.0000
vt 2.5000 1.0000
vt 0.0000 0.0000
vt 5.0000 0.0000
vt 5.0000 1.0000
vt 0.0000 1.0000
vt 0.5000 0.0000
vt 0.6000 0.0000
vt 0.6000 1.0000
vt 0.5000 1.0000
vt 0.0000 0.0000
vt 1.0000 0.0000
vt 1.0000 1.0000
vt 0.0000 1.0000
vt 0.5000 0.0000
vt 4.5000 0.0000
vt 4.5000 1.0000
vt 0.5000 1.0000
vt 0.5000 0.0000
vt 5.5000 0.0000
vt 5.5000 1.0000
vt 0.5000 1.0000
vt 0.5000 0.0000
vt 4.5000 0.0000
vt 4.5000 1.0000
vt 0.5000 1.0000
vt 0.5000 0.0000
vt 1.5000 -0.0000
vt 1.5000 1.0000
vt 0.5000 1.0000
vt 0.0000 0.0000
vt 0.1000 0.0000
vt 0.1000 1.0000
vt 0.0000 1.0000
vt 0.0000 0.0000
vt 2.5000 -0.0000
vt 2.5000 1.0000
vt 0.0000 1.0000
vt 0.5000 0.0000
vt 6.0000 0.0000
vt 6.0000 1.0000
vt 0.5000 1.0000
vt 0.5000 0.0000
vt 0.6000 0.0000
vt 0.6000 1.0000
vt 0.5000 1.0000
vt 0.5000 0.0000
vt 8.5000 0.0000
vt 8.5000 1.0000
vt 0.5000 1.0000
vt 0.0000 0.0000
vt 6.0000 0.0000
vt 6.0000 1.0000
vt 0.0000 1.0000
vt 0.5000 0.0000
vt 8.5000 0.0000
vt 8.5000 1.0000
vt 0.5000 1.0000
vt 0.5000 0.0000
vt 1.0000 0.0000
vt 1.0000 1.0000
vt 0.5000 1.0000
vt 0.0000 0.0000
vt 0.5000 0.0000
vt 0.5000 1.0000
vt 0.0000 1.0000
vt 0.0000 0.0000
vt 0.5000 0.0000
vt 0.5000 1.0000
vt 0.0000 1.0000
vt 0.0000 0.0000
vt 0.5000 0.0000
vt 0.5000 1.0000
vt 0.0000 1.0000
vt 1.0000 0.0000
vt 1.0000 1.0000
vt 0.5000 0.0000
vt 2.0000 0.0000
vt 2.0000 1.0000
vt 0.5000 1.0000
vt 0.5000 0.0000
vt 7.5000 0.0000
vt 7.5000 1.0000
vt 0.5000 1.0000
vt 0.0000 0.0000
vt 0.1000 0.0000
vt 0.1000 1.0000
vt 0.0000 1.0000
vt 0.5000 0.0000
vt 1.5000 -0.0000
vt 1.5000 1.0000
vt 0.5000 1.0000
vt 0.0000 0.0000
vt 0.5000 0.0000
vt 0.5000 1.0000
vt 0.0000 1.0000
vt 5.0000 0.0000
vt 5.0000 1.0000
vt 0.0000 0.0000
vt 6.0000 0.0000
vt 6.0000 1.0000
vt 0.0000 1.0000
vt 0.5000 0.0000
vt 2.0000 0.0000
vt 2.0000 1.0000
vt 0.5000 1.0000
vt 0.0000 0.0000
vt 0.1000 0.0000
vt 0.1000 1.0000
vt 0.0000 1.0000
vt 0.0000 0.0000
vt 3.0000 -0.0000
vt 3.0000 1.0000
vt 0.0000 1.0000
vt 0.0000 0.0000
vt 3.0000 -0.0000
vt 3.0000 1.0000
vt 0.0000 1.0000
vt 0.5000 0.0000
vt 5.0000 0.0000
vt 5.0000 1.0000
vt 0.5000 1.0000
vt 0.0000 0.0000
vt 3.0000 -0.0000
vt 3.0000 1.0000
vt 0.0000 1.0000
vt 0.5000 0.0000
vt 2.5000 -0.0000
vt 2.5000 1.0000
vt 0.5000 1.0000
vt 0.5000 0.0000
vt 6.5000 0.0000
vt 6.5000 1.0000
vt 0.5000 1.0000
vt 0.0000 0.0000
vt 2.5000 -0.0000
vt 2.5000 1.0000
vt 0.0000 1.0000
vt 0.0000 0.0000
vt 9.0000 -0.0000
vt 9.0000 1.0000
vt 0.0000 1.0000
vt 0.0000 0.0000
vt 4.5000 0.0000
vt 4.5000 1.0000
vt 0.0000 1.0000
vt 0.0000 0.0000
vt 3.5000 0.0000
vt 3.5000 1.0000
vt 0.0000 1.0000
vt 0.0000 0.0000
vt 6.0000 0.0000
vt 6.0000 1.0000
vt 0.0000 1.0000
vt 0.0000 0.0000
vt 1.5000 -0.0000
vt 1.5000 1.0000
vt 0.0000 1.0000
vt 0.5000 0.0000
vt 4.5000 0.0000
vt 4.5000 1.0000
vt 0.5000 1.0000
vt 0.5000 0.0000
vt 6.5000 0.0000
vt 6.5000 1.0000
vt 0.5000 1.0000
vt 0.0000 0.0000
vt 5.0000 0.0000
vt 5.0000 1.0000
vt 0.0000 1.0000
vt 0.0000 0.0000
vt 2.5000 -0.0000
vt 2.5000 1.0000
vt 0.0000 1.0000
vt 0.5000 0.0000
vt 1.5000 -0.0000
vt 1.5000 1.0000
vt 0.5000 1.0000
vt 0.0000 0.0000
vt 3.5000 0.0000
vt 3.5000 1.0000
vt 0.0000 1.0000
vt 0.0000 0.0000
vt 2.0000 0.0000
vt 2.0000 1.0000
vt 0.0000 1.0000
vt 0.5000 0.0000
vt 5.0000 0.0000
vt 5.0000 1.0000
vt 0.5000 1.0000
vt 0.5000 0.0000
vt 3.5000 0.0000
vt 3.5000 1.0000
vt 0.5000 1.0000
vt 0.5000 0.0000
vt 2.5000 -0.0000
vt 2.5000 1.0000
vt 0.5000 1.0000
vt 3.5000 0.0000
vt 3.5000 1.0000
vt 0.0000 0.0000
vt 2.0000 0.0000
vt 2.0000 1.0000
vt 0.0000 1.0000
vn 0.3044 0.0000 0.9525
vn 0.9527 0.0000 -0.3039
vn -0.3043 0.0000 -0.9526
vn -0.3038 0.0000 -0.9527
vn -0.9527 0.0000 0.3039
vn 0.9569 0.0000 -0.2905
vn -0.2917 0.0000 -0.9565
vn -0.9564 0.0000 0.2921
vn 0.2912 0.0000 0.9567
vn -0.3133 0.0000 -0.9496
vn -0.9281 0.0000 0.3723
vn 0.2905 0.0000 0.9569
vn 0.9276 0.0000 -0.3735
vn 0.1547 0.0000 0.9880
vn 0.9668 0.0000 -0.2555
vn -0.1558 0.0000 -0.9878
vn -0.9879 0.0000 0.1554
vn 0.7548 0.0000 -0.6560
vn 0.6584 0.0000 0.7527
vn -0.6584 0.0000 -0.7527
vn -0.7548 0.0000 0.6560
vn 0.6561 0.0000 0.7546
vn -0.0988 0.0000 -0.9951
vn -0.9907 0.0000 0.1359
vn 0.0987 0.0000 0.9951
vn -0.9908 0.0000 0.1355
vn 0.2371 0.0000 0.9715
vn 0.9908 0.0000 -0.1355
vn 0.9769 0.0000 -0.2136
vn -0.2122 0.0000 -0.9772
vn -0.9769 0.0000 0.2137
vn -0.2120 0.0000 -0.9773
vn -0.9768 0.0000 0.2141
vn 0.2120 0.0000 0.9773
vn -0.7343 0.0000 0.6788
vn 0.6788 0.0000 0.7343
vn 0.7344 0.0000 -0.6788
vn -0.6788 0.0000 -0.7343
vn -0.7344 0.0000 0.6788
vn 0.7345 0.0000 -0.6786
vn 1.0000 0.0000 0.0058
vn 0.7031 0.0000 -0.7111
vn 0.0119 0.0000 -0.9999
vn -1.0000 0.0000 -0.0055
vn -0.0049 0.0000 1.0000
vn 0.8578 0.0000 0.5140
vn 0.8137 0.0000 0.5812
vn 0.7124 0.0000 0.7018
vn 0.5953 0.0000 0.8035
vn 0.4616 0.0000 0.8871
vn 0.3887 0.0000 0.9214
vn 0.7793 0.0000 -0.6266
vn -0.3888 0.0000 -0.9213
vn -0.4615 0.0000 -0.8871
vn 0.5166 0.0000 -0.8562
vn -0.8587 0.0000 -0.5126
vn -0.5167 0.0000 0.8562
vn 0.9913 0.0000 -0.1319
vn 0.1321 0.0000 0.9912
vn 0.9913 0.0000 -0.1318
vn -0.1320 0.0000 -0.9913
vn -0.9913 0.0000 0.1318
vn 0.1315 0.0000 0.9913
vn -0.9572 0.0000 0.2895
vn 0.9572 0.0000 -0.2895
vn -0.2912 0.0000 -0.9567
vn -0.9573 0.0000 0.2892
vn 0.9957 0.0000 -0.0924
vn -0.0985 0.0000 -0.9951
vn -0.1901 0.0000 -0.9818
vn -0.9883 0.0000 0.1524
vn 0.1493 0.0000 0.9888
vn 0.0981 0.0000 0.9952
vn 0.9952 0.0000 -0.0981
vn -0.0981 0.0000 -0.9952
g CityEngineMaterial_292_CityEngineMaterial_292_CityEngineMaterial_292_mat
usemtl CityEngineMaterial_292_mat
s 1
f 1/1/1 2/2/1 3/3/1 4/4/1
f 2/5/2 5/6/2 6/7/2 3/8/2
f 5/9/3 7/10/3 8/11/3 6/12/3
f 7/13/2 9/14/2 10/15/2 8/16/2
f 9/17/4 11/18/4 12/19/4 10/20/4
f 11/21/5 1/22/5 4/23/5 12/24/5
f 13/25/6 14/26/6 15/27/6 16/28/6
f 14/29/7 17/30/7 18/31/7 15/32/7
f 17/33/8 19/34/8 20/35/8 18/36/8
f 19/37/9 13/38/9 16/39/9 20/40/9
f 21/41/10 22/42/10 23/43/10 24/44/10
f 22/45/11 25/46/11 26/47/11 23/48/11
f 25/49/12 27/50/12 28/51/12 26/52/12
f 27/53/13 21/54/13 24/55/13 28/56/13
f 29/57/14 30/58/14 31/59/14 32/60/14
f 30/61/15 33/62/15 34/63/15 31/64/15
f 33/65/16 35/66/16 36/67/16 34/68/16
f 35/69/17 29/70/17 32/71/17 36/72/17
f 37/73/18 38/74/18 39/75/18 40/76/18
f 38/77/19 41/78/19 42/79/19 39/80/19
f 41/81/18 43/82/18 44/83/18 42/84/18
f 43/85/20 45/86/20 46/87/20 44/88/20
f 45/89/21 47/90/21 48/91/21 46/92/21
f 47/93/22 37/94/22 40/95/22 48/96/22
f 49/97/23 50/98/23 51/99/23 52/100/23
f 50/101/24 53/102/24 54/103/24 51/104/24
f 53/105/25 55/106/25 56/107/25 54/108/25
f 55/109/26 57/110/26 58/111/26 56/112/26
f 57/113/27 59/114/27 60/115/27 58/116/27
f 59/117/28 49/118/28 52/119/28 60/120/28
f 61/121/29 62/122/29 63/123/29 64/124/29
f 62/125/30 65/126/30 66/127/30 63/128/30
f 65/129/31 67/130/31 68/131/31 66/132/31
f 67/133/32 69/134/32 70/135/32 68/136/32
f 69/134/33 71/137/33 72/138/33 70/135/33
f 71/139/34 61/140/34 64/141/34 72/142/34
f 73/143/35 74/144/35 75/145/35 76/146/35
f 74/147/36 77/148/36 78/149/36 75/150/36
f 77/151/37 79/152/37 80/153/37 78/154/37
f 79/155/38 81/156/38 82/157/38 80/158/38
f 81/159/39 83/160/39 84/161/39 82/162/39
f 83/163/36 85/164/36 86/165/36 84/166/36
f 85/167/40 87/168/40 88/169/40 86/170/40
f 87/171/36 73/172/36 76/173/36 88/174/36
f 89/175/41 90/176/41 91/177/41 92/178/41
f 90/179/42 93/180/42 94/181/42 91/182/42
f 93/183/43 95/184/43 96/185/43 94/186/43
f 95/187/44 97/188/44 98/189/44 96/190/44
f 97/191/45 89/192/45 92/193/45 98/194/45
f 99/195/46 100/196/46 101/197/46 102/198/46
f 100/199/47 103/200/47 104/201/47 101/202/47
f 103/203/48 105/204/48 106/205/48 104/206/48
f 105/207/49 107/208/49 108/209/49 106/210/49
f 107/208/50 109/211/50 110/212/50 108/209/50
f 109/213/51 111/214/51 112/215/51 110/216/51
f 111/217/52 113/218/52 114/219/52 112/220/52
f 113/221/53 115/222/53 116/223/53 114/224/53
f 115/225/54 117/226/54 118/227/54 116/228/54
f 117/229/55 119/230/55 120/231/55 118/232/55
f 119/230/56 121/233/56 122/234/56 120/231/56
f 121/235/57 99/236/57 102/237/57 122/238/57
f 123/239/58 124/240/58 125/241/58 126/242/58
f 124/243/59 127/244/59 128/245/59 125/246/59
f 127/247/60 129/248/60 130/249/60 128/250/60
f 129/251/61 131/252/61 132/253/61 130/254/61
f 131/255/62 133/256/62 134/257/62 132/258/62
f 133/259/63 123/260/63 126/261/63 134/262/63
f 135/263/9 136/264/9 137/265/9 138/266/9
f 136/267/64 139/268/64 140/269/64 137/270/64
f 139/271/9 141/272/9 142/273/9 140/274/9
f 141/275/65 143/276/65 144/277/65 142/278/65
f 143/279/66 145/280/66 146/281/66 144/282/66
f 145/283/67 135/284/67 138/285/67 146/286/67
f 147/287/68 148/288/68 149/289/68 150/290/68
f 148/291/69 151/292/69 152/293/69 149/294/69
f 151/295/70 153/296/70 154/297/70 152/298/70
f 153/299/71 155/300/71 156/301/71 154/302/71
f 155/303/72 147/304/72 150/305/72 156/306/72
f 157/307/68 158/308/68 159/309/68 160/310/68
f 158/311/69 161/312/69 162/313/69 159/314/69
f 161/315/70 163/316/70 164/317/70 162/318/70
f 163/319/71 165/320/71 166/321/71 164/322/71
f 165/323/73 157/324/73 160/325/73 166/326/73
f 167/327/74 168/328/74 169/329/74 170/330/74
f 168/331/75 165/332/75 166/333/75 169/334/75
f 165/323/71 171/335/71 172/336/71 166/326/71
f 171/337/72 167/338/72 170/339/72 172/340/72
