# Blender v2.78 (sub 0) OBJ File: ''
# www.blender.org
mtllib CityEngineMaterial_746.mtl
o CityEngineMaterial_746
v -717.971130 3.167558 256.860291
v -726.811401 3.167558 256.254608
v -726.811401 4.904758 256.254608
v -717.971130 4.904758 256.860291
v -727.345825 3.167557 264.055115
v -727.345825 4.904757 264.055115
v -721.772278 3.167557 264.436890
v -721.772278 4.904757 264.436890
v -721.962524 3.167557 266.751709
v -721.962524 4.904757 266.751709
v -718.801880 3.167557 266.968201
v -718.801880 4.904757 266.968201
v 223.505005 34.045116 -85.746094
v 224.575104 34.045113 -79.540993
v 224.575104 35.953510 -79.540993
v 223.505005 35.953514 -85.746094
v 242.401093 34.045116 -82.615395
v 242.401093 35.953514 -82.615395
v 241.790207 34.045116 -87.507690
v 241.790207 35.953514 -87.507690
v 232.269897 34.045116 -85.865791
v 232.269897 35.953514 -85.865791
v 232.039597 34.045116 -87.201195
v 232.039597 35.953514 -87.201195
v 293.649597 37.366608 -51.762691
v 293.573792 37.366608 -54.493992
v 293.573792 39.330208 -54.493992
v 293.649597 39.330208 -51.762691
v 293.982391 37.366608 -54.483494
v 293.982391 39.330208 -54.483494
v 293.874786 37.366608 -58.380993
v 293.874786 39.330208 -58.380993
v 287.444092 37.366611 -58.546291
v 287.444092 39.330212 -58.546291
v 287.724213 37.366608 -48.462593
v 287.724213 39.330208 -48.462593
v 294.143402 37.366608 -48.648293
v 294.143402 39.330208 -48.648293
v 294.057098 37.366608 -51.774391
v 294.057098 39.330208 -51.774391
v -161.788101 1.330783 720.692993
v -143.198196 1.330782 722.438477
v -143.198196 3.166682 722.438477
v -161.788101 3.166683 720.692993
v -141.552704 1.330785 704.909119
v -141.552704 3.166685 704.909119
v -160.158493 1.330785 703.170776
v -160.158493 3.166685 703.170776
v -471.341888 10.135194 -575.277222
v -469.229187 10.135193 -568.196777
v -469.229187 11.974993 -568.196777
v -471.341888 11.974994 -575.277222
v -454.022186 10.135194 -572.534912
v -454.022186 11.974994 -572.534912
v -456.726990 10.135195 -581.568298
v -456.726990 11.974995 -581.568298
v -469.277588 10.135195 -577.847107
v -469.277588 11.974995 -577.847107
v -468.730988 10.135194 -576.021973
v -468.730988 11.974994 -576.021973
v 19.532600 1.901154 281.355011
v 16.210899 1.901256 270.312408
v 16.210899 4.201956 270.312408
v 19.532600 4.201954 281.355011
v 0.249500 1.901255 274.895599
v 0.249500 4.201955 274.895599
v 3.574200 1.901253 285.953888
v 3.574200 4.201953 285.953888
v -252.394302 2.992783 718.657776
v -253.892197 2.992783 720.042419
v -253.892197 4.590583 720.042419
v -252.394302 4.590583 718.657776
v -254.921402 2.992783 718.928589
v -254.921402 4.590583 718.928589
v -258.202789 2.992782 721.961670
v -258.202789 4.590582 721.961670
v -253.183594 2.992781 727.393494
v -253.183594 4.590581 727.393494
v -248.404297 2.992782 722.975830
v -248.404297 4.590582 722.975830
v -484.275787 1.931388 72.912300
v -484.244385 1.931388 73.051498
v -484.244385 4.090688 73.051498
v -484.275787 4.090688 72.912300
v -483.390900 1.931388 73.409103
v -483.390900 4.090688 73.409103
v -480.645203 1.931388 72.903801
v -480.645203 4.090688 72.903801
v -481.531189 1.931389 68.978897
v -481.531189 4.090689 68.978897
v -487.149994 1.931388 70.013100
v -487.149994 4.090689 70.013100
v -490.420685 1.931388 70.615601
v -490.420685 4.090689 70.615601
v -487.757812 1.931388 71.579498
v -487.757812 4.090689 71.579498
v -484.484894 1.931388 72.950798
v -484.484894 4.090688 72.950798
v 21.864599 30.630667 -414.698792
v 31.357300 30.630669 -416.185303
v 31.357300 32.253269 -416.185303
v 21.864599 32.253269 -414.698792
v 29.756599 30.630669 -426.400391
v 29.756599 32.253269 -426.400391
v 27.310699 30.630669 -426.017487
v 27.310699 32.253269 -426.017487
v 26.620501 30.630671 -430.386688
v 26.620501 32.253269 -430.386688
v 19.563601 30.630671 -429.265411
v 19.563601 32.253269 -429.265411
v 671.623230 28.273933 407.874908
v 667.728271 28.273933 408.771698
v 667.728271 30.265133 408.771698
v 671.623230 30.265133 407.874908
v 667.405884 28.273933 407.370300
v 667.405884 30.265133 407.370300
v 655.629395 28.273933 410.034393
v 655.629395 30.265133 410.034393
v 657.159485 28.273932 416.686615
v 657.159485 30.265131 416.686615
v 672.817017 28.273933 413.081512
v 672.817017 30.265133 413.081512
v -148.553101 3.963420 -120.764099
v -147.501404 3.963419 -117.514297
v -147.501404 5.831619 -117.514297
v -148.553101 5.831620 -120.764099
v -135.301697 3.963419 -120.007797
v -135.301697 5.831620 -120.007797
v -135.882507 3.963420 -122.554001
v -135.882507 5.831620 -122.554001
v -140.435501 3.963420 -121.623398
v -140.435501 5.831620 -121.623398
v -140.677902 3.963420 -122.372498
v -140.677902 5.831620 -122.372498
v -23.664900 34.885181 -1119.134399
v -25.278299 34.885181 -1129.416260
v -25.278299 36.204182 -1129.416260
v -23.664900 36.204182 -1119.134399
v -33.166599 34.885181 -1128.181274
v -33.166599 36.204182 -1128.181274
v -31.550100 34.885181 -1117.899902
v -31.550100 36.204182 -1117.899902
v -29.647900 34.885181 -1118.197754
v -29.647900 36.204182 -1118.197754
v -30.567499 34.885181 -1124.046387
v -30.567499 36.204182 -1124.046387
v -26.288500 34.885181 -1124.716309
v -26.288500 36.204182 -1124.716309
v -25.370701 34.885181 -1118.867310
v -25.370701 36.204182 -1118.867310
v -59.337799 10.665631 -191.667206
v -58.465302 10.665630 -186.634003
v -58.465302 12.499431 -186.634003
v -59.337799 12.499432 -191.667206
v -54.736301 10.665630 -187.223495
v -54.736301 12.499431 -187.223495
v -53.778198 10.665629 -181.766098
v -53.778198 12.499330 -181.766098
v -43.411400 10.665629 -183.394302
v -43.411400 12.499330 -183.394302
v -45.254601 10.665631 -193.893402
v -45.254601 12.499432 -193.893402
v 49.645802 24.017742 -257.618500
v 51.811901 24.017738 -236.337006
v 51.811901 26.098238 -236.337006
v 49.645802 26.098242 -257.618500
v 63.306900 24.017738 -237.512405
v 63.306900 26.098238 -237.512405
v 63.497101 24.017742 -258.999786
v 63.497101 26.098242 -258.999786
v -46.165298 30.497883 -504.404785
v -48.977600 30.497887 -527.085327
v -48.977600 32.337387 -527.085327
v -46.165298 32.337383 -504.404785
v -64.090897 30.497887 -525.172974
v -64.090897 32.337383 -525.172974
v -61.152302 30.497883 -502.057892
v -61.152302 32.337379 -502.057892
v -425.577698 1.313911 -68.952103
v -438.154510 1.313911 -69.272797
v -438.154510 3.610511 -69.272797
v -425.577698 3.610511 -68.952103
v -437.367615 1.313908 -51.872799
v -437.367615 3.610508 -51.872799
v -426.013306 1.313908 -51.583302
v -426.013306 3.610508 -51.583302
v 778.157104 90.374237 -210.738785
v 779.411011 90.374130 -202.121979
v 779.411011 92.343529 -202.121979
v 778.157104 92.343536 -210.738785
v 784.444519 90.374130 -202.075287
v 784.444519 92.343529 -202.075287
v 784.326172 90.374130 -210.700790
v 784.326172 92.343529 -210.700790
v 781.748291 90.374130 -210.716690
v 781.748291 92.343529 -210.716690
v 781.760376 90.374130 -209.831085
v 781.760376 92.343529 -209.831085
v 779.883423 90.374130 -209.848480
v 779.883423 92.343529 -209.848480
v 779.755310 90.374130 -210.728882
v 779.755310 92.343529 -210.728882
v -57.321701 33.118996 -1184.003052
v -48.699501 33.118996 -1185.036499
v -48.699501 34.366493 -1185.036499
v -57.321701 34.366493 -1184.003052
v -48.705101 33.118996 -1185.133789
v -48.705101 34.366493 -1185.133789
v -49.039700 33.118996 -1187.904297
v -49.039700 34.366493 -1187.904297
v -51.763901 33.118996 -1187.577759
v -51.763901 34.366493 -1187.577759
v -52.056301 33.118996 -1192.650146
v -52.056301 34.366493 -1192.650146
v -57.800800 33.118996 -1192.314575
v -57.800800 34.366493 -1192.314575
vt 0.6667 0.0000
vt 2.6667 0.0000
vt 2.6667 1.0000
vt 0.6667 1.0000
vt 0.6667 0.0000
vt 2.3333 -0.0000
vt 2.3333 1.0000
vt 0.6667 1.0000
vt 0.3333 0.0000
vt 1.6667 0.0000
vt 1.6667 1.0000
vt 0.3333 1.0000
vt 0.3333 0.0000
vt 1.0000 0.0000
vt 1.0000 1.0000
vt 0.3333 1.0000
vt -0.0000 0.0000
vt 0.6667 0.0000
vt 0.6667 1.0000
vt 0.0000 1.0000
vt 0.3333 0.0000
vt 2.6667 0.0000
vt 2.6667 1.0000
vt 0.3333 1.0000
vt -0.0000 0.0000
vt 1.6667 0.0000
vt 1.6667 1.0000
vt 0.0000 1.0000
vt 0.3333 0.0000
vt 5.0000 0.0000
vt 5.0000 1.0000
vt 0.3333 1.0000
vt -0.0000 0.0000
vt 1.3333 0.0000
vt 1.3333 1.0000
vt 0.0000 1.0000
vt 0.3333 0.0000
vt 3.0000 -0.0000
vt 3.0000 1.0000
vt 0.3333 1.0000
vt 0.3333 0.0000
vt 0.6667 0.0000
vt 0.6667 1.0000
vt 0.3333 1.0000
vt 0.3333 0.0000
vt 2.6667 0.0000
vt 2.6667 1.0000
vt 0.3333 1.0000
vt 0.3333 0.0000
vt 1.0000 0.0000
vt 1.0000 1.0000
vt 0.3333 1.0000
vt 0.6667 0.0000
vt 0.7333 0.0000
vt 0.7333 1.0000
vt 0.6667 1.0000
vt 0.6667 0.0000
vt 1.6667 0.0000
vt 1.6667 1.0000
vt 0.6667 1.0000
vt -0.0000 0.0000
vt 1.3333 0.0000
vt 1.3333 1.0000
vt 0.0000 1.0000
vt 0.6667 0.0000
vt 3.0000 -0.0000
vt 3.0000 1.0000
vt 0.6667 1.0000
vt 0.6667 0.0000
vt 2.0000 -0.0000
vt 2.0000 1.0000
vt 0.6667 1.0000
vt 0.3333 0.0000
vt 1.0000 0.0000
vt 1.0000 1.0000
vt 0.3333 1.0000
vt -0.0000 0.0000
vt 0.0667 -0.0000
vt 0.0667 1.0000
vt 0.0000 1.0000
vt 0.3333 0.0000
vt 4.6667 0.0000
vt 4.6667 1.0000
vt 0.3333 1.0000
vt -0.0000 0.0000
vt 4.3333 0.0000
vt 4.3333 1.0000
vt 0.0000 1.0000
vt 0.3333 0.0000
vt 4.6667 0.0000
vt 4.6667 1.0000
vt 0.3333 1.0000
vt 0.3333 0.0000
vt 4.6667 0.0000
vt 4.6667 1.0000
vt 0.3333 1.0000
vt 0.6667 0.0000
vt 3.0000 -0.0000
vt 3.0000 1.0000
vt 0.6667 1.0000
vt 0.3333 0.0000
vt 5.3333 0.0000
vt 5.3333 1.0000
vt 0.3333 1.0000
vt 0.3333 0.0000
vt 3.3333 0.0000
vt 3.3333 1.0000
vt 0.3333 1.0000
vt 0.3333 0.0000
vt 4.3333 0.0000
vt 4.3333 1.0000
vt 0.3333 1.0000
vt 0.6667 0.0000
vt 1.3333 0.0000
vt 1.3333 1.0000
vt 0.6667 1.0000
vt 0.3333 0.0000
vt 1.3333 0.0000
vt 1.3333 1.0000
vt 0.3333 1.0000
vt 0.3333 0.0000
vt 4.3333 0.0000
vt 4.3333 1.0000
vt 0.3333 1.0000
vt 0.6667 0.0000
vt 6.6667 -0.0000
vt 6.6667 1.0000
vt 0.6667 1.0000
vt 0.3333 0.0000
vt 4.3333 0.0000
vt 4.3333 1.0000
vt 0.3333 1.0000
vt 0.3333 0.0000
vt 6.3333 0.0000
vt 6.3333 1.0000
vt 0.3333 1.0000
vt 0.6667 0.0000
vt 1.0000 0.0000
vt 1.0000 1.0000
vt 0.6667 1.0000
vt 0.3333 0.0000
vt 0.6667 0.0000
vt 0.6667 1.0000
vt 0.3333 1.0000
vt 1.6667 0.0000
vt 1.6667 1.0000
vt 0.3333 0.0000
vt 2.0000 -0.0000
vt 2.0000 1.0000
vt 0.3333 1.0000
vt 0.6667 0.0000
vt 2.3333 -0.0000
vt 2.3333 1.0000
vt 0.6667 1.0000
vt 0.3333 0.0000
vt 1.6667 0.0000
vt 1.6667 1.0000
vt 0.3333 1.0000
vt 0.6667 0.0000
vt 0.7333 0.0000
vt 0.7333 1.0000
vt 0.6667 1.0000
vt 0.3333 0.0000
vt 0.6667 0.0000
vt 0.6667 1.0000
vt 0.3333 1.0000
vt 0.3333 0.0000
vt 1.0000 0.0000
vt 1.0000 1.0000
vt 0.3333 1.0000
vt -0.0000 0.0000
vt 1.0000 0.0000
vt 1.0000 1.0000
vt 0.0000 1.0000
vt 0.6667 0.0000
vt 2.0000 -0.0000
vt 2.0000 1.0000
vt 0.6667 1.0000
vt 0.3333 0.0000
vt 1.3333 0.0000
vt 1.3333 1.0000
vt 0.3333 1.0000
vt 0.3333 0.0000
vt 1.0000 0.0000
vt 1.0000 1.0000
vt 0.3333 1.0000
vt 0.3333 0.0000
vt 1.3333 0.0000
vt 1.3333 1.0000
vt 0.3333 1.0000
vt -0.0000 0.0000
vt 0.0667 -0.0000
vt 0.0667 1.0000
vt 0.0000 1.0000
vt 0.6667 0.0000
vt 3.3333 0.0000
vt 3.3333 1.0000
vt 0.6667 1.0000
vt 0.3333 0.0000
vt 3.0000 -0.0000
vt 3.0000 1.0000
vt 0.3333 1.0000
vt -0.0000 0.0000
vt 0.6667 0.0000
vt 0.6667 1.0000
vt 0.0000 1.0000
vt 0.3333 0.0000
vt 1.6667 0.0000
vt 1.6667 1.0000
vt 0.3333 1.0000
vt 0.6667 0.0000
vt 2.6667 0.0000
vt 2.6667 1.0000
vt 0.6667 1.0000
vt -0.0000 0.0000
vt 4.0000 -0.0000
vt 4.0000 1.0000
vt 0.0000 1.0000
vt 0.3333 0.0000
vt 1.3333 0.0000
vt 1.3333 1.0000
vt 0.3333 1.0000
vt 0.3333 0.0000
vt 0.6667 0.0000
vt 0.6667 1.0000
vt 0.3333 1.0000
vt 0.3333 0.0000
vt 3.3333 0.0000
vt 3.3333 1.0000
vt 0.3333 1.0000
vt 0.6667 0.0000
vt 2.3333 -0.0000
vt 2.3333 1.0000
vt 0.6667 1.0000
vt 0.6667 0.0000
vt 4.6667 0.0000
vt 4.6667 1.0000
vt 0.6667 1.0000
vt -0.0000 0.0000
vt 1.3333 0.0000
vt 1.3333 1.0000
vt 0.0000 1.0000
vt 0.6667 0.0000
vt 1.6667 0.0000
vt 1.6667 1.0000
vt 0.6667 1.0000
vt 0.3333 0.0000
vt 4.0000 -0.0000
vt 4.0000 1.0000
vt 0.3333 1.0000
vt 0.3333 0.0000
vt 1.0000 0.0000
vt 1.0000 1.0000
vt 0.3333 1.0000
vt -0.0000 0.0000
vt 1.3333 0.0000
vt 1.3333 1.0000
vt 0.0000 1.0000
vt 0.3333 0.0000
vt 0.6667 0.0000
vt 0.6667 1.0000
vt 0.3333 1.0000
vt 0.3333 0.0000
vt 2.6667 0.0000
vt 2.6667 1.0000
vt 0.3333 1.0000
vt 0.3333 0.0000
vt 3.0000 -0.0000
vt 3.0000 1.0000
vt 0.3333 1.0000
vt 0.3333 0.0000
vt 2.3333 -0.0000
vt 2.3333 1.0000
vt 0.3333 1.0000
vt 0.3333 0.0000
vt 3.0000 -0.0000
vt 3.0000 1.0000
vt 0.3333 1.0000
vt -0.0000 0.0000
vt 0.3333 0.0000
vt 0.3333 1.0000
vt 0.0000 1.0000
vt 2.0000 -0.0000
vt 2.0000 1.0000
vt 0.6667 0.0000
vt 1.6667 0.0000
vt 1.6667 1.0000
vt 0.6667 1.0000
vt 0.3333 0.0000
vt 2.0000 -0.0000
vt 2.0000 1.0000
vt 0.3333 1.0000
vt -0.0000 0.0000
vt 0.0000 1.0000
vt 0.6667 0.0000
vt 2.0000 -0.0000
vt 2.0000 1.0000
vt 0.6667 1.0000
vt 0.3333 0.0000
vt 1.3333 0.0000
vt 1.3333 1.0000
vt 0.3333 1.0000
vt -0.0000 0.0000
vt 1.3333 0.0000
vt 1.3333 1.0000
vt 0.0000 1.0000
vt -0.0000 0.0000
vt 2.6667 0.0000
vt 2.6667 1.0000
vt 0.0000 1.0000
vt 0.6667 0.0000
vt 3.3333 0.0000
vt 3.3333 1.0000
vt 0.6667 1.0000
vt -0.0000 0.0000
vt 3.6667 -0.0000
vt 3.6667 1.0000
vt 0.0000 1.0000
vt 0.6667 0.0000
vt 6.3333 0.0000
vt 6.3333 1.0000
vt 0.6667 1.0000
vt 0.3333 0.0000
vt 3.3333 0.0000
vt 3.3333 1.0000
vt 0.3333 1.0000
vt 0.6667 0.0000
vt 6.3333 0.0000
vt 6.3333 1.0000
vt 0.6667 1.0000
vt 0.3333 0.0000
vt 4.0000 -0.0000
vt 4.0000 1.0000
vt 0.3333 1.0000
vt 0.3333 0.0000
vt 6.6667 -0.0000
vt 6.6667 1.0000
vt 0.3333 1.0000
vt 0.3333 0.0000
vt 4.3333 0.0000
vt 4.3333 1.0000
vt 0.3333 1.0000
vt 0.3333 0.0000
vt 6.6667 -0.0000
vt 6.6667 1.0000
vt 0.3333 1.0000
vt -0.0000 0.0000
vt 4.0000 -0.0000
vt 4.0000 1.0000
vt 0.0000 1.0000
vt -0.0000 0.0000
vt 3.3333 0.0000
vt 3.3333 1.0000
vt 0.0000 1.0000
vt 0.6667 0.0000
vt 5.3333 0.0000
vt 5.3333 1.0000
vt 0.6667 1.0000
vt 0.3333 0.0000
vt 3.3333 0.0000
vt 3.3333 1.0000
vt 0.3333 1.0000
vt 0.3333 0.0000
vt 5.0000 0.0000
vt 5.0000 1.0000
vt 0.3333 1.0000
vt 0.6667 0.0000
vt 2.6667 0.0000
vt 2.6667 1.0000
vt 0.6667 1.0000
vt 0.3333 0.0000
vt 1.6667 0.0000
vt 1.6667 1.0000
vt 0.3333 1.0000
vt 0.6667 0.0000
vt 2.6667 0.0000
vt 2.6667 1.0000
vt 0.6667 1.0000
vt 0.3333 0.0000
vt 1.0000 0.0000
vt 1.0000 1.0000
vt 0.3333 1.0000
vt -0.0000 0.0000
vt 0.3333 0.0000
vt 0.3333 1.0000
vt 0.0000 1.0000
vt -0.0000 0.0000
vt 0.3333 0.0000
vt 0.3333 1.0000
vt 0.0000 1.0000
vt 0.6667 0.0000
vt 1.0000 0.0000
vt 1.0000 1.0000
vt 0.6667 1.0000
vt 0.3333 0.0000
vt 0.3333 1.0000
vt -0.0000 0.0000
vt 2.3333 -0.0000
vt 2.3333 1.0000
vt 0.0000 1.0000
vt 0.3333 0.0000
vt 0.4000 0.0000
vt 0.4000 1.0000
vt 0.3333 1.0000
vt -0.0000 0.0000
vt 0.6667 0.0000
vt 0.6667 1.0000
vt 0.0000 1.0000
vt 0.3333 0.0000
vt 1.0000 0.0000
vt 1.0000 1.0000
vt 0.3333 1.0000
vt 0.6667 0.0000
vt 2.0000 -0.0000
vt 2.0000 1.0000
vt 0.6667 1.0000
vt -0.0000 0.0000
vt 1.6667 0.0000
vt 1.6667 1.0000
vt 0.0000 1.0000
vt 0.3333 0.0000
vt 2.6667 0.0000
vt 2.6667 1.0000
vt 0.3333 1.0000
vn 0.0684 0.0000 -0.9977
vn -0.9977 0.0000 -0.0684
vn -0.0683 0.0000 0.9977
vn -0.9966 0.0000 -0.0819
vn 0.9966 0.0000 0.0819
vn -0.9855 0.0000 0.1699
vn 0.1700 0.0000 0.9855
vn 0.9923 0.0000 -0.1239
vn -0.1700 0.0000 -0.9855
vn 0.9855 0.0000 -0.1699
vn -0.1681 0.0000 -0.9858
vn 0.9996 0.0000 -0.0277
vn -0.0257 0.0000 0.9997
vn 0.9996 0.0000 -0.0276
vn 0.0257 0.0000 -0.9997
vn -0.9996 0.0000 0.0278
vn 0.0289 0.0000 0.9996
vn -0.0287 0.0000 -0.9996
vn -0.0935 0.0000 0.9956
vn 0.9956 0.0000 0.0935
vn 0.0930 0.0000 -0.9957
vn -0.9957 0.0000 -0.0926
vn -0.9583 0.0000 0.2859
vn 0.2743 0.0000 0.9616
vn 0.9580 0.0000 -0.2868
vn -0.2843 0.0000 -0.9587
vn -0.9580 0.0000 0.2869
vn -0.2743 0.0000 -0.9616
vn 0.9576 0.0000 -0.2881
vn -0.2760 0.0000 -0.9612
vn -0.9577 0.0000 0.2879
vn 0.2769 0.0000 0.9609
vn -0.6788 0.0000 -0.7343
vn 0.7345 0.0000 -0.6786
vn -0.7345 0.0000 0.6787
vn 0.6788 0.0000 0.7343
vn 0.7345 0.0000 -0.6787
vn -0.9755 0.0000 0.2201
vn -0.3864 0.0000 0.9223
vn 0.1810 0.0000 0.9835
vn 0.9755 0.0000 -0.2202
vn -0.1810 0.0000 -0.9835
vn -0.1811 0.0000 -0.9835
vn -0.1812 0.0000 -0.9835
vn -0.3404 0.0000 0.9403
vn 0.1547 0.0000 0.9880
vn 0.9879 0.0000 -0.1548
vn -0.1547 0.0000 -0.9880
vn 0.9878 0.0000 -0.1560
vn -0.1569 0.0000 -0.9876
vn -0.9878 0.0000 0.1560
vn -0.2244 0.0000 -0.9745
vn 0.9745 0.0000 -0.2242
vn -0.2206 0.0000 -0.9754
vn -0.9746 0.0000 0.2242
vn 0.2244 0.0000 0.9745
vn 0.9747 0.0000 -0.2235
vn -0.9514 0.0000 0.3079
vn 0.2003 0.0000 0.9797
vn 0.9750 0.0000 -0.2224
vn -0.2003 0.0000 -0.9797
vn 0.9514 0.0000 -0.3079
vn -0.2001 0.0000 -0.9798
vn 0.9879 0.0000 -0.1550
vn -0.9879 0.0000 0.1553
vn 0.9879 0.0000 -0.1553
vn -0.9879 0.0000 0.1550
vn -0.9853 0.0000 0.1708
vn 0.1561 0.0000 0.9877
vn -0.9849 0.0000 0.1729
vn 0.1552 0.0000 0.9879
vn 0.9849 0.0000 -0.1729
vn -0.1561 0.0000 -0.9877
vn -0.9949 0.0000 0.1013
vn 0.1017 0.0000 0.9948
vn 1.0000 0.0000 0.0089
vn -0.0992 0.0000 -0.9951
vn 0.9924 0.0000 -0.1231
vn -0.1255 0.0000 -0.9921
vn -0.9920 0.0000 0.1261
vn 0.0255 0.0000 -0.9997
vn -0.9990 0.0000 0.0452
vn -0.0255 0.0000 0.9997
vn 0.9997 0.0000 0.0251
vn -0.9896 0.0000 0.1440
vn -0.0093 0.0000 1.0000
vn 0.9999 0.0000 -0.0137
vn 0.0062 0.0000 -1.0000
vn -0.9999 0.0000 0.0136
vn 0.0093 0.0000 -1.0000
vn 0.9896 0.0000 -0.1440
vn 0.1190 0.0000 0.9929
vn 0.9983 0.0000 -0.0575
vn 0.9928 0.0000 -0.1199
vn -0.1190 0.0000 -0.9929
vn 0.9983 0.0000 -0.0576
vn -0.0583 0.0000 -0.9983
vn -0.9983 0.0000 0.0575
g CityEngineMaterial_746_CityEngineMaterial_746_CityEngineMaterial_746_mat
usemtl CityEngineMaterial_746_mat
s 1
f 1/1/1 2/2/1 3/3/1 4/4/1
f 2/5/2 5/6/2 6/7/2 3/8/2
f 5/9/3 7/10/3 8/11/3 6/12/3
f 7/13/4 9/14/4 10/15/4 8/16/4
f 9/17/3 11/18/3 12/19/3 10/20/3
f 11/21/5 1/22/5 4/23/5 12/24/5
f 13/25/6 14/26/6 15/27/6 16/28/6
f 14/29/7 17/30/7 18/31/7 15/32/7
f 17/33/8 19/34/8 20/35/8 18/36/8
f 19/37/9 21/38/9 22/39/9 20/40/9
f 21/41/10 23/42/10 24/43/10 22/44/10
f 23/45/11 13/46/11 16/47/11 24/48/11
f 25/49/12 26/50/12 27/51/12 28/52/12
f 26/53/13 29/54/13 30/55/13 27/56/13
f 29/57/14 31/58/14 32/59/14 30/60/14
f 31/61/15 33/62/15 34/63/15 32/64/15
f 33/65/16 35/66/16 36/67/16 34/68/16
f 35/69/17 37/70/17 38/71/17 36/72/17
f 37/73/14 39/74/14 40/75/14 38/76/14
f 39/77/18 25/78/18 28/79/18 40/80/18
f 41/81/19 42/82/19 43/83/19 44/84/19
f 42/85/20 45/86/20 46/87/20 43/88/20
f 45/89/21 47/90/21 48/91/21 46/92/21
f 47/93/22 41/94/22 44/95/22 48/96/22
f 49/97/23 50/98/23 51/99/23 52/100/23
f 50/101/24 53/102/24 54/103/24 51/104/24
f 53/105/25 55/106/25 56/107/25 54/108/25
f 55/109/26 57/110/26 58/111/26 56/112/26
f 57/113/27 59/114/27 60/115/27 58/116/27
f 59/117/28 49/118/28 52/119/28 60/120/28
f 61/121/29 62/122/29 63/123/29 64/124/29
f 62/125/30 65/126/30 66/127/30 63/128/30
f 65/129/31 67/130/31 68/131/31 66/132/31
f 67/133/32 61/134/32 64/135/32 68/136/32
f 69/137/33 70/138/33 71/139/33 72/140/33
f 70/141/34 73/142/34 74/143/34 71/144/34
f 73/142/33 75/145/33 76/146/33 74/143/33
f 75/147/35 77/148/35 78/149/35 76/150/35
f 77/151/36 79/152/36 80/153/36 78/154/36
f 79/155/37 69/156/37 72/157/37 80/158/37
f 81/159/38 82/160/38 83/161/38 84/162/38
f 82/163/39 85/164/39 86/165/39 83/166/39
f 85/167/40 87/168/40 88/169/40 86/170/40
f 87/171/41 89/172/41 90/173/41 88/174/41
f 89/175/42 91/176/43 92/177/43 90/178/42
f 91/179/43 93/180/44 94/181/44 92/182/43
f 93/183/45 95/184/45 96/185/45 94/186/45
f 95/187/39 97/188/39 98/189/39 96/190/39
f 97/191/40 81/192/40 84/193/40 98/194/40
f 99/195/46 100/196/46 101/197/46 102/198/46
f 100/199/47 103/200/47 104/201/47 101/202/47
f 103/203/48 105/204/48 106/205/48 104/206/48
f 105/207/49 107/208/49 108/209/49 106/210/49
f 107/211/50 109/212/50 110/213/50 108/214/50
f 109/215/51 99/216/51 102/217/51 110/218/51
f 111/219/52 112/220/52 113/221/52 114/222/52
f 112/223/53 115/224/53 116/225/53 113/226/53
f 115/227/54 117/228/54 118/229/54 116/230/54
f 117/231/55 119/232/55 120/233/55 118/234/55
f 119/235/56 121/236/56 122/237/56 120/238/56
f 121/239/57 111/240/57 114/241/57 122/242/57
f 123/243/58 124/244/58 125/245/58 126/246/58
f 124/247/59 127/248/59 128/249/59 125/250/59
f 127/251/60 129/252/60 130/253/60 128/254/60
f 129/255/61 131/256/61 132/257/61 130/258/61
f 131/259/62 133/260/62 134/261/62 132/262/62
f 133/263/63 123/264/63 126/265/63 134/266/63
f 135/267/64 136/268/64 137/269/64 138/270/64
f 136/271/48 139/272/48 140/273/48 137/274/48
f 139/275/65 141/276/65 142/277/65 140/278/65
f 141/279/46 143/280/46 144/281/46 142/282/46
f 143/280/66 145/283/66 146/284/66 144/281/66
f 145/285/46 147/286/46 148/287/46 146/288/46
f 147/289/67 149/290/67 150/291/67 148/292/67
f 149/293/46 135/267/46 138/270/46 150/294/46
f 151/295/68 152/296/68 153/297/68 154/298/68
f 152/299/69 155/300/69 156/301/69 153/302/69
f 155/303/70 157/304/70 158/305/70 156/306/70
f 157/307/71 159/308/71 160/309/71 158/310/71
f 159/311/72 161/312/72 162/313/72 160/314/72
f 161/315/73 151/316/73 154/317/73 162/318/73
f 163/319/74 164/320/74 165/321/74 166/322/74
f 164/323/75 167/324/75 168/325/75 165/326/75
f 167/327/76 169/328/76 170/329/76 168/330/76
f 169/331/77 163/332/77 166/333/77 170/334/77
f 171/335/78 172/336/78 173/337/78 174/338/78
f 172/339/79 175/340/79 176/341/79 173/342/79
f 175/343/80 177/344/80 178/345/80 176/346/80
f 177/347/46 171/348/46 174/349/46 178/350/46
f 179/351/81 180/352/81 181/353/81 182/354/81
f 180/355/82 183/356/82 184/357/82 181/358/82
f 183/359/83 185/360/83 186/361/83 184/362/83
f 185/363/84 179/364/84 182/365/84 186/366/84
f 187/367/85 188/368/85 189/369/85 190/370/85
f 188/371/86 191/372/86 192/373/86 189/374/86
f 191/375/87 193/376/87 194/377/87 192/378/87
f 193/379/88 195/380/88 196/381/88 194/382/88
f 195/383/89 197/384/89 198/385/89 196/386/89
f 197/387/90 199/388/90 200/389/90 198/390/90
f 199/391/91 201/392/91 202/393/91 200/394/91
f 201/395/88 187/367/88 190/370/88 202/396/88
f 203/397/92 204/398/92 205/399/92 206/400/92
f 204/401/93 207/402/93 208/403/93 205/404/93
f 207/405/94 209/406/94 210/407/94 208/408/94
f 209/409/95 211/410/95 212/411/95 210/412/95
f 211/413/96 213/414/96 214/415/96 212/416/96
f 213/417/97 215/418/97 216/419/97 214/420/97
f 215/421/98 203/422/98 206/423/98 216/424/98
