# Blender v2.78 (sub 0) OBJ File: ''
# www.blender.org
mtllib CityEngineMaterial_523.mtl
o CityEngineMaterial_523
v -988.126404 11.825117 511.588715
v -999.094971 11.825116 514.351074
v -999.094971 13.104416 514.351074
v -988.126404 13.104417 511.588715
v -999.596924 11.825114 525.814087
v -999.596924 13.104414 525.814087
v -996.075378 11.825114 524.927124
v -996.075378 13.104414 524.927124
v -995.829529 11.825115 519.310486
v -995.829529 13.104415 519.310486
v -993.165283 11.825115 518.639526
v -993.165283 13.104415 518.639526
v -993.394409 11.825114 524.252014
v -993.394409 13.104414 524.252014
v -988.593994 11.825115 523.042908
v -988.593994 13.104415 523.042908
v -658.521484 7.558313 536.748413
v -657.683594 7.558314 529.139526
v -657.683594 9.448215 529.139526
v -658.521484 9.448213 536.748413
v -662.401428 7.558314 528.615723
v -662.401428 9.448215 528.615723
v -662.824280 7.558313 532.359619
v -662.824280 9.448214 532.359619
v -661.504517 7.558313 532.506226
v -661.504517 9.448214 532.506226
v -661.929077 7.558313 536.362610
v -661.929077 9.448213 536.362610
v 209.807999 46.756683 -504.116089
v 211.394302 46.756680 -494.182587
v 211.394302 48.453281 -494.182587
v 209.807999 48.453285 -504.116089
v 222.191101 46.756680 -495.875092
v 222.191101 48.453281 -495.875092
v 220.401398 46.756683 -507.280609
v 220.401398 48.453285 -507.280609
v 214.152298 46.756683 -506.299500
v 214.152298 48.453285 -506.299500
v 214.382507 46.756683 -504.833191
v 214.382507 48.453285 -504.833191
v 216.975693 34.671619 -123.606094
v 220.736496 34.671616 -101.799889
v 220.736496 36.812317 -101.799889
v 216.975693 36.812321 -123.606094
v 235.267105 34.671616 -103.685394
v 235.267105 36.812317 -103.685394
v 232.833206 34.671619 -125.282295
v 232.833206 36.812321 -125.282295
v 224.891907 34.671619 -124.442795
v 224.891907 36.812321 -124.442795
v 477.110687 56.277626 -161.276886
v 480.893585 56.277622 -139.186890
v 480.893585 58.125622 -139.186890
v 477.110687 58.125626 -161.276886
v 488.599091 56.277622 -140.506485
v 488.599091 58.125622 -140.506485
v 486.231293 56.277626 -154.333481
v 486.231293 58.125626 -154.333481
v 488.447113 56.277626 -154.667084
v 488.447113 58.125626 -154.667084
v 487.043304 56.277626 -162.772385
v 487.043304 58.125626 -162.772385
v -241.283798 1.801314 -87.996399
v -247.970596 1.801314 -87.641602
v -247.970596 3.499314 -87.641602
v -241.283798 3.499314 -87.996399
v -247.801895 1.801314 -84.463203
v -247.801895 3.499314 -84.463203
v -246.848602 1.801314 -84.513802
v -246.848602 3.499314 -84.513802
v -246.623795 1.801313 -80.277496
v -246.623795 3.499313 -80.277496
v -247.577103 1.801313 -80.226898
v -247.577103 3.499313 -80.226898
v -247.425095 1.801313 -77.362198
v -247.425095 3.499313 -77.362198
v -240.738297 1.801313 -77.717003
v -240.738297 3.499313 -77.717003
v -1044.141602 9.949339 373.999115
v -1043.303223 9.949341 363.038696
v -1043.303223 11.228641 363.038696
v -1044.141602 11.228639 373.999115
v -1052.214111 9.949341 362.336700
v -1052.214111 11.228641 362.336700
v -1053.061646 9.949339 373.296997
v -1053.061646 11.228639 373.296997
v -1050.931885 9.949339 373.464600
v -1050.931885 11.228639 373.464600
v -1050.516724 9.949340 368.094391
v -1050.516724 11.228640 368.094391
v -1046.636597 9.949340 368.399994
v -1046.636597 11.228640 368.399994
v -1047.047363 9.949339 373.770386
v -1047.047363 11.228639 373.770386
v -339.642609 1.313898 11.531000
v -346.508209 1.313898 13.595900
v -346.508209 3.272598 13.595901
v -339.642609 3.272598 11.531001
v -346.666595 1.313898 12.248600
v -346.666595 3.272598 12.248601
v -351.422394 1.313898 13.678900
v -351.422394 3.272598 13.678901
v -350.403900 1.313896 22.338800
v -350.403900 3.272596 22.338800
v -337.554291 1.313897 18.474100
v -337.554291 3.272597 18.474100
v -61.384399 41.454834 -821.872925
v -59.905998 41.454834 -812.432617
v -59.905998 43.493034 -812.432617
v -61.384399 43.493034 -821.872925
v -48.898102 41.454834 -814.156494
v -48.898102 43.493034 -814.156494
v -49.196602 41.454834 -816.062378
v -49.196602 43.493034 -816.062378
v -52.454700 41.454834 -815.552185
v -52.454700 43.493034 -815.552185
v -53.634602 41.454834 -823.086487
v -53.634602 43.493034 -823.086487
v -136.610794 1.313758 259.389099
v -148.111298 1.313758 260.483002
v -148.111298 3.476658 260.483002
v -136.610794 3.476658 259.389099
v -145.768097 1.313754 281.307007
v -145.768097 3.476654 281.307007
v -134.283096 1.313754 280.214813
v -134.283096 3.476655 280.214813
v -184.531799 1.484881 118.402397
v -177.867203 1.484877 143.194305
v -177.867203 3.673277 143.194305
v -184.531799 3.673281 118.402397
v -163.159393 1.484877 139.232193
v -163.159393 3.673277 139.232193
v -175.801407 1.484881 116.057503
v -175.801407 3.673281 116.057503
v 716.145386 32.642536 396.760712
v 707.227722 32.642536 388.109711
v 707.227722 34.325336 388.109711
v 716.145386 34.325336 396.760712
v 704.255127 32.642536 391.157898
v 704.255127 34.325336 391.157898
v 712.258606 32.642536 398.958893
v 712.258606 34.325336 398.958893
v 713.641785 32.642536 397.540588
v 713.641785 34.325336 397.540588
v 714.538818 32.642536 398.410797
v 714.538818 34.325336 398.410797
v -470.629395 10.519295 -579.211914
v -459.704315 10.519296 -582.451172
v -459.704315 12.325595 -582.451172
v -470.629395 12.325594 -579.211914
v -462.843109 10.519297 -592.966187
v -462.843109 12.325596 -592.966187
v -473.748199 10.519297 -589.656006
v -473.748199 12.325596 -589.656006
v -472.845795 10.519296 -586.633972
v -472.845795 12.325595 -586.633972
v -471.807800 10.519296 -586.949219
v -471.807800 12.325595 -586.949219
v -470.348389 10.519295 -582.060486
v -470.348389 12.325594 -582.060486
v -471.388000 10.519295 -581.752319
v -471.388000 12.325594 -581.752319
v -183.348206 4.462327 -165.395004
v -183.241898 4.462327 -163.153702
v -183.241898 6.200327 -163.153702
v -183.348206 6.200327 -165.395004
v -179.236694 4.462327 -163.342896
v -179.236694 6.200327 -163.342896
v -179.038803 4.462327 -162.469604
v -179.038803 6.200327 -162.469604
v -170.210495 4.462327 -162.887695
v -170.210495 6.200327 -162.887695
v -170.911896 4.462327 -165.982498
v -170.911896 6.200327 -165.982498
v -729.240723 58.868675 -1068.276855
v -728.875793 58.868675 -1067.932251
v -728.875793 60.483875 -1067.932251
v -729.240723 60.483875 -1068.276855
v -722.274475 58.868675 -1065.588379
v -722.274475 60.483875 -1065.588379
v -720.718384 58.868675 -1066.158325
v -720.718384 60.483875 -1066.158325
v -722.412170 58.868675 -1070.676514
v -722.412170 60.483875 -1070.676514
v -725.395813 31.713451 -921.383789
v -724.793213 31.713451 -920.085571
v -724.793213 32.985249 -920.085571
v -725.395813 32.985249 -921.383789
v -721.229004 31.713449 -912.888672
v -721.229004 32.985249 -912.888672
v -721.030029 31.713449 -912.485779
v -721.030029 32.985249 -912.485779
v -715.609924 31.713449 -914.106628
v -715.609924 32.985249 -914.106628
v -717.662781 31.713449 -918.255371
v -717.662781 32.985249 -918.255371
v -708.307983 31.713451 -921.051025
v -708.307983 32.985249 -921.051025
v -709.822021 31.713451 -926.037781
v -709.822021 32.985252 -926.037781
v -511.981598 2.632182 112.264198
v -512.035217 2.632182 110.035202
v -512.035217 4.466982 110.035202
v -511.981598 4.466982 112.264198
v -515.275208 2.632182 110.112900
v -515.275208 4.466982 110.112900
v -515.372681 2.632183 106.054703
v -515.372681 4.466983 106.054703
v -523.667480 2.632183 106.253700
v -523.667480 4.466983 106.253700
v -523.516479 2.632182 112.541000
v -523.516479 4.466982 112.541000
v -113.550201 1.313750 306.710388
v -125.798401 1.313750 308.671906
v -125.798401 3.112350 308.671906
v -113.550201 3.112350 306.710388
v -122.022598 1.313746 332.133087
v -122.022598 3.112346 332.133087
v -109.787804 1.313746 330.172089
v -109.787804 3.112346 330.172089
v -476.914490 3.177057 261.318787
v -483.146301 3.177057 262.177612
v -483.146301 4.901557 262.177612
v -476.914490 4.901557 261.318787
v -481.261688 3.177055 275.854401
v -481.261688 4.901555 275.854401
v -477.127289 3.177055 275.285095
v -477.127289 4.901555 275.285095
v -477.117401 3.177055 274.632294
v -477.117401 4.901555 274.632294
v -477.558807 3.177056 271.429413
v -477.558807 4.901556 271.429413
v -477.067505 3.177056 271.361694
v -477.067505 4.901556 271.361694
vt 0.1667 0.0000
vt 2.0000 0.0000
vt 2.0000 1.0000
vt 0.1667 1.0000
vt 0.5000 0.0000
vt 2.3333 0.0000
vt 2.3333 1.0000
vt 0.5000 1.0000
vt 0.3333 0.0000
vt 0.8333 -0.0000
vt 0.8333 1.0000
vt 0.3333 1.0000
vt 1.6667 0.0000
vt 1.6667 1.0000
vt 0.3333 0.0000
vt 0.8333 -0.0000
vt 0.8333 1.0000
vt 0.3333 1.0000
vt 0.1667 0.0000
vt 1.0000 0.0000
vt 1.0000 1.0000
vt 0.1667 1.0000
vt 0.6667 0.0000
vt 1.5000 0.0000
vt 1.5000 1.0000
vt 0.6667 1.0000
vt 0.0000 -0.0000
vt 1.8333 0.0000
vt 1.8333 1.0000
vt 0.0000 1.0000
vt 0.0000 -0.0000
vt 1.0000 0.0000
vt 1.0000 1.0000
vt 0.0000 1.0000
vt 0.8333 -0.0000
vt 1.5000 0.0000
vt 1.5000 1.0000
vt 0.8333 1.0000
vt 0.6667 0.0000
vt 1.1667 0.0000
vt 1.1667 1.0000
vt 0.6667 1.0000
vt 0.1667 0.0000
vt 0.3333 0.0000
vt 0.3333 1.0000
vt 0.1667 1.0000
vt 0.1667 0.0000
vt 0.6667 0.0000
vt 0.6667 1.0000
vt 0.1667 1.0000
vt 0.0000 -0.0000
vt 0.5000 0.0000
vt 0.5000 1.0000
vt 0.0000 1.0000
vt 0.1667 0.0000
vt 1.8333 0.0000
vt 1.8333 1.0000
vt 0.1667 1.0000
vt 0.3333 0.0000
vt 2.1667 0.0000
vt 2.1667 1.0000
vt 0.3333 1.0000
vt 0.1667 0.0000
vt 2.0000 0.0000
vt 2.0000 1.0000
vt 0.1667 1.0000
vt 0.5000 0.0000
vt 1.5000 0.0000
vt 1.5000 1.0000
vt 0.5000 1.0000
vt 0.6667 0.0000
vt 0.8333 -0.0000
vt 0.8333 1.0000
vt 0.6667 1.0000
vt 0.0000 -0.0000
vt 0.8333 -0.0000
vt 0.8333 1.0000
vt 0.0000 1.0000
vt 0.5000 0.0000
vt 3.5000 0.0000
vt 3.5000 1.0000
vt 0.5000 1.0000
vt 0.3333 0.0000
vt 2.3333 0.0000
vt 2.3333 1.0000
vt 0.3333 1.0000
vt 0.3333 0.0000
vt 3.3333 0.0000
vt 3.3333 1.0000
vt 0.3333 1.0000
vt 0.0000 -0.0000
vt 1.1667 0.0000
vt 1.1667 1.0000
vt 0.0000 1.0000
vt 0.0000 -0.0000
vt 1.1667 0.0000
vt 1.1667 1.0000
vt 0.0000 1.0000
vt 0.5000 0.0000
vt 4.0000 -0.0000
vt 4.0000 1.0000
vt 0.5000 1.0000
vt 0.5000 0.0000
vt 1.6667 0.0000
vt 1.6667 1.0000
vt 0.5000 1.0000
vt 0.5000 0.0000
vt 2.6667 0.0000
vt 2.6667 1.0000
vt 0.5000 1.0000
vt 0.3333 0.0000
vt 0.6667 0.0000
vt 0.6667 1.0000
vt 0.3333 1.0000
vt 0.8333 -0.0000
vt 2.1667 0.0000
vt 2.1667 1.0000
vt 0.8333 1.0000
vt 0.1667 0.0000
vt 1.6667 0.0000
vt 1.6667 1.0000
vt 0.1667 1.0000
vt 0.5000 0.0000
vt 1.3333 -0.0000
vt 1.3333 1.0000
vt 0.5000 1.0000
vt 0.5000 0.0000
vt 0.8333 -0.0000
vt 0.8333 1.0000
vt 0.5000 1.0000
vt 0.6667 0.0000
vt 0.8333 -0.0000
vt 0.8333 1.0000
vt 0.6667 1.0000
vt 1.3333 -0.0000
vt 1.3333 1.0000
vt 0.6667 0.0000
vt 0.8333 -0.0000
vt 0.8333 1.0000
vt 0.6667 1.0000
vt 0.5000 0.0000
vt 0.8333 -0.0000
vt 0.8333 1.0000
vt 0.5000 1.0000
vt 0.6667 0.0000
vt 1.5000 0.0000
vt 1.5000 1.0000
vt 0.6667 1.0000
vt 0.3333 0.0000
vt 1.5000 0.0000
vt 1.5000 1.0000
vt 0.3333 1.0000
vt 0.1667 0.0000
vt 1.8333 0.0000
vt 1.8333 1.0000
vt 0.1667 1.0000
vt 0.5000 0.0000
vt 1.8333 0.0000
vt 1.8333 1.0000
vt 0.5000 1.0000
vt 0.3333 0.0000
vt 2.0000 0.0000
vt 2.0000 1.0000
vt 0.3333 1.0000
vt 0.8333 -0.0000
vt 1.1667 0.0000
vt 1.1667 1.0000
vt 0.8333 1.0000
vt 0.3333 0.0000
vt 1.1667 0.0000
vt 1.1667 1.0000
vt 0.3333 1.0000
vt 0.1667 0.0000
vt 0.8333 -0.0000
vt 0.8333 1.0000
vt 0.1667 1.0000
vt 0.6667 0.0000
vt 1.5000 0.0000
vt 1.5000 1.0000
vt 0.6667 1.0000
vt 0.0000 -0.0000
vt 0.5000 0.0000
vt 0.5000 1.0000
vt 0.0000 1.0000
vt 0.0000 -0.0000
vt 1.1667 0.0000
vt 1.1667 1.0000
vt 0.0000 1.0000
vt 0.5000 0.0000
vt 0.6667 0.0000
vt 0.6667 1.0000
vt 0.5000 1.0000
vt 0.0000 -0.0000
vt 0.8333 -0.0000
vt 0.8333 1.0000
vt 0.0000 1.0000
vt 0.1667 0.0000
vt 1.5000 0.0000
vt 1.5000 1.0000
vt 0.1667 1.0000
vt 0.1667 0.0000
vt 2.3333 0.0000
vt 2.3333 1.0000
vt 0.1667 1.0000
vt 0.8333 -0.0000
vt 2.0000 0.0000
vt 2.0000 1.0000
vt 0.8333 1.0000
vt 0.1667 0.0000
vt 1.6667 0.0000
vt 1.6667 1.0000
vt 0.1667 1.0000
vt 0.6667 0.0000
vt 2.5000 -0.0000
vt 2.5000 1.0000
vt 0.6667 1.0000
vt 0.1667 0.0000
vt 0.5000 0.0000
vt 0.5000 1.0000
vt 0.1667 1.0000
vt 0.6667 0.0000
vt 1.1667 0.0000
vt 1.1667 1.0000
vt 0.6667 1.0000
vt 0.3333 0.0000
vt 1.5000 0.0000
vt 1.5000 1.0000
vt 0.3333 1.0000
vt 0.5000 0.0000
vt 1.8333 0.0000
vt 1.8333 1.0000
vt 0.5000 1.0000
vt 0.6667 0.0000
vt 2.6667 0.0000
vt 2.6667 1.0000
vt 0.6667 1.0000
vt 0.0000 -0.0000
vt 3.5000 0.0000
vt 3.5000 1.0000
vt 0.0000 1.0000
vt 0.1667 0.0000
vt 2.1667 0.0000
vt 2.1667 1.0000
vt 0.1667 1.0000
vt 0.3333 0.0000
vt 3.8333 -0.0000
vt 3.8333 1.0000
vt 0.3333 1.0000
vt 0.6667 0.0000
vt 4.8333 -0.0000
vt 4.8333 1.0000
vt 0.6667 1.0000
vt 0.1667 0.0000
vt 2.6667 0.0000
vt 2.6667 1.0000
vt 0.1667 1.0000
vt 0.8333 -0.0000
vt 5.0000 0.0000
vt 5.0000 1.0000
vt 0.8333 1.0000
vt 0.0000 -0.0000
vt 1.5000 0.0000
vt 1.5000 1.0000
vt 0.0000 1.0000
vt 0.5000 0.0000
vt 2.3333 0.0000
vt 2.3333 1.0000
vt 0.5000 1.0000
vt 0.1667 0.0000
vt 0.8333 -0.0000
vt 0.8333 1.0000
vt 0.1667 1.0000
vt 0.5000 0.0000
vt 2.0000 0.0000
vt 2.0000 1.0000
vt 0.5000 1.0000
vt 0.1667 0.0000
vt 0.5000 0.0000
vt 0.5000 1.0000
vt 0.1667 1.0000
vt 0.0000 -0.0000
vt 0.1667 0.0000
vt 0.1667 1.0000
vt 0.0000 1.0000
vt 0.6667 0.0000
vt 1.0000 0.0000
vt 1.0000 1.0000
vt 0.6667 1.0000
vt 0.5000 0.0000
vt 2.5000 -0.0000
vt 2.5000 1.0000
vt 0.5000 1.0000
vt 0.8333 -0.0000
vt 2.8333 0.0000
vt 2.8333 1.0000
vt 0.8333 1.0000
vt 0.3333 0.0000
vt 2.3333 0.0000
vt 2.3333 1.0000
vt 0.3333 1.0000
vt 0.6667 0.0000
vt 1.1667 0.0000
vt 1.1667 1.0000
vt 0.6667 1.0000
vt 0.1667 0.0000
vt 0.3333 0.0000
vt 0.3333 1.0000
vt 0.1667 1.0000
vt 0.0000 -0.0000
vt 0.8333 -0.0000
vt 0.8333 1.0000
vt 0.0000 1.0000
vt 0.5000 0.0000
vt 0.6667 0.0000
vt 0.6667 1.0000
vt 0.5000 1.0000
vt 0.5000 0.0000
vt 1.0000 0.0000
vt 1.0000 1.0000
vt 0.5000 1.0000
vt 0.3333 0.0000
vt 0.6667 0.0000
vt 0.6667 1.0000
vt 0.3333 1.0000
vt 1.1667 0.0000
vt 1.1667 1.0000
vt 0.8333 -0.0000
vt 1.0000 0.0000
vt 1.0000 1.0000
vt 0.8333 1.0000
vt 0.1667 0.0000
vt 1.3333 -0.0000
vt 1.3333 1.0000
vt 0.1667 1.0000
vt 0.8333 -0.0000
vt 1.1667 0.0000
vt 1.1667 1.0000
vt 0.8333 1.0000
vt 0.6667 0.0000
vt 2.1667 0.0000
vt 2.1667 1.0000
vt 0.6667 1.0000
vt 0.1667 0.0000
vt 0.2000 -0.0000
vt 0.2000 1.0000
vt 0.1667 1.0000
vt 0.5000 0.0000
vt 1.3333 -0.0000
vt 1.3333 1.0000
vt 0.5000 1.0000
vt 0.5000 0.0000
vt 0.6667 0.0000
vt 0.6667 1.0000
vt 0.5000 1.0000
vt 0.3333 0.0000
vt 0.8333 -0.0000
vt 0.8333 1.0000
vt 0.3333 1.0000
vt 0.1667 0.0000
vt 1.0000 0.0000
vt 1.0000 1.0000
vt 0.1667 1.0000
vt 0.8333 -0.0000
vt 1.0000 0.0000
vt 1.0000 1.0000
vt 0.8333 1.0000
vt 0.1667 0.0000
vt 1.3333 -0.0000
vt 1.3333 1.0000
vt 0.1667 1.0000
vt 0.1667 0.0000
vt 0.2000 -0.0000
vt 0.2000 1.0000
vt 0.1667 1.0000
vt 0.6667 0.0000
vt 1.5000 0.0000
vt 1.5000 1.0000
vt 0.6667 1.0000
vt 0.0000 -0.0000
vt 0.6667 0.0000
vt 0.6667 1.0000
vt 0.0000 1.0000
vt 0.1667 0.0000
vt 1.6667 0.0000
vt 1.6667 1.0000
vt 0.1667 1.0000
vt 0.8333 -0.0000
vt 1.6667 0.0000
vt 1.6667 1.0000
vt 0.8333 1.0000
vt 0.5000 0.0000
vt 3.0000 0.0000
vt 3.0000 1.0000
vt 0.5000 1.0000
vt 0.3333 0.0000
vt 0.6667 0.0000
vt 0.6667 1.0000
vt 0.3333 1.0000
vt 1.1667 0.0000
vt 1.1667 1.0000
vt 0.8333 -0.0000
vt 1.5000 0.0000
vt 1.5000 1.0000
vt 0.8333 1.0000
vt 0.5000 0.0000
vt 1.8333 0.0000
vt 1.8333 1.0000
vt 0.5000 1.0000
vt 0.6667 0.0000
vt 1.6667 0.0000
vt 1.6667 1.0000
vt 0.6667 1.0000
vt 0.6667 0.0000
vt 2.5000 -0.0000
vt 2.5000 1.0000
vt 0.6667 1.0000
vt 0.5000 0.0000
vt 2.0000 0.0000
vt 2.0000 1.0000
vt 0.5000 1.0000
vt 0.8333 -0.0000
vt 3.6667 0.0000
vt 3.6667 1.0000
vt 0.8333 1.0000
vt 0.6667 0.0000
vt 2.1667 0.0000
vt 2.1667 1.0000
vt 0.6667 1.0000
vt 0.5000 0.0000
vt 3.3333 0.0000
vt 3.3333 1.0000
vt 0.5000 1.0000
vt 0.1667 0.0000
vt 1.0000 0.0000
vt 1.0000 1.0000
vt 0.1667 1.0000
vt 0.5000 0.0000
vt 2.3333 0.0000
vt 2.3333 1.0000
vt 0.5000 1.0000
vt 0.1667 0.0000
vt 0.6667 0.0000
vt 0.6667 1.0000
vt 0.1667 1.0000
vt 0.3333 0.0000
vt 0.3667 -0.0000
vt 0.3667 1.0000
vt 0.3333 1.0000
vt 0.6667 0.0000
vt 1.0000 0.0000
vt 1.0000 1.0000
vt 0.6667 1.0000
vt 0.3333 0.0000
vt 0.3667 -0.0000
vt 0.3667 1.0000
vt 0.3333 1.0000
vt 0.1667 0.0000
vt 1.5000 0.0000
vt 1.5000 1.0000
vt 0.1667 1.0000
vn -0.2442 0.0000 -0.9697
vn -0.9990 0.0000 -0.0437
vn 0.2442 0.0000 0.9697
vn 0.9990 0.0000 0.0437
vn -0.9992 0.0000 -0.0408
vn 0.9992 0.0000 0.0408
vn 0.9940 0.0000 0.1095
vn 0.1104 0.0000 -0.9939
vn -0.9937 0.0000 -0.1122
vn -0.1104 0.0000 0.9939
vn -0.9940 0.0000 -0.1094
vn -0.1125 0.0000 0.9937
vn -0.9875 0.0000 0.1577
vn 0.1549 0.0000 0.9879
vn 0.9879 0.0000 -0.1550
vn -0.1551 0.0000 -0.9879
vn -0.9879 0.0000 0.1551
vn -0.1549 0.0000 -0.9879
vn -0.9855 0.0000 0.1700
vn 0.1287 0.0000 0.9917
vn 0.9937 0.0000 -0.1120
vn -0.1051 0.0000 -0.9945
vn -0.9857 0.0000 0.1688
vn 0.1688 0.0000 0.9857
vn 0.9857 0.0000 -0.1688
vn 0.1489 0.0000 0.9889
vn 0.9853 0.0000 -0.1707
vn -0.1489 0.0000 -0.9889
vn -0.0530 0.0000 -0.9986
vn -0.9986 0.0000 0.0530
vn 0.0530 0.0000 0.9986
vn 0.9986 0.0000 -0.0530
vn 0.9971 0.0000 0.0763
vn 0.0785 0.0000 -0.9969
vn -0.9970 0.0000 -0.0771
vn -0.0785 0.0000 0.9969
vn 0.9970 0.0000 0.0771
vn -0.9971 0.0000 -0.0763
vn -0.2880 0.0000 -0.9576
vn 0.9932 0.0000 -0.1168
vn -0.9932 0.0000 0.1168
vn 0.2880 0.0000 0.9576
vn 0.9576 0.0000 -0.2880
vn -0.9880 0.0000 0.1547
vn 0.1547 0.0000 0.9880
vn 0.9880 0.0000 -0.1547
vn -0.1547 0.0000 -0.9880
vn -0.0947 0.0000 -0.9955
vn -0.9937 0.0000 0.1118
vn 0.0947 0.0000 0.9955
vn 0.9938 0.0000 -0.1111
vn -0.9657 0.0000 0.2596
vn 0.2601 0.0000 0.9656
vn 0.8779 0.0000 -0.4789
vn -0.2594 0.0000 -0.9658
vn 0.6963 0.0000 -0.7178
vn -0.7159 0.0000 -0.6982
vn -0.6980 0.0000 0.7161
vn 0.7159 0.0000 0.6982
vn -0.6963 0.0000 0.7178
vn 0.7165 0.0000 0.6976
vn 0.2843 0.0000 0.9587
vn 0.9582 0.0000 -0.2860
vn -0.2905 0.0000 -0.9569
vn -0.9582 0.0000 0.2861
vn 0.2902 0.0000 0.9570
vn -0.9582 0.0000 0.2860
vn -0.2845 0.0000 -0.9587
vn -0.9989 0.0000 0.0474
vn 0.0472 0.0000 0.9989
vn -0.9753 0.0000 0.2210
vn 0.0473 0.0000 0.9989
vn 0.9753 0.0000 -0.2210
vn -0.0472 0.0000 -0.9989
vn -0.6866 0.0000 0.7270
vn -0.3346 0.0000 0.9424
vn 0.3439 0.0000 0.9390
vn 0.9364 0.0000 -0.3510
vn -0.3315 0.0000 -0.9434
vn -0.9071 0.0000 0.4210
vn -0.8961 0.0000 0.4438
vn -0.8964 0.0000 0.4433
vn -0.8966 0.0000 0.4428
vn 0.2865 0.0000 0.9581
vn 0.8963 0.0000 -0.4435
vn 0.2863 0.0000 0.9581
vn 0.9569 0.0000 -0.2905
vn -0.2863 0.0000 -0.9581
vn 0.9997 0.0000 -0.0240
vn -0.0240 0.0000 -0.9997
vn -0.9997 0.0000 0.0240
vn 0.0240 0.0000 0.9997
vn -0.1581 0.0000 -0.9874
vn -0.9873 0.0000 0.1589
vn 0.1583 0.0000 0.9874
vn 0.9874 0.0000 -0.1583
vn -0.1365 0.0000 -0.9906
vn -0.9906 0.0000 0.1365
vn 0.1364 0.0000 0.9907
vn 0.9999 0.0000 0.0151
vn 0.9906 0.0000 -0.1365
vn 0.1366 0.0000 0.9906
vn 0.9999 0.0000 0.0152
g CityEngineMaterial_523_CityEngineMaterial_523_CityEngineMaterial_523_mat
usemtl CityEngineMaterial_523_mat
s 1
f 1/1/1 2/2/1 3/3/1 4/4/1
f 2/5/2 5/6/2 6/7/2 3/8/2
f 5/9/3 7/10/3 8/11/3 6/12/3
f 7/10/4 9/13/4 10/14/4 8/11/4
f 9/15/3 11/16/3 12/17/3 10/18/3
f 11/19/5 13/20/5 14/21/5 12/22/5
f 13/23/3 15/24/3 16/25/3 14/26/3
f 15/27/6 1/28/6 4/29/6 16/30/6
f 17/31/7 18/32/7 19/33/7 20/34/7
f 18/35/8 21/36/8 22/37/8 19/38/8
f 21/39/9 23/40/9 24/41/9 22/42/9
f 23/43/10 25/44/10 26/45/10 24/46/10
f 25/47/11 27/48/11 28/49/11 26/50/11
f 27/51/12 17/52/12 20/53/12 28/54/12
f 29/55/13 30/56/13 31/57/13 32/58/13
f 30/59/14 33/60/14 34/61/14 31/62/14
f 33/63/15 35/64/15 36/65/15 34/66/15
f 35/67/16 37/68/16 38/69/16 36/70/16
f 37/71/17 39/72/17 40/73/17 38/74/17
f 39/75/18 29/76/18 32/77/18 40/78/18
f 41/79/19 42/80/19 43/81/19 44/82/19
f 42/83/20 45/84/20 46/85/20 43/86/20
f 45/87/21 47/88/21 48/89/21 46/90/21
f 47/91/22 49/92/22 50/93/22 48/94/22
f 49/95/22 41/96/22 44/97/22 50/98/22
f 51/99/23 52/100/23 53/101/23 54/102/23
f 52/103/24 55/104/24 56/105/24 53/106/24
f 55/107/25 57/108/25 58/109/25 56/110/25
f 57/111/26 59/112/26 60/113/26 58/114/26
f 59/115/27 61/116/27 62/117/27 60/118/27
f 61/119/28 51/120/28 54/121/28 62/122/28
f 63/123/29 64/124/29 65/125/29 66/126/29
f 64/127/30 67/128/30 68/129/30 65/130/30
f 67/131/31 69/132/31 70/133/31 68/134/31
f 69/132/30 71/135/30 72/136/30 70/133/30
f 71/137/29 73/138/29 74/139/29 72/140/29
f 73/141/30 75/142/30 76/143/30 74/144/30
f 75/145/31 77/146/31 78/147/31 76/148/31
f 77/149/32 63/150/32 66/151/32 78/152/32
f 79/153/33 80/154/33 81/155/33 82/156/33
f 80/157/34 83/158/34 84/159/34 81/160/34
f 83/161/35 85/162/35 86/163/35 84/164/35
f 85/165/36 87/166/36 88/167/36 86/168/36
f 87/169/37 89/170/37 90/171/37 88/172/37
f 89/173/36 91/174/36 92/175/36 90/176/36
f 91/177/38 93/178/38 94/179/38 92/180/38
f 93/181/36 79/182/36 82/183/36 94/184/36
f 95/185/39 96/186/39 97/187/39 98/188/39
f 96/189/40 99/190/40 100/191/40 97/192/40
f 99/193/39 101/194/39 102/195/39 100/196/39
f 101/197/41 103/198/41 104/199/41 102/200/41
f 103/201/42 105/202/42 106/203/42 104/204/42
f 105/205/43 95/206/43 98/207/43 106/208/43
f 107/209/44 108/210/44 109/211/44 110/212/44
f 108/213/45 111/214/45 112/215/45 109/216/45
f 111/217/46 113/218/46 114/219/46 112/220/46
f 113/221/47 115/222/47 116/223/47 114/224/47
f 115/225/46 117/226/46 118/227/46 116/228/46
f 117/229/47 107/230/47 110/231/47 118/232/47
f 119/233/48 120/234/48 121/235/48 122/236/48
f 120/237/49 123/238/49 124/239/49 121/240/49
f 123/241/50 125/242/50 126/243/50 124/244/50
f 125/245/51 119/246/51 122/247/51 126/248/51
f 127/249/52 128/250/52 129/251/52 130/252/52
f 128/253/53 131/254/53 132/255/53 129/256/53
f 131/257/54 133/258/54 134/259/54 132/260/54
f 133/261/55 127/262/55 130/263/55 134/264/55
f 135/265/56 136/266/56 137/267/56 138/268/56
f 136/269/57 139/270/57 140/271/57 137/272/57
f 139/273/58 141/274/58 142/275/58 140/276/58
f 141/277/59 143/278/59 144/279/59 142/280/59
f 143/281/60 145/282/60 146/283/60 144/284/60
f 145/285/61 135/286/61 138/287/61 146/288/61
f 147/289/62 148/290/62 149/291/62 150/292/62
f 148/293/63 151/294/63 152/295/63 149/296/63
f 151/297/64 153/298/64 154/299/64 152/300/64
f 153/301/65 155/302/65 156/303/65 154/304/65
f 155/305/66 157/306/66 158/307/66 156/308/66
f 157/309/67 159/310/67 160/311/67 158/312/67
f 159/313/68 161/314/68 162/315/68 160/316/68
f 161/317/65 147/318/65 150/319/65 162/320/65
f 163/321/69 164/322/69 165/323/69 166/324/69
f 164/322/70 167/325/70 168/326/70 165/323/70
f 167/327/71 169/328/71 170/329/71 168/330/71
f 169/331/72 171/332/72 172/333/72 170/334/72
f 171/335/73 173/336/73 174/337/73 172/338/73
f 173/339/74 163/340/74 166/341/74 174/342/74
f 175/343/75 176/344/75 177/345/75 178/346/75
f 176/347/76 179/348/76 180/349/76 177/350/76
f 179/351/77 181/352/77 182/353/77 180/354/77
f 181/355/78 183/356/78 184/357/78 182/358/78
f 183/359/79 175/360/79 178/361/79 184/362/79
f 185/363/80 186/364/80 187/365/80 188/366/80
f 186/367/81 189/368/82 190/369/82 187/370/81
f 189/371/82 191/372/83 192/373/83 190/374/82
f 191/375/84 193/376/84 194/377/84 192/378/84
f 193/379/85 195/380/85 196/381/85 194/382/85
f 195/383/86 197/384/86 198/385/86 196/386/86
f 197/387/87 199/388/87 200/389/87 198/390/87
f 199/391/88 185/392/88 188/393/88 200/394/88
f 201/395/89 202/396/89 203/397/89 204/398/89
f 202/396/90 205/399/90 206/400/90 203/397/90
f 205/401/89 207/402/89 208/403/89 206/404/89
f 207/405/90 209/406/90 210/407/90 208/408/90
f 209/409/91 211/410/91 212/411/91 210/412/91
f 211/413/92 201/414/92 204/415/92 212/416/92
f 213/417/93 214/418/93 215/419/93 216/420/93
f 214/421/94 217/422/94 218/423/94 215/424/94
f 217/425/95 219/426/95 220/427/95 218/428/95
f 219/429/96 213/430/96 216/431/96 220/432/96
f 221/433/97 222/434/97 223/435/97 224/436/97
f 222/437/98 225/438/98 226/439/98 223/440/98
f 225/441/99 227/442/99 228/443/99 226/444/99
f 227/445/100 229/446/100 230/447/100 228/448/100
f 229/449/101 231/450/101 232/451/101 230/452/101
f 231/453/102 233/454/102 234/455/102 232/456/102
f 233/457/103 221/458/103 224/459/103 234/460/103
