# Blender v2.78 (sub 0) OBJ File: ''
# www.blender.org
mtllib CityEngineMaterial_116.mtl
o CityEngineMaterial_116
v -1102.335205 8.757360 242.403198
v -1096.335938 8.757360 242.763504
v -1096.335938 11.848361 242.763504
v -1102.335205 11.848361 242.403198
v -1095.303589 8.757361 234.646896
v -1095.303589 11.848362 234.646896
v -1110.026245 8.757361 233.763000
v -1110.026245 11.848362 233.763000
v -1111.184570 8.757360 239.858398
v -1111.184570 11.848361 239.858398
v -1102.081055 8.757360 240.404907
v -1102.081055 11.848361 240.404907
v -1110.572021 9.440353 286.887085
v -1108.811646 9.440353 287.114197
v -1108.811646 13.765453 287.114197
v -1110.572021 13.765453 286.887085
v -1108.552490 9.440353 285.750793
v -1108.552490 13.765453 285.750793
v -1120.454102 9.440353 284.215515
v -1120.454102 13.765453 284.215515
v -1121.421265 9.440353 289.305511
v -1121.421265 13.765453 289.305511
v -1111.394043 9.440352 291.213196
v -1111.394043 13.765452 291.213196
v -752.120422 4.450444 342.980713
v -750.739014 4.450447 326.023590
v -750.739014 8.309446 326.023590
v -752.120422 8.309443 342.980713
v -755.101990 4.450447 325.670105
v -755.101990 8.309446 325.670105
v -755.434326 4.450446 329.748993
v -755.434326 8.309446 329.748993
v -754.263306 4.450446 329.843811
v -754.263306 8.309446 329.843811
v -755.312317 4.450444 342.720306
v -755.312317 8.309443 342.720306
v -445.611786 2.410972 170.320496
v -446.175110 2.410975 153.383896
v -446.175110 6.376175 153.383896
v -445.611786 6.376173 170.320496
v -461.323090 2.410975 153.893402
v -461.323090 6.376175 153.893402
v -460.730011 2.410972 170.816605
v -460.730011 6.376173 170.816605
v -816.934387 3.785660 249.042297
v -811.861877 3.785660 249.496902
v -811.861877 6.938260 249.496902
v -816.934387 6.938260 249.042297
v -811.967285 3.785659 250.684402
v -811.967285 6.938259 250.684402
v -807.812988 3.785659 251.056793
v -807.812988 6.938259 251.056793
v -807.299011 3.785660 245.262695
v -807.299011 6.938260 245.262695
v -816.521484 3.785660 244.436096
v -816.521484 6.938260 244.436096
v -315.795593 1.313887 77.627098
v -293.743988 1.313888 74.565498
v -293.743988 5.268388 74.565498
v -315.795593 5.268387 77.627098
v -295.787811 1.313890 59.844200
v -295.787811 5.268391 59.844200
v -317.838104 1.313890 62.915699
v -317.838104 5.268390 62.915699
v -856.736023 4.401672 168.578903
v -863.590271 4.401672 169.780106
v -863.590271 7.158072 169.780106
v -856.736023 7.158072 168.578903
v -864.106689 4.401673 166.833099
v -864.106689 7.158073 166.833099
v -867.570496 4.401673 167.440094
v -867.570496 7.158073 167.440094
v -865.657104 4.401671 178.358994
v -865.657104 7.158071 178.358994
v -855.330383 4.401671 176.549194
v -855.330383 7.158072 176.549194
v 1021.135986 114.650337 -227.534180
v 1020.804321 114.650337 -230.076584
v 1020.804321 117.621635 -230.076584
v 1021.135986 117.621635 -227.534180
v 1014.545776 114.650337 -229.386688
v 1014.545776 117.621635 -229.386688
v 1013.846802 114.650337 -234.753387
v 1013.846802 117.621635 -234.753387
v 1008.683411 114.650337 -234.106583
v 1008.683411 117.621635 -234.106583
v 1009.703613 114.650337 -226.273880
v 1009.703613 117.621635 -226.273880
v -579.371216 33.036049 -921.678772
v -580.565002 33.036053 -925.115601
v -580.565002 35.979553 -925.115601
v -579.371216 35.979549 -921.678772
v -582.210571 33.036053 -929.578186
v -582.210571 35.979553 -929.578186
v -588.318176 33.036053 -927.705627
v -588.318176 35.979553 -927.705627
v -587.134521 33.036049 -924.495911
v -587.134521 35.979549 -924.495911
v -599.997620 33.036049 -920.527527
v -599.997620 35.979549 -920.527527
v -599.950928 33.036049 -920.373413
v -599.950928 35.979549 -920.373413
v -598.541626 33.036049 -915.764526
v -598.541626 35.979549 -915.764526
v -113.480400 35.280415 -711.964294
v -113.489998 35.280415 -697.442017
v -113.489998 39.102814 -697.442017
v -113.480400 39.102814 -711.964294
v -101.824303 35.280415 -696.742126
v -101.824303 39.102814 -696.742126
v -93.387299 35.280415 -696.264404
v -93.387299 39.102913 -696.264404
v -93.388199 35.280415 -711.323120
v -93.388199 39.102814 -711.323120
v 14.941400 29.692869 -424.160004
v 14.196700 29.692871 -428.789703
v 14.196700 33.426670 -428.789703
v 14.941400 33.426670 -424.160004
v 14.882000 29.692871 -428.893188
v 14.882000 33.426670 -428.893188
v 13.928200 29.692871 -434.891510
v 13.928200 33.426674 -434.891510
v 0.677800 29.692871 -432.890900
v 0.677800 33.426670 -432.890900
v 2.399100 29.692869 -422.190186
v 2.399100 33.426670 -422.190186
v -741.832520 40.942661 -989.986877
v -739.120728 40.942661 -991.122925
v -739.120728 44.394760 -991.122925
v -741.832520 44.394760 -989.986877
v -740.787903 40.942661 -995.112915
v -740.787903 44.394760 -995.112915
v -756.558105 40.942661 -988.506775
v -756.558105 44.394760 -988.506775
v -752.398804 40.942661 -978.555786
v -752.398804 44.394760 -978.555786
v -736.626526 40.942661 -985.153870
v -736.626526 44.394760 -985.153870
v -737.794312 40.942661 -987.948730
v -737.794312 44.394760 -987.948730
v -740.506287 40.942661 -986.814087
v -740.506287 44.394760 -986.814087
v -253.152298 2.857776 762.261780
v -251.253693 2.857776 760.504578
v -251.253693 6.891076 760.504578
v -253.152298 6.891076 762.261780
v -248.407196 2.857775 763.584106
v -248.407196 6.891076 763.584106
v -241.681305 2.857777 756.294495
v -241.681305 6.891077 756.294495
v -247.220200 2.857778 750.302185
v -247.220200 6.891078 750.302185
v -256.375214 2.857776 758.775085
v -256.375214 6.891077 758.775085
v 123.764000 42.900936 -852.451477
v 125.405800 42.900936 -852.709229
v 125.405800 46.134937 -852.709229
v 123.764000 46.134937 -852.451477
v 125.854202 42.900936 -849.845398
v 125.854202 46.134937 -849.845398
v 132.207596 42.900936 -850.846802
v 132.207596 46.134937 -850.846802
v 131.017197 42.900940 -858.448975
v 131.017197 46.134941 -858.448975
v 123.021004 42.900940 -857.193787
v 123.021004 46.134941 -857.193787
v -495.628998 8.710560 859.099426
v -495.681000 8.710562 850.462524
v -495.681000 11.367762 850.462524
v -495.628998 11.367760 859.099426
v -491.002106 8.710562 850.791077
v -491.002106 11.367762 850.791077
v -491.036499 8.710563 845.074707
v -491.036499 11.367763 845.074707
v -499.966400 8.710563 844.447693
v -499.966400 11.367763 844.447693
v -499.878204 8.710560 859.123413
v -499.878204 11.367760 859.123413
v 229.977905 50.406792 -570.004211
v 235.760193 50.406788 -548.553894
v 235.760193 53.268387 -548.553894
v 229.977905 53.268391 -570.004211
v 246.890701 50.406792 -550.296875
v 246.890701 53.268391 -550.296875
v 243.464493 50.406792 -572.123474
v 243.464493 53.268391 -572.123474
v -121.617599 1.313730 432.293701
v -122.981300 1.313731 423.778809
v -122.981300 4.586731 423.778809
v -121.617599 4.586730 432.293701
v -139.730194 1.313731 425.463013
v -139.730194 4.586731 425.463013
v -138.875702 1.313729 434.029114
v -138.875702 4.586730 434.029114
v -133.836700 1.313729 433.522400
v -133.836700 4.586730 433.522400
v -133.919006 1.313730 432.697113
v -133.919006 4.586730 432.697113
v -125.995399 1.313730 431.900299
v -125.995399 4.586730 431.900299
v -125.863998 1.313730 432.720703
v -125.863998 4.586730 432.720703
v -22.116400 41.192127 -772.139282
v -20.197500 41.192123 -759.905579
v -20.197500 45.437222 -759.905579
v -22.116400 45.437225 -772.139282
v -11.680400 41.192127 -761.239380
v -11.680400 45.437225 -761.239380
v -13.766100 41.192127 -774.537292
v -13.766100 45.437225 -774.537292
v -16.277100 41.192127 -774.144104
v -16.277100 45.437225 -774.144104
v -16.110100 41.192127 -773.079773
v -16.110100 45.437225 -773.079773
v -4.100100 39.262154 -946.496582
v -6.055000 39.262157 -958.945801
v -6.055000 43.466858 -958.945801
v -4.100100 43.466854 -946.496582
v -17.625000 39.262157 -957.133911
v -17.625000 43.466858 -957.133911
v -16.097799 39.262154 -947.397522
v -16.097799 43.466854 -947.397522
v -12.287800 39.262154 -947.994202
v -12.287800 43.466854 -947.994202
v -11.861600 39.262154 -945.280518
v -11.861600 43.466854 -945.280518
vt 0.0000 0.0000
vt 0.8333 0.0000
vt 0.8333 1.0000
vt 0.0000 1.0000
vt 0.3333 0.0000
vt 1.5000 -0.0000
vt 1.5000 1.0000
vt 0.3333 1.0000
vt 0.0000 0.0000
vt 2.1667 0.0000
vt 2.1667 1.0000
vt 0.0000 1.0000
vt 0.0000 0.0000
vt 0.8333 0.0000
vt 0.8333 1.0000
vt 0.0000 1.0000
vt 0.3333 0.0000
vt 1.6667 0.0000
vt 1.6667 1.0000
vt 0.3333 1.0000
vt 0.5000 0.0000
vt 0.8333 0.0000
vt 0.8333 1.0000
vt 0.5000 1.0000
vt 0.6667 -0.0000
vt 0.8333 0.0000
vt 0.8333 1.0000
vt 0.6667 1.0000
vt 0.1667 -0.0000
vt 0.3333 0.0000
vt 0.3333 1.0000
vt 0.1667 1.0000
vt 0.5000 0.0000
vt 2.1667 0.0000
vt 2.1667 1.0000
vt 0.5000 1.0000
vt 0.6667 -0.0000
vt 1.3333 0.0000
vt 1.3333 1.0000
vt 0.6667 1.0000
vt 0.0000 0.0000
vt 1.3333 0.0000
vt 1.3333 1.0000
vt 0.0000 1.0000
vt 0.5000 0.0000
vt 1.1667 0.0000
vt 1.1667 1.0000
vt 0.5000 1.0000
vt 0.1667 -0.0000
vt 3.1667 -0.0000
vt 3.1667 1.0000
vt 0.1667 1.0000
vt 0.6667 -0.0000
vt 1.5000 -0.0000
vt 1.5000 1.0000
vt 0.6667 1.0000
vt 0.1667 -0.0000
vt 0.8333 0.0000
vt 0.8333 1.0000
vt 0.1667 1.0000
vt 0.0000 0.0000
vt 0.1667 -0.0000
vt 0.1667 1.0000
vt 0.0000 1.0000
vt 0.8333 0.0000
vt 3.1667 -0.0000
vt 3.1667 1.0000
vt 0.8333 1.0000
vt 0.5000 0.0000
vt 1.0000 -0.0000
vt 1.0000 1.0000
vt 0.5000 1.0000
vt 0.0000 0.0000
vt 1.8333 -0.0000
vt 1.8333 1.0000
vt 0.0000 1.0000
vt 0.6667 -0.0000
vt 2.3333 0.0000
vt 2.3333 1.0000
vt 0.6667 1.0000
vt 0.5000 0.0000
vt 2.3333 0.0000
vt 2.3333 1.0000
vt 0.5000 1.0000
vt 0.3333 0.0000
vt 2.0000 0.0000
vt 2.0000 1.0000
vt 0.3333 1.0000
vt 0.0000 0.0000
vt 0.8333 0.0000
vt 0.8333 1.0000
vt 0.0000 1.0000
vt 0.1667 -0.0000
vt 0.3333 0.0000
vt 0.3333 1.0000
vt 0.1667 1.0000
vt 0.6667 -0.0000
vt 1.3333 0.0000
vt 1.3333 1.0000
vt 0.6667 1.0000
vt 0.1667 -0.0000
vt 1.0000 -0.0000
vt 1.0000 1.0000
vt 0.1667 1.0000
vt 0.0000 0.0000
vt 1.3333 0.0000
vt 1.3333 1.0000
vt 0.0000 1.0000
vt 0.0000 0.0000
vt 0.6667 -0.0000
vt 0.6667 1.0000
vt 0.0000 1.0000
vt 0.1667 -0.0000
vt 2.6667 -0.0000
vt 2.6667 1.0000
vt 0.1667 1.0000
vt 0.6667 -0.0000
vt 2.3333 0.0000
vt 2.3333 1.0000
vt 0.6667 1.0000
vt 0.1667 -0.0000
vt 2.6667 -0.0000
vt 2.6667 1.0000
vt 0.1667 1.0000
vt 0.6667 -0.0000
vt 2.3333 0.0000
vt 2.3333 1.0000
vt 0.6667 1.0000
vt 0.5000 0.0000
vt 1.5000 -0.0000
vt 1.5000 1.0000
vt 0.5000 1.0000
vt 0.3333 0.0000
vt 0.6667 -0.0000
vt 0.6667 1.0000
vt 0.3333 1.0000
vt 0.1667 -0.0000
vt 0.6667 -0.0000
vt 0.6667 1.0000
vt 0.1667 1.0000
vt 2.1667 0.0000
vt 2.1667 1.0000
vt 0.5000 0.0000
vt 2.0000 0.0000
vt 2.0000 1.0000
vt 0.5000 1.0000
vt 0.0000 0.0000
vt 1.1667 0.0000
vt 1.1667 1.0000
vt 0.0000 1.0000
vt 0.3333 0.0000
vt 0.6667 -0.0000
vt 0.6667 1.0000
vt 0.3333 1.0000
vt 0.8333 0.0000
vt 1.6667 0.0000
vt 1.6667 1.0000
vt 0.8333 1.0000
vt 0.5000 0.0000
vt 1.1667 0.0000
vt 1.1667 1.0000
vt 0.5000 1.0000
vt 0.6667 -0.0000
vt 1.3333 0.0000
vt 1.3333 1.0000
vt 0.6667 1.0000
vt 0.1667 -0.0000
vt 1.1667 0.0000
vt 1.1667 1.0000
vt 0.1667 1.0000
vt 0.5000 0.0000
vt 1.8333 -0.0000
vt 1.8333 1.0000
vt 0.5000 1.0000
vt 0.6667 -0.0000
vt 1.1667 0.0000
vt 1.1667 1.0000
vt 0.6667 1.0000
vt 0.3333 0.0000
vt 1.0000 -0.0000
vt 1.0000 1.0000
vt 0.3333 1.0000
vt 0.6667 -0.0000
vt 1.5000 -0.0000
vt 1.5000 1.0000
vt 0.6667 1.0000
vt 0.5000 0.0000
vt 1.0000 -0.0000
vt 1.0000 1.0000
vt 0.5000 1.0000
vt 0.1667 -0.0000
vt 2.0000 0.0000
vt 2.0000 1.0000
vt 0.1667 1.0000
vt 0.0000 0.0000
vt 0.0333 0.0000
vt 0.0333 1.0000
vt 0.0000 1.0000
vt 0.1667 -0.0000
vt 0.8333 0.0000
vt 0.8333 1.0000
vt 0.1667 1.0000
vt 0.3333 0.0000
vt 3.1667 -0.0000
vt 3.1667 1.0000
vt 0.3333 1.0000
vt 0.1667 -0.0000
vt 2.0000 0.0000
vt 2.0000 1.0000
vt 0.1667 1.0000
vt 0.3333 0.0000
vt 1.8333 -0.0000
vt 1.8333 1.0000
vt 0.3333 1.0000
vt 0.3333 0.0000
vt 1.3333 0.0000
vt 1.3333 1.0000
vt 0.3333 1.0000
vt 0.3333 0.0000
vt 2.1667 0.0000
vt 2.1667 1.0000
vt 0.3333 1.0000
vt 0.6667 -0.0000
vt 3.1667 -0.0000
vt 3.1667 1.0000
vt 0.6667 1.0000
vt 0.5000 0.0000
vt 1.1667 0.0000
vt 1.1667 1.0000
vt 0.5000 1.0000
vt 0.1667 -0.0000
vt 0.3333 0.0000
vt 0.3333 1.0000
vt 0.1667 1.0000
vt 0.6667 -0.0000
vt 1.5000 -0.0000
vt 1.5000 1.0000
vt 0.6667 1.0000
vt 0.6667 -0.0000
vt 2.5000 0.0000
vt 2.5000 1.0000
vt 0.6667 1.0000
vt 0.3333 0.0000
vt 1.8333 -0.0000
vt 1.8333 1.0000
vt 0.3333 1.0000
vt 0.1667 -0.0000
vt 1.8333 -0.0000
vt 1.8333 1.0000
vt 0.1667 1.0000
vt 0.6667 -0.0000
vt 1.1667 0.0000
vt 1.1667 1.0000
vt 0.6667 1.0000
vt 0.5000 0.0000
vt 1.1667 0.0000
vt 1.1667 1.0000
vt 0.5000 1.0000
vt 0.3333 0.0000
vt 3.3333 0.0000
vt 3.3333 1.0000
vt 0.3333 1.0000
vt 0.0000 0.0000
vt 1.8333 -0.0000
vt 1.8333 1.0000
vt 0.0000 1.0000
vt 0.8333 0.0000
vt 3.8333 0.0000
vt 3.8333 1.0000
vt 0.8333 1.0000
vt 0.3333 0.0000
vt 0.8333 0.0000
vt 0.8333 1.0000
vt 0.3333 1.0000
vt 0.0000 0.0000
vt 0.5000 0.0000
vt 0.5000 1.0000
vt 0.0000 1.0000
vt 1.1667 0.0000
vt 1.1667 1.0000
vt 0.3333 0.0000
vt 0.6667 -0.0000
vt 0.6667 1.0000
vt 0.3333 1.0000
vt 0.8333 0.0000
vt 1.5000 -0.0000
vt 1.5000 1.0000
vt 0.8333 1.0000
vt 0.6667 -0.0000
vt 2.1667 0.0000
vt 2.1667 1.0000
vt 0.6667 1.0000
vt 0.1667 -0.0000
vt 1.5000 -0.0000
vt 1.5000 1.0000
vt 0.1667 1.0000
vt 0.5000 0.0000
vt 2.3333 0.0000
vt 2.3333 1.0000
vt 0.5000 1.0000
vt 0.5000 0.0000
vt 1.1667 0.0000
vt 1.1667 1.0000
vt 0.5000 1.0000
vt 0.5000 0.0000
vt 0.6667 -0.0000
vt 0.6667 1.0000
vt 0.5000 1.0000
vt 0.8333 0.0000
vt 1.1667 0.0000
vt 1.1667 1.0000
vt 0.8333 1.0000
vt 0.0000 0.0000
vt 0.6667 -0.0000
vt 0.6667 1.0000
vt 0.0000 1.0000
vt 0.3333 0.0000
vt 1.1667 0.0000
vt 1.1667 1.0000
vt 0.3333 1.0000
vt 0.3333 0.0000
vt 1.3333 0.0000
vt 1.3333 1.0000
vt 0.3333 1.0000
vt 0.6667 -0.0000
vt 1.1667 0.0000
vt 1.1667 1.0000
vt 0.6667 1.0000
vt 0.5000 0.0000
vt 1.8333 -0.0000
vt 1.8333 1.0000
vt 0.5000 1.0000
vt 0.8333 0.0000
vt 1.5000 -0.0000
vt 1.5000 1.0000
vt 0.8333 1.0000
vt 0.1667 -0.0000
vt 1.0000 -0.0000
vt 1.0000 1.0000
vt 0.1667 1.0000
vt 0.5000 0.0000
vt 1.8333 -0.0000
vt 1.8333 1.0000
vt 0.5000 1.0000
vt 0.5000 0.0000
vt 2.8333 -0.0000
vt 2.8333 1.0000
vt 0.5000 1.0000
vt 0.6667 -0.0000
vt 1.3333 0.0000
vt 1.3333 1.0000
vt 0.6667 1.0000
vt 0.3333 0.0000
vt 4.0000 0.0000
vt 4.0000 1.0000
vt 0.3333 1.0000
vt 0.5000 0.0000
vt 2.3333 0.0000
vt 2.3333 1.0000
vt 0.5000 1.0000
vt 0.5000 0.0000
vt 4.1667 -0.0000
vt 4.1667 1.0000
vt 0.5000 1.0000
vt 0.5000 0.0000
vt 2.8333 -0.0000
vt 2.8333 1.0000
vt 0.5000 1.0000
vt 0.0000 0.0000
vt 1.1667 0.0000
vt 1.1667 1.0000
vt 0.0000 1.0000
vt 0.3333 0.0000
vt 2.6667 -0.0000
vt 2.6667 1.0000
vt 0.3333 1.0000
vt 0.1667 -0.0000
vt 1.3333 0.0000
vt 1.3333 1.0000
vt 0.1667 1.0000
vt 0.3333 0.0000
vt 1.0000 -0.0000
vt 1.0000 1.0000
vt 0.3333 1.0000
vt 0.0000 0.0000
vt 0.1667 -0.0000
vt 0.1667 1.0000
vt 0.0000 1.0000
vt 0.5000 0.0000
vt 1.6667 0.0000
vt 1.6667 1.0000
vt 0.5000 1.0000
vt 0.3333 0.0000
vt 0.5000 0.0000
vt 0.5000 1.0000
vt 0.3333 1.0000
vt 0.3333 0.0000
vt 1.0000 -0.0000
vt 1.0000 1.0000
vt 0.3333 1.0000
vt 0.3333 0.0000
vt 1.8333 -0.0000
vt 1.8333 1.0000
vt 0.3333 1.0000
vt 0.8333 0.0000
vt 1.8333 -0.0000
vt 1.8333 1.0000
vt 0.8333 1.0000
vt 0.3333 0.0000
vt 2.0000 0.0000
vt 2.0000 1.0000
vt 0.3333 1.0000
vt 0.8333 0.0000
vt 1.1667 0.0000
vt 1.1667 1.0000
vt 0.8333 1.0000
vt 0.1667 -0.0000
vt 0.3333 0.0000
vt 0.3333 1.0000
vt 0.1667 1.0000
vt 0.5000 0.0000
vt 1.3333 0.0000
vt 1.3333 1.0000
vt 0.5000 1.0000
vt 0.5000 0.0000
vt 2.3333 0.0000
vt 2.3333 1.0000
vt 0.5000 1.0000
vt 0.6667 -0.0000
vt 2.3333 0.0000
vt 2.3333 1.0000
vt 0.6667 1.0000
vt 0.6667 -0.0000
vt 2.0000 0.0000
vt 2.0000 1.0000
vt 0.6667 1.0000
vt 0.6667 -0.0000
vt 1.1667 0.0000
vt 1.1667 1.0000
vt 0.6667 1.0000
vt 0.0000 0.0000
vt 0.3333 0.0000
vt 0.3333 1.0000
vt 0.0000 1.0000
vt 0.0000 0.0000
vt 1.1667 0.0000
vt 1.1667 1.0000
vt 0.0000 1.0000
vn -0.0600 0.0000 0.9982
vn 0.9920 0.0000 0.1262
vn 0.0599 0.0000 -0.9982
vn -0.9824 0.0000 -0.1867
vn -0.0599 0.0000 0.9982
vn -0.9920 0.0000 -0.1262
vn -0.1280 0.0000 0.9918
vn 0.9824 0.0000 0.1867
vn 0.1279 0.0000 -0.9918
vn -0.1869 0.0000 0.9824
vn 0.9967 0.0000 0.0812
vn 0.0807 0.0000 -0.9967
vn -0.9967 0.0000 -0.0812
vn -0.0807 0.0000 0.9967
vn -0.0813 0.0000 0.9967
vn 0.9994 0.0000 -0.0332
vn -0.0336 0.0000 -0.9994
vn -0.9994 0.0000 0.0350
vn 0.0328 0.0000 0.9995
vn -0.0893 0.0000 0.9960
vn -0.9961 0.0000 -0.0884
vn 0.9961 0.0000 0.0884
vn 0.0893 0.0000 -0.9960
vn -0.9960 0.0000 -0.0893
vn 0.1375 0.0000 0.9905
vn 0.9905 0.0000 -0.1375
vn -0.1380 0.0000 -0.9904
vn -0.9905 0.0000 0.1375
vn -0.1726 0.0000 -0.9850
vn 0.9850 0.0000 -0.1726
vn -0.9850 0.0000 0.1726
vn 0.1726 0.0000 0.9850
vn 0.9848 0.0000 -0.1737
vn 0.9916 0.0000 -0.1294
vn -0.1096 0.0000 -0.9940
vn 0.9916 0.0000 -0.1292
vn -0.1243 0.0000 -0.9922
vn -0.9916 0.0000 0.1292
vn 0.1096 0.0000 0.9940
vn 0.9446 0.0000 -0.3281
vn 0.9382 0.0000 -0.3460
vn -0.2931 0.0000 -0.9561
vn -0.9382 0.0000 0.3460
vn -0.2948 0.0000 -0.9556
vn -0.9570 0.0000 0.2900
vn -0.9567 0.0000 0.2912
vn -0.9563 0.0000 0.2924
vn 0.2948 0.0000 0.9556
vn -1.0000 0.0000 -0.0007
vn -0.0582 0.0000 0.9983
vn -0.0565 0.0000 0.9984
vn 1.0000 0.0000 -0.0001
vn 0.0319 0.0000 -0.9995
vn 0.9873 0.0000 -0.1588
vn 0.1493 0.0000 0.9888
vn 0.9876 0.0000 -0.1570
vn -0.1493 0.0000 -0.9888
vn -0.9873 0.0000 0.1588
vn 0.1552 0.0000 0.9879
vn 0.3864 0.0000 0.9223
vn 0.9227 0.0000 -0.3855
vn -0.3864 0.0000 -0.9223
vn -0.9226 0.0000 0.3856
vn 0.3859 0.0000 0.9225
vn -0.3860 0.0000 -0.9225
vn 0.9226 0.0000 -0.3857
vn 0.6792 0.0000 0.7339
vn -0.7343 0.0000 0.6788
vn 0.7350 0.0000 0.6781
vn 0.7343 0.0000 -0.6788
vn -0.6792 0.0000 -0.7339
vn 0.1551 0.0000 0.9879
vn -0.9880 0.0000 0.1547
vn 0.1557 0.0000 0.9878
vn 0.9880 0.0000 -0.1547
vn -0.1551 0.0000 -0.9879
vn -0.9879 0.0000 0.1548
vn 1.0000 0.0000 -0.0060
vn -0.0700 0.0000 0.9975
vn 0.0700 0.0000 -0.9975
vn -1.0000 0.0000 0.0060
vn 0.0056 0.0000 1.0000
vn -0.9655 0.0000 0.2603
vn 0.1547 0.0000 0.9880
vn 0.9879 0.0000 -0.1551
vn -0.1552 0.0000 -0.9879
vn 0.9874 0.0000 -0.1581
vn -0.1001 0.0000 -0.9950
vn -0.9951 0.0000 0.0993
vn 0.1001 0.0000 0.9950
vn 0.9951 0.0000 -0.0992
vn -0.9874 0.0000 0.1581
vn -0.9879 0.0000 0.1550
vn 0.9879 0.0000 -0.1549
vn -0.1547 0.0000 -0.9880
vn -0.9879 0.0000 0.1552
vn 0.1548 0.0000 0.9879
g CityEngineMaterial_116_CityEngineMaterial_116_CityEngineMaterial_116_mat
usemtl CityEngineMaterial_116_mat
s 1
f 1/1/1 2/2/1 3/3/1 4/4/1
f 2/5/2 5/6/2 6/7/2 3/8/2
f 5/9/3 7/10/3 8/11/3 6/12/3
f 7/13/4 9/14/4 10/15/4 8/16/4
f 9/17/5 11/18/5 12/19/5 10/20/5
f 11/21/6 1/22/6 4/23/6 12/24/6
f 13/25/7 14/26/7 15/27/7 16/28/7
f 14/29/8 17/30/8 18/31/8 15/32/8
f 17/33/9 19/34/9 20/35/9 18/36/9
f 19/37/4 21/38/4 22/39/4 20/40/4
f 21/41/10 23/42/10 24/43/10 22/44/10
f 23/45/8 13/46/8 16/47/8 24/48/8
f 25/49/11 26/50/11 27/51/11 28/52/11
f 26/53/12 29/54/12 30/55/12 27/56/12
f 29/57/13 31/58/13 32/59/13 30/60/13
f 31/61/14 33/62/14 34/63/14 32/64/14
f 33/65/13 35/66/13 36/67/13 34/68/13
f 35/69/15 25/70/15 28/71/15 36/72/15
f 37/73/16 38/74/16 39/75/16 40/76/16
f 38/77/17 41/78/17 42/79/17 39/80/17
f 41/81/18 43/82/18 44/83/18 42/84/18
f 43/85/19 37/86/19 40/87/19 44/88/19
f 45/89/20 46/90/20 47/91/20 48/92/20
f 46/93/21 49/94/21 50/95/21 47/96/21
f 49/97/20 51/98/20 52/99/20 50/100/20
f 51/101/22 53/102/22 54/103/22 52/104/22
f 53/105/23 55/106/23 56/107/23 54/108/23
f 55/109/24 45/110/24 48/111/24 56/112/24
f 57/113/25 58/114/25 59/115/25 60/116/25
f 58/117/26 61/118/26 62/119/26 59/120/26
f 61/121/27 63/122/27 64/123/27 62/124/27
f 63/125/28 57/126/28 60/127/28 64/128/28
f 65/129/29 66/130/29 67/131/29 68/132/29
f 66/133/30 69/134/30 70/135/30 67/136/30
f 69/137/29 71/138/29 72/139/29 70/140/29
f 71/138/31 73/141/31 74/142/31 72/139/31
f 73/143/32 75/144/32 76/145/32 74/146/32
f 75/147/33 65/148/33 68/149/33 76/150/33
f 77/151/34 78/152/34 79/153/34 80/154/34
f 78/155/35 81/156/35 82/157/35 79/158/35
f 81/159/36 83/160/36 84/161/36 82/162/36
f 83/163/37 85/164/37 86/165/37 84/166/37
f 85/167/38 87/168/38 88/169/38 86/170/38
f 87/171/39 77/172/39 80/173/39 88/174/39
f 89/175/40 90/176/40 91/177/40 92/178/40
f 90/179/41 93/180/41 94/181/41 91/182/41
f 93/183/42 95/184/42 96/185/42 94/186/42
f 95/187/43 97/188/43 98/189/43 96/190/43
f 97/191/44 99/192/44 100/193/44 98/194/44
f 99/195/45 101/196/46 102/197/46 100/198/45
f 101/199/46 103/200/47 104/201/47 102/202/46
f 103/203/48 89/204/48 92/205/48 104/206/48
f 105/207/49 106/208/49 107/209/49 108/210/49
f 106/211/5 109/212/50 110/213/50 107/214/5
f 109/215/50 111/216/51 112/217/51 110/218/50
f 111/219/52 113/220/52 114/221/52 112/222/52
f 113/223/53 105/224/53 108/225/53 114/226/53
f 115/227/54 116/228/54 117/229/54 118/230/54
f 116/231/55 119/232/55 120/233/55 117/234/55
f 119/235/56 121/236/56 122/237/56 120/238/56
f 121/239/57 123/240/57 124/241/57 122/242/57
f 123/243/58 125/244/58 126/245/58 124/246/58
f 125/247/59 115/248/59 118/249/59 126/250/59
f 127/251/60 128/252/60 129/253/60 130/254/60
f 128/255/61 131/256/61 132/257/61 129/258/61
f 131/259/62 133/260/62 134/261/62 132/262/62
f 133/263/63 135/264/63 136/265/63 134/266/63
f 135/267/64 137/268/64 138/269/64 136/270/64
f 137/271/61 139/272/61 140/273/61 138/274/61
f 139/275/65 141/276/65 142/277/65 140/278/65
f 141/276/66 127/279/66 130/280/66 142/277/66
f 143/281/67 144/282/67 145/283/67 146/284/67
f 144/285/68 147/286/68 148/287/68 145/288/68
f 147/289/69 149/290/69 150/291/69 148/292/69
f 149/293/70 151/294/70 152/295/70 150/296/70
f 151/297/71 153/298/71 154/299/71 152/300/71
f 153/301/68 143/302/68 146/303/68 154/304/68
f 155/305/72 156/306/72 157/307/72 158/308/72
f 156/309/73 159/310/73 160/311/73 157/312/73
f 159/313/74 161/314/74 162/315/74 160/316/74
f 161/317/75 163/318/75 164/319/75 162/320/75
f 163/321/76 165/322/76 166/323/76 164/324/76
f 165/325/77 155/326/77 158/327/77 166/328/77
f 167/329/78 168/330/78 169/331/78 170/332/78
f 168/333/79 171/334/79 172/335/79 169/336/79
f 171/337/78 173/338/78 174/339/78 172/340/78
f 173/341/80 175/342/80 176/343/80 174/344/80
f 175/345/81 177/346/81 178/347/81 176/348/81
f 177/349/82 167/350/82 170/351/82 178/352/82
f 179/353/83 180/354/83 181/355/83 182/356/83
f 180/357/84 183/358/84 184/359/84 181/360/84
f 183/361/85 185/362/85 186/363/85 184/364/85
f 185/365/86 179/366/86 182/367/86 186/368/86
f 187/369/87 188/370/87 189/371/87 190/372/87
f 188/373/88 191/374/88 192/375/88 189/376/88
f 191/377/89 193/378/89 194/379/89 192/380/89
f 193/381/90 195/382/90 196/383/90 194/384/90
f 195/385/91 197/386/91 198/387/91 196/388/91
f 197/389/90 199/390/90 200/391/90 198/392/90
f 199/393/92 201/394/92 202/395/92 200/396/92
f 201/397/90 187/398/90 190/399/90 202/400/90
f 203/401/93 204/402/93 205/403/93 206/404/93
f 204/405/84 207/406/84 208/407/84 205/408/84
f 207/409/94 209/410/94 210/411/94 208/412/94
f 209/413/95 211/414/95 212/415/95 210/416/95
f 211/417/93 213/418/93 214/419/93 212/420/93
f 213/421/95 203/422/95 206/423/95 214/424/95
f 215/425/85 216/426/85 217/427/85 218/428/85
f 216/429/95 219/430/95 220/431/95 217/432/95
f 219/433/93 221/434/93 222/435/93 220/436/93
f 221/437/84 223/438/84 224/439/84 222/440/84
f 223/441/96 225/442/96 226/443/96 224/444/96
f 225/445/97 215/446/97 218/447/97 226/448/97
