# Blender v2.78 (sub 0) OBJ File: ''
# www.blender.org
mtllib CityEngineMaterial_828.mtl
o CityEngineMaterial_828
v -745.737305 12.271252 299.034912
v -745.449524 12.271253 295.408386
v -746.094482 12.604852 295.958496
v -746.287476 12.604852 298.389893
v -746.644714 12.271253 295.313507
v -746.932373 12.271252 298.940002
v -745.402283 12.271252 299.061493
v -745.300903 12.271252 297.784302
v -745.990173 12.627751 298.372192
v -746.681702 12.271252 297.674713
v -746.093811 12.627751 298.364014
v -746.783020 12.271252 298.951904
v 70.921600 13.608779 129.459702
v 68.577003 13.608779 130.012405
v 68.831802 14.067979 131.093506
v 71.176498 14.067979 130.540894
v 69.086700 13.608778 132.174698
v 71.431297 13.608779 131.621994
v -157.734406 20.153303 593.968079
v -159.304703 20.153303 595.948608
v -157.529297 20.775303 595.743530
v -156.982697 20.153303 597.789612
v -157.187805 20.775303 596.014221
v -155.412399 20.153303 595.809082
v -159.112900 20.153303 594.864014
v -159.714996 20.153303 595.623291
v -159.034302 20.391802 595.544678
v -157.272903 20.153303 597.559387
v -157.351593 20.391802 596.878784
v -156.670898 20.153303 596.800171
v 730.464294 41.636143 352.358002
v 728.842896 41.636143 350.769501
v 728.855896 42.053242 352.044312
v 729.189514 42.053242 352.371002
v 727.581116 41.636143 352.057312
v 729.202515 41.636143 353.645905
v 730.756775 41.636143 352.059387
v 730.106384 41.636143 351.422211
v 730.112976 41.846844 352.066010
v 728.709778 41.636143 352.847687
v 729.353577 41.846844 352.841095
v 729.360229 41.636143 353.484894
v 308.138397 86.235512 -71.935287
v 311.087311 86.235512 -72.252281
v 310.973206 86.702614 -73.313583
v 308.024292 86.702614 -72.996582
v 310.859100 86.235512 -74.374786
v 307.910187 86.235512 -74.057785
v 311.109711 86.235512 -72.044487
v 310.973206 86.235512 -73.313583
v 310.163605 86.591919 -73.226585
v 310.299988 86.591919 -71.957481
v 309.354004 86.235512 -73.139488
v 309.490387 86.235512 -71.870384
v 532.705322 29.026909 557.762390
v 531.699524 29.027010 552.962280
v 530.675720 29.516211 554.528687
v 531.138977 29.516209 556.738770
v 529.109070 29.027010 553.505127
v 530.115723 29.026909 558.304871
v -538.550720 20.614422 481.560913
v -538.586792 20.614420 486.417908
v -537.423096 21.076921 485.271393
v -537.404175 21.076921 482.724609
v -536.276611 20.614420 486.435089
v -536.240479 20.614422 481.578094
v -539.168274 20.614521 483.736389
v -539.188171 20.614420 486.413513
v -537.867126 21.139523 485.111694
v -537.866577 21.139523 485.057587
v -536.565308 20.614420 486.433014
v -536.545410 20.614521 483.756012
v -375.764099 37.569736 397.884613
v -376.343689 37.569736 390.521515
v -377.396912 38.117035 390.604401
v -376.817291 38.117035 397.967499
v -378.450104 37.569736 390.687286
v -377.870514 37.569736 398.050415
v 608.463623 31.363504 587.979980
v 606.583618 31.363504 588.651917
v 607.524780 31.678705 589.097473
v 608.018005 31.678705 588.921082
v 607.079224 31.363504 590.038574
v 608.959229 31.363504 589.366699
v 608.319275 31.363504 587.576111
v 607.541504 31.363504 587.854126
v 608.069275 31.540304 588.103882
v 608.119507 31.363504 589.471313
v 608.369324 31.540304 588.943481
v 608.897217 31.363504 589.193420
v 593.837891 35.506519 496.493500
v 592.072083 35.506519 491.010986
v 589.787476 36.577320 491.746796
v 591.553223 36.577320 497.229309
v 587.502686 35.506519 492.482697
v 589.268494 35.506519 497.965088
v 594.608521 35.506519 494.297089
v 590.984680 35.506519 495.464203
v 591.268921 35.920120 496.346802
v 594.892822 35.920120 495.179688
v 591.553223 35.506519 497.229309
v 595.177002 35.506519 496.062195
v 593.411316 35.506519 490.579712
v 589.787476 35.506519 491.746796
v 590.104370 35.967720 492.730988
v 593.728271 35.967720 491.563904
v 590.421387 35.506519 493.715210
v 594.045227 35.506519 492.548096
v -770.221924 53.016869 -1026.982910
v -768.938721 53.016869 -1024.192627
v -768.109924 53.501766 -1024.573730
v -769.393127 53.501766 -1027.364014
v -767.281311 53.016869 -1024.954956
v -768.564392 53.016869 -1027.745117
v -769.171387 53.016869 -1024.085571
v -768.109924 53.016869 -1024.573730
v -768.345276 53.316269 -1025.085449
v -769.406677 53.316269 -1024.597290
v -768.580627 53.016869 -1025.597168
v -769.642029 53.016869 -1025.109009
vt -0.0008 -0.0552
vt 0.6337 -0.0552
vt 0.5291 0.0645
vt 0.1037 0.0645
vt -0.0383 -0.0387
vt 0.1708 -0.0387
vt 0.0663 0.0810
vt -0.0218 -0.0126
vt 0.6127 -0.0126
vt 0.5082 0.1071
vt 0.0827 0.1071
vt -0.0644 -0.0317
vt 0.1447 -0.0317
vt 0.0402 0.0880
vt -0.0541 -0.0410
vt 0.1694 -0.0410
vt 0.0576 0.0869
vt -0.0241 -0.0128
vt 0.2175 -0.0128
vt 0.1057 0.1151
vt 0.0876 0.1151
vt -0.0646 -0.0041
vt 0.1589 -0.0041
vt 0.0472 0.1237
vt -0.0560 -0.0436
vt 0.1856 -0.0436
vt 0.0739 0.0843
vt 0.0558 0.0843
vt -0.0508 -0.0066
vt 0.5014 -0.0066
vt 0.5014 0.2689
vt -0.0508 0.2689
vt -0.0747 -0.0350
vt 0.4775 -0.0350
vt 0.4775 0.2406
vt -0.0747 0.2406
vt -0.0368 -0.0240
vt 0.4232 -0.0240
vt 0.1932 0.2324
vt -0.0064 -0.0381
vt 0.5330 -0.0381
vt 0.3030 0.2182
vt 0.2237 0.2182
vt -0.0205 -0.0660
vt 0.4395 -0.0660
vt 0.2095 0.1904
vt -0.0484 -0.0159
vt 0.4910 -0.0159
vt 0.2609 0.2404
vt 0.1816 0.2404
vt -0.0439 -0.0155
vt 0.1325 -0.0155
vt 0.0443 0.0828
vt -0.0695 -0.0082
vt 0.4977 -0.0082
vt 0.4095 0.0901
vt 0.0186 0.0901
vt -0.0622 -0.0637
vt 0.1142 -0.0637
vt 0.0260 0.0346
vt -0.0461 -0.0023
vt 0.5211 -0.0023
vt 0.4329 0.0959
vt 0.0421 0.0959
vt -0.0343 -0.0675
vt 0.3581 -0.0675
vt 0.2023 0.1042
vt 0.1216 0.1042
vt -0.0508 -0.0659
vt 0.2609 -0.0659
vt 0.1051 0.1058
vt -0.0492 -0.0432
vt 0.3432 -0.0432
vt 0.1873 0.1286
vt 0.1066 0.1286
vt -0.0265 -0.0064
vt 0.2852 -0.0064
vt 0.1294 0.1653
vt -0.0286 -0.0582
vt 0.1288 -0.0582
vt 0.0501 0.0285
vt -0.0415 -0.0559
vt 0.3035 -0.0559
vt 0.2248 0.0308
vt 0.0372 0.0308
vt -0.0392 -0.0090
vt 0.1182 -0.0090
vt 0.0395 0.0777
vt -0.0603 -0.0347
vt 0.2846 -0.0347
vt 0.2059 0.0521
vt 0.0184 0.0521
vt -0.0264 -0.0175
vt 0.6323 -0.0175
vt 0.6323 0.2412
vt -0.0264 0.2412
vt -0.0835 -0.0074
vt 0.5752 -0.0074
vt 0.5752 0.2513
vt -0.0835 0.2513
vt -0.0012 -0.0447
vt 0.2823 -0.0447
vt 0.2823 0.1527
vt -0.0012 0.1527
vt -0.0232 -0.0663
vt 0.2603 -0.0663
vt 0.2603 0.1310
vt -0.0232 0.1310
vt -0.0764 -0.0388
vt 1.1098 -0.0388
vt 0.7897 0.3024
vt 0.2436 0.3023
vt -0.0154 -0.0129
vt 0.6247 -0.0129
vt 0.3046 0.3283
vt -0.0848 -0.0836
vt 1.1014 -0.0836
vt 0.7815 0.2576
vt 0.2353 0.2576
vt -0.0602 -0.0411
vt 0.5797 -0.0411
vt 0.2597 0.3001
vt -0.0344 -0.0413
vt 0.9143 -0.0413
vt 0.6887 0.2017
vt 0.1912 0.2017
vt -0.0224 -0.0245
vt 0.4288 -0.0245
vt 0.2032 0.2186
vt -0.0056 -0.0641
vt 0.9432 -0.0641
vt 0.7175 0.1789
vt 0.2201 0.1789
vt -0.0452 -0.0029
vt 0.4060 -0.0029
vt 0.1804 0.2401
vt -0.0259 -0.0065
vt 0.4971 -0.0065
vt 0.2409 0.2694
vt 0.2303 0.2694
vt -0.0645 -0.0457
vt 0.4478 -0.0457
vt 0.1917 0.2302
vt -0.0269 -0.0523
vt 0.4961 -0.0523
vt 0.2399 0.2236
vt 0.2293 0.2236
vt -0.0335 -0.0049
vt 0.4789 -0.0049
vt 0.2227 0.2710
vt -0.0555 -0.0541
vt 1.6128 -0.0541
vt 1.6128 0.2146
vt -0.0555 0.2146
vt -0.0323 -0.0296
vt 1.6360 -0.0296
vt 1.6360 0.2392
vt -0.0323 0.2392
vt -0.0086 -0.0537
vt 0.4948 -0.0537
vt 0.3091 0.1482
vt 0.1770 0.1482
vt -0.0293 -0.0047
vt 0.3420 -0.0047
vt 0.1563 0.1972
vt -0.0796 -0.0722
vt 0.4238 -0.0722
vt 0.2381 0.1298
vt 0.1061 0.1298
vt -0.0478 -0.0605
vt 0.3235 -0.0605
vt 0.1379 0.1415
vt -0.0929 -0.0123
vt 0.1154 -0.0123
vt 0.0112 0.1009
vt -0.0872 -0.0098
vt 0.3458 -0.0098
vt 0.2417 0.1035
vt 0.0169 0.1035
vt -0.0846 -0.0590
vt 0.1236 -0.0590
vt 0.0195 0.0543
vt -0.0346 -0.0256
vt 0.3984 -0.0256
vt 0.2943 0.0877
vt 0.0695 0.0877
vt -0.0500 -0.0291
vt 1.2076 -0.0291
vt 1.2076 0.5448
vt -0.0500 0.5448
vt -0.0080 -0.0787
vt 1.2496 -0.0787
vt 1.2496 0.4952
vt -0.0080 0.4952
vt -0.0508 -0.0284
vt 0.7805 -0.0284
vt 0.7805 0.1932
vt -0.0508 0.1932
vt -0.0073 -0.0564
vt 0.8239 -0.0564
vt 0.8239 0.1653
vt -0.0073 0.1653
vt -0.0261 -0.0707
vt 0.8052 -0.0707
vt 0.8052 0.1766
vt -0.0261 0.1766
vt -0.0495 -0.0714
vt 0.7817 -0.0714
vt 0.7817 0.1758
vt -0.0495 0.1758
vt -0.0510 -0.0541
vt 0.5438 -0.0541
vt 0.5438 0.1459
vt -0.0510 0.1459
vt -0.0354 -0.0184
vt 0.5593 -0.0184
vt 0.5593 0.1816
vt -0.0354 0.1816
vt -0.0214 -0.0450
vt 0.2048 -0.0450
vt 0.2048 0.0785
vt -0.0214 0.0785
vt -0.0263 -0.0176
vt 0.2000 -0.0176
vt 0.2000 0.1060
vt -0.0263 0.1060
vn 0.4847 0.8738 0.0385
vn 0.0385 0.8738 -0.4847
vn -0.4847 0.8738 -0.0385
vn -0.0385 0.8738 0.4848
vn 0.4848 0.8738 0.0385
vn -0.4848 0.8738 -0.0385
vn -0.0385 0.8738 0.4847
vn -0.0876 0.9241 -0.3719
vn 0.0876 0.9241 0.3719
vn -0.3460 0.8972 -0.2743
vn -0.2744 0.8972 0.3460
vn 0.3460 0.8972 0.2744
vn 0.2743 0.8972 -0.3460
vn -0.3461 0.8972 -0.2744
vn -0.2744 0.8972 0.3461
vn 0.3461 0.8972 0.2744
vn 0.2744 0.8972 -0.3461
vn 0.2938 0.9076 -0.3000
vn -0.3000 0.9075 -0.2939
vn -0.2938 0.9076 0.2999
vn 0.3000 0.9076 0.2939
vn 0.2939 0.9075 -0.3000
vn -0.3000 0.9075 -0.2940
vn -0.2939 0.9075 0.3001
vn 0.3001 0.9075 0.2940
vn 0.0428 0.9161 0.3986
vn -0.0429 0.9161 -0.3986
vn 0.3987 0.9161 -0.0429
vn -0.3987 0.9161 0.0428
vn 0.3394 0.9379 -0.0711
vn -0.0711 0.9379 -0.3394
vn -0.3395 0.9379 0.0712
vn 0.0711 0.9379 0.3395
vn -0.3717 0.9284 -0.0028
vn -0.0028 0.9284 0.3717
vn 0.3717 0.9284 0.0028
vn 0.0028 0.9283 -0.3717
vn -0.3717 0.9284 -0.0027
vn 0.3716 0.9284 0.0028
vn 0.0028 0.9284 -0.3716
vn 0.4586 0.8879 -0.0361
vn -0.4586 0.8879 0.0361
vn -0.1325 0.9193 -0.3706
vn -0.3706 0.9193 0.1325
vn 0.1324 0.9193 0.3706
vn 0.3706 0.9193 -0.1325
vn -0.1325 0.9192 -0.3707
vn -0.3707 0.9193 0.1325
vn 0.3706 0.9193 -0.1324
vn 0.3878 0.9132 -0.1249
vn -0.3878 0.9132 0.1249
vn -0.1249 0.9133 -0.3878
vn 0.1249 0.9133 0.3878
vn -0.1249 0.9133 -0.3877
vn -0.4264 0.8830 0.1961
vn 0.4265 0.8830 -0.1961
vn 0.1961 0.8830 0.4264
vn -0.1961 0.8830 -0.4264
g CityEngineMaterial_828_CityEngineMaterial_828_CityEngineMaterial_828_mat
usemtl CityEngineMaterial_828_mat
s 1
f 1/1/1 2/2/1 3/3/1 4/4/1
f 2/5/2 5/6/2 3/7/2
f 5/8/3 6/9/3 4/10/3 3/11/3
f 6/12/4 1/13/4 4/14/4
f 7/15/5 8/16/5 9/17/5
f 8/18/2 10/19/2 11/20/2 9/21/2
f 10/22/6 12/23/6 11/24/6
f 12/25/7 7/26/7 9/27/7 11/28/7
f 13/29/8 14/30/8 15/31/8 16/32/8
f 17/33/9 18/34/9 16/35/9 15/36/9
f 19/37/10 20/38/10 21/39/10
f 20/40/11 22/41/11 23/42/11 21/43/11
f 22/44/12 24/45/12 23/46/12
f 24/47/13 19/48/13 21/49/13 23/50/13
f 25/51/14 26/52/14 27/53/14
f 26/54/15 28/55/15 29/56/15 27/57/15
f 28/58/16 30/59/16 29/60/16
f 30/61/17 25/62/17 27/63/17 29/64/17
f 31/65/18 32/66/18 33/67/18 34/68/18
f 32/69/19 35/70/19 33/71/19
f 35/72/20 36/73/20 34/74/20 33/75/20
f 36/76/21 31/77/21 34/78/21
f 37/79/22 38/80/22 39/81/22
f 38/82/23 40/83/23 41/84/23 39/85/23
f 40/86/24 42/87/24 41/88/24
f 42/89/25 37/90/25 39/91/25 41/92/25
f 43/93/26 44/94/26 45/95/26 46/96/26
f 47/97/27 48/98/27 46/99/27 45/100/27
f 49/101/28 50/102/28 51/103/28 52/104/28
f 53/105/29 54/106/29 52/107/29 51/108/29
f 55/109/30 56/110/30 57/111/30 58/112/30
f 56/113/31 59/114/31 57/115/31
f 59/116/32 60/117/32 58/118/32 57/119/32
f 60/120/33 55/121/33 58/122/33
f 61/123/34 62/124/34 63/125/34 64/126/34
f 62/127/35 65/128/35 63/129/35
f 65/130/36 66/131/36 64/132/36 63/133/36
f 66/134/37 61/135/37 64/136/37
f 67/137/38 68/138/38 69/139/38 70/140/38
f 68/141/35 71/142/35 69/143/35
f 71/144/39 72/145/39 70/146/39 69/147/39
f 72/148/40 67/149/40 70/150/40
f 73/151/41 74/152/41 75/153/41 76/154/41
f 77/155/42 78/156/42 76/157/42 75/158/42
f 79/159/43 80/160/43 81/161/43 82/162/43
f 80/163/44 83/164/44 81/165/44
f 83/166/45 84/167/45 82/168/45 81/169/45
f 84/170/46 79/171/46 82/172/46
f 85/173/47 86/174/47 87/175/47
f 86/176/48 88/177/48 89/178/48 87/179/48
f 88/180/45 90/181/45 89/182/45
f 90/183/49 85/184/49 87/185/49 89/186/49
f 91/187/50 92/188/50 93/189/50 94/190/50
f 95/191/51 96/192/51 94/193/51 93/194/51
f 97/195/52 98/196/52 99/197/52 100/198/52
f 101/199/53 102/200/53 100/201/53 99/202/53
f 103/203/54 104/204/54 105/205/54 106/206/54
f 107/207/53 108/208/53 106/209/53 105/210/53
f 109/211/55 110/212/55 111/213/55 112/214/55
f 113/215/56 114/216/56 112/217/56 111/218/56
f 115/219/57 116/220/57 117/221/57 118/222/57
f 119/223/58 120/224/58 118/225/58 117/226/58
