# Blender v2.78 (sub 0) OBJ File: ''
# www.blender.org
mtllib CityEngineMaterial_852.mtl
o CityEngineMaterial_852
v 1056.137085 118.212051 -313.725555
v 1064.543091 119.569946 -298.557465
v 1065.175659 119.418045 -300.087555
v 1066.927734 118.961044 -304.336975
v 1068.757324 118.504051 -308.528259
v 1070.741089 118.084053 -312.584656
v 1072.959717 117.738251 -316.428955
v 1075.496460 117.503555 -319.980560
v 1078.431152 117.416954 -323.147369
v 1066.058716 117.737152 -317.917084
vt 0.0000 0.0000
vt 0.0000 1.0000
vt 0.0538 0.9402
vt 0.2033 0.7738
vt 0.3544 0.6125
vt 0.5084 0.4623
vt 0.6664 0.3297
vt 0.8300 0.2211
vt 1.0000 0.1435
vt 0.4453 0.0634
vn 0.0164 0.9964 -0.0833
g CityEngineMaterial_852_CityEngineMaterial_852_CityEngineMaterial_852_mat
usemtl CityEngineMaterial_852_mat
s 1
f 1/1/1 2/2/1 3/3/1 4/4/1
f 1/1/1 4/4/1 5/5/1 6/6/1
f 1/1/1 6/6/1 7/7/1 8/8/1
f 1/1/1 8/8/1 9/9/1 10/10/1
