# Blender v2.78 (sub 0) OBJ File: ''
# www.blender.org
mtllib CityEngineMaterial_549.mtl
o CityEngineMaterial_549
v 316.693207 50.212219 -125.197395
v 314.392487 50.212223 -134.332489
v 302.040588 50.212223 -131.283585
v 306.311096 50.212219 -126.309593
v 303.478210 50.212219 -125.610390
v 306.783813 50.212219 -124.433090
v 313.331390 51.514622 -134.070587
v 305.978607 51.514622 -132.255692
v 307.164490 51.514618 -127.451492
v 314.517212 51.514622 -129.266388
v 207.398697 50.639366 -390.606201
v 208.157104 50.639362 -385.763306
v 209.702606 50.639362 -385.853699
v 209.628006 50.639362 -386.330292
v 211.797104 50.639366 -386.456207
v 214.965698 50.639362 -386.161285
v 211.825195 50.639362 -385.977814
v 214.680298 50.639366 -391.028809
v 214.167297 51.043964 -390.976990
v 208.376297 51.043964 -390.640991
v 208.526596 51.043964 -388.050995
v 214.317596 51.043964 -388.387085
v 212.343399 51.043964 -388.272491
v 212.446701 51.043964 -386.493896
v 214.420807 51.043964 -386.608490
v -155.310196 15.430361 -372.961700
v -159.672699 15.430360 -370.494293
v -163.879105 15.430360 -367.931488
v -157.778503 15.430358 -356.016205
v -145.537903 15.430359 -362.501495
v -149.877197 15.430361 -375.983704
v -155.310196 22.184961 -372.961700
v -159.672699 22.184961 -370.494293
v -163.879105 22.184959 -367.931488
v -160.805695 22.184959 -361.928711
v -147.733200 22.184961 -369.322296
v -149.877197 22.184961 -375.983704
v -147.733200 31.198360 -369.322296
v -154.849396 31.198359 -365.297485
v -151.485794 31.198359 -359.350311
v -145.537903 31.198359 -362.501495
v -158.519394 23.576658 -363.268799
v -149.754196 23.576658 -368.226288
v -152.036896 23.576660 -372.262207
v -160.802094 23.576658 -367.304810
v -159.147293 23.576658 -368.240692
v -156.892303 23.576660 -369.516113
v -157.906601 23.576660 -371.309509
v -160.161606 23.576660 -370.034088
v -150.123596 32.461262 -367.930511
v -153.677704 32.461262 -365.920410
v -151.742294 32.461258 -362.498413
v -148.188202 32.461262 -364.508606
v -148.976807 32.461262 -364.062592
v -147.565598 32.461258 -361.567413
v -146.776993 32.461258 -362.013397
v -745.496704 7.770982 106.833504
v -770.296509 7.770982 108.320999
v -768.143188 7.770980 120.608299
v -743.837830 7.770981 116.299301
v -746.563782 18.191483 108.184097
v -760.310608 18.191483 109.008598
v -758.796814 18.191481 117.647102
v -745.323975 18.191481 115.258499
v -748.755798 19.519882 108.355301
v -757.225586 19.519882 108.863197
v -756.937012 19.519880 113.674500
v -748.467285 19.519880 113.166496
v -750.672119 19.519880 113.298698
v -753.466003 19.519880 113.466301
v -753.324097 19.519880 115.833000
v -750.530090 19.519880 115.665398
v -70.096397 11.313503 -19.019299
v -71.413498 11.313503 -19.124498
v -70.940804 11.313501 -7.709498
v -66.177299 11.313501 -7.328898
v -70.057899 11.313503 -20.238897
v -65.774597 11.313503 -20.099998
v -66.380997 12.149201 -7.556598
v -65.991798 12.149203 -19.896198
v -67.423698 12.149203 -19.942598
v -67.717003 12.149202 -10.639498
v -70.861603 12.149202 -10.890698
v -70.737999 12.149201 -7.904698
v -779.374023 12.557421 483.426086
v -785.572693 12.557421 482.939087
v -786.341492 12.557420 492.630890
v -781.808289 12.557420 490.042908
v -782.052979 12.557420 493.126587
v -780.029480 12.557420 490.182587
v -778.646790 12.557420 490.342407
v -775.167297 12.557420 493.922302
v -778.895325 12.557420 493.491486
v -774.384521 12.557421 484.002594
v 477.110687 68.064819 -161.276886
v 480.893585 68.064819 -139.186890
v 488.599091 68.064819 -140.506485
v 486.231293 68.064819 -154.333481
v 488.447113 68.064819 -154.667084
v 487.043304 68.064819 -162.772385
v 478.774811 68.472824 -151.559280
v 480.644501 68.472824 -140.641586
v 484.678986 68.472824 -141.332489
v 482.809387 68.472824 -152.250183
v 483.377686 68.472824 -148.931381
v 488.350006 68.472824 -141.961182
v 487.048706 68.472824 -149.559982
v -57.907501 6.252935 394.553192
v -60.287399 6.252937 386.046692
v -63.477200 6.252937 386.939087
v -63.336399 6.252937 387.442505
v -65.582298 6.252936 388.070801
v -68.269203 6.252936 388.279785
v -65.669502 6.252937 387.552490
v -66.795403 6.252935 397.039795
v -65.379501 7.566235 396.600494
v -58.535599 7.566236 394.685699
v -59.864899 7.566236 389.934387
v -66.708801 7.566236 391.849213
v -65.728302 7.566236 391.574890
v -61.286900 7.566236 390.332214
v -62.185501 7.566237 387.120514
v -66.626900 7.566236 388.363098
v -569.913330 9.770823 471.382202
v -569.900513 9.770823 467.992401
v -570.536072 9.770823 467.989899
v -575.232178 9.770824 461.751801
v -570.527588 9.770823 465.799408
v -569.877014 9.770824 461.772491
v -569.892212 9.770823 465.801910
v -575.269409 9.770823 471.361389
v -570.702087 10.419324 468.154602
v -570.713928 10.419324 471.213806
v -570.077881 10.419323 471.216309
v -570.066406 10.419324 468.157104
v -575.067627 10.291124 461.917694
v -575.103394 10.291123 471.196686
v -572.996887 10.291123 471.204895
v -572.982117 10.291123 467.356689
v -570.692322 10.291123 465.633514
v -570.698975 10.291123 467.365509
v -570.056885 10.291123 465.635986
v -570.042908 10.291124 461.937195
v -140.604904 8.154859 863.825073
v -141.695099 8.154859 864.322876
v -137.853195 8.154858 872.736694
v -129.412598 8.154859 868.881775
v -142.773499 8.154860 861.877319
v -139.085800 8.154860 860.193115
v -131.663696 9.548659 866.904602
v -136.595398 9.548660 862.474792
v -138.546600 9.548659 864.646973
v -133.614899 9.548659 869.076782
v -133.926102 9.548659 868.797180
v -136.738693 9.548659 866.270874
v -138.593506 9.548659 868.335815
v -135.780899 9.548658 870.862183
v 94.973999 21.399309 -61.635098
v 94.242401 21.399311 -66.782402
v 91.933800 21.399311 -66.474197
v 88.829399 21.399309 -60.880196
v 85.914902 21.399311 -67.896400
v 91.604897 21.399311 -68.668503
v 87.003700 21.399309 -60.632896
v 90.283501 21.399309 -61.008896
v 88.640900 22.395912 -65.851601
v 89.023499 22.395910 -63.299397
v 90.019501 22.395910 -63.387695
v 89.916603 22.395910 -63.790897
v 92.207397 22.395910 -64.096802
v 92.265503 22.395910 -63.687496
v 89.588402 22.395912 -65.980202
v -729.610413 11.239030 434.530487
v -718.196228 11.239030 435.457794
v -717.067383 11.239032 422.568695
v -725.567505 11.239032 423.998688
v -725.383118 11.239032 421.893188
v -728.723816 11.239032 423.742310
v -718.081726 11.672130 434.150604
v -717.372620 11.672131 426.053314
v -723.284973 11.672131 425.535492
v -723.994080 11.672130 433.632904
v -723.528381 11.672131 428.315399
v -728.780823 11.672131 425.054108
v -729.024292 11.672131 427.834106
v 668.306885 32.037132 430.555695
v 667.872803 32.037132 428.681488
v 665.897278 32.037132 428.964600
v 659.915588 32.037132 425.614288
v 664.865295 32.037132 424.483398
v 661.285278 32.037132 431.561890
v 662.096619 33.255932 431.445587
v 665.007202 33.255932 431.028503
v 664.437988 33.255932 427.056488
v 661.527283 33.255932 427.473511
v 662.179871 33.255932 427.380005
v 664.080872 33.255932 427.107605
v 663.781494 33.255932 425.017609
v 661.880371 33.255932 425.290100
v 1077.705322 110.926285 -501.166473
v 1081.172852 110.926285 -496.710754
v 1085.392090 110.926285 -498.893280
v 1078.272949 110.926285 -508.041656
v 1073.606689 110.926285 -499.047455
v 1066.247070 110.926285 -501.824158
v 1077.066284 110.926285 -494.586670
v 1073.350830 110.926285 -492.664673
v 332.689392 51.440224 -139.642685
v 336.958405 51.440224 -140.686691
v 336.373291 51.440224 -143.053879
v 321.714111 51.440224 -138.982285
v 321.793091 51.440224 -139.488388
v 332.665009 51.440224 -139.486084
v 334.100494 51.440224 -133.786285
v 323.666595 51.440224 -131.230087
v 322.809601 51.994423 -138.711487
v 323.183685 51.994423 -137.226288
v 324.414795 51.994423 -137.527390
v 332.889587 51.994423 -134.515289
v 325.621887 51.994423 -132.734680
v 331.649506 51.994423 -139.439285
v 331.807312 51.994423 -140.452484
v 335.644714 51.994423 -141.850189
v 335.751709 51.994423 -141.417084
vt -0.0000 -0.0000
vt 0.0048 1.0060
vt 1.3696 1.0060
vt 1.0527 0.3810
vt 1.3658 0.3810
vt 1.0517 0.1744
vt 0.0000 1.0000
vt 1.0000 1.0000
vt 1.0000 0.0000
vt -0.0000 -0.0000
vt 1.0000 1.0000
vt 0.9347 0.0000
vt 0.7225 0.0001
vt 0.7290 0.0986
vt 0.4312 0.0986
vt -0.0000 0.0006
vt 0.4311 0.0003
vt 0.0004 1.0000
vt 0.0000 1.0000
vt 1.0000 1.0000
vt 1.0000 0.0000
vt -0.0000 -0.0000
vt 0.0000 1.0000
vt 1.0000 1.0000
vt 1.0000 0.0000
vt -0.0000 -0.0000
vt 0.6601 0.3680
vt 0.6167 0.1817
vt 0.5673 0.0000
vt -0.0000 0.0818
vt 0.1040 0.5994
vt 0.7122 0.5994
vt 0.5269 0.0000
vt 0.2684 -0.0000
vt 0.0144 0.0232
vt 0.0000 1.0000
vt 0.7747 1.0000
vt 0.8476 0.0064
vt 0.0000 1.0000
vt 0.5912 1.0000
vt 0.5912 0.0264
vt 0.1046 0.0000
vt 0.0000 1.0000
vt 0.6455 1.0000
vt 0.6455 0.0000
vt -0.0000 -0.0000
vt 0.0000 1.0000
vt 1.0000 1.0000
vt 1.0000 0.0000
vt -0.0000 -0.0000
vt 0.0000 1.0000
vt 1.0000 1.0000
vt 1.0000 0.0000
vt -0.0000 -0.0000
vt 0.0000 1.0000
vt 1.0000 1.0000
vt 1.0000 0.0000
vt 0.0358 1.3336
vt 0.8530 1.3336
vt 0.8065 0.0000
vt 0.0000 0.3062
vt 0.0814 0.9052
vt 1.4591 0.9052
vt 1.3597 -0.0000
vt 0.0000 0.1639
vt 0.0000 1.0000
vt 0.6812 1.0000
vt 0.6812 0.0000
vt -0.0000 -0.0000
vt 0.0000 1.0000
vt 1.0000 1.0000
vt 1.0000 0.0000
vt -0.0000 -0.0000
vt 0.9616 0.2354
vt 0.9669 0.0000
vt 0.0192 0.1485
vt 0.0000 1.0000
vt 1.0631 0.2354
vt 1.0628 1.0000
vt 0.0000 1.0000
vt 1.2219 1.0000
vt 1.2220 0.6874
vt 0.3008 0.6874
vt 0.3159 0.0000
vt 0.0208 0.0475
vt 0.8507 0.5181
vt 0.8505 0.0003
vt 0.0343 0.0000
vt 0.2808 0.3593
vt 0.0211 0.3592
vt 0.2809 0.5079
vt 0.2766 0.6237
vt 0.0000 0.9360
vt 0.0114 0.6237
vt 0.8354 0.9360
vt -0.0000 1.1254
vt 1.0935 1.1254
vt 1.0935 0.2507
vt 0.4090 0.2507
vt 0.4112 -0.0000
vt 0.0099 0.0017
vt 0.0000 1.0000
vt 0.8894 1.0000
vt 0.8894 -0.0000
vt -0.0000 -0.0000
vt 0.0000 1.0000
vt 1.0000 1.0000
vt 1.0000 0.0000
vt -0.0000 -0.0000
vt 1.1009 0.8440
vt 1.1009 0.0000
vt 0.7058 0.0000
vt 0.7058 0.0499
vt 0.4276 0.0499
vt 0.1122 0.0000
vt 0.4342 0.0000
vt 0.0000 0.8440
vt 0.0000 1.0000
vt 1.0000 1.0000
vt 1.0000 0.0000
vt -0.0000 -0.0000
vt 0.0000 1.0000
vt 1.0000 1.0000
vt 1.0000 0.0000
vt -0.0000 -0.0000
vt 0.7377 0.0000
vt 0.4775 0.0001
vt 0.4775 0.1187
vt 0.0000 1.0000
vt 0.3093 0.1187
vt 0.0000 0.0002
vt 0.3093 0.0001
vt 0.7377 1.0000
vt 0.0000 1.0000
vt 1.0000 1.0000
vt 1.0000 0.0000
vt 0.0000 0.0004
vt 0.0000 1.0000
vt 0.8282 1.0000
vt 0.8282 0.5808
vt 0.4848 0.5808
vt 0.3302 0.1264
vt 0.4848 0.1264
vt 0.3302 0.0000
vt -0.0000 -0.0000
vt 0.8510 0.3835
vt 0.8858 0.2955
vt 0.2692 0.0000
vt -0.0000 0.6810
vt 1.0629 0.3835
vt 0.9453 0.6810
vt 0.0000 1.0000
vt 1.0000 1.0000
vt 1.0000 0.0000
vt -0.0000 -0.0000
vt 0.0000 1.0000
vt 1.0000 1.0000
vt 1.0000 0.0000
vt -0.0000 -0.0000
vt 1.0000 0.0038
vt 0.3100 -0.0000
vt 0.3051 0.2234
vt 0.9782 0.5974
vt -0.0000 0.7742
vt 0.0106 0.2234
vt 0.9747 0.7742
vt 0.9899 0.4577
vt 0.0000 1.0000
vt 0.9638 1.0000
vt 0.9864 0.6945
vt 0.8317 0.7073
vt 0.8456 -0.0000
vt 1.0000 0.0010
vt 0.0050 0.7073
vt 0.0000 0.0038
vt 0.0082 0.7525
vt 1.4810 0.7525
vt 1.2345 0.2070
vt 1.4751 0.2070
vt 1.2322 0.0000
vt 0.0000 1.0000
vt 0.7681 1.0000
vt 0.7681 -0.0000
vt -0.0000 -0.0000
vt -0.0000 -0.0000
vt 0.0000 1.0000
vt 1.0000 1.0000
vt 1.0000 0.0000
vt 1.0000 1.0000
vt 0.9785 0.7051
vt 0.7160 0.7051
vt -0.0000 0.0642
vt 0.6653 0.0000
vt 0.0673 1.0000
vt -0.0000 -0.0000
vt 0.0000 1.0000
vt 1.0000 1.0000
vt 1.0000 0.0000
vt -0.0000 -0.0000
vt 0.0000 1.0000
vt 1.0000 1.0000
vt 1.0000 0.0000
vt 0.4441 0.6639
vt 0.3647 0.0002
vt 0.0000 0.0004
vt 0.1630 1.3629
vt 0.7984 0.6639
vt 1.2025 1.3629
vt 0.7197 0.0001
vt 1.0409 0.0000
vt 0.3079 0.6260
vt 0.0000 0.6260
vt 0.0004 0.8792
vt 1.0657 0.8301
vt 1.0519 0.8792
vt 0.3121 0.6108
vt 0.3093 0.0005
vt 1.0618 0.0000
vt 1.3461 1.0000
vt 1.3450 0.7634
vt 1.2159 0.7634
vt 0.4502 0.0005
vt 1.2125 0.0000
vt 0.4538 0.7848
vt 0.4136 0.9311
vt 0.0001 1.0000
vt 0.0000 0.9311
vn 0.0000 1.0000 0.0000
g CityEngineMaterial_549_CityEngineMaterial_549_CityEngineMaterial_549_mat
usemtl CityEngineMaterial_549_mat
s 1
f 1/1/1 2/2/1 3/3/1 4/4/1
f 3/3/1 5/5/1 4/4/1
f 1/1/1 4/4/1 6/6/1
f 7/7/1 8/8/1 9/9/1 10/10/1
f 11/11/1 12/12/1 13/13/1 14/14/1
f 11/11/1 14/14/1 15/15/1 16/16/1
f 15/15/1 17/17/1 16/16/1
f 11/11/1 16/16/1 18/18/1
f 19/19/1 20/20/1 21/21/1 22/22/1
f 22/23/1 23/24/1 24/25/1 25/26/1
f 26/27/1 27/28/1 28/29/1 29/30/1
f 26/27/1 29/30/1 30/31/1 31/32/1
f 32/33/1 33/34/1 34/35/1 35/36/1
f 32/33/1 35/36/1 36/37/1 37/38/1
f 38/39/1 39/40/1 40/41/1 41/42/1
f 42/43/1 43/44/1 44/45/1 45/46/1
f 46/47/1 47/48/1 48/49/1 49/50/1
f 50/51/1 51/52/1 52/53/1 53/54/1
f 53/54/1 54/55/1 55/56/1 56/57/1
f 57/58/1 58/59/1 59/60/1 60/61/1
f 61/62/1 62/63/1 63/64/1 64/65/1
f 65/66/1 66/67/1 67/68/1 68/69/1
f 69/70/1 70/71/1 71/72/1 72/73/1
f 73/74/1 74/75/1 75/76/1 76/77/1
f 77/78/1 73/74/1 76/77/1 78/79/1
f 79/80/1 80/81/1 81/82/1 82/83/1
f 79/80/1 82/83/1 83/84/1 84/85/1
f 85/86/1 86/87/1 87/88/1 88/89/1
f 87/88/1 89/90/1 88/89/1
f 85/86/1 88/89/1 90/91/1 91/92/1
f 92/93/1 85/86/1 91/92/1 93/94/1
f 85/86/1 92/93/1 94/95/1
f 95/96/1 96/97/1 97/98/1 98/99/1
f 95/96/1 98/99/1 99/100/1 100/101/1
f 101/102/1 102/103/1 103/104/1 104/105/1
f 105/106/1 103/107/1 106/108/1 107/109/1
f 108/110/1 109/111/1 110/112/1 111/113/1
f 108/110/1 111/113/1 112/114/1 113/115/1
f 112/114/1 114/116/1 113/115/1
f 108/110/1 113/115/1 115/117/1
f 116/118/1 117/119/1 118/120/1 119/121/1
f 120/122/1 121/123/1 122/124/1 123/125/1
f 124/126/1 125/127/1 126/128/1 127/129/1
f 127/129/1 126/128/1 128/130/1 129/131/1
f 128/130/1 130/132/1 129/131/1
f 124/126/1 127/129/1 131/133/1
f 132/134/1 133/135/1 134/136/1 135/137/1
f 136/138/1 137/139/1 138/140/1 139/141/1
f 140/142/1 136/138/1 139/141/1 141/143/1
f 136/138/1 140/142/1 142/144/1 143/145/1
f 144/146/1 145/147/1 146/148/1 147/149/1
f 148/150/1 144/146/1 147/149/1 149/151/1
f 150/152/1 151/153/1 152/154/1 153/155/1
f 154/156/1 155/157/1 156/158/1 157/159/1
f 158/160/1 159/161/1 160/162/1 161/163/1
f 162/164/1 161/163/1 160/162/1 163/165/1
f 162/164/1 164/166/1 161/163/1
f 158/160/1 161/163/1 165/167/1
f 166/168/1 167/169/1 168/170/1 169/171/1
f 170/172/1 169/171/1 168/170/1 171/173/1
f 166/168/1 169/171/1 172/174/1
f 173/175/1 174/176/1 175/177/1 176/178/1
f 175/177/1 177/179/1 176/178/1
f 173/175/1 176/178/1 178/180/1
f 179/181/1 180/182/1 181/183/1 182/184/1
f 183/185/1 181/186/1 184/187/1 185/188/1
f 186/189/1 187/190/1 188/191/1 189/192/1
f 188/191/1 190/193/1 189/192/1
f 186/189/1 189/192/1 191/194/1
f 192/195/1 193/196/1 194/197/1 195/198/1
f 196/199/1 197/200/1 198/201/1 199/202/1
f 200/203/1 201/204/1 202/205/1 203/206/1
f 204/207/1 200/203/1 203/206/1 205/208/1
f 206/209/1 204/207/1 205/208/1 207/210/1
f 208/211/1 209/212/1 210/213/1 211/214/1
f 210/213/1 212/215/1 211/214/1
f 213/216/1 208/211/1 211/214/1 214/217/1
f 211/214/1 215/218/1 214/217/1
f 216/219/1 217/220/1 218/221/1 219/222/1
f 218/221/1 220/223/1 219/222/1
f 216/219/1 219/222/1 221/224/1 222/225/1
f 223/226/1 216/219/1 222/225/1 224/227/1
