# Blender v2.78 (sub 0) OBJ File: ''
# www.blender.org
mtllib CityEngineMaterial_500.mtl
o CityEngineMaterial_500
v -1050.128540 10.726058 260.324799
v -1059.420288 10.726058 259.105194
v -1059.420288 11.739058 259.105194
v -1050.128540 11.739058 260.324799
v -1060.104126 10.726057 264.322998
v -1060.104126 11.739058 264.322998
v -1055.878174 10.726057 264.877808
v -1055.878174 11.739058 264.877808
v -1056.936523 10.726055 272.969910
v -1056.936523 11.739056 272.969910
v -1061.190430 10.726055 272.612000
v -1061.190430 11.739056 272.612000
v -1062.027710 10.726054 279.000610
v -1062.027710 11.739055 279.000610
v -1052.674194 10.726054 279.787689
v -1052.674194 11.739055 279.787689
v -1059.762207 12.734557 261.714111
v -1061.609009 12.956656 275.806305
v 139.908600 39.687778 -1104.385864
v 136.593903 39.687778 -1104.216919
v 136.593903 40.323181 -1104.216919
v 139.908600 40.323181 -1104.385864
v 136.160797 39.687782 -1112.748657
v 136.160797 40.323284 -1112.748657
v 128.802200 39.687782 -1112.406128
v 128.802200 40.323284 -1112.406128
v 129.496902 39.687778 -1098.716797
v 129.496902 40.323181 -1098.716797
v 140.150604 39.687778 -1099.259766
v 140.150604 40.323181 -1099.259766
v 132.481506 41.396584 -1112.577393
v 140.029602 41.070980 -1101.822754
v -747.997620 9.813313 535.266602
v -748.755310 9.813312 544.483704
v -748.755310 11.611712 544.483704
v -747.997620 11.611713 535.266602
v -753.232605 9.813312 544.137878
v -753.232605 11.611712 544.137878
v -753.704407 9.813311 549.877319
v -753.704407 11.611711 549.877319
v -744.099182 9.813311 550.619019
v -744.099182 11.611711 550.619019
v -742.869995 9.813313 535.665894
v -742.869995 11.611712 535.665894
v 908.164185 111.519547 -290.975464
v 909.715576 111.519547 -281.325256
v 909.715576 112.248444 -281.325256
v 908.164185 112.248444 -290.975464
v 913.656616 111.519547 -281.097656
v 913.656616 112.248444 -281.097656
v 913.112671 111.519547 -284.480469
v 913.112671 112.248444 -284.480469
v 916.409790 111.519547 -284.291962
v 916.409790 112.248444 -284.291962
v 916.930420 111.519547 -280.908569
v 916.930420 112.248444 -280.908569
v 919.674927 111.519547 -280.749969
v 919.674927 112.248444 -280.749969
v 918.189697 111.519547 -290.402374
v 918.189697 112.248444 -290.402374
v -994.470703 8.442568 196.425201
v -995.291626 8.442569 191.741196
v -995.291626 9.078468 191.741196
v -994.470703 9.078467 196.425201
v -997.912415 8.442569 192.200394
v -997.912415 9.078468 192.200394
v -996.221985 8.442568 201.845398
v -996.221985 9.078467 201.845398
v -988.037109 8.442568 200.410995
v -988.037109 9.078467 200.410995
v -988.914429 8.442569 195.451401
v -988.914429 9.078468 195.451401
v -996.601990 9.644869 191.970795
v -988.475586 10.150667 197.931198
v -27.155300 35.015404 -1249.031128
v -17.518499 35.015404 -1250.242554
v -17.518499 37.121403 -1250.242554
v -27.155300 37.121403 -1249.031128
v -23.365101 35.015408 -1256.969360
v -23.365101 37.121407 -1256.969360
v -29.453300 35.015404 -1251.674927
v -29.453300 37.121403 -1251.674927
v -20.712099 38.990807 -1253.917114
v -28.410601 37.856102 -1250.475220
v 1023.283630 120.306946 -290.286377
v 1031.347778 120.306946 -291.522766
v 1031.347778 120.972748 -291.522766
v 1023.283630 120.972748 -290.286377
v 1029.953491 120.306946 -300.587982
v 1029.953491 120.972748 -300.587982
v 1027.512207 120.306946 -300.213684
v 1027.512207 120.972748 -300.213684
v 1028.109741 120.306946 -296.328461
v 1028.109741 120.972748 -296.328461
v 1024.575195 120.306946 -295.786560
v 1024.575195 120.972748 -295.786560
v 1023.974609 120.306946 -299.671356
v 1023.974609 120.972748 -299.671356
v 1021.882324 120.306946 -299.350555
v 1021.882324 120.972748 -299.350555
v 571.624512 20.407581 731.349121
v 566.299072 20.407583 719.616394
v 566.299072 22.328184 719.616394
v 571.624512 22.328182 731.349121
v 555.324585 20.407581 722.775024
v 555.324585 22.328182 722.775024
v 557.682373 20.407581 727.971497
v 557.682373 22.328182 727.971497
v 561.474426 20.407581 726.880127
v 561.474426 22.328182 726.880127
v 562.468323 20.407581 729.069824
v 562.468323 22.328182 729.069824
v 558.552917 20.407581 729.890320
v 558.552917 22.328182 729.890320
v 560.292175 20.407579 733.723877
v 560.292175 22.328180 733.723877
v 947.251099 103.563530 -167.170883
v 950.654724 103.563522 -158.065186
v 950.654724 105.401222 -158.065186
v 947.251099 105.401230 -167.170883
v 960.757019 103.563522 -161.806183
v 960.757019 105.401222 -161.806183
v 959.963806 103.563530 -163.912888
v 959.963806 105.401230 -163.912888
v 954.034485 103.563522 -161.717285
v 954.034485 105.401222 -161.717285
v 952.510010 103.563530 -165.796082
v 952.510010 105.401230 -165.796082
v 958.429688 103.563530 -167.986786
v 958.429688 105.401230 -167.986786
v 957.332214 103.563530 -170.901581
v 957.332214 105.401230 -170.901581
v 960.360413 105.711426 -162.859482
v 957.880920 105.830528 -169.444183
v -821.040100 15.525046 943.371887
v -823.694397 15.525046 942.659180
v -823.694397 17.584145 942.659180
v -821.040100 17.584145 943.371887
v -822.404114 15.525047 937.842224
v -822.404114 17.584146 937.842224
v -818.809387 15.525047 938.621826
v -818.809387 17.584146 938.621826
v -817.709290 15.525047 934.509827
v -817.709290 17.584146 934.509827
v -828.229980 15.525048 932.227783
v -828.229980 17.584146 932.227783
v -832.083679 15.525045 946.615173
v -832.083679 17.584145 946.615173
v -824.300415 15.525045 948.705078
v -824.300415 17.584145 948.705078
v -56.953201 39.298969 -1027.441406
v -56.113800 39.298969 -1022.117126
v -56.113800 41.192966 -1022.117126
v -56.953201 41.192966 -1027.441406
v -52.705299 39.298969 -1022.653625
v -52.705299 41.192966 -1022.653625
v -50.581001 39.298965 -1014.773376
v -50.581001 41.192963 -1014.773376
v -54.850601 39.298965 -1014.104675
v -54.850601 41.192963 -1014.104675
v -54.229801 39.298965 -1010.166687
v -54.229801 41.192963 -1010.166687
v -43.461700 39.298965 -1011.853027
v -43.461700 41.192963 -1011.853027
v -48.042000 39.298969 -1028.844360
v -48.042000 41.192966 -1028.844360
v -642.952271 25.299942 -871.893311
v -650.418701 25.299942 -869.625610
v -650.418701 27.145142 -869.625610
v -642.952271 27.145142 -871.893311
v -648.649414 25.299942 -863.816895
v -648.649414 27.145142 -863.816895
v -645.856812 25.299942 -864.664978
v -645.856812 27.145142 -864.664978
v -642.988525 25.299839 -852.142517
v -642.988525 27.145140 -852.142517
v -638.732300 25.299839 -853.435730
v -638.732300 27.145140 -853.435730
v -640.136475 25.299839 -859.549072
v -640.136475 27.145140 -859.549072
v -641.752930 25.299942 -866.627014
v -641.752930 27.145142 -866.627014
vt 0.0000 0.0000
vt 9.0000 0.0000
vt 9.0000 1.0000
vt 0.0000 1.0000
vt 0.0000 0.0000
vt 5.0000 0.0000
vt 5.0000 1.0000
vt 0.0000 1.0000
vt 0.0000 0.0000
vt 4.0000 -0.0000
vt 4.0000 1.0000
vt 0.0000 1.0000
vt 0.0000 0.0000
vt 8.0000 0.0000
vt 8.0000 1.0000
vt 0.0000 1.0000
vt 0.0000 0.0000
vt 4.0000 -0.0000
vt 4.0000 1.0000
vt 0.0000 1.0000
vt 0.0000 0.0000
vt 6.0000 0.0000
vt 6.0000 1.0000
vt 0.0000 1.0000
vt 0.0000 0.0000
vt 9.0000 0.0000
vt 9.0000 1.0000
vt 0.0000 1.0000
vt 0.0000 0.0000
vt 18.0000 0.0000
vt 18.0000 1.0000
vt 0.0000 1.0000
vt 0.0000 0.0000
vt 5.0000 0.0000
vt 2.5000 1.0000
vt 0.0000 0.0000
vt 6.0000 0.0000
vt 3.0000 1.0000
vt -0.0000 0.9000
vt 2.0000 0.9000
vt 2.0000 1.0000
vt 0.0000 1.0000
vt -0.0000 0.9000
vt 6.0000 0.9000
vt 6.0000 1.0000
vt 0.0000 1.0000
vt -0.0000 0.9000
vt 6.0000 0.9000
vt 6.0000 1.0000
vt 0.0000 1.0000
vt -0.0000 0.9000
vt 10.0000 0.9000
vt 10.0000 1.0000
vt 0.0000 1.0000
vt -0.0000 0.9000
vt 8.0000 0.9000
vt 8.0000 1.0000
vt 0.0000 1.0000
vt -0.0000 0.9000
vt 4.0000 0.9000
vt 4.0000 1.0000
vt 0.0000 1.0000
vt 0.0000 0.0000
vt 6.0000 0.0000
vt 3.0000 1.0000
vt -0.0000 0.9000
vt 4.0000 0.9000
vt 2.0000 1.0000
vt 0.0000 -1.0000
vt 8.0000 -1.0000
vt 8.0000 1.0000
vt 0.0000 1.0000
vt 0.0000 -1.0000
vt 4.0000 -1.0000
vt 4.0000 1.0000
vt 0.0000 1.0000
vt 0.0000 -1.0000
vt 5.0000 -1.0000
vt 5.0000 1.0000
vt 0.0000 1.0000
vt 0.0000 -1.0000
vt 8.0000 -1.0000
vt 8.0000 1.0000
vt 0.0000 1.0000
vt 0.0000 -1.0000
vt 13.0000 -1.0000
vt 13.0000 1.0000
vt 0.0000 1.0000
vt 0.0000 -1.0000
vt 4.0000 -1.0000
vt 4.0000 1.0000
vt 0.0000 1.0000
vt -0.0000 0.9000
vt 8.0000 0.9000
vt 8.0000 1.0000
vt 0.0000 1.0000
vt -0.0000 0.9000
vt 3.0000 0.9000
vt 3.0000 1.0000
vt 0.0000 1.0000
vt -0.0000 0.9000
vt 3.0000 0.9000
vt 3.0000 1.0000
vt 0.0000 1.0000
vt -0.0000 0.9000
vt 3.0000 0.9000
vt 3.0000 1.0000
vt 0.0000 1.0000
vt -0.0000 0.9000
vt 3.0000 0.9000
vt 3.0000 1.0000
vt 0.0000 1.0000
vt -0.0000 0.9000
vt 2.0000 0.9000
vt 2.0000 1.0000
vt 0.0000 1.0000
vt -0.0000 0.9000
vt 8.0000 0.9000
vt 8.0000 1.0000
vt 0.0000 1.0000
vt -0.0000 0.9000
vt 9.0000 0.9000
vt 9.0000 1.0000
vt 0.0000 1.0000
vt -0.0000 0.9000
vt 4.0000 0.9000
vt 4.0000 1.0000
vt 0.0000 1.0000
vt -0.0000 0.9000
vt 2.0000 0.9000
vt 2.0000 1.0000
vt 0.0000 1.0000
vt -0.0000 0.9000
vt 8.0000 0.9000
vt 8.0000 1.0000
vt 0.0000 1.0000
vt -0.0000 0.9000
vt 7.0000 0.9000
vt 7.0000 1.0000
vt 0.0000 1.0000
vt -0.0000 0.9000
vt 4.0000 0.9000
vt 4.0000 1.0000
vt 0.0000 1.0000
vt -0.0000 0.9000
vt 4.0000 0.9000
vt 4.0000 1.0000
vt 0.0000 1.0000
vt -0.0000 0.9000
vt 2.0000 0.9000
vt 1.0000 1.0000
vt 0.0000 0.0000
vt 4.0000 -0.0000
vt 2.0000 1.0000
vt 0.0000 -1.0000
vt 9.0000 -1.0000
vt 9.0000 1.0000
vt 0.0000 1.0000
vt 0.0000 -1.0000
vt 8.0000 -1.0000
vt 8.0000 1.0000
vt 0.0000 1.0000
vt 0.0000 -1.0000
vt 7.0000 -1.0000
vt 7.0000 1.0000
vt 0.0000 1.0000
vt 0.0000 -1.0000
vt 3.0000 -1.0000
vt 3.0000 1.0000
vt 0.0000 1.0000
vt 0.0000 -1.0000
vt 8.0000 -1.0000
vt 4.3699 1.0000
vt -0.0000 0.9000
vt 3.0000 0.9000
vt 1.3613 1.0000
vt -0.0000 0.9000
vt 7.0000 0.9000
vt 7.0000 1.0000
vt 0.0000 1.0000
vt -0.0000 0.9000
vt 8.0000 0.9000
vt 8.0000 1.0000
vt 0.0000 1.0000
vt -0.0000 0.9000
vt 2.0000 0.9000
vt 2.0000 1.0000
vt 0.0000 1.0000
vt -0.0000 0.9000
vt 3.0000 0.9000
vt 3.0000 1.0000
vt 0.0000 1.0000
vt -0.0000 0.9000
vt 3.0000 0.9000
vt 3.0000 1.0000
vt 0.0000 1.0000
vt -0.0000 0.9000
vt 3.0000 0.9000
vt 3.0000 1.0000
vt 0.0000 1.0000
vt -0.0000 0.9000
vt 2.0000 0.9000
vt 2.0000 1.0000
vt 0.0000 1.0000
vt -0.0000 0.9000
vt 8.0000 0.9000
vt 8.0000 1.0000
vt 0.0000 1.0000
vt 0.0000 -1.0000
vt 10.0000 -1.0000
vt 10.0000 1.0000
vt 0.0000 1.0000
vt 0.0000 -1.0000
vt 9.0000 -1.0000
vt 9.0000 1.0000
vt 0.0000 1.0000
vt 0.0000 -1.0000
vt 4.0000 -1.0000
vt 4.0000 1.0000
vt 0.0000 1.0000
vt 0.0000 -1.0000
vt 3.0000 -1.0000
vt 3.0000 1.0000
vt 0.0000 1.0000
vt 0.0000 -1.0000
vt 2.0000 -1.0000
vt 2.0000 1.0000
vt 0.0000 1.0000
vt 0.0000 -1.0000
vt 3.0000 -1.0000
vt 3.0000 1.0000
vt 0.0000 1.0000
vt 0.0000 -1.0000
vt 3.0000 -1.0000
vt 3.0000 1.0000
vt 0.0000 1.0000
vt 0.0000 -1.0000
vt 9.0000 -1.0000
vt 9.0000 1.0000
vt 0.0000 1.0000
vt 0.0000 -1.0000
vt 7.0000 -1.0000
vt 7.0000 1.0000
vt 0.0000 1.0000
vt 0.0000 -1.0000
vt 8.0000 -1.0000
vt 8.0000 1.0000
vt 0.0000 1.0000
vt 0.0000 -1.0000
vt 2.0000 -1.0000
vt 2.0000 1.0000
vt 0.0000 1.0000
vt 0.0000 -1.0000
vt 5.0000 -1.0000
vt 5.0000 1.0000
vt 0.0000 1.0000
vt 0.0000 -1.0000
vt 3.0000 -1.0000
vt 3.0000 1.0000
vt 0.0000 1.0000
vt 0.0000 -1.0000
vt 5.0000 -1.0000
vt 5.0000 1.0000
vt 0.0000 1.0000
vt 0.0000 -1.0000
vt 2.0000 -1.0000
vt 2.0000 1.0000
vt 0.0000 1.0000
vt 0.0000 -1.0000
vt 8.0000 -1.0000
vt 8.0000 1.0000
vt 0.0000 1.0000
vt -0.0000 0.9000
vt 2.0000 0.9000
vt 1.0000 1.0000
vt -0.0000 0.9000
vt 2.0000 0.9000
vt 1.0000 1.0000
vt 0.0000 -1.0000
vt 2.0000 -1.0000
vt 2.0000 1.0000
vt 0.0000 1.0000
vt 0.0000 -1.0000
vt 4.0000 -1.0000
vt 4.0000 1.0000
vt 0.0000 1.0000
vt 0.0000 -1.0000
vt 3.0000 -1.0000
vt 3.0000 1.0000
vt 0.0000 1.0000
vt 0.0000 -1.0000
vt 3.0000 -1.0000
vt 3.0000 1.0000
vt 0.0000 1.0000
vt 0.0000 -1.0000
vt 8.0000 -1.0000
vt 8.0000 1.0000
vt 0.0000 1.0000
vt 0.0000 -1.0000
vt 11.0000 -1.0000
vt 11.0000 1.0000
vt 0.0000 1.0000
vt 0.0000 -1.0000
vt 6.0000 -1.0000
vt 6.0000 1.0000
vt 0.0000 1.0000
vt 0.0000 -1.0000
vt 5.0000 -1.0000
vt 5.0000 1.0000
vt 0.0000 1.0000
vt 0.0000 -1.0000
vt 5.0000 -1.0000
vt 5.0000 1.0000
vt 0.0000 1.0000
vt 0.0000 -1.0000
vt 3.0000 -1.0000
vt 3.0000 1.0000
vt 0.0000 1.0000
vt 0.0000 -1.0000
vt 7.0000 -1.0000
vt 7.0000 1.0000
vt 0.0000 1.0000
vt 0.0000 -1.0000
vt 4.0000 -1.0000
vt 4.0000 1.0000
vt 0.0000 1.0000
vt 0.0000 -1.0000
vt 3.0000 -1.0000
vt 3.0000 1.0000
vt 0.0000 1.0000
vt 0.0000 -1.0000
vt 9.0000 -1.0000
vt 9.0000 1.0000
vt 0.0000 1.0000
vt 0.0000 -1.0000
vt 15.0000 -1.0000
vt 15.0000 1.0000
vt 0.0000 1.0000
vt 0.0000 -1.0000
vt 8.0000 -1.0000
vt 8.0000 1.0000
vt 0.0000 1.0000
vt 0.0000 0.0000
vt 7.0000 0.0000
vt 7.0000 1.0000
vt 0.0000 1.0000
vt 0.0000 0.0000
vt 5.0000 0.0000
vt 5.0000 1.0000
vt 0.0000 1.0000
vt 0.0000 0.0000
vt 3.0000 0.0000
vt 3.0000 1.0000
vt 0.0000 1.0000
vt 0.0000 0.0000
vt 11.0000 -0.0000
vt 11.0000 1.0000
vt 0.0000 1.0000
vt 0.0000 0.0000
vt 4.0000 -0.0000
vt 4.0000 1.0000
vt 0.0000 1.0000
vt 0.0000 0.0000
vt 6.0000 0.0000
vt 6.0000 1.0000
vt 0.0000 1.0000
vt 0.0000 0.0000
vt 6.0000 0.0000
vt 6.0000 1.0000
vt 0.0000 1.0000
vt 0.0000 0.0000
vt 5.0000 0.0000
vt 5.0000 1.0000
vt 0.0000 1.0000
vn 0.1301 0.0000 -0.9915
vn -0.9915 0.0000 -0.1299
vn -0.1302 0.0000 0.9915
vn -0.9916 0.0000 -0.1297
vn 0.0838 0.0000 -0.9965
vn -0.0839 0.0000 0.9965
vn 0.9916 0.0000 0.1297
vn -0.9915 0.0002 -0.1299
vn -0.0509 0.0000 -0.9987
vn 0.9987 0.0000 -0.0507
vn -0.0465 0.0000 -0.9989
vn -0.9987 0.0000 0.0507
vn 0.0509 0.0000 0.9987
vn 0.9989 0.0000 -0.0472
vn -0.9966 0.0000 -0.0819
vn 0.0770 0.0000 -0.9970
vn -0.0770 0.0000 0.9970
vn 0.9966 0.0000 0.0819
vn 0.0776 0.0000 -0.9970
vn -0.9873 0.0000 0.1587
vn -0.0577 0.0000 0.9983
vn 0.9873 0.0000 -0.1588
vn -0.0571 0.0000 0.9984
vn -0.9884 0.0000 0.1521
vn 0.9884 0.0000 -0.1521
vn 0.0571 0.0000 -0.9984
vn 0.9850 0.0000 -0.1726
vn -0.1726 0.0000 -0.9850
vn -0.9850 0.0000 0.1726
vn 0.1726 0.0000 0.9850
vn 0.9847 0.0000 -0.1742
vn 0.9847 -0.0003 -0.1742
vn 0.1247 0.0000 0.9922
vn 0.7548 0.0000 -0.6560
vn -0.6562 0.0000 -0.7546
vn -0.7547 0.0000 0.6560
vn 0.7548 -0.0001 -0.6560
vn -0.7547 -0.0001 0.6560
vn 0.1515 0.0000 0.9884
vn 0.9884 0.0000 -0.1520
vn -0.1515 0.0000 -0.9885
vn -0.9884 0.0000 0.1520
vn 0.9883 0.0000 -0.1528
vn -0.1516 0.0000 -0.9884
vn -0.9883 0.0000 0.1528
vn 0.9106 0.0000 -0.4133
vn -0.2766 0.0000 -0.9610
vn -0.9106 0.0000 0.4132
vn 0.2766 0.0000 0.9610
vn -0.9106 0.0000 0.4133
vn -0.2051 0.0000 -0.9787
vn -0.9107 0.0000 0.4132
vn 0.2051 0.0000 0.9787
vn -0.9367 0.0000 0.3501
vn 0.3473 0.0000 0.9378
vn 0.9359 0.0000 -0.3524
vn -0.3473 0.0000 -0.9378
vn 0.9367 0.0000 -0.3501
vn 0.3471 0.0000 0.9378
vn -0.3471 0.0000 -0.9378
vn 0.9359 0.0000 -0.3523
vn 0.9359 0.0002 -0.3524
vn 0.2593 0.0000 -0.9658
vn 0.9659 0.0000 0.2587
vn -0.2119 0.0000 0.9773
vn 0.9660 0.0000 0.2584
vn 0.2120 0.0000 -0.9773
vn -0.9659 0.0000 -0.2587
vn -0.2593 0.0000 0.9658
vn 0.8532 0.0000 0.5216
vn -0.9878 0.0000 0.1557
vn 0.1555 0.0000 0.9878
vn -0.9655 0.0000 0.2603
vn -0.1547 0.0000 -0.9880
vn 0.1547 0.0000 0.9880
vn 0.9655 0.0000 -0.2603
vn -0.1555 0.0000 -0.9878
vn -0.2906 0.0000 -0.9568
vn -0.9566 0.0000 0.2914
vn 0.2906 0.0000 0.9568
vn -0.9748 0.0000 0.2233
vn 0.2907 0.0000 0.9568
vn 0.9746 0.0000 -0.2239
vn 0.9748 0.0000 -0.2233
vn 0.9750 0.0000 -0.2224
vn 0.9750 0.0000 -0.2221
g CityEngineMaterial_500_CityEngineMaterial_500_CityEngineMaterial_500_mat
usemtl CityEngineMaterial_500_mat
s 1
f 1/1/1 2/2/1 3/3/1 4/4/1
f 2/5/2 5/6/2 6/7/2 3/8/2
f 5/9/3 7/10/3 8/11/3 6/12/3
f 7/13/4 9/14/4 10/15/4 8/16/4
f 9/17/5 11/18/5 12/19/5 10/20/5
f 11/21/2 13/22/2 14/23/2 12/24/2
f 13/25/6 15/26/6 16/27/6 14/28/6
f 15/29/7 1/30/7 4/31/7 16/32/7
f 3/33/2 6/34/2 17/35/2
f 12/36/8 14/37/8 18/38/8
f 19/39/9 20/40/9 21/41/9 22/42/9
f 20/43/10 23/44/10 24/45/10 21/46/10
f 23/47/11 25/48/11 26/49/11 24/50/11
f 25/51/12 27/52/12 28/53/12 26/54/12
f 27/55/13 29/56/13 30/57/13 28/58/13
f 29/59/14 19/60/14 22/61/14 30/62/14
f 24/63/11 26/64/11 31/65/11
f 30/66/14 22/67/14 32/68/14
f 33/69/15 34/70/15 35/71/15 36/72/15
f 34/73/16 37/74/16 38/75/16 35/76/16
f 37/77/15 39/78/15 40/79/15 38/80/15
f 39/81/17 41/82/17 42/83/17 40/84/17
f 41/85/18 43/86/18 44/87/18 42/88/18
f 43/89/19 33/90/19 36/91/19 44/92/19
f 45/93/20 46/94/20 47/95/20 48/96/20
f 46/97/21 49/98/21 50/99/21 47/100/21
f 49/101/22 51/102/22 52/103/22 50/104/22
f 51/105/23 53/106/23 54/107/23 52/108/23
f 53/109/24 55/110/24 56/111/24 54/112/24
f 55/113/21 57/114/21 58/115/21 56/116/21
f 57/117/25 59/118/25 60/119/25 58/120/25
f 59/121/26 45/122/26 48/123/26 60/124/26
f 61/125/27 62/126/27 63/127/27 64/128/27
f 62/129/28 65/130/28 66/131/28 63/132/28
f 65/133/29 67/134/29 68/135/29 66/136/29
f 67/137/30 69/138/30 70/139/30 68/140/30
f 69/141/31 71/142/31 72/143/31 70/144/31
f 71/145/28 61/146/28 64/147/28 72/148/28
f 63/149/28 66/150/28 73/151/28
f 70/152/32 72/153/32 74/154/32
f 75/155/33 76/156/33 77/157/33 78/158/33
f 76/159/34 79/160/34 80/161/34 77/162/34
f 79/163/35 81/164/35 82/165/35 80/166/35
f 81/167/36 75/168/36 78/169/36 82/170/36
f 77/171/37 80/172/37 83/173/37
f 82/174/38 78/175/38 84/176/38
f 85/177/39 86/178/39 87/179/39 88/180/39
f 86/181/40 89/182/40 90/183/40 87/184/40
f 89/185/41 91/186/41 92/187/41 90/188/41
f 91/189/42 93/190/42 94/191/42 92/192/42
f 93/193/41 95/194/41 96/195/41 94/196/41
f 95/197/43 97/198/43 98/199/43 96/200/43
f 97/201/44 99/202/44 100/203/44 98/204/44
f 99/205/45 85/206/45 88/207/45 100/208/45
f 101/209/46 102/210/46 103/211/46 104/212/46
f 102/213/47 105/214/47 106/215/47 103/216/47
f 105/217/48 107/218/48 108/219/48 106/220/48
f 107/221/49 109/222/49 110/223/49 108/224/49
f 109/225/50 111/226/50 112/227/50 110/228/50
f 111/229/51 113/230/51 114/231/51 112/232/51
f 113/233/52 115/234/52 116/235/52 114/236/52
f 115/237/53 101/238/53 104/239/53 116/240/53
f 117/241/54 118/242/54 119/243/54 120/244/54
f 118/245/55 121/246/55 122/247/55 119/248/55
f 121/249/56 123/250/56 124/251/56 122/252/56
f 123/253/57 125/254/57 126/255/57 124/256/57
f 125/257/58 127/258/58 128/259/58 126/260/58
f 127/261/59 129/262/59 130/263/59 128/264/59
f 129/265/56 131/266/56 132/267/56 130/268/56
f 131/269/60 117/270/60 120/271/60 132/272/60
f 122/273/61 124/274/61 133/275/61
f 130/276/62 132/277/62 134/278/62
f 135/279/63 136/280/63 137/281/63 138/282/63
f 136/283/64 139/284/64 140/285/64 137/286/64
f 139/287/65 141/288/65 142/289/65 140/290/65
f 141/291/66 143/292/66 144/293/66 142/294/66
f 143/295/67 145/296/67 146/297/67 144/298/67
f 145/299/68 147/300/68 148/301/68 146/302/68
f 147/303/69 149/304/69 150/305/69 148/306/69
f 149/307/70 135/308/70 138/309/70 150/310/70
f 151/311/71 152/312/71 153/313/71 154/314/71
f 152/315/72 155/316/72 156/317/72 153/318/72
f 155/319/73 157/320/73 158/321/73 156/322/73
f 157/323/74 159/324/74 160/325/74 158/326/74
f 159/327/71 161/328/71 162/329/71 160/330/71
f 161/331/75 163/332/75 164/333/75 162/334/75
f 163/335/76 165/336/76 166/337/76 164/338/76
f 165/339/77 151/340/77 154/341/77 166/342/77
f 167/343/78 168/344/78 169/345/78 170/346/78
f 168/347/79 171/348/79 172/349/79 169/350/79
f 171/351/80 173/352/80 174/353/80 172/354/80
f 173/355/81 175/356/81 176/357/81 174/358/81
f 175/359/82 177/360/82 178/361/82 176/362/82
f 177/363/83 179/364/84 180/365/84 178/366/83
f 179/367/84 181/368/85 182/369/85 180/370/84
f 181/371/85 167/372/86 170/373/86 182/374/85
