# Blender v2.78 (sub 0) OBJ File: ''
# www.blender.org
mtllib CityEngineMaterial_540.mtl
o CityEngineMaterial_540
v -970.133484 9.160636 390.166504
v -975.334412 9.160636 389.757111
v -975.334412 10.524837 389.757111
v -970.133484 10.524837 390.166504
v -975.717896 9.160635 398.707611
v -975.717896 10.524836 398.707611
v -957.063110 9.160635 400.175903
v -957.063110 10.524836 400.175903
v -956.369324 9.160636 391.249908
v -956.369324 10.524837 391.249908
v -962.597778 9.160636 390.759613
v -962.597778 10.524837 390.759613
v -962.945374 9.160635 395.230988
v -962.945374 10.524836 395.230988
v -970.325623 9.160636 394.650085
v -970.325623 10.524837 394.650085
v -88.983200 1.313722 475.293701
v -108.119698 1.313724 465.654999
v -108.119698 3.086924 465.654999
v -88.983200 3.086922 475.293701
v -110.096901 1.313723 472.964203
v -110.096901 3.086923 472.964203
v -107.601303 1.313722 481.076904
v -107.601303 3.086921 481.076904
v -89.013901 1.313722 475.354706
v -89.013901 3.086922 475.354706
v -319.618591 3.429739 375.745392
v -320.625702 3.429740 365.193115
v -320.625702 5.049941 365.193115
v -319.618591 5.049939 375.745392
v -336.508789 3.429740 366.718903
v -336.508789 5.049941 366.718903
v -335.759613 3.429739 374.573090
v -335.759613 5.049939 374.573090
v -331.171814 3.429739 374.132385
v -331.171814 5.049939 374.132385
v -330.915314 3.429739 376.819885
v -330.915314 5.049939 376.819885
v -166.503799 1.691967 814.565674
v -165.895203 1.691967 814.176025
v -165.895203 3.805367 814.176025
v -166.503799 3.805367 814.565674
v -167.132095 1.691968 812.243530
v -167.132095 3.805368 812.243530
v -175.893707 1.691967 817.852722
v -175.893707 3.805367 817.852722
v -169.682907 1.691966 823.424316
v -169.682907 3.805366 823.424316
v -162.797302 1.691967 819.016113
v -162.797302 3.805367 819.016113
v -164.488907 1.691967 816.373291
v -164.488907 3.805367 816.373291
v 297.566711 32.446095 27.464006
v 294.298706 32.446095 27.548506
v 294.298706 34.072598 27.548506
v 297.566711 34.072598 27.464006
v 294.635986 32.446091 38.551105
v 294.635986 34.072594 38.551105
v 305.154785 32.446091 38.256905
v 305.154785 34.072594 38.256905
v 304.817688 32.446095 27.276306
v 304.817688 34.072598 27.276306
v 300.880493 32.446095 27.378206
v 300.880493 34.072598 27.378206
v 300.921814 32.446095 28.722607
v 300.921814 34.072598 28.722607
v 297.608093 32.446095 28.815207
v 297.608093 34.072598 28.815207
v 123.855904 38.368362 -1018.495178
v 126.664703 38.368366 -1018.795715
v 126.664703 40.311966 -1018.795715
v 123.855904 40.311863 -1018.495178
v 126.372200 38.368366 -1021.529724
v 126.372200 40.311966 -1021.529724
v 129.010406 38.368366 -1021.760925
v 129.010406 40.311966 -1021.760925
v 128.491898 38.368366 -1030.825806
v 128.491898 40.311966 -1030.825806
v 122.592102 38.368366 -1030.308960
v 122.592102 40.311966 -1030.308960
v -1232.254639 12.255741 365.419708
v -1232.546021 12.255740 366.869598
v -1232.546021 14.023240 366.869598
v -1232.254639 14.023241 365.419708
v -1233.583618 12.255740 366.842102
v -1233.583618 14.023240 366.842102
v -1234.073486 12.255740 369.279114
v -1234.073486 14.023240 369.279114
v -1226.409790 12.255740 369.482513
v -1226.409790 14.023240 369.482513
v -1225.522705 12.255741 365.068115
v -1225.522705 14.023241 365.068115
v -1232.928101 12.255741 363.580414
v -1232.928101 14.023241 363.580414
v -1233.257324 12.255741 365.218292
v -1233.257324 14.023241 365.218292
v 65.660202 35.101086 -1153.056274
v 55.649300 35.101086 -1151.528320
v 55.649300 36.485687 -1151.528320
v 65.660202 36.485687 -1153.056274
v 55.859501 35.101086 -1147.903198
v 55.859501 36.485687 -1147.903198
v 61.834499 35.101086 -1148.815186
v 61.834499 36.485687 -1148.815186
v 62.213902 35.101086 -1142.265259
v 62.213902 36.485687 -1142.265259
v 66.248703 35.101086 -1142.898804
v 66.248703 36.485687 -1142.898804
v 404.421387 60.423351 -310.150208
v 406.376801 60.423351 -311.187286
v 406.376801 62.037750 -311.187286
v 404.421387 62.037750 -310.150208
v 406.732788 60.423351 -310.519897
v 406.732788 62.037750 -310.519897
v 409.972687 60.423351 -312.238403
v 409.972687 62.037750 -312.238403
v 404.999115 60.423355 -321.562988
v 404.999115 62.037754 -321.562988
v 396.936615 60.423355 -317.286804
v 396.936615 62.037754 -317.286804
v 401.781586 60.423351 -307.893707
v 401.781586 62.037750 -307.893707
v 404.768188 60.423351 -309.477905
v 404.768188 62.037750 -309.477905
v -393.200500 3.337352 293.845703
v -389.999390 3.337352 293.541290
v -389.999390 5.255652 293.541290
v -393.200500 5.255652 293.845703
v -389.790802 3.337352 295.732513
v -389.790802 5.255652 295.732513
v -382.633301 3.337352 295.052399
v -382.633301 5.255652 295.052399
v -383.673004 3.337354 284.132294
v -383.673004 5.255654 284.132294
v -394.643005 3.337353 285.175690
v -394.643005 5.255654 285.175690
v 222.977997 41.083462 -980.444275
v 216.817093 41.083462 -979.486877
v 216.817093 42.597462 -979.486877
v 222.977997 42.597462 -980.444275
v 217.068298 41.083462 -972.722473
v 217.068298 42.597462 -972.722473
v 213.082397 41.083462 -972.195374
v 213.082397 42.597462 -972.195374
v 213.248505 41.083355 -967.726624
v 213.248505 42.597458 -967.726624
v 223.400497 41.083355 -969.068970
v 223.400497 42.597458 -969.068970
v -428.416107 4.173739 374.032288
v -438.582703 4.173739 374.852905
v -438.582703 6.133839 374.852905
v -428.416107 6.133839 374.032288
v -437.687195 4.173737 386.026886
v -437.687195 6.133837 386.026886
v -428.428406 4.173737 385.290894
v -428.428406 6.133837 385.290894
v -428.657501 4.173738 382.433197
v -428.657501 6.133838 382.433197
v -427.748688 4.173738 382.359894
v -427.748688 6.133838 382.359894
v -502.387299 11.442235 1015.543579
v -491.795105 11.442235 1015.266907
v -491.795105 12.826135 1015.266907
v -502.387299 12.826135 1015.543579
v -492.164703 11.442237 1001.544983
v -492.164703 12.826137 1001.544983
v -502.779785 11.442237 1000.971130
v -502.779785 12.826137 1000.971130
v -502.652496 11.442236 1005.697693
v -502.652496 12.826136 1005.697693
v -498.758789 11.442236 1005.908325
v -498.758789 12.826136 1005.908325
v -498.658997 11.442236 1009.610474
v -498.658997 12.826136 1009.610474
v -502.544312 11.442236 1009.711975
v -502.544312 12.826136 1009.711975
v -502.343109 3.488655 276.790314
v -523.962708 3.488655 277.559692
v -523.962708 5.434655 277.559692
v -502.343109 5.434655 276.790314
v -523.530823 3.488653 290.250885
v -523.530823 5.434653 290.250885
v -502.539703 3.488653 289.520386
v -502.539703 5.434653 289.520386
vt 0.7143 0.0000
vt 0.9048 0.0000
vt 0.9048 1.0000
vt 0.7143 1.0000
vt 1.2857 0.0000
vt 1.2857 1.0000
vt 0.8571 0.0000
vt 1.6190 0.0000
vt 1.6190 1.0000
vt 0.8571 1.0000
vt 0.9048 0.0000
vt 1.2857 0.0000
vt 1.2857 1.0000
vt 0.9048 1.0000
vt 0.5714 0.0000
vt 0.8095 0.0000
vt 0.8095 1.0000
vt 0.5714 1.0000
vt 0.4762 0.0000
vt 0.6667 -0.0000
vt 0.6667 1.0000
vt 0.4762 1.0000
vt 0.4286 -0.0000
vt 0.7143 0.0000
vt 0.7143 1.0000
vt 0.4286 1.0000
vt 0.3810 0.0000
vt 0.5714 0.0000
vt 0.5714 1.0000
vt 0.3810 1.0000
vt 0.1429 0.0000
vt 0.9524 0.0000
vt 0.9524 1.0000
vt 0.1429 1.0000
vt 0.2381 0.0000
vt 0.5238 0.0000
vt 0.5238 1.0000
vt 0.2381 1.0000
vt 0.6190 0.0000
vt 0.9524 0.0000
vt 0.9524 1.0000
vt 0.6190 1.0000
vt 0.7619 -0.0000
vt 1.4762 -0.0000
vt 1.4762 1.0000
vt 0.7619 1.0000
vt 0.2857 0.0000
vt 0.2952 0.0000
vt 0.2952 1.0000
vt 0.2857 1.0000
vt 0.9048 0.0000
vt 1.2857 0.0000
vt 1.2857 1.0000
vt 0.9048 1.0000
vt 0.0000 0.0000
vt 0.5714 0.0000
vt 0.5714 1.0000
vt 0.0000 1.0000
vt 0.1905 0.0000
vt 0.4762 0.0000
vt 0.4762 1.0000
vt 0.1905 1.0000
vt 0.2381 0.0000
vt 0.3810 0.0000
vt 0.3810 1.0000
vt 0.2381 1.0000
vt 0.1429 0.0000
vt 0.2381 0.0000
vt 0.2381 1.0000
vt 0.1429 1.0000
vt 0.9524 0.0000
vt 1.3333 0.0000
vt 1.3333 1.0000
vt 0.9524 1.0000
vt 0.4762 0.0000
vt 0.5238 0.0000
vt 0.5238 1.0000
vt 0.4762 1.0000
vt 0.6667 -0.0000
vt 0.8095 0.0000
vt 0.8095 1.0000
vt 0.6667 1.0000
vt 0.0952 -0.0000
vt 0.6667 -0.0000
vt 0.6667 1.0000
vt 0.0952 1.0000
vt 0.0952 -0.0000
vt 0.5238 0.0000
vt 0.5238 1.0000
vt 0.0952 1.0000
vt 0.3333 0.0000
vt 0.7619 -0.0000
vt 0.7619 1.0000
vt 0.3333 1.0000
vt 0.4286 -0.0000
vt 0.6190 0.0000
vt 0.6190 1.0000
vt 0.4286 1.0000
vt 0.3810 0.0000
vt 0.5238 0.0000
vt 0.5238 1.0000
vt 0.3810 1.0000
vt 0.8095 0.0000
vt 1.0000 0.0000
vt 1.0000 1.0000
vt 0.8095 1.0000
vt 0.7143 0.0000
vt 1.2857 0.0000
vt 1.2857 1.0000
vt 0.7143 1.0000
vt 0.8095 0.0000
vt 1.3810 -0.0000
vt 1.3810 1.0000
vt 0.8095 1.0000
vt 0.7143 0.0000
vt 1.2857 0.0000
vt 1.2857 1.0000
vt 0.7143 1.0000
vt 0.3333 0.0000
vt 0.5238 0.0000
vt 0.5238 1.0000
vt 0.3333 1.0000
vt 0.5714 0.0000
vt 0.6190 0.0000
vt 0.6190 1.0000
vt 0.5714 1.0000
vt 0.4762 0.0000
vt 0.6667 -0.0000
vt 0.6667 1.0000
vt 0.4762 1.0000
vt 0.3810 0.0000
vt 0.4286 -0.0000
vt 0.4286 1.0000
vt 0.3810 1.0000
vt 0.4286 -0.0000
vt 0.5238 0.0000
vt 0.5238 1.0000
vt 0.4286 1.0000
vt 0.4762 0.0000
vt 0.5714 0.0000
vt 0.5714 1.0000
vt 0.4762 1.0000
vt 0.9048 0.0000
vt 1.0000 0.0000
vt 1.0000 1.0000
vt 0.9048 1.0000
vt 0.8095 0.0000
vt 1.1429 0.0000
vt 1.1429 1.0000
vt 0.8095 1.0000
vt 0.3333 0.0000
vt 0.5714 0.0000
vt 0.5714 1.0000
vt 0.3333 1.0000
vt 0.7619 -0.0000
vt 1.1905 0.0000
vt 1.1905 1.0000
vt 0.7619 1.0000
vt 0.8095 0.0000
vt 0.8571 0.0000
vt 0.8571 1.0000
vt 0.8095 1.0000
vt 0.8095 0.0000
vt 0.8571 0.0000
vt 0.8571 1.0000
vt 0.8095 1.0000
vt 0.3810 0.0000
vt 0.4762 0.0000
vt 0.4762 1.0000
vt 0.3810 1.0000
vt 0.2381 0.0000
vt 0.5238 0.0000
vt 0.5238 1.0000
vt 0.2381 1.0000
vt 0.2381 0.0000
vt 0.3810 0.0000
vt 0.3810 1.0000
vt 0.2381 1.0000
vt 0.4286 -0.0000
vt 0.7143 0.0000
vt 0.7143 1.0000
vt 0.4286 1.0000
vt 0.0476 0.0000
vt 0.0952 -0.0000
vt 0.0952 1.0000
vt 0.0476 1.0000
vt 0.3810 0.0000
vt 0.4286 -0.0000
vt 0.4286 1.0000
vt 0.3810 1.0000
vt 0.0952 -0.0000
vt 0.5238 0.0000
vt 0.5238 1.0000
vt 0.0952 1.0000
vt 0.8095 0.0000
vt 0.9524 0.0000
vt 0.9524 1.0000
vt 0.8095 1.0000
vt 0.6190 0.0000
vt 0.9048 0.0000
vt 0.9048 1.0000
vt 0.6190 1.0000
vt 0.8095 0.0000
vt 1.0952 0.0000
vt 1.0952 1.0000
vt 0.8095 1.0000
vt 0.9048 0.0000
vt 1.0952 0.0000
vt 1.0952 1.0000
vt 0.9048 1.0000
vt 0.6190 0.0000
vt 1.0952 0.0000
vt 1.0952 1.0000
vt 0.6190 1.0000
vt 0.8571 0.0000
vt 0.9524 0.0000
vt 0.9524 1.0000
vt 0.8571 1.0000
vt 0.4762 0.0000
vt 0.5238 0.0000
vt 0.5238 1.0000
vt 0.4762 1.0000
vt 0.2381 0.0000
vt 0.4286 -0.0000
vt 0.4286 1.0000
vt 0.2381 1.0000
vt 0.2381 0.0000
vt 0.8095 0.0000
vt 0.8095 1.0000
vt 0.2381 1.0000
vt 0.9048 0.0000
vt 1.3810 -0.0000
vt 1.3810 1.0000
vt 0.9048 1.0000
vt 0.7143 0.0000
vt 1.2857 0.0000
vt 1.2857 1.0000
vt 0.7143 1.0000
vt 0.3333 0.0000
vt 0.5238 0.0000
vt 0.5238 1.0000
vt 0.3333 1.0000
vt 0.5714 0.0000
vt 0.5714 1.0000
vt 0.1905 0.0000
vt 0.3333 0.0000
vt 0.3333 1.0000
vt 0.1905 1.0000
vt 0.4762 0.0000
vt 0.5714 0.0000
vt 0.5714 1.0000
vt 0.4762 1.0000
vt 0.6667 -0.0000
vt 1.0000 0.0000
vt 1.0000 1.0000
vt 0.6667 1.0000
vt 0.2857 0.0000
vt 0.8095 0.0000
vt 0.8095 1.0000
vt 0.2857 1.0000
vt 0.1905 0.0000
vt 0.7143 0.0000
vt 0.7143 1.0000
vt 0.1905 1.0000
vt 0.3333 0.0000
vt 0.7619 -0.0000
vt 0.7619 1.0000
vt 0.3333 1.0000
vt 0.6667 -0.0000
vt 0.9524 0.0000
vt 0.9524 1.0000
vt 0.6667 1.0000
vt 0.7619 -0.0000
vt 1.0476 0.0000
vt 1.0476 1.0000
vt 0.7619 1.0000
vt 0.8095 0.0000
vt 1.0000 0.0000
vt 1.0000 1.0000
vt 0.8095 1.0000
vt 0.3810 0.0000
vt 0.5714 0.0000
vt 0.5714 1.0000
vt 0.3810 1.0000
vt 0.1905 0.0000
vt 0.6190 0.0000
vt 0.6190 1.0000
vt 0.1905 1.0000
vt 0.0476 0.0000
vt 0.5238 0.0000
vt 0.5238 1.0000
vt 0.0476 1.0000
vt 0.0476 0.0000
vt 0.5714 0.0000
vt 0.5714 1.0000
vt 0.0476 1.0000
vt 0.3810 0.0000
vt 0.9524 0.0000
vt 0.9524 1.0000
vt 0.3810 1.0000
vt 0.5238 0.0000
vt 1.0000 0.0000
vt 1.0000 1.0000
vt 0.5238 1.0000
vt 0.2381 0.0000
vt 0.3810 0.0000
vt 0.3810 1.0000
vt 0.2381 1.0000
vt 0.4762 0.0000
vt 0.5238 0.0000
vt 0.5238 1.0000
vt 0.4762 1.0000
vt 0.3810 0.0000
vt 0.8095 0.0000
vt 0.8095 1.0000
vt 0.3810 1.0000
vt 0.5714 0.0000
vt 0.9524 0.0000
vt 0.9524 1.0000
vt 0.5714 1.0000
vt 0.8095 0.0000
vt 1.2857 0.0000
vt 1.2857 1.0000
vt 0.8095 1.0000
vt 0.2857 0.0000
vt 0.6667 -0.0000
vt 0.6667 1.0000
vt 0.2857 1.0000
vt 0.0476 0.0000
vt 0.1905 0.0000
vt 0.1905 1.0000
vt 0.0476 1.0000
vt 0.2381 0.0000
vt 0.3810 0.0000
vt 0.3810 1.0000
vt 0.2381 1.0000
vt 0.2857 0.0000
vt 0.4286 -0.0000
vt 0.4286 1.0000
vt 0.2857 1.0000
vt 0.5714 0.0000
vt 0.7143 0.0000
vt 0.7143 1.0000
vt 0.5714 1.0000
vt 0.8095 0.0000
vt 1.0000 0.0000
vt 1.0000 1.0000
vt 0.8095 1.0000
vt 0.8095 0.0000
vt 1.6190 0.0000
vt 1.6190 1.0000
vt 0.8095 1.0000
vt 0.8571 0.0000
vt 1.3333 0.0000
vt 1.3333 1.0000
vt 0.8571 1.0000
vt 0.4762 0.0000
vt 1.2381 -0.0000
vt 1.2381 1.0000
vt 0.4762 1.0000
vt 0.6190 0.0000
vt 1.0952 0.0000
vt 1.0952 1.0000
vt 0.6190 1.0000
vn 0.0785 0.0000 -0.9969
vn -0.9991 0.0000 -0.0428
vn -0.0785 0.0000 0.9969
vn 0.9970 0.0000 0.0775
vn -0.9970 0.0000 -0.0775
vn 0.9991 0.0000 0.0428
vn 0.4498 0.0000 -0.8931
vn -0.9653 0.0000 -0.2611
vn -0.9558 0.0000 0.2940
vn 0.2942 0.0000 0.9557
vn 0.8934 0.0000 0.4492
vn 0.9955 0.0000 -0.0950
vn -0.0956 0.0000 -0.9954
vn -0.9955 0.0000 0.0950
vn 0.0956 0.0000 0.9954
vn 0.0947 0.0000 0.9955
vn 0.5393 0.0000 0.8421
vn 0.8422 0.0000 -0.5391
vn -0.5392 0.0000 -0.8422
vn -0.6678 0.0000 0.7444
vn 0.5392 0.0000 0.8422
vn 0.8423 0.0000 -0.5391
vn 0.6678 0.0000 -0.7444
vn -0.0258 0.0000 -0.9997
vn -0.9995 0.0000 0.0306
vn 0.0280 0.0000 0.9996
vn 0.9995 0.0000 -0.0307
vn -0.0259 0.0000 -0.9997
vn -0.9995 0.0000 0.0307
vn -0.0279 0.0000 -0.9996
vn 0.9995 0.0000 -0.0306
vn 0.1064 0.0000 0.9943
vn 0.9943 0.0000 -0.1064
vn 0.0873 0.0000 0.9962
vn 0.9984 0.0000 -0.0571
vn -0.0873 0.0000 -0.9962
vn -0.9943 0.0000 0.1064
vn -0.9804 0.0000 -0.1970
vn 0.0265 0.0000 -0.9996
vn -0.9804 0.0000 -0.1971
vn -0.0265 0.0000 0.9996
vn 0.9804 0.0000 0.1970
vn 0.1970 0.0000 -0.9804
vn -0.1970 0.0000 0.9804
vn -0.1509 0.0000 -0.9886
vn -0.9983 0.0000 0.0579
vn 0.1509 0.0000 0.9885
vn -0.9983 0.0000 0.0578
vn 0.1551 0.0000 0.9879
vn 0.9983 0.0000 -0.0578
vn 0.4685 0.0000 0.8834
vn -0.8823 0.0000 0.4706
vn 0.4686 0.0000 0.8834
vn 0.8823 0.0000 -0.4706
vn -0.4686 0.0000 -0.8834
vn -0.8887 0.0000 0.4584
vn 0.8887 0.0000 -0.4584
vn -0.9955 0.0000 0.0948
vn 0.0946 0.0000 0.9955
vn 0.9955 0.0000 -0.0948
vn -0.0947 0.0000 -0.9955
vn -0.9864 0.0000 0.1641
vn -0.1536 0.0000 -0.9881
vn -0.9993 0.0000 0.0371
vn -0.1311 0.0000 -0.9914
vn 0.1311 0.0000 0.9914
vn 0.9993 0.0000 -0.0371
vn -0.0805 0.0000 -0.9968
vn -0.9968 0.0000 0.0799
vn 0.0792 0.0000 0.9969
vn 0.9968 0.0000 -0.0799
vn 0.0804 0.0000 0.9968
vn 0.0261 0.0000 0.9997
vn 0.9996 0.0000 -0.0269
vn 0.0540 0.0000 -0.9985
vn -0.9996 0.0000 0.0269
vn -0.0540 0.0000 0.9985
vn -0.0261 0.0000 -0.9997
vn -0.0356 0.0000 -0.9994
vn -0.9994 0.0000 0.0340
vn 0.0348 0.0000 0.9994
vn 0.9999 0.0000 0.0154
g CityEngineMaterial_540_CityEngineMaterial_540_CityEngineMaterial_540_mat
usemtl CityEngineMaterial_540_mat
s 1
f 1/1/1 2/2/1 3/3/1 4/4/1
f 2/2/2 5/5/2 6/6/2 3/3/2
f 5/7/3 7/8/3 8/9/3 6/10/3
f 7/11/4 9/12/4 10/13/4 8/14/4
f 9/15/1 11/16/1 12/17/1 10/18/1
f 11/19/5 13/20/5 14/21/5 12/22/5
f 13/23/1 15/24/1 16/25/1 14/26/1
f 15/27/6 1/28/6 4/29/6 16/30/6
f 17/31/7 18/32/7 19/33/7 20/34/7
f 18/35/8 21/36/8 22/37/8 19/38/8
f 21/39/9 23/40/9 24/41/9 22/42/9
f 23/43/10 25/44/10 26/45/10 24/46/10
f 25/47/11 17/48/11 20/49/11 26/50/11
f 27/51/12 28/52/12 29/53/12 30/54/12
f 28/55/13 31/56/13 32/57/13 29/58/13
f 31/59/14 33/60/14 34/61/14 32/62/14
f 33/63/15 35/64/15 36/65/15 34/66/15
f 35/67/14 37/68/14 38/69/14 36/70/14
f 37/71/16 27/72/16 30/73/16 38/74/16
f 39/75/17 40/76/17 41/77/17 42/78/17
f 40/79/18 43/80/18 44/81/18 41/82/18
f 43/83/19 45/84/19 46/85/19 44/86/19
f 45/87/20 47/88/20 48/89/20 46/90/20
f 47/91/21 49/92/21 50/93/21 48/94/21
f 49/95/22 51/96/22 52/97/22 50/98/22
f 51/99/23 39/100/23 42/101/23 52/102/23
f 53/103/24 54/104/24 55/105/24 56/106/24
f 54/107/25 57/108/25 58/109/25 55/110/25
f 57/111/26 59/112/26 60/113/26 58/114/26
f 59/115/27 61/116/27 62/117/27 60/118/27
f 61/119/28 63/120/28 64/121/28 62/122/28
f 63/123/29 65/124/29 66/125/29 64/126/29
f 65/127/30 67/128/30 68/129/30 66/130/30
f 67/131/31 53/132/31 56/133/31 68/134/31
f 69/135/32 70/136/32 71/137/32 72/138/32
f 70/139/33 73/140/33 74/141/33 71/142/33
f 73/143/34 75/144/34 76/145/34 74/146/34
f 75/147/35 77/148/35 78/149/35 76/150/35
f 77/151/36 79/152/36 80/153/36 78/154/36
f 79/155/37 69/156/37 72/157/37 80/158/37
f 81/159/38 82/160/38 83/161/38 84/162/38
f 82/163/39 85/164/39 86/165/39 83/166/39
f 85/167/40 87/168/40 88/169/40 86/170/40
f 87/171/41 89/172/41 90/173/41 88/174/41
f 89/175/42 91/176/42 92/177/42 90/178/42
f 91/179/43 93/180/43 94/181/43 92/182/43
f 93/183/40 95/184/40 96/185/40 94/186/40
f 95/187/44 81/188/44 84/189/44 96/190/44
f 97/191/45 98/192/45 99/193/45 100/194/45
f 98/195/46 101/196/46 102/197/46 99/198/46
f 101/199/47 103/200/47 104/201/47 102/202/47
f 103/203/48 105/204/48 106/205/48 104/206/48
f 105/207/49 107/208/49 108/209/49 106/210/49
f 107/211/50 97/212/50 100/213/50 108/214/50
f 109/215/51 110/216/51 111/217/51 112/218/51
f 110/219/52 113/220/52 114/221/52 111/222/52
f 113/223/53 115/224/53 116/225/53 114/226/53
f 115/227/54 117/228/54 118/229/54 116/230/54
f 117/231/55 119/232/55 120/233/55 118/234/55
f 119/235/56 121/236/56 122/237/56 120/238/56
f 121/239/53 123/240/53 124/241/53 122/242/53
f 123/240/57 109/243/57 112/244/57 124/241/57
f 125/245/16 126/246/16 127/247/16 128/248/16
f 126/249/58 129/250/58 130/251/58 127/252/58
f 129/253/59 131/254/59 132/255/59 130/256/59
f 131/257/60 133/258/60 134/259/60 132/260/60
f 133/261/61 135/262/61 136/263/61 134/264/61
f 135/265/62 125/266/62 128/267/62 136/268/62
f 137/269/63 138/270/63 139/271/63 140/272/63
f 138/273/64 141/274/64 142/275/64 139/276/64
f 141/277/65 143/278/65 144/279/65 142/280/65
f 143/281/64 145/282/64 146/283/64 144/284/64
f 145/285/66 147/286/66 148/287/66 146/288/66
f 147/289/67 137/290/67 140/291/67 148/292/67
f 149/293/68 150/294/68 151/295/68 152/296/68
f 150/297/69 153/298/69 154/299/69 151/300/69
f 153/301/70 155/302/70 156/303/70 154/304/70
f 155/305/71 157/306/71 158/307/71 156/308/71
f 157/309/72 159/310/72 160/311/72 158/312/72
f 159/313/71 149/314/71 152/315/71 160/316/71
f 161/317/73 162/318/73 163/319/73 164/320/73
f 162/321/74 165/322/74 166/323/74 163/324/74
f 165/325/75 167/326/75 168/327/75 166/328/75
f 167/329/76 169/330/76 170/331/76 168/332/76
f 169/333/77 171/334/77 172/335/77 170/336/77
f 171/337/76 173/338/76 174/339/76 172/340/76
f 173/341/78 175/342/78 176/343/78 174/344/78
f 175/345/76 161/346/76 164/347/76 176/348/76
f 177/349/79 178/350/79 179/351/79 180/352/79
f 178/353/80 181/354/80 182/355/80 179/356/80
f 181/357/81 183/358/81 184/359/81 182/360/81
f 183/361/82 177/362/82 180/363/82 184/364/82
