# Blender v2.78 (sub 0) OBJ File: ''
# www.blender.org
mtllib CityEngineMaterial_104.mtl
o CityEngineMaterial_104
v -790.017273 7.423334 406.209015
v -801.379883 7.423334 405.310211
v -801.379883 8.924335 405.310211
v -790.017273 8.924335 406.209015
v -801.744080 7.423333 409.899902
v -801.744080 8.924334 409.899902
v -797.568726 7.423333 410.230194
v -797.568726 8.924334 410.230194
v -798.307983 7.423332 419.550293
v -798.307983 8.924332 419.550293
v -791.120117 7.423331 420.111786
v -791.120117 8.924332 420.111786
v -812.630310 10.028910 556.610474
v -808.448303 10.028910 556.847717
v -808.448303 11.529909 556.847717
v -812.630310 11.529909 556.610474
v -809.198303 10.028908 566.295715
v -809.198303 11.529907 566.295715
v -802.010803 10.028908 566.863281
v -802.010803 11.529907 566.863281
v -800.872620 10.028911 552.524414
v -800.872620 11.529910 552.524414
v -812.254578 10.028911 551.879028
v -812.254578 11.529910 551.879028
v 404.532013 25.822763 224.330704
v 421.025696 25.822763 217.378403
v 421.025696 27.957964 217.378403
v 404.532013 27.957964 224.330704
v 417.321686 25.822769 192.260498
v 417.321686 27.957970 192.260498
v 415.201385 25.822769 192.747604
v 415.201385 27.957970 192.747604
v 399.093597 25.822767 199.532303
v 399.093597 27.957968 199.532303
v -787.618591 9.201612 544.062500
v -779.390381 9.201612 544.709900
v -779.390381 10.749311 544.709900
v -787.618591 10.749311 544.062500
v -779.033325 9.201612 540.208679
v -779.033325 10.749312 540.208679
v -781.326721 9.201612 540.028198
v -781.326721 10.749312 540.028198
v -780.736877 9.201613 532.594788
v -780.736877 10.749313 532.594788
v -786.671997 9.201613 532.132629
v -786.671997 10.749313 532.132629
v -504.815186 2.871269 188.379593
v -529.478699 2.871269 189.263596
v -529.478699 5.084469 189.263596
v -504.815186 5.084469 188.379593
v -528.814270 2.871266 207.801300
v -528.814270 5.084466 207.801300
v -504.201508 2.871266 206.975006
v -504.201508 5.084466 206.975006
v 273.013489 53.853600 -597.995605
v 276.122986 53.853596 -578.242615
v 276.122986 55.875896 -578.242615
v 273.013489 55.875900 -597.995605
v 288.515808 53.853596 -580.204773
v 288.515808 55.875896 -580.204773
v 285.415985 53.853600 -599.938477
v 285.415985 55.875900 -599.938477
v 37.210499 8.461798 11.550201
v 46.894199 8.461798 10.832601
v 46.894199 10.058498 10.832602
v 37.210499 10.058498 11.550202
v 46.925301 8.461798 9.754801
v 46.925301 10.058498 9.754802
v 49.559898 8.461798 9.558501
v 49.559898 10.058498 9.558502
v 49.237301 8.461799 5.357502
v 49.237301 10.058499 5.357502
v 37.363499 8.461799 6.242402
v 37.363499 10.058499 6.242402
v 534.290283 20.631508 566.401428
v 533.232971 20.631508 561.359924
v 533.232971 22.423008 561.359924
v 534.290283 22.423008 566.401428
v 537.342529 20.631508 560.498718
v 537.342529 22.423008 560.498718
v 534.811279 20.631510 548.416382
v 534.811279 22.423010 548.416382
v 526.393677 20.631510 550.180481
v 526.393677 22.423010 550.180481
v 529.985107 20.631508 567.303772
v 529.985107 22.423008 567.303772
v -139.517395 1.308987 693.555481
v -139.867706 1.308988 685.958679
v -139.867706 3.031588 685.958679
v -139.517395 3.031587 693.555481
v -151.064697 1.308988 686.475098
v -151.064697 3.031588 686.475098
v -150.807007 1.308987 692.062683
v -150.807007 3.031587 692.062683
v -154.398102 1.308987 692.116272
v -154.398102 3.031587 692.116272
v -154.321503 1.308987 693.776611
v -154.321503 3.031587 693.776611
v 271.950409 52.245800 -611.175781
v 271.073792 52.245804 -626.312195
v 271.073792 54.330402 -626.312195
v 271.950409 54.330399 -611.175781
v 246.141998 52.245804 -624.790588
v 246.141998 54.330402 -624.790588
v 247.076706 52.245800 -609.634399
v 247.076706 54.330399 -609.634399
v -421.498901 1.313927 -166.247498
v -407.493195 1.313928 -171.225296
v -407.493195 3.314628 -171.225296
v -421.498901 3.314627 -166.247498
v -409.200500 1.313929 -176.531006
v -409.200500 3.314629 -176.531006
v -412.873413 1.313928 -175.225601
v -412.873413 3.314629 -175.225601
v -414.422302 1.313929 -180.039597
v -414.422302 3.314629 -180.039597
v -424.854889 1.313929 -176.678207
v -424.854889 3.314629 -176.678207
v -433.055389 4.401860 -365.968414
v -428.549713 4.401857 -351.124908
v -428.549713 6.231257 -351.124908
v -433.055389 6.231359 -365.968414
v -415.837494 4.401858 -354.677612
v -415.837494 6.231258 -354.677612
v -407.626312 4.401858 -357.170105
v -407.626312 6.231258 -357.170105
v -412.233185 4.401861 -372.319000
v -412.233185 6.231261 -372.319000
v 105.176697 29.600536 -223.605698
v 104.178299 29.600536 -223.506104
v 104.178299 31.706636 -223.506104
v 105.176697 31.706636 -223.605698
v 104.138298 29.600536 -220.719101
v 104.138298 31.706636 -220.719101
v 112.430801 29.600536 -221.545807
v 112.430801 31.706636 -221.545807
v 112.478798 29.600536 -227.867996
v 112.478798 31.706636 -227.867996
v 104.242897 29.600536 -228.005798
v 104.242897 31.706636 -228.005798
v 104.201103 29.600536 -225.095795
v 104.201103 31.706636 -225.095795
v 105.187897 29.600536 -225.079300
v 105.187897 31.706636 -225.079300
v 221.094406 38.268635 -222.030701
v 201.483200 38.268635 -218.934204
v 201.483200 40.319336 -218.934204
v 221.094406 40.319336 -222.030701
v 204.427399 38.268635 -201.730896
v 204.427399 40.319336 -201.730896
v 223.997406 38.268635 -204.851196
v 223.997406 40.319336 -204.851196
v -49.850201 37.336769 -1038.646362
v -51.423901 37.336773 -1044.484131
v -51.423901 39.184570 -1044.484131
v -49.850201 39.184566 -1038.646362
v -62.625702 37.336773 -1042.718262
v -62.625702 39.184570 -1042.718262
v -61.399399 37.336769 -1038.169067
v -61.399399 39.184566 -1038.169067
v -65.717903 37.336769 -1037.006348
v -65.717903 39.184566 -1037.006348
v -65.056503 37.336769 -1034.552124
v -65.056503 39.184566 -1034.552124
v -396.153412 7.069239 988.835022
v -396.375610 7.069238 991.802124
v -396.375610 8.395139 991.802124
v -396.153412 8.395139 988.835022
v -392.868195 7.069238 992.067871
v -392.868195 8.395139 992.067871
v -393.236603 7.069237 996.961975
v -393.236603 8.395138 996.961975
v -396.747711 7.069237 996.770020
v -396.747711 8.395138 996.770020
v -397.084900 7.069237 1001.270691
v -397.084900 8.395137 1001.270691
v -386.459686 7.069237 1001.851318
v -386.459686 8.395137 1001.851318
v -385.540192 7.069239 989.638977
v -385.540192 8.395139 989.638977
v -367.497406 3.367850 -304.602600
v -389.954102 3.367848 -297.768097
v -389.954102 5.143848 -297.768097
v -367.497406 5.143849 -304.602600
v -383.784485 3.367846 -282.717712
v -383.784485 5.143846 -282.717712
v -361.657288 3.367847 -290.361115
v -361.657288 5.143847 -290.361115
v -177.325104 1.313728 440.720795
v -175.058304 1.313724 464.552704
v -175.058304 3.577425 464.552704
v -177.325104 3.577428 440.720795
v -159.248093 1.313725 463.049011
v -159.248093 3.577425 463.049011
v -161.555893 1.313728 439.156799
v -161.555893 3.577429 439.156799
vt 0.6000 -0.0000
vt 2.6000 0.0000
vt 2.6000 1.0000
vt 0.6000 1.0000
vt 0.2000 0.0000
vt 1.0000 -0.0000
vt 1.0000 1.0000
vt 0.2000 1.0000
vt 0.6000 -0.0000
vt 1.4000 0.0000
vt 1.4000 1.0000
vt 0.6000 1.0000
vt 0.6000 -0.0000
vt 2.2000 0.0000
vt 2.2000 1.0000
vt 0.6000 1.0000
vt 0.4000 0.0000
vt 1.6000 0.0000
vt 1.6000 1.0000
vt 0.4000 1.0000
vt 0.4000 0.0000
vt 3.0000 0.0000
vt 3.0000 1.0000
vt 0.4000 1.0000
vt 0.6000 -0.0000
vt 1.4000 0.0000
vt 1.4000 1.0000
vt 0.6000 1.0000
vt 0.2000 0.0000
vt 2.0000 0.0000
vt 2.0000 1.0000
vt 0.2000 1.0000
vt 0.6000 -0.0000
vt 1.8000 0.0000
vt 1.8000 1.0000
vt 0.6000 1.0000
vt 0.6000 -0.0000
vt 3.2000 0.0000
vt 3.2000 1.0000
vt 0.6000 1.0000
vt 0.4000 0.0000
vt 2.4000 -0.0000
vt 2.4000 1.0000
vt 0.4000 1.0000
vt 0.4000 0.0000
vt 1.2000 -0.0000
vt 1.2000 1.0000
vt 0.4000 1.0000
vt 0.2000 0.0000
vt 3.6000 0.0000
vt 3.6000 1.0000
vt 0.2000 1.0000
vt 0.4000 0.0000
vt 5.2000 0.0000
vt 5.2000 1.0000
vt 0.4000 1.0000
vt 0.6000 -0.0000
vt 1.0000 -0.0000
vt 1.0000 1.0000
vt 0.6000 1.0000
vt 0.6000 -0.0000
vt 4.0000 0.0000
vt 4.0000 1.0000
vt 0.6000 1.0000
vt 0.6000 -0.0000
vt 5.4000 0.0000
vt 5.4000 1.0000
vt 0.6000 1.0000
vt 0.6000 -0.0000
vt 1.8000 0.0000
vt 1.8000 1.0000
vt 0.6000 1.0000
vt 0.6000 -0.0000
vt 1.2000 -0.0000
vt 1.2000 1.0000
vt 0.6000 1.0000
vt 0.4000 0.0000
vt 0.8000 0.0000
vt 0.8000 1.0000
vt 0.4000 1.0000
vt 0.6000 -0.0000
vt 1.8000 0.0000
vt 1.8000 1.0000
vt 0.6000 1.0000
vt 0.4000 0.0000
vt 1.2000 -0.0000
vt 1.2000 1.0000
vt 0.4000 1.0000
vt 0.6000 -0.0000
vt 2.4000 -0.0000
vt 2.4000 1.0000
vt 0.6000 1.0000
vt 0.4000 0.0000
vt 5.2000 0.0000
vt 5.2000 1.0000
vt 0.4000 1.0000
vt 0.8000 0.0000
vt 4.4000 0.0000
vt 4.4000 1.0000
vt 0.8000 1.0000
vt 0.4000 0.0000
vt 5.2000 0.0000
vt 5.2000 1.0000
vt 0.4000 1.0000
vt 0.6000 -0.0000
vt 4.2000 0.0000
vt 4.2000 1.0000
vt 0.6000 1.0000
vt 0.6000 -0.0000
vt 3.8000 0.0000
vt 3.8000 1.0000
vt 0.6000 1.0000
vt 0.2000 0.0000
vt 2.2000 0.0000
vt 2.2000 1.0000
vt 0.2000 1.0000
vt 0.6000 -0.0000
vt 3.8000 0.0000
vt 3.8000 1.0000
vt 0.6000 1.0000
vt 0.6000 -0.0000
vt 2.6000 0.0000
vt 2.6000 1.0000
vt 0.6000 1.0000
vt 0.2000 0.0000
vt 1.6000 0.0000
vt 1.6000 1.0000
vt 0.2000 1.0000
vt -0.0000 0.0000
vt 0.2000 0.0000
vt 0.2000 1.0000
vt -0.0000 1.0000
vt -0.0000 0.0000
vt 0.4000 0.0000
vt 0.4000 1.0000
vt -0.0000 1.0000
vt -0.0000 0.0000
vt 0.6000 -0.0000
vt 0.6000 1.0000
vt -0.0000 1.0000
vt 0.8000 0.0000
vt 2.6000 0.0000
vt 2.6000 1.0000
vt 0.8000 1.0000
vt -0.0000 0.0000
vt 0.8000 0.0000
vt 0.8000 1.0000
vt -0.0000 1.0000
vt 0.4000 0.0000
vt 1.4000 0.0000
vt 1.4000 1.0000
vt 0.4000 1.0000
vt 0.2000 0.0000
vt 1.0000 -0.0000
vt 1.0000 1.0000
vt 0.2000 1.0000
vt 0.4000 0.0000
vt 2.8000 -0.0000
vt 2.8000 1.0000
vt 0.4000 1.0000
vt 0.6000 -0.0000
vt 2.2000 0.0000
vt 2.2000 1.0000
vt 0.6000 1.0000
vt 0.4000 0.0000
vt 3.8000 0.0000
vt 3.8000 1.0000
vt 0.4000 1.0000
vt 0.8000 0.0000
vt 1.6000 0.0000
vt 1.6000 1.0000
vt 0.8000 1.0000
vt 0.2000 0.0000
vt 1.4000 0.0000
vt 1.4000 1.0000
vt 0.2000 1.0000
vt 0.2000 0.0000
vt 2.0000 0.0000
vt 2.0000 1.0000
vt 0.2000 1.0000
vt 0.2000 0.0000
vt 1.2000 -0.0000
vt 1.2000 1.0000
vt 0.2000 1.0000
vt 0.2000 0.0000
vt 0.8000 0.0000
vt 0.8000 1.0000
vt 0.2000 1.0000
vt -0.0000 0.0000
vt 0.2000 0.0000
vt 0.2000 1.0000
vt -0.0000 1.0000
vt 0.6000 -0.0000
vt 3.0000 0.0000
vt 3.0000 1.0000
vt 0.6000 1.0000
vt -0.0000 0.0000
vt 2.6000 0.0000
vt 2.6000 1.0000
vt -0.0000 1.0000
vt 0.6000 -0.0000
vt 4.8000 0.0000
vt 4.8000 1.0000
vt 0.6000 1.0000
vt 0.2000 0.0000
vt 2.8000 -0.0000
vt 2.8000 1.0000
vt 0.2000 1.0000
vt 0.6000 -0.0000
vt 4.8000 0.0000
vt 4.8000 1.0000
vt 0.6000 1.0000
vt 0.2000 0.0000
vt 3.4000 0.0000
vt 3.4000 1.0000
vt 0.2000 1.0000
vt -0.0000 0.0000
vt 1.2000 -0.0000
vt 1.2000 1.0000
vt -0.0000 1.0000
vt -0.0000 0.0000
vt 0.8000 0.0000
vt 0.8000 1.0000
vt -0.0000 1.0000
vt 0.4000 0.0000
vt 1.6000 0.0000
vt 1.6000 1.0000
vt 0.4000 1.0000
vt 0.4000 0.0000
vt 2.8000 -0.0000
vt 2.8000 1.0000
vt 0.4000 1.0000
vt 0.6000 -0.0000
vt 3.0000 0.0000
vt 3.0000 1.0000
vt 0.6000 1.0000
vt 0.2000 0.0000
vt 2.6000 0.0000
vt 2.6000 1.0000
vt 0.2000 1.0000
vt 0.6000 -0.0000
vt 2.6000 0.0000
vt 2.6000 1.0000
vt 0.6000 1.0000
vt 0.6000 -0.0000
vt 2.0000 0.0000
vt 2.0000 1.0000
vt 0.6000 1.0000
vt 0.4000 0.0000
vt 2.8000 -0.0000
vt 2.8000 1.0000
vt 0.4000 1.0000
vt 0.2000 0.0000
vt 3.6000 0.0000
vt 3.6000 1.0000
vt 0.2000 1.0000
vt -0.0000 0.0000
vt 0.2000 0.0000
vt 0.2000 1.0000
vt -0.0000 1.0000
vt 0.6000 -0.0000
vt 0.6000 1.0000
vt 2.0000 0.0000
vt 2.0000 1.0000
vt 0.4000 0.0000
vt 1.4000 0.0000
vt 1.4000 1.0000
vt 0.4000 1.0000
vt 0.4000 0.0000
vt 1.8000 0.0000
vt 1.8000 1.0000
vt 0.4000 1.0000
vt 0.4000 0.0000
vt 0.8000 0.0000
vt 0.8000 1.0000
vt 0.4000 1.0000
vt 0.2000 0.0000
vt 0.4000 0.0000
vt 0.4000 1.0000
vt 0.2000 1.0000
vt -0.0000 0.0000
vt 0.2000 0.0000
vt 0.2000 1.0000
vt -0.0000 1.0000
vt 0.6000 -0.0000
vt 4.0000 0.0000
vt 4.0000 1.0000
vt 0.6000 1.0000
vt 0.8000 0.0000
vt 3.8000 0.0000
vt 3.8000 1.0000
vt 0.8000 1.0000
vt 0.6000 -0.0000
vt 4.0000 0.0000
vt 4.0000 1.0000
vt 0.6000 1.0000
vt 0.4000 0.0000
vt 3.4000 0.0000
vt 3.4000 1.0000
vt 0.4000 1.0000
vt 0.6000 -0.0000
vt 1.4000 0.0000
vt 1.4000 1.0000
vt 0.6000 1.0000
vt 0.4000 0.0000
vt 2.0000 0.0000
vt 2.0000 1.0000
vt 0.4000 1.0000
vt 0.8000 0.0000
vt 1.4000 0.0000
vt 1.4000 1.0000
vt 0.8000 1.0000
vt 0.4000 0.0000
vt 1.0000 -0.0000
vt 1.0000 1.0000
vt 0.4000 1.0000
vt 0.4000 0.0000
vt 0.8000 0.0000
vt 0.8000 1.0000
vt 0.4000 1.0000
vt 0.6000 -0.0000
vt 2.8000 -0.0000
vt 2.8000 1.0000
vt 0.6000 1.0000
vt 0.2000 0.0000
vt 0.6000 -0.0000
vt 0.6000 1.0000
vt 0.2000 1.0000
vt 0.4000 0.0000
vt 1.0000 -0.0000
vt 1.0000 1.0000
vt 0.4000 1.0000
vt 0.6000 -0.0000
vt 1.4000 0.0000
vt 1.4000 1.0000
vt 0.6000 1.0000
vt 0.2000 0.0000
vt 0.8000 0.0000
vt 0.8000 1.0000
vt 0.2000 1.0000
vt 0.2000 0.0000
vt 1.0000 -0.0000
vt 1.0000 1.0000
vt 0.2000 1.0000
vt 0.6000 -0.0000
vt 2.2000 0.0000
vt 2.2000 1.0000
vt 0.6000 1.0000
vt 0.6000 -0.0000
vt 2.6000 0.0000
vt 2.6000 1.0000
vt 0.6000 1.0000
vt 0.4000 0.0000
vt 2.0000 0.0000
vt 2.0000 1.0000
vt 0.4000 1.0000
vt 0.2000 0.0000
vt 3.6000 0.0000
vt 3.6000 1.0000
vt 0.2000 1.0000
vt 0.2000 0.0000
vt 2.6000 0.0000
vt 2.6000 1.0000
vt 0.2000 1.0000
vt -0.0000 0.0000
vt 3.4000 0.0000
vt 3.4000 1.0000
vt -0.0000 1.0000
vt 0.4000 0.0000
vt 2.6000 0.0000
vt 2.6000 1.0000
vt 0.4000 1.0000
vt 0.4000 0.0000
vt 4.0000 0.0000
vt 4.0000 1.0000
vt 0.4000 1.0000
vt 0.2000 0.0000
vt 2.6000 0.0000
vt 2.6000 1.0000
vt 0.2000 1.0000
vt 0.2000 0.0000
vt 3.8000 0.0000
vt 3.8000 1.0000
vt 0.2000 1.0000
vt 0.8000 0.0000
vt 3.2000 0.0000
vt 3.2000 1.0000
vt 0.8000 1.0000
vn 0.0789 0.0000 -0.9969
vn -0.9969 0.0000 -0.0791
vn -0.0789 0.0000 0.9969
vn -0.0779 0.0000 0.9970
vn 0.9969 0.0000 0.0791
vn -0.0566 0.0000 0.9984
vn -0.0787 0.0000 0.9969
vn 0.0566 0.0000 -0.9984
vn -0.9969 0.0000 -0.0792
vn 0.3884 0.0000 0.9215
vn 0.9893 0.0000 -0.1459
vn -0.2239 0.0000 -0.9746
vn -0.3882 0.0000 -0.9216
vn -0.9768 0.0000 0.2142
vn -0.0784 0.0000 0.9969
vn 0.0785 0.0000 -0.9969
vn 0.0776 0.0000 -0.9970
vn -0.0358 0.0000 -0.9994
vn -0.9994 0.0000 0.0358
vn 0.0336 0.0000 0.9994
vn 0.9995 0.0000 -0.0330
vn -0.9878 0.0000 0.1555
vn 0.1564 0.0000 0.9877
vn 0.9879 0.0000 -0.1552
vn -0.1548 0.0000 -0.9880
vn 0.0739 -0.0000 0.9973
vn 0.9996 0.0000 0.0288
vn 0.0743 -0.0000 0.9972
vn 0.9971 0.0000 -0.0766
vn -0.0743 0.0000 -0.9972
vn -0.9996 0.0000 -0.0288
vn 0.9787 0.0000 -0.2053
vn 0.2051 0.0000 0.9787
vn 0.9788 0.0000 -0.2050
vn -0.2051 0.0000 -0.9787
vn -0.9787 0.0000 0.2053
vn 0.9989 0.0000 -0.0461
vn -0.0461 0.0000 -0.9989
vn -0.9989 0.0000 0.0461
vn -0.0149 0.0000 -0.9999
vn 0.0149 0.0000 0.9999
vn 0.9983 0.0000 -0.0578
vn -0.0609 0.0000 -0.9981
vn -0.9981 0.0000 0.0616
vn 0.0618 0.0000 0.9981
vn 0.3349 0.0000 0.9423
vn 0.9519 0.0000 -0.3063
vn -0.3349 0.0000 -0.9423
vn -0.3067 0.0000 -0.9518
vn -0.9519 0.0000 0.3063
vn -0.9569 0.0000 0.2905
vn 0.2692 0.0000 0.9631
vn 0.2905 0.0000 0.9569
vn 0.9567 0.0000 -0.2909
vn -0.2917 0.0000 -0.9565
vn -0.0993 0.0000 -0.9951
vn -0.9999 0.0000 -0.0144
vn 0.0992 0.0000 0.9951
vn 1.0000 0.0000 0.0076
vn 0.0167 0.0000 -0.9999
vn -0.0167 0.0000 0.9999
vn -1.0000 0.0000 -0.0076
vn -0.1560 0.0000 -0.9878
vn -0.9857 0.0000 0.1687
vn 0.1575 0.0000 0.9875
vn 0.9860 0.0000 -0.1666
vn 0.9655 0.0000 -0.2603
vn -0.1557 0.0000 -0.9878
vn -0.9655 0.0000 0.2603
vn -0.2600 0.0000 -0.9656
vn -0.9656 0.0000 0.2602
vn 0.2600 0.0000 0.9656
vn -0.9972 0.0000 -0.0747
vn -0.0755 0.0000 0.9971
vn -0.9972 0.0000 -0.0751
vn 0.0546 0.0000 -0.9985
vn -0.0546 0.0000 0.9985
vn 0.9972 0.0000 0.0751
vn 0.0755 0.0000 -0.9971
vn -0.2912 0.0000 -0.9567
vn -0.9253 0.0000 0.3793
vn 0.3265 0.0000 0.9452
vn 0.9252 0.0000 -0.3794
vn -0.9955 0.0000 0.0947
vn 0.0947 0.0000 0.9955
vn 0.9954 0.0000 -0.0961
vn -0.0987 0.0000 -0.9951
g CityEngineMaterial_104_CityEngineMaterial_104_CityEngineMaterial_104_mat
usemtl CityEngineMaterial_104_mat
s 1
f 1/1/1 2/2/1 3/3/1 4/4/1
f 2/5/2 5/6/2 6/7/2 3/8/2
f 5/9/3 7/10/3 8/11/3 6/12/3
f 7/13/2 9/14/2 10/15/2 8/16/2
f 9/17/4 11/18/4 12/19/4 10/20/4
f 11/21/5 1/22/5 4/23/5 12/24/5
f 13/25/6 14/26/6 15/27/6 16/28/6
f 14/29/2 17/30/2 18/31/2 15/32/2
f 17/33/7 19/34/7 20/35/7 18/36/7
f 19/37/5 21/38/5 22/39/5 20/40/5
f 21/41/8 23/42/8 24/43/8 22/44/8
f 23/45/9 13/46/9 16/47/9 24/48/9
f 25/49/10 26/50/10 27/51/10 28/52/10
f 26/53/11 29/54/11 30/55/11 27/56/11
f 29/57/12 31/58/12 32/59/12 30/60/12
f 31/61/13 33/62/13 34/63/13 32/64/13
f 33/65/14 25/66/14 28/67/14 34/68/14
f 35/69/15 36/70/15 37/71/15 38/72/15
f 36/73/5 39/74/5 40/75/5 37/76/5
f 39/77/16 41/78/16 42/79/16 40/80/16
f 41/81/5 43/82/5 44/83/5 42/84/5
f 43/85/17 45/86/17 46/87/17 44/88/17
f 45/89/2 35/90/2 38/91/2 46/92/2
f 47/93/18 48/94/18 49/95/18 50/96/18
f 48/97/19 51/98/19 52/99/19 49/100/19
f 51/101/20 53/102/20 54/103/20 52/104/20
f 53/105/21 47/106/21 50/107/21 54/108/21
f 55/109/22 56/110/22 57/111/22 58/112/22
f 56/113/23 59/114/23 60/115/23 57/116/23
f 59/117/24 61/118/24 62/119/24 60/120/24
f 61/121/25 55/122/25 58/123/25 62/124/25
f 63/125/26 64/126/26 65/127/26 66/128/26
f 64/129/27 67/130/27 68/131/27 65/132/27
f 67/133/28 69/134/28 70/135/28 68/136/28
f 69/137/29 71/138/29 72/139/29 70/140/29
f 71/141/30 73/142/30 74/143/30 72/144/30
f 73/145/31 63/146/31 66/147/31 74/148/31
f 75/149/32 76/150/32 77/151/32 78/152/32
f 76/153/33 79/154/33 80/155/33 77/156/33
f 79/157/34 81/158/34 82/159/34 80/160/34
f 81/161/35 83/162/35 84/163/35 82/164/35
f 83/165/36 85/166/36 86/167/36 84/168/36
f 85/169/33 75/170/33 78/171/33 86/172/33
f 87/173/37 88/174/37 89/175/37 90/176/37
f 88/177/38 91/178/38 92/179/38 89/180/38
f 91/181/39 93/182/39 94/183/39 92/184/39
f 93/185/40 95/186/40 96/187/40 94/188/40
f 95/189/39 97/190/39 98/191/39 96/192/39
f 97/193/41 87/194/41 90/195/41 98/196/41
f 99/197/42 100/198/42 101/199/42 102/200/42
f 100/201/43 103/202/43 104/203/43 101/204/43
f 103/205/44 105/206/44 106/207/44 104/208/44
f 105/209/45 99/210/45 102/211/45 106/212/45
f 107/213/46 108/214/46 109/215/46 110/216/46
f 108/217/47 111/218/47 112/219/47 109/220/47
f 111/221/48 113/222/48 114/223/48 112/224/48
f 113/225/47 115/226/47 116/227/47 114/228/47
f 115/229/49 117/230/49 118/231/49 116/232/49
f 117/233/50 107/234/50 110/235/50 118/236/50
f 119/237/51 120/238/51 121/239/51 122/240/51
f 120/241/52 123/242/52 124/243/52 121/244/52
f 123/245/53 125/246/53 126/247/53 124/248/53
f 125/249/54 127/250/54 128/251/54 126/252/54
f 127/253/55 119/254/55 122/255/55 128/256/55
f 129/257/56 130/258/56 131/259/56 132/260/56
f 130/258/57 133/261/57 134/262/57 131/259/57
f 133/261/58 135/263/58 136/264/58 134/262/58
f 135/265/59 137/266/59 138/267/59 136/268/59
f 137/269/60 139/270/60 140/271/60 138/272/60
f 139/273/57 141/274/57 142/275/57 140/276/57
f 141/277/61 143/278/61 144/279/61 142/280/61
f 143/281/62 129/282/62 132/283/62 144/284/62
f 145/285/63 146/286/63 147/287/63 148/288/63
f 146/289/64 149/290/64 150/291/64 147/292/64
f 149/293/65 151/294/65 152/295/65 150/296/65
f 151/297/66 145/298/66 148/299/66 152/300/66
f 153/301/67 154/302/67 155/303/67 156/304/67
f 154/305/68 157/306/68 158/307/68 155/308/68
f 157/309/69 159/310/69 160/311/69 158/312/69
f 159/313/70 161/314/70 162/315/70 160/316/70
f 161/317/71 163/318/71 164/319/71 162/320/71
f 163/321/72 153/322/72 156/323/72 164/324/72
f 165/325/73 166/326/73 167/327/73 168/328/73
f 166/329/74 169/330/74 170/331/74 167/332/74
f 169/333/75 171/334/75 172/335/75 170/336/75
f 171/337/76 173/338/76 174/339/76 172/340/76
f 173/341/73 175/342/73 176/343/73 174/344/73
f 175/345/77 177/346/77 178/347/77 176/348/77
f 177/349/78 179/350/78 180/351/78 178/352/78
f 179/353/79 165/354/79 168/355/79 180/356/79
f 181/357/80 182/358/80 183/359/80 184/360/80
f 182/361/81 185/362/81 186/363/81 183/364/81
f 185/365/82 187/366/82 188/367/82 186/368/82
f 187/369/83 181/370/83 184/371/83 188/372/83
f 189/373/84 190/374/84 191/375/84 192/376/84
f 190/377/85 193/378/85 194/379/85 191/380/85
f 193/381/86 195/382/86 196/383/86 194/384/86
f 195/385/87 189/386/87 192/387/87 196/388/87
