# Blender v2.78 (sub 0) OBJ File: ''
# www.blender.org
mtllib CityEngineMaterial_502.mtl
o CityEngineMaterial_502
v 492.410400 41.683784 89.625610
v 477.124115 41.683784 90.513611
v 477.124115 43.477386 90.513611
v 492.410400 43.477386 89.625610
v 478.009491 41.683781 105.761604
v 478.009491 43.477383 105.761604
v 493.283997 41.683784 104.876709
v 493.283997 43.477386 104.876709
v 270.642212 52.239017 -724.865479
v 259.517212 52.239017 -721.855286
v 259.517212 54.142719 -721.855286
v 270.642212 54.142719 -724.865479
v 267.628601 52.239017 -723.124329
v 267.628601 54.142719 -723.124329
v 270.779602 52.239017 -723.976929
v 270.779602 54.142719 -723.976929
v 322.635010 50.102127 -780.820923
v 324.037994 50.102127 -775.616089
v 324.037994 52.214825 -775.616089
v 322.635010 52.214825 -780.820923
v 325.944489 50.102127 -776.132629
v 325.944489 52.214825 -776.132629
v 325.740906 50.102127 -776.887573
v 325.740906 52.214825 -776.887573
v 329.750397 50.102127 -777.968384
v 329.750397 52.214825 -777.968384
v 329.952606 50.102127 -777.218323
v 329.952606 52.214825 -777.218323
v 332.223785 50.102127 -777.833618
v 332.223785 52.214825 -777.833618
v 330.823486 50.102127 -783.028198
v 330.823486 52.214825 -783.028198
v -498.442108 11.569103 -630.917725
v -499.126709 11.569103 -633.172607
v -499.126709 13.578203 -633.172607
v -498.442108 13.578203 -630.917725
v -511.548492 11.569103 -629.401917
v -511.548492 13.578203 -629.401917
v -508.848785 11.569101 -620.505493
v -508.848785 13.578201 -620.505493
v -496.420990 11.569102 -624.260681
v -496.420990 13.578202 -624.260681
v -497.635498 11.569102 -628.260681
v -497.635498 13.578202 -628.260681
v -499.923615 11.569102 -627.569275
v -499.923615 13.578202 -627.569275
v -500.729004 11.569103 -630.223511
v -500.729004 13.578203 -630.223511
v 17.914900 2.294659 250.273300
v 23.312799 2.294656 268.219086
v 23.312799 4.491956 268.219086
v 17.914900 4.491959 250.273300
v 43.417801 2.294657 262.239594
v 43.417702 4.491957 262.239594
v 37.043701 2.294661 239.005203
v 37.043701 4.491961 239.005203
v 16.013901 2.294660 244.138000
v 16.013901 4.491961 244.138000
v 14.263200 40.818615 -710.555176
v 15.473400 40.818615 -710.745117
v 15.473400 42.909416 -710.745117
v 14.263200 42.909416 -710.555176
v 14.856000 40.818619 -714.695679
v 14.856000 42.909420 -714.695679
v 2.741600 40.818615 -712.794312
v 2.741600 42.909416 -712.794312
v 3.769300 40.818615 -706.225098
v 3.769300 42.909416 -706.225098
v 14.674600 40.818615 -707.925781
v 14.674600 42.909416 -707.925781
v -142.900299 1.313671 790.904419
v -143.237595 1.313674 774.495911
v -143.237595 3.399774 774.495911
v -142.900299 3.399771 790.904419
v -145.281296 1.313674 772.887512
v -145.281296 3.399774 772.887512
v -153.131393 1.313672 782.874084
v -153.131393 3.399772 782.874084
v 218.862198 40.945538 -234.279907
v 218.958801 40.945538 -231.426193
v 218.958801 42.884838 -231.426193
v 218.862198 42.884838 -234.279907
v 231.244202 40.945538 -231.815506
v 231.244202 42.884838 -231.815506
v 231.038406 40.945538 -238.041504
v 231.038406 42.884838 -238.041504
v 222.141495 40.945538 -237.758896
v 222.141495 42.884838 -237.758896
v 222.253006 40.945538 -234.387497
v 222.253006 42.884838 -234.387497
v -683.977783 3.166559 254.466293
v -663.611023 3.166458 257.722198
v -663.611023 5.267958 257.722198
v -683.977783 5.267959 254.466293
v -666.115479 3.166560 243.430496
v -666.115479 5.267961 243.430496
v -685.326477 3.166560 246.850906
v -685.326477 5.267960 246.850906
v 617.666870 21.289484 712.124573
v 616.389526 21.289486 705.503174
v 616.389526 22.617985 705.503174
v 617.666870 22.617983 712.124573
v 620.090271 21.289486 704.311218
v 620.090271 22.617985 704.311218
v 619.159424 21.289486 699.478271
v 619.159424 22.617985 699.478271
v 610.219299 21.289486 702.357605
v 610.219299 22.617985 702.357605
v 612.430115 21.289484 713.816711
v 612.430115 22.617983 713.816711
v -160.606796 1.588267 818.080872
v -161.979004 1.588266 819.608826
v -161.979004 3.436666 819.608826
v -160.606796 3.436667 818.080872
v -162.705399 1.588267 818.957214
v -162.705399 3.436666 818.957214
v -169.682907 1.588266 823.424316
v -169.682907 3.436666 823.424316
v -161.295898 1.588265 830.948425
v -161.295898 3.436665 830.948425
v -156.084595 1.588266 825.146301
v -156.084595 3.436666 825.146301
v 947.251099 102.076530 -167.170883
v 950.654724 102.076523 -158.065186
v 950.654724 103.563522 -158.065186
v 947.251099 103.563530 -167.170883
v 960.757019 102.076523 -161.806183
v 960.757019 103.563522 -161.806183
v 959.963806 102.076530 -163.912888
v 959.963806 103.563530 -163.912888
v 954.034485 102.076523 -161.717285
v 954.034485 103.563522 -161.717285
v 952.510010 102.076530 -165.796082
v 952.510010 103.563530 -165.796082
v 958.429688 102.076530 -167.986786
v 958.429688 103.563530 -167.986786
v 957.332214 102.076530 -170.901581
v 957.332214 103.563530 -170.901581
v 267.687714 43.553349 -914.904785
v 263.773193 43.553349 -914.385925
v 263.773193 44.909950 -914.385925
v 267.687714 44.909950 -914.904785
v 264.381287 43.553349 -909.700989
v 264.381287 44.909950 -909.700989
v 255.953796 43.553349 -908.580322
v 255.953796 44.909950 -908.580322
v 256.797089 43.553349 -902.249329
v 256.797089 44.909950 -902.249329
v 269.117798 43.553349 -903.887817
v 269.117798 44.909950 -903.887817
v -242.915497 1.862148 317.226288
v -221.523193 1.862149 315.191498
v -221.523193 3.719749 315.191498
v -242.915497 3.719748 317.226288
v -222.662994 1.862151 303.316711
v -222.662994 3.719751 303.316711
v -244.042801 1.862150 305.373993
v -244.042801 3.719750 305.373993
v 314.585114 56.374809 -680.117676
v 324.527313 56.374809 -672.191772
v 324.527313 58.385910 -672.191772
v 314.585114 58.385910 -680.117676
v 329.165405 56.374809 -678.283325
v 329.165405 58.385910 -678.283325
v 320.040710 56.374809 -685.559814
v 320.040710 58.385910 -685.559814
v 316.922699 56.374809 -681.464783
v 316.922699 58.385910 -681.464783
v 316.794586 56.374809 -681.567017
v 316.794586 58.385910 -681.567017
v 316.297302 56.374809 -683.411621
v 316.297302 58.385910 -683.411621
v 314.352814 56.374809 -680.979370
v 314.352814 58.385910 -680.979370
v -664.049683 22.857939 -858.022827
v -668.784973 22.857939 -856.592285
v -668.784973 24.169239 -856.592285
v -664.049683 24.169239 -858.022827
v -667.364380 22.857840 -851.845581
v -667.364380 24.169239 -851.845581
v -676.548279 22.857939 -849.070801
v -676.548279 24.169239 -849.070801
v -677.980286 22.857939 -853.814514
v -677.980286 24.169239 -853.814514
v -681.875183 22.857840 -852.637878
v -681.875183 24.169239 -852.637878
v -680.159485 22.857838 -846.954102
v -680.159485 24.169237 -846.954102
v -679.266296 22.857838 -844.045776
v -679.266296 24.169237 -844.045776
v -661.475281 22.857840 -849.421326
v -661.475281 24.169239 -849.421326
vt 0.3333 -0.0000
vt 3.1667 -0.0000
vt 3.1667 1.0000
vt 0.3333 1.0000
vt 0.5000 0.0000
vt 3.3333 0.0000
vt 3.3333 1.0000
vt 0.5000 1.0000
vt -0.0000 -0.0000
vt 2.8333 0.0000
vt 2.8333 1.0000
vt -0.0000 1.0000
vt 0.1667 0.0000
vt 3.0000 0.0000
vt 3.0000 1.0000
vt 0.1667 1.0000
vt 0.6667 -0.0000
vt 2.8333 0.0000
vt 2.8333 1.0000
vt 0.6667 1.0000
vt 0.3333 -0.0000
vt 1.8333 0.0000
vt 1.8333 1.0000
vt 0.3333 1.0000
vt 0.8333 0.0000
vt 1.5000 0.0000
vt 1.5000 1.0000
vt 0.8333 1.0000
vt 0.8333 0.0000
vt 1.0000 -0.0000
vt 1.0000 1.0000
vt 0.8333 1.0000
vt 0.6667 -0.0000
vt 1.5000 0.0000
vt 1.5000 1.0000
vt 0.6667 1.0000
vt 0.5000 0.0000
vt 0.8333 0.0000
vt 0.8333 1.0000
vt 0.5000 1.0000
vt 0.5000 0.0000
vt 0.6667 -0.0000
vt 0.6667 1.0000
vt 0.5000 1.0000
vt 0.1667 0.0000
vt 0.8333 0.0000
vt 0.8333 1.0000
vt 0.1667 1.0000
vt 0.1667 0.0000
vt 0.3333 -0.0000
vt 0.3333 1.0000
vt 0.1667 1.0000
vt 0.6667 -0.0000
vt 1.0000 -0.0000
vt 1.0000 1.0000
vt 0.6667 1.0000
vt 0.8333 0.0000
vt 1.6667 0.0000
vt 1.6667 1.0000
vt 0.8333 1.0000
vt 0.6667 -0.0000
vt 1.8333 0.0000
vt 1.8333 1.0000
vt 0.6667 1.0000
vt 0.3333 -0.0000
vt 0.6667 -0.0000
vt 0.6667 1.0000
vt 0.3333 1.0000
vt 0.5000 0.0000
vt 2.3333 -0.0000
vt 2.3333 1.0000
vt 0.5000 1.0000
vt 0.6667 -0.0000
vt 2.0000 0.0000
vt 2.0000 1.0000
vt 0.6667 1.0000
vt 0.3333 -0.0000
vt 2.1667 0.0000
vt 2.1667 1.0000
vt 0.3333 1.0000
vt 0.1667 0.0000
vt 0.8333 0.0000
vt 0.8333 1.0000
vt 0.1667 1.0000
vt 0.5000 0.0000
vt 0.8333 0.0000
vt 0.8333 1.0000
vt 0.5000 1.0000
vt 0.6667 -0.0000
vt 1.0000 -0.0000
vt 1.0000 1.0000
vt 0.6667 1.0000
vt 0.5000 0.0000
vt 0.8333 0.0000
vt 0.8333 1.0000
vt 0.5000 1.0000
vt 0.1667 0.0000
vt 2.6667 0.0000
vt 2.6667 1.0000
vt 0.1667 1.0000
vt 0.8333 0.0000
vt 3.6667 0.0000
vt 3.6667 1.0000
vt 0.8333 1.0000
vt 0.8333 0.0000
vt 4.1667 0.0000
vt 4.1667 1.0000
vt 0.8333 1.0000
vt 0.6667 -0.0000
vt 3.6667 0.0000
vt 3.6667 1.0000
vt 0.6667 1.0000
vt 0.6667 -0.0000
vt 1.5000 0.0000
vt 1.5000 1.0000
vt 0.6667 1.0000
vt 0.5000 0.0000
vt 0.6667 -0.0000
vt 0.6667 1.0000
vt 0.5000 1.0000
vt 0.3333 -0.0000
vt 1.0000 -0.0000
vt 1.0000 1.0000
vt 0.3333 1.0000
vt 0.3333 -0.0000
vt 2.5000 0.0000
vt 2.5000 1.0000
vt 0.3333 1.0000
vt 0.3333 -0.0000
vt 1.5000 0.0000
vt 1.5000 1.0000
vt 0.3333 1.0000
vt 0.3333 -0.0000
vt 2.1667 0.0000
vt 2.1667 1.0000
vt 0.3333 1.0000
vt 0.1667 0.0000
vt 0.6667 -0.0000
vt 0.6667 1.0000
vt 0.1667 1.0000
vt 0.8333 0.0000
vt 3.0000 0.0000
vt 3.0000 1.0000
vt 0.8333 1.0000
vt 0.3333 -0.0000
vt 0.6667 -0.0000
vt 0.6667 1.0000
vt 0.3333 1.0000
vt 0.3333 -0.0000
vt 2.0000 0.0000
vt 2.0000 1.0000
vt 0.3333 1.0000
vt 0.3333 -0.0000
vt 2.0000 0.0000
vt 2.0000 1.0000
vt 0.3333 1.0000
vt 0.6667 -0.0000
vt 1.0000 -0.0000
vt 1.0000 1.0000
vt 0.6667 1.0000
vt 0.1667 0.0000
vt 1.6667 0.0000
vt 1.6667 1.0000
vt 0.1667 1.0000
vt 0.6667 -0.0000
vt 1.5000 0.0000
vt 1.5000 1.0000
vt 0.6667 1.0000
vt 0.6667 -0.0000
vt 1.8333 0.0000
vt 1.8333 1.0000
vt 0.6667 1.0000
vt -0.0000 -0.0000
vt 0.5000 0.0000
vt 0.5000 1.0000
vt -0.0000 1.0000
vt 1.0000 -0.0000
vt 1.0000 1.0000
vt 0.5000 0.0000
vt 3.0000 0.0000
vt 3.0000 1.0000
vt 0.5000 1.0000
vt 0.6667 -0.0000
vt 2.5000 0.0000
vt 2.5000 1.0000
vt 0.6667 1.0000
vt 0.1667 0.0000
vt 2.5000 0.0000
vt 2.5000 1.0000
vt 0.1667 1.0000
vt 0.5000 0.0000
vt 1.5000 0.0000
vt 1.5000 1.0000
vt 0.5000 1.0000
vt 0.6667 -0.0000
vt 1.6667 0.0000
vt 1.6667 1.0000
vt 0.6667 1.0000
vt 0.8333 0.0000
vt 1.3333 0.0000
vt 1.3333 1.0000
vt 0.8333 1.0000
vt 0.6667 -0.0000
vt 1.3333 0.0000
vt 1.3333 1.0000
vt 0.6667 1.0000
vt 0.6667 -0.0000
vt 2.0000 0.0000
vt 2.0000 1.0000
vt 0.6667 1.0000
vt 0.1667 0.0000
vt 1.8333 0.0000
vt 1.8333 1.0000
vt 0.1667 1.0000
vt 0.1667 0.0000
vt 1.0000 -0.0000
vt 1.0000 1.0000
vt 0.1667 1.0000
vt 0.5000 0.0000
vt 0.8333 0.0000
vt 0.8333 1.0000
vt 0.5000 1.0000
vt 0.6667 -0.0000
vt 0.8333 0.0000
vt 0.8333 1.0000
vt 0.6667 1.0000
vt 0.5000 0.0000
vt 1.6667 0.0000
vt 1.6667 1.0000
vt 0.5000 1.0000
vt 0.5000 0.0000
vt 2.1667 0.0000
vt 2.1667 1.0000
vt 0.5000 1.0000
vt 0.6667 -0.0000
vt 1.8333 0.0000
vt 1.8333 1.0000
vt 0.6667 1.0000
vt 0.8333 0.0000
vt 2.1667 0.0000
vt 2.1667 1.0000
vt 0.8333 1.0000
vt 0.1667 0.0000
vt 1.3333 0.0000
vt 1.3333 1.0000
vt 0.1667 1.0000
vt -0.0000 -0.0000
vt 1.3333 0.0000
vt 1.3333 1.0000
vt -0.0000 1.0000
vt -0.0000 -0.0000
vt 0.3333 -0.0000
vt 0.3333 1.0000
vt -0.0000 1.0000
vt 1.1667 0.0000
vt 1.1667 1.0000
vt 0.6667 -0.0000
vt 1.1667 0.0000
vt 1.1667 1.0000
vt 0.6667 1.0000
vt 0.5000 0.0000
vt 1.3333 0.0000
vt 1.3333 1.0000
vt 0.5000 1.0000
vt 0.6667 -0.0000
vt 1.0000 -0.0000
vt 1.0000 1.0000
vt 0.6667 1.0000
vt 0.1667 0.0000
vt 1.5000 0.0000
vt 1.5000 1.0000
vt 0.1667 1.0000
vt 0.5000 0.0000
vt 1.0000 -0.0000
vt 1.0000 1.0000
vt 0.5000 1.0000
vt 0.5000 0.0000
vt 1.1667 0.0000
vt 1.1667 1.0000
vt 0.5000 1.0000
vt 0.3333 -0.0000
vt 1.3333 0.0000
vt 1.3333 1.0000
vt 0.3333 1.0000
vt 0.5000 0.0000
vt 1.3333 0.0000
vt 1.3333 1.0000
vt 0.5000 1.0000
vt 0.6667 -0.0000
vt 2.1667 0.0000
vt 2.1667 1.0000
vt 0.6667 1.0000
vt 0.1667 0.0000
vt 1.5000 0.0000
vt 1.5000 1.0000
vt 0.1667 1.0000
vt 0.8333 0.0000
vt 3.3333 0.0000
vt 3.3333 1.0000
vt 0.8333 1.0000
vt 0.3333 -0.0000
vt 1.6667 0.0000
vt 1.6667 1.0000
vt 0.3333 1.0000
vt 0.5000 0.0000
vt 3.0000 0.0000
vt 3.0000 1.0000
vt 0.5000 1.0000
vt 0.3333 -0.0000
vt 1.6667 0.0000
vt 1.6667 1.0000
vt 0.3333 1.0000
vt 0.6667 -0.0000
vt 2.1667 0.0000
vt 2.1667 1.0000
vt 0.6667 1.0000
vt -0.0000 -0.0000
vt 1.0000 -0.0000
vt 1.0000 1.0000
vt -0.0000 1.0000
vt 0.5000 0.0000
vt 1.8333 0.0000
vt 1.8333 1.0000
vt 0.5000 1.0000
vt -0.0000 -0.0000
vt 0.6667 -0.0000
vt 0.6667 1.0000
vt -0.0000 1.0000
vt 0.5000 0.0000
vt 0.5333 -0.0000
vt 0.5333 1.0000
vt 0.5000 1.0000
vt 0.1667 0.0000
vt 0.3333 -0.0000
vt 0.3333 1.0000
vt 0.1667 1.0000
vt -0.0000 -0.0000
vt 0.3333 -0.0000
vt 0.3333 1.0000
vt -0.0000 1.0000
vt 0.6667 -0.0000
vt 0.8333 0.0000
vt 0.8333 1.0000
vt 0.6667 1.0000
vt 0.8333 0.0000
vt 1.5000 0.0000
vt 1.5000 1.0000
vt 0.8333 1.0000
vt 0.1667 0.0000
vt 0.8333 0.0000
vt 0.8333 1.0000
vt 0.1667 1.0000
vt 0.3333 -0.0000
vt 1.5000 0.0000
vt 1.5000 1.0000
vt 0.3333 1.0000
vt 0.1667 0.0000
vt 0.8333 0.0000
vt 0.8333 1.0000
vt 0.1667 1.0000
vt 0.5000 0.0000
vt 1.0000 -0.0000
vt 1.0000 1.0000
vt 0.5000 1.0000
vt 0.6667 -0.0000
vt 1.5000 0.0000
vt 1.5000 1.0000
vt 0.6667 1.0000
vt 0.6667 -0.0000
vt 1.0000 -0.0000
vt 1.0000 1.0000
vt 0.6667 1.0000
vt 0.3333 -0.0000
vt 2.6667 0.0000
vt 2.6667 1.0000
vt 0.3333 1.0000
vt 0.6667 -0.0000
vt 1.8333 0.0000
vt 1.8333 1.0000
vt 0.6667 1.0000
vn -0.0580 0.0000 -0.9983
vn -0.9983 0.0000 0.0580
vn 0.0578 0.0000 0.9983
vn 0.9984 0.0000 -0.0572
vn -0.2612 0.0000 -0.9653
vn 0.1546 0.0000 0.9880
vn 0.2612 0.0000 0.9653
vn 0.9883 0.0000 -0.1528
vn -0.9655 0.0000 0.2603
vn 0.2615 0.0000 0.9652
vn 0.9655 0.0000 -0.2604
vn 0.2603 0.0000 0.9655
vn 0.9655 0.0000 -0.2603
vn -0.2603 0.0000 -0.9655
vn 0.9569 0.0000 -0.2905
vn -0.2905 0.0000 -0.9569
vn -0.9569 0.0000 0.2904
vn 0.2892 0.0000 0.9573
vn -0.2893 0.0000 -0.9572
vn 0.9569 0.0000 -0.2904
vn 0.2905 0.0000 0.9569
vn -0.9564 0.0000 0.2920
vn -0.9576 0.0000 0.2880
vn 0.2851 0.0000 0.9585
vn 0.9644 0.0000 -0.2646
vn -0.2371 0.0000 -0.9715
vn -0.9552 0.0000 0.2960
vn 0.1550 0.0000 0.9879
vn 0.9880 0.0000 -0.1544
vn -0.1551 0.0000 -0.9879
vn -0.9880 0.0000 0.1546
vn 0.1541 0.0000 0.9881
vn 0.9880 0.0000 -0.1546
vn 0.9998 0.0000 -0.0206
vn 0.6184 0.0000 -0.7858
vn -0.7862 0.0000 -0.6180
vn -0.6174 0.0000 0.7866
vn -0.9994 0.0000 0.0338
vn 0.0317 0.0000 0.9995
vn 0.9995 0.0000 -0.0330
vn -0.0317 0.0000 -0.9995
vn -0.9995 0.0000 0.0331
vn -0.1579 0.0000 0.9875
vn 0.9850 0.0000 -0.1726
vn -0.1753 0.0000 -0.9845
vn -0.9847 0.0000 0.1744
vn 0.9819 0.0000 -0.1894
vn 0.3066 0.0000 0.9518
vn 0.9820 0.0000 -0.1891
vn -0.3066 0.0000 -0.9519
vn -0.9819 0.0000 0.1894
vn 0.3075 0.0000 0.9516
vn -0.7440 0.0000 -0.6682
vn 0.6678 0.0000 -0.7444
vn -0.5392 0.0000 -0.8422
vn -0.6678 0.0000 0.7444
vn 0.7440 0.0000 0.6682
vn 0.8423 0.0000 -0.5391
vn -0.9367 0.0000 0.3501
vn 0.3473 0.0000 0.9378
vn 0.9359 0.0000 -0.3524
vn -0.3473 0.0000 -0.9378
vn 0.9367 0.0000 -0.3501
vn 0.3471 0.0000 0.9378
vn -0.3471 0.0000 -0.9378
vn -0.1314 0.0000 -0.9913
vn -0.9917 0.0000 0.1287
vn -0.1318 0.0000 -0.9913
vn -0.9912 0.0000 0.1320
vn 0.1318 0.0000 0.9913
vn 0.9917 0.0000 -0.1287
vn 0.0947 0.0000 0.9955
vn 0.9954 0.0000 -0.0955
vn -0.0958 0.0000 -0.9954
vn -0.9955 0.0000 0.0947
vn -0.6234 0.0000 0.7819
vn 0.7956 0.0000 0.6058
vn 0.6235 0.0000 -0.7818
vn -0.7956 0.0000 -0.6058
vn 0.6231 0.0000 -0.7821
vn -0.7811 0.0000 -0.6244
vn -0.2892 0.0000 -0.9573
vn -0.9580 0.0000 0.2867
vn 0.9573 0.0000 -0.2890
vn -0.9573 0.0000 0.2890
vn -0.9566 0.0000 0.2913
vn -0.9559 0.0000 0.2936
vn 0.9580 0.0000 -0.2867
g CityEngineMaterial_502_CityEngineMaterial_502_CityEngineMaterial_502_mat
usemtl CityEngineMaterial_502_mat
s 1
f 1/1/1 2/2/1 3/3/1 4/4/1
f 2/5/2 5/6/2 6/7/2 3/8/2
f 5/9/3 7/10/3 8/11/3 6/12/3
f 7/13/4 1/14/4 4/15/4 8/16/4
f 9/17/5 10/18/5 11/19/5 12/20/5
f 10/21/6 13/22/6 14/23/6 11/24/6
f 13/25/7 15/26/7 16/27/7 14/28/7
f 15/29/8 9/30/8 12/31/8 16/32/8
f 17/33/9 18/34/9 19/35/9 20/36/9
f 18/37/10 21/38/10 22/39/10 19/40/10
f 21/41/11 23/42/11 24/43/11 22/44/11
f 23/45/12 25/46/12 26/47/12 24/48/12
f 25/49/9 27/50/9 28/51/9 26/52/9
f 27/53/10 29/54/10 30/55/10 28/56/10
f 29/57/13 31/58/13 32/59/13 30/60/13
f 31/61/14 17/62/14 20/63/14 32/64/14
f 33/65/15 34/66/15 35/67/15 36/68/15
f 34/69/16 37/70/16 38/71/16 35/72/16
f 37/73/17 39/74/17 40/75/17 38/76/17
f 39/77/18 41/78/18 42/79/18 40/80/18
f 41/81/15 43/82/15 44/83/15 42/84/15
f 43/85/19 45/86/19 46/87/19 44/88/19
f 45/89/20 47/90/20 48/91/20 46/92/20
f 47/93/21 33/94/21 36/95/21 48/96/21
f 49/97/22 50/98/23 51/99/23 52/100/22
f 50/101/24 53/102/24 54/103/24 51/104/24
f 53/105/25 55/106/25 56/107/25 54/108/25
f 55/109/26 57/110/26 58/111/26 56/112/26
f 57/113/27 49/114/22 52/115/22 58/116/27
f 59/117/28 60/118/28 61/119/28 62/120/28
f 60/121/29 63/122/29 64/123/29 61/124/29
f 63/125/30 65/126/30 66/127/30 64/128/30
f 65/129/31 67/130/31 68/131/31 66/132/31
f 67/133/32 69/134/32 70/135/32 68/136/32
f 69/137/33 59/138/33 62/139/33 70/140/33
f 71/141/34 72/142/34 73/143/34 74/144/34
f 72/145/35 75/146/35 76/147/35 73/148/35
f 75/149/36 77/150/36 78/151/36 76/152/36
f 77/153/37 71/154/37 74/155/37 78/156/37
f 79/157/38 80/158/38 81/159/38 82/160/38
f 80/161/39 83/162/39 84/163/39 81/164/39
f 83/165/40 85/166/40 86/167/40 84/168/40
f 85/169/41 87/170/41 88/171/41 86/172/41
f 87/173/42 89/174/42 90/175/42 88/176/42
f 89/174/41 79/177/41 82/178/41 90/175/41
f 91/179/43 92/180/43 93/181/43 94/182/43
f 92/183/44 95/184/44 96/185/44 93/186/44
f 95/187/45 97/188/45 98/189/45 96/190/45
f 97/191/46 91/192/46 94/193/46 98/194/46
f 99/195/47 100/196/47 101/197/47 102/198/47
f 100/199/48 103/200/48 104/201/48 101/202/48
f 103/203/49 105/204/49 106/205/49 104/206/49
f 105/207/50 107/208/50 108/209/50 106/210/50
f 107/211/51 109/212/51 110/213/51 108/214/51
f 109/215/52 99/216/52 102/217/52 110/218/52
f 111/219/53 112/220/53 113/221/53 114/222/53
f 112/223/54 115/224/54 116/225/54 113/226/54
f 115/227/55 117/228/55 118/229/55 116/230/55
f 117/231/56 119/232/56 120/233/56 118/234/56
f 119/235/57 121/236/57 122/237/57 120/238/57
f 121/239/58 111/240/58 114/241/58 122/242/58
f 123/243/59 124/244/59 125/245/59 126/246/59
f 124/247/60 127/248/60 128/249/60 125/250/60
f 127/251/61 129/252/61 130/253/61 128/254/61
f 129/252/62 131/255/62 132/256/62 130/253/62
f 131/257/63 133/258/63 134/259/63 132/260/63
f 133/261/64 135/262/64 136/263/64 134/264/64
f 135/265/61 137/266/61 138/267/61 136/268/61
f 137/269/65 123/270/65 126/271/65 138/272/65
f 139/273/66 140/274/66 141/275/66 142/276/66
f 140/277/67 143/278/67 144/279/67 141/280/67
f 143/281/68 145/282/68 146/283/68 144/284/68
f 145/285/69 147/286/69 148/287/69 146/288/69
f 147/289/70 149/290/70 150/291/70 148/292/70
f 149/293/71 139/294/71 142/295/71 150/296/71
f 151/297/72 152/298/72 153/299/72 154/300/72
f 152/301/73 155/302/73 156/303/73 153/304/73
f 155/305/74 157/306/74 158/307/74 156/308/74
f 157/309/75 151/310/75 154/311/75 158/312/75
f 159/313/76 160/314/76 161/315/76 162/316/76
f 160/317/77 163/318/77 164/319/77 161/320/77
f 163/321/78 165/322/78 166/323/78 164/324/78
f 165/325/79 167/326/79 168/327/79 166/328/79
f 167/329/80 169/330/80 170/331/80 168/332/80
f 169/333/13 171/334/13 172/335/13 170/336/13
f 171/337/81 173/338/81 174/339/81 172/340/81
f 173/341/9 159/342/9 162/343/9 174/344/9
f 175/345/82 176/346/82 177/347/82 178/348/82
f 176/349/83 179/350/83 180/351/83 177/352/83
f 179/353/82 181/354/82 182/355/82 180/356/82
f 181/357/84 183/358/84 184/359/84 182/360/84
f 183/361/82 185/362/82 186/363/82 184/364/82
f 185/365/85 187/366/86 188/367/86 186/368/85
f 187/369/86 189/370/87 190/371/87 188/372/86
f 189/373/18 191/374/18 192/375/18 190/376/18
f 191/377/88 175/378/88 178/379/88 192/380/88
