# Blender v2.78 (sub 0) OBJ File: ''
# www.blender.org
mtllib CityEngineMaterial_560.mtl
o CityEngineMaterial_560
v -1537.932861 20.821136 381.714111
v -1541.560425 20.821136 389.571289
v -1541.560425 24.927338 389.571289
v -1537.932861 24.927338 381.714111
v -1528.174194 20.821135 395.753510
v -1528.174194 24.927336 395.753510
v -1521.828003 20.821135 398.363892
v -1521.828003 24.927336 398.363892
v -1519.454956 20.821135 392.779388
v -1519.454956 24.927336 392.779388
v -1525.747192 20.821136 390.191315
v -1525.747192 24.927338 390.191315
v -1530.979492 20.821136 387.774902
v -1530.979492 24.927338 387.774902
v -1529.894531 20.821136 385.424591
v -1529.894531 24.927338 385.424591
v 118.273201 19.841011 -65.632103
v 131.117996 19.841011 -67.136299
v 131.117996 22.921612 -67.136299
v 118.273201 22.921612 -65.632103
v 136.859406 19.841011 -67.808701
v 136.859406 22.921612 -67.808701
v 135.177094 19.841013 -86.373001
v 135.177094 22.921614 -86.373001
v 116.869400 19.841013 -84.722397
v 116.869400 22.921614 -84.722397
v 108.976501 43.448135 -817.215027
v 107.358902 43.448135 -827.497314
v 107.358902 47.367935 -827.497314
v 108.976501 47.367935 -817.215027
v 101.444801 43.448135 -826.570923
v 101.444801 47.367935 -826.570923
v 102.893600 43.448135 -817.300476
v 102.893600 47.367935 -817.300476
v 106.132202 43.448135 -817.807678
v 106.132202 47.367935 -817.807678
v 106.291702 43.448135 -816.794312
v 106.291702 47.367935 -816.794312
v 639.359192 32.809853 281.420288
v 635.907288 32.809856 266.193390
v 635.907288 36.036957 266.193390
v 639.359192 36.036953 281.420288
v 621.008484 32.809853 269.555298
v 621.008484 36.036953 269.555298
v 624.185425 32.809853 284.619995
v 624.185425 36.036953 284.619995
v -496.194702 8.069289 -547.897217
v -492.618896 8.069287 -536.136475
v -492.618896 11.339488 -536.136475
v -496.194702 11.339490 -547.897217
v -488.674408 8.069287 -537.333923
v -488.674408 11.339488 -537.333923
v -491.212006 8.069288 -545.693909
v -491.212006 11.339489 -545.693909
v -493.467712 8.069288 -545.009216
v -493.467712 11.339489 -545.009216
v -494.502106 8.069289 -548.411377
v -494.502106 11.339490 -548.411377
v 369.331299 57.687462 -363.051910
v 376.011200 57.687458 -350.226593
v 376.011200 61.439156 -350.226593
v 369.331299 61.439159 -363.051910
v 386.343903 57.687458 -355.615906
v 386.343903 61.439156 -355.615906
v 379.609100 57.687462 -368.504486
v 379.609100 61.439159 -368.504486
v 572.173828 22.269016 517.960388
v 573.071472 22.269016 520.068298
v 573.071472 26.301916 520.068298
v 572.173828 26.301916 517.960388
v 585.221375 22.269016 517.582581
v 585.221375 26.301916 517.582581
v 582.718323 22.269016 511.703613
v 582.718323 26.301916 511.703613
v 573.306519 22.269016 515.710876
v 573.306519 26.301916 515.710876
v 574.096680 22.269016 517.567078
v 574.096680 26.301916 517.567078
v 810.511230 87.910225 -150.371887
v 809.683716 87.910225 -163.157791
v 809.683716 91.844421 -163.157791
v 810.511230 91.844421 -150.371887
v 803.145386 87.910225 -159.917984
v 803.145386 91.844421 -159.917984
v 808.640625 87.910225 -149.441086
v 808.640625 91.844421 -149.441086
v 613.268921 21.214882 723.688416
v 621.913330 21.214882 720.941589
v 621.913330 23.920782 720.941589
v 613.268921 23.920782 723.688416
v 621.799622 21.214884 716.937988
v 621.799622 23.920784 716.937988
v 617.835388 21.214884 718.197571
v 617.835388 23.920784 718.197571
v 617.724915 21.214884 714.257019
v 617.724915 23.920784 714.257019
v 613.046570 21.214884 715.768372
v 613.046570 23.920784 715.768372
v 185.517700 14.509476 147.264099
v 173.339905 14.509476 147.955704
v 173.339905 18.752075 147.955704
v 185.517700 18.752075 147.264099
v 174.555893 14.509472 169.087006
v 174.555893 18.752073 169.087006
v 185.433807 14.509472 168.468796
v 185.433807 18.752073 168.468796
v -257.763306 2.959977 755.590088
v -255.536697 2.959976 757.999023
v -255.536697 6.448277 757.999023
v -257.763306 6.448277 755.590088
v -247.220200 2.959978 750.302185
v -247.220200 6.448278 750.302185
v -256.045197 2.959979 740.754883
v -256.045197 6.448279 740.754883
v -264.365295 2.959978 748.447876
v -264.365295 6.448278 748.447876
v -260.431213 2.959977 752.703918
v -260.431213 6.448277 752.703918
v -259.003296 2.959978 751.383606
v -259.003296 6.448277 751.383606
v -256.335999 2.959977 754.269226
v -256.335999 6.448277 754.269226
v -461.071014 1.313908 -49.141201
v -445.665497 1.313908 -48.748299
v -445.665497 4.464208 -48.748299
v -461.071014 4.464208 -49.141201
v -445.540405 1.313909 -53.655399
v -445.540405 4.464209 -53.655399
v -447.291595 1.313909 -53.700001
v -447.291595 4.464209 -53.700001
v -447.258911 1.313909 -54.986599
v -447.258911 4.464209 -54.986599
v -460.937805 1.313909 -54.363998
v -460.937805 4.464209 -54.363998
v -4.993600 1.319441 362.372192
v 2.695200 1.319441 359.608887
v 2.695200 5.448142 359.608887
v -4.993600 5.448141 362.372192
v 1.931100 1.319442 357.068695
v 1.931100 5.448142 357.068695
v 0.072400 1.319442 357.736603
v 0.072400 5.448142 357.736603
v -0.253000 1.319442 356.654694
v -0.253000 5.448142 356.654694
v -6.177400 1.319442 358.436615
v -6.177400 5.448142 358.436615
v -721.896912 4.522745 340.676392
v -722.820129 4.522743 351.909302
v -722.820129 8.713543 351.909302
v -721.896912 8.713545 340.676392
v -712.942200 4.522742 352.783600
v -712.942200 8.713543 352.783600
v -712.715271 4.522743 350.022491
v -712.715271 8.713543 350.022491
v -709.350403 4.522743 350.299194
v -709.350403 8.713543 350.299194
v -708.648987 4.522744 341.765686
v -708.648987 8.713545 341.765686
v 92.322403 43.630833 -809.091797
v 93.230797 43.630829 -793.408325
v 93.230797 47.061031 -793.408325
v 92.322403 47.061035 -809.091797
v 111.016403 43.630829 -796.164429
v 111.016403 47.061031 -796.164429
v 108.590797 43.630833 -811.648376
v 108.590797 47.061035 -811.648376
v -474.217804 7.800264 832.499084
v -474.482086 7.800263 836.405090
v -474.482086 10.463564 836.405090
v -474.217804 10.463565 832.499084
v -471.015411 7.800263 836.640808
v -471.015411 10.463564 836.640808
v -471.506500 7.800262 843.897827
v -471.506500 10.463563 843.897827
v -466.634003 7.800262 844.239929
v -466.634003 10.463563 844.239929
v -465.877899 7.800264 833.066223
v -465.877899 10.463565 833.066223
v 234.619797 26.962593 43.483204
v 235.885406 26.962589 65.774605
v 235.885406 30.179188 65.774605
v 234.619797 30.179192 43.483204
v 250.102905 26.962589 65.724808
v 250.102905 30.179188 65.724808
v 250.003693 26.962593 43.999104
v 250.003693 30.179192 43.999104
v 248.610397 30.179190 60.219902
v 248.561295 30.179192 49.463802
v 248.561295 34.523991 49.463802
v 248.610397 34.523987 60.219902
v 236.405899 30.179192 49.056305
v 236.405899 34.523991 49.056305
v 237.041901 30.179190 60.260506
v 237.041901 34.523987 60.260506
v 247.319794 30.179190 64.267311
v 247.233597 30.179192 45.374302
v 247.233597 34.523991 45.374302
v 247.319794 34.523987 64.267311
v 237.489502 30.179192 45.047504
v 237.489502 34.523991 45.047504
v 238.582504 30.179190 64.297806
v 238.582504 34.523987 64.297806
v -496.715698 4.572467 -409.091400
v -493.854401 4.572465 -396.867188
v -493.854401 8.505865 -396.867188
v -496.715698 8.505867 -409.091400
v -473.625397 4.572465 -401.597290
v -473.625397 8.505866 -401.597290
v -475.440491 4.572467 -412.600800
v -475.440491 8.505867 -412.600800
v -715.401001 54.673370 -1050.983276
v -721.026917 54.673370 -1056.297974
v -721.026917 58.753971 -1056.297974
v -715.401001 58.753971 -1050.983276
v -729.842224 54.673370 -1052.422241
v -729.842224 58.753971 -1052.422241
v -728.123230 54.673370 -1050.798218
v -728.123230 58.753971 -1050.798218
v -728.524475 54.673370 -1050.399536
v -728.524475 58.753971 -1050.399536
v -722.157471 54.673370 -1044.272827
v -722.157471 58.753971 -1044.272827
v -9.464900 33.562382 -490.425415
v 12.520500 33.562382 -493.844391
v 12.520500 37.395481 -493.844391
v -9.464900 37.395481 -490.425415
v 10.016900 33.562386 -509.739594
v 10.016900 37.395485 -509.739594
v -11.950700 33.562386 -506.299286
v -11.950700 37.395485 -506.299286
vt 0.0000 0.0000
vt 3.5000 0.0000
vt 3.5000 1.0000
vt 0.0000 1.0000
vt 0.0000 0.0000
vt 6.0000 0.0000
vt 6.0000 1.0000
vt 0.0000 1.0000
vt 0.0000 0.0000
vt 2.5000 -0.0000
vt 2.5000 1.0000
vt 0.0000 1.0000
vt 0.5000 0.0000
vt 3.0000 0.0000
vt 3.0000 1.0000
vt 0.5000 1.0000
vt 0.5000 0.0000
vt 3.0000 0.0000
vt 3.0000 1.0000
vt 0.5000 1.0000
vt 0.0000 0.0000
vt 2.5000 -0.0000
vt 2.5000 1.0000
vt 0.0000 1.0000
vt 0.0000 0.0000
vt 1.0000 -0.0000
vt 1.0000 1.0000
vt 0.0000 1.0000
vt 0.0000 0.0000
vt 3.5000 0.0000
vt 3.5000 1.0000
vt 0.0000 1.0000
vt 0.0000 0.0000
vt 5.5000 0.0000
vt 5.5000 1.0000
vt 0.0000 1.0000
vt 0.0000 0.0000
vt 2.5000 -0.0000
vt 2.5000 1.0000
vt 0.0000 1.0000
vt 0.5000 0.0000
vt 8.5000 0.0000
vt 8.5000 1.0000
vt 0.5000 1.0000
vt 0.5000 0.0000
vt 8.5000 0.0000
vt 8.5000 1.0000
vt 0.5000 1.0000
vt 0.5000 0.0000
vt 9.0000 -0.0000
vt 9.0000 1.0000
vt 0.5000 1.0000
vt 0.0000 0.0000
vt 3.5000 0.0000
vt 3.5000 1.0000
vt 0.0000 1.0000
vt 0.5000 0.0000
vt 2.5000 -0.0000
vt 2.5000 1.0000
vt 0.5000 1.0000
vt 0.5000 0.0000
vt 4.0000 0.0000
vt 4.0000 1.0000
vt 0.5000 1.0000
vt 0.0000 0.0000
vt 1.0000 -0.0000
vt 1.0000 1.0000
vt 0.0000 1.0000
vt 0.5000 0.0000
vt 1.0000 -0.0000
vt 1.0000 1.0000
vt 0.5000 1.0000
vt 0.5000 0.0000
vt 1.5000 0.0000
vt 1.5000 1.0000
vt 0.5000 1.0000
vt 0.0000 0.0000
vt 5.0000 -0.0000
vt 5.0000 1.0000
vt 0.0000 1.0000
vt 0.0000 0.0000
vt 5.0000 -0.0000
vt 5.0000 1.0000
vt 0.0000 1.0000
vt 0.0000 0.0000
vt 5.0000 -0.0000
vt 5.0000 1.0000
vt 0.0000 1.0000
vt 0.0000 0.0000
vt 5.0000 -0.0000
vt 5.0000 1.0000
vt 0.0000 1.0000
vt 0.0000 0.0000
vt 6.5000 0.0000
vt 6.5000 1.0000
vt 0.0000 1.0000
vt 0.0000 0.0000
vt 2.5000 -0.0000
vt 2.5000 1.0000
vt 0.0000 1.0000
vt 0.0000 0.0000
vt 5.0000 -0.0000
vt 5.0000 1.0000
vt 0.0000 1.0000
vt 0.5000 0.0000
vt 2.0000 0.0000
vt 2.0000 1.0000
vt 0.5000 1.0000
vt 0.5000 0.0000
vt 2.5000 -0.0000
vt 2.5000 1.0000
vt 0.5000 1.0000
vt 0.0000 0.0000
vt 1.0000 -0.0000
vt 1.0000 1.0000
vt 0.0000 1.0000
vt 0.5000 0.0000
vt 5.5000 0.0000
vt 5.5000 1.0000
vt 0.5000 1.0000
vt 0.0000 0.0000
vt 4.0000 0.0000
vt 4.0000 1.0000
vt 0.0000 1.0000
vt 0.0000 0.0000
vt 5.0000 -0.0000
vt 5.0000 1.0000
vt 0.0000 1.0000
vt 0.0000 0.0000
vt 4.0000 0.0000
vt 4.0000 1.0000
vt 0.0000 1.0000
vt 0.5000 0.0000
vt 1.5000 0.0000
vt 1.5000 1.0000
vt 0.5000 1.0000
vt 0.5000 0.0000
vt 6.5000 0.0000
vt 6.5000 1.0000
vt 0.5000 1.0000
vt 0.5000 0.0000
vt 3.5000 0.0000
vt 3.5000 1.0000
vt 0.5000 1.0000
vt 0.0000 0.0000
vt 5.0000 -0.0000
vt 5.0000 1.0000
vt 0.0000 1.0000
vt 0.5000 0.0000
vt 1.5000 0.0000
vt 1.5000 1.0000
vt 0.5000 1.0000
vt 0.0000 0.0000
vt 1.0000 -0.0000
vt 1.0000 1.0000
vt 0.0000 1.0000
vt 0.5000 0.0000
vt 5.0000 -0.0000
vt 5.0000 1.0000
vt 0.5000 1.0000
vt 0.5000 0.0000
vt 3.0000 0.0000
vt 3.0000 1.0000
vt 0.5000 1.0000
vt 0.5000 0.0000
vt 5.0000 -0.0000
vt 5.0000 1.0000
vt 0.5000 1.0000
vt 0.0000 0.0000
vt 1.0000 -0.0000
vt 1.0000 1.0000
vt 0.0000 1.0000
vt 0.5000 0.0000
vt 4.0000 0.0000
vt 4.0000 1.0000
vt 0.5000 1.0000
vt 0.0000 0.0000
vt 1.5000 0.0000
vt 1.5000 1.0000
vt 0.0000 1.0000
vt 0.0000 0.0000
vt 1.5000 0.0000
vt 1.5000 1.0000
vt 0.0000 1.0000
vt 0.0000 0.0000
vt 1.5000 0.0000
vt 1.5000 1.0000
vt 0.0000 1.0000
vt 0.5000 0.0000
vt 2.5000 -0.0000
vt 2.5000 1.0000
vt 0.5000 1.0000
vt 0.0000 0.0000
vt 3.0000 0.0000
vt 3.0000 1.0000
vt 0.0000 1.0000
vt 0.5000 0.0000
vt 5.5000 0.0000
vt 5.5000 1.0000
vt 0.5000 1.0000
vt 0.0000 0.0000
vt 8.5000 0.0000
vt 8.5000 1.0000
vt 0.0000 1.0000
vt 0.5000 0.0000
vt 5.0000 -0.0000
vt 5.0000 1.0000
vt 0.5000 1.0000
vt 0.5000 0.0000
vt 9.0000 -0.0000
vt 9.0000 1.0000
vt 0.5000 1.0000
vt 0.5000 0.0000
vt 2.0000 0.0000
vt 2.0000 1.0000
vt 0.5000 1.0000
vt 0.5000 0.0000
vt 6.0000 0.0000
vt 6.0000 1.0000
vt 0.5000 1.0000
vt 0.0000 0.0000
vt 6.5000 0.0000
vt 6.5000 1.0000
vt 0.0000 1.0000
vt 0.0000 0.0000
vt 5.5000 0.0000
vt 5.5000 1.0000
vt 0.0000 1.0000
vt 0.0000 0.0000
vt 3.0000 0.0000
vt 3.0000 1.0000
vt 0.0000 1.0000
vt 0.0000 0.0000
vt 1.0000 -0.0000
vt 1.0000 1.0000
vt 0.0000 1.0000
vt 0.0000 0.0000
vt 2.0000 0.0000
vt 2.0000 1.0000
vt 0.0000 1.0000
vt 0.0000 0.0000
vt 1.0000 -0.0000
vt 1.0000 1.0000
vt 0.0000 1.0000
vt 0.0000 0.0000
vt 6.0000 0.0000
vt 6.0000 1.0000
vt 0.0000 1.0000
vt 0.5000 0.0000
vt 2.5000 -0.0000
vt 2.5000 1.0000
vt 0.5000 1.0000
vt 0.0000 0.0000
vt 0.5000 0.0000
vt 0.5000 1.0000
vt 0.0000 1.0000
vt 0.0000 0.0000
vt 0.5000 0.0000
vt 0.5000 1.0000
vt 0.0000 1.0000
vt 0.0000 0.0000
vt 5.5000 0.0000
vt 5.5000 1.0000
vt 0.0000 1.0000
vt 0.0000 0.0000
vt 2.0000 0.0000
vt 2.0000 1.0000
vt 0.0000 1.0000
vt 0.0000 0.0000
vt 3.0000 0.0000
vt 3.0000 1.0000
vt 0.0000 1.0000
vt 0.5000 0.0000
vt 1.5000 0.0000
vt 1.5000 1.0000
vt 0.5000 1.0000
vt 0.0000 0.0000
vt 1.0000 -0.0000
vt 1.0000 1.0000
vt 0.0000 1.0000
vt 0.0000 0.0000
vt 0.5000 0.0000
vt 0.5000 1.0000
vt 0.0000 1.0000
vt 0.0000 0.0000
vt 2.5000 -0.0000
vt 2.5000 1.0000
vt 0.0000 1.0000
vt 0.5000 0.0000
vt 2.0000 0.0000
vt 2.0000 1.0000
vt 0.5000 1.0000
vt 0.0000 0.0000
vt 4.0000 0.0000
vt 4.0000 1.0000
vt 0.0000 1.0000
vt 0.0000 0.0000
vt 3.5000 0.0000
vt 3.5000 1.0000
vt 0.0000 1.0000
vt 0.0000 0.0000
vt 1.0000 -0.0000
vt 1.0000 1.0000
vt 0.0000 1.0000
vt 0.0000 0.0000
vt 1.0000 -0.0000
vt 1.0000 1.0000
vt 0.0000 1.0000
vt 0.5000 0.0000
vt 3.5000 0.0000
vt 3.5000 1.0000
vt 0.5000 1.0000
vt 0.5000 0.0000
vt 5.0000 -0.0000
vt 5.0000 1.0000
vt 0.5000 1.0000
vt 0.5000 0.0000
vt 6.0000 0.0000
vt 6.0000 1.0000
vt 0.5000 1.0000
vt 0.5000 0.0000
vt 6.5000 0.0000
vt 6.5000 1.0000
vt 0.5000 1.0000
vt 0.0000 0.0000
vt 5.5000 0.0000
vt 5.5000 1.0000
vt 0.0000 1.0000
vt 0.5000 0.0000
vt 6.0000 0.0000
vt 6.0000 1.0000
vt 0.5000 1.0000
vt 0.0000 0.0000
vt 1.5000 0.0000
vt 1.5000 1.0000
vt 0.0000 1.0000
vt 0.5000 0.0000
vt 2.0000 0.0000
vt 2.0000 1.0000
vt 0.5000 1.0000
vt 0.0000 0.0000
vt 3.0000 0.0000
vt 3.0000 1.0000
vt 0.0000 1.0000
vt 0.0000 0.0000
vt 2.0000 0.0000
vt 2.0000 1.0000
vt 0.0000 1.0000
vt 0.0000 0.0000
vt 5.0000 -0.0000
vt 5.0000 1.0000
vt 0.0000 1.0000
vt 0.5000 0.0000
vt 4.0000 0.0000
vt 4.0000 1.0000
vt 0.5000 1.0000
vt 0.5000 0.0000
vt 12.5000 0.0000
vt 12.5000 0.5000
vt 0.5000 0.5000
vt 0.0000 0.0000
vt 7.5000 -0.0000
vt 7.5000 0.5000
vt -0.0000 0.5000
vt 0.5000 0.0000
vt 12.5000 0.0000
vt 12.5000 0.5000
vt 0.5000 0.5000
vt 0.0000 0.0000
vt 8.5000 0.0000
vt 8.5000 0.5000
vt -0.0000 0.5000
vt 0.0000 0.0000
vt 6.0000 0.0000
vt 6.0000 1.0000
vt 0.0000 1.0000
vt 0.5000 0.0000
vt 7.0000 0.0000
vt 7.0000 1.0000
vt 0.5000 1.0000
vt 0.5000 0.0000
vt 6.5000 0.0000
vt 6.5000 1.0000
vt 0.5000 1.0000
vt 0.0000 0.0000
vt 6.5000 0.0000
vt 6.5000 1.0000
vt 0.0000 1.0000
vt 0.0000 0.0000
vt 10.0000 0.0000
vt 10.0000 1.0000
vt 0.0000 1.0000
vt 0.5000 0.0000
vt 6.0000 0.0000
vt 6.0000 1.0000
vt 0.5000 1.0000
vt 0.0000 0.0000
vt 10.5000 -0.0000
vt 10.5000 1.0000
vt 0.0000 1.0000
vt 0.0000 0.0000
vt 4.5000 -0.0000
vt 4.5000 1.0000
vt 0.0000 1.0000
vt 0.0000 0.0000
vt 4.5000 -0.0000
vt 4.5000 1.0000
vt 0.0000 1.0000
vt 0.0000 0.0000
vt 8.0000 0.0000
vt 8.0000 1.0000
vt 0.0000 1.0000
vt 0.0000 0.0000
vt 4.0000 0.0000
vt 4.0000 1.0000
vt 0.0000 1.0000
vt 0.0000 0.0000
vt 8.0000 0.0000
vt 8.0000 1.0000
vt 0.0000 1.0000
vt 0.5000 0.0000
vt 3.5000 0.0000
vt 3.5000 1.0000
vt 0.5000 1.0000
vt 0.0000 0.0000
vt 4.0000 0.0000
vt 4.0000 1.0000
vt 0.0000 1.0000
vt 0.5000 0.0000
vt 1.5000 0.0000
vt 1.5000 1.0000
vt 0.5000 1.0000
vt 0.0000 0.0000
vt 0.1000 0.0000
vt 0.1000 1.0000
vt 0.0000 1.0000
vt 0.0000 0.0000
vt 3.5000 0.0000
vt 3.5000 1.0000
vt 0.0000 1.0000
vt 0.0000 0.0000
vt 4.0000 0.0000
vt 4.0000 1.0000
vt 0.0000 1.0000
vt 0.0000 0.0000
vt 9.0000 -0.0000
vt 9.0000 1.0000
vt 0.0000 1.0000
vt 0.5000 0.0000
vt 7.0000 0.0000
vt 7.0000 1.0000
vt 0.5000 1.0000
vt 0.0000 0.0000
vt 9.0000 -0.0000
vt 9.0000 1.0000
vt 0.0000 1.0000
vt 0.5000 0.0000
vt 7.0000 0.0000
vt 7.0000 1.0000
vt 0.5000 1.0000
vn -0.9079 0.0000 -0.4192
vn -0.4193 0.0000 0.9079
vn -0.3804 0.0000 0.9248
vn 0.9204 0.0000 0.3911
vn 0.3804 0.0000 -0.9248
vn 0.4193 0.0000 -0.9079
vn 0.9079 0.0000 0.4191
vn 0.4191 0.0000 -0.9079
vn 0.1163 0.0000 0.9932
vn 0.9959 0.0000 -0.0903
vn -0.0898 0.0000 -0.9960
vn -0.9973 0.0000 0.0733
vn 0.9879 0.0000 -0.1554
vn -0.1548 0.0000 -0.9880
vn -0.9880 0.0000 0.1544
vn 0.1547 0.0000 0.9880
vn -0.9878 0.0000 0.1555
vn 0.1548 0.0000 0.9879
vn 0.9753 0.0000 -0.2211
vn -0.2201 0.0000 -0.9755
vn -0.9785 0.0000 0.2063
vn 0.2063 0.0000 0.9785
vn -0.9568 0.0000 0.2909
vn 0.2905 0.0000 0.9569
vn 0.9569 0.0000 -0.2905
vn -0.2904 0.0000 -0.9569
vn 0.9568 0.0000 -0.2909
vn -0.2907 0.0000 -0.9568
vn -0.8869 0.0000 0.4619
vn 0.4625 0.0000 0.8866
vn 0.8863 0.0000 -0.4631
vn -0.4687 0.0000 -0.8834
vn -0.9201 0.0000 0.3918
vn 0.2004 0.0000 0.9797
vn 0.9201 0.0000 -0.3917
vn -0.3917 0.0000 -0.9201
vn -0.9201 0.0000 0.3917
vn -0.2004 0.0000 -0.9797
vn 0.9979 0.0000 -0.0646
vn -0.4440 0.0000 -0.8960
vn -0.8856 0.0000 0.4645
vn 0.4455 0.0000 0.8953
vn 0.3028 0.0000 0.9530
vn 0.9996 0.0000 -0.0284
vn -0.3028 0.0000 -0.9530
vn 0.9996 0.0000 -0.0280
vn -0.3074 0.0000 -0.9516
vn -0.9996 0.0000 0.0281
vn -0.0567 0.0000 -0.9984
vn -0.9983 0.0000 0.0574
vn 0.0567 0.0000 0.9984
vn 1.0000 0.0000 0.0040
vn -0.7344 0.0000 0.6788
vn 0.6792 0.0000 0.7339
vn 0.7343 0.0000 -0.6788
vn -0.6789 0.0000 -0.7342
vn -0.7343 0.0000 0.6788
vn 0.6789 0.0000 0.7342
vn -0.6792 0.0000 -0.7340
vn -0.0255 0.0000 0.9997
vn 0.9997 0.0000 0.0255
vn 0.0255 0.0000 -0.9997
vn 0.9997 0.0000 0.0254
vn -0.0455 0.0000 -0.9990
vn -0.9997 0.0000 -0.0255
vn 0.3382 0.0000 0.9411
vn 0.9576 0.0000 -0.2881
vn -0.3382 0.0000 -0.9411
vn 0.9576 0.0000 -0.2880
vn -0.2880 0.0000 -0.9576
vn -0.9576 0.0000 0.2880
vn -0.9966 0.0000 -0.0819
vn -0.0882 0.0000 0.9961
vn 0.9966 0.0000 0.0819
vn -0.0820 0.0000 0.9966
vn 0.0819 0.0000 -0.9966
vn -0.9983 0.0000 0.0578
vn 0.1531 0.0000 0.9882
vn 0.9880 0.0000 -0.1548
vn -0.1552 0.0000 -0.9879
vn -0.9977 0.0000 -0.0675
vn -0.0678 0.0000 0.9977
vn -0.0700 0.0000 0.9975
vn 0.9977 0.0000 0.0675
vn 0.0678 0.0000 -0.9977
vn -0.9984 0.0000 0.0567
vn 0.0035 0.0000 1.0000
vn 1.0000 0.0000 -0.0046
vn 0.0335 0.0000 -0.9994
vn -0.9737 0.0000 0.2279
vn 0.2277 0.0000 0.9737
vn 0.9867 0.0000 -0.1628
vn -0.1628 0.0000 -0.9867
vn 0.6867 0.0000 -0.7269
vn -0.4025 0.0000 -0.9154
vn -0.6867 0.0000 0.7269
vn -0.7046 0.0000 -0.7096
vn -0.6934 0.0000 0.7206
vn 0.7047 0.0000 0.7095
vn 0.1537 0.0000 0.9881
vn 0.9878 0.0000 -0.1556
vn -0.1547 0.0000 -0.9880
vn -0.9880 0.0000 0.1547
g CityEngineMaterial_560_CityEngineMaterial_560_CityEngineMaterial_560_mat
usemtl CityEngineMaterial_560_mat
s 1
f 1/1/1 2/2/1 3/3/1 4/4/1
f 2/5/2 5/6/2 6/7/2 3/8/2
f 5/9/3 7/10/3 8/11/3 6/12/3
f 7/13/4 9/14/4 10/15/4 8/16/4
f 9/17/5 11/18/5 12/19/5 10/20/5
f 11/21/6 13/22/6 14/23/6 12/24/6
f 13/25/7 15/26/7 16/27/7 14/28/7
f 15/29/8 1/30/8 4/31/8 16/32/8
f 17/33/9 18/34/9 19/35/9 20/36/9
f 18/37/9 21/38/9 22/39/9 19/40/9
f 21/41/10 23/42/10 24/43/10 22/44/10
f 23/45/11 25/46/11 26/47/11 24/48/11
f 25/49/12 17/50/12 20/51/12 26/52/12
f 27/53/13 28/54/13 29/55/13 30/56/13
f 28/57/14 31/58/14 32/59/14 29/60/14
f 31/61/15 33/62/15 34/63/15 32/64/15
f 33/65/16 35/66/16 36/67/16 34/68/16
f 35/69/17 37/70/17 38/71/17 36/72/17
f 37/73/18 27/74/18 30/75/18 38/76/18
f 39/77/19 40/78/19 41/79/19 42/80/19
f 40/81/20 43/82/20 44/83/20 41/84/20
f 43/85/21 45/86/21 46/87/21 44/88/21
f 45/89/22 39/90/22 42/91/22 46/92/22
f 47/93/23 48/94/23 49/95/23 50/96/23
f 48/97/24 51/98/24 52/99/24 49/100/24
f 51/101/25 53/102/25 54/103/25 52/104/25
f 53/105/26 55/106/26 56/107/26 54/108/26
f 55/109/27 57/110/27 58/111/27 56/112/27
f 57/113/28 47/114/28 50/115/28 58/116/28
f 59/117/29 60/118/29 61/119/29 62/120/29
f 60/121/30 63/122/30 64/123/30 61/124/30
f 63/125/31 65/126/31 66/127/31 64/128/31
f 65/129/32 59/130/32 62/131/32 66/132/32
f 67/133/33 68/134/33 69/135/33 70/136/33
f 68/137/34 71/138/34 72/139/34 69/140/34
f 71/141/35 73/142/35 74/143/35 72/144/35
f 73/145/36 75/146/36 76/147/36 74/148/36
f 75/149/37 77/150/37 78/151/37 76/152/37
f 77/153/38 67/154/38 70/155/38 78/156/38
f 79/157/39 80/158/39 81/159/39 82/160/39
f 80/161/40 83/162/40 84/163/40 81/164/40
f 83/165/41 85/166/41 86/167/41 84/168/41
f 85/169/42 79/170/42 82/171/42 86/172/42
f 87/173/43 88/174/43 89/175/43 90/176/43
f 88/177/44 91/178/44 92/179/44 89/180/44
f 91/181/45 93/182/45 94/183/45 92/184/45
f 93/185/46 95/186/46 96/187/46 94/188/46
f 95/189/47 97/190/47 98/191/47 96/192/47
f 97/193/48 87/194/48 90/195/48 98/196/48
f 99/197/49 100/198/49 101/199/49 102/200/49
f 100/201/50 103/202/50 104/203/50 101/204/50
f 103/205/51 105/206/51 106/207/51 104/208/51
f 105/209/52 99/210/52 102/211/52 106/212/52
f 107/213/53 108/214/53 109/215/53 110/216/53
f 108/217/54 111/218/54 112/219/54 109/220/54
f 111/221/55 113/222/55 114/223/55 112/224/55
f 113/225/56 115/226/56 116/227/56 114/228/56
f 115/229/57 117/230/57 118/231/57 116/232/57
f 117/233/58 119/234/58 120/235/58 118/236/58
f 119/237/57 121/238/57 122/239/57 120/240/57
f 121/241/59 107/242/59 110/243/59 122/244/59
f 123/245/60 124/246/60 125/247/60 126/248/60
f 124/249/61 127/250/61 128/251/61 125/252/61
f 127/253/62 129/254/62 130/255/62 128/256/62
f 129/257/63 131/258/63 132/259/63 130/260/63
f 131/261/64 133/262/64 134/263/64 132/264/64
f 133/265/65 123/266/65 126/267/65 134/268/65
f 135/269/66 136/270/66 137/271/66 138/272/66
f 136/273/67 139/274/67 140/275/67 137/276/67
f 139/277/68 141/278/68 142/279/68 140/280/68
f 141/281/69 143/282/69 144/283/69 142/284/69
f 143/285/70 145/286/70 146/287/70 144/288/70
f 145/289/71 135/290/71 138/291/71 146/292/71
f 147/293/72 148/294/72 149/295/72 150/296/72
f 148/297/73 151/298/73 152/299/73 149/300/73
f 151/301/74 153/302/74 154/303/74 152/304/74
f 153/305/75 155/306/75 156/307/75 154/308/75
f 155/309/74 157/310/74 158/311/74 156/312/74
f 157/313/76 147/314/76 150/315/76 158/316/76
f 159/317/77 160/318/77 161/319/77 162/320/77
f 160/321/78 163/322/78 164/323/78 161/324/78
f 163/325/79 165/326/79 166/327/79 164/328/79
f 165/329/80 159/330/80 162/331/80 166/332/80
f 167/333/81 168/334/81 169/335/81 170/336/81
f 168/337/82 171/338/82 172/339/82 169/340/82
f 171/341/81 173/342/81 174/343/81 172/344/81
f 173/345/83 175/346/83 176/347/83 174/348/83
f 175/349/84 177/350/84 178/351/84 176/352/84
f 177/353/85 167/354/85 170/355/85 178/356/85
f 179/357/86 180/358/86 181/359/86 182/360/86
f 180/361/87 183/362/87 184/363/87 181/364/87
f 183/365/88 185/366/88 186/367/88 184/368/88
f 185/369/89 179/370/89 182/371/89 186/372/89
f 187/373/88 188/374/88 189/375/88 190/376/88
f 188/377/89 191/378/89 192/379/89 189/380/89
f 191/381/86 193/382/86 194/383/86 192/384/86
f 193/385/87 187/386/87 190/387/87 194/388/87
f 195/389/88 196/390/88 197/391/88 198/392/88
f 196/393/89 199/394/89 200/395/89 197/396/89
f 199/397/86 201/398/86 202/399/86 200/400/86
f 201/401/87 195/402/87 198/403/87 202/404/87
f 203/405/90 204/406/90 205/407/90 206/408/90
f 204/409/91 207/410/91 208/411/91 205/412/91
f 207/413/92 209/414/92 210/415/92 208/416/92
f 209/417/93 203/418/93 206/419/93 210/420/93
f 211/421/94 212/422/94 213/423/94 214/424/94
f 212/425/95 215/426/95 216/427/95 213/428/95
f 215/429/96 217/430/96 218/431/96 216/432/96
f 217/433/97 219/434/97 220/435/97 218/436/97
f 219/437/98 221/438/98 222/439/98 220/440/98
f 221/441/99 211/442/99 214/443/99 222/444/99
f 223/445/100 224/446/100 225/447/100 226/448/100
f 224/449/101 227/450/101 228/451/101 225/452/101
f 227/453/102 229/454/102 230/455/102 228/456/102
f 229/457/103 223/458/103 226/459/103 230/460/103
