# Blender v2.78 (sub 0) OBJ File: ''
# www.blender.org
mtllib CityEngineMaterial_122.mtl
o CityEngineMaterial_122
v -1296.599854 14.131521 485.304688
v -1293.726318 14.131523 474.470001
v -1293.726318 15.675523 474.470001
v -1296.599854 15.675521 485.304688
v -1296.259155 14.131523 473.449310
v -1296.259155 15.675523 473.449310
v -1297.348022 14.131522 477.554993
v -1297.348022 15.675522 477.554993
v -1299.815674 14.131523 476.560486
v -1299.815674 15.675523 476.560486
v -1298.761475 14.131523 472.440887
v -1298.761475 15.675523 472.440887
v -1300.938721 14.131523 471.563385
v -1300.938721 15.675523 471.563385
v -1303.720703 14.131522 482.434998
v -1303.720703 15.675522 482.434998
v -632.995728 6.891711 544.913818
v -634.433777 6.891711 544.753906
v -634.433777 8.797711 544.753906
v -632.995728 8.797711 544.913818
v -635.265991 6.891710 552.209717
v -635.265991 8.797710 552.209717
v -624.765198 6.891710 553.377625
v -624.765198 8.797709 553.377625
v -622.495789 6.891713 533.046204
v -622.495789 8.797713 533.046204
v -631.558716 6.891713 532.040100
v -631.558716 8.797713 532.040100
v 487.028595 43.947483 83.318108
v 484.530914 43.947487 68.869011
v 484.530914 45.877689 68.869011
v 487.028595 45.877686 83.318108
v 476.240814 43.947487 70.234406
v 476.240814 45.877689 70.234406
v 478.742615 43.947483 84.685806
v 478.742615 45.877686 84.685806
v 482.233887 43.947483 84.109505
v 482.233887 45.877686 84.109505
v 481.954193 43.947483 82.493607
v 481.954193 45.877686 82.493607
v 484.095795 43.947483 82.140907
v 484.095795 45.877686 82.140907
v 484.375000 43.947483 83.756111
v 484.375000 45.877686 83.756111
v 379.352509 32.669689 77.342606
v 377.001312 32.669689 63.706604
v 377.001312 34.393089 63.706604
v 379.352509 34.393089 77.342606
v 372.820801 32.669689 64.418907
v 372.820801 34.393089 64.418907
v 373.102112 32.669689 66.050407
v 373.102112 34.393089 66.050407
v 367.294006 32.669689 67.032211
v 367.294006 34.393089 67.032211
v 369.382202 32.669689 79.028107
v 369.382202 34.393089 79.028107
v 327.497009 39.021507 -42.433891
v 326.773193 39.021507 -49.166492
v 326.773193 40.748508 -49.166492
v 327.497009 40.748508 -42.433891
v 314.459412 39.021507 -47.900894
v 314.459412 40.748508 -47.900894
v 314.813110 39.021507 -44.609894
v 314.813110 40.748508 -44.609894
v 311.300690 39.021507 -44.507694
v 311.300690 40.748508 -44.507694
v 311.578613 39.021507 -41.970692
v 311.578613 40.748508 -41.970692
v 169.658096 27.153309 -61.517998
v 170.922302 27.153309 -54.317696
v 170.922302 28.844210 -54.317696
v 169.658096 28.844210 -61.517998
v 177.376495 27.153309 -55.433296
v 177.376495 28.844210 -55.433296
v 177.477295 27.153309 -54.701595
v 177.477295 28.844210 -54.701595
v 179.980896 27.153309 -55.130295
v 179.980896 28.844210 -55.130295
v 178.881500 27.153309 -63.112297
v 178.881500 28.844210 -63.112297
v -773.101624 17.894463 837.736572
v -775.369873 17.894463 842.640625
v -775.369873 19.159964 842.640625
v -773.101624 19.159964 837.736572
v -772.764282 17.894463 843.846802
v -772.764282 19.159964 843.846802
v -776.719727 17.894461 852.397095
v -776.719727 19.159962 852.397095
v -770.707520 17.894461 854.001587
v -770.707520 19.159962 854.001587
v -764.932495 17.894463 841.518188
v -764.932495 19.159964 841.518188
v -168.862595 1.313798 623.805481
v -168.603806 1.313796 641.218872
v -168.603806 3.408195 641.218872
v -168.862595 3.408198 623.805481
v -161.245300 1.313795 647.053589
v -161.245300 3.408195 647.053589
v -139.933105 1.313795 646.744324
v -139.933105 3.408195 646.744324
v 360.856995 40.296005 -31.286394
v 362.258514 40.296005 -23.311695
v 362.258514 42.428402 -23.311693
v 360.856995 42.428402 -31.286392
v 367.272797 40.296005 -24.144394
v 367.272797 42.428402 -24.144392
v 365.564789 40.296005 -34.332394
v 365.564789 42.428402 -34.332394
v 362.197998 40.296005 -33.768692
v 362.197998 42.428402 -33.768692
v 362.566589 40.296005 -31.570293
v 362.566589 42.428402 -31.570292
v 643.022217 80.991249 -260.662903
v 644.593384 80.991241 -250.419785
v 644.593384 83.067039 -250.419785
v 643.022217 83.067146 -260.662903
v 652.835571 80.991241 -251.857590
v 652.835571 83.067039 -251.857590
v 651.376526 80.991249 -259.522308
v 651.376526 83.067146 -259.522308
v 648.207520 80.991249 -258.969513
v 648.207520 83.067146 -258.969513
v 647.828125 80.991249 -261.442200
v 647.828125 83.067146 -261.442200
v -243.491699 1.793552 294.959503
v -242.660400 1.793550 303.699097
v -242.660400 4.060950 303.699097
v -243.491699 4.060952 294.959503
v -224.337402 1.793551 301.935913
v -224.337402 4.060951 301.935913
v -225.173996 1.793552 293.218903
v -225.173996 4.060952 293.218903
v 1112.500977 107.493073 -478.894073
v 1108.161987 107.493073 -484.478882
v 1108.161987 109.033073 -484.478882
v 1112.500977 109.033073 -478.894073
v 1112.033691 107.493073 -487.461182
v 1112.033691 109.033073 -487.461182
v 1109.412476 107.493073 -490.838959
v 1109.412476 109.033073 -490.838959
v 1100.679810 107.493073 -484.112274
v 1100.679810 109.033073 -484.112274
v 1108.014282 107.493073 -474.672363
v 1108.014282 109.033073 -474.672363
v -229.649200 2.443870 799.550720
v -233.050598 2.443869 803.872620
v -233.050598 4.508069 803.872620
v -229.649200 4.508070 799.550720
v -221.307693 2.443867 814.709412
v -221.307693 4.508068 814.709412
v -219.819199 2.443868 812.817871
v -219.819199 4.508068 812.817871
v -221.712097 2.443868 811.071106
v -221.712097 4.508068 811.071106
v -220.932999 2.443868 810.081177
v -220.932999 4.508068 810.081177
v -218.915100 2.443868 811.669312
v -218.915100 4.508068 811.669312
v -217.131302 2.443868 809.402527
v -217.131302 4.508068 809.402527
v -671.984924 3.469466 209.938095
v -680.014404 3.469466 211.345398
v -680.014404 5.227766 211.345398
v -671.984924 5.227766 209.938095
v -677.856689 3.469464 223.655502
v -677.856689 5.227764 223.655502
v -676.417786 3.469464 223.403305
v -676.417786 5.227764 223.403305
v -674.799988 3.469462 232.634796
v -674.799988 5.227762 232.634796
v -668.210693 3.469462 231.474594
v -668.210693 5.227762 231.474594
v -244.820099 7.489655 -333.974304
v -252.891205 7.489657 -348.946808
v -252.891205 9.595057 -348.946808
v -244.820099 9.595055 -333.974304
v -261.558807 7.489656 -344.315887
v -261.558807 9.595057 -344.315887
v -253.538300 7.489654 -329.313385
v -253.538300 9.595054 -329.313385
v -846.565125 13.323941 972.937073
v -848.117310 13.323941 972.860596
v -848.117310 14.985641 972.860596
v -846.565125 14.985641 972.937073
v -847.912476 13.323942 968.700012
v -847.912476 14.985642 968.700012
v -856.883789 13.323941 968.861694
v -856.883789 14.985641 968.861694
v -857.309998 13.323940 977.516174
v -857.309998 14.985641 977.516174
v -846.823486 13.323940 978.032593
v -846.823486 14.985641 978.032593
v -341.549011 1.450323 -141.244095
v -325.727905 1.450323 -143.101395
v -325.727905 3.742723 -143.101395
v -341.549011 3.742723 -141.244095
v -327.718811 1.450326 -159.918793
v -327.718811 3.742726 -159.918793
v -343.351715 1.450325 -156.378204
v -343.351715 3.742726 -156.378204
v 105.696800 39.263256 -968.000427
v 110.389297 39.263256 -968.563477
v 110.389297 40.907356 -968.563477
v 105.696800 40.907356 -968.000427
v 110.460098 39.263256 -967.380371
v 110.460098 40.907356 -967.380371
v 114.541901 39.263256 -967.869995
v 114.541901 40.907356 -967.869995
v 113.991798 39.263260 -977.063171
v 113.991798 40.907360 -977.063171
v 104.745300 39.263260 -975.953613
v 104.745300 40.907360 -975.953613
v -5.165700 1.325048 321.412109
v -16.130501 1.325047 324.715912
v -16.130501 3.397647 324.715912
v -5.165700 3.397648 321.412109
v -11.549600 1.325045 339.945709
v -11.549600 3.397645 339.945709
v 2.429800 1.325045 335.740906
v 2.429800 3.397645 335.740906
v 1.158400 1.325046 331.514496
v 1.158400 3.397646 331.514496
v -1.854300 1.325046 332.420807
v -1.854300 3.397646 332.420807
v -140.965698 1.313733 413.077209
v -140.072906 1.313731 422.027008
v -140.072906 3.002931 422.027008
v -140.965698 3.002933 413.077209
v -136.965103 1.313731 421.720306
v -136.965103 3.002931 421.720306
v -137.029404 1.313731 421.075592
v -137.029404 3.002931 421.075592
v -133.732895 1.313731 420.750305
v -133.732895 3.002931 420.750305
v -133.669296 1.313731 421.395111
v -133.669296 3.002931 421.395111
v -129.735794 1.313731 421.006989
v -129.735794 3.002931 421.006989
v -130.619095 1.313733 412.056213
v -130.619095 3.002933 412.056213
vt 0.0000 0.0000
vt 1.5000 0.0000
vt 1.5000 1.0000
vt 0.0000 1.0000
vt 0.8333 0.0000
vt 1.1667 0.0000
vt 1.1667 1.0000
vt 0.8333 1.0000
vt 0.3333 -0.0000
vt 1.0000 0.0000
vt 1.0000 1.0000
vt 0.3333 1.0000
vt 0.1667 0.0000
vt 0.5000 0.0000
vt 0.5000 1.0000
vt 0.1667 1.0000
vt 0.0000 0.0000
vt 0.6667 -0.0000
vt 0.6667 1.0000
vt 0.0000 1.0000
vt 0.1667 0.0000
vt 0.5000 0.0000
vt 0.5000 1.0000
vt 0.1667 1.0000
vt 2.0000 -0.0000
vt 2.0000 1.0000
vt 0.8333 0.0000
vt 1.8333 0.0000
vt 1.8333 1.0000
vt 0.8333 1.0000
vt 0.1667 0.0000
vt 0.3333 -0.0000
vt 0.3333 1.0000
vt 0.1667 1.0000
vt 0.5000 0.0000
vt 1.8333 0.0000
vt 1.8333 1.0000
vt 0.5000 1.0000
vt 0.8333 0.0000
vt 2.6667 0.0000
vt 2.6667 1.0000
vt 0.8333 1.0000
vt 0.3333 -0.0000
vt 3.8333 -0.0000
vt 3.8333 1.0000
vt 0.3333 1.0000
vt 0.1667 0.0000
vt 1.6667 0.0000
vt 1.6667 1.0000
vt 0.1667 1.0000
vt 0.6667 -0.0000
vt 2.8333 0.0000
vt 2.8333 1.0000
vt 0.6667 1.0000
vt 0.3333 -0.0000
vt 2.6667 0.0000
vt 2.6667 1.0000
vt 0.3333 1.0000
vt 0.8333 0.0000
vt 2.1667 -0.0000
vt 2.1667 1.0000
vt 0.8333 1.0000
vt 0.5000 0.0000
vt 2.8333 0.0000
vt 2.8333 1.0000
vt 0.5000 1.0000
vt 0.5000 0.0000
vt 1.0000 0.0000
vt 1.0000 1.0000
vt 0.5000 1.0000
vt 0.6667 -0.0000
vt 1.0000 0.0000
vt 1.0000 1.0000
vt 0.6667 1.0000
vt 0.5000 0.0000
vt 0.8333 0.0000
vt 0.8333 1.0000
vt 0.5000 1.0000
vt 0.1667 0.0000
vt 0.5000 0.0000
vt 0.5000 1.0000
vt 0.1667 1.0000
vt 0.1667 0.0000
vt 0.6667 -0.0000
vt 0.6667 1.0000
vt 0.1667 1.0000
vt 0.6667 -0.0000
vt 2.3333 0.0000
vt 2.3333 1.0000
vt 0.6667 1.0000
vt 0.1667 0.0000
vt 0.6667 -0.0000
vt 0.6667 1.0000
vt 0.1667 1.0000
vt 0.5000 0.0000
vt 0.6667 -0.0000
vt 0.6667 1.0000
vt 0.5000 1.0000
vt 0.1667 0.0000
vt 0.8333 0.0000
vt 0.8333 1.0000
vt 0.1667 1.0000
vt 0.6667 -0.0000
vt 2.1667 -0.0000
vt 2.1667 1.0000
vt 0.6667 1.0000
vt 0.5000 0.0000
vt 1.6667 0.0000
vt 1.6667 1.0000
vt 0.5000 1.0000
vt 0.0000 0.0000
vt 0.8333 0.0000
vt 0.8333 1.0000
vt 0.0000 1.0000
vt 0.1667 0.0000
vt 1.6667 0.0000
vt 1.6667 1.0000
vt 0.1667 1.0000
vt 0.3333 -0.0000
vt 0.6667 -0.0000
vt 0.6667 1.0000
vt 0.3333 1.0000
vt 0.8333 0.0000
vt 1.1667 0.0000
vt 1.1667 1.0000
vt 0.8333 1.0000
vt 0.6667 -0.0000
vt 1.0000 0.0000
vt 1.0000 1.0000
vt 0.6667 1.0000
vt 0.3333 -0.0000
vt 2.1667 -0.0000
vt 2.1667 1.0000
vt 0.3333 1.0000
vt 0.6667 -0.0000
vt 1.5000 0.0000
vt 1.5000 1.0000
vt 0.6667 1.0000
vt 0.5000 0.0000
vt 1.3333 -0.0000
vt 1.3333 1.0000
vt 0.5000 1.0000
vt 0.3333 -0.0000
vt 0.5000 0.0000
vt 0.5000 1.0000
vt 0.3333 1.0000
vt 0.8333 0.0000
vt 0.8333 1.0000
vt 0.5000 0.0000
vt 1.5000 0.0000
vt 1.5000 1.0000
vt 0.5000 1.0000
vt 0.1667 0.0000
vt 1.3333 -0.0000
vt 1.3333 1.0000
vt 0.1667 1.0000
vt 0.3333 -0.0000
vt 1.0000 0.0000
vt 1.0000 1.0000
vt 0.3333 1.0000
vt 0.5000 0.0000
vt 0.8333 0.0000
vt 0.8333 1.0000
vt 0.5000 1.0000
vt 0.3333 -0.0000
vt 1.6667 0.0000
vt 1.6667 1.0000
vt 0.3333 1.0000
vt 0.3333 -0.0000
vt 1.1667 0.0000
vt 1.1667 1.0000
vt 0.3333 1.0000
vt 0.0000 0.0000
vt 1.8333 0.0000
vt 1.8333 1.0000
vt 0.0000 1.0000
vt 0.6667 -0.0000
vt 1.8333 0.0000
vt 1.8333 1.0000
vt 0.6667 1.0000
vt 0.3333 -0.0000
vt 2.5000 0.0000
vt 2.5000 1.0000
vt 0.3333 1.0000
vt 0.6667 -0.0000
vt 1.8333 0.0000
vt 1.8333 1.0000
vt 0.6667 1.0000
vt 0.6667 -0.0000
vt 3.3333 -0.0000
vt 3.3333 1.0000
vt 0.6667 1.0000
vt 0.1667 0.0000
vt 4.8333 0.0000
vt 4.8333 1.0000
vt 0.1667 1.0000
vt 0.5000 0.0000
vt 1.5000 0.0000
vt 1.5000 1.0000
vt 0.5000 1.0000
vt 0.0000 0.0000
vt 0.6667 -0.0000
vt 0.6667 1.0000
vt 0.0000 1.0000
vt 2.0000 -0.0000
vt 2.0000 1.0000
vt 0.3333 -0.0000
vt 0.6667 -0.0000
vt 0.6667 1.0000
vt 0.3333 1.0000
vt 0.5000 0.0000
vt 0.8333 0.0000
vt 0.8333 1.0000
vt 0.5000 1.0000
vt 1.0000 0.0000
vt 1.0000 1.0000
vt 0.3333 -0.0000
vt 1.6667 0.0000
vt 1.6667 1.0000
vt 0.3333 1.0000
vt 0.3333 -0.0000
vt 1.3333 -0.0000
vt 1.3333 1.0000
vt 0.3333 1.0000
vt 0.5000 0.0000
vt 1.5000 0.0000
vt 1.5000 1.0000
vt 0.5000 1.0000
vt 0.1667 0.0000
vt 0.5000 0.0000
vt 0.5000 1.0000
vt 0.1667 1.0000
vt 0.0000 0.0000
vt 0.3333 -0.0000
vt 0.3333 1.0000
vt 0.0000 1.0000
vt 0.6667 -0.0000
vt 1.3333 -0.0000
vt 1.3333 1.0000
vt 0.6667 1.0000
vt 0.5000 0.0000
vt 1.8333 0.0000
vt 1.8333 1.0000
vt 0.5000 1.0000
vt 0.1667 0.0000
vt 2.8333 0.0000
vt 2.8333 1.0000
vt 0.1667 1.0000
vt 0.8333 0.0000
vt 2.1667 -0.0000
vt 2.1667 1.0000
vt 0.8333 1.0000
vt 0.6667 -0.0000
vt 3.3333 -0.0000
vt 3.3333 1.0000
vt 0.6667 1.0000
vt 0.5000 0.0000
vt 1.3333 -0.0000
vt 1.3333 1.0000
vt 0.5000 1.0000
vt 0.6667 -0.0000
vt 1.3333 -0.0000
vt 1.3333 1.0000
vt 0.6667 1.0000
vt 0.6667 -0.0000
vt 1.1667 0.0000
vt 1.1667 1.0000
vt 0.6667 1.0000
vt 0.3333 -0.0000
vt 1.6667 0.0000
vt 1.6667 1.0000
vt 0.3333 1.0000
vt 0.8333 0.0000
vt 2.3333 0.0000
vt 2.3333 1.0000
vt 0.8333 1.0000
vt 0.1667 0.0000
vt 1.0000 0.0000
vt 1.0000 1.0000
vt 0.1667 1.0000
vt 0.0000 0.0000
vt 1.0000 0.0000
vt 1.0000 1.0000
vt 0.0000 1.0000
vt 0.6667 -0.0000
vt 3.3333 -0.0000
vt 3.3333 1.0000
vt 0.6667 1.0000
vt 0.1667 0.0000
vt 0.5000 0.0000
vt 0.5000 1.0000
vt 0.1667 1.0000
vt 0.3333 -0.0000
vt 0.8333 0.0000
vt 0.8333 1.0000
vt 0.3333 1.0000
vt 0.0000 0.0000
vt 0.1667 0.0000
vt 0.1667 1.0000
vt 0.0000 1.0000
vt 0.6667 -0.0000
vt 0.6667 1.0000
vt 0.8333 0.0000
vt 1.3333 -0.0000
vt 1.3333 1.0000
vt 0.8333 1.0000
vt 0.6667 -0.0000
vt 3.3333 -0.0000
vt 3.3333 1.0000
vt 0.6667 1.0000
vt 0.3333 -0.0000
vt 1.5000 0.0000
vt 1.5000 1.0000
vt 0.3333 1.0000
vt 0.6667 -0.0000
vt 2.5000 0.0000
vt 2.5000 1.0000
vt 0.6667 1.0000
vt 0.5000 0.0000
vt 0.6667 -0.0000
vt 0.6667 1.0000
vt 0.5000 1.0000
vt 0.3333 -0.0000
vt 1.6667 0.0000
vt 1.6667 1.0000
vt 0.3333 1.0000
vt 0.3333 -0.0000
vt 1.3333 -0.0000
vt 1.3333 1.0000
vt 0.3333 1.0000
vt 0.5000 0.0000
vt 3.6667 -0.0000
vt 3.6667 1.0000
vt 0.5000 1.0000
vt 0.0000 0.0000
vt 1.8333 0.0000
vt 1.8333 1.0000
vt 0.0000 1.0000
vt 0.1667 0.0000
vt 1.3333 -0.0000
vt 1.3333 1.0000
vt 0.1667 1.0000
vt 0.6667 -0.0000
vt 2.5000 0.0000
vt 2.5000 1.0000
vt 0.6667 1.0000
vt 0.1667 0.0000
vt 1.3333 -0.0000
vt 1.3333 1.0000
vt 0.1667 1.0000
vt 0.1667 0.0000
vt 0.3333 -0.0000
vt 0.3333 1.0000
vt 0.1667 1.0000
vt 0.5000 0.0000
vt 1.0000 0.0000
vt 1.0000 1.0000
vt 0.5000 1.0000
vt 0.3333 -0.0000
vt 1.5000 0.0000
vt 1.5000 1.0000
vt 0.3333 1.0000
vt 0.6667 -0.0000
vt 1.8333 0.0000
vt 1.8333 1.0000
vt 0.6667 1.0000
vt 0.1667 0.0000
vt 1.5000 0.0000
vt 1.5000 1.0000
vt 0.1667 1.0000
vt 0.0000 0.0000
vt 0.6667 -0.0000
vt 0.6667 1.0000
vt 0.0000 1.0000
vt 0.3333 -0.0000
vt 2.3333 0.0000
vt 2.3333 1.0000
vt 0.3333 1.0000
vt 0.1667 0.0000
vt 2.1667 -0.0000
vt 2.1667 1.0000
vt 0.1667 1.0000
vt 0.3333 -0.0000
vt 2.3333 0.0000
vt 2.3333 1.0000
vt 0.3333 1.0000
vt 0.8333 0.0000
vt 2.6667 0.0000
vt 2.6667 1.0000
vt 0.8333 1.0000
vt 0.1667 0.0000
vt 0.8333 0.0000
vt 0.8333 1.0000
vt 0.1667 1.0000
vt 0.6667 -0.0000
vt 0.8333 0.0000
vt 0.8333 1.0000
vt 0.6667 1.0000
vt 0.5000 0.0000
vt 1.1667 0.0000
vt 1.1667 1.0000
vt 0.5000 1.0000
vt 0.6667 -0.0000
vt 2.0000 -0.0000
vt 2.0000 1.0000
vt 0.6667 1.0000
vt 0.6667 -0.0000
vt 2.0000 -0.0000
vt 2.0000 1.0000
vt 0.6667 1.0000
vt 0.1667 0.0000
vt 1.3333 -0.0000
vt 1.3333 1.0000
vt 0.1667 1.0000
vt 0.3333 -0.0000
vt 2.3333 0.0000
vt 2.3333 1.0000
vt 0.3333 1.0000
vt 0.1667 0.0000
vt 3.0000 -0.0000
vt 3.0000 1.0000
vt 0.1667 1.0000
vt 0.3333 -0.0000
vt 3.0000 -0.0000
vt 3.0000 1.0000
vt 0.3333 1.0000
vt 0.0000 0.0000
vt 0.8333 0.0000
vt 0.8333 1.0000
vt 0.0000 1.0000
vt 0.3333 -0.0000
vt 0.8333 0.0000
vt 0.8333 1.0000
vt 0.3333 1.0000
vt 0.0000 0.0000
vt 2.0000 -0.0000
vt 2.0000 1.0000
vt 0.0000 1.0000
vt 0.8333 0.0000
vt 2.3333 0.0000
vt 2.3333 1.0000
vt 0.8333 1.0000
vt 0.1667 0.0000
vt 0.6667 -0.0000
vt 0.6667 1.0000
vt 0.1667 1.0000
vt 0.0000 0.0000
vt 0.1667 0.0000
vt 0.1667 1.0000
vt 0.0000 1.0000
vt 0.3333 -0.0000
vt 0.8333 0.0000
vt 0.8333 1.0000
vt 0.3333 1.0000
vt 0.1667 0.0000
vt 0.3333 -0.0000
vt 0.3333 1.0000
vt 0.1667 1.0000
vt 0.1667 0.0000
vt 0.8333 0.0000
vt 0.8333 1.0000
vt 0.1667 1.0000
vt 0.6667 -0.0000
vt 2.1667 -0.0000
vt 2.1667 1.0000
vt 0.6667 1.0000
vt 0.3333 -0.0000
vt 2.1667 -0.0000
vt 2.1667 1.0000
vt 0.3333 1.0000
vn 0.9666 0.0000 0.2564
vn 0.3738 0.0000 -0.9275
vn -0.9666 0.0000 -0.2563
vn 0.9688 0.0000 0.2479
vn -0.9688 0.0000 -0.2479
vn -0.3738 0.0000 0.9275
vn 0.1105 0.0000 -0.9939
vn -0.9938 0.0000 -0.1109
vn -0.1105 0.0000 0.9939
vn 0.9938 0.0000 0.1109
vn 0.1103 0.0000 -0.9939
vn 0.9854 0.0000 -0.1703
vn -0.1625 0.0000 -0.9867
vn -0.9853 0.0000 0.1706
vn 0.1629 0.0000 0.9866
vn 0.9853 0.0000 -0.1706
vn 0.1625 0.0000 0.9867
vn -0.9854 0.0000 0.1703
vn 0.9855 0.0000 -0.1699
vn -0.1680 0.0000 -0.9858
vn -0.9855 0.0000 0.1699
vn -0.1667 0.0000 -0.9860
vn -0.9852 0.0000 0.1715
vn 0.1667 0.0000 0.9860
vn 0.9943 0.0000 -0.1069
vn -0.1022 0.0000 -0.9948
vn -0.9943 0.0000 0.1069
vn -0.0291 0.0000 -0.9996
vn -0.9941 0.0000 0.1089
vn 0.0291 0.0000 0.9996
vn -0.9849 0.0000 0.1729
vn 0.1703 0.0000 0.9854
vn -0.9906 0.0000 0.1365
vn 0.1688 0.0000 0.9857
vn 0.9906 0.0000 -0.1364
vn -0.1703 0.0000 -0.9854
vn -0.9076 0.0000 -0.4198
vn -0.4201 0.0000 0.9075
vn -0.9076 0.0000 -0.4199
vn -0.2579 0.0000 0.9662
vn 0.9076 0.0000 0.4199
vn 0.4201 0.0000 -0.9075
vn -0.9999 0.0000 0.0149
vn -0.6213 0.0000 0.7836
vn 0.0145 0.0000 0.9999
vn 0.6213 0.0000 -0.7836
vn -0.9849 0.0000 0.1731
vn 0.1638 0.0000 0.9865
vn 0.9862 0.0000 -0.1653
vn -0.1651 0.0000 -0.9863
vn -0.9862 0.0000 0.1654
vn -0.1638 0.0000 -0.9865
vn -0.9884 0.0000 0.1516
vn 0.1718 0.0000 0.9851
vn 0.9824 0.0000 -0.1870
vn -0.1718 0.0000 -0.9851
vn 0.9884 0.0000 -0.1517
vn -0.1601 0.0000 -0.9871
vn -0.9955 0.0000 0.0947
vn 0.0958 0.0000 0.9954
vn 0.9954 0.0000 -0.0955
vn -0.0946 0.0000 -0.9955
vn 0.7897 0.0000 -0.6135
vn 0.6102 0.0000 0.7922
vn 0.7900 0.0000 -0.6131
vn -0.6102 0.0000 -0.7922
vn -0.7897 0.0000 0.6135
vn 0.6853 0.0000 0.7283
vn -0.7858 0.0000 -0.6185
vn -0.6782 0.0000 0.7349
vn 0.7859 0.0000 0.6184
vn 0.6782 0.0000 -0.7349
vn 0.7858 0.0000 0.6184
vn -0.6185 0.0000 0.7858
vn 0.6185 0.0000 -0.7858
vn -0.1726 0.0000 -0.9850
vn -0.9850 0.0000 0.1726
vn 0.1726 0.0000 0.9850
vn 0.1734 0.0000 0.9849
vn 0.9850 0.0000 -0.1726
vn 0.8803 0.0000 -0.4745
vn -0.4712 0.0000 -0.8820
vn -0.8819 0.0000 0.4715
vn 0.4715 0.0000 0.8819
vn 0.0492 0.0000 -0.9988
vn 0.9988 0.0000 0.0492
vn -0.0180 0.0000 -0.9998
vn -0.9988 0.0000 -0.0492
vn -0.0492 0.0000 0.9988
vn 0.9987 0.0000 0.0506
vn 0.1166 0.0000 0.9932
vn 0.9931 0.0000 -0.1176
vn -0.2209 0.0000 -0.9753
vn -0.9930 0.0000 0.1183
vn 0.1191 0.0000 0.9929
vn -0.9982 0.0000 0.0597
vn 0.9982 0.0000 -0.0597
vn -0.1191 0.0000 -0.9929
vn -0.9929 0.0000 0.1188
vn -0.2885 0.0000 -0.9575
vn -0.9576 0.0000 0.2880
vn 0.2880 0.0000 0.9576
vn 0.9576 0.0000 -0.2881
vn -0.2881 0.0000 -0.9576
vn 0.9576 0.0000 -0.2880
vn -0.9951 0.0000 0.0993
vn 0.0982 0.0000 0.9952
vn 0.9951 0.0000 -0.0992
vn -0.9952 0.0000 0.0982
vn 0.9952 0.0000 -0.0982
vn -0.0982 0.0000 -0.9952
g CityEngineMaterial_122_CityEngineMaterial_122_CityEngineMaterial_122_mat
usemtl CityEngineMaterial_122_mat
s 1
f 1/1/1 2/2/1 3/3/1 4/4/1
f 2/5/2 5/6/2 6/7/2 3/8/2
f 5/9/3 7/10/3 8/11/3 6/12/3
f 7/13/2 9/14/2 10/15/2 8/16/2
f 9/17/4 11/18/4 12/19/4 10/20/4
f 11/21/2 13/22/2 14/23/2 12/24/2
f 13/22/5 15/25/5 16/26/5 14/23/5
f 15/27/6 1/28/6 4/29/6 16/30/6
f 17/31/7 18/32/7 19/33/7 20/34/7
f 18/35/8 21/36/8 22/37/8 19/38/8
f 21/39/9 23/40/9 24/41/9 22/42/9
f 23/43/10 25/44/10 26/45/10 24/46/10
f 25/47/11 27/48/11 28/49/11 26/50/11
f 27/51/8 17/52/8 20/53/8 28/54/8
f 29/55/12 30/56/12 31/57/12 32/58/12
f 30/59/13 33/60/13 34/61/13 31/62/13
f 33/63/14 35/64/14 36/65/14 34/66/14
f 35/67/15 37/68/15 38/69/15 36/70/15
f 37/71/16 39/72/16 40/73/16 38/74/16
f 39/75/17 41/76/17 42/77/17 40/78/17
f 41/79/18 43/80/18 44/81/18 42/82/18
f 43/83/15 29/84/15 32/85/15 44/86/15
f 45/87/19 46/88/19 47/89/19 48/90/19
f 46/91/20 49/92/20 50/93/20 47/94/20
f 49/95/21 51/96/21 52/97/21 50/98/21
f 51/99/22 53/100/22 54/101/22 52/102/22
f 53/103/23 55/104/23 56/105/23 54/106/23
f 55/107/24 45/108/24 48/109/24 56/110/24
f 57/111/25 58/112/25 59/113/25 60/114/25
f 58/115/26 61/116/26 62/117/26 59/118/26
f 61/119/27 63/120/27 64/121/27 62/122/27
f 63/123/28 65/124/28 66/125/28 64/126/28
f 65/127/29 67/128/29 68/129/29 66/130/29
f 67/131/30 57/132/30 60/133/30 68/134/30
f 69/135/31 70/136/31 71/137/31 72/138/31
f 70/139/32 73/140/32 74/141/32 71/142/32
f 73/143/33 75/144/33 76/145/33 74/146/33
f 75/144/34 77/147/34 78/148/34 76/145/34
f 77/149/35 79/150/35 80/151/35 78/152/35
f 79/153/36 69/154/36 72/155/36 80/156/36
f 81/157/37 82/158/37 83/159/37 84/160/37
f 82/161/38 85/162/38 86/163/38 83/164/38
f 85/165/39 87/166/39 88/167/39 86/168/39
f 87/169/40 89/170/40 90/171/40 88/172/40
f 89/173/41 91/174/41 92/175/41 90/176/41
f 91/177/42 81/178/42 84/179/42 92/180/42
f 93/181/43 94/182/43 95/183/43 96/184/43
f 94/185/44 97/186/44 98/187/44 95/188/44
f 97/189/45 99/190/45 100/191/45 98/192/45
f 99/193/46 93/194/46 96/195/46 100/196/46
f 101/197/47 102/198/47 103/199/47 104/200/47
f 102/201/48 105/202/48 106/203/48 103/204/48
f 105/202/49 107/205/49 108/206/49 106/203/49
f 107/207/50 109/208/50 110/209/50 108/210/50
f 109/211/51 111/212/51 112/213/51 110/214/51
f 111/212/52 101/215/52 104/216/52 112/213/52
f 113/217/53 114/218/53 115/219/53 116/220/53
f 114/221/54 117/222/54 118/223/54 115/224/54
f 117/225/55 119/226/55 120/227/55 118/228/55
f 119/229/56 121/230/56 122/231/56 120/232/56
f 121/233/57 123/234/57 124/235/57 122/236/57
f 123/237/58 113/238/58 116/239/58 124/240/58
f 125/241/59 126/242/59 127/243/59 128/244/59
f 126/245/60 129/246/60 130/247/60 127/248/60
f 129/249/61 131/250/61 132/251/61 130/252/61
f 131/253/62 125/254/62 128/255/62 132/256/62
f 133/257/63 134/258/63 135/259/63 136/260/63
f 134/261/64 137/262/64 138/263/64 135/264/64
f 137/265/65 139/266/65 140/267/65 138/268/65
f 139/269/66 141/270/66 142/271/66 140/272/66
f 141/273/67 143/274/67 144/275/67 142/276/67
f 143/277/68 133/278/68 136/279/68 144/280/68
f 145/281/69 146/282/69 147/283/69 148/284/69
f 146/285/70 149/286/70 150/287/70 147/288/70
f 149/289/71 151/290/71 152/291/71 150/292/71
f 151/293/72 153/294/72 154/295/72 152/296/72
f 153/297/73 155/298/73 156/299/73 154/300/73
f 155/298/74 157/301/74 158/302/74 156/299/74
f 157/303/71 159/304/71 160/305/71 158/306/71
f 159/307/75 145/308/75 148/309/75 160/310/75
f 161/311/76 162/312/76 163/313/76 164/314/76
f 162/315/77 165/316/77 166/317/77 163/318/77
f 165/319/78 167/320/78 168/321/78 166/322/78
f 167/323/77 169/324/77 170/325/77 168/326/77
f 169/327/79 171/328/79 172/329/79 170/330/79
f 171/331/80 161/332/80 164/333/80 172/334/80
f 173/335/81 174/336/81 175/337/81 176/338/81
f 174/339/82 177/340/82 178/341/82 175/342/82
f 177/343/83 179/344/83 180/345/83 178/346/83
f 179/347/84 173/348/84 176/349/84 180/350/84
f 181/351/85 182/352/85 183/353/85 184/354/85
f 182/355/86 185/356/86 186/357/86 183/358/86
f 185/359/87 187/360/87 188/361/87 186/362/87
f 187/363/88 189/364/88 190/365/88 188/366/88
f 189/367/89 191/368/89 192/369/89 190/370/89
f 191/371/90 181/372/90 184/373/90 192/374/90
f 193/375/91 194/376/91 195/377/91 196/378/91
f 194/379/92 197/380/92 198/381/92 195/382/92
f 197/383/93 199/384/93 200/385/93 198/386/93
f 199/387/94 193/388/94 196/389/94 200/390/94
f 201/391/95 202/392/95 203/393/95 204/394/95
f 202/395/96 205/396/96 206/397/96 203/398/96
f 205/399/95 207/400/95 208/401/95 206/402/95
f 207/403/97 209/404/97 210/405/97 208/406/97
f 209/407/98 211/408/98 212/409/98 210/410/98
f 211/411/99 201/412/99 204/413/99 212/414/99
f 213/415/100 214/416/100 215/417/100 216/418/100
f 214/419/101 217/420/101 218/421/101 215/422/101
f 217/423/102 219/424/102 220/425/102 218/426/102
f 219/427/103 221/428/103 222/429/103 220/430/103
f 221/431/104 223/432/104 224/433/104 222/434/104
f 223/435/105 213/436/105 216/437/105 224/438/105
f 225/439/106 226/440/106 227/441/106 228/442/106
f 226/443/107 229/444/107 230/445/107 227/446/107
f 229/447/108 231/448/108 232/449/108 230/450/108
f 231/451/107 233/452/107 234/453/107 232/454/107
f 233/455/109 235/456/109 236/457/109 234/458/109
f 235/459/107 237/460/107 238/461/107 236/462/107
f 237/463/110 239/464/110 240/465/110 238/466/110
f 239/467/111 225/468/111 228/469/111 240/470/111
