# Blender v2.78 (sub 0) OBJ File: ''
# www.blender.org
mtllib CityEngineMaterial_667.mtl
o CityEngineMaterial_667
v -716.705627 13.053941 365.693298
v -720.859070 13.053941 365.351807
v -719.637207 13.691240 366.792603
v -718.145813 13.691040 366.914795
v -721.078003 13.053940 368.015411
v -716.924194 13.053940 368.354309
v 220.452698 85.714584 -528.416809
v 220.814697 85.714584 -526.173279
v 221.382294 85.994881 -526.959412
v 221.238693 85.994881 -527.849121
v 222.168396 85.714584 -526.391724
v 221.806396 85.714584 -528.635315
v 220.145401 85.714584 -528.367188
v 220.362106 85.714584 -527.023926
v 220.925400 85.992683 -527.804016
v 221.853897 85.714584 -527.264587
v 221.073898 85.992683 -527.827881
v 221.637207 85.714584 -528.607910
v 235.469406 24.083370 190.818100
v 235.343002 24.083370 188.591995
v 234.716507 24.382570 189.294006
v 234.767395 24.382570 190.191498
v 234.014496 24.083370 188.667404
v 234.140900 24.083370 190.893494
v 235.655396 24.083370 189.500397
v 235.602997 24.083370 188.577194
v 235.167603 24.291269 189.065002
v 234.180603 24.083370 188.658005
v 234.668396 24.291269 189.093399
v 234.233002 24.083370 189.581207
v -500.165894 10.091559 252.478195
v -495.006287 10.091559 251.766907
v -495.189789 10.607059 250.436203
v -500.349396 10.607059 251.147598
v -495.373291 10.091559 249.105606
v -500.532898 10.091559 249.817001
v -497.811798 10.091559 252.745300
v -498.075287 10.091559 250.834106
v -499.212311 10.532059 250.990799
v -498.948914 10.532059 252.902100
v -500.349396 10.091559 251.147598
v -500.085907 10.091559 253.058899
v -1055.294556 18.641510 555.078796
v -1055.825195 18.641510 553.256714
v -1056.470703 19.077810 554.434082
v -1057.762451 18.641510 553.823303
v -1056.585083 19.077810 554.467590
v -1057.229126 18.641510 555.644470
v -1055.753906 18.641510 554.404480
v -1056.067383 18.641510 553.327576
v -1056.448975 18.899410 554.023621
v -1058.213501 18.641510 553.955383
v -1057.517212 18.899509 554.336182
v -1057.898071 18.641510 555.032471
v 252.457504 78.655884 102.997719
v 252.759003 78.655884 108.288414
v 253.976700 79.254486 106.921616
v 253.822601 79.254585 104.216019
v 255.341599 78.655884 108.137817
v 255.040497 78.655884 102.851418
v 251.843399 78.655884 105.169212
v 252.023605 78.655884 108.330315
v 253.435806 79.350082 106.745514
v 253.426498 79.350082 106.581512
v 255.018707 78.655884 108.156212
v 254.838898 78.655884 104.998512
v 232.459503 39.033413 -71.117790
v 229.099396 39.033413 -70.538292
v 229.321198 39.731613 -69.252090
v 232.681305 39.731613 -69.831589
v 229.542999 39.033413 -67.965996
v 232.903198 39.033413 -68.545395
v 229.046494 39.033413 -70.844994
v 229.321198 39.033413 -69.252090
v 230.260895 39.543510 -69.414192
v 229.986206 39.543510 -71.006996
v 231.200699 39.033413 -69.576294
v 230.925995 39.033413 -71.169090
v 78.428596 42.536343 343.937286
v 76.084602 42.536343 344.834198
v 76.622902 42.736744 345.074585
v 78.188202 42.736744 344.475586
v 76.382500 42.536343 345.612915
v 78.726501 42.536343 344.716003
v 77.153000 42.536343 344.200195
v 76.009399 42.536343 344.637787
v 76.616203 42.762241 344.908691
v 76.882004 42.762241 344.807098
v 76.345299 42.536343 345.515503
v 77.488800 42.536343 345.078003
v -1133.901489 17.458237 380.489899
v -1130.399170 17.458237 380.628204
v -1130.369019 17.851040 379.864807
v -1133.871460 17.851040 379.726410
v -1130.339111 17.458239 379.101288
v -1133.841553 17.458239 378.963013
v -1132.342896 17.458239 379.786804
v -1132.305786 17.458239 378.847900
v -1133.070190 17.851540 378.817688
v -1133.107178 17.851439 379.756592
v -1133.834595 17.458239 378.787506
v -1133.871460 17.458239 379.726410
v -273.961212 41.430569 182.345398
v -271.284302 41.430569 181.854294
v -271.346313 41.613869 181.516800
v -274.023010 41.613869 182.007904
v -271.408203 41.430569 181.179306
v -274.084991 41.430569 181.670395
v -271.267395 41.430569 181.946594
v -271.346313 41.430569 181.516800
v -272.095795 41.837570 181.654297
v -272.016907 41.837570 182.084106
v -272.845306 41.430569 181.791794
v -272.766388 41.430569 182.221603
v 29.979099 28.055136 -221.338806
v 31.960100 28.055136 -221.750504
v 31.856400 28.265936 -222.249100
v 29.875500 28.265936 -221.837402
v 31.752800 28.055136 -222.747803
v 29.771799 28.055136 -222.335999
v 31.516500 28.055136 -221.446793
v 31.370701 28.055136 -222.148193
v 30.865999 28.268536 -222.043304
v 31.011700 28.268536 -221.341904
v 30.361200 28.055136 -221.938400
v 30.507000 28.055136 -221.237000
v -462.121307 28.711124 -151.994293
v -457.718292 28.711124 -153.332397
v -458.022186 29.203224 -154.335602
v -462.425110 29.202925 -152.996994
v -458.326111 28.711124 -155.338806
v -462.728790 28.711124 -153.999603
v -460.126099 28.711124 -153.695999
v -458.023407 28.711124 -154.335297
v -458.200012 28.998024 -154.920197
v -460.303894 28.997925 -154.280502
v -458.376709 28.711124 -155.505203
v -460.481689 28.711124 -154.865005
v -50.768200 46.365650 -917.509094
v -50.313000 46.365650 -914.607300
v -48.863201 46.966248 -914.834473
v -49.318600 46.966148 -917.736084
v -47.413300 46.365650 -915.061584
v -47.869099 46.365650 -917.963318
v -49.094799 46.365650 -916.310791
v -47.095402 46.365650 -916.624878
v -47.207298 46.660748 -917.337219
v -49.206699 46.661049 -917.023804
v -47.319099 46.365650 -918.049622
v -49.318600 46.365650 -917.736816
v 643.825073 30.932222 477.190002
v 643.235779 30.932222 474.496704
v 642.475586 31.227222 474.663086
v 643.064880 31.227222 477.356293
v 641.715393 30.932222 474.829407
v 642.304688 30.932222 477.522705
v 643.957825 30.932222 475.725006
v 642.765076 30.932222 475.985992
v 642.914978 31.198122 476.671112
v 644.107727 31.198122 476.410187
v 643.064880 30.932222 477.356293
v 644.257629 30.932222 477.095306
v 709.833374 35.474533 429.003296
v 708.399719 35.474533 429.340302
v 708.534424 35.724133 429.913391
v 709.968018 35.724133 429.576508
v 708.669128 35.474533 430.486511
v 710.102783 35.474533 430.149597
v -1130.222534 16.235853 294.938599
v -1130.876709 16.235853 298.381500
v -1130.090942 16.647053 298.530914
v -1129.436646 16.647053 295.088013
v -1129.305176 16.235851 298.680389
v -1128.650879 16.235853 295.237488
v -1129.722290 16.235853 296.590698
v -1128.755737 16.235853 296.774414
v -1128.612915 16.628952 296.023102
v -1129.579468 16.629053 295.839294
v -1128.470215 16.235853 295.271790
v -1129.436646 16.235853 295.088013
v 91.729301 65.365593 59.490612
v 91.544701 65.365593 55.976212
v 90.674103 65.684692 56.021912
v 90.858704 65.684692 59.536312
v 89.803497 65.365593 56.067711
v 89.987999 65.365593 59.582012
v 389.940613 80.404968 -444.177490
v 394.126312 80.404976 -446.278687
v 393.898712 80.625175 -446.732086
v 389.713013 80.625168 -444.631012
v 393.670990 80.404976 -447.185608
v 389.485413 80.404976 -445.084412
v -298.511108 29.220751 -320.976898
v -296.567200 29.220751 -317.340912
v -295.729889 29.662651 -317.788605
v -297.673798 29.662651 -321.424591
v -294.892487 29.220751 -318.236206
v -296.836395 29.220751 -321.872314
v -296.838898 29.220751 -317.195587
v -295.729889 29.220751 -317.788605
v -296.152710 29.638151 -318.579407
v -297.261688 29.638151 -317.986511
v -296.575500 29.220751 -319.370300
v -297.684509 29.220751 -318.777405
v -373.253510 10.930066 821.206970
v -375.545105 10.930066 820.796814
v -375.453003 10.981566 820.929016
v -373.385712 10.981566 821.299072
v -375.585297 10.930066 821.021118
v -373.293610 10.930066 821.431396
v -373.920502 10.930066 821.034424
v -374.859589 10.930066 820.866211
v -374.757904 10.986966 821.012390
v -374.066589 10.986966 821.136230
v -374.904114 10.930066 821.114075
v -373.964813 10.930066 821.282288
vt -0.0594 -0.0602
vt 0.8839 -0.0602
vt 0.5815 0.2748
vt 0.2428 0.2747
vt -0.0383 -0.0867
vt 0.5666 -0.0867
vt 0.2641 0.2483
vt -0.0648 -0.0811
vt 0.8785 -0.0811
vt 0.5764 0.2537
vt 0.2377 0.2539
vt -0.0592 -0.0668
vt 0.5450 -0.0668
vt 0.2428 0.2681
vt -0.0965 -0.0220
vt 0.4764 -0.0220
vt 0.3035 0.1647
vt 0.0763 0.1647
vt -0.0968 -0.0272
vt 0.2488 -0.0272
vt 0.0760 0.1595
vt -0.0028 -0.0555
vt 0.5700 -0.0555
vt 0.3972 0.1312
vt 0.1700 0.1312
vt -0.0311 -0.0410
vt 0.3146 -0.0410
vt 0.1417 0.1457
vt -0.0734 -0.0571
vt 0.2695 -0.0571
vt 0.0980 0.1282
vt -0.0327 -0.0177
vt 0.3482 -0.0177
vt 0.1767 0.1675
vt 0.1388 0.1675
vt -0.0926 -0.0589
vt 0.2504 -0.0589
vt 0.0789 0.1263
vt -0.0346 -0.0768
vt 0.3463 -0.0768
vt 0.1749 0.1084
vt 0.1369 0.1084
vt -0.0648 -0.0509
vt 0.3974 -0.0509
vt 0.2595 0.1003
vt 0.0731 0.1003
vt -0.0309 -0.0504
vt 0.2450 -0.0504
vt 0.1071 0.1009
vt -0.0303 -0.0229
vt 0.4319 -0.0229
vt 0.2940 0.1283
vt 0.1076 0.1283
vt -0.0029 -0.0024
vt 0.2730 -0.0024
vt 0.1351 0.1489
vt -0.0596 -0.0163
vt 0.1321 -0.0163
vt 0.0363 0.0888
vt -0.0779 -0.0174
vt 0.2175 -0.0174
vt 0.1216 0.0877
vt 0.0180 0.0877
vt -0.0790 -0.0036
vt 0.1127 -0.0036
vt 0.0169 0.1015
vt -0.0652 -0.0716
vt 0.2302 -0.0716
vt 0.1343 0.0335
vt 0.0307 0.0335
vt -0.0278 -0.0216
vt 1.0279 -0.0216
vt 1.0279 0.2700
vt -0.0278 0.2700
vt -0.0020 -0.0555
vt 1.0536 -0.0555
vt 1.0536 0.2361
vt -0.0020 0.2361
vt -0.0463 -0.0705
vt 0.3447 -0.0705
vt 0.3447 0.1787
vt -0.0463 0.1787
vt -0.0509 -0.0458
vt 0.3402 -0.0458
vt 0.3402 0.2034
vt -0.0509 0.2034
vt -0.0632 -0.0218
vt 0.3019 -0.0218
vt 0.1191 0.1791
vt -0.0032 -0.0152
vt 0.3852 -0.0152
vt 0.2025 0.1857
vt 0.1796 0.1857
vt -0.0724 -0.0469
vt 0.2928 -0.0469
vt 0.1103 0.1541
vt -0.0283 -0.0374
vt 0.3595 -0.0374
vt 0.1772 0.1635
vt 0.1542 0.1635
vt -0.0621 -0.0136
vt 0.1536 -0.0136
vt 0.0456 0.1052
vt -0.0707 -0.0321
vt 0.3595 -0.0321
vt 0.2515 0.0867
vt 0.0374 0.0867
vt -0.0135 -0.0163
vt 0.2024 -0.0163
vt 0.0945 0.1026
vt -0.0734 -0.0090
vt 0.3564 -0.0090
vt 0.2487 0.1097
vt 0.0346 0.1098
vt -0.0238 -0.0583
vt 1.1487 -0.0583
vt 0.8621 0.2571
vt 0.2625 0.2571
vt -0.0369 -0.0483
vt 0.5355 -0.0483
vt 0.2497 0.2671
vt -0.0269 -0.0111
vt 1.1447 -0.0111
vt 0.8585 0.3043
vt 0.2589 0.3043
vt -0.0768 -0.0431
vt 0.4956 -0.0431
vt 0.2093 0.2723
vt -0.0189 -0.0700
vt 0.6816 -0.0700
vt 0.3493 0.2957
vt 0.3130 0.2957
vt -0.0486 -0.0628
vt 0.6152 -0.0628
vt 0.2837 0.3030
vt -0.0414 -0.0814
vt 0.6584 -0.0814
vt 0.3265 0.2843
vt 0.2902 0.2843
vt -0.0600 -0.0280
vt 0.6038 -0.0280
vt 0.2719 0.3377
vt -0.0441 -0.0241
vt 0.6572 -0.0241
vt 0.6572 0.2803
vt -0.0441 0.2803
vt -0.0042 -0.0146
vt 0.6970 -0.0146
vt 0.6970 0.2898
vt -0.0042 0.2898
vt -0.0275 -0.0637
vt 0.3050 -0.0637
vt 0.3050 0.1587
vt -0.0275 0.1587
vt -0.0438 -0.0663
vt 0.2886 -0.0663
vt 0.2886 0.1561
vt -0.0438 0.1561
vt -0.0027 -0.0311
vt 0.5000 -0.0311
vt 0.4165 0.0616
vt 0.0808 0.0616
vt -0.0117 -0.0089
vt 0.1553 -0.0089
vt 0.0718 0.0837
vt -0.0684 -0.0247
vt 0.4343 -0.0247
vt 0.3508 0.0679
vt 0.0151 0.0679
vt -0.0053 -0.0019
vt 0.1617 -0.0019
vt 0.0782 0.0908
vt -0.0574 -0.0678
vt 0.1878 -0.0678
vt 0.0937 0.0367
vt 0.0367 0.0367
vt -0.0484 -0.0635
vt 0.1399 -0.0635
vt 0.0457 0.0409
vt -0.0441 -0.0360
vt 0.2011 -0.0360
vt 0.1070 0.0684
vt 0.0500 0.0684
vt -0.0167 -0.0483
vt 0.1716 -0.0483
vt 0.0775 0.0561
vt -0.0384 -0.0444
vt 0.6230 -0.0444
vt 0.6230 0.1177
vt -0.0385 0.1177
vt -0.0261 -0.0458
vt 0.6354 -0.0458
vt 0.6353 0.1163
vt -0.0261 0.1163
vt -0.0150 -0.0135
vt 0.1624 -0.0135
vt 0.1624 0.1488
vt -0.0150 0.1487
vt -0.0696 -0.0472
vt 0.1077 -0.0472
vt 0.1078 0.1151
vt -0.0695 0.1151
vt -0.0488 -0.0581
vt 0.4405 -0.0581
vt 0.4405 0.0119
vt -0.0488 0.0119
vt -0.0407 -0.0087
vt 0.4485 -0.0087
vt 0.4485 0.0613
vt -0.0407 0.0613
vt -0.0666 -0.0090
vt 0.0120 -0.0090
vt 0.0120 0.1463
vt -0.0666 0.1463
vt -0.0624 -0.0012
vt 0.0161 -0.0012
vt 0.0161 0.1541
vt -0.0624 0.1541
vt -0.0450 -0.0784
vt 0.3618 -0.0784
vt 0.3618 0.0324
vt -0.0450 0.0324
vt -0.0590 -0.0302
vt 0.3478 -0.0302
vt 0.3478 0.0806
vt -0.0590 0.0806
vt -0.0632 -0.0640
vt 0.0808 -0.0640
vt 0.0808 0.0482
vt -0.0632 0.0482
vt -0.0445 -0.0070
vt 0.0995 -0.0070
vt 0.0995 0.1052
vt -0.0445 0.1052
vt -0.0306 -0.0020
vt 0.7488 -0.0020
vt 0.7489 0.1941
vt -0.0304 0.1940
vt -0.0523 -0.0372
vt 0.7270 -0.0372
vt 0.7272 0.1588
vt -0.0521 0.1589
vt -0.0062 -0.0321
vt 0.3660 -0.0321
vt 0.3661 0.0822
vt -0.0063 0.0822
vt -0.0158 -0.0528
vt 0.3568 -0.0528
vt 0.3568 0.0615
vt -0.0155 0.0616
vt -0.0298 -0.0770
vt 0.5543 -0.0770
vt 0.5544 0.2384
vt -0.0297 0.2383
vt -0.0577 -0.0610
vt 0.5264 -0.0610
vt 0.5265 0.2543
vt -0.0576 0.2543
vt -0.0355 -0.0361
vt 0.3670 -0.0361
vt 0.3670 0.1189
vt -0.0355 0.1190
vt -0.0167 -0.0633
vt 0.3857 -0.0633
vt 0.3856 0.0917
vt -0.0168 0.0916
vt -0.0539 -0.0185
vt 0.5865 -0.0185
vt 0.5865 0.1748
vt -0.0539 0.1748
vt -0.0875 -0.0571
vt 0.5529 -0.0571
vt 0.5529 0.1362
vt -0.0875 0.1362
vt -0.0391 -0.0595
vt 0.2444 -0.0595
vt 0.2444 0.1147
vt -0.0391 0.1147
vt -0.0371 -0.0522
vt 0.2465 -0.0522
vt 0.2465 0.1220
vt -0.0371 0.1220
vt -0.0089 -0.0564
vt 0.2863 -0.0564
vt 0.2863 0.0718
vt -0.0089 0.0718
vt -0.0370 -0.0724
vt 0.2582 -0.0724
vt 0.2582 0.0558
vt -0.0370 0.0558
vt -0.0384 -0.0444
vt 0.6229 -0.0444
vt 0.6229 0.1254
vt -0.0384 0.1254
vt -0.0261 -0.0458
vt 0.6352 -0.0458
vt 0.6352 0.1240
vt -0.0261 0.1240
vt -0.0150 -0.0135
vt 0.1707 -0.0135
vt 0.1707 0.1487
vt -0.0150 0.1487
vt -0.0696 -0.0472
vt 0.1161 -0.0472
vt 0.1161 0.1151
vt -0.0695 0.1151
vt -0.0455 -0.0353
vt 0.6243 -0.0353
vt 0.6243 0.1414
vt -0.0455 0.1414
vt -0.0169 -0.0409
vt 0.6529 -0.0409
vt 0.6529 0.1358
vt -0.0169 0.1358
vt -0.0526 -0.0460
vt 0.7699 -0.0459
vt 0.7699 0.0512
vt -0.0526 0.0512
vt -0.0290 -0.0450
vt 0.7934 -0.0450
vt 0.7934 0.0521
vt -0.0290 0.0521
vt -0.0533 -0.0476
vt 0.8956 -0.0476
vt 0.8956 0.1934
vt -0.0533 0.1934
vt -0.0253 -0.0445
vt 0.9235 -0.0445
vt 0.9235 0.1966
vt -0.0253 0.1966
vt -0.0058 -0.0871
vt 0.2836 -0.0871
vt 0.2836 0.1405
vt -0.0058 0.1405
vt -0.0649 -0.0660
vt 0.2245 -0.0660
vt 0.2245 0.1617
vt -0.0649 0.1617
vt -0.0115 -0.0708
vt 0.4265 -0.0708
vt 0.4051 -0.0473
vt 0.0100 -0.0473
vt -0.0526 -0.0630
vt -0.0098 -0.0630
vt -0.0312 -0.0395
vt -0.0448 -0.0426
vt 0.3932 -0.0426
vt 0.3717 -0.0191
vt -0.0234 -0.0191
vt -0.0244 -0.0574
vt 0.0184 -0.0574
vt -0.0030 -0.0339
vt -0.0406 -0.0699
vt 0.1389 -0.0699
vt 0.1152 -0.0439
vt -0.0169 -0.0439
vt -0.0517 -0.0714
vt -0.0043 -0.0714
vt -0.0280 -0.0454
vt -0.0532 -0.0087
vt 0.1263 -0.0087
vt 0.1026 0.0173
vt -0.0295 0.0173
vt -0.0645 -0.0604
vt -0.0172 -0.0604
vt -0.0408 -0.0344
vn 0.0353 0.9025 -0.4291
vn -0.4292 0.9025 -0.0353
vn -0.0350 0.9026 0.4292
vn 0.4292 0.9025 0.0353
vn -0.3736 0.9256 0.0603
vn 0.0603 0.9256 0.3736
vn 0.3736 0.9256 -0.0603
vn -0.0603 0.9256 -0.3736
vn -0.3735 0.9257 0.0603
vn 0.0602 0.9257 0.3735
vn 0.3735 0.9257 -0.0603
vn 0.4095 0.9120 -0.0232
vn -0.0233 0.9120 -0.4095
vn -0.4095 0.9120 0.0232
vn 0.0232 0.9120 0.4095
vn 0.4094 0.9120 -0.0232
vn 0.0233 0.9120 0.4095
vn 0.0489 0.9336 0.3549
vn -0.0489 0.9336 -0.3549
vn 0.3549 0.9336 -0.0489
vn -0.3549 0.9336 0.0489
vn 0.4011 0.9086 -0.1168
vn -0.1173 0.9086 -0.4010
vn -0.4008 0.9086 0.1174
vn 0.1172 0.9085 0.4010
vn -0.1173 0.9085 -0.4010
vn -0.4009 0.9086 0.1174
vn 0.1174 0.9086 0.4009
vn -0.4193 0.9075 0.0239
vn 0.0244 0.9075 0.4193
vn 0.4193 0.9075 -0.0239
vn -0.0238 0.9075 -0.4194
vn -0.0239 0.9075 -0.4193
vn -0.0802 0.8818 -0.4648
vn 0.0802 0.8818 0.4648
vn -0.4648 0.8818 0.0802
vn 0.4648 0.8818 -0.0802
vn -0.1548 0.9013 -0.4047
vn -0.4047 0.9013 0.1548
vn 0.1548 0.9013 0.4046
vn 0.4047 0.9013 -0.1548
vn -0.4047 0.9013 0.1549
vn 0.1548 0.9013 0.4047
vn 0.4046 0.9013 -0.1548
vn -0.0180 0.8894 0.4569
vn 0.0180 0.8894 -0.4569
vn 0.4569 0.8893 0.0181
vn -0.4568 0.8894 -0.0179
vn 0.0850 0.8820 0.4635
vn -0.0850 0.8820 -0.4634
vn 0.4634 0.8821 -0.0851
vn -0.4634 0.8821 0.0851
vn 0.0778 0.9240 0.3745
vn -0.0778 0.9240 -0.3744
vn 0.3745 0.9240 -0.0778
vn -0.3745 0.9240 0.0778
vn 0.1236 0.9052 0.4066
vn -0.1237 0.9052 -0.4066
vn -0.3742 0.9255 0.0587
vn 0.3742 0.9255 -0.0588
vn 0.0588 0.9255 0.3742
vn -0.0585 0.9255 -0.3742
vn 0.3463 0.9351 -0.0758
vn -0.3463 0.9351 0.0758
vn -0.0758 0.9351 -0.3463
vn 0.0758 0.9351 0.3463
vn -0.0893 0.9207 -0.3800
vn 0.0893 0.9207 0.3800
vn -0.4492 0.8893 -0.0854
vn 0.4492 0.8894 0.0854
vn -0.0853 0.8894 0.4491
vn 0.0855 0.8894 -0.4491
vn 0.3432 0.9391 -0.0180
vn -0.3432 0.9391 0.0180
vn 0.1786 0.9173 0.3558
vn -0.1786 0.9173 -0.3558
vn -0.3721 0.9066 0.1989
vn 0.3721 0.9066 -0.1989
vn 0.1990 0.9066 0.3721
vn -0.1989 0.9066 -0.3721
vn 0.0726 0.9114 -0.4051
vn -0.4055 0.9112 -0.0727
vn -0.0725 0.9113 0.4053
vn 0.4052 0.9113 0.0725
vn 0.0726 0.9113 -0.4052
vn -0.4052 0.9113 -0.0728
vn -0.0726 0.9112 0.4055
vn 0.4054 0.9113 0.0725
g CityEngineMaterial_667_CityEngineMaterial_667_CityEngineMaterial_667_mat
usemtl CityEngineMaterial_667_mat
s 1
f 1/1/1 2/2/1 3/3/1 4/4/1
f 2/5/2 5/6/2 3/7/2
f 5/8/3 6/9/3 4/10/3 3/11/3
f 6/12/4 1/13/4 4/14/4
f 7/15/5 8/16/5 9/17/5 10/18/5
f 8/19/6 11/20/6 9/21/6
f 11/22/7 12/23/7 10/24/7 9/25/7
f 12/26/8 7/27/8 10/28/8
f 13/29/9 14/30/9 15/31/9
f 14/32/10 16/33/10 17/34/10 15/35/10
f 16/36/11 18/37/11 17/38/11
f 18/39/8 13/40/8 15/41/8 17/42/8
f 19/43/12 20/44/12 21/45/12 22/46/12
f 20/47/13 23/48/13 21/49/13
f 23/50/14 24/51/14 22/52/14 21/53/14
f 24/54/15 19/55/15 22/56/15
f 25/57/16 26/58/16 27/59/16
f 26/60/13 28/61/13 29/62/13 27/63/13
f 28/64/14 30/65/14 29/66/14
f 30/67/17 25/68/17 27/69/17 29/70/17
f 31/71/18 32/72/18 33/73/18 34/74/18
f 35/75/19 36/76/19 34/77/19 33/78/19
f 37/79/20 38/80/20 39/81/20 40/82/20
f 41/83/21 42/84/21 40/85/21 39/86/21
f 43/87/22 44/88/22 45/89/22
f 44/90/23 46/91/23 47/92/23 45/93/23
f 46/94/24 48/95/24 47/96/24
f 48/97/25 43/98/25 45/99/25 47/100/25
f 49/101/22 50/102/22 51/103/22
f 50/104/26 52/105/26 53/106/26 51/107/26
f 52/108/27 54/109/27 53/110/27
f 54/111/28 49/112/28 51/113/28 53/114/28
f 55/115/29 56/116/29 57/117/29 58/118/29
f 56/119/30 59/120/30 57/121/30
f 59/122/31 60/123/31 58/124/31 57/125/31
f 60/126/32 55/127/32 58/128/32
f 61/129/29 62/130/29 63/131/29 64/132/29
f 62/133/30 65/134/30 63/135/30
f 65/136/31 66/137/31 64/138/31 63/139/31
f 66/140/33 61/141/33 64/142/33
f 67/143/34 68/144/34 69/145/34 70/146/34
f 71/147/35 72/148/35 70/149/35 69/150/35
f 73/151/36 74/152/36 75/153/36 76/154/36
f 77/155/37 78/156/37 76/157/37 75/158/37
f 79/159/38 80/160/38 81/161/38 82/162/38
f 80/163/39 83/164/39 81/165/39
f 83/166/40 84/167/40 82/168/40 81/169/40
f 84/170/41 79/171/41 82/172/41
f 85/173/38 86/174/38 87/175/38 88/176/38
f 86/177/42 89/178/42 87/179/42
f 89/180/43 90/181/43 88/182/43 87/183/43
f 90/184/44 85/185/44 88/186/44
f 91/187/45 92/188/45 93/189/45 94/190/45
f 95/191/46 96/192/46 94/193/46 93/194/46
f 97/195/47 98/196/47 99/197/47 100/198/47
f 101/199/48 102/200/48 100/201/48 99/202/48
f 103/203/49 104/204/49 105/205/49 106/206/49
f 107/207/50 108/208/50 106/209/50 105/210/50
f 109/211/51 110/212/51 111/213/51 112/214/51
f 113/215/52 114/216/52 112/217/52 111/218/52
f 115/219/53 116/220/53 117/221/53 118/222/53
f 119/223/54 120/224/54 118/225/54 117/226/54
f 121/227/55 122/228/55 123/229/55 124/230/55
f 125/231/56 126/232/56 124/233/56 123/234/56
f 127/235/57 128/236/57 129/237/57 130/238/57
f 131/239/58 132/240/58 130/241/58 129/242/58
f 133/243/57 134/244/57 135/245/57 136/246/57
f 137/247/58 138/248/58 136/249/58 135/250/58
f 139/251/59 140/252/59 141/253/59 142/254/59
f 143/255/60 144/256/60 142/257/60 141/258/60
f 145/259/61 146/260/61 147/261/61 148/262/61
f 149/263/62 150/264/62 148/265/62 147/266/62
f 151/267/63 152/268/63 153/269/63 154/270/63
f 155/271/64 156/272/64 154/273/64 153/274/64
f 157/275/65 158/276/65 159/277/65 160/278/65
f 161/279/66 162/280/66 160/281/66 159/282/66
f 163/283/67 164/284/67 165/285/67 166/286/67
f 167/287/68 168/288/68 166/289/68 165/290/68
f 169/291/69 170/292/69 171/293/69 172/294/69
f 173/295/70 174/296/70 172/297/70 171/298/70
f 175/299/71 176/300/71 177/301/71 178/302/71
f 179/303/72 180/304/72 178/305/72 177/306/72
f 181/307/73 182/308/73 183/309/73 184/310/73
f 185/311/74 186/312/74 184/313/74 183/314/74
f 187/315/75 188/316/75 189/317/75 190/318/75
f 191/319/76 192/320/76 190/321/76 189/322/76
f 193/323/77 194/324/77 195/325/77 196/326/77
f 197/327/78 198/328/78 196/329/78 195/330/78
f 199/331/79 200/332/79 201/333/79 202/334/79
f 203/335/80 204/336/80 202/337/80 201/338/80
f 205/339/81 206/340/81 207/341/81 208/342/81
f 206/343/82 209/344/82 207/345/82
f 209/346/83 210/347/83 208/348/83 207/349/83
f 210/350/84 205/351/84 208/352/84
f 211/353/85 212/354/85 213/355/85 214/356/85
f 212/357/86 215/358/86 213/359/86
f 215/360/87 216/361/87 214/362/87 213/363/87
f 216/364/88 211/365/88 214/366/88
