# Blender v2.78 (sub 0) OBJ File: ''
# www.blender.org
mtllib CityEngineMaterial_385.mtl
o CityEngineMaterial_385
v -288.004791 7.930740 -249.967697
v -282.660187 7.930738 -233.929199
v -268.197998 7.930739 -238.740204
v -273.970795 7.930742 -256.682800
v -285.976410 32.529640 -249.106796
v -281.614899 32.529636 -236.018097
v -270.271912 32.529636 -239.791504
v -274.964111 32.529640 -254.376007
v -271.070801 33.279739 -240.196503
v -275.346893 33.279743 -253.487198
v -277.434296 33.279743 -252.488403
v -274.734802 33.279739 -244.097702
v -282.747986 33.279739 -241.432007
v -281.212097 33.279739 -236.822998
v -777.336975 10.673079 131.461502
v -772.908691 10.673079 130.685501
v -773.852478 10.673080 125.300102
v -791.829407 10.673079 128.450500
v -776.271484 10.673079 137.541901
v -789.820007 10.673078 139.916702
v -781.193115 11.805879 130.226105
v -787.679382 11.805879 131.362793
v -787.437622 11.805878 132.742706
v -784.716614 11.805878 132.265793
v -784.186707 11.805878 135.289597
v -780.421387 11.805878 134.629700
v 650.544922 42.496655 280.346405
v 646.531494 42.496658 262.506989
v 640.625793 42.496658 263.839691
v 641.873718 42.496655 269.386993
v 640.749817 42.496655 269.623993
v 643.499817 42.496655 281.832092
v 645.257812 43.533955 270.973785
v 644.641418 43.533955 271.103699
v 644.657288 43.533955 271.174500
v 645.262817 43.533955 279.085785
v 643.534119 43.533955 271.411407
v 647.761230 43.533955 278.558899
v 644.016479 43.533958 265.456390
v 644.775024 43.533958 265.285309
v 536.615784 60.020016 -85.598389
v 535.048523 60.020016 -100.112793
v 505.123291 60.020016 -96.870491
v 506.690399 60.020016 -82.381393
v 536.615784 70.897812 -85.598381
v 535.958130 70.897812 -91.688889
v 506.031586 70.897812 -88.471687
v 506.690399 70.897812 -82.381386
v 523.046082 70.897812 -90.300781
v 522.141724 70.897812 -98.714287
v 505.123291 70.897812 -96.870483
v 530.957520 72.217812 -87.680183
v 530.587524 72.217812 -91.111488
v 511.403412 72.217812 -89.049187
v 511.773712 72.217812 -85.617882
v 522.901428 72.217812 -84.124084
v 522.615417 72.217812 -86.783386
v 518.640015 72.217812 -86.355988
v 518.925781 72.217812 -83.696686
v 519.540771 71.618813 -93.881187
v 519.055725 71.618813 -98.379982
v 508.208588 71.618813 -97.204681
v 508.695496 71.618813 -92.706184
v 516.099915 71.618813 -89.553284
v 515.676270 71.618813 -93.462486
v 510.206207 71.618813 -92.869888
v 510.628906 71.618813 -88.967781
v -135.147400 5.048175 155.184402
v -156.236206 5.048174 158.063797
v -158.258408 5.048174 158.688400
v -159.220795 5.048172 171.804504
v -159.577301 5.048174 159.506897
v -161.573700 5.048174 160.092499
v -132.870895 5.048173 166.473602
v -135.111404 62.640274 160.967316
v -159.596497 62.640274 164.309616
v -158.353195 62.640274 170.498718
v -134.175797 62.640274 165.607315
v -157.432602 63.483273 165.849411
v -157.164703 63.483372 167.182419
v -144.383698 63.483372 165.437714
v -136.317398 63.483372 164.185410
v -144.310196 63.483372 165.802414
v -136.556503 63.483372 162.999710
v -275.400696 7.758790 672.284790
v -288.865509 7.758793 657.726196
v -289.062408 7.758790 672.094299
v -280.597809 18.264391 667.818970
v -288.109314 18.264393 659.697388
v -288.219086 18.264391 667.712708
v -286.879395 18.987192 666.409485
v -283.660187 18.987192 666.454407
v -286.833008 18.987192 663.023987
v -88.536499 17.250446 -275.538513
v -86.448402 17.250444 -263.685303
v -75.348099 17.250444 -265.635193
v -82.977402 17.250446 -275.172485
v -77.194702 17.250446 -276.188293
v -83.206703 17.250446 -276.474213
v -88.063599 17.961344 -272.853790
v -86.691704 17.961344 -265.066406
v -79.400101 17.961344 -266.348206
v -80.772003 17.961344 -274.135590
v -80.467598 17.961344 -272.407593
v -75.591599 17.961344 -267.017609
v -76.649902 17.961344 -273.080109
v -46.971100 7.935789 66.200996
v -44.281101 7.935789 66.413101
v -43.049999 7.935792 50.792999
v -47.782700 7.935792 50.419300
v -47.620998 8.514292 53.204300
v -47.073700 8.514290 63.847599
v -45.400101 8.514290 63.761600
v -45.947399 8.514292 53.118198
v -45.557098 8.514291 60.708302
v -45.479401 8.514290 62.218201
v -44.453701 8.514290 62.165501
v -44.531300 8.514291 60.655602
v -789.093506 21.889071 800.650574
v -779.704712 21.889069 803.144287
v -778.587219 21.889071 798.963928
v -783.771912 21.889071 797.586792
v -781.539978 21.889072 789.237122
v -785.743103 21.889072 788.116821
v -902.739014 7.782266 209.645996
v -904.635315 7.782268 198.883102
v -910.483276 7.782268 199.908005
v -909.838196 7.782267 203.569397
v -922.626709 7.782265 213.131302
v -919.435608 7.782267 205.251297
v -924.519409 7.782267 202.367798
v -920.079590 7.782267 201.589706
v -468.716309 8.171495 30.194601
v -466.857513 8.171495 29.969002
v -467.209808 8.171495 27.406603
v -480.474915 8.171495 29.016602
v -467.774689 8.171494 37.046799
v -479.187286 8.171494 38.386600
v -470.669189 9.417095 27.826502
v -478.726013 9.417095 28.804401
v -478.132507 9.417094 33.694401
v -470.075714 9.417094 32.716499
v -473.665314 9.417094 33.152199
v -473.119293 9.417094 37.650200
v -469.529785 9.417094 37.214500
v -476.331787 9.417094 33.475800
v -477.586609 9.417093 38.192299
v -475.785889 9.417094 37.973801
v -445.611786 6.668872 170.320496
v -446.175110 6.668875 153.383896
v -461.323090 6.668875 153.893402
v -460.730011 6.668872 170.816605
v -445.895599 24.640373 161.788696
v -446.175110 24.640375 153.383896
v -461.323090 24.640375 153.893402
v -461.028595 24.640373 162.297699
v -445.611786 22.037472 170.320496
v -445.895599 22.037474 161.788696
v -454.392792 22.037474 162.074493
v -454.106110 22.037472 170.599197
v -447.312988 25.268576 154.600494
v -460.104889 25.268576 155.030701
v -460.061096 25.268576 156.279800
v -457.141510 25.268576 156.181595
v -456.981812 25.268574 160.983307
v -447.111694 25.268574 160.651306
v -448.979614 23.040373 167.190994
v -451.849396 23.040373 167.285202
v -451.820099 23.040373 168.156204
v -448.056000 23.040373 168.032593
v -449.076996 23.040373 164.263901
v -448.182404 23.040373 164.233795
v 488.222900 58.438316 -84.186295
v 486.968201 58.438313 -80.434593
v 496.830902 58.438313 -81.321396
v 488.315399 58.438316 -84.686394
v 488.337189 58.438316 -85.194595
v 488.287415 58.438316 -85.700493
v 505.858093 58.438316 -90.077194
v 506.655701 58.438316 -82.377594
v 485.745697 58.438316 -100.541893
v 503.723389 58.438316 -102.482689
v 489.982513 66.684914 -83.731789
v 489.566711 66.684914 -82.488495
v 496.652802 66.684914 -83.125694
v 490.121185 66.684914 -84.481789
v 490.153900 66.684914 -85.244896
v 490.085205 66.684914 -85.942589
v 487.858185 66.684914 -98.946594
v 497.653687 66.684914 -83.233192
v 494.833710 66.684914 -99.699593
v 496.206512 65.520615 -91.683090
v 497.653687 65.520615 -83.233192
v 504.666412 65.520615 -83.987091
v 504.061096 65.520615 -89.829796
v 503.526489 65.520615 -92.936691
v 497.257690 68.014915 -85.337891
v 495.054901 68.014915 -98.200394
v 490.409302 68.014915 -97.404793
v 492.612091 68.014915 -84.542290
v 491.781494 68.014915 -89.391991
v 489.559692 68.014915 -89.011391
v 490.390198 68.014915 -84.161789
v 496.447601 66.973618 -90.534790
v 497.505890 66.973618 -84.355392
v 501.663086 66.973618 -85.067390
v 500.604889 66.973618 -91.246796
v 501.046509 66.973618 -88.667892
v 503.813385 66.973618 -89.141693
v 503.371704 66.973618 -91.720589
v 501.428101 66.973618 -86.439491
v 504.429901 66.973618 -85.541191
v 504.194885 66.973618 -86.913391
v -505.722412 12.518009 555.840027
v -512.299988 12.518009 555.761902
v -512.380188 12.518008 562.507812
v -513.640686 12.518007 566.262512
v -513.596008 12.518008 562.493286
v -505.847412 12.518007 566.355225
v -505.738007 12.985709 557.151428
v -509.196686 12.985709 557.110229
v -509.290497 12.985707 565.002686
v -505.831787 12.985707 565.043823
v -509.212097 12.985709 558.412903
v -512.331177 12.985709 558.375793
v -512.384216 12.985708 562.840698
v -509.265198 12.985708 562.877808
vt 0.5821 -0.0000
vt -0.0000 0.0177
vt 0.0052 1.5519
vt 0.6542 1.5519
vt 1.0767 -0.0000
vt 0.0000 0.0155
vt 0.0092 1.3087
vt 1.2050 1.3087
vt 0.0089 0.7631
vt 1.1813 0.7631
vt 1.1551 0.6001
vt 0.4149 0.6001
vt 0.4079 0.0000
vt 0.0000 0.0036
vt 0.2104 0.5695
vt -0.0000 0.5695
vt -0.0000 1.0739
vt 0.8542 1.0739
vt 0.2104 0.0000
vt 0.8542 -0.0000
vt 0.0000 1.0000
vt 1.0000 1.0000
vt 1.0000 0.6867
vt 0.5805 0.6867
vt 0.5805 0.0000
vt 0.0000 0.0000
vt 0.0000 1.0000
vt 0.8303 1.0000
vt 0.8301 0.1595
vt 0.5719 0.1595
vt 0.5726 -0.0000
vt 0.0044 0.0005
vt 0.5726 0.6957
vt 0.5732 0.4492
vt 0.5680 0.4492
vt 0.0025 0.0008
vt 0.5691 -0.0000
vt 0.0000 1.0000
vt 0.9799 0.6957
vt 0.9799 1.0000
vt 0.0002 0.0000
vt 0.0000 1.5603
vt 1.3973 1.5603
vt 1.3974 0.0027
vt 0.0000 0.0000
vt 0.0001 1.0000
vt 1.5085 1.0000
vt 1.5083 0.0000
vt 0.0002 0.0000
vt 0.0000 0.5615
vt 0.5467 0.5615
vt 0.5467 0.0009
vt 0.0000 0.0000
vt 0.0000 1.0000
vt 0.7120 1.0000
vt 0.7119 0.0000
vt 0.0000 0.0000
vt 0.0000 1.0000
vt 1.0000 1.0000
vt 1.0000 0.0000
vt 0.0002 0.0000
vt 0.0000 1.0000
vt 0.9832 1.0000
vt 0.9833 -0.0000
vt 0.0000 0.0000
vt 0.0000 1.0000
vt 1.0000 1.0000
vt 1.0000 0.0018
vt 1.5440 0.1511
vt 0.3244 0.0000
vt 0.2035 0.0235
vt 0.0000 1.4311
vt 0.1200 0.0836
vt 0.0009 0.1034
vt 1.5436 1.4311
vt 0.0112 1.0000
vt 0.9340 1.0000
vt 0.9193 -0.0000
vt 0.0000 0.2502
vt 0.7870 1.0000
vt 0.7839 0.2148
vt 0.3038 0.2148
vt -0.0000 0.3015
vt 0.3029 0.0000
vt 0.0028 1.0000
vt 0.0000 0.8933
vt 0.6552 0.8933
vt 0.3111 0.0000
vt 0.0000 1.0000
vt 0.9461 1.0000
vt 0.4492 0.0000
vt 0.4748 0.0000
vt 0.0000 1.0000
vt 1.0000 1.0000
vt 0.0000 1.3778
vt 0.8152 1.3778
vt 0.8156 0.0015
vt 0.0897 0.7170
vt 0.0899 0.0000
vt 0.0002 0.7170
vt 0.0000 1.0000
vt 0.5448 1.0000
vt 0.5450 -0.0000
vt 0.0002 0.0000
vt 0.0000 1.0000
vt 0.9998 1.0000
vt 1.0000 0.0025
vt 0.0000 0.0000
vt 0.9518 1.0000
vt 0.9728 0.4316
vt 0.0371 0.0000
vt 0.0000 1.0000
vt 0.0000 1.0000
vt 0.7202 1.0000
vt 0.7202 0.0000
vt 0.0000 0.0000
vt 0.0000 1.0000
vt 1.0000 1.0000
vt 1.0000 0.0000
vt 0.0000 0.0000
vt 0.9888 1.1727
vt 0.9876 0.0000
vt 0.6579 0.0000
vt 0.6586 0.6476
vt -0.0000 0.6476
vt 0.0002 1.1727
vt 1.0585 1.0872
vt 1.0579 0.0000
vt 0.7468 0.0000
vt 0.7470 0.3699
vt 0.0003 1.0872
vt 0.2363 0.3699
vt 0.0000 0.0000
vt 0.2362 0.0000
vt 0.1339 0.6798
vt 0.0000 0.6798
vt 0.0029 0.9340
vt 0.9585 0.9340
vt 0.1261 -0.0000
vt 0.9478 0.0044
vt 0.0000 1.0000
vt 0.7950 1.0000
vt 0.7950 -0.0000
vt 0.0000 0.0000
vt 0.0000 1.0000
vt 1.0000 1.0000
vt 1.0000 0.0000
vt 0.0000 0.0000
vt 0.0000 1.0000
vt 1.0000 1.0000
vt 1.0000 0.0000
vt 0.0000 1.3618
vt 0.8482 1.3618
vt 0.8479 0.0000
vt 0.0003 0.0027
vt 0.0002 0.0000
vt -0.0000 0.6890
vt 1.1221 0.6890
vt 1.1212 0.0000
vt 0.0000 0.8814
vt 0.8522 0.8814
vt 0.8518 0.0000
vt 0.0004 0.0003
vt 0.0000 1.0000
vt 1.0870 1.0000
vt 1.0869 0.7936
vt 0.8388 0.7936
vt 0.8389 0.0000
vt 0.0002 0.0000
vt 0.2294 0.7623
vt 0.2297 0.0000
vt 0.0004 0.0001
vt 0.0000 1.0000
vt 0.9999 0.7623
vt 1.0000 1.0000
vt 0.6765 0.2288
vt 0.7380 0.0110
vt 0.3693 0.0003
vt 0.6711 0.2583
vt 0.6683 0.2887
vt 0.6681 0.3195
vt 0.0000 0.4689
vt 0.0012 0.0000
vt 0.7029 1.2298
vt 0.0295 1.2298
vt 0.0969 0.0639
vt 0.0342 0.0000
vt 0.0034 0.7312
vt 0.1357 0.0910
vt 0.1762 0.1076
vt 0.2142 0.1128
vt 0.9298 0.1128
vt -0.0000 0.8348
vt 0.9062 0.8348
vt 0.0000 1.0000
vt 0.5449 1.0000
vt 0.5729 0.0525
vt 0.2004 0.0000
vt 0.0000 0.0003
vt 0.0000 1.0000
vt 1.4908 1.0000
vt 1.4908 -0.0000
vt 0.0000 0.0000
vt 0.0000 1.0000
vt 1.0000 1.0000
vt 1.0000 0.0000
vt 0.0000 0.0000
vt 0.0000 1.0000
vt 1.0000 1.0000
vt 1.0000 0.0000
vt 0.0000 0.0000
vt 0.0000 1.0000
vt 1.0000 1.0000
vt 1.0000 0.0000
vt 0.0000 0.0000
vt 0.0000 1.0000
vt 1.0000 1.0000
vt 1.0000 0.0000
vt 0.6718 1.0000
vt 0.6718 0.1560
vt 0.2408 0.1560
vt 0.0000 0.0000
vt 0.2408 0.0000
vt 0.0000 1.0000
vt 0.0000 0.0000
vt 0.0000 1.0000
vt 0.9372 1.0000
vt 0.9372 0.0000
vt 0.0000 0.0000
vt 0.0000 1.0000
vt 1.0000 1.0000
vt 1.0000 0.0000
vn -0.0000 1.0000 0.0000
vn -0.0000 1.0000 -0.0001
g CityEngineMaterial_385_CityEngineMaterial_385_CityEngineMaterial_385_mat
usemtl CityEngineMaterial_385_mat
s 1
f 1/1/1 2/2/1 3/3/1 4/4/1
f 5/5/1 6/6/1 7/7/1 8/8/1
f 9/9/1 10/10/1 11/11/1 12/12/1
f 9/9/1 12/12/1 13/13/1 14/14/1
f 15/15/1 16/16/1 17/17/1 18/18/1
f 19/19/1 15/15/1 18/18/1 20/20/1
f 21/21/1 22/22/1 23/23/1 24/24/1
f 21/21/1 24/24/1 25/25/1 26/26/1
f 27/27/1 28/28/1 29/29/1 30/30/1
f 27/27/1 30/30/1 31/31/1 32/32/1
f 33/33/1 34/34/1 35/35/1 36/36/1
f 35/35/1 37/37/1 36/36/1
f 33/33/1 36/36/1 38/38/1 39/39/1
f 39/39/1 38/38/1 40/40/1
f 41/41/1 42/42/1 43/43/1 44/44/1
f 45/45/1 46/46/1 47/47/1 48/48/1
f 49/49/1 50/50/1 51/51/1 47/52/1
f 52/53/1 53/54/1 54/55/1 55/56/1
f 56/57/1 57/58/1 58/59/1 59/60/1
f 60/61/1 61/62/1 62/63/1 63/64/1
f 64/65/1 65/66/1 66/67/1 67/68/1
f 68/69/1 69/70/1 70/71/1 71/72/1
f 71/72/1 70/71/1 72/73/1 73/74/1
f 68/69/1 71/72/1 74/75/1
f 75/76/1 76/77/1 77/78/1 78/79/1
f 79/80/2 80/81/2 81/82/2 82/83/1
f 81/82/2 83/84/1 82/83/1
f 79/80/2 82/83/1 84/85/1
f 85/86/1 86/87/1 87/88/1
f 88/89/1 89/90/1 90/91/1
f 91/92/1 92/93/1 93/94/1
f 94/95/1 95/96/1 96/97/1 97/98/1
f 96/97/1 98/99/1 97/98/1
f 94/95/1 97/98/1 99/100/1
f 100/101/1 101/102/1 102/103/1 103/104/1
f 104/105/1 102/106/1 105/107/1 106/108/1
f 107/109/1 108/110/1 109/111/1 110/112/1
f 111/113/1 112/114/1 113/115/1 114/116/1
f 115/117/1 116/118/1 117/119/1 118/120/1
f 119/121/1 120/122/1 121/123/1 122/124/1
f 119/121/1 122/124/1 123/125/1 124/126/1
f 125/127/1 126/128/1 127/129/1 128/130/1
f 129/131/1 125/127/1 128/130/1 130/132/1
f 131/133/1 129/131/1 130/132/1 132/134/1
f 133/135/1 134/136/1 135/137/1 136/138/1
f 137/139/1 133/135/1 136/138/1 138/140/1
f 139/141/1 140/142/1 141/143/1 142/144/1
f 142/144/1 143/145/1 144/146/1 145/147/1
f 146/148/1 141/149/1 147/150/1 148/151/1
f 149/152/1 150/153/1 151/154/1 152/155/1
f 153/156/1 154/157/1 155/158/1 156/159/1
f 157/160/1 158/161/1 159/162/1 160/163/1
f 161/164/1 162/165/1 163/166/1 164/167/1
f 161/164/1 164/167/1 165/168/1 166/169/1
f 167/170/1 168/171/1 169/172/1 170/173/1
f 171/174/1 167/170/1 170/173/1 172/175/1
f 173/176/1 174/177/1 175/178/1 176/179/1
f 177/180/1 176/179/1 175/178/1 178/181/1
f 179/182/1 178/181/1 175/178/1 180/183/1
f 181/184/1 178/181/1 179/182/1 182/185/1
f 183/186/1 184/187/1 185/188/1 186/189/1
f 187/190/1 186/189/1 185/188/1 188/191/1
f 189/192/1 188/191/1 185/188/1 190/193/1
f 189/192/1 190/193/1 191/194/1
f 192/195/1 193/196/1 194/197/1 195/198/1
f 192/195/1 195/198/1 196/199/1
f 197/200/1 198/201/1 199/202/1 200/203/1
f 200/204/1 201/205/1 202/206/1 203/207/1
f 204/208/1 205/209/1 206/210/1 207/211/1
f 207/211/1 208/212/1 209/213/1 210/214/1
f 211/215/1 206/216/1 212/217/1 213/218/1
f 214/219/1 215/220/1 216/221/1 217/222/1
f 216/221/1 218/223/1 217/222/1
f 214/219/1 217/222/1 219/224/1
f 220/225/1 221/226/1 222/227/1 223/228/1
f 224/229/1 225/230/1 226/231/1 227/232/1
