# Blender v2.78 (sub 0) OBJ File: ''
# www.blender.org
mtllib CityEngineMaterial_291.mtl
o CityEngineMaterial_291
v 784.411926 40.186134 386.780090
v 786.952271 40.186134 389.019806
v 790.290527 40.186138 385.382111
v 790.363281 40.186138 380.296387
v 796.932129 40.186138 386.134094
v 794.360779 40.186134 388.999298
v 786.329773 40.186138 384.689392
v -240.101898 7.134627 -164.775406
v -239.596207 7.134631 -190.543503
v -252.776093 7.134631 -190.805893
v -244.141006 7.134627 -163.966599
v -248.855301 22.733730 -189.555603
v -243.304306 22.733728 -172.302002
v -242.968002 22.733730 -189.438400
v -250.376205 41.352329 -187.173203
v -244.089294 41.352226 -167.632294
v -241.206696 41.352226 -168.209503
v -240.838303 41.352329 -186.983307
v -243.745499 33.653126 -175.306305
v -243.500000 33.653130 -187.820999
v -247.799393 33.653130 -187.906601
v -241.982605 51.617527 -169.964783
v -241.685196 51.617630 -185.126389
v -248.912903 51.617531 -185.270279
v -243.867203 51.617527 -169.587387
v -247.026993 35.621632 -186.766693
v -244.086197 35.621632 -177.626205
v -243.908203 35.621632 -186.704697
v -247.773300 54.697132 -183.847992
v -243.657806 54.697227 -171.056290
v -242.606400 54.697227 -171.266891
v -242.361694 54.697132 -183.740280
v -243.043594 56.665627 -172.421188
v -242.845306 56.665630 -182.532089
v -246.892899 56.665630 -182.612579
v -243.579498 56.665627 -172.313889
v -246.721100 36.053032 -185.815704
v -245.552002 36.053032 -182.181900
v -244.579300 36.053032 -182.494797
v -245.748398 36.053032 -186.128693
v -245.139206 36.053032 -184.235306
v -244.994202 36.053032 -183.784500
v -244.562805 36.053032 -183.923294
v -244.707794 36.053032 -184.374100
v -246.409500 57.286030 -181.145782
v -245.028503 57.286030 -176.853180
v -243.983200 57.286030 -177.189484
v -245.364197 57.286030 -181.482086
v -245.065994 57.286030 -180.555084
v -243.216599 57.286030 -177.436081
v -244.299393 57.286030 -180.801682
v 382.409393 49.661911 -70.120392
v 389.875305 49.661911 -70.807793
v 401.873596 49.661911 -72.097694
v 400.485291 49.661915 -84.894394
v 381.048004 49.661915 -82.783592
v 394.196289 70.561012 -84.211388
v 395.571411 70.561012 -71.420181
v 401.873596 70.561012 -72.097687
v 400.485291 70.561012 -84.894386
v 397.296997 71.828117 -81.986687
v 398.135712 71.828117 -74.255783
v 401.598907 71.828117 -74.629387
v 400.759888 71.828117 -82.362587
v 394.617188 71.828117 -80.311188
v 395.062286 71.828117 -76.145683
v 397.897308 71.828117 -76.453285
v 397.445496 71.828117 -80.617981
v -43.611198 5.533561 235.728897
v -40.282600 5.533560 246.795197
v -17.744101 5.533561 240.008606
v -21.368200 5.533563 228.646805
v -37.619801 44.442162 245.096695
v -20.915701 44.442162 240.066895
v -24.003300 44.442162 230.386795
v -40.467499 44.442162 235.628998
v -40.324799 22.371559 243.674194
v -19.478300 22.371561 237.397095
v -21.274500 22.371561 231.766006
v -41.928600 22.371561 238.342194
v -22.702600 49.444660 239.647217
v -25.225201 49.444660 231.738510
v -38.702499 49.444660 236.029617
v -36.375999 49.444660 243.764420
v -21.522600 49.873661 237.455521
v -22.985100 49.873661 232.870621
v -39.902000 49.873661 238.256912
v -38.596600 49.873661 242.596710
v -37.258099 52.946461 236.356918
v -35.357800 52.946461 242.674515
v -24.164900 52.946461 239.304214
v -26.225401 52.946461 232.844208
v -38.242802 51.842163 238.185410
v -37.180698 51.842163 241.715820
v -23.196199 51.842163 237.504913
v -24.386400 51.842163 233.773621
v -34.523701 55.397663 241.783813
v -25.361601 55.397663 239.025116
v -27.044901 55.397663 233.747711
v -36.076000 55.397663 236.623215
v -26.340799 57.113564 238.797714
v -27.716000 57.113564 234.486115
v -35.108799 57.113564 236.840012
v -33.840698 57.113564 241.056015
v -35.647598 52.322662 241.254211
v -24.785900 52.322662 237.983612
v -25.412100 52.322662 235.904312
v -36.273701 52.322662 239.174820
v -27.265301 52.322662 236.462311
v -25.476700 52.322662 235.923721
v -25.913601 52.322662 234.472916
v -27.702200 52.322662 235.011520
v -34.317299 59.082062 237.017212
v -33.281399 59.082062 240.460617
v -27.142099 59.082062 238.612015
v -28.265400 59.082062 235.090210
v -33.134899 59.683960 240.187820
v -27.418301 59.683960 238.466522
v -27.829901 59.683960 237.176117
v -30.925699 59.683960 238.108215
v -31.458599 59.683960 236.336716
v -34.045601 59.683960 237.160416
v -1249.637329 19.288532 419.403290
v -1251.486206 19.288532 419.032013
v -1251.748901 19.288532 420.339600
v -1235.062134 19.288532 418.078003
v -1236.146606 19.288532 423.474213
v -1249.272461 19.288532 417.587494
v -1251.121338 19.288532 417.217010
v -1250.666016 19.288534 414.951294
v -1236.652954 20.167131 419.137085
v -1247.758545 20.167131 416.911713
v -1248.083618 20.167131 418.529114
v -1240.052856 20.167131 420.138397
v -1240.279541 20.167131 421.265808
v -1237.204956 20.167131 421.883514
v -40.282600 4.513860 246.795197
v -35.572201 4.513857 262.455688
v -20.051100 4.513858 257.938599
v -12.869600 4.513858 255.778503
v -15.422000 4.513860 247.288895
v -17.744101 4.513861 240.008606
v -25.175600 68.740364 242.246323
v -20.423000 68.740356 258.046814
v -20.051100 68.740356 257.938599
v -12.869600 68.740364 255.778519
v -15.422000 68.740364 247.288910
v -17.744101 68.740364 240.008621
v -24.373800 69.377762 244.912018
v -21.224800 69.377762 255.381119
v -17.259100 69.377762 254.188309
v -20.408100 69.377762 243.719208
v -19.153299 69.377762 247.890717
v -18.086100 69.377762 251.438919
v -14.619700 69.377762 250.396317
v -15.686900 69.377762 246.848114
v -171.229797 9.437190 57.545700
v -173.175507 9.437192 46.663601
v -186.740494 9.437192 49.106400
v -185.122299 9.437191 51.064400
v -186.350906 9.437191 51.285702
v -184.246994 9.437190 55.959599
v -185.484497 9.437190 56.131401
v -184.892593 9.437190 59.442600
v -181.323196 10.794090 58.946999
v -173.969406 10.794090 57.925999
v -174.753296 10.794091 52.279900
v -182.107101 10.794091 53.300800
v -177.347305 10.794091 52.639999
v -178.015396 10.794092 47.827702
v -182.775208 10.794092 48.488499
v 368.388092 27.808659 256.803802
v 366.377014 27.808661 249.459503
v 353.002808 27.808659 253.131805
v 356.279602 27.808659 255.585297
v 353.854797 27.808659 256.251190
v 356.549896 27.808659 256.572388
v 354.119995 27.808659 257.222107
v 354.984589 27.808659 260.387390
v 359.062408 29.197859 259.297089
v 366.687103 29.197859 257.258606
v 365.643494 29.197859 253.355194
v 358.018799 29.197859 255.393799
v 360.065399 29.197859 254.846603
v 359.171600 29.197861 251.503601
v 357.125000 29.197859 252.050705
v -475.177399 14.626462 -380.809387
v -474.940399 14.626462 -380.029602
v -470.118988 14.626462 -381.490509
v -488.423187 14.626462 -380.216888
v -471.310303 14.626463 -385.411285
v -479.930511 14.626462 -379.366699
v -479.723114 14.626462 -378.580414
v -487.379486 14.626461 -376.260406
v -482.194214 16.016663 -382.107605
v -487.103302 16.016663 -380.617493
v -486.478302 16.016661 -378.558502
v -481.569214 16.016661 -380.048615
v -482.109406 16.016661 -379.884705
v -484.761414 16.016661 -379.079712
v -484.203613 16.016661 -377.241791
v -481.551514 16.016661 -378.046814
v -191.460297 14.665059 -361.371613
v -171.104797 14.665061 -372.253906
v -179.842697 14.665062 -382.986908
v -197.912292 14.665061 -372.595795
v -191.078598 46.028156 -362.703491
v -172.638199 46.028160 -372.562012
v -176.598297 46.028160 -377.426300
v -194.148499 46.028160 -368.043915
v -185.062103 34.513660 -372.901611
v -176.598297 34.513660 -377.426300
v -180.080093 34.513660 -381.703003
v -187.489594 34.513660 -377.442108
v -188.734207 46.437160 -363.956787
v -176.039993 46.437160 -370.743286
v -177.591705 46.437160 -373.645813
v -190.285904 46.437160 -366.859314
v -183.466995 35.371361 -376.743896
v -184.474899 35.371361 -378.629211
v -186.855103 35.371361 -377.260315
v -184.867706 35.371361 -373.542786
v -178.719894 35.371361 -379.281708
v -177.328796 35.371361 -377.573090
v -185.208405 46.437160 -369.573914
v -186.559402 46.437160 -372.101013
v -191.636993 46.437160 -369.386505
v -182.739304 46.437160 -370.893890
v -178.942703 46.437160 -376.173004
v -184.090302 46.437160 -373.420990
v -54.746399 44.792957 -964.416504
v -55.103802 44.792957 -967.777771
v -60.802502 44.792957 -966.885010
v -59.768501 44.792957 -957.158203
v -46.184799 44.792957 -965.757324
v -39.934799 44.792957 -960.264282
v -46.380699 44.792957 -969.139526
v -40.469101 44.792957 -969.488770
v 110.597900 43.793964 -1015.931824
v 109.479698 43.793968 -1026.301758
v 107.224602 43.793968 -1026.060547
v 107.700897 43.793968 -1021.643799
v 99.434303 43.793964 -1014.737305
v 101.219299 43.793968 -1020.950317
v 98.292099 43.793968 -1025.104858
v 100.732803 43.793968 -1025.365967
v -1218.183594 19.083031 418.337585
v -1230.210571 19.083031 415.916412
v -1231.408936 19.083031 421.878998
v -1219.899170 19.083031 419.495392
v -1220.299438 19.083031 421.486786
v -1218.873535 19.083031 421.770508
v -1219.376709 19.083031 424.273590
v -1218.473999 19.083031 419.782196
v -1229.650635 19.961632 420.706787
v -1221.972412 19.961632 422.234894
v -1221.613525 19.961632 420.449188
v -1227.164551 19.961632 419.344391
v -1226.915039 19.961632 418.102600
v -1229.041260 19.961632 417.674591
v 233.276703 44.238659 -976.205200
v 236.197403 44.238556 -970.901001
v 244.005707 44.238659 -975.422302
v 236.010193 44.238659 -978.417725
v 233.574905 44.238659 -982.840271
v 232.826508 44.238659 -988.373901
v 235.932602 44.238659 -990.083801
v 233.042099 44.238659 -982.547119
v 233.253906 44.238659 -976.821594
v -87.227303 5.367457 261.657288
v -85.805298 5.367455 276.571808
v -64.764198 5.367456 270.243011
v -65.268799 5.367456 264.950592
v -66.817902 5.367458 257.825500
v -85.842201 26.330658 262.699493
v -84.679298 26.330656 274.896515
v -76.504601 26.330656 272.437714
v -77.580902 26.330658 261.148499
v -77.146698 26.330656 265.702698
v -66.633102 26.330656 264.700287
v -67.804398 26.330658 259.312988
v -85.764702 27.116856 263.511688
v -84.915398 27.116856 272.420105
v -79.685402 27.116856 271.921387
v -80.534798 27.116858 263.013000
v -80.301903 27.116856 265.455292
v -76.582001 27.116856 271.625488
v -77.198502 27.116856 265.159393
v -76.207802 27.798056 265.613190
v -68.116600 27.798056 264.841705
v -68.392303 27.798058 261.950012
v -76.483498 27.798058 262.721497
v -72.332001 27.798058 262.325714
v -69.859001 27.798058 262.089905
v -70.017502 27.798058 260.427399
v -72.490501 27.798058 260.663208
v 451.761993 64.263939 -236.902878
v 450.478912 64.263939 -250.732285
v 447.203796 64.263939 -250.408081
v 438.117615 64.263939 -248.648483
v 440.197998 64.263939 -235.156586
v 449.954407 91.722839 -244.343079
v 449.474487 91.722839 -249.514984
v 447.364685 91.722839 -249.306091
v 439.380188 91.722839 -247.759888
v 440.057404 91.722839 -243.367691
v 445.432312 83.136742 -237.072083
v 444.766113 83.136742 -243.831787
v 440.057495 83.136742 -243.367691
v 441.128387 83.136742 -236.422180
v 441.052795 92.275742 -246.582687
v 441.301300 92.275742 -244.971085
v 448.351715 92.275742 -245.665985
v 446.077789 92.275742 -246.625381
v 448.242889 92.275742 -246.838791
v 445.938507 92.275742 -247.528778
v 440.257507 83.718338 -242.219177
v 441.014709 83.718338 -237.308792
v 443.577911 83.718338 -237.703979
v 442.820709 83.718338 -242.614380
v 443.388489 83.718338 -238.931885
v 445.105408 83.718338 -239.196579
v 444.537598 83.718338 -242.879181
vt 0.7039 0.0000
vt 0.4369 0.0010
vt 0.4307 0.3793
vt 0.6927 0.6743
vt -0.0000 0.6743
vt 0.0015 0.3793
vt 0.7003 0.2174
vt 1.0902 0.5666
vt 0.1631 0.0000
vt 0.0000 0.8436
vt 1.0725 0.8436
vt -0.0000 1.0000
vt 1.0817 1.0000
vt 0.1143 -0.0000
vt -0.0000 0.7325
vt 0.8961 0.7325
vt 0.9106 0.4954
vt 0.1354 0.0000
vt 1.1397 1.0000
vt 0.1204 0.0000
vt -0.0000 1.0000
vt 0.5713 0.7207
vt 0.0805 0.0000
vt -0.0000 1.0000
vt 0.5639 1.0000
vt -0.0000 1.0000
vt 0.9777 1.0000
vt 0.1033 0.0000
vt -0.0000 1.0000
vt 1.6943 1.0000
vt 1.7096 0.7919
vt 0.2219 -0.0000
vt 1.0792 0.8582
vt 0.1306 0.0000
vt -0.0000 1.0000
vt 1.0731 1.0000
vt -0.0000 1.0000
vt 1.0000 1.0000
vt 1.0000 -0.0000
vt 0.0000 -0.0000
vt -0.0000 1.0000
vt 1.0000 1.0000
vt 1.0000 -0.0000
vt 0.0000 -0.0000
vt -0.0000 1.0000
vt 1.0000 1.0000
vt 1.0000 -0.0000
vt 0.0000 -0.0000
vt -0.0000 1.0000
vt 1.0000 1.0000
vt 1.0000 -0.0000
vt 0.0000 -0.0000
vt 0.7746 0.0112
vt 0.4778 0.0011
vt 0.0000 -0.0000
vt -0.0000 1.0610
vt 0.7741 1.0610
vt 0.8462 0.0020
vt 0.0004 0.0000
vt -0.0000 1.0000
vt 0.8463 1.0000
vt -0.0000 1.0000
vt 0.9997 1.0000
vt 1.0000 -0.0000
vt 0.0000 -0.0000
vt 0.0011 1.0000
vt 1.0000 1.0000
vt 0.9989 -0.0000
vt 0.0000 0.0024
vt 0.0001 0.0256
vt 0.0000 0.8284
vt 1.0014 0.8284
vt 0.9931 -0.0000
vt 0.0000 0.6459
vt 0.9551 0.6459
vt 0.9460 -0.0000
vt 0.0002 0.0173
vt -0.0000 1.0000
vt 0.8108 1.0000
vt 0.8073 0.0000
vt 0.0001 0.0579
vt 0.9614 0.6949
vt 0.9523 -0.0000
vt 0.0002 0.0187
vt 0.0000 0.6949
vt 0.8043 1.0000
vt 0.8008 0.0000
vt 0.0001 0.0582
vt -0.0000 1.0000
vt 0.0002 0.0269
vt -0.0000 1.0000
vt 1.3743 1.0000
vt 1.3613 0.0000
vt 0.0001 0.0585
vt -0.0000 1.0000
vt 1.0052 1.0000
vt 1.0008 0.0000
vt -0.0000 1.0000
vt 1.1582 1.0000
vt 1.1472 0.0000
vt 0.0002 0.0269
vt 1.0000 1.0000
vt 0.9906 0.0000
vt 0.0002 0.0269
vt -0.0000 1.0000
vt -0.0000 1.0000
vt 1.1784 1.0000
vt 1.1784 0.0000
vt 0.0000 -0.0000
vt -0.0000 1.0000
vt 1.0000 1.0000
vt 1.0000 -0.0000
vt 0.0000 -0.0000
vt 0.0002 0.0269
vt -0.0000 1.0000
vt 1.0000 1.0000
vt 0.9906 0.0000
vt -0.0000 1.0000
vt 1.0000 1.0000
vt 0.9963 0.5774
vt 0.4547 0.5773
vt 0.4548 0.0000
vt 0.0001 0.0134
vt 0.1016 0.7577
vt 0.0000 0.7577
vt -0.0000 1.0000
vt 0.8578 0.0000
vt 0.8577 1.0000
vt 0.1016 0.4212
vt 0.0000 0.4213
vt 0.0000 0.0015
vt -0.0000 1.0000
vt 0.9971 1.0000
vt 0.9972 0.4111
vt 0.2762 0.4111
vt 0.2762 0.0006
vt 0.0000 -0.0000
vt 1.0075 0.6045
vt 1.0077 0.0056
vt 0.3195 0.0001
vt 0.0000 -0.0000
vt -0.0000 0.3246
vt 0.0053 0.6045
vt 0.0001 0.5510
vt 0.8377 0.5510
vt 0.8379 0.5239
vt 0.8379 0.0001
vt 0.3879 0.0000
vt 0.0000 0.0089
vt -0.0000 1.0000
vt 1.2301 1.0000
vt 1.2301 0.0000
vt 0.0000 -0.0000
vt -0.0000 1.0000
vt 1.0000 1.0000
vt 1.0000 -0.0000
vt 0.0000 -0.0000
vt 1.4057 1.1755
vt 1.3630 0.0000
vt 0.0000 0.0590
vt 0.1320 0.2890
vt 0.0085 0.2944
vt 0.1512 0.8178
vt 0.0275 0.8178
vt 0.0405 1.1755
vt -0.0000 1.0000
vt 1.0000 1.0000
vt 1.0000 -0.0000
vt 0.0000 -0.0000
vt -0.0000 1.0000
vt 1.0000 1.0000
vt 1.0000 -0.0000
vt 0.0004 0.0000
vt -0.0000 1.0000
vt 1.2486 1.0000
vt 1.0226 0.5753
vt 1.2490 0.5753
vt 1.0226 0.4409
vt 1.2491 0.4432
vt 1.2495 0.0123
vt -0.0000 1.0000
vt 0.8212 1.0000
vt 0.8212 0.0000
vt 0.0000 -0.0000
vt -0.0000 1.0000
vt 1.0000 1.0000
vt 1.0000 -0.0000
vt 0.2537 0.1995
vt 0.2536 0.0006
vt 0.0000 -0.0000
vt 0.9004 1.0000
vt -0.0000 1.0000
vt 0.5037 0.1995
vt 0.5052 0.0012
vt 0.9080 0.0021
vt -0.0000 1.0000
vt 1.0000 1.0000
vt 1.0000 -0.0000
vt 0.0000 -0.0000
vt -0.0000 1.0000
vt 1.0000 1.0000
vt 1.0000 -0.0000
vt 0.0000 -0.0000
vt 0.0205 1.4893
vt 1.2067 1.4893
vt 1.0707 -0.0000
vt 0.0000 0.0707
vt 0.0085 1.0000
vt 0.9481 1.0000
vt 0.8942 0.0000
vt 0.0000 -0.0000
vt -0.0000 1.0000
vt 0.7958 1.0000
vt 0.7084 0.0000
vt 0.0000 0.0488
vt -0.0000 1.0000
vt 1.0816 1.0000
vt 1.0816 0.0000
vt 0.0000 -0.0000
vt 0.2115 0.4971
vt 0.2115 0.0000
vt 0.0000 0.0197
vt -0.0000 1.0000
vt 0.6264 0.4971
vt 0.6588 1.0000
vt -0.0000 1.0000
vt 1.0000 1.0000
vt 1.0000 -0.0000
vt 0.0000 -0.0000
vt -0.0000 1.0000
vt 1.0000 1.0000
vt 1.0000 -0.0000
vt 0.0000 -0.0000
vt 0.2547 0.2385
vt 0.2617 0.0000
vt 0.0202 0.0000
vt 0.0000 0.6901
vt 0.6174 0.2385
vt 0.8403 0.6901
vt 0.6313 0.0003
vt 0.8780 0.0405
vt 1.1913 1.2945
vt 1.1904 -0.0000
vt 0.9504 0.0000
vt 0.9508 0.5513
vt 0.0035 1.2945
vt 0.2612 0.5513
vt 0.0000 -0.0000
vt 0.2597 0.0000
vt 0.0002 1.0000
vt 1.3227 1.0000
vt 1.3225 0.0000
vt 0.1569 0.7577
vt 0.1568 0.4237
vt 0.0001 0.4243
vt 0.0000 0.0045
vt 0.0002 0.7577
vt -0.0000 1.0000
vt 0.9996 1.0000
vt 1.0000 0.4111
vt 0.2774 0.4111
vt 0.2777 0.0016
vt 0.0007 -0.0000
vt 0.2574 0.0000
vt 0.0000 -0.0000
vt 0.0083 0.5733
vt 0.2838 0.2200
vt 0.4984 0.2200
vt 0.7199 0.3479
vt 0.7198 0.5733
vt 0.4984 0.1813
vt 0.2809 0.0176
vt 0.1731 0.0000
vt -0.0000 1.6520
vt 1.2959 1.6520
vt 1.3573 1.0658
vt 1.3909 0.2484
vt 0.0528 0.6074
vt 0.9046 0.6074
vt 0.7884 0.0000
vt 0.0000 -0.0000
vt 0.0000 0.1643
vt -0.0000 1.0000
vt 1.1449 1.0000
vt 1.0740 -0.0000
vt -0.0000 1.0000
vt 1.0777 1.0000
vt 1.0776 0.0000
vt 0.0000 -0.0000
vt -0.0000 1.0000
vt 1.0000 1.0000
vt 1.0000 -0.0000
vt 0.0000 -0.0000
vt -0.0000 1.0000
vt 0.9459 1.0000
vt 0.9459 0.0000
vt 0.0000 -0.0000
vt -0.0000 1.0000
vt 1.0000 1.0000
vt 1.0000 -0.0000
vt 0.0000 -0.0000
vt 0.0708 1.4950
vt 1.5381 1.4950
vt 1.5360 1.1014
vt 1.4396 0.0000
vt -0.0000 0.0987
vt 0.7721 1.0000
vt 0.7744 0.0000
vt 0.6137 0.0002
vt -0.0000 0.1457
vt 0.0184 1.0000
vt 1.0000 0.0787
vt 0.0368 0.0000
vt -0.0000 1.0000
vt 0.9981 1.0000
vt 0.0000 0.2212
vt 0.0124 1.0000
vt 0.9991 1.0000
vt 0.6970 0.4366
vt 1.0000 0.4366
vt 0.6901 -0.0000
vt -0.0000 1.0000
vt 1.0000 1.0000
vt 1.0000 -0.0000
vt 0.0000 -0.0000
vt -0.0000 1.0000
vt 1.0000 1.0000
vt 1.0000 -0.0000
vt 0.0000 -0.0000
vn 0.0000 1.0000 0.0000
vn 0.0026 1.0000 0.0048
g CityEngineMaterial_291_CityEngineMaterial_291_CityEngineMaterial_291_mat
usemtl CityEngineMaterial_291_mat
s 1
f 1/1/1 2/2/1 3/3/1 4/4/1
f 5/5/1 4/4/1 3/3/1 6/6/1
f 1/1/1 4/4/1 7/7/2
f 8/8/1 9/9/1 10/10/1 11/11/1
f 12/12/1 13/13/1 14/14/1
f 15/15/1 16/16/1 17/17/1 18/18/1
f 19/19/1 20/20/1 21/21/1
f 22/22/1 23/23/1 24/24/1 25/25/1
f 26/26/1 27/27/1 28/28/1
f 29/29/1 30/30/1 31/31/1 32/32/1
f 33/33/1 34/34/1 35/35/1 36/36/1
f 37/37/1 38/38/1 39/39/1 40/40/1
f 41/41/1 42/42/1 43/43/1 44/44/1
f 45/45/1 46/46/1 47/47/1 48/48/1
f 49/49/1 47/50/1 50/51/1 51/52/1
f 52/53/1 53/54/1 54/55/1 55/56/1
f 52/53/1 55/56/1 56/57/1
f 57/58/1 58/59/1 59/60/1 60/61/1
f 61/62/1 62/63/1 63/64/1 64/65/1
f 65/66/1 66/67/1 67/68/1 68/69/1
f 69/70/1 70/71/1 71/72/1 72/73/1
f 73/74/1 74/75/1 75/76/1 76/77/1
f 77/78/1 78/79/1 79/80/1 80/81/1
f 81/82/1 82/83/1 83/84/1 84/85/1
f 85/86/1 86/87/1 87/88/1 88/89/1
f 89/90/1 90/91/1 91/92/1 92/93/1
f 93/94/1 94/95/1 95/96/1 96/97/1
f 97/98/1 98/99/1 99/100/1 100/101/1
f 101/102/1 102/103/1 103/104/1 104/105/1
f 105/106/1 106/107/1 107/108/1 108/109/1
f 109/110/1 110/111/1 111/112/1 112/113/1
f 113/114/1 114/115/1 115/116/1 116/117/1
f 117/118/1 118/119/1 119/120/1 120/121/1
f 117/118/1 120/121/1 121/122/1 122/123/1
f 123/124/1 124/125/1 125/126/1 126/127/1
f 125/126/1 127/128/1 126/127/1
f 128/129/1 123/124/1 126/127/1 129/130/1
f 126/127/1 130/131/1 129/130/1
f 131/132/1 132/133/1 133/134/1 134/135/1
f 131/132/1 134/135/1 135/136/1 136/137/1
f 137/138/1 138/139/1 139/140/1 140/141/1
f 137/138/1 140/141/1 141/142/1 142/143/1
f 143/144/1 144/145/1 145/146/1 146/147/1
f 143/144/1 146/147/1 147/148/1 148/149/1
f 149/150/1 150/151/1 151/152/1 152/153/1
f 153/154/1 154/155/1 155/156/1 156/157/1
f 157/158/1 158/159/1 159/160/1 160/161/1
f 159/160/1 161/162/1 160/161/1
f 157/158/1 160/161/1 162/163/1 163/164/1
f 157/158/1 163/164/1 164/165/1
f 165/166/1 166/167/1 167/168/1 168/169/1
f 168/169/1 169/170/1 170/171/1 171/172/1
f 172/173/1 173/174/1 174/175/1 175/176/1
f 174/175/1 176/177/1 175/176/1
f 172/173/1 175/176/1 177/178/1 178/179/1
f 172/173/1 178/179/1 179/180/1
f 180/181/1 181/182/1 182/183/1 183/184/1
f 183/184/1 184/185/1 185/186/1 186/187/1
f 187/188/1 188/189/1 189/190/1 190/191/1
f 189/190/1 191/192/1 190/191/1
f 192/193/1 187/188/1 190/191/1 193/194/1
f 190/191/1 194/195/1 193/194/1
f 195/196/1 196/197/1 197/198/1 198/199/1
f 199/200/1 200/201/1 201/202/1 202/203/1
f 203/204/1 204/205/1 205/206/1 206/207/1
f 207/208/1 208/209/1 209/210/1 210/211/1
f 211/212/1 212/213/1 213/214/1 214/215/1
f 215/216/1 216/217/1 217/218/1 218/219/1
f 219/220/1 220/221/1 221/222/1 222/223/1
f 223/224/1 219/220/1 222/223/1 224/225/1
f 218/226/1 225/227/1 226/228/1 227/229/1
f 228/230/1 217/231/1 229/232/1 230/233/1
f 231/234/1 232/235/1 233/236/1 234/237/1
f 235/238/1 231/234/1 234/237/1 236/239/1
f 237/240/1 235/238/1 236/239/1 238/241/1
f 239/242/1 240/243/1 241/244/1 242/245/1
f 243/246/1 239/242/1 242/245/1 244/247/1
f 245/248/1 243/246/1 244/247/1 246/249/1
f 247/250/1 248/251/1 249/252/1 250/253/1
f 251/254/1 250/253/1 249/252/1 252/255/1
f 249/252/1 253/256/1 252/255/1
f 247/250/1 250/253/1 254/257/1
f 255/258/1 256/259/1 257/260/1 258/261/1
f 255/258/1 258/261/1 259/262/1 260/263/1
f 261/264/1 262/265/1 263/266/1 264/267/1
f 265/268/1 264/267/1 263/266/1 266/269/1
f 263/266/1 267/270/1 266/269/1
f 266/269/1 268/271/1 265/268/1
f 261/264/1 264/267/1 269/272/1
f 270/273/1 271/274/1 272/275/1 273/276/1
f 270/273/1 273/276/1 274/277/1
f 275/278/1 276/279/1 277/280/1 278/281/1
f 278/282/1 279/283/1 280/284/1 281/285/1
f 282/286/1 283/287/1 284/288/1 285/289/1
f 286/290/1 284/291/1 287/292/1 288/293/1
f 289/294/1 290/295/1 291/296/1 292/297/1
f 293/298/1 294/299/1 295/300/1 296/301/1
f 297/302/1 298/303/1 299/304/1 300/305/1
f 297/302/1 300/305/1 301/306/1
f 302/307/1 303/308/1 304/309/1 305/310/1
f 302/307/1 305/310/1 306/311/1
f 307/312/1 308/313/1 309/314/1 310/315/1
f 311/316/1 312/317/1 313/318/1 314/319/1
f 313/318/1 315/320/1 314/319/1
f 316/321/1 311/316/1 314/319/1
f 317/322/1 318/323/1 319/324/1 320/325/1
f 320/326/1 321/327/1 322/328/1 323/329/1
