# Blender v2.78 (sub 0) OBJ File: ''
# www.blender.org
mtllib CityEngineMaterial_767.mtl
o CityEngineMaterial_767
v -791.309021 4.472748 320.165009
v -788.453430 4.472748 320.288788
v -788.453430 6.554448 320.288788
v -791.309021 6.554448 320.165009
v -788.892578 4.472747 325.825592
v -788.892578 6.554447 325.825592
v -778.287292 4.472746 326.658386
v -778.287292 6.554447 326.658386
v -777.629822 4.472748 318.369995
v -777.629822 6.554448 318.369995
v -791.120300 4.472748 317.784698
v -791.120300 6.554448 317.784698
v -610.073120 6.120618 502.173004
v -610.331421 6.120619 494.053192
v -610.331421 7.762320 494.053192
v -610.073120 7.762318 502.173004
v -617.894897 6.120619 494.283813
v -617.894897 7.762320 494.283813
v -617.819824 6.120619 496.642212
v -617.819824 7.762319 496.642212
v -624.100830 6.120619 496.833588
v -624.100830 7.762319 496.833588
v -623.924805 6.120618 502.595093
v -623.924805 7.762318 502.595093
v 125.779900 10.917480 124.444000
v 126.671204 10.917477 140.489304
v 126.671204 12.821477 140.489304
v 125.779900 12.821480 124.444000
v 126.201698 10.917477 140.515900
v 126.201698 12.821477 140.515900
v 126.473000 10.917476 145.478195
v 126.473000 12.821476 145.478195
v 132.518204 10.917476 145.134903
v 132.518204 12.821476 145.134903
v 131.350006 10.917480 124.105103
v 131.350006 12.821480 124.105103
v 242.738800 33.549007 -52.567196
v 242.405594 33.549007 -55.012196
v 242.405594 35.346008 -55.012192
v 242.738800 35.346008 -52.567192
v 239.703094 33.549007 -54.650394
v 239.703094 35.346008 -54.650391
v 238.973297 33.549011 -59.979797
v 238.973297 35.346012 -59.979794
v 228.865005 33.549007 -58.234596
v 228.865005 35.346008 -58.234493
v 229.877106 33.549007 -50.845097
v 229.877106 35.346008 -50.845093
v 482.421906 22.089539 379.243713
v 494.816711 22.089539 376.144104
v 494.816711 24.075138 376.144104
v 482.421906 24.075138 379.243713
v 491.471893 22.089642 360.220001
v 491.471893 24.075140 360.220001
v 479.081787 22.089540 363.306213
v 479.081787 24.075140 363.306213
v 263.703705 33.417801 -4.241095
v 264.287415 33.417801 11.504106
v 264.287415 35.574501 11.504106
v 263.703705 35.574501 -4.241094
v 267.908691 33.417801 11.397606
v 267.908691 35.574501 11.397606
v 267.758911 33.417801 7.357105
v 267.758911 35.574501 7.357106
v 270.419495 33.417801 7.282605
v 270.419495 35.574501 7.282606
v 270.078613 33.417801 -4.419795
v 270.078613 35.574501 -4.419794
v 579.220520 29.067352 296.494385
v 583.783691 29.067348 317.238007
v 583.783691 30.962448 317.238007
v 579.220520 30.962452 296.494385
v 600.661926 29.067348 313.516113
v 600.661926 30.962448 313.516113
v 596.300720 29.067451 293.702209
v 596.300720 30.962452 293.702209
v -405.418304 3.533153 -327.418701
v -399.696594 3.533150 -310.122986
v -399.696594 5.328151 -310.122986
v -405.418304 5.328154 -327.418701
v -396.027496 3.533151 -311.236694
v -396.027496 5.328151 -311.236694
v -399.755310 3.533152 -322.505493
v -399.755310 5.328153 -322.505493
v -398.399506 3.533153 -322.952911
v -398.399506 5.328153 -322.952911
v -400.421295 3.533154 -329.067413
v -400.421295 5.328154 -329.067413
v -181.215897 6.550140 -244.395401
v -177.591293 6.550137 -228.766602
v -177.591293 8.537637 -228.766602
v -181.215897 8.537640 -244.395401
v -155.777298 6.550138 -233.801407
v -155.777298 8.537638 -233.801407
v -159.133102 6.550140 -248.216400
v -159.133102 8.537640 -248.216400
v 113.756599 42.199600 -606.765198
v 97.509598 42.199600 -604.219604
v 97.509598 44.042000 -604.219604
v 113.756599 44.042000 -606.765198
v 99.450897 42.199596 -591.859924
v 99.450897 44.041996 -591.859924
v 117.028801 42.199596 -594.626221
v 117.028801 44.041996 -594.626221
v 284.080688 45.366543 -253.850494
v 283.195312 45.366543 -262.954407
v 283.195312 47.243942 -262.954407
v 284.080688 47.243942 -253.850479
v 275.482208 45.366543 -262.187012
v 275.482208 47.243942 -262.187012
v 275.729309 45.366543 -259.644897
v 275.729309 47.243942 -259.644897
v 273.309692 45.366543 -259.417603
v 273.309692 47.243942 -259.417603
v 273.952301 45.366543 -252.899200
v 273.952301 47.243942 -252.899185
v -309.437714 3.509166 822.057922
v -305.740295 3.509166 822.965027
v -305.740295 4.947166 822.965027
v -309.437714 4.947166 822.057922
v -300.178589 3.509166 824.589172
v -300.178589 4.947165 824.589172
v -299.320587 3.509166 824.846985
v -299.320587 4.947165 824.846985
v -296.877289 3.509166 819.698792
v -296.877289 4.947166 819.698792
v -298.728699 3.509167 818.725098
v -298.728699 4.947166 818.725098
v -304.051208 3.509167 815.984619
v -304.051208 4.947167 815.984619
v -306.050812 3.509167 814.922974
v -306.050812 4.947167 814.922974
v -307.024414 3.509167 816.973999
v -307.024414 4.947167 816.973999
v -305.102112 3.509167 817.994507
v -305.102112 4.947167 817.994507
v -303.125885 3.509166 819.012024
v -303.125885 4.947166 819.012024
v -303.978302 3.509166 820.808228
v -303.978302 4.947166 820.808228
v -305.075104 3.509166 820.487915
v -305.075104 4.947166 820.487915
v -308.315002 3.509166 819.692993
v -308.315002 4.947166 819.692993
v 183.770493 39.637566 -1007.924927
v 185.216202 39.637566 -1008.150208
v 185.216202 41.782864 -1008.150208
v 183.770493 41.782864 -1007.924927
v 184.690598 39.637566 -1012.103516
v 184.690598 41.782864 -1012.103516
v 176.498901 39.637566 -1010.826782
v 176.498901 41.782864 -1010.826782
v 177.618500 39.637566 -1002.409973
v 177.618500 41.782864 -1002.409973
v 184.384293 39.637566 -1003.310913
v 184.384293 41.782864 -1003.310913
v -786.286194 10.183700 616.955627
v -783.935486 10.183700 617.479492
v -783.935486 11.628000 617.479492
v -786.286194 11.628000 616.955627
v -782.891418 10.183700 613.567383
v -782.891418 11.628000 613.567383
v -778.071289 10.183700 614.642822
v -778.071289 11.628000 614.642822
v -779.125916 10.183699 618.551270
v -779.125916 11.627999 618.551270
v -776.857422 10.183699 619.056885
v -776.857422 11.627999 619.056885
v -774.614929 10.183701 610.745605
v -774.614929 11.628001 610.745605
v -784.065979 10.183701 608.637085
v -784.065979 11.628001 608.637085
v 1150.161743 102.384583 -509.333282
v 1145.633423 102.384583 -501.826172
v 1145.633423 104.392883 -501.826172
v 1150.161743 104.392883 -509.333282
v 1154.754150 102.384583 -492.131866
v 1154.754150 104.392883 -492.131866
v 1164.141846 102.384583 -507.777374
v 1164.141846 104.392883 -507.777374
v 1154.460815 102.384583 -513.706421
v 1154.460815 104.392883 -513.706421
v 1151.184692 102.384583 -508.246155
v 1151.184692 104.392883 -508.246155
vt 0.3333 0.0000
vt 0.8333 0.0000
vt 0.8333 1.0000
vt 0.3333 1.0000
vt 0.1667 0.0000
vt 1.1667 0.0000
vt 1.1667 1.0000
vt 0.1667 1.0000
vt 0.3333 0.0000
vt 2.1667 0.0000
vt 2.1667 1.0000
vt 0.3333 1.0000
vt 0.0000 0.0000
vt 1.5000 0.0000
vt 1.5000 1.0000
vt -0.0000 1.0000
vt 0.3333 0.0000
vt 2.6667 0.0000
vt 2.6667 1.0000
vt 0.3333 1.0000
vt 0.0000 0.0000
vt 0.5000 0.0000
vt 0.5000 1.0000
vt -0.0000 1.0000
vt 0.6667 -0.0000
vt 1.6667 0.0000
vt 1.6667 1.0000
vt 0.6667 1.0000
vt 0.1667 0.0000
vt 1.1667 0.0000
vt 1.1667 1.0000
vt 0.1667 1.0000
vt 0.6667 -0.0000
vt 1.0000 0.0000
vt 1.0000 1.0000
vt 0.6667 1.0000
vt 0.3333 0.0000
vt 1.1667 0.0000
vt 1.1667 1.0000
vt 0.3333 1.0000
vt 0.1667 0.0000
vt 0.8333 0.0000
vt 0.8333 1.0000
vt 0.1667 1.0000
vt 0.3333 0.0000
vt 2.0000 0.0000
vt 2.0000 1.0000
vt 0.3333 1.0000
vt 0.3333 0.0000
vt 2.5000 0.0000
vt 2.5000 1.0000
vt 0.3333 1.0000
vt 0.6667 -0.0000
vt 0.7000 0.0000
vt 0.7000 1.0000
vt 0.6667 1.0000
vt 0.6667 -0.0000
vt 1.3333 0.0000
vt 1.3333 1.0000
vt 0.6667 1.0000
vt 0.6667 -0.0000
vt 1.5000 0.0000
vt 1.5000 1.0000
vt 0.6667 1.0000
vt 0.1667 0.0000
vt 3.1667 0.0000
vt 3.1667 1.0000
vt 0.1667 1.0000
vt 0.1667 0.0000
vt 1.0000 0.0000
vt 1.0000 1.0000
vt 0.1667 1.0000
vt 0.3333 0.0000
vt 0.6667 -0.0000
vt 0.6667 1.0000
vt 0.3333 1.0000
vt 0.1667 0.0000
vt 0.5000 0.0000
vt 0.5000 1.0000
vt 0.1667 1.0000
vt 0.8333 0.0000
vt 1.5000 0.0000
vt 1.5000 1.0000
vt 0.8333 1.0000
vt 0.1667 0.0000
vt 1.5000 0.0000
vt 1.5000 1.0000
vt 0.1667 1.0000
vt 0.6667 -0.0000
vt 1.6667 0.0000
vt 1.6667 1.0000
vt 0.6667 1.0000
vt 0.3333 0.0000
vt 2.0000 0.0000
vt 2.0000 1.0000
vt 0.3333 1.0000
vt 0.3333 0.0000
vt 2.5000 0.0000
vt 2.5000 1.0000
vt 0.3333 1.0000
vt 0.0000 0.0000
vt 2.8333 -0.0000
vt 2.8333 1.0000
vt -0.0000 1.0000
vt 0.8333 0.0000
vt 3.0000 0.0000
vt 3.0000 1.0000
vt 0.8333 1.0000
vt 0.5000 0.0000
vt 3.3333 0.0000
vt 3.3333 1.0000
vt 0.5000 1.0000
vt 0.3333 0.0000
vt 2.8333 -0.0000
vt 2.8333 1.0000
vt 0.3333 1.0000
vt 0.8333 0.0000
vt 1.3333 0.0000
vt 1.3333 1.0000
vt 0.8333 1.0000
vt 0.6667 -0.0000
vt 1.3333 0.0000
vt 1.3333 1.0000
vt 0.6667 1.0000
vt 0.3333 0.0000
vt 0.8333 0.0000
vt 0.8333 1.0000
vt 0.3333 1.0000
vt 0.5000 0.0000
vt 2.3333 0.0000
vt 2.3333 1.0000
vt 0.5000 1.0000
vt 0.5000 0.0000
vt 1.5000 0.0000
vt 1.5000 1.0000
vt 0.5000 1.0000
vt 0.3333 0.0000
vt 2.8333 -0.0000
vt 2.8333 1.0000
vt 0.3333 1.0000
vt 0.5000 0.0000
vt 2.5000 0.0000
vt 2.5000 1.0000
vt 0.5000 1.0000
vt 0.0000 0.0000
vt 2.3333 0.0000
vt 2.3333 1.0000
vt -0.0000 1.0000
vt 0.5000 0.0000
vt 2.5000 0.0000
vt 2.5000 1.0000
vt 0.5000 1.0000
vt 0.3333 0.0000
vt 3.1667 0.0000
vt 3.1667 1.0000
vt 0.3333 1.0000
vt 0.8333 0.0000
vt 1.5000 0.0000
vt 1.5000 1.0000
vt 0.8333 1.0000
vt 0.8333 0.0000
vt 2.6667 0.0000
vt 2.6667 1.0000
vt 0.8333 1.0000
vt 0.6667 -0.0000
vt 0.8333 0.0000
vt 0.8333 1.0000
vt 0.6667 1.0000
vt 0.5000 0.0000
vt 1.5000 0.0000
vt 1.5000 1.0000
vt 0.5000 1.0000
vt 0.1667 0.0000
vt 1.0000 0.0000
vt 1.0000 1.0000
vt 0.1667 1.0000
vt 0.8333 0.0000
vt 3.0000 0.0000
vt 3.0000 1.0000
vt 0.8333 1.0000
vt 0.6667 -0.0000
vt 3.6667 -0.0000
vt 3.6667 1.0000
vt 0.6667 1.0000
vt 0.6667 -0.0000
vt 2.6667 0.0000
vt 2.6667 1.0000
vt 0.6667 1.0000
vt 0.3333 0.0000
vt 3.3333 0.0000
vt 3.3333 1.0000
vt 0.3333 1.0000
vt 0.6667 -0.0000
vt 3.1667 0.0000
vt 3.1667 1.0000
vt 0.6667 1.0000
vt 0.0000 0.0000
vt 2.0000 0.0000
vt 2.0000 1.0000
vt -0.0000 1.0000
vt 0.0000 0.0000
vt 2.8333 -0.0000
vt 2.8333 1.0000
vt -0.0000 1.0000
vt 0.1667 0.0000
vt 2.1667 0.0000
vt 2.1667 1.0000
vt 0.1667 1.0000
vt 0.1667 0.0000
vt 1.5000 0.0000
vt 1.5000 1.0000
vt 0.1667 1.0000
vt 0.0000 0.0000
vt 1.1667 0.0000
vt 1.1667 1.0000
vt -0.0000 1.0000
vt 0.8333 0.0000
vt 1.1667 0.0000
vt 1.1667 1.0000
vt 0.8333 1.0000
vt 0.3333 0.0000
vt 0.6667 -0.0000
vt 0.6667 1.0000
vt 0.3333 1.0000
vt 0.1667 0.0000
vt 1.1667 0.0000
vt 1.1667 1.0000
vt 0.1667 1.0000
vt 0.0000 0.0000
vt 1.5000 0.0000
vt 1.5000 1.0000
vt -0.0000 1.0000
vt 0.8333 0.0000
vt 1.3333 0.0000
vt 1.3333 1.0000
vt 0.8333 1.0000
vt 0.6667 -0.0000
vt 1.5000 0.0000
vt 1.5000 1.0000
vt 0.6667 1.0000
vt 0.6667 -0.0000
vt 0.8333 0.0000
vt 0.8333 1.0000
vt 0.6667 1.0000
vt 0.5000 0.0000
vt 1.3333 0.0000
vt 1.3333 1.0000
vt 0.5000 1.0000
vt 0.0000 0.0000
vt 0.3333 0.0000
vt 0.3333 1.0000
vt -0.0000 1.0000
vt 0.6667 -0.0000
vt 1.5000 0.0000
vt 1.5000 1.0000
vt 0.6667 1.0000
vt 0.0000 0.0000
vt 0.3333 0.0000
vt 0.3333 1.0000
vt -0.0000 1.0000
vt 0.8333 0.0000
vt 1.1667 0.0000
vt 1.1667 1.0000
vt 0.8333 1.0000
vt 0.6667 -0.0000
vt 1.0000 0.0000
vt 1.0000 1.0000
vt 0.6667 1.0000
vt 0.8333 0.0000
vt 1.1667 0.0000
vt 1.1667 1.0000
vt 0.8333 1.0000
vt 0.1667 0.0000
vt 0.5000 0.0000
vt 0.5000 1.0000
vt 0.1667 1.0000
vt 0.6667 -0.0000
vt 0.6667 1.0000
vt 0.5000 0.0000
vt 1.0000 0.0000
vt 1.0000 1.0000
vt 0.5000 1.0000
vt 0.5000 0.0000
vt 0.5000 1.0000
vt 0.6667 -0.0000
vt 0.8333 0.0000
vt 0.8333 1.0000
vt 0.6667 1.0000
vt 0.1667 0.0000
vt 0.8333 0.0000
vt 0.8333 1.0000
vt 0.1667 1.0000
vt 0.6667 -0.0000
vt 2.0000 0.0000
vt 2.0000 1.0000
vt 0.6667 1.0000
vt 0.8333 0.0000
vt 2.1667 0.0000
vt 2.1667 1.0000
vt 0.8333 1.0000
vt 0.3333 0.0000
vt 1.5000 0.0000
vt 1.5000 1.0000
vt 0.3333 1.0000
vt 0.5000 0.0000
vt 1.1667 0.0000
vt 1.1667 1.0000
vt 0.5000 1.0000
vt 0.6667 -0.0000
vt 1.0000 0.0000
vt 1.0000 1.0000
vt 0.6667 1.0000
vt 0.6667 -0.0000
vt 1.1667 0.0000
vt 1.1667 1.0000
vt 0.6667 1.0000
vt 0.3333 0.0000
vt 1.0000 0.0000
vt 1.0000 1.0000
vt 0.3333 1.0000
vt 0.6667 -0.0000
vt 1.1667 0.0000
vt 1.1667 1.0000
vt 0.6667 1.0000
vt 0.1667 0.0000
vt 0.5000 0.0000
vt 0.5000 1.0000
vt 0.1667 1.0000
vt 0.0000 0.0000
vt 1.1667 0.0000
vt 1.1667 1.0000
vt -0.0000 1.0000
vt 0.8333 0.0000
vt 2.1667 0.0000
vt 2.1667 1.0000
vt 0.8333 1.0000
vt 0.5000 0.0000
vt 1.6667 0.0000
vt 1.6667 1.0000
vt 0.5000 1.0000
vt 0.8333 0.0000
vt 2.0000 0.0000
vt 2.0000 1.0000
vt 0.8333 1.0000
vt 0.5000 0.0000
vt 2.3333 0.0000
vt 2.3333 1.0000
vt 0.5000 1.0000
vt 0.8333 0.0000
vt 3.3333 0.0000
vt 3.3333 1.0000
vt 0.8333 1.0000
vt 0.5000 0.0000
vt 2.0000 0.0000
vt 2.0000 1.0000
vt 0.5000 1.0000
vt 0.1667 0.0000
vt 1.0000 0.0000
vt 1.0000 1.0000
vt 0.1667 1.0000
vt 0.5000 0.0000
vt 0.6667 -0.0000
vt 0.6667 1.0000
vt 0.5000 1.0000
vn -0.0433 0.0000 0.9991
vn -0.9969 0.0000 -0.0791
vn -0.0783 0.0000 0.9969
vn 0.9969 0.0000 0.0791
vn 0.0433 0.0000 -0.9991
vn -0.9969 0.0000 -0.0790
vn 0.9995 0.0000 -0.0318
vn -0.0305 0.0000 -0.9995
vn -0.9995 0.0000 0.0318
vn -0.9995 0.0000 0.0305
vn 0.0305 0.0000 0.9995
vn -0.9985 0.0000 0.0555
vn -0.0565 0.0000 -0.9984
vn -0.9985 0.0000 0.0546
vn 0.0567 0.0000 0.9984
vn 0.9985 0.0000 -0.0555
vn -0.0607 0.0000 -0.9982
vn 0.9908 0.0000 -0.1350
vn -0.1327 0.0000 -0.9912
vn 0.9908 0.0000 -0.1357
vn -0.1701 0.0000 -0.9854
vn -0.9908 0.0000 0.1357
vn 0.1327 -0.0000 0.9912
vn 0.2426 0.0000 0.9701
vn 0.9786 0.0000 -0.2056
vn -0.2417 0.0000 -0.9704
vn -0.9787 0.0000 0.2051
vn -0.9993 0.0000 0.0370
vn 0.0294 0.0000 0.9996
vn 0.9993 0.0000 -0.0370
vn 0.0280 -0.0000 0.9996
vn 0.9996 0.0000 -0.0291
vn -0.0280 0.0000 -0.9996
vn -0.9766 0.0000 0.2148
vn 0.2153 0.0000 0.9765
vn 0.9766 0.0000 -0.2150
vn -0.1613 0.0000 -0.9869
vn -0.9494 0.0000 0.3141
vn 0.2904 0.0000 0.9569
vn 0.9494 0.0000 -0.3141
vn 0.3134 0.0000 0.9496
vn 0.9494 0.0000 -0.3139
vn -0.3133 0.0000 -0.9496
vn -0.9741 0.0000 0.2259
vn 0.2249 0.0000 0.9744
vn 0.9740 0.0000 -0.2267
vn -0.1705 0.0000 -0.9854
vn -0.1548 0.0000 -0.9879
vn -0.9879 0.0000 0.1552
vn 0.1555 0.0000 0.9878
vn 0.9655 0.0000 -0.2603
vn 0.9953 0.0000 -0.0968
vn -0.0990 0.0000 -0.9951
vn -0.9953 0.0000 0.0967
vn -0.0935 0.0000 -0.9956
vn -0.9952 0.0000 0.0981
vn 0.0935 -0.0000 0.9956
vn -0.2383 0.0000 0.9712
vn -0.2803 0.0000 0.9599
vn -0.2840 0.0000 0.9588
vn -0.2877 0.0000 0.9577
vn 0.9034 0.0000 0.4288
vn 0.4655 0.0000 -0.8851
vn 0.4616 0.0000 -0.8871
vn 0.4634 0.0000 -0.8862
vn 0.4689 0.0000 -0.8832
vn -0.9034 0.0000 -0.4288
vn -0.4689 0.0000 0.8833
vn -0.4633 0.0000 0.8862
vn -0.4578 0.0000 0.8891
vn -0.9034 0.0000 -0.4287
vn 0.2803 0.0000 -0.9599
vn 0.2383 0.0000 -0.9712
vn -0.9034 0.0000 -0.4289
vn 0.1540 0.0000 0.9881
vn 0.9913 0.0000 -0.1318
vn -0.1540 0.0000 -0.9881
vn -0.9913 0.0000 0.1319
vn 0.1320 0.0000 0.9912
vn 0.9913 0.0000 -0.1319
vn -0.2175 0.0000 0.9761
vn 0.9662 0.0000 0.2579
vn -0.2178 0.0000 0.9760
vn -0.9655 0.0000 -0.2605
vn 0.9655 0.0000 0.2605
vn 0.2177 0.0000 -0.9760
vn -0.9662 0.0000 -0.2579
vn -0.8563 0.0000 -0.5165
vn -0.7283 0.0000 0.6852
vn 0.8575 0.0000 0.5145
vn 0.5223 0.0000 -0.8528
vn -0.8575 0.0000 -0.5145
vn 0.7283 0.0000 -0.6853
g CityEngineMaterial_767_CityEngineMaterial_767_CityEngineMaterial_767_mat
usemtl CityEngineMaterial_767_mat
s 1
f 1/1/1 2/2/1 3/3/1 4/4/1
f 2/5/2 5/6/2 6/7/2 3/8/2
f 5/9/3 7/10/3 8/11/3 6/12/3
f 7/13/4 9/14/4 10/15/4 8/16/4
f 9/17/5 11/18/5 12/19/5 10/20/5
f 11/21/6 1/22/6 4/23/6 12/24/6
f 13/25/7 14/26/7 15/27/7 16/28/7
f 14/29/8 17/30/8 18/31/8 15/32/8
f 17/33/9 19/34/9 20/35/9 18/36/9
f 19/37/8 21/38/8 22/39/8 20/40/8
f 21/41/10 23/42/10 24/43/10 22/44/10
f 23/45/11 13/46/11 16/47/11 24/48/11
f 25/49/12 26/50/12 27/51/12 28/52/12
f 26/53/13 29/54/13 30/55/13 27/56/13
f 29/57/14 31/58/14 32/59/14 30/60/14
f 31/61/15 33/62/15 34/63/15 32/64/15
f 33/65/16 35/66/16 36/67/16 34/68/16
f 35/69/17 25/70/17 28/71/17 36/72/17
f 37/73/18 38/74/18 39/75/18 40/76/18
f 38/77/19 41/78/19 42/79/19 39/80/19
f 41/81/20 43/82/20 44/83/20 42/84/20
f 43/85/21 45/86/21 46/87/21 44/88/21
f 45/89/22 47/90/22 48/91/22 46/92/22
f 47/93/23 37/94/23 40/95/23 48/96/23
f 49/97/24 50/98/24 51/99/24 52/100/24
f 50/101/25 53/102/25 54/103/25 51/104/25
f 53/105/26 55/106/26 56/107/26 54/108/26
f 55/109/27 49/110/27 52/111/27 56/112/27
f 57/113/28 58/114/28 59/115/28 60/116/28
f 58/117/29 61/118/29 62/119/29 59/120/29
f 61/121/30 63/122/30 64/123/30 62/124/30
f 63/125/31 65/126/31 66/127/31 64/128/31
f 65/129/32 67/130/32 68/131/32 66/132/32
f 67/133/33 57/134/33 60/135/33 68/136/33
f 69/137/34 70/138/34 71/139/34 72/140/34
f 70/141/35 73/142/35 74/143/35 71/144/35
f 73/145/36 75/146/36 76/147/36 74/148/36
f 75/149/37 69/150/37 72/151/37 76/152/37
f 77/153/38 78/154/38 79/155/38 80/156/38
f 78/157/39 81/158/39 82/159/39 79/160/39
f 81/161/40 83/162/40 84/163/40 82/164/40
f 83/165/41 85/166/41 86/167/41 84/168/41
f 85/169/42 87/170/42 88/171/42 86/172/42
f 87/173/43 77/174/43 80/175/43 88/176/43
f 89/177/44 90/178/44 91/179/44 92/180/44
f 90/181/45 93/182/45 94/183/45 91/184/45
f 93/185/46 95/186/46 96/187/46 94/188/46
f 95/189/47 89/190/47 92/191/47 96/192/47
f 97/193/48 98/194/48 99/195/48 100/196/48
f 98/197/49 101/198/49 102/199/49 99/200/49
f 101/201/50 103/202/50 104/203/50 102/204/50
f 103/205/51 97/206/51 100/207/51 104/208/51
f 105/209/52 106/210/52 107/211/52 108/212/52
f 106/213/53 109/214/53 110/215/53 107/216/53
f 109/217/54 111/218/54 112/219/54 110/220/54
f 111/221/55 113/222/55 114/223/55 112/224/55
f 113/225/56 115/226/56 116/227/56 114/228/56
f 115/229/57 105/230/57 108/231/57 116/232/57
f 117/233/58 118/234/58 119/235/58 120/236/58
f 118/237/59 121/238/60 122/239/60 119/240/59
f 121/241/60 123/242/61 124/243/61 122/244/60
f 123/245/62 125/246/62 126/247/62 124/248/62
f 125/249/63 127/250/64 128/251/64 126/252/63
f 127/253/64 129/254/65 130/255/65 128/256/64
f 129/257/65 131/258/66 132/259/66 130/260/65
f 131/261/67 133/262/67 134/263/67 132/264/67
f 133/265/68 135/266/69 136/267/69 134/268/68
f 135/269/69 137/270/70 138/271/70 136/272/69
f 137/273/71 139/274/71 140/275/71 138/276/71
f 139/274/72 141/277/72 142/278/72 140/275/72
f 141/279/73 143/280/73 144/281/73 142/282/73
f 143/283/74 117/233/74 120/236/74 144/284/74
f 145/285/75 146/286/75 147/287/75 148/288/75
f 146/289/76 149/290/76 150/291/76 147/292/76
f 149/293/77 151/294/77 152/295/77 150/296/77
f 151/297/78 153/298/78 154/299/78 152/300/78
f 153/301/79 155/302/79 156/303/79 154/304/79
f 155/305/80 145/306/80 148/307/80 156/308/80
f 157/309/81 158/310/81 159/311/81 160/312/81
f 158/313/82 161/314/82 162/315/82 159/316/82
f 161/317/83 163/318/83 164/319/83 162/320/83
f 163/321/84 165/322/84 166/323/84 164/324/84
f 165/325/81 167/326/81 168/327/81 166/328/81
f 167/329/85 169/330/85 170/331/85 168/332/85
f 169/333/86 171/334/86 172/335/86 170/336/86
f 171/337/87 157/338/87 160/339/87 172/340/87
f 173/341/88 174/342/88 175/343/88 176/344/88
f 174/345/89 177/346/89 178/347/89 175/348/89
f 177/349/90 179/350/90 180/351/90 178/352/90
f 179/353/91 181/354/91 182/355/91 180/356/91
f 181/357/92 183/358/92 184/359/92 182/360/92
f 183/361/93 173/362/93 176/363/93 184/364/93
