# Blender v2.78 (sub 0) OBJ File: ''
# www.blender.org
mtllib CityEngineMaterial_79.mtl
o CityEngineMaterial_79
v -59.020599 25.209770 -428.972992
v -59.647202 25.209770 -432.489014
v -59.647202 26.914270 -432.489014
v -59.020599 26.914270 -428.972992
v -58.877800 25.209770 -432.619293
v -58.877800 26.914270 -432.619293
v -59.686298 25.209770 -437.127014
v -59.686298 26.914270 -437.127014
v -66.081902 25.209770 -436.044006
v -66.081902 26.914270 -436.044006
v -64.650703 25.209770 -428.012299
v -64.650703 26.914270 -428.012299
v -183.522598 12.440664 -390.453308
v -183.646698 12.440665 -397.131805
v -183.646698 14.280565 -397.131805
v -183.522598 14.280564 -390.453308
v -184.430496 12.440667 -410.041687
v -184.430496 14.280567 -410.041687
v -206.663101 12.440665 -400.722687
v -206.663101 14.280565 -400.722687
v -201.444504 12.440663 -388.283112
v -201.444504 14.280563 -388.283112
v 479.448700 21.695738 387.703094
v 474.985504 21.695742 366.405914
v 474.985504 23.809841 366.405914
v 479.448700 23.809837 387.703094
v 474.602386 21.695742 366.263092
v 474.602386 23.809841 366.263092
v 462.212189 21.695740 369.776398
v 462.212189 23.809839 369.776398
v 466.565308 21.695738 390.414093
v 466.565308 23.809837 390.414093
v 78.999603 42.581509 -662.628784
v 78.067497 42.581509 -662.483398
v 78.067497 44.530605 -662.483398
v 78.999603 44.530605 -662.628784
v 77.456497 42.581509 -666.387512
v 77.456497 44.530605 -666.387512
v 78.391502 42.581509 -666.533813
v 78.391502 44.530605 -666.533813
v 77.907303 42.581512 -669.643799
v 77.907303 44.530609 -669.643799
v 63.305500 42.581512 -667.357117
v 63.305500 44.530609 -667.357117
v 64.714897 42.581509 -658.351685
v 64.714897 44.530605 -658.351685
v 79.311203 42.581509 -660.627930
v 79.311203 44.530605 -660.627930
v 181.032593 29.104521 -123.505394
v 177.497803 29.104523 -144.816696
v 177.497803 31.066822 -144.816696
v 181.032593 31.066820 -123.505394
v 161.810699 29.104523 -142.202698
v 161.810699 31.066822 -142.202698
v 166.446304 29.104519 -120.592690
v 166.446304 31.066818 -120.592690
v 507.657013 25.842154 277.805511
v 485.475098 25.842154 282.682587
v 485.475098 27.691454 282.682587
v 507.657013 27.691454 277.805511
v 489.194611 25.842152 297.631104
v 489.194611 27.691452 297.631104
v 510.834290 25.842152 292.287292
v 510.834290 27.691452 292.287292
v -390.526306 2.684345 -280.016388
v -392.829803 2.684345 -279.311493
v -392.829803 4.312745 -279.311493
v -390.526306 4.312746 -280.016388
v -393.865509 2.684346 -282.723389
v -393.865509 4.312746 -282.723389
v -406.532013 2.684446 -278.855103
v -406.532013 4.312745 -278.855103
v -403.320007 2.684344 -268.274292
v -403.320007 4.312744 -268.274292
v -388.352295 2.684344 -272.854797
v -388.352295 4.312744 -272.854797
v -83.643402 17.860661 -369.574310
v -86.349297 17.860662 -384.396606
v -86.349297 19.790663 -384.396606
v -83.643402 19.790661 -369.574310
v -96.077499 17.860662 -382.987793
v -96.077499 19.790663 -382.987793
v -93.917900 17.860659 -368.096802
v -93.917900 19.790659 -368.096802
v 913.611816 100.391029 -205.864792
v 914.524414 100.391029 -201.712387
v 914.524414 101.931831 -201.712387
v 913.611816 101.931831 -205.864792
v 910.763000 100.391029 -200.924988
v 910.763000 101.931831 -200.924988
v 910.116272 100.391029 -205.139389
v 910.116272 101.931831 -205.139389
v 905.712585 100.391029 -204.225388
v 905.712585 101.931831 -204.225388
v 907.246216 100.391029 -194.230484
v 907.246216 101.931831 -194.230484
v 919.487610 100.391029 -196.793091
v 919.487610 101.931831 -196.793091
v 917.324280 100.391029 -206.635284
v 917.324280 101.931831 -206.635284
v 339.178986 55.927883 -513.685486
v 339.496185 55.927883 -516.373108
v 339.496185 57.545883 -516.373108
v 339.178986 57.545883 -513.685486
v 336.431488 55.927883 -516.742798
v 336.431488 57.545883 -516.742798
v 337.227112 55.927883 -523.540100
v 337.227112 57.545883 -523.540100
v 324.975403 55.927883 -525.010071
v 324.975403 57.545883 -525.010071
v 323.866089 55.927883 -515.532593
v 323.866089 57.545883 -515.532593
v 91.039497 42.405403 -629.594788
v 87.833801 42.405407 -650.001587
v 87.833801 44.293106 -650.001587
v 91.039497 44.293003 -629.594788
v 76.412903 42.405407 -648.208801
v 76.412903 44.293106 -648.208801
v 79.623703 42.405403 -627.807129
v 79.623703 44.293003 -627.807129
v 263.539490 30.356493 46.716805
v 263.559692 30.356493 51.269604
v 263.559692 32.045994 51.269604
v 263.539490 32.045994 46.716805
v 269.587585 30.356493 51.464104
v 269.587585 32.045994 51.464104
v 269.584900 30.356493 50.839104
v 269.584900 32.045994 50.839104
v 273.986786 30.356493 50.975304
v 273.986786 32.045994 50.975304
v 274.029205 30.356493 51.607403
v 274.029205 32.045994 51.607403
v 280.347290 30.356493 51.811302
v 280.347290 32.045994 51.811302
v 280.039612 30.356493 47.227406
v 280.039612 32.045994 47.227406
v -529.256226 16.454716 -717.299988
v -530.721130 16.454718 -722.174072
v -530.721130 18.081219 -722.174072
v -529.256226 18.081217 -717.299988
v -532.450317 16.454718 -721.656494
v -532.450317 18.081219 -721.656494
v -533.489807 16.454718 -725.081421
v -533.489807 18.081219 -725.081421
v -541.366272 16.454718 -722.690430
v -541.366272 18.081219 -722.690430
v -538.857727 16.454716 -714.426270
v -538.857727 18.081217 -714.426270
vt -0.0000 0.0000
vt 3.0000 0.0000
vt 3.0000 1.0000
vt -0.0000 1.0000
vt -0.0000 0.0000
vt 1.0000 0.0000
vt 1.0000 1.0000
vt -0.0000 1.0000
vt -0.0000 0.0000
vt 4.0000 -0.0000
vt 4.0000 1.0000
vt -0.0000 1.0000
vt -0.0000 0.0000
vt 5.0000 0.0000
vt 5.0000 1.0000
vt -0.0000 1.0000
vt -0.0000 0.0000
vt 6.0000 0.0000
vt 6.0000 1.0000
vt -0.0000 1.0000
vt -0.0000 0.0000
vt 5.0000 0.0000
vt 5.0000 1.0000
vt -0.0000 1.0000
vt -0.0000 0.0000
vt 7.0000 -0.0000
vt 7.0000 1.0000
vt -0.0000 1.0000
vt -0.0000 0.0000
vt 13.0000 0.0000
vt 13.0000 1.0000
vt -0.0000 1.0000
vt -0.0000 0.0000
vt 24.0000 0.0000
vt 24.0000 1.0000
vt -0.0000 1.0000
vt -0.0000 0.0000
vt 13.0000 0.0000
vt 13.0000 1.0000
vt -0.0000 1.0000
vt -0.0000 0.0000
vt 18.0000 -0.0000
vt 18.0000 1.0000
vt -0.0000 1.0000
vt -0.0000 0.0000
vt 17.0000 -0.0000
vt 17.0000 1.0000
vt -0.0000 1.0000
vt -0.0000 0.0000
vt 0.2000 0.0000
vt 0.2000 1.0000
vt -0.0000 1.0000
vt -0.0000 0.0000
vt 10.0000 0.0000
vt 10.0000 1.0000
vt -0.0000 1.0000
vt -0.0000 0.0000
vt 17.0000 -0.0000
vt 17.0000 1.0000
vt -0.0000 1.0000
vt -0.0000 0.0000
vt 10.0000 0.0000
vt 10.0000 1.0000
vt -0.0000 1.0000
vt -0.0000 0.0000
vt 1.0000 0.0000
vt 1.0000 1.0000
vt -0.0000 1.0000
vt -0.0000 0.0000
vt 3.0000 0.0000
vt 3.0000 1.0000
vt -0.0000 1.0000
vt -0.0000 0.0000
vt 1.0000 0.0000
vt 1.0000 1.0000
vt -0.0000 1.0000
vt -0.0000 0.0000
vt 2.0000 0.0000
vt 2.0000 1.0000
vt -0.0000 1.0000
vt -0.0000 0.0000
vt 11.0000 -0.0000
vt 11.0000 1.0000
vt -0.0000 1.0000
vt -0.0000 0.0000
vt 7.0000 -0.0000
vt 7.0000 1.0000
vt -0.0000 1.0000
vt -0.0000 0.0000
vt 11.0000 -0.0000
vt 11.0000 1.0000
vt -0.0000 1.0000
vt -0.0000 0.0000
vt 1.0000 0.0000
vt 1.0000 1.0000
vt -0.0000 1.0000
vt -0.0000 0.0000
vt 15.0000 0.0000
vt 15.0000 1.0000
vt -0.0000 1.0000
vt -0.0000 0.0000
vt 11.0000 -0.0000
vt 11.0000 1.0000
vt -0.0000 1.0000
vt -0.0000 0.0000
vt 16.0000 0.0000
vt 16.0000 1.0000
vt -0.0000 1.0000
vt -0.0000 0.0000
vt 11.0000 -0.0000
vt 11.0000 1.0000
vt -0.0000 1.0000
vt -0.0000 0.0000
vt 23.0000 0.0000
vt 23.0000 1.0000
vt -0.0000 1.0000
vt -0.0000 0.0000
vt 16.0000 0.0000
vt 16.0000 1.0000
vt -0.0000 1.0000
vt -0.0000 0.0000
vt 23.0000 0.0000
vt 23.0000 1.0000
vt -0.0000 1.0000
vt -0.0000 0.0000
vt 15.0000 0.0000
vt 15.0000 1.0000
vt -0.0000 1.0000
vt -0.0000 0.0000
vt 3.0000 0.0000
vt 3.0000 1.0000
vt -0.0000 1.0000
vt -0.0000 0.0000
vt 4.0000 -0.0000
vt 4.0000 1.0000
vt -0.0000 1.0000
vt -0.0000 0.0000
vt 14.0000 -0.0000
vt 14.0000 1.0000
vt -0.0000 1.0000
vt -0.0000 0.0000
vt 12.0000 -0.0000
vt 12.0000 1.0000
vt -0.0000 1.0000
vt -0.0000 0.0000
vt 17.0000 -0.0000
vt 17.0000 1.0000
vt -0.0000 1.0000
vt -0.0000 0.0000
vt 8.0000 0.0000
vt 8.0000 1.0000
vt -0.0000 1.0000
vt -0.0000 0.0000
vt 15.0000 0.0000
vt 15.0000 1.0000
vt -0.0000 1.0000
vt -0.0000 0.0000
vt 10.0000 0.0000
vt 10.0000 1.0000
vt -0.0000 1.0000
vt -0.0000 0.0000
vt 15.0000 0.0000
vt 15.0000 1.0000
vt -0.0000 1.0000
vt -0.0000 0.0000
vt 11.0000 -0.0000
vt 11.0000 1.0000
vt -0.0000 1.0000
vt -0.0000 0.0000
vt 3.0000 0.0000
vt 3.0000 1.0000
vt -0.0000 1.0000
vt -0.0000 0.0000
vt 3.0000 0.0000
vt 3.0000 1.0000
vt -0.0000 1.0000
vt -0.0000 0.0000
vt 3.0000 0.0000
vt 3.0000 1.0000
vt -0.0000 1.0000
vt -0.0000 0.0000
vt 3.0000 0.0000
vt 3.0000 1.0000
vt -0.0000 1.0000
vt -0.0000 0.0000
vt 7.0000 -0.0000
vt 7.0000 1.0000
vt -0.0000 1.0000
vt -0.0000 0.0000
vt 9.0000 0.0000
vt 9.0000 1.0000
vt -0.0000 1.0000
vt -0.0000 0.0000
vt 7.0000 -0.0000
vt 7.0000 1.0000
vt -0.0000 1.0000
vt -0.0000 0.0000
vt 3.0000 0.0000
vt 3.0000 1.0000
vt -0.0000 1.0000
vt -0.0000 0.0000
vt 2.0000 0.0000
vt 2.0000 1.0000
vt -0.0000 1.0000
vt -0.0000 0.0000
vt 2.0000 0.0000
vt 2.0000 1.0000
vt -0.0000 1.0000
vt -0.0000 0.0000
vt 5.0000 0.0000
vt 5.0000 1.0000
vt -0.0000 1.0000
vt -0.0000 0.0000
vt 9.0000 0.0000
vt 9.0000 1.0000
vt -0.0000 1.0000
vt -0.0000 0.0000
vt 7.0000 -0.0000
vt 7.0000 1.0000
vt -0.0000 1.0000
vt -0.0000 0.0000
vt 11.0000 -0.0000
vt 11.0000 1.0000
vt -0.0000 1.0000
vt -0.0000 0.0000
vt 19.0000 0.0000
vt 19.0000 1.0000
vt -0.0000 1.0000
vt -0.0000 0.0000
vt 11.0000 -0.0000
vt 11.0000 1.0000
vt -0.0000 1.0000
vt -0.0000 0.0000
vt 19.0000 0.0000
vt 19.0000 1.0000
vt -0.0000 1.0000
vt -0.0000 0.0000
vt 11.0000 -0.0000
vt 11.0000 1.0000
vt -0.0000 1.0000
vt -0.0000 0.0000
vt 3.0000 0.0000
vt 3.0000 1.0000
vt -0.0000 1.0000
vt -0.0000 0.0000
vt 4.0000 -0.0000
vt 4.0000 1.0000
vt -0.0000 1.0000
vt -0.0000 0.0000
vt 0.2000 0.0000
vt 0.2000 1.0000
vt -0.0000 1.0000
vt -0.0000 0.0000
vt 3.0000 0.0000
vt 3.0000 1.0000
vt -0.0000 1.0000
vt -0.0000 0.0000
vt 0.2000 0.0000
vt 0.2000 1.0000
vt -0.0000 1.0000
vt -0.0000 0.0000
vt 4.0000 -0.0000
vt 4.0000 1.0000
vt -0.0000 1.0000
vt -0.0000 0.0000
vt 3.0000 0.0000
vt 3.0000 1.0000
vt -0.0000 1.0000
vt -0.0000 0.0000
vt 12.0000 -0.0000
vt 12.0000 1.0000
vt -0.0000 1.0000
vt -0.0000 0.0000
vt 4.0000 -0.0000
vt 4.0000 1.0000
vt -0.0000 1.0000
vt -0.0000 0.0000
vt 1.0000 0.0000
vt 1.0000 1.0000
vt -0.0000 1.0000
vt -0.0000 0.0000
vt 3.0000 0.0000
vt 3.0000 1.0000
vt -0.0000 1.0000
vt -0.0000 0.0000
vt 6.0000 0.0000
vt 6.0000 1.0000
vt -0.0000 1.0000
vt -0.0000 0.0000
vt 7.0000 -0.0000
vt 7.0000 1.0000
vt -0.0000 1.0000
vt -0.0000 0.0000
vt 8.0000 0.0000
vt 8.0000 1.0000
vt -0.0000 1.0000
vn 0.9845 0.0000 -0.1754
vn 0.1669 0.0000 0.9860
vn 0.9843 0.0000 -0.1765
vn -0.1670 0.0000 -0.9860
vn -0.9845 0.0000 0.1754
vn 0.1682 0.0000 0.9858
vn 0.9998 0.0000 -0.0186
vn 0.9982 0.0000 -0.0606
vn -0.3866 0.0000 -0.9223
vn -0.9221 0.0000 0.3869
vn 0.1202 0.0000 0.9927
vn 0.9787 0.0000 -0.2051
vn 0.3493 0.0000 -0.9370
vn -0.2728 0.0000 -0.9621
vn -0.9785 0.0000 0.2064
vn 0.2059 0.0000 0.9786
vn -0.1542 0.0000 -0.9880
vn 0.9880 0.0000 -0.1546
vn 0.1546 0.0000 0.9880
vn 0.9881 0.0000 -0.1538
vn -0.1547 0.0000 -0.9880
vn -0.9880 0.0000 0.1546
vn 0.1541 0.0000 0.9881
vn 0.9881 0.0000 -0.1539
vn 0.9865 0.0000 -0.1636
vn -0.1644 0.0000 -0.9864
vn -0.9778 0.0000 0.2097
vn 0.1958 0.0000 0.9806
vn -0.2147 0.0000 -0.9767
vn -0.9704 0.0000 0.2415
vn 0.2397 0.0000 0.9708
vn 0.9768 0.0000 -0.2143
vn -0.2926 0.0000 -0.9562
vn 0.9569 0.0000 -0.2905
vn -0.2921 0.0000 -0.9564
vn -0.9569 0.0000 0.2905
vn 0.2926 0.0000 0.9562
vn 0.9837 0.0000 -0.1796
vn -0.1433 0.0000 -0.9897
vn -0.9896 0.0000 0.1435
vn 0.1423 0.0000 0.9898
vn -0.9767 0.0000 0.2147
vn -0.2049 0.0000 -0.9788
vn 0.9884 0.0000 -0.1517
vn -0.2032 0.0000 -0.9791
vn -0.9884 0.0000 0.1517
vn 0.2049 0.0000 0.9788
vn 0.9767 0.0000 -0.2147
vn 0.9931 0.0000 0.1172
vn 0.1198 0.0000 -0.9928
vn 0.9932 0.0000 0.1163
vn 0.1191 0.0000 -0.9929
vn -0.9932 0.0000 -0.1163
vn -0.1198 0.0000 0.9928
vn 0.9879 0.0000 -0.1552
vn -0.1551 0.0000 -0.9879
vn -0.9878 0.0000 0.1555
vn 0.1547 0.0000 0.9880
vn -1.0000 0.0000 0.0044
vn -0.0323 0.0000 0.9995
vn 1.0000 0.0000 -0.0043
vn -0.0309 0.0000 0.9995
vn -0.9978 0.0000 0.0670
vn 0.9978 0.0000 -0.0670
vn 0.0309 0.0000 -0.9995
vn 0.9577 0.0000 -0.2878
vn -0.2868 0.0000 -0.9580
vn 0.9569 0.0000 -0.2904
vn -0.2905 0.0000 -0.9569
vn 0.2867 0.0000 0.9580
g CityEngineMaterial_79_CityEngineMaterial_79_CityEngineMaterial_79_mat
usemtl CityEngineMaterial_79_mat
s 1
f 1/1/1 2/2/1 3/3/1 4/4/1
f 2/5/2 5/6/2 6/7/2 3/8/2
f 5/9/3 7/10/3 8/11/3 6/12/3
f 7/13/4 9/14/4 10/15/4 8/16/4
f 9/17/5 11/18/5 12/19/5 10/20/5
f 11/21/6 1/22/6 4/23/6 12/24/6
f 13/25/7 14/26/7 15/27/7 16/28/7
f 14/29/8 17/30/8 18/31/8 15/32/8
f 17/33/9 19/34/9 20/35/9 18/36/9
f 19/37/10 21/38/10 22/39/10 20/40/10
f 21/41/11 13/42/11 16/43/11 22/44/11
f 23/45/12 24/46/12 25/47/12 26/48/12
f 24/49/13 27/50/13 28/51/13 25/52/13
f 27/53/14 29/54/14 30/55/14 28/56/14
f 29/57/15 31/58/15 32/59/15 30/60/15
f 31/61/16 23/62/16 26/63/16 32/64/16
f 33/65/17 34/66/17 35/67/17 36/68/17
f 34/69/18 37/70/18 38/71/18 35/72/18
f 37/73/19 39/74/19 40/75/19 38/76/19
f 39/77/20 41/78/20 42/79/20 40/80/20
f 41/81/21 43/82/21 44/83/21 42/84/21
f 43/85/22 45/86/22 46/87/22 44/88/22
f 45/89/23 47/90/23 48/91/23 46/92/23
f 47/93/24 33/94/24 36/95/24 48/96/24
f 49/97/25 50/98/25 51/99/25 52/100/25
f 50/101/26 53/102/26 54/103/26 51/104/26
f 53/105/27 55/106/27 56/107/27 54/108/27
f 55/109/28 49/110/28 52/111/28 56/112/28
f 57/113/29 58/114/29 59/115/29 60/116/29
f 58/117/30 61/118/30 62/119/30 59/120/30
f 61/121/31 63/122/31 64/123/31 62/124/31
f 63/125/32 57/126/32 60/127/32 64/128/32
f 65/129/33 66/130/33 67/131/33 68/132/33
f 66/133/34 69/134/34 70/135/34 67/136/34
f 69/137/35 71/138/35 72/139/35 70/140/35
f 71/141/36 73/142/36 74/143/36 72/144/36
f 73/145/37 75/146/37 76/147/37 74/148/37
f 75/149/34 65/150/34 68/151/34 76/152/34
f 77/153/38 78/154/38 79/155/38 80/156/38
f 78/157/39 81/158/39 82/159/39 79/160/39
f 81/161/40 83/162/40 84/163/40 82/164/40
f 83/165/41 77/166/41 80/167/41 84/168/41
f 85/169/42 86/170/42 87/171/42 88/172/42
f 86/173/43 89/174/43 90/175/43 87/176/43
f 89/177/44 91/178/44 92/179/44 90/180/44
f 91/181/45 93/182/45 94/183/45 92/184/45
f 93/185/46 95/186/46 96/187/46 94/188/46
f 95/189/47 97/190/47 98/191/47 96/192/47
f 97/193/48 99/194/48 100/195/48 98/196/48
f 99/197/45 85/198/45 88/199/45 100/200/45
f 101/201/49 102/202/49 103/203/49 104/204/49
f 102/205/50 105/206/50 106/207/50 103/208/50
f 105/209/51 107/210/51 108/211/51 106/212/51
f 107/213/52 109/214/52 110/215/52 108/216/52
f 109/217/53 111/218/53 112/219/53 110/220/53
f 111/221/54 101/222/54 104/223/54 112/224/54
f 113/225/55 114/226/55 115/227/55 116/228/55
f 114/229/56 117/230/56 118/231/56 115/232/56
f 117/233/57 119/234/57 120/235/57 118/236/57
f 119/237/58 113/238/58 116/239/58 120/240/58
f 121/241/59 122/242/59 123/243/59 124/244/59
f 122/245/60 125/246/60 126/247/60 123/248/60
f 125/249/61 127/250/61 128/251/61 126/252/61
f 127/253/62 129/254/62 130/255/62 128/256/62
f 129/257/63 131/258/63 132/259/63 130/260/63
f 131/261/60 133/262/60 134/263/60 132/264/60
f 133/265/64 135/266/64 136/267/64 134/268/64
f 135/269/65 121/270/65 124/271/65 136/272/65
f 137/273/66 138/274/66 139/275/66 140/276/66
f 138/277/67 141/278/67 142/279/67 139/280/67
f 141/281/68 143/282/68 144/283/68 142/284/68
f 143/285/69 145/286/69 146/287/69 144/288/69
f 145/289/36 147/290/36 148/291/36 146/292/36
f 147/293/70 137/294/70 140/295/70 148/296/70
