# Blender v2.78 (sub 0) OBJ File: ''
# www.blender.org
mtllib CityEngineMaterial_550.mtl
o CityEngineMaterial_550
v -1143.974854 14.056013 530.861023
v -1144.789795 14.056013 533.281616
v -1144.789795 18.003113 533.281616
v -1143.974854 18.003115 530.861023
v -1146.175659 14.056013 532.814819
v -1146.175659 18.003113 532.814819
v -1148.575806 14.056011 543.394104
v -1148.575806 18.003113 543.394104
v -1142.708252 14.056011 545.370178
v -1142.708252 18.003111 545.370178
v -1138.450439 14.056013 532.721497
v -1138.450439 18.003113 532.721497
v 8.603300 42.073742 -860.335693
v 9.598900 42.073738 -854.017700
v 9.598900 46.205238 -854.017700
v 8.603300 46.205242 -860.335693
v 15.484400 42.073742 -854.939514
v 15.484400 46.205242 -854.939514
v 15.427600 42.073742 -855.300415
v 15.427600 46.205242 -855.300415
v 25.266399 42.073742 -856.841125
v 25.266399 46.205242 -856.841125
v 25.322901 42.073742 -856.480530
v 25.322901 46.205242 -856.480530
v 29.890600 42.073742 -857.195801
v 29.890600 46.205242 -857.195801
v 28.901100 42.073742 -863.514221
v 28.901100 46.205242 -863.514221
v 300.222504 47.363941 -262.379913
v 310.778687 47.363941 -263.408386
v 310.778687 51.185242 -263.408386
v 300.222504 51.185242 -262.379913
v 310.674194 47.363941 -264.651306
v 310.674194 51.185242 -264.651306
v 308.783203 47.363941 -264.467102
v 308.783203 51.185242 -264.467102
v 308.689301 47.363941 -265.593811
v 308.689301 51.185242 -265.593811
v 310.581207 47.363941 -265.756714
v 310.581207 51.185242 -265.756714
v 310.420013 47.363941 -267.672394
v 310.420013 51.185242 -267.672394
v 299.856995 47.363941 -266.762787
v 299.856995 51.185242 -266.762787
v 830.508789 89.626434 -178.973785
v 825.989014 89.626434 -189.127792
v 825.989014 93.382431 -189.127792
v 830.508789 93.382431 -178.973785
v 805.351624 89.626434 -183.077377
v 805.351624 93.382431 -183.077377
v 811.379028 89.626434 -170.912979
v 811.379028 93.382431 -170.912979
v 220.533798 41.248638 -237.707901
v 230.376297 41.248638 -238.020493
v 230.376297 44.711838 -238.020493
v 220.533798 44.711739 -237.707901
v 230.113602 41.248642 -245.953796
v 230.113602 44.711842 -245.953796
v 222.085602 41.248638 -245.181198
v 222.085602 44.711838 -245.181198
v 222.255493 41.248638 -240.050400
v 222.255493 44.711739 -240.050400
v 220.456894 41.248638 -239.993195
v 220.456894 44.711838 -239.993195
v -92.539597 6.095024 -148.690598
v -92.791100 6.095024 -150.560196
v -92.791100 9.693825 -150.560196
v -92.539703 9.693824 -148.690598
v -109.074402 6.095024 -146.861298
v -109.074402 9.693824 -146.861298
v -107.451103 6.095021 -131.811996
v -107.451103 9.693822 -131.811996
v -90.925301 6.095022 -133.587402
v -90.925301 9.693822 -133.587402
v -395.214996 1.313902 -11.798700
v -404.317993 1.313902 -10.730000
v -404.317993 5.358702 -10.729999
v -395.214996 5.358702 -11.798699
v -404.001099 1.313901 -8.030600
v -404.001099 5.358701 -8.030599
v -403.503296 1.313901 -8.089000
v -403.503296 5.358701 -8.088999
v -403.048798 1.313901 -4.217500
v -403.048798 5.358700 -4.217499
v -403.546509 1.313901 -4.158600
v -403.546509 5.358700 -4.158599
v -403.258514 1.313900 -1.705500
v -403.258514 5.358700 -1.705499
v -394.156494 1.313900 -2.782900
v -394.156494 5.358700 -2.782899
v 220.736404 34.266716 -101.799889
v 222.825302 34.266716 -89.687294
v 222.825302 38.424416 -89.687294
v 220.736404 38.424416 -101.799889
v 241.101501 34.266716 -92.846992
v 241.101501 38.424416 -92.846992
v 239.614899 34.266716 -104.249489
v 239.614899 38.424416 -104.249489
v -317.334686 2.861221 483.728485
v -316.731995 2.861220 490.029785
v -316.731995 6.606520 490.029785
v -317.334686 6.606521 483.728485
v -319.088989 2.861220 490.255310
v -319.088989 6.606520 490.255310
v -318.805389 2.861220 493.220306
v -318.805389 6.606519 493.220306
v -307.411285 2.861220 492.130402
v -307.411285 6.606520 492.130402
v -308.299194 2.861221 482.847107
v -308.299194 6.606521 482.847107
v 465.764191 22.142546 322.403900
v 451.470886 22.142546 325.398407
v 451.470886 25.855646 325.398407
v 465.764191 25.855646 322.403900
v 457.082214 22.142542 348.796814
v 457.082214 25.855642 348.796814
v 470.505096 22.142544 345.026093
v 470.505096 25.855644 345.026093
v -498.318695 4.446046 333.127197
v -498.456787 4.446044 344.424713
v -498.456787 8.524444 344.424713
v -498.318695 8.524446 333.127197
v -477.848694 4.446044 344.664398
v -477.848694 8.524444 344.664398
v -477.718903 4.446046 333.337799
v -477.718903 8.524446 333.337799
v -75.815002 1.313744 344.458099
v -61.504200 1.313744 341.571503
v -61.504200 4.524144 341.571503
v -75.815002 4.524144 344.458099
v -61.887798 1.313745 339.670105
v -61.887798 4.524145 339.670105
v -63.093899 1.313745 339.913391
v -63.093899 4.524145 339.913391
v -63.939098 1.313745 335.723297
v -63.939098 4.524145 335.723297
v -62.726398 1.313745 335.512299
v -62.726398 4.524145 335.512299
v -63.219700 1.313746 333.066986
v -63.219700 4.524146 333.066986
v -77.607903 1.313745 335.569702
v -77.607903 4.524145 335.569702
v -4.143500 9.765413 -84.486298
v -3.800100 9.765413 -82.266998
v -3.800100 13.522213 -82.266998
v -4.143500 13.522213 -84.486298
v 7.330700 9.765413 -83.998596
v 7.330700 13.522213 -83.998596
v 6.361400 9.765414 -90.261398
v 6.361400 13.522214 -90.261398
v -4.775000 9.765414 -88.567596
v -4.775000 13.522214 -88.567596
v -4.453700 9.765414 -86.490997
v -4.453700 13.522214 -86.490997
v -2.874700 9.765414 -86.731102
v -2.874700 13.522214 -86.731102
v -2.565300 9.765413 -84.731796
v -2.565300 13.522213 -84.731796
v -151.510498 2.858301 -4.316999
v -128.348999 2.858301 -5.438099
v -128.348999 6.325301 -5.438099
v -151.510498 6.325301 -4.316999
v -130.420593 2.858303 -15.515700
v -130.420593 6.325303 -15.515699
v -151.977798 2.858302 -13.929600
v -151.977798 6.325303 -13.929599
v 408.107605 58.632946 -276.634094
v 407.737213 58.632946 -279.257996
v 407.737213 62.595844 -279.257996
v 408.107605 62.595844 -276.634094
v 411.769012 58.632946 -279.784088
v 411.769012 62.595844 -279.784088
v 409.590698 58.632946 -289.706787
v 409.590698 62.595844 -289.706787
v 404.703308 58.632946 -289.069214
v 404.703308 62.595844 -289.069214
v 406.489014 58.632946 -276.418091
v 406.489014 62.595844 -276.418091
v -904.635986 4.484878 135.728394
v -905.560120 4.484879 130.454102
v -905.560120 7.540479 130.454102
v -904.635986 7.540478 135.728394
v -919.563171 4.484878 133.833801
v -919.563171 7.540478 133.833801
v -918.627380 4.484878 137.712708
v -918.627380 7.540478 137.712708
v -909.320374 4.484878 135.466400
v -909.320374 7.540478 135.466400
v -909.136230 4.484878 136.517303
v -909.136230 7.540478 136.517303
v 332.689392 44.837624 -139.642807
v 336.958405 44.837624 -140.686707
v 336.958405 48.539524 -140.686691
v 332.689392 48.539524 -139.642685
v 336.373291 44.837624 -143.053894
v 336.373291 48.539524 -143.053879
v 321.793091 44.837624 -139.488403
v 321.793091 48.539524 -139.488388
v 321.714111 44.837624 -138.982407
v 321.714111 48.539524 -138.982285
v 323.666595 44.837624 -131.230103
v 323.666595 48.539524 -131.230087
v 334.100494 44.837624 -133.786301
v 334.100494 48.539524 -133.786285
v 332.665009 44.837624 -139.486099
v 332.665009 48.539524 -139.486084
v 713.931580 86.186638 -236.946182
v 710.769104 86.186638 -236.470383
v 710.769104 89.422035 -236.470383
v 713.931580 89.422035 -236.946182
v 710.612488 86.186638 -237.387085
v 710.612488 89.422035 -237.387085
v 705.297424 86.186638 -236.569778
v 705.297424 89.422035 -236.569778
v 706.122681 86.186638 -231.739288
v 706.122681 89.422035 -231.739288
v 714.302185 86.186638 -232.969589
v 714.302185 89.422035 -232.969589
vt 0.3333 0.0000
vt 1.0000 -0.0000
vt 1.0000 1.0000
vt 0.3333 1.0000
vt 0.0000 0.0000
vt 0.3333 0.0000
vt 0.3333 1.0000
vt 0.0000 1.0000
vt 3.6667 -0.0000
vt 3.6667 1.0000
vt 0.0000 0.0000
vt 2.0000 -0.0000
vt 2.0000 1.0000
vt 0.0000 1.0000
vt 0.3333 0.0000
vt 4.3333 0.0000
vt 4.3333 1.0000
vt 0.3333 1.0000
vt 0.0000 0.0000
vt 1.6667 -0.0000
vt 1.6667 1.0000
vt 0.0000 1.0000
vt 0.6667 0.0000
vt 2.6667 0.0000
vt 2.6667 1.0000
vt 0.6667 1.0000
vt 0.6667 0.0000
vt 2.3333 0.0000
vt 2.3333 1.0000
vt 0.6667 1.0000
vt 0.0000 0.0000
vt 0.0667 0.0000
vt 0.0667 1.0000
vt 0.0000 1.0000
vt 0.6667 0.0000
vt 3.6667 -0.0000
vt 3.6667 1.0000
vt 0.6667 1.0000
vt 0.0000 0.0000
vt 0.0667 0.0000
vt 0.0667 1.0000
vt 0.0000 1.0000
vt 0.3333 0.0000
vt 1.6667 -0.0000
vt 1.6667 1.0000
vt 0.3333 1.0000
vt 0.3333 0.0000
vt 2.3333 0.0000
vt 2.3333 1.0000
vt 0.3333 1.0000
vt 0.3333 0.0000
vt 6.3333 0.0000
vt 6.3333 1.0000
vt 0.3333 1.0000
vt 0.0000 0.0000
vt 2.6667 0.0000
vt 2.6667 1.0000
vt 0.0000 1.0000
vt 0.3333 0.0000
vt 0.6667 0.0000
vt 0.6667 1.0000
vt 0.3333 1.0000
vt 0.3333 0.0000
vt 0.6667 0.0000
vt 0.6667 1.0000
vt 0.3333 1.0000
vt 0.3333 0.0000
vt 0.6667 0.0000
vt 0.6667 1.0000
vt 0.3333 1.0000
vt 0.0000 0.0000
vt 0.3333 0.0000
vt 0.3333 1.0000
vt 0.0000 1.0000
vt 0.6667 0.0000
vt 0.6667 1.0000
vt 0.3333 0.0000
vt 3.0000 0.0000
vt 3.0000 1.0000
vt 0.3333 1.0000
vt 0.0000 0.0000
vt 1.0000 -0.0000
vt 1.0000 1.0000
vt 0.0000 1.0000
vt 0.0000 0.0000
vt 2.6667 0.0000
vt 2.6667 1.0000
vt 0.0000 1.0000
vt 0.3333 0.0000
vt 5.3333 0.0000
vt 5.3333 1.0000
vt 0.3333 1.0000
vt 0.0000 0.0000
vt 3.3333 0.0000
vt 3.3333 1.0000
vt 0.0000 1.0000
vt 0.3333 0.0000
vt 5.3333 0.0000
vt 5.3333 1.0000
vt 0.3333 1.0000
vt 0.6667 0.0000
vt 3.3333 0.0000
vt 3.3333 1.0000
vt 0.6667 1.0000
vt 0.6667 0.0000
vt 2.6667 0.0000
vt 2.6667 1.0000
vt 0.6667 1.0000
vt 0.0000 0.0000
vt 2.0000 -0.0000
vt 2.0000 1.0000
vt 0.0000 1.0000
vt 0.6667 0.0000
vt 2.0000 -0.0000
vt 2.0000 1.0000
vt 0.6667 1.0000
vt 0.6667 0.0000
vt 1.0000 -0.0000
vt 1.0000 1.0000
vt 0.6667 1.0000
vt 0.3333 0.0000
vt 1.0000 -0.0000
vt 1.0000 1.0000
vt 0.3333 1.0000
vt 0.3333 0.0000
vt 0.6667 0.0000
vt 0.6667 1.0000
vt 0.3333 1.0000
vt 0.3333 0.0000
vt 4.0000 0.0000
vt 4.0000 1.0000
vt 0.3333 1.0000
vt 0.3333 0.0000
vt 3.6667 -0.0000
vt 3.6667 1.0000
vt 0.3333 1.0000
vt 0.0000 0.0000
vt 3.6667 -0.0000
vt 3.6667 1.0000
vt 0.0000 1.0000
vt 0.3333 0.0000
vt 3.6667 -0.0000
vt 3.6667 1.0000
vt 0.3333 1.0000
vt 0.0000 0.0000
vt 2.6667 0.0000
vt 2.6667 1.0000
vt 0.0000 1.0000
vt 0.6667 0.0000
vt 1.3333 0.0000
vt 1.3333 1.0000
vt 0.6667 1.0000
vt 0.3333 0.0000
vt 0.4000 0.0000
vt 0.4000 1.0000
vt 0.3333 1.0000
vt 0.3333 0.0000
vt 1.3333 0.0000
vt 1.3333 1.0000
vt 0.3333 1.0000
vt 0.0000 0.0000
vt 0.0667 0.0000
vt 0.0667 1.0000
vt 0.0000 1.0000
vt 0.3333 0.0000
vt 1.0000 -0.0000
vt 1.0000 1.0000
vt 0.3333 1.0000
vt 0.3333 0.0000
vt 3.0000 0.0000
vt 3.0000 1.0000
vt 0.3333 1.0000
vt 0.3333 0.0000
vt 3.0000 0.0000
vt 3.0000 1.0000
vt 0.3333 1.0000
vt 0.3333 0.0000
vt 3.6667 -0.0000
vt 3.6667 1.0000
vt 0.3333 1.0000
vt 0.3333 0.0000
vt 5.0000 0.0000
vt 5.0000 1.0000
vt 0.3333 1.0000
vt 0.3333 0.0000
vt 3.3333 0.0000
vt 3.3333 1.0000
vt 0.3333 1.0000
vt 0.6667 0.0000
vt 5.6667 0.0000
vt 5.6667 1.0000
vt 0.6667 1.0000
vt 0.3333 0.0000
vt 2.0000 -0.0000
vt 2.0000 1.0000
vt 0.3333 1.0000
vt 0.3333 0.0000
vt 1.0000 -0.0000
vt 1.0000 1.0000
vt 0.3333 1.0000
vt 0.0000 0.0000
vt 0.6667 0.0000
vt 0.6667 1.0000
vt 0.0000 1.0000
vt 0.3333 0.0000
vt 3.3333 0.0000
vt 3.3333 1.0000
vt 0.3333 1.0000
vt 0.6667 0.0000
vt 3.0000 0.0000
vt 3.0000 1.0000
vt 0.6667 1.0000
vt 0.3333 0.0000
vt 2.6667 0.0000
vt 2.6667 1.0000
vt 0.3333 1.0000
vt 0.3333 0.0000
vt 4.3333 0.0000
vt 4.3333 1.0000
vt 0.3333 1.0000
vt 0.0000 0.0000
vt 7.0000 0.0000
vt 7.0000 1.0000
vt 0.0000 1.0000
vt 0.3333 0.0000
vt 4.3333 0.0000
vt 4.3333 1.0000
vt 0.3333 1.0000
vt 0.0000 0.0000
vt 6.6667 0.0000
vt 6.6667 1.0000
vt 0.0000 1.0000
vt 0.3333 0.0000
vt 3.3333 0.0000
vt 3.3333 1.0000
vt 0.3333 1.0000
vt 0.6667 0.0000
vt 6.0000 0.0000
vt 6.0000 1.0000
vt 0.6667 1.0000
vt 0.6667 0.0000
vt 3.6667 -0.0000
vt 3.6667 1.0000
vt 0.6667 1.0000
vt 0.3333 0.0000
vt 5.6667 0.0000
vt 5.6667 1.0000
vt 0.3333 1.0000
vt 0.3333 0.0000
vt 3.6667 -0.0000
vt 3.6667 1.0000
vt 0.3333 1.0000
vt 0.0000 0.0000
vt 0.3333 0.0000
vt 0.3333 1.0000
vt 0.0000 1.0000
vt 0.0000 0.0000
vt 0.3333 0.0000
vt 0.3333 1.0000
vt 0.0000 1.0000
vt 1.3333 0.0000
vt 1.3333 1.0000
vt 0.6667 0.0000
vt 1.0000 -0.0000
vt 1.0000 1.0000
vt 0.6667 1.0000
vt 0.3333 0.0000
vt 1.0000 -0.0000
vt 1.0000 1.0000
vt 0.3333 1.0000
vt 0.6667 0.0000
vt 4.0000 0.0000
vt 4.0000 1.0000
vt 0.6667 1.0000
vt 0.3333 0.0000
vt 2.3333 0.0000
vt 2.3333 1.0000
vt 0.3333 1.0000
vt 0.3333 0.0000
vt 1.0000 -0.0000
vt 1.0000 1.0000
vt 0.3333 1.0000
vt 0.6667 0.0000
vt 3.6667 -0.0000
vt 3.6667 1.0000
vt 0.6667 1.0000
vt 0.3333 0.0000
vt 2.0000 -0.0000
vt 2.0000 1.0000
vt 0.3333 1.0000
vt 0.0000 0.0000
vt 3.0000 0.0000
vt 3.0000 1.0000
vt 0.0000 1.0000
vt 0.3333 0.0000
vt 1.0000 -0.0000
vt 1.0000 1.0000
vt 0.3333 1.0000
vt 0.3333 0.0000
vt 0.6667 0.0000
vt 0.6667 1.0000
vt 0.3333 1.0000
vt 1.3333 0.0000
vt 1.3333 1.0000
vt 0.3333 0.0000
vt 0.6667 0.0000
vt 0.6667 1.0000
vt 0.3333 1.0000
vt 0.0000 0.0000
vt 7.6667 0.0000
vt 7.6667 1.0000
vt 0.0000 1.0000
vt 0.0000 0.0000
vt 3.3333 0.0000
vt 3.3333 1.0000
vt 0.0000 1.0000
vt 0.3333 0.0000
vt 7.6667 0.0000
vt 7.6667 1.0000
vt 0.3333 1.0000
vt 0.3333 0.0000
vt 3.6667 -0.0000
vt 3.6667 1.0000
vt 0.3333 1.0000
vt 0.3333 0.0000
vt 1.0000 -0.0000
vt 1.0000 1.0000
vt 0.3333 1.0000
vt 0.0000 0.0000
vt 1.3333 0.0000
vt 1.3333 1.0000
vt 0.0000 1.0000
vt 0.3333 0.0000
vt 3.6667 -0.0000
vt 3.6667 1.0000
vt 0.3333 1.0000
vt 0.3333 0.0000
vt 2.0000 -0.0000
vt 2.0000 1.0000
vt 0.3333 1.0000
vt 0.3333 0.0000
vt 4.3333 0.0000
vt 4.3333 1.0000
vt 0.3333 1.0000
vt 0.0000 0.0000
vt 0.6667 0.0000
vt 0.6667 1.0000
vt 0.0000 1.0000
vt 0.3333 0.0000
vt 1.6667 -0.0000
vt 1.6667 1.0000
vt 0.3333 1.0000
vt 0.3333 0.0000
vt 4.0000 0.0000
vt 4.0000 1.0000
vt 0.3333 1.0000
vt 0.3333 0.0000
vt 1.3333 0.0000
vt 1.3333 1.0000
vt 0.3333 1.0000
vt 0.3333 0.0000
vt 2.6667 0.0000
vt 2.6667 1.0000
vt 0.3333 1.0000
vt 0.0000 0.0000
vt 0.3333 0.0000
vt 0.3333 1.0000
vt 0.0000 1.0000
vt 0.0000 0.0000
vt 1.0000 -0.0000
vt 1.0000 1.0000
vt 0.0000 1.0000
vt 0.0000 0.0000
vt 1.6667 -0.0000
vt 1.6667 1.0000
vt 0.0000 1.0000
vt 0.3333 0.0000
vt 1.3333 0.0000
vt 1.3333 1.0000
vt 0.3333 1.0000
vt 0.6667 0.0000
vt 6.0000 0.0000
vt 6.0000 1.0000
vt 0.6667 1.0000
vt 0.3333 0.0000
vt 0.6667 0.0000
vt 0.6667 1.0000
vt 0.3333 1.0000
vt 3.3333 0.0000
vt 3.3333 1.0000
vt 0.3333 0.0000
vt 4.0000 0.0000
vt 4.0000 1.0000
vt 0.3333 1.0000
vt 0.3333 0.0000
vt 2.3333 0.0000
vt 2.3333 1.0000
vt 0.3333 1.0000
vt 0.6667 0.0000
vt 0.7333 -0.0000
vt 0.7333 1.0000
vt 0.6667 1.0000
vt 0.3333 0.0000
vt 1.3333 0.0000
vt 1.3333 1.0000
vt 0.3333 1.0000
vt 0.6667 0.0000
vt 1.0000 -0.0000
vt 1.0000 1.0000
vt 0.6667 1.0000
vt 0.6667 0.0000
vt 2.3333 0.0000
vt 2.3333 1.0000
vt 0.6667 1.0000
vt 0.6667 0.0000
vt 2.3333 0.0000
vt 2.3333 1.0000
vt 0.6667 1.0000
vt 0.6667 0.0000
vt 3.3333 0.0000
vt 3.3333 1.0000
vt 0.6667 1.0000
vt 0.3333 0.0000
vt 1.6667 -0.0000
vt 1.6667 1.0000
vt 0.3333 1.0000
vn -0.9477 0.0000 -0.3191
vn 0.3192 0.0000 -0.9477
vn -0.9752 0.0000 -0.2212
vn -0.3192 0.0000 0.9477
vn 0.9477 0.0000 0.3190
vn -0.9878 0.0000 0.1557
vn 0.1547 0.0000 0.9880
vn 0.9878 0.0000 -0.1555
vn -0.9880 0.0000 0.1545
vn 0.9880 0.0000 -0.1547
vn -0.1547 0.0000 -0.9880
vn 0.0970 0.0000 0.9953
vn 0.9965 0.0000 -0.0838
vn -0.0970 0.0000 -0.9953
vn 0.9965 0.0000 -0.0831
vn 0.0858 0.0000 0.9963
vn -0.0858 0.0000 -0.9963
vn -0.9965 0.0000 0.0831
vn 0.9136 0.0000 -0.4067
vn -0.2813 0.0000 -0.9596
vn -0.8960 0.0000 0.4440
vn 0.3883 0.0000 0.9215
vn 0.0317 0.0000 0.9995
vn 0.9995 0.0000 -0.0331
vn -0.0958 0.0000 -0.9954
vn -0.9995 0.0000 0.0331
vn -0.0318 0.0000 -0.9995
vn -0.9994 0.0000 0.0336
vn 0.9911 0.0000 -0.1333
vn -0.2215 0.0000 -0.9752
vn -0.9942 0.0000 0.1072
vn 0.1068 0.0000 0.9943
vn 0.9943 0.0000 -0.1063
vn -0.1166 0.0000 -0.9932
vn -0.9932 0.0000 0.1166
vn 0.1165 0.0000 0.9932
vn -0.1175 0.0000 -0.9931
vn 0.1175 0.0000 0.9931
vn 0.9932 0.0000 -0.1166
vn -0.9855 0.0000 0.1699
vn 0.1704 0.0000 0.9854
vn 0.9916 0.0000 -0.1293
vn -0.1287 0.0000 -0.9917
vn -0.9955 0.0000 0.0952
vn -0.0952 0.0000 -0.9955
vn 0.0952 0.0000 0.9955
vn 0.9955 0.0000 -0.0952
vn -0.0971 0.0000 -0.9953
vn -0.2051 0.0000 -0.9788
vn -0.9724 0.0000 0.2332
vn 0.2704 0.0000 0.9627
vn 0.9787 0.0000 -0.2051
vn -0.9999 0.0000 -0.0122
vn -0.0116 0.0000 0.9999
vn 0.9999 0.0000 0.0115
vn 0.0102 0.0000 -0.9999
vn 0.1977 0.0000 0.9803
vn 0.9802 0.0000 -0.1978
vn -0.1977 0.0000 -0.9803
vn 0.9803 0.0000 -0.1977
vn 0.1714 0.0000 0.9852
vn -0.1714 0.0000 -0.9852
vn -0.9803 0.0000 0.1977
vn -0.9882 0.0000 0.1529
vn 0.1537 0.0000 0.9881
vn 0.9882 0.0000 -0.1529
vn -0.1504 0.0000 -0.9886
vn 0.1503 0.0000 0.9886
vn -0.1537 0.0000 -0.9881
vn 0.0483 -0.0000 0.9988
vn 0.9795 0.0000 -0.2014
vn -0.0734 0.0000 -0.9973
vn -0.9988 0.0000 0.0486
vn 0.9902 0.0000 -0.1398
vn 0.1294 0.0000 0.9916
vn 0.9767 0.0000 -0.2144
vn -0.1294 0.0000 -0.9916
vn -0.9902 0.0000 0.1398
vn 0.1323 0.0000 0.9912
vn 0.9850 0.0000 -0.1726
vn -0.2346 0.0000 -0.9721
vn -0.9721 0.0000 0.2345
vn 0.2346 0.0000 0.9721
vn -0.9850 0.0000 0.1726
vn 0.1727 0.0000 0.9850
vn 0.2375 -0.0000 0.9714
vn 0.9708 0.0000 -0.2400
vn -0.2375 0.0000 -0.9714
vn -0.9880 0.0000 -0.1542
vn -0.9697 0.0000 0.2442
vn 0.2380 -0.0000 0.9713
vn 0.9697 0.0000 -0.2442
vn 0.9881 0.0000 0.1538
vn -0.1488 0.0000 -0.9889
vn 0.9857 0.0000 -0.1684
vn -0.1520 0.0000 -0.9884
vn -0.9857 0.0000 0.1684
vn 0.1487 0.0000 0.9889
vn 0.9957 0.0000 -0.0928
g CityEngineMaterial_550_CityEngineMaterial_550_CityEngineMaterial_550_mat
usemtl CityEngineMaterial_550_mat
s 1
f 1/1/1 2/2/1 3/3/1 4/4/1
f 2/5/2 5/6/2 6/7/2 3/8/2
f 5/6/3 7/9/3 8/10/3 6/7/3
f 7/11/4 9/12/4 10/13/4 8/14/4
f 9/15/5 11/16/5 12/17/5 10/18/5
f 11/19/2 1/20/2 4/21/2 12/22/2
f 13/23/6 14/24/6 15/25/6 16/26/6
f 14/27/7 17/28/7 18/29/7 15/30/7
f 17/31/8 19/32/8 20/33/8 18/34/8
f 19/35/7 21/36/7 22/37/7 20/38/7
f 21/39/9 23/40/9 24/41/9 22/42/9
f 23/43/7 25/44/7 26/45/7 24/46/7
f 25/47/10 27/48/10 28/49/10 26/50/10
f 27/51/11 13/52/11 16/53/11 28/54/11
f 29/55/12 30/56/12 31/57/12 32/58/12
f 30/59/13 33/60/13 34/61/13 31/62/13
f 33/63/14 35/64/14 36/65/14 34/66/14
f 35/67/15 37/68/15 38/69/15 36/70/15
f 37/71/16 39/72/16 40/73/16 38/74/16
f 39/72/13 41/75/13 42/76/13 40/73/13
f 41/77/17 43/78/17 44/79/17 42/80/17
f 43/81/18 29/82/18 32/83/18 44/84/18
f 45/85/19 46/86/19 47/87/19 48/88/19
f 46/89/20 49/90/20 50/91/20 47/92/20
f 49/93/21 51/94/21 52/95/21 50/96/21
f 51/97/22 45/98/22 48/99/22 52/100/22
f 53/101/23 54/102/23 55/103/23 56/104/23
f 54/105/24 57/106/24 58/107/24 55/108/24
f 57/109/25 59/110/25 60/111/25 58/112/25
f 59/113/26 61/114/26 62/115/26 60/116/26
f 61/117/27 63/118/27 64/119/27 62/120/27
f 63/121/28 53/122/28 56/123/28 64/124/28
f 65/125/29 66/126/29 67/127/29 68/128/29
f 66/129/30 69/130/30 70/131/30 67/132/30
f 69/133/31 71/134/31 72/135/31 70/136/31
f 71/137/32 73/138/32 74/139/32 72/140/32
f 73/141/33 65/142/33 68/143/33 74/144/33
f 75/145/34 76/146/34 77/147/34 78/148/34
f 76/149/35 79/150/35 80/151/35 77/152/35
f 79/153/36 81/154/36 82/155/36 80/156/36
f 81/157/35 83/158/35 84/159/35 82/160/35
f 83/161/37 85/162/37 86/163/37 84/164/37
f 85/165/35 87/166/35 88/167/35 86/168/35
f 87/169/38 89/170/38 90/171/38 88/172/38
f 89/173/39 75/174/39 78/175/39 90/176/39
f 91/177/40 92/178/40 93/179/40 94/180/40
f 92/181/41 95/182/41 96/183/41 93/184/41
f 95/185/42 97/186/42 98/187/42 96/188/42
f 97/189/43 91/190/43 94/191/43 98/192/43
f 99/193/44 100/194/44 101/195/44 102/196/44
f 100/197/45 103/198/45 104/199/45 101/200/45
f 103/201/44 105/202/44 106/203/44 104/204/44
f 105/205/46 107/206/46 108/207/46 106/208/46
f 107/209/47 109/210/47 110/211/47 108/212/47
f 109/213/48 99/214/48 102/215/48 110/216/48
f 111/217/49 112/218/49 113/219/49 114/220/49
f 112/221/50 115/222/50 116/223/50 113/224/50
f 115/225/51 117/226/51 118/227/51 116/228/51
f 117/229/52 111/230/52 114/231/52 118/232/52
f 119/233/53 120/234/53 121/235/53 122/236/53
f 120/237/54 123/238/54 124/239/54 121/240/54
f 123/241/55 125/242/55 126/243/55 124/244/55
f 125/245/56 119/246/56 122/247/56 126/248/56
f 127/249/57 128/250/57 129/251/57 130/252/57
f 128/253/58 131/254/58 132/255/58 129/256/58
f 131/257/59 133/258/59 134/259/59 132/260/59
f 133/258/60 135/261/60 136/262/60 134/259/60
f 135/263/61 137/264/61 138/265/61 136/266/61
f 137/267/60 139/268/60 140/269/60 138/270/60
f 139/271/62 141/272/62 142/273/62 140/274/62
f 141/275/63 127/276/63 130/277/63 142/278/63
f 143/279/64 144/280/64 145/281/64 146/282/64
f 144/283/65 147/284/65 148/285/65 145/286/65
f 147/287/66 149/288/66 150/289/66 148/290/66
f 149/291/67 151/292/67 152/293/67 150/294/67
f 151/295/64 153/296/64 154/297/64 152/298/64
f 153/299/68 155/300/68 156/301/68 154/302/68
f 155/300/64 157/303/64 158/304/64 156/301/64
f 157/305/69 143/306/69 146/307/69 158/308/69
f 159/309/70 160/310/70 161/311/70 162/312/70
f 160/313/71 163/314/71 164/315/71 161/316/71
f 163/317/72 165/318/72 166/319/72 164/320/72
f 165/321/73 159/322/73 162/323/73 166/324/73
f 167/325/74 168/326/74 169/327/74 170/328/74
f 168/329/75 171/330/75 172/331/75 169/332/75
f 171/333/76 173/334/76 174/335/76 172/336/76
f 173/337/77 175/338/77 176/339/77 174/340/77
f 175/341/78 177/342/78 178/343/78 176/344/78
f 177/345/79 167/346/79 170/347/79 178/348/79
f 179/349/80 180/350/80 181/351/80 182/352/80
f 180/353/81 183/354/81 184/355/81 181/356/81
f 183/357/82 185/358/82 186/359/82 184/360/82
f 185/361/83 187/362/83 188/363/83 186/364/83
f 187/365/84 189/366/84 190/367/84 188/368/84
f 189/369/85 179/370/85 182/371/85 190/372/85
f 191/373/86 192/374/86 193/375/86 194/376/86
f 192/377/87 195/378/87 196/379/87 193/380/87
f 195/381/88 197/382/88 198/383/88 196/384/88
f 197/385/89 199/386/89 200/387/89 198/388/89
f 199/386/90 201/389/90 202/390/90 200/387/90
f 201/391/91 203/392/91 204/393/91 202/394/91
f 203/395/92 205/396/92 206/397/92 204/398/92
f 205/399/93 191/400/93 194/401/93 206/402/93
f 207/403/94 208/404/94 209/405/94 210/406/94
f 208/407/95 211/408/95 212/409/95 209/410/95
f 211/411/96 213/412/96 214/413/96 212/414/96
f 213/415/97 215/416/97 216/417/97 214/418/97
f 215/419/98 217/420/98 218/421/98 216/422/98
f 217/423/99 207/424/99 210/425/99 218/426/99
