# Blender v2.78 (sub 0) OBJ File: ''
# www.blender.org
mtllib CityEngineMaterial_294.mtl
o CityEngineMaterial_294
v 493.334686 39.913670 192.343399
v 489.714905 39.913670 193.740204
v 490.267090 40.093369 193.984894
v 493.089996 40.093369 192.895599
v 490.022400 39.913670 194.537094
v 493.642212 39.913670 193.140198
v 492.221313 39.913670 192.598495
v 490.711090 39.913670 193.181305
v 491.299500 40.105171 193.442001
v 491.960510 40.105171 193.186905
v 491.038788 39.913670 194.030396
v 492.549011 39.913670 193.447693
v -47.889500 23.929852 -313.286285
v -51.857201 23.929852 -311.906586
v -50.634201 24.408552 -311.314697
v -48.481400 24.408552 -312.063385
v -51.226101 23.929850 -310.091797
v -47.258400 23.929852 -311.471497
v -47.999199 23.929852 -313.601898
v -49.939899 23.929852 -312.927002
v -48.657200 24.431952 -312.306213
v -48.620098 24.431952 -312.319214
v -49.278000 23.929852 -311.023499
v -47.337299 23.929852 -311.698303
v -426.748993 10.620852 -318.262085
v -425.801697 10.620852 -315.141998
v -425.071411 10.991351 -315.363495
v -426.019012 10.991351 -318.484497
v -424.341187 10.620852 -315.584991
v -425.289001 10.620852 -318.706787
v -426.018707 10.620852 -318.483795
v -425.575287 10.620852 -317.023102
v -425.063507 10.880451 -317.178497
v -425.507202 10.880451 -318.639801
v -424.551697 10.620852 -317.333893
v -424.995605 10.620852 -318.795898
v 1063.760620 125.146057 -312.751282
v 1061.391479 125.146057 -311.749969
v 1062.494873 125.606255 -311.302155
v 1063.312744 125.606255 -311.647766
v 1062.047119 125.146057 -310.198761
v 1064.416138 125.146057 -311.199982
v 573.557800 35.997456 291.042603
v 572.701721 35.997555 286.290009
v 571.738281 36.549053 286.463593
v 572.594421 36.549053 291.216095
v 570.774902 35.997555 286.637085
v 571.630981 35.997456 291.389587
v 573.435120 35.997555 288.832703
v 572.205017 35.997555 289.054199
v 572.399719 36.616356 290.135193
v 573.629822 36.616356 289.913605
v 572.594421 35.997555 291.216095
v 573.824524 35.997456 290.994507
v 472.800110 41.616749 305.685211
v 471.965607 41.616749 301.703094
v 471.090393 42.094151 301.888000
v 471.924408 42.094151 305.867401
v 470.215302 41.616749 302.072906
v 471.048706 41.616749 306.049591
v 472.962585 41.616749 303.778503
v 472.503998 41.616749 301.590302
v 471.797394 42.002251 301.739807
v 472.255707 42.002251 303.926697
v 471.090698 41.616749 301.889404
v 471.548798 41.616749 304.074799
v -14.091100 76.788116 -697.396606
v -14.489000 76.788116 -699.937073
v -15.123100 77.074516 -699.838379
v -14.724800 77.074417 -697.296570
v -15.757300 76.788116 -699.739929
v -15.358400 76.788116 -697.196716
v -490.819305 29.142643 -268.658295
v -491.512604 29.142643 -271.392609
v -491.932404 29.472445 -270.687714
v -491.524292 29.472445 -269.078094
v -492.637299 29.142643 -271.107391
v -491.944000 29.142643 -268.373108
v -490.531097 29.142643 -268.731415
v -490.864288 29.142643 -270.045410
v -491.339203 29.515743 -269.247894
v -491.328613 29.515743 -269.206207
v -492.136597 29.142643 -269.722809
v -491.803406 29.142643 -268.408813
v -111.163498 50.165363 245.590118
v -107.089600 50.165363 245.202621
v -107.177299 50.608063 244.280411
v -111.251198 50.608063 244.667816
v -107.264999 50.165363 243.358109
v -111.338898 50.165363 243.745621
v 554.957520 116.932655 -308.237885
v 558.649292 116.932655 -309.382080
v 558.453979 117.254150 -310.010162
v 554.761780 117.254555 -308.866669
v 558.258789 116.932655 -310.638184
v 554.566223 116.932655 -309.495483
v 554.762817 116.932655 -308.866974
v 556.551819 116.932655 -309.421265
v 556.400513 117.182755 -309.910065
v 554.610474 117.182953 -309.355774
v 556.249207 116.932655 -310.398865
v 554.458130 116.932655 -309.844574
v 622.213989 29.033094 643.668884
v 624.814026 29.033094 642.766174
v 623.319824 29.624294 642.042175
v 622.937988 29.624294 642.174683
v 624.043823 29.033094 640.547974
v 621.443909 29.033094 641.450684
v 624.000427 29.033094 643.655823
v 625.002075 29.033094 643.307983
v 624.327393 29.299995 642.981079
v 624.140076 29.033094 640.825317
v 623.813171 29.299995 641.500000
v 623.138489 29.033094 641.172974
v -1079.853271 18.719727 459.084198
v -1083.535522 18.719727 458.601105
v -1083.706177 19.409925 459.904297
v -1080.024048 19.409925 460.387390
v -1083.876953 18.719727 461.207397
v -1080.194824 18.719727 461.690491
v 160.153397 57.440315 -710.064392
v 159.216095 57.440315 -713.541626
v 158.647095 57.901516 -712.552612
v 159.164398 57.901516 -710.633423
v 157.658096 57.440315 -713.121582
v 158.595398 57.440315 -709.644409
v 160.580200 57.440315 -710.179382
v 160.202393 57.440315 -711.580872
v 159.690506 57.855213 -710.691284
v 158.412399 57.440315 -711.098389
v 159.302002 57.855213 -710.586487
v 158.790207 57.440315 -709.696899
v -307.238800 11.998254 -329.175201
v -304.827515 11.998254 -330.446411
v -305.874908 12.280654 -330.770691
v -306.914490 12.280653 -330.222595
v -305.550598 11.998255 -331.817993
v -307.961914 11.998254 -330.546906
v -306.336487 11.998254 -329.233185
v -305.385193 11.998254 -329.734589
v -306.111603 12.194054 -329.959595
v -306.190186 11.998255 -331.261688
v -306.415100 12.194054 -330.535309
v -307.141510 11.998255 -330.760315
v 19.204201 9.992383 107.016800
v 19.477501 9.992382 109.735497
v 20.347000 10.320581 109.648003
v 20.073700 10.320582 106.929398
v 21.216499 9.992382 109.560600
v 20.943100 9.992383 106.842003
v 441.790405 75.928658 -396.402100
v 445.054901 75.928665 -398.113190
v 444.613586 76.332367 -398.955200
v 441.349091 76.332359 -397.244202
v 444.172302 75.928665 -399.797211
v 440.907715 75.928665 -398.086212
v 443.559814 75.928658 -396.878693
v 442.933105 75.928665 -398.074402
v 442.141113 76.308357 -397.659302
v 442.767792 76.308357 -396.463593
v 441.349091 75.928658 -397.244202
v 441.975708 75.928658 -396.048401
v 127.519897 67.992462 -369.194489
v 134.045807 67.992462 -370.114990
v 133.932495 68.429665 -370.918610
v 127.406601 68.429665 -369.998199
v 133.819107 67.992462 -371.722290
v 127.293198 67.992462 -370.801910
v 986.609680 119.520248 -267.197876
v 986.916809 119.520248 -265.188263
v 987.768127 120.049644 -266.346069
v 989.397278 119.520248 -265.566071
v 988.238281 120.049545 -266.417664
v 989.089111 119.520248 -267.575470
v 986.997925 119.520248 -266.733856
v 987.148987 119.520248 -265.744781
v 987.568115 119.780846 -266.315155
v 989.925415 119.520248 -266.170471
v 989.354980 119.780846 -266.589172
v 989.773682 119.520248 -267.159576
v -241.409698 57.621113 -65.294792
v -241.208603 57.621113 -61.505692
v -240.291901 58.047913 -62.525093
v -240.390198 58.047913 -64.377991
v -239.272400 57.621113 -61.608391
v -239.473404 57.621113 -65.397491
v -241.616196 57.621113 -63.664993
v -241.500793 57.621113 -61.490192
v -240.560303 58.059010 -62.536091
v -240.570297 58.059010 -62.724491
v -239.514404 57.621113 -61.595592
v -239.629807 57.621113 -63.770393
v 477.749908 82.603241 -244.934387
v 479.060913 82.603241 -245.132385
v 478.990112 82.796638 -245.600784
v 477.679199 82.796638 -245.402786
v 478.919403 82.603241 -246.069290
v 477.608490 82.603241 -245.871292
v 478.247406 82.603241 -244.877991
v 478.157196 82.603241 -245.475082
v 477.918213 82.701935 -245.438889
v 478.008392 82.701935 -244.841888
v 477.679199 82.603241 -245.402786
v 477.769287 82.603241 -244.805786
v 31.405800 45.972290 -555.935486
v 32.119400 45.972290 -553.288025
v 32.941601 46.378193 -553.509583
v 32.228001 46.378193 -556.157227
v 33.763802 45.972290 -553.731201
v 33.050098 45.972290 -556.378784
v 31.771000 45.972290 -553.193970
v 32.941601 45.972290 -553.509583
v 32.769001 46.288490 -554.150085
v 31.598400 46.288490 -553.834595
v 32.596298 45.972290 -554.790588
v 31.425699 45.972290 -554.474976
vt -0.0756 -0.0841
vt 0.7760 -0.0841
vt 0.6823 0.0176
vt 0.0182 0.0176
vt -0.0628 -0.0372
vt 0.1246 -0.0372
vt 0.0309 0.0645
vt -0.0160 -0.0319
vt 0.8356 -0.0319
vt 0.7418 0.0698
vt 0.0777 0.0698
vt -0.0107 -0.0707
vt 0.1768 -0.0707
vt 0.0830 0.0310
vt -0.0226 -0.0113
vt 0.3327 -0.0113
vt 0.2328 0.0971
vt 0.0773 0.0971
vt -0.0765 -0.0704
vt 0.1233 -0.0704
vt 0.0234 0.0380
vt -0.0492 -0.0177
vt 0.3061 -0.0177
vt 0.2062 0.0906
vt 0.0507 0.0906
vt -0.0829 -0.0086
vt 0.1169 -0.0086
vt 0.0170 0.0998
vt -0.0628 -0.0820
vt 0.8162 -0.0820
vt 0.6152 0.1425
vt 0.1382 0.1425
vt -0.0618 -0.0334
vt 0.3402 -0.0334
vt 0.1392 0.1911
vt -0.0132 -0.0790
vt 0.8657 -0.0790
vt 0.6647 0.1455
vt 0.1878 0.1455
vt -0.0588 -0.0439
vt 0.3432 -0.0439
vt 0.1422 0.1807
vt -0.0708 -0.0330
vt 0.3591 -0.0330
vt 0.1483 0.2025
vt 0.1401 0.2025
vt -0.0128 -0.0196
vt 0.4089 -0.0196
vt 0.1980 0.2160
vt -0.0817 -0.0783
vt 0.3482 -0.0783
vt 0.1374 0.1572
vt 0.1291 0.1572
vt -0.0581 -0.0027
vt 0.3636 -0.0027
vt 0.1527 0.2328
vt -0.0609 -0.0424
vt 0.5942 -0.0424
vt 0.5943 0.1281
vt -0.0611 0.1281
vt -0.0229 -0.0343
vt 0.6325 -0.0343
vt 0.6324 0.1361
vt -0.0229 0.1361
vt -0.0777 -0.0616
vt 0.2290 -0.0616
vt 0.2290 0.0579
vt -0.0778 0.0579
vt -0.0422 -0.0252
vt 0.2648 -0.0252
vt 0.2647 0.0943
vt -0.0422 0.0943
vt -0.0304 -0.0742
vt 0.4756 -0.0742
vt 0.3100 0.1146
vt 0.1353 0.1146
vt -0.0551 -0.0390
vt 0.2762 -0.0390
vt 0.1105 0.1498
vt -0.0200 -0.0296
vt 0.4861 -0.0296
vt 0.3204 0.1592
vt 0.1457 0.1592
vt -0.0106 -0.0662
vt 0.3208 -0.0662
vt 0.1551 0.1226
vt -0.0370 -0.0360
vt 0.9296 -0.0360
vt 0.9296 0.1889
vt -0.0370 0.1889
vt -0.0167 -0.0596
vt 0.9500 -0.0596
vt 0.9500 0.1653
vt -0.0167 0.1653
vt -0.0224 -0.0462
vt 0.2278 -0.0462
vt 0.2278 0.2062
vt -0.0224 0.2062
vt -0.0268 -0.0432
vt 0.2234 -0.0432
vt 0.2234 0.2091
vt -0.0268 0.2091
vt -0.0423 -0.0451
vt 0.6642 -0.0451
vt 0.6640 0.1310
vt -0.0421 0.1310
vt -0.0280 -0.0316
vt 0.6775 -0.0316
vt 0.6778 0.1445
vt -0.0283 0.1445
vt -0.0070 -0.0633
vt 0.3813 -0.0633
vt 0.3810 0.0789
vt -0.0070 0.0789
vt -0.0462 -0.0293
vt 0.3415 -0.0293
vt 0.3415 0.1129
vt -0.0465 0.1129
vt -0.0500 -0.0291
vt 0.5874 -0.0291
vt 0.5876 0.1451
vt -0.0502 0.1450
vt -0.0051 -0.0951
vt 0.6330 -0.0951
vt 0.6328 0.0790
vt -0.0049 0.0791
vt -0.0139 -0.0349
vt 0.6528 -0.0349
vt 0.5157 0.1228
vt 0.1232 0.1228
vt -0.0121 -0.0322
vt 0.2621 -0.0322
vt 0.1250 0.1256
vt -0.0093 -0.0169
vt 0.6574 -0.0169
vt 0.5203 0.1409
vt 0.1278 0.1409
vt -0.0871 -0.0849
vt 0.1872 -0.0849
vt 0.0500 0.0729
vt -0.0222 -0.0901
vt 0.2982 -0.0901
vt 0.1431 0.0884
vt 0.1329 0.0884
vt -0.0672 -0.0163
vt 0.2430 -0.0163
vt 0.0879 0.1621
vt -0.0865 -0.0555
vt 0.2339 -0.0555
vt 0.0788 0.1229
vt 0.0686 0.1229
vt -0.0327 -0.0817
vt 0.2775 -0.0817
vt 0.1224 0.0967
vt -0.0446 -0.0469
vt 0.9654 -0.0469
vt 0.9654 0.2065
vt -0.0446 0.2065
vt -0.0231 -0.0543
vt 0.9870 -0.0543
vt 0.9870 0.1991
vt -0.0231 0.1991
vt -0.0543 -0.0124
vt 0.7140 -0.0124
vt 0.7138 0.1331
vt -0.0544 0.1333
vt -0.0713 -0.0560
vt 0.6970 -0.0560
vt 0.6968 0.0897
vt -0.0715 0.0896
vt -0.0652 -0.0758
vt 0.3071 -0.0758
vt 0.3071 0.0374
vt -0.0654 0.0375
vt -0.0566 -0.0570
vt 0.3161 -0.0570
vt 0.3159 0.0563
vt -0.0566 0.0562
vt -0.0533 -0.0627
vt 0.4890 -0.0627
vt 0.2577 0.1963
vt 0.1780 0.1963
vt -0.0437 -0.0652
vt 0.4190 -0.0652
vt 0.1876 0.1938
vt -0.0461 -0.0283
vt 0.4961 -0.0283
vt 0.2648 0.2307
vt 0.1852 0.2307
vt -0.0092 -0.0677
vt 0.4534 -0.0677
vt 0.2221 0.1913
vt -0.0240 -0.0441
vt 0.1849 -0.0441
vt 0.0804 0.0728
vt -0.0251 -0.0389
vt 0.4927 -0.0389
vt 0.3882 0.0780
vt 0.0793 0.0780
vt -0.0199 -0.0357
vt 0.1890 -0.0357
vt 0.0846 0.0812
vt -0.0166 -0.0546
vt 0.5011 -0.0546
vt 0.3967 0.0624
vt 0.0878 0.0624
vt -0.0659 -0.0215
vt 0.6449 -0.0215
vt 0.6448 0.2627
vt -0.0660 0.2627
vt -0.0029 -0.0446
vt 0.7079 -0.0446
vt 0.7078 0.2395
vt -0.0030 0.2395
vt -0.0672 -0.0511
vt 0.6300 -0.0511
vt 0.4738 0.1288
vt 0.0890 0.1288
vt -0.0324 -0.0561
vt 0.2800 -0.0561
vt 0.1238 0.1238
vt -0.0374 -0.0739
vt 0.6598 -0.0739
vt 0.5036 0.1061
vt 0.1188 0.1061
vt -0.0551 -0.0128
vt 0.2573 -0.0128
vt 0.1011 0.1671
vt -0.0377 -0.0406
vt 0.2433 -0.0406
vt 0.1028 0.1213
vt -0.0218 -0.0501
vt 0.3371 -0.0501
vt 0.1966 0.1118
vt 0.1187 0.1118
vt -0.0314 -0.0286
vt 0.2497 -0.0286
vt 0.1092 0.1332
vt -0.0099 -0.0077
vt 0.3490 -0.0077
vt 0.2085 0.1542
vt 0.1306 0.1542
vt -0.0676 -0.0109
vt 0.4228 -0.0109
vt 0.2833 0.1375
vt 0.0719 0.1375
vt -0.0643 -0.0354
vt 0.2146 -0.0354
vt 0.0751 0.1130
vt -0.0180 -0.0571
vt 0.4724 -0.0571
vt 0.3329 0.0914
vt 0.1215 0.0914
vt -0.0397 -0.0562
vt 0.2393 -0.0562
vt 0.0998 0.0922
vt -0.0453 -0.0331
vt 0.1482 -0.0331
vt 0.0515 0.0698
vt -0.0157 -0.0255
vt 0.2948 -0.0255
vt 0.1981 0.0775
vt 0.0810 0.0775
vt -0.0081 -0.0636
vt 0.1854 -0.0636
vt 0.0887 0.0393
vt -0.0462 -0.0407
vt 0.2643 -0.0407
vt 0.1676 0.0623
vt 0.0505 0.0623
vt -0.0771 -0.0719
vt 0.5281 -0.0719
vt 0.5281 0.1349
vt -0.0771 0.1349
vt -0.0505 -0.0082
vt 0.5547 -0.0082
vt 0.5547 0.1985
vt -0.0505 0.1985
vt -0.0566 -0.0659
vt 0.7116 -0.0659
vt 0.7116 0.1493
vt -0.0566 0.1493
vt -0.0458 -0.0130
vt 0.7224 -0.0130
vt 0.7224 0.2023
vt -0.0458 0.2023
vt -0.0415 -0.0028
vt 0.2398 -0.0028
vt 0.2398 0.1997
vt -0.0415 0.1997
vt -0.0647 -0.0062
vt 0.2167 -0.0062
vt 0.2167 0.1963
vt -0.0647 0.1963
vt -0.0820 -0.0614
vt 1.3641 -0.0614
vt 1.3641 0.1409
vt -0.0820 0.1409
vt -0.0402 -0.0790
vt 1.4059 -0.0790
vt 1.4059 0.1233
vt -0.0402 0.1233
vt -0.0408 -0.0347
vt 0.3590 -0.0347
vt 0.1592 0.1906
vt -0.0157 -0.0033
vt 0.4777 -0.0033
vt 0.2776 0.2221
vt 0.1841 0.2221
vt -0.0617 -0.0513
vt 0.3381 -0.0513
vt 0.1384 0.1741
vt -0.0323 -0.0440
vt 0.4609 -0.0440
vt 0.2609 0.1814
vt 0.1674 0.1814
vt -0.0366 -0.0032
vt 0.1602 -0.0032
vt 0.0617 0.1078
vt -0.0616 -0.0690
vt 0.4908 -0.0690
vt 0.3924 0.0419
vt 0.0369 0.0419
vt -0.0500 -0.0113
vt 0.1468 -0.0113
vt 0.0484 0.0996
vt -0.0697 -0.0646
vt 0.4826 -0.0646
vt 0.3842 0.0463
vt 0.0287 0.0463
vt -0.0445 -0.0119
vt 0.8320 -0.0119
vt 0.6080 0.2328
vt 0.1794 0.2328
vt -0.0805 -0.0809
vt 0.3674 -0.0809
vt 0.1434 0.1638
vt -0.0586 -0.0386
vt 0.8179 -0.0386
vt 0.5940 0.2061
vt 0.1654 0.2061
vt -0.0163 -0.0277
vt 0.4316 -0.0277
vt 0.2076 0.2170
vt -0.0501 -0.0123
vt 0.4530 -0.0123
vt 0.2232 0.2387
vt 0.1796 0.2387
vt -0.0809 -0.0895
vt 0.3786 -0.0895
vt 0.1488 0.1615
vt -0.0672 -0.0480
vt 0.4359 -0.0480
vt 0.2061 0.2031
vt 0.1626 0.2031
vt -0.0256 -0.0092
vt 0.4339 -0.0092
vt 0.2041 0.2418
vt -0.0687 -0.0135
vt 0.1661 -0.0135
vt 0.1661 0.0771
vt -0.0687 0.0771
vt -0.0661 -0.0660
vt 0.1687 -0.0660
vt 0.1687 0.0247
vt -0.0661 0.0247
vt -0.0049 -0.0360
vt 0.1020 -0.0360
vt 0.1020 0.0103
vt -0.0049 0.0103
vt -0.0189 -0.0595
vt 0.0881 -0.0595
vt 0.0881 -0.0133
vt -0.0189 -0.0133
vt -0.0427 -0.0677
vt 0.4857 -0.0677
vt 0.4857 0.1141
vt -0.0427 0.1141
vt -0.0490 -0.0633
vt 0.4794 -0.0633
vt 0.4794 0.1185
vt -0.0490 0.1185
vt -0.0239 -0.0755
vt 0.2097 -0.0755
vt 0.2097 0.0661
vt -0.0239 0.0661
vt -0.0569 -0.0273
vt 0.1768 -0.0273
vt 0.1768 0.1143
vt -0.0569 0.1143
vn -0.1396 0.9217 -0.3618
vn -0.3618 0.9217 0.1396
vn 0.1396 0.9217 0.3618
vn 0.3618 0.9218 -0.1396
vn -0.1396 0.9217 -0.3619
vn -0.3619 0.9217 0.1397
vn 0.3618 0.9217 -0.1396
vn -0.1465 0.8950 -0.4212
vn -0.4212 0.8950 0.1465
vn 0.1465 0.8950 0.4212
vn 0.4212 0.8951 -0.1465
vn 0.1465 0.8951 0.4212
vn 0.4212 0.8950 -0.1465
vn -0.4179 0.8996 0.1269
vn 0.4179 0.8996 -0.1269
vn -0.4178 0.8996 0.1269
vn 0.4178 0.8996 -0.1269
vn -0.1867 0.8775 -0.4417
vn -0.4417 0.8775 0.1867
vn 0.1867 0.8775 0.4418
vn 0.4417 0.8775 -0.1867
vn 0.4831 0.8712 -0.0870
vn -0.4831 0.8712 0.0870
vn -0.0870 0.8712 -0.4831
vn 0.0871 0.8712 0.4831
vn 0.4608 0.8822 -0.0966
vn -0.4609 0.8822 0.0966
vn 0.4609 0.8822 -0.0966
vn 0.4026 0.9132 -0.0631
vn -0.4026 0.9132 0.0631
vn 0.4790 0.8694 -0.1215
vn -0.1215 0.8693 -0.4791
vn -0.4791 0.8693 0.1215
vn 0.1215 0.8694 0.4790
vn -0.1215 0.8693 -0.4790
vn 0.1215 0.8693 0.4791
vn 0.0408 0.9023 0.4292
vn -0.0408 0.9023 -0.4292
vn 0.1300 0.8984 0.4195
vn -0.1298 0.8984 -0.4195
vn 0.1475 0.8932 0.4249
vn 0.4249 0.8932 -0.1475
vn -0.1475 0.8932 -0.4249
vn -0.4249 0.8931 0.1475
vn 0.1476 0.8932 0.4248
vn 0.4248 0.8932 -0.1475
vn -0.1474 0.8932 -0.4248
vn -0.4248 0.8932 0.1475
vn 0.0605 0.8853 -0.4610
vn -0.0605 0.8853 0.4610
vn 0.4792 0.8682 -0.1292
vn -0.1292 0.8682 -0.4792
vn -0.4792 0.8682 0.1292
vn 0.1291 0.8682 0.4792
vn 0.4792 0.8681 -0.1292
vn -0.1292 0.8681 -0.4792
vn 0.1596 0.9396 0.3027
vn 0.3027 0.9396 -0.1596
vn -0.1596 0.9396 -0.3028
vn -0.3028 0.9396 0.1596
vn 0.1595 0.9397 0.3026
vn -0.1595 0.9396 -0.3027
vn -0.3027 0.9396 0.1596
vn -0.3498 0.9362 0.0352
vn 0.3498 0.9361 -0.0352
vn 0.1814 0.9205 0.3462
vn -0.1815 0.9204 -0.3462
vn 0.3462 0.9205 -0.1814
vn -0.3462 0.9205 0.1814
vn 0.0662 0.8804 0.4696
vn -0.0662 0.8804 -0.4696
vn -0.4567 0.8869 0.0698
vn 0.0696 0.8869 0.4566
vn 0.4565 0.8870 -0.0700
vn -0.0695 0.8869 -0.4566
vn -0.4566 0.8869 0.0697
vn 0.0700 0.8869 0.4566
vn 0.4566 0.8869 -0.0700
vn -0.0700 0.8869 -0.4566
vn -0.4024 0.9152 0.0214
vn 0.0213 0.9152 0.4024
vn 0.4023 0.9152 -0.0213
vn -0.0213 0.9152 -0.4023
vn 0.0214 0.9152 0.4024
vn 0.4024 0.9152 -0.0214
vn -0.0214 0.9152 -0.4024
vn 0.0564 0.9258 0.3737
vn -0.0564 0.9258 -0.3737
vn 0.3738 0.9258 -0.0565
vn -0.3737 0.9258 0.0564
vn -0.4155 0.9027 0.1120
vn 0.4155 0.9027 -0.1120
vn 0.1120 0.9027 0.4154
vn -0.1120 0.9027 -0.4155
g CityEngineMaterial_294_CityEngineMaterial_294_CityEngineMaterial_294_mat
usemtl CityEngineMaterial_294_mat
s 1
f 1/1/1 2/2/1 3/3/1 4/4/1
f 2/5/2 5/6/2 3/7/2
f 5/8/3 6/9/3 4/10/3 3/11/3
f 6/12/4 1/13/4 4/14/4
f 7/15/5 8/16/5 9/17/5 10/18/5
f 8/19/6 11/20/6 9/21/6
f 11/22/3 12/23/3 10/24/3 9/25/3
f 12/26/7 7/27/7 10/28/7
f 13/29/8 14/30/8 15/31/8 16/32/8
f 14/33/9 17/34/9 15/35/9
f 17/36/10 18/37/10 16/38/10 15/39/10
f 18/40/11 13/41/11 16/42/11
f 19/43/8 20/44/8 21/45/8 22/46/8
f 20/47/9 23/48/9 21/49/9
f 23/50/12 24/51/12 22/52/12 21/53/12
f 24/54/13 19/55/13 22/56/13
f 25/57/14 26/58/14 27/59/14 28/60/14
f 29/61/15 30/62/15 28/63/15 27/64/15
f 31/65/16 32/66/16 33/67/16 34/68/16
f 35/69/17 36/70/17 34/71/17 33/72/17
f 37/73/18 38/74/18 39/75/18 40/76/18
f 38/77/19 41/78/19 39/79/19
f 41/80/20 42/81/20 40/82/20 39/83/20
f 42/84/21 37/85/21 40/86/21
f 43/87/22 44/88/22 45/89/22 46/90/22
f 47/91/23 48/92/23 46/93/23 45/94/23
f 49/95/24 50/96/24 51/97/24 52/98/24
f 53/99/25 54/100/25 52/101/25 51/102/25
f 55/103/26 56/104/26 57/105/26 58/106/26
f 59/107/27 60/108/27 58/109/27 57/110/27
f 61/111/28 62/112/28 63/113/28 64/114/28
f 65/115/27 66/116/27 64/117/27 63/118/27
f 67/119/29 68/120/29 69/121/29 70/122/29
f 71/123/30 72/124/30 70/125/30 69/126/30
f 73/127/31 74/128/31 75/129/31 76/130/31
f 74/131/32 77/132/32 75/133/32
f 77/134/33 78/135/33 76/136/33 75/137/33
f 78/138/34 73/139/34 76/140/34
f 79/141/31 80/142/31 81/143/31 82/144/31
f 80/145/35 83/146/35 81/147/35
f 83/148/33 84/149/33 82/150/33 81/151/33
f 84/152/36 79/153/36 82/154/36
f 85/155/37 86/156/37 87/157/37 88/158/37
f 89/159/38 90/160/38 88/161/38 87/162/38
f 91/163/39 92/164/39 93/165/39 94/166/39
f 95/167/40 96/168/40 94/169/40 93/170/40
f 97/171/39 98/172/39 99/173/39 100/174/39
f 101/175/40 102/176/40 100/177/40 99/178/40
f 103/179/41 104/180/41 105/181/41 106/182/41
f 104/183/42 107/184/42 105/185/42
f 107/186/43 108/187/43 106/188/43 105/189/43
f 108/190/44 103/191/44 106/192/44
f 109/193/45 110/194/45 111/195/45
f 110/196/46 112/197/46 113/198/46 111/199/46
f 112/200/47 114/201/47 113/202/47
f 114/203/48 109/204/48 111/205/48 113/206/48
f 115/207/49 116/208/49 117/209/49 118/210/49
f 119/211/50 120/212/50 118/213/50 117/214/50
f 121/215/51 122/216/51 123/217/51 124/218/51
f 122/219/52 125/220/52 123/221/52
f 125/222/53 126/223/53 124/224/53 123/225/53
f 126/226/54 121/227/54 124/228/54
f 127/229/55 128/230/55 129/231/55
f 128/232/56 130/233/56 131/234/56 129/235/56
f 130/236/53 132/237/53 131/238/53
f 132/239/54 127/240/54 129/241/54 131/242/54
f 133/243/57 134/244/57 135/245/57 136/246/57
f 134/247/58 137/248/58 135/249/58
f 137/250/59 138/251/59 136/252/59 135/253/59
f 138/254/60 133/255/60 136/256/60
f 139/257/61 140/258/61 141/259/61
f 140/260/58 142/261/58 143/262/58 141/263/58
f 142/264/62 144/265/62 143/266/62
f 144/267/63 139/268/63 141/269/63 143/270/63
f 145/271/64 146/272/64 147/273/64 148/274/64
f 149/275/65 150/276/65 148/277/65 147/278/65
f 151/279/66 152/280/66 153/281/66 154/282/66
f 155/283/67 156/284/67 154/285/67 153/286/67
f 157/287/68 158/288/68 159/289/68 160/290/68
f 161/291/69 162/292/69 160/293/69 159/294/69
f 163/295/70 164/296/70 165/297/70 166/298/70
f 167/299/71 168/300/71 166/301/71 165/302/71
f 169/303/72 170/304/72 171/305/72
f 170/306/73 172/307/73 173/308/73 171/309/73
f 172/310/74 174/311/74 173/312/74
f 174/313/75 169/314/75 171/315/75 173/316/75
f 175/317/76 176/318/76 177/319/76
f 176/320/77 178/321/77 179/322/77 177/323/77
f 178/324/78 180/325/78 179/326/78
f 180/327/79 175/328/79 177/329/79 179/330/79
f 181/331/80 182/332/80 183/333/80 184/334/80
f 182/335/81 185/336/81 183/337/81
f 185/338/82 186/339/82 184/340/82 183/341/82
f 186/342/83 181/343/83 184/344/83
f 187/345/80 188/346/80 189/347/80 190/348/80
f 188/349/84 191/350/84 189/351/84
f 191/352/85 192/353/85 190/354/85 189/355/85
f 192/356/86 187/357/86 190/358/86
f 193/359/87 194/360/87 195/361/87 196/362/87
f 197/363/88 198/364/88 196/365/88 195/366/88
f 199/367/89 200/368/89 201/369/89 202/370/89
f 203/371/90 204/372/90 202/373/90 201/374/90
f 205/375/91 206/376/91 207/377/91 208/378/91
f 209/379/92 210/380/92 208/381/92 207/382/92
f 211/383/93 212/384/93 213/385/93 214/386/93
f 215/387/94 216/388/94 214/389/94 213/390/94
