# Blender v2.78 (sub 0) OBJ File: ''
# www.blender.org
mtllib CityEngineMaterial_835.mtl
o CityEngineMaterial_835
v 617.646118 41.150673 158.670593
v 614.133484 41.150677 143.921494
v 614.133484 43.037277 143.921494
v 617.646118 43.037273 158.670593
v 591.851685 41.150677 149.230103
v 591.851685 43.037277 149.230103
v 594.823425 41.150673 161.735703
v 594.823425 43.037273 161.735703
v 126.739098 20.603210 -59.251495
v 127.982498 20.603209 -49.297096
v 127.982498 22.950607 -49.297096
v 126.739098 22.950609 -59.251495
v 130.987198 20.603209 -48.868797
v 130.987198 22.950607 -48.868797
v 148.474503 20.603209 -46.382797
v 148.474503 22.950607 -46.382797
v 146.454803 20.603210 -61.560394
v 146.454803 22.950609 -61.560394
v 126.739098 24.479710 -59.251495
v 127.579597 24.479609 -52.522594
v 127.579597 26.827108 -52.522594
v 126.739098 26.827110 -59.251495
v 147.349304 24.479710 -54.837795
v 147.349304 26.827110 -54.837795
v 146.454803 24.479710 -61.560394
v 146.454803 26.827110 -61.560394
v 137.024002 24.479710 -53.628597
v 137.693100 24.479609 -47.915497
v 137.693100 26.827108 -47.915497
v 137.024002 26.827110 -53.628597
v 148.474503 24.479609 -46.382797
v 148.474503 26.827108 -46.382797
v -644.872070 8.487499 620.556030
v -649.293884 8.487499 619.723694
v -649.293884 9.759299 619.723694
v -644.872070 9.759299 620.556030
v -648.756775 8.487500 614.932007
v -648.756775 9.759300 614.932007
v -651.733887 8.487500 614.371704
v -651.733887 9.759300 614.371704
v -652.802002 8.487498 623.902527
v -652.802002 9.759298 623.902527
v -641.468323 8.487498 626.035583
v -641.468323 9.759298 626.035583
v -640.374329 8.487500 616.509705
v -640.374329 9.759300 616.509705
v -644.322083 8.487500 615.766724
v -644.322083 9.759300 615.766724
v 442.988098 54.195724 -132.339584
v 453.407196 54.195724 -134.123978
v 453.407196 56.236923 -134.123978
v 442.988098 56.236923 -132.339584
v 450.653503 54.195724 -150.109192
v 450.653503 56.236923 -150.109192
v 440.217102 54.195724 -148.308990
v 440.217102 56.236923 -148.308990
v 336.704590 49.476139 -238.218384
v 334.656403 49.476143 -259.372009
v 334.656403 51.602142 -259.372009
v 336.704590 51.602139 -238.218384
v 317.187286 49.476143 -257.743500
v 317.187286 51.602142 -257.743500
v 319.170197 49.476139 -236.460678
v 319.170197 51.602139 -236.460678
v 601.959106 38.794071 189.089600
v 603.846008 38.794071 197.035599
v 603.846008 40.719868 197.035599
v 601.959106 40.719868 189.089600
v 610.673523 38.794071 196.118500
v 610.673523 40.719868 196.118500
v 609.943115 38.794071 193.027405
v 609.943115 40.719868 193.027405
v 608.859924 38.794071 193.172806
v 608.859924 40.719868 193.172806
v 608.134094 38.794071 190.116104
v 608.134094 40.719868 190.116104
v 609.220520 38.794071 189.968796
v 609.220520 40.719868 189.968796
v 608.793823 38.794071 188.162704
v 608.793823 40.719868 188.162704
v 238.190598 33.939312 -70.556496
v 237.954300 33.939312 -72.284096
v 237.954300 35.578011 -72.284096
v 238.190598 35.578011 -70.556496
v 239.484695 33.939312 -72.548096
v 239.484695 35.578011 -72.548096
v 238.982605 33.939312 -76.240593
v 238.982605 35.578011 -76.240593
v 226.229706 33.939312 -74.041191
v 226.229706 35.578011 -74.041191
v 227.389999 33.939312 -65.559395
v 227.389999 35.578011 -65.559395
v 240.199402 33.939312 -67.294189
v 240.199402 35.578011 -67.294189
v 239.727295 33.939312 -70.764496
v 239.727295 35.578011 -70.764496
v 283.671387 27.994987 85.718208
v 282.321899 27.994989 65.611908
v 282.321899 29.861389 65.611908
v 283.671387 29.861387 85.718208
v 267.350189 27.994989 65.664406
v 267.350189 29.861389 65.664406
v 268.538208 27.994987 86.577408
v 268.538208 29.861387 86.577408
v 104.633698 40.208591 -571.611511
v 88.577003 40.208591 -569.096985
v 88.577003 42.204891 -569.096985
v 104.633698 42.204891 -571.611511
v 90.590797 40.208591 -556.129089
v 90.590797 42.204891 -556.129089
v 106.652702 40.208591 -558.641418
v 106.652702 42.204891 -558.641418
v 556.118530 21.394711 551.846008
v 557.532104 21.394709 558.588928
v 557.532104 22.984108 558.588928
v 556.118530 22.984110 551.846008
v 569.522400 21.394711 556.076111
v 569.522400 22.984110 556.076111
v 567.285522 21.394711 545.402893
v 567.285522 22.984110 545.402893
v 556.280823 21.394711 547.709229
v 556.280823 22.984110 547.709229
v 557.104614 21.394711 551.639282
v 557.104614 22.984110 551.639282
v 236.042694 42.211754 -938.267212
v 237.414902 42.211754 -932.665405
v 237.414902 44.339054 -932.665405
v 236.042694 44.339054 -938.267212
v 246.785095 42.211754 -933.912292
v 246.785095 44.339054 -933.912292
v 246.915604 42.211754 -932.939087
v 246.915604 44.339054 -932.939087
v 258.567413 42.211754 -934.494019
v 258.567413 44.339054 -934.494019
v 257.675812 42.211754 -941.145874
v 257.675812 44.339054 -941.145874
v -822.778198 5.428046 333.062408
v -822.309082 5.428048 322.370514
v -822.309082 6.692247 322.370514
v -822.778198 6.692245 333.062408
v -818.496216 5.428048 322.535889
v -818.496216 6.692247 322.535889
v -818.281677 5.428048 317.652588
v -818.281677 6.692248 317.652588
v -826.918884 5.428049 317.277893
v -826.918884 6.692248 317.277893
v -827.602173 5.428046 332.854187
v -827.602173 6.692245 332.854187
v 528.461426 29.177258 254.006805
v 547.890686 29.177259 251.409103
v 547.890686 31.339661 251.409103
v 528.461426 31.339659 254.006805
v 546.656677 29.177259 242.501999
v 546.656677 31.339661 242.501999
v 527.270630 29.177259 245.100998
v 527.270630 31.339560 245.100998
v 418.647308 64.040672 -423.886414
v 415.106293 64.040672 -430.560913
v 415.106293 65.848671 -430.560913
v 418.647308 65.848671 -423.886414
v 404.190613 64.040672 -424.530701
v 404.190613 65.848671 -424.530701
v 405.493286 64.040672 -422.075012
v 405.493286 65.848671 -422.075012
v 404.553192 64.040672 -421.602386
v 404.553192 65.848671 -421.602386
v 406.571503 64.040672 -417.815887
v 406.571503 65.848671 -417.815887
v -68.333199 39.694252 -942.187073
v -62.816700 39.694252 -943.050781
v -62.816700 41.191051 -943.050781
v -68.333199 41.191051 -942.187073
v -62.018600 39.694252 -937.980530
v -62.018600 41.191051 -937.980530
v -59.146500 39.694252 -938.429871
v -59.146500 41.191051 -938.429871
v -60.616501 39.694252 -947.768921
v -60.616501 41.191051 -947.768921
v -71.267998 39.694252 -946.101074
v -71.267998 41.191051 -946.101074
v -69.794899 39.694252 -936.763611
v -69.794899 41.191051 -936.763611
v -67.533401 39.694252 -937.117615
v -67.533401 41.191051 -937.117615
v -853.252625 4.091963 224.498505
v -853.048828 4.091964 222.274200
v -853.048828 5.933264 222.274200
v -853.252625 5.933263 224.498505
v -860.583130 4.091964 221.583801
v -860.583130 5.933264 221.583801
v -861.800415 4.091962 234.874207
v -861.800415 5.933262 234.874207
v -855.382812 4.091962 235.122406
v -855.382812 5.933262 235.122406
v -843.314880 4.091961 236.230804
v -843.314880 5.933261 236.230804
v -845.658508 4.091964 222.951294
v -845.658508 5.933264 222.951294
v -852.437378 4.091964 222.330200
v -852.437378 5.933264 222.330200
v -852.034912 4.091963 224.610306
v -852.034912 5.933263 224.610306
v 203.524796 45.474178 -484.154510
v 206.368607 45.474174 -466.093994
v 206.368607 47.812675 -466.093994
v 203.524796 47.812679 -484.154510
v 220.876007 45.474174 -468.219086
v 220.876007 47.812675 -468.219086
v 218.007507 45.474178 -486.422485
v 218.007507 47.812679 -486.422485
v 76.475403 14.093813 -84.760597
v 55.904202 14.093813 -82.926903
v 55.904202 16.085514 -82.926903
v 76.475403 16.085413 -84.760597
v 57.105999 14.093811 -71.259201
v 57.105999 16.085411 -71.259201
v 77.514900 14.093811 -73.078499
v 77.514900 16.085512 -73.078499
vt 0.3333 0.0000
vt 2.5000 0.0000
vt 2.5000 1.0000
vt 0.3333 1.0000
vt 0.6667 0.0000
vt 4.0000 -0.0000
vt 4.0000 1.0000
vt 0.6667 1.0000
vt 0.6667 0.0000
vt 2.5000 0.0000
vt 2.5000 1.0000
vt 0.6667 1.0000
vt 0.1667 0.0000
vt 3.5000 0.0000
vt 3.5000 1.0000
vt 0.1667 1.0000
vt 0.5000 0.0000
vt 2.1667 0.0000
vt 2.1667 1.0000
vt 0.5000 1.0000
vt 0.3333 0.0000
vt 0.8333 0.0000
vt 0.8333 1.0000
vt 0.3333 1.0000
vt 0.6667 0.0000
vt 3.5000 0.0000
vt 3.5000 1.0000
vt 0.6667 1.0000
vt 0.1667 0.0000
vt 2.6667 -0.0000
vt 2.6667 1.0000
vt 0.1667 1.0000
vt 0.8333 0.0000
vt 4.0000 -0.0000
vt 4.0000 1.0000
vt 0.8333 1.0000
vt 0.1667 0.0000
vt 1.3333 -0.0000
vt 1.3333 1.0000
vt 0.1667 1.0000
vt 0.1667 0.0000
vt 3.3333 0.0000
vt 3.3333 1.0000
vt 0.1667 1.0000
vt 0.6667 0.0000
vt 1.8333 0.0000
vt 1.8333 1.0000
vt 0.6667 1.0000
vt 0.5000 0.0000
vt 3.6667 0.0000
vt 3.6667 1.0000
vt 0.5000 1.0000
vt 0.8333 0.0000
vt 1.8333 0.0000
vt 1.8333 1.0000
vt 0.8333 1.0000
vt 0.5000 0.0000
vt 2.3333 0.0000
vt 2.3333 1.0000
vt 0.5000 1.0000
vt 0.5000 0.0000
vt 1.8333 0.0000
vt 1.8333 1.0000
vt 0.5000 1.0000
vt 0.5000 0.0000
vt 2.1667 0.0000
vt 2.1667 1.0000
vt 0.5000 1.0000
vt 0.3333 0.0000
vt 1.0000 0.0000
vt 1.0000 1.0000
vt 0.3333 1.0000
vt 0.3333 0.0000
vt 1.0000 0.0000
vt 1.0000 1.0000
vt 0.3333 1.0000
vt 0.3333 0.0000
vt 0.8333 0.0000
vt 0.8333 1.0000
vt 0.3333 1.0000
vt 0.1667 0.0000
vt 1.5000 0.0000
vt 1.5000 1.0000
vt 0.1667 1.0000
vt 0.1667 0.0000
vt 1.8333 0.0000
vt 1.8333 1.0000
vt 0.1667 1.0000
vt 0.3333 0.0000
vt 1.6667 0.0000
vt 1.6667 1.0000
vt 0.3333 1.0000
vt 0.3333 0.0000
vt 1.0000 0.0000
vt 1.0000 1.0000
vt 0.3333 1.0000
vt 0.5000 0.0000
vt 1.1667 0.0000
vt 1.1667 1.0000
vt 0.5000 1.0000
vt 0.5000 0.0000
vt 2.1667 0.0000
vt 2.1667 1.0000
vt 0.5000 1.0000
vt 0.6667 0.0000
vt 3.3333 0.0000
vt 3.3333 1.0000
vt 0.6667 1.0000
vt 0.5000 0.0000
vt 2.1667 0.0000
vt 2.1667 1.0000
vt 0.5000 1.0000
vt 0.5000 0.0000
vt 3.1667 0.0000
vt 3.1667 1.0000
vt 0.5000 1.0000
vt 0.5000 0.0000
vt 3.1667 0.0000
vt 3.1667 1.0000
vt 0.5000 1.0000
vt 0.8333 0.0000
vt 3.0000 0.0000
vt 3.0000 1.0000
vt 0.8333 1.0000
vt 0.6667 0.0000
vt 3.3333 0.0000
vt 3.3333 1.0000
vt 0.6667 1.0000
vt 0.1667 0.0000
vt 2.3333 0.0000
vt 2.3333 1.0000
vt 0.1667 1.0000
vt 0.1667 0.0000
vt 1.3333 -0.0000
vt 1.3333 1.0000
vt 0.1667 1.0000
vt 0.1667 0.0000
vt 1.1667 0.0000
vt 1.1667 1.0000
vt 0.1667 1.0000
vt 0.3333 0.0000
vt 0.8333 0.0000
vt 0.8333 1.0000
vt 0.3333 1.0000
vt 0.5000 0.0000
vt 0.6667 0.0000
vt 0.6667 1.0000
vt 0.5000 1.0000
vt 0.3333 0.0000
vt 0.8333 0.0000
vt 0.8333 1.0000
vt 0.3333 1.0000
vt 0.6667 0.0000
vt 0.8333 0.0000
vt 0.8333 1.0000
vt 0.6667 1.0000
vt 0.6667 0.0000
vt 0.8333 0.0000
vt 0.8333 1.0000
vt 0.6667 1.0000
vt 0.5000 0.0000
vt 1.5000 0.0000
vt 1.5000 1.0000
vt 0.5000 1.0000
vt 0.1667 0.0000
vt 0.5000 0.0000
vt 0.5000 1.0000
vt 0.1667 1.0000
vt 0.6667 0.0000
vt 1.0000 0.0000
vt 1.0000 1.0000
vt 0.6667 1.0000
vt 0.6667 0.0000
vt 1.3333 -0.0000
vt 1.3333 1.0000
vt 0.6667 1.0000
vt 0.1667 0.0000
vt 2.3333 0.0000
vt 2.3333 1.0000
vt 0.1667 1.0000
vt 0.8333 0.0000
vt 2.3333 0.0000
vt 2.3333 1.0000
vt 0.8333 1.0000
vt 0.1667 0.0000
vt 2.3333 0.0000
vt 2.3333 1.0000
vt 0.1667 1.0000
vt 0.3333 0.0000
vt 1.0000 0.0000
vt 1.0000 1.0000
vt 0.3333 1.0000
vt 0.8333 0.0000
vt 1.1667 0.0000
vt 1.1667 1.0000
vt 0.8333 1.0000
vt 0.1667 0.0000
vt 2.5000 0.0000
vt 2.5000 1.0000
vt 0.1667 1.0000
vt 0.5000 0.0000
vt 2.3333 0.0000
vt 2.3333 1.0000
vt 0.5000 1.0000
vt 0.5000 0.0000
vt 3.0000 0.0000
vt 3.0000 1.0000
vt 0.5000 1.0000
vt 0.0000 0.0000
vt 1.8333 0.0000
vt 1.8333 1.0000
vt 0.0000 1.0000
vt 0.6667 0.0000
vt 2.5000 0.0000
vt 2.5000 1.0000
vt 0.6667 1.0000
vt 0.8333 0.0000
vt 2.3333 0.0000
vt 2.3333 1.0000
vt 0.8333 1.0000
vt 0.5000 0.0000
vt 2.3333 0.0000
vt 2.3333 1.0000
vt 0.5000 1.0000
vt 0.0000 0.0000
vt 1.5000 0.0000
vt 1.5000 1.0000
vt 0.0000 1.0000
vt 0.8333 0.0000
vt 1.6667 0.0000
vt 1.6667 1.0000
vt 0.8333 1.0000
vt 0.1667 0.0000
vt 1.6667 0.0000
vt 1.6667 1.0000
vt 0.1667 1.0000
vt 0.3333 0.0000
vt 1.6667 0.0000
vt 1.6667 1.0000
vt 0.3333 1.0000
vt 0.0000 0.0000
vt 1.5000 0.0000
vt 1.5000 1.0000
vt 0.0000 1.0000
vt 0.3333 0.0000
vt 0.8333 0.0000
vt 0.8333 1.0000
vt 0.3333 1.0000
vt 0.5000 0.0000
vt 0.6667 0.0000
vt 0.6667 1.0000
vt 0.5000 1.0000
vt 0.0000 0.0000
vt 1.0000 0.0000
vt 1.0000 1.0000
vt 0.0000 1.0000
vt 0.0000 0.0000
vt 1.6667 0.0000
vt 1.6667 1.0000
vt 0.0000 1.0000
vt 0.5000 0.0000
vt 0.6667 0.0000
vt 0.6667 1.0000
vt 0.5000 1.0000
vt 2.6667 -0.0000
vt 2.6667 1.0000
vt 0.3333 0.0000
vt 1.5000 0.0000
vt 1.5000 1.0000
vt 0.3333 1.0000
vt 0.6667 0.0000
vt 4.3333 0.0000
vt 4.3333 1.0000
vt 0.6667 1.0000
vt 0.1667 0.0000
vt 1.5000 0.0000
vt 1.5000 1.0000
vt 0.1667 1.0000
vt 0.3333 0.0000
vt 0.8333 0.0000
vt 0.8333 1.0000
vt 0.3333 1.0000
vt 0.5000 0.0000
vt 1.1667 0.0000
vt 1.1667 1.0000
vt 0.5000 1.0000
vt 0.3333 0.0000
vt 1.3333 -0.0000
vt 1.3333 1.0000
vt 0.3333 1.0000
vt 0.0000 0.0000
vt 2.0000 -0.0000
vt 2.0000 1.0000
vt 0.0000 1.0000
vt 0.1667 0.0000
vt 0.8333 0.0000
vt 0.8333 1.0000
vt 0.1667 1.0000
vt 0.6667 0.0000
vt 3.5000 0.0000
vt 3.5000 1.0000
vt 0.6667 1.0000
vt 0.1667 0.0000
vt 1.5000 0.0000
vt 1.5000 1.0000
vt 0.1667 1.0000
vt 0.1667 0.0000
vt 3.0000 0.0000
vt 3.0000 1.0000
vt 0.1667 1.0000
vt 0.6667 0.0000
vt 2.0000 -0.0000
vt 2.0000 1.0000
vt 0.6667 1.0000
vt 0.8333 0.0000
vt 1.8333 0.0000
vt 1.8333 1.0000
vt 0.8333 1.0000
vt 0.1667 0.0000
vt 2.0000 -0.0000
vt 2.0000 1.0000
vt 0.1667 1.0000
vt 0.1667 0.0000
vt 0.5000 0.0000
vt 0.5000 1.0000
vt 0.1667 1.0000
vt 0.6667 0.0000
vt 0.8333 0.0000
vt 0.8333 1.0000
vt 0.6667 1.0000
vt 0.0000 0.0000
vt 0.6667 0.0000
vt 0.6667 1.0000
vt 0.0000 1.0000
vt 0.8333 0.0000
vt 2.8333 0.0000
vt 2.8333 1.0000
vt 0.8333 1.0000
vt 0.0000 0.0000
vt 0.8333 0.0000
vt 0.8333 1.0000
vt 0.0000 1.0000
vt 0.3333 0.0000
vt 1.0000 0.0000
vt 1.0000 1.0000
vt 0.3333 1.0000
vt 0.8333 0.0000
vt 1.1667 0.0000
vt 1.1667 1.0000
vt 0.8333 1.0000
vt 0.1667 0.0000
vt 1.5000 0.0000
vt 1.5000 1.0000
vt 0.1667 1.0000
vt 0.3333 0.0000
vt 1.8333 0.0000
vt 1.8333 1.0000
vt 0.3333 1.0000
vt 0.5000 0.0000
vt 1.8333 0.0000
vt 1.8333 1.0000
vt 0.5000 1.0000
vt 0.1667 0.0000
vt 0.5000 0.0000
vt 0.5000 1.0000
vt 0.1667 1.0000
vt 0.6667 0.0000
vt 1.3333 -0.0000
vt 1.3333 1.0000
vt 0.6667 1.0000
vt 0.1667 0.0000
vt 0.5000 0.0000
vt 0.5000 1.0000
vt 0.1667 1.0000
vt 0.1667 0.0000
vt 1.1667 0.0000
vt 1.1667 1.0000
vt 0.1667 1.0000
vt 0.3333 0.0000
vt 2.0000 -0.0000
vt 2.0000 1.0000
vt 0.3333 1.0000
vt 0.6667 0.0000
vt 1.5000 0.0000
vt 1.5000 1.0000
vt 0.6667 1.0000
vt 0.3333 0.0000
vt 1.8333 0.0000
vt 1.8333 1.0000
vt 0.3333 1.0000
vt 0.1667 0.0000
vt 1.8333 0.0000
vt 1.8333 1.0000
vt 0.1667 1.0000
vt 0.5000 0.0000
vt 1.3333 -0.0000
vt 1.3333 1.0000
vt 0.5000 1.0000
vt 0.1667 0.0000
vt 0.5000 0.0000
vt 0.5000 1.0000
vt 0.1667 1.0000
vt 0.6667 0.0000
vt 0.6667 1.0000
vt 0.6667 0.0000
vt 2.6667 -0.0000
vt 2.6667 1.0000
vt 0.6667 1.0000
vt 0.0000 0.0000
vt 1.6667 0.0000
vt 1.6667 1.0000
vt 0.0000 1.0000
vt 0.1667 0.0000
vt 2.1667 0.0000
vt 2.1667 1.0000
vt 0.1667 1.0000
vt 0.1667 0.0000
vt 1.8333 0.0000
vt 1.8333 1.0000
vt 0.1667 1.0000
vt 0.8333 0.0000
vt 4.5000 0.0000
vt 4.5000 1.0000
vt 0.8333 1.0000
vt 0.6667 0.0000
vt 2.6667 -0.0000
vt 2.6667 1.0000
vt 0.6667 1.0000
vt 0.5000 0.0000
vt 4.1667 0.0000
vt 4.1667 1.0000
vt 0.5000 1.0000
vt 0.5000 0.0000
vt 2.5000 0.0000
vt 2.5000 1.0000
vt 0.5000 1.0000
vn 0.9728 0.0000 -0.2317
vn -0.2318 0.0000 -0.9728
vn -0.9729 0.0000 0.2312
vn 0.1331 0.0000 0.9911
vn -0.9923 0.0000 0.1239
vn -0.1411 0.0000 0.9900
vn -0.1409 0.0000 0.9900
vn -0.1407 0.0000 0.9900
vn 0.9913 0.0000 -0.1319
vn -0.1163 0.0000 -0.9932
vn 0.1163 0.0000 0.9932
vn -0.9932 0.0000 0.1163
vn 0.1850 0.0000 -0.9827
vn 0.9938 0.0000 0.1114
vn -0.9938 0.0000 -0.1114
vn -0.1850 0.0000 0.9827
vn 0.9935 0.0000 0.1141
vn -0.9935 0.0000 -0.1141
vn 0.1688 0.0000 0.9856
vn 0.9855 0.0000 -0.1698
vn -0.1700 0.0000 -0.9854
vn -0.9853 0.0000 0.1710
vn 0.9953 0.0000 -0.0964
vn -0.0928 0.0000 -0.9957
vn -0.9957 0.0000 0.0928
vn 0.0997 0.0000 0.9950
vn -0.9729 0.0000 0.2310
vn 0.9732 0.0000 -0.2300
vn -0.1330 0.0000 -0.9911
vn 0.9729 0.0000 -0.2310
vn 0.1344 0.0000 0.9909
vn 0.9732 0.0000 -0.2299
vn -0.1344 0.0000 -0.9909
vn 0.9908 0.0000 -0.1355
vn 0.1700 0.0000 0.9854
vn 0.9909 0.0000 -0.1347
vn -0.1700 0.0000 -0.9855
vn -0.9908 0.0000 0.1355
vn 0.1342 0.0000 0.9910
vn 0.9909 0.0000 -0.1348
vn -0.1341 0.0000 -0.9910
vn 0.9978 0.0000 -0.0670
vn -0.0035 0.0000 -1.0000
vn -0.9984 0.0000 0.0567
vn 0.0567 0.0000 0.9984
vn -0.1547 0.0000 -0.9880
vn -0.9882 0.0000 0.1535
vn 0.1545 0.0000 0.9880
vn 0.9881 0.0000 -0.1538
vn -0.9787 0.0000 0.2052
vn 0.2051 0.0000 0.9787
vn 0.9787 0.0000 -0.2051
vn -0.2051 0.0000 -0.9787
vn -0.2052 0.0000 -0.9787
vn -0.9713 0.0000 0.2379
vn 0.1319 0.0000 0.9913
vn -0.9911 0.0000 0.1329
vn 0.1323 0.0000 0.9912
vn 0.9911 0.0000 -0.1328
vn -0.1319 0.0000 -0.9913
vn 0.9990 0.0000 0.0438
vn -0.0433 0.0000 0.9991
vn 0.9990 0.0000 0.0439
vn 0.0433 0.0000 -0.9991
vn -0.9990 0.0000 -0.0438
vn -0.0431 0.0000 0.9991
vn 0.1325 0.0000 0.9912
vn 0.9905 0.0000 -0.1372
vn -0.1329 0.0000 -0.9911
vn -0.9912 0.0000 0.1325
vn 0.8834 0.0000 -0.4687
vn -0.4836 0.0000 -0.8753
vn -0.8834 0.0000 0.4686
vn -0.4492 0.0000 -0.8934
vn -0.8825 0.0000 0.4704
vn 0.4491 0.0000 0.8935
vn 0.1547 0.0000 0.9880
vn -0.9878 0.0000 0.1555
vn 0.1546 0.0000 0.9880
vn 0.9878 0.0000 -0.1555
vn -0.9878 0.0000 0.1558
vn 0.9878 0.0000 -0.1558
vn 0.9958 0.0000 0.0912
vn 0.0913 0.0000 -0.9958
vn -0.9958 0.0000 -0.0912
vn -0.0386 0.0000 0.9993
vn -0.0915 0.0000 0.9958
vn 0.9848 0.0000 -0.1738
vn 0.0912 0.0000 -0.9958
vn -0.9848 0.0000 0.1738
vn 0.0914 0.0000 -0.9958
vn 0.1449 0.0000 0.9894
vn 0.9878 0.0000 -0.1557
vn -0.0888 0.0000 -0.9961
vn -0.9947 0.0000 0.1025
vn 0.0888 0.0000 0.9961
vn 0.9961 0.0000 -0.0886
g CityEngineMaterial_835_CityEngineMaterial_835_CityEngineMaterial_835_mat
usemtl CityEngineMaterial_835_mat
s 1
f 1/1/1 2/2/1 3/3/1 4/4/1
f 2/5/2 5/6/2 6/7/2 3/8/2
f 5/9/3 7/10/3 8/11/3 6/12/3
f 7/13/4 1/14/4 4/15/4 8/16/4
f 9/17/5 10/18/5 11/19/5 12/20/5
f 10/21/6 13/22/7 14/23/7 11/24/6
f 13/25/7 15/26/8 16/27/8 14/28/7
f 15/29/9 17/30/9 18/31/9 16/32/9
f 17/33/10 9/34/10 12/35/10 18/36/10
f 19/37/5 20/38/5 21/39/5 22/40/5
f 20/41/11 23/42/11 24/43/11 21/44/11
f 23/45/9 25/46/9 26/47/9 24/48/9
f 25/49/10 19/50/10 22/51/10 26/52/10
f 27/53/12 28/54/12 29/55/12 30/56/12
f 28/57/8 31/58/8 32/59/8 29/60/8
f 31/61/9 23/62/9 24/63/9 32/64/9
f 23/65/10 27/66/10 30/67/10 24/68/10
f 33/69/13 34/70/13 35/71/13 36/72/13
f 34/73/14 37/74/14 38/75/14 35/76/14
f 37/77/13 39/78/13 40/79/13 38/80/13
f 39/81/15 41/82/15 42/83/15 40/84/15
f 41/85/16 43/86/16 44/87/16 42/88/16
f 43/89/17 45/90/17 46/91/17 44/92/17
f 45/93/13 47/94/13 48/95/13 46/96/13
f 47/97/18 33/98/18 36/99/18 48/100/18
f 49/101/19 50/102/19 51/103/19 52/104/19
f 50/105/20 53/106/20 54/107/20 51/108/20
f 53/109/21 55/110/21 56/111/21 54/112/21
f 55/113/22 49/114/22 52/115/22 56/116/22
f 57/117/23 58/118/23 59/119/23 60/120/23
f 58/121/24 61/122/24 62/123/24 59/124/24
f 61/125/25 63/126/25 64/127/25 62/128/25
f 63/129/26 57/130/26 60/131/26 64/132/26
f 65/133/27 66/134/27 67/135/27 68/136/27
f 66/137/4 69/138/4 70/139/4 67/140/4
f 69/141/28 71/142/28 72/143/28 70/144/28
f 71/145/29 73/146/29 74/147/29 72/148/29
f 73/149/30 75/150/30 76/151/30 74/152/30
f 75/153/31 77/154/31 78/155/31 76/156/31
f 77/157/32 79/158/32 80/159/32 78/160/32
f 79/161/33 65/162/33 68/163/33 80/164/33
f 81/165/34 82/166/34 83/167/34 84/168/34
f 82/169/35 85/170/35 86/171/35 83/172/35
f 85/173/36 87/174/36 88/175/36 86/176/36
f 87/177/37 89/178/37 90/179/37 88/180/37
f 89/181/38 91/182/38 92/183/38 90/184/38
f 91/185/39 93/186/39 94/187/39 92/188/39
f 93/189/40 95/190/40 96/191/40 94/192/40
f 95/193/41 81/194/41 84/195/41 96/196/41
f 97/197/42 98/198/42 99/199/42 100/200/42
f 98/201/43 101/202/43 102/203/43 99/204/43
f 101/205/44 103/206/44 104/207/44 102/208/44
f 103/209/45 97/210/45 100/211/45 104/212/45
f 105/213/46 106/214/46 107/215/46 108/216/46
f 106/217/47 109/218/47 110/219/47 107/220/47
f 109/221/48 111/222/48 112/223/48 110/224/48
f 111/225/49 105/226/49 108/227/49 112/228/49
f 113/229/50 114/230/50 115/231/50 116/232/50
f 114/233/51 117/234/51 118/235/51 115/236/51
f 117/237/52 119/238/52 120/239/52 118/240/52
f 119/241/53 121/242/53 122/243/53 120/244/53
f 121/245/50 123/246/50 124/247/50 122/248/50
f 123/249/54 113/250/54 116/251/54 124/252/54
f 125/253/55 126/254/55 127/255/55 128/256/55
f 126/257/56 129/258/56 130/259/56 127/260/56
f 129/261/57 131/262/57 132/263/57 130/264/57
f 131/262/58 133/265/58 134/266/58 132/263/58
f 133/267/59 135/268/59 136/269/59 134/270/59
f 135/271/60 125/272/60 128/273/60 136/274/60
f 137/275/61 138/276/61 139/277/61 140/278/61
f 138/279/62 141/280/62 142/281/62 139/282/62
f 141/283/63 143/284/63 144/285/63 142/286/63
f 143/287/64 145/288/64 146/289/64 144/290/64
f 145/291/65 147/292/65 148/293/65 146/294/65
f 147/295/66 137/296/66 140/297/66 148/298/66
f 149/299/67 150/300/67 151/301/67 152/302/67
f 150/303/68 153/304/68 154/305/68 151/306/68
f 153/307/69 155/308/69 156/309/69 154/310/69
f 155/311/70 149/312/70 152/313/70 156/314/70
f 157/315/71 158/316/71 159/317/71 160/318/71
f 158/319/72 161/320/72 162/321/72 159/322/72
f 161/323/73 163/324/73 164/325/73 162/326/73
f 163/327/74 165/328/74 166/329/74 164/330/74
f 165/331/75 167/332/75 168/333/75 166/334/75
f 167/335/76 157/336/76 160/337/76 168/338/76
f 169/339/77 170/340/77 171/341/77 172/342/77
f 170/343/78 173/344/78 174/345/78 171/346/78
f 173/347/79 175/348/79 176/349/79 174/350/79
f 175/351/80 177/352/80 178/353/80 176/354/80
f 177/355/46 179/356/46 180/357/46 178/358/46
f 179/359/81 181/360/81 182/361/81 180/362/81
f 181/363/77 183/364/77 184/365/77 182/366/77
f 183/367/82 169/368/82 172/369/82 184/370/82
f 185/371/83 186/372/83 187/373/83 188/374/83
f 186/375/84 189/376/84 190/377/84 187/378/84
f 189/379/85 191/380/85 192/381/85 190/382/85
f 191/383/86 193/384/86 194/385/86 192/386/86
f 193/387/87 195/388/87 196/389/87 194/390/87
f 195/391/88 197/392/88 198/393/88 196/394/88
f 197/395/89 199/396/89 200/397/89 198/398/89
f 199/399/90 201/400/90 202/401/90 200/402/90
f 201/400/91 185/403/91 188/404/91 202/401/91
f 203/405/78 204/406/78 205/407/78 206/408/78
f 204/409/92 207/410/92 208/411/92 205/412/92
f 207/413/93 209/414/93 210/415/93 208/416/93
f 209/417/46 203/418/46 206/419/46 210/420/46
f 211/421/94 212/422/94 213/423/94 214/424/94
f 212/425/95 215/426/95 216/427/95 213/428/95
f 215/429/96 217/430/96 218/431/96 216/432/96
f 217/433/97 211/434/97 214/435/97 218/436/97
