# Blender v2.78 (sub 0) OBJ File: ''
# www.blender.org
mtllib CityEngineMaterial_853.mtl
o CityEngineMaterial_853
v 212.277100 31.939203 -24.361595
v 213.019699 30.997501 -13.686895
v 218.418198 31.780703 -13.993395
v 224.526505 32.809902 -20.612295
v 225.505798 32.192406 -14.395795
v 226.190598 32.192406 -15.037695
v 225.856705 32.192406 -14.415996
v 226.148499 32.192406 -14.432595
v 226.361099 32.501205 -17.515394
v 226.535599 32.809902 -19.997293
v 215.535400 32.352505 -23.364294
vt -0.0000 0.0000
vt -0.0000 0.9943
vt 0.3903 0.9943
vt 0.8600 0.4162
vt 0.8983 0.9993
vt 0.9497 0.9446
vt 0.9233 0.9997
vt 0.9441 1.0000
vt 0.9747 0.7153
vt 1.0000 0.4856
vt 0.2300 0.1092
vn -0.0924 0.9910 0.0966
g CityEngineMaterial_853_CityEngineMaterial_853_CityEngineMaterial_853_mat
usemtl CityEngineMaterial_853_mat
s 1
f 1/1/1 2/2/1 3/3/1 4/4/1
f 4/4/1 3/3/1 5/5/1 6/6/1
f 6/6/1 5/5/1 7/7/1 8/8/1
f 4/4/1 6/6/1 9/9/1 10/10/1
f 1/1/1 4/4/1 11/11/1
