# Blender v2.78 (sub 0) OBJ File: ''
# www.blender.org
mtllib CityEngineMaterial_210.mtl
o CityEngineMaterial_210
v 479.070801 56.420364 210.551620
v 483.565887 56.420364 210.292511
v 482.569611 56.855667 209.404816
v 479.958405 56.855667 209.555420
v 483.457214 56.420364 208.408615
v 478.962189 56.420364 208.667816
v 479.087006 56.420364 210.832520
v 480.668915 56.420364 210.741318
v 479.832306 56.785866 209.996017
v 480.557587 56.420364 208.812012
v 479.812286 56.785866 209.648621
v 478.975800 56.420364 208.903214
v 56.684898 70.984978 150.920517
v 57.744801 70.984978 155.263016
v 58.287601 71.224274 155.130508
v 57.227699 71.224274 150.788010
v 58.830399 70.984978 154.998016
v 57.770500 70.984978 150.655518
v 57.185101 70.984978 153.507812
v 57.851799 70.984978 153.345016
v 57.539700 71.548676 152.066513
v 56.873001 71.548676 152.229309
v 57.227699 70.984978 150.788010
v 56.560902 70.984978 150.950714
v -1162.759155 15.720953 289.471191
v -1162.273438 15.720953 286.894196
v -1163.237915 16.049152 287.552185
v -1163.417969 16.049353 288.505310
v -1163.895874 15.720953 286.586914
v -1164.383545 15.720953 289.163391
v -1162.487671 15.720953 289.522308
v -1162.243286 15.720953 288.225891
v -1163.013306 15.982953 288.751709
v -1163.935425 15.720953 287.907013
v -1163.410156 15.982953 288.676697
v -1164.180542 15.720953 289.201691
v -151.651306 51.346981 118.919205
v -151.468094 51.346981 122.167305
v -150.794403 51.650082 122.129311
v -150.977600 51.650082 118.881210
v -150.120697 51.346981 122.091309
v -150.303894 51.346981 118.843208
v -151.858902 51.346981 122.189308
v -150.794403 51.346981 122.129311
v -150.846893 51.766083 121.197708
v -151.911407 51.766083 121.257706
v -150.899506 51.346981 120.266006
v -151.964005 51.346981 120.326111
v 395.677795 58.513809 -40.856293
v 397.463898 58.513809 -41.169891
v 396.414001 58.875107 -41.906189
v 397.147888 58.513809 -42.969891
v 396.411591 58.875107 -41.919987
v 395.361786 58.513809 -42.656292
v 396.876404 58.513809 -40.675991
v 397.530487 58.513809 -40.790791
v 397.145996 58.646107 -41.060387
v 397.187408 58.513809 -42.744892
v 396.917786 58.646107 -42.360489
v 396.533386 58.513809 -42.630093
v -175.879593 19.529247 327.290100
v -175.739304 19.529247 328.752899
v -175.077698 19.902046 327.950989
v -173.107605 19.529247 328.500488
v -173.910797 19.902346 327.838409
v -173.249298 19.529247 327.035187
v -175.862000 19.529247 327.473602
v -175.708603 19.529247 329.072510
v -175.220795 19.804146 328.481201
v -175.270706 19.804146 327.960785
v -174.629501 19.529247 328.968994
v -174.783005 19.529247 327.368896
v 80.231903 42.574345 352.282013
v 78.823196 42.574345 352.821106
v 79.692703 42.898144 353.209412
v 79.843597 42.898144 353.151611
v 79.304398 42.574345 354.078888
v 80.713097 42.574345 353.539886
v 80.155701 42.574345 352.083008
v 79.558098 42.574345 352.311615
v 79.971298 42.728142 352.496094
v 80.055397 42.574345 353.611298
v 80.239899 42.728142 353.198212
v 80.653000 42.574345 353.382690
v -219.705307 8.588001 -8.621499
v -219.357498 8.588001 -6.044999
v -218.243195 9.229300 -7.507198
v -216.538895 8.588001 -6.425599
v -218.001099 9.229300 -7.539898
v -216.886795 8.588002 -9.002099
v -219.979401 8.588001 -6.956799
v -219.847397 8.588001 -5.978899
v -219.424393 8.831401 -6.533898
v -216.891296 8.588001 -6.378098
v -217.446198 8.831401 -6.800999
v -217.023300 8.588001 -7.355898
v 394.167786 49.532574 157.029312
v 393.473389 49.532574 152.863922
v 392.979095 49.808773 152.946320
v 393.673401 49.808773 157.111710
v 392.484711 49.532574 153.028717
v 393.178986 49.532574 157.194122
v 393.537903 49.532574 152.853210
v 392.979095 49.532574 152.946320
v 393.165009 50.155773 154.061508
v 393.723785 50.155773 153.968414
v 393.350891 49.532475 155.176712
v 393.909607 49.532475 155.083511
v -225.001907 83.767227 -189.303482
v -224.983200 83.767227 -190.262482
v -225.347198 83.976334 -190.269592
v -225.365906 83.976334 -189.310577
v -225.711197 83.767227 -190.276688
v -225.729904 83.767227 -189.317688
v -224.929199 83.767227 -190.261383
v -225.347198 83.767227 -190.269592
v -225.351395 83.890533 -190.054886
v -224.933395 83.890533 -190.046692
v -225.355606 83.767227 -189.840088
v -224.937500 83.767227 -189.831985
v 641.674072 83.736534 -170.589386
v 639.393921 83.736534 -170.113388
v 639.502930 84.009430 -169.591080
v 641.783081 84.009430 -170.067078
v 639.611877 83.736534 -169.068787
v 641.892212 83.736534 -169.544785
v 640.286377 83.736534 -170.561584
v 640.447815 83.736534 -169.788284
v 641.115479 84.085327 -169.927689
v 640.954102 84.085327 -170.700882
v 641.783081 83.736534 -170.067078
v 641.621704 83.736534 -170.840286
v -85.580200 12.323635 399.772003
v -90.558998 12.323635 400.660309
v -89.650398 12.744134 401.293701
v -86.213699 12.744135 400.680603
v -90.283897 12.323634 402.202301
v -85.305099 12.323634 401.313995
v -88.592300 12.323635 399.994507
v -90.613403 12.323635 400.355103
v -89.638603 12.774835 401.034698
v -89.271896 12.774836 400.969299
v -90.318199 12.323634 402.009491
v -88.297096 12.323634 401.648987
vt -0.0634 -0.0481
vt 0.9247 -0.0481
vt 0.7177 0.1799
vt 0.1436 0.1799
vt -0.0269 -0.0505
vt 0.3873 -0.0505
vt 0.1802 0.1775
vt -0.0293 -0.0812
vt 0.9589 -0.0812
vt 0.7518 0.1468
vt 0.1778 0.1468
vt -0.0600 -0.0563
vt 0.3541 -0.0563
vt 0.1471 0.1717
vt -0.0846 -0.0130
vt 0.2632 -0.0130
vt 0.0893 0.1785
vt -0.0782 -0.0226
vt 0.3459 -0.0226
vt 0.1721 0.1689
vt 0.0957 0.1689
vt -0.0014 -0.0042
vt 0.3464 -0.0042
vt 0.1725 0.1872
vt -0.0694 -0.0136
vt 0.3547 -0.0136
vt 0.1808 0.1779
vt 0.1045 0.1779
vt -0.0228 -0.0046
vt 0.7391 -0.0046
vt 0.7391 0.0990
vt -0.0228 0.0990
vt -0.0552 -0.0105
vt 0.7067 -0.0105
vt 0.7067 0.0931
vt -0.0552 0.0931
vt -0.0530 -0.0066
vt 0.0640 -0.0066
vt 0.0640 0.2374
vt -0.0530 0.2374
vt -0.0572 -0.0336
vt 0.0597 -0.0336
vt 0.0597 0.2104
vt -0.0572 0.2104
vt -0.0730 -0.0527
vt 0.4252 -0.0527
vt 0.2684 0.1162
vt 0.0841 0.1163
vt -0.0343 -0.0606
vt 0.2794 -0.0606
vt 0.1225 0.1083
vt -0.0422 -0.0079
vt 0.4560 -0.0079
vt 0.2990 0.1610
vt 0.1147 0.1609
vt -0.0644 -0.0236
vt 0.2497 -0.0236
vt 0.0926 0.1453
vt -0.0480 -0.0419
vt 0.2026 -0.0419
vt 0.0773 0.0929
vt -0.0235 -0.0268
vt 0.3036 -0.0268
vt 0.1785 0.1080
vt 0.1017 0.1080
vt -0.0084 -0.0348
vt 0.2419 -0.0348
vt 0.1167 0.0999
vt -0.0165 -0.0164
vt 0.3109 -0.0164
vt 0.1855 0.1184
vt 0.1088 0.1183
vt -0.0392 -0.0043
vt 0.5411 -0.0043
vt 0.5411 0.1277
vt -0.0392 0.1277
vt -0.0573 -0.0407
vt 0.5231 -0.0407
vt 0.5231 0.0913
vt -0.0573 0.0913
vt -0.0087 -0.0641
vt 0.1815 -0.0641
vt 0.1815 0.1184
vt -0.0087 0.1184
vt -0.0468 -0.0175
vt 0.1434 -0.0175
vt 0.1434 0.1650
vt -0.0468 0.1650
vt -0.0407 -0.0249
vt 0.4042 -0.0249
vt 0.1817 0.2146
vt -0.0011 -0.0340
vt 0.4473 -0.0340
vt 0.2248 0.2055
vt 0.2213 0.2055
vt -0.0103 -0.0873
vt 0.4347 -0.0873
vt 0.2122 0.1522
vt -0.0636 -0.0019
vt 0.3848 -0.0019
vt 0.1624 0.2376
vt 0.1589 0.2376
vt -0.0250 -0.0127
vt 0.1379 -0.0127
vt 0.0565 0.0750
vt -0.0856 -0.0100
vt 0.4012 -0.0100
vt 0.3197 0.0776
vt -0.0041 0.0776
vt -0.0829 -0.0138
vt 0.0800 -0.0138
vt -0.0015 0.0739
vt -0.0867 -0.0120
vt 0.4001 -0.0120
vt 0.3187 0.0757
vt -0.0052 0.0757
vt -0.0175 -0.0598
vt 0.2666 -0.0598
vt 0.1245 0.0995
vt -0.0411 -0.0034
vt 0.4700 -0.0034
vt 0.3276 0.1561
vt 0.1010 0.1559
vt -0.0608 -0.0390
vt 0.2238 -0.0390
vt 0.0815 0.1205
vt -0.0203 -0.0458
vt 0.4906 -0.0458
vt 0.3486 0.1135
vt 0.1220 0.1136
vt -0.0707 -0.0099
vt 0.2398 -0.0099
vt 0.1350 0.1076
vt 0.0340 0.1076
vt -0.0673 -0.0233
vt 0.1423 -0.0233
vt 0.0375 0.0942
vt -0.0046 -0.0440
vt 0.3061 -0.0440
vt 0.2012 0.0735
vt 0.1002 0.0735
vt -0.0253 -0.0743
vt 0.1842 -0.0743
vt 0.0796 0.0432
vt -0.0153 -0.0031
vt 0.2869 -0.0031
vt 0.1520 0.1466
vt 0.1196 0.1466
vt -0.0626 -0.0131
vt 0.2072 -0.0131
vt 0.0723 0.1365
vt -0.0726 -0.0550
vt 0.2295 -0.0550
vt 0.0946 0.0946
vt 0.0623 0.0946
vt -0.0357 -0.0523
vt 0.2341 -0.0523
vt 0.0992 0.0974
vt -0.0780 -0.0388
vt 0.0501 -0.0388
vt -0.0140 0.0323
vt -0.0194 -0.0008
vt 0.2593 -0.0008
vt 0.1953 0.0703
vt 0.0447 0.0703
vt -0.0603 -0.0222
vt 0.0679 -0.0222
vt 0.0038 0.0489
vt -0.0028 -0.0750
vt 0.2759 -0.0750
vt 0.2118 -0.0039
vt 0.0613 -0.0039
vt -0.0423 -0.0271
vt 0.5187 -0.0271
vt 0.2382 0.2857
vt -0.0062 -0.0439
vt 0.6075 -0.0439
vt 0.3270 0.2689
vt 0.2743 0.2689
vt -0.0230 -0.0769
vt 0.5380 -0.0769
vt 0.2575 0.2359
vt -0.0561 -0.0176
vt 0.5577 -0.0176
vt 0.2772 0.2952
vt 0.2245 0.2952
vt -0.0507 -0.0170
vt 0.1622 -0.0170
vt 0.0557 0.1017
vt -0.0811 -0.0084
vt 0.5626 -0.0084
vt 0.4561 0.1104
vt 0.0253 0.1104
vt -0.0725 -0.0742
vt 0.1405 -0.0742
vt 0.0340 0.0445
vt -0.0534 -0.0015
vt 0.5904 -0.0015
vt 0.4839 0.1173
vt 0.0531 0.1173
vt -0.0352 -0.0138
vt 0.9495 -0.0138
vt 0.9495 0.1197
vt -0.0352 0.1197
vt -0.0830 -0.0216
vt 0.9016 -0.0216
vt 0.9016 0.1119
vt -0.0830 0.1119
vt -0.0901 -0.0216
vt 0.0420 -0.0216
vt 0.0420 0.2794
vt -0.0901 0.2794
vt -0.0909 -0.0171
vt 0.0412 -0.0171
vt 0.0412 0.2840
vt -0.0909 0.2840
vt -0.0596 -0.0511
vt 0.1043 -0.0511
vt 0.1043 0.0206
vt -0.0596 0.0206
vt -0.0346 -0.0230
vt 0.1293 -0.0230
vt 0.1293 0.0487
vt -0.0346 0.0487
vt -0.0156 -0.0574
vt 0.0558 -0.0574
vt 0.0558 -0.0151
vt -0.0156 -0.0151
vt -0.0409 -0.0482
vt 0.0305 -0.0482
vt 0.0305 -0.0058
vt -0.0409 -0.0058
vt -0.0234 -0.0878
vt 0.5678 -0.0878
vt 0.5678 0.0643
vt -0.0234 0.0643
vt -0.0633 -0.0806
vt 0.5279 -0.0806
vt 0.5279 0.0715
vt -0.0633 0.0715
vt -0.0886 -0.0803
vt 0.1119 -0.0803
vt 0.1119 0.1141
vt -0.0886 0.1141
vt -0.0558 -0.0737
vt 0.1447 -0.0737
vt 0.1447 0.1207
vt -0.0558 0.1207
vt -0.0172 -0.0285
vt 1.1221 -0.0285
vt 0.9456 0.1717
vt 0.1592 0.1717
vt -0.0068 -0.0072
vt 0.3461 -0.0072
vt 0.1697 0.1930
vt -0.0741 -0.0186
vt 1.0651 -0.0186
vt 0.8887 0.1816
vt 0.1023 0.1816
vt -0.0855 -0.0312
vt 0.2673 -0.0312
vt 0.0909 0.1691
vt -0.0537 -0.0017
vt 0.4088 -0.0017
vt 0.2195 0.2131
vt 0.1356 0.2131
vt -0.0686 -0.0530
vt 0.3100 -0.0530
vt 0.1207 0.1619
vt -0.0312 -0.0750
vt 0.4313 -0.0750
vt 0.2420 0.1398
vt 0.1581 0.1398
vt -0.0532 -0.0158
vt 0.3253 -0.0158
vt 0.1361 0.1990
vn 0.0241 0.9080 0.4182
vn 0.4183 0.9080 -0.0241
vn -0.0241 0.9080 -0.4183
vn -0.4182 0.9080 0.0241
vn 0.4182 0.9080 -0.0241
vn -0.0241 0.9080 -0.4182
vn -0.4183 0.9080 0.0241
vn -0.3825 0.9192 0.0933
vn 0.3825 0.9192 -0.0933
vn 0.0934 0.9192 0.3825
vn -0.0934 0.9192 -0.3825
vn 0.3630 0.9293 0.0684
vn 0.0687 0.9293 -0.3628
vn -0.3628 0.9293 -0.0687
vn -0.0688 0.9293 0.3629
vn 0.3629 0.9293 0.0684
vn 0.0684 0.9293 -0.3630
vn -0.3629 0.9293 -0.0687
vn -0.0687 0.9293 0.3629
vn -0.4091 0.9122 0.0231
vn 0.4091 0.9122 -0.0231
vn 0.0231 0.9122 0.4091
vn -0.0231 0.9122 -0.4091
vn 0.0640 0.9290 0.3646
vn 0.3646 0.9290 -0.0640
vn -0.0640 0.9290 -0.3646
vn -0.3646 0.9290 0.0640
vn -0.0640 0.9290 -0.3645
vn -0.4502 0.8919 0.0432
vn 0.0432 0.8919 0.4502
vn 0.4502 0.8919 -0.0435
vn -0.0436 0.8919 -0.4502
vn 0.0432 0.8918 0.4503
vn 0.4503 0.8919 -0.0432
vn -0.0437 0.8919 -0.4502
vn -0.1549 0.9012 -0.4047
vn -0.4048 0.9012 0.1549
vn 0.1549 0.9012 0.4048
vn 0.4048 0.9012 -0.1548
vn -0.1548 0.9013 -0.4047
vn -0.4046 0.9013 0.1548
vn 0.1548 0.9013 0.4047
vn 0.4047 0.9012 -0.1548
vn -0.4385 0.8968 0.0592
vn 0.0592 0.8968 0.4384
vn 0.4384 0.8968 -0.0592
vn -0.0592 0.8968 -0.4384
vn -0.4384 0.8968 0.0592
vn 0.4385 0.8968 -0.0592
vn -0.0592 0.8968 -0.4385
vn 0.4761 0.8758 -0.0794
vn -0.4761 0.8758 0.0794
vn -0.0793 0.8758 -0.4762
vn 0.0794 0.8757 0.4762
vn 0.4980 0.8672 0.0097
vn -0.4980 0.8671 -0.0097
vn 0.0098 0.8672 -0.4979
vn -0.0097 0.8673 0.4978
vn -0.0931 0.8903 -0.4457
vn 0.0931 0.8903 0.4458
vn -0.4457 0.8903 0.0930
vn 0.4457 0.8903 -0.0930
vn -0.0831 0.8810 -0.4657
vn -0.4657 0.8811 0.0831
vn 0.0831 0.8810 0.4657
vn 0.4657 0.8811 -0.0831
vn -0.4657 0.8810 0.0831
vn 0.4657 0.8810 -0.0831
g CityEngineMaterial_210_CityEngineMaterial_210_CityEngineMaterial_210_mat
usemtl CityEngineMaterial_210_mat
s 1
f 1/1/1 2/2/1 3/3/1 4/4/1
f 2/5/2 5/6/2 3/7/2
f 5/8/3 6/9/3 4/10/3 3/11/3
f 6/12/4 1/13/4 4/14/4
f 7/15/1 8/16/1 9/17/1
f 8/18/5 10/19/5 11/20/5 9/21/5
f 10/22/6 12/23/6 11/24/6
f 12/25/7 7/26/7 9/27/7 11/28/7
f 13/29/8 14/30/8 15/31/8 16/32/8
f 17/33/9 18/34/9 16/35/9 15/36/9
f 19/37/10 20/38/10 21/39/10 22/40/10
f 23/41/11 24/42/11 22/43/11 21/44/11
f 25/45/12 26/46/12 27/47/12 28/48/12
f 26/49/13 29/50/13 27/51/13
f 29/52/14 30/53/14 28/54/14 27/55/14
f 30/56/15 25/57/15 28/58/15
f 31/59/16 32/60/16 33/61/16
f 32/62/17 34/63/17 35/64/17 33/65/17
f 34/66/18 36/67/18 35/68/18
f 36/69/19 31/70/19 33/71/19 35/72/19
f 37/73/20 38/74/20 39/75/20 40/76/20
f 41/77/21 42/78/21 40/79/21 39/80/21
f 43/81/22 44/82/22 45/83/22 46/84/22
f 47/85/23 48/86/23 46/87/23 45/88/23
f 49/89/24 50/90/24 51/91/24
f 50/92/25 52/93/25 53/94/25 51/95/25
f 52/96/26 54/97/26 53/98/26
f 54/99/27 49/100/27 51/101/27 53/102/27
f 55/103/24 56/104/24 57/105/24
f 56/106/25 58/107/25 59/108/25 57/109/25
f 58/110/28 60/111/28 59/112/28
f 60/113/27 55/114/27 57/115/27 59/116/27
f 61/117/29 62/118/29 63/119/29
f 62/120/30 64/121/30 65/122/30 63/123/30
f 64/124/31 66/125/31 65/126/31
f 66/127/32 61/128/32 63/129/32 65/130/32
f 67/131/29 68/132/29 69/133/29 70/134/29
f 68/135/33 71/136/33 69/137/33
f 71/138/34 72/139/34 70/140/34 69/141/34
f 72/142/35 67/143/35 70/144/35
f 73/145/36 74/146/36 75/147/36 76/148/36
f 74/149/37 77/150/37 75/151/37
f 77/152/38 78/153/38 76/154/38 75/155/38
f 78/156/39 73/157/39 76/158/39
f 79/159/40 80/160/40 81/161/40
f 80/162/41 82/163/41 83/164/41 81/165/41
f 82/166/42 84/167/42 83/168/42
f 84/169/43 79/170/43 81/171/43 83/172/43
f 85/173/44 86/174/44 87/175/44
f 86/176/45 88/177/45 89/178/45 87/179/45
f 88/180/46 90/181/46 89/182/46
f 90/183/47 85/184/47 87/185/47 89/186/47
f 91/187/48 92/188/48 93/189/48
f 92/190/45 94/191/45 95/192/45 93/193/45
f 94/194/49 96/195/49 95/196/49
f 96/197/50 91/198/50 93/199/50 95/200/50
f 97/201/51 98/202/51 99/203/51 100/204/51
f 101/205/52 102/206/52 100/207/52 99/208/52
f 103/209/53 104/210/53 105/211/53 106/212/53
f 107/213/54 108/214/54 106/215/54 105/216/54
f 109/217/55 110/218/55 111/219/55 112/220/55
f 113/221/56 114/222/56 112/223/56 111/224/56
f 115/225/57 116/226/57 117/227/57 118/228/57
f 119/229/58 120/230/58 118/231/58 117/232/58
f 121/233/59 122/234/59 123/235/59 124/236/59
f 125/237/60 126/238/60 124/239/60 123/240/60
f 127/241/61 128/242/61 129/243/61 130/244/61
f 131/245/62 132/246/62 130/247/62 129/248/62
f 133/249/63 134/250/63 135/251/63 136/252/63
f 134/253/64 137/254/64 135/255/64
f 137/256/65 138/257/65 136/258/65 135/259/65
f 138/260/66 133/261/66 136/262/66
f 139/263/63 140/264/63 141/265/63 142/266/63
f 140/267/67 143/268/67 141/269/67
f 143/270/65 144/271/65 142/272/65 141/273/65
f 144/274/68 139/275/68 142/276/68
