# Blender v2.78 (sub 0) OBJ File: ''
# www.blender.org
mtllib CityEngineMaterial_665.mtl
o CityEngineMaterial_665
v -526.619385 8.152725 455.441986
v -526.705627 8.152721 477.663086
v -509.361115 8.152721 477.722900
v -509.281006 8.152725 455.648102
v -525.263184 12.186026 456.819611
v -525.338928 12.186023 476.306305
v -517.194092 12.186023 476.334412
v -517.118774 12.186026 456.916504
v -517.155029 29.113823 466.242798
v -517.194092 29.113821 476.334412
v -510.717590 29.113821 476.356689
v -510.681000 29.113823 466.267914
v -525.229980 13.443226 458.754486
v -525.291321 13.443223 474.530487
v -520.857117 13.443223 474.547699
v -520.795898 13.443226 458.771698
v -520.840820 13.443224 470.343689
v -517.187317 13.443223 474.561890
v -517.170898 13.443224 470.357910
v -517.157104 30.688124 466.804901
v -517.191895 30.688122 475.772186
v -513.252930 30.688122 475.786011
v -513.218079 30.688124 466.820190
v -513.230713 30.688124 470.052094
v -510.694794 30.688124 470.061890
v -510.683197 30.688124 466.830109
v -513.243896 30.688124 473.466187
v -510.715393 30.688122 475.794891
v -510.707001 30.688124 473.476013
v -185.474899 7.257590 675.613220
v -193.728104 7.257590 674.494019
v -195.984604 7.257590 676.582275
v -194.919601 7.257589 678.831482
v -196.264893 7.257589 678.649109
v -195.290802 7.257589 681.568481
v -186.445206 7.257589 682.768127
v -193.023193 8.669889 681.833801
v -188.078506 8.669888 682.504395
v -187.548004 8.669889 678.592712
v -192.492706 8.669889 677.922119
v -188.962296 8.669889 678.400818
v -188.528107 8.669890 675.199219
v -192.058502 8.669890 674.720398
v 60.341400 48.709702 -637.625488
v 60.059101 48.709702 -639.423279
v 52.906200 48.709702 -638.304077
v 55.360802 48.709702 -622.675903
v 64.260399 48.709702 -638.239380
v 66.142799 48.709702 -624.364502
v 53.580898 50.032104 -634.007874
v 54.969299 50.032104 -625.168518
v 62.460098 50.032104 -626.345093
v 61.071701 50.032104 -635.184570
v 61.812599 50.032104 -630.467773
v 62.431000 50.032104 -626.530273
v 65.721603 50.032104 -627.047180
v 65.103104 50.032104 -630.984680
v -270.640991 9.629265 832.256409
v -263.323212 9.629264 837.453674
v -254.964996 9.629266 826.833923
v -261.439209 9.629266 824.121582
v -260.484497 9.629266 822.908630
v -263.391693 9.629266 822.734924
v -262.042511 10.350163 835.826721
v -257.471100 10.350164 830.018127
v -262.184906 10.350165 826.308228
v -266.756409 10.350164 832.116699
v -265.213013 10.350164 830.155701
v -267.549500 10.350164 828.316772
v -269.092804 10.350164 830.277771
v 492.410400 45.504086 89.625610
v 477.124115 45.504086 90.513611
v 478.009491 45.504082 105.761604
v 493.283997 45.504086 104.876709
v 492.410400 76.472885 89.625618
v 485.236298 76.472885 90.042412
v 486.109589 76.472885 105.292412
v 493.283997 76.472885 104.876717
v 485.759888 72.438889 99.186813
v 477.654602 72.438889 99.651016
v 478.009491 72.438889 105.761612
v 486.109589 72.438889 105.292412
v 489.429413 77.024483 100.794014
v 486.702087 77.024483 100.952019
v 486.899902 77.024483 104.405518
v 492.397614 77.024483 104.087013
v 491.620209 77.024483 90.512619
v 488.849701 77.024483 90.673615
v 484.872314 73.115883 99.237617
v 478.542297 73.115883 99.600212
v 478.780212 73.115883 103.709312
v 485.107697 73.115883 103.346916
v 482.399689 73.115883 103.502014
v 479.566315 73.115883 103.664314
v 479.680908 73.115883 105.665215
v 482.514191 73.115883 105.500618
v 289.945496 30.740685 93.486710
v 289.686798 30.740685 93.884010
v 289.522491 30.740681 114.779709
v 302.449585 30.740681 114.206711
v 301.481201 30.740685 92.831604
v 289.547791 82.432686 111.566017
v 302.304413 82.432686 111.000717
v 301.626495 82.432686 96.037918
v 289.664612 82.432686 96.717216
v 292.292206 54.344582 114.656906
v 299.683685 54.344582 114.329208
v 298.716888 54.344585 92.988609
v 293.376312 54.344585 93.291908
v 292.449005 54.344585 94.715904
v 301.130096 89.078781 109.742218
v 300.571289 89.078781 97.409119
v 290.770813 89.078781 97.965813
v 290.674591 89.078781 110.205612
v 298.953094 92.897484 112.492615
v 298.155609 92.897484 94.890816
v 293.092102 92.897484 95.178314
v 292.953796 92.897484 112.758514
v 299.706787 93.731087 98.539116
v 291.677490 93.731087 98.995117
v 291.598297 93.731087 109.084518
v 300.167389 93.731087 108.704712
v 297.701294 104.463387 96.459213
v 293.605103 104.463387 96.691818
v 293.491211 104.463387 111.193115
v 298.359009 104.463387 110.977318
v 292.365509 101.329788 108.160217
v 299.368011 101.329788 107.849915
v 298.988403 101.329788 99.470718
v 292.430786 101.329788 99.843216
v 293.941803 105.950485 109.901718
v 297.861603 105.950485 109.727814
v 297.319092 105.950485 97.753212
v 294.035706 105.950485 97.939613
v 298.722687 103.298286 107.144615
v 298.409790 103.298286 100.237915
v 293.037994 103.298286 100.543114
v 292.984192 103.298286 107.398918
v 297.471497 107.918983 108.696312
v 297.024109 107.918983 98.819313
v 294.370514 107.918983 98.970016
v 294.293091 107.918983 108.837318
v 296.014496 104.048882 104.317612
v 294.943909 104.048882 104.365013
v 294.936005 104.048882 105.374619
v 296.700989 104.048882 105.296417
v 295.923889 104.048882 102.318214
v 296.564514 104.048882 102.281815
v 297.403290 109.241188 107.190117
v 297.093597 109.241188 100.353516
v 295.503998 109.241188 100.425514
v 295.813812 109.241188 107.262115
v 295.700012 109.241188 104.750519
v 294.634613 109.241188 104.798813
v 294.748413 109.241188 107.310417
v 295.603088 109.241188 102.611717
v 294.438690 109.241188 100.473816
v 294.537811 109.241188 102.659912
v 219.093201 34.804100 -2.759894
v 219.848907 34.804100 10.393806
v 225.173294 34.804100 10.128905
v 224.976501 34.804100 6.704506
v 226.698105 34.804100 6.606806
v 226.143707 34.804100 -3.160094
v 219.177902 35.589401 -1.284794
v 219.569702 35.589401 5.533006
v 224.132599 35.589401 5.273005
v 223.740799 35.589401 -1.544794
v 223.854401 35.589401 0.431806
v 224.015396 35.589401 3.235106
v 226.498199 35.589401 3.092406
v 226.339905 35.589401 0.289006
v -553.710083 8.385545 338.002502
v -533.069824 8.385545 338.121399
v -532.678284 8.385545 337.752808
v -532.579224 8.385548 320.544189
v -553.614014 8.385548 320.440491
v -551.902222 43.443848 336.214905
v -534.468201 43.443848 336.315308
v -534.413513 43.443848 326.816986
v -551.850281 43.443848 326.716888
v -551.850281 28.201447 326.716888
v -545.075073 28.201447 326.755798
v -545.049377 28.201447 322.280792
v -551.825928 28.201447 322.247406
v -540.009399 32.610447 326.784912
v -534.413513 32.610447 326.816986
v -534.387573 32.610447 322.333313
v -539.983826 32.610447 322.305786
v -550.782410 43.929447 332.179901
v -535.542725 43.929447 332.267303
v -535.511292 43.929447 326.810699
v -550.752380 43.929447 326.723206
v -546.133972 28.782547 323.353912
v -550.753418 28.782547 323.331085
v -550.758118 28.782547 324.189087
v -549.802612 28.782547 324.193787
v -549.810974 28.782547 325.650208
v -546.147278 28.782547 325.671204
v -535.496277 33.498947 323.430298
v -538.887573 33.498947 323.413605
v -538.894592 33.498947 324.626892
v -536.789307 33.498947 324.637299
v -536.795410 33.498947 325.700897
v -535.509521 33.498947 325.708313
v -541.019714 43.929447 336.277588
v -535.565979 43.929447 336.308990
v -540.996521 43.929447 332.236115
v -454.207214 8.351129 440.244995
v -456.341888 8.351125 460.723511
v -442.508606 8.351125 459.657104
v -444.140686 8.351129 439.419800
v -454.207214 28.650028 440.244995
v -456.341888 28.650026 460.723511
v -449.613007 28.650026 460.204803
v -445.749207 28.650028 439.551697
v -447.469086 28.650028 448.744598
v -442.508606 28.650026 459.657104
v -443.326202 28.650028 449.519714
v -453.275513 29.148125 457.738586
v -451.920013 29.148125 457.634094
v -449.102997 29.148127 442.576202
v -452.786194 29.148125 453.884888
v -450.694885 29.148127 442.706696
v -452.874512 29.148125 453.891693
v -447.831390 30.049826 450.832489
v -448.998199 30.049826 457.069489
v -446.209808 30.049826 457.591187
v -445.042999 30.049826 451.354095
v -445.720703 30.049826 454.976501
v -444.882690 30.049826 457.839508
v -444.393494 30.049826 455.224915
v -1249.356812 15.948244 346.177795
v -1248.243286 15.948245 340.670013
v -1251.001709 15.948245 340.112610
v -1251.249756 15.948245 341.339691
v -1255.842407 15.948245 340.411713
v -1256.710571 15.948244 344.691895
v -1235.928345 16.756144 348.891113
v -1234.752197 16.756145 343.058807
v -1237.614990 16.756145 342.480408
v -1237.875244 16.756145 343.770691
v -1239.633301 16.756145 343.415497
v -1240.551392 16.756144 347.956909
v -1255.390991 16.983644 341.092499
v -1256.029419 16.983644 344.240112
v -1249.808716 16.983643 345.497009
v -1252.289551 16.983644 342.728485
v -1249.368286 16.983644 343.318604
v -1252.092896 16.983644 341.758911
v -1248.924194 16.449444 341.121887
v -1250.549805 16.449444 340.793396
v -1250.797852 16.449444 342.020508
v -1249.172241 16.449444 342.348907
v -1235.817383 17.167242 348.340607
v -1235.123291 17.167244 344.899109
v -1237.810059 17.167244 344.356506
v -1238.504150 17.167242 347.798004
v -1238.127319 17.167242 345.929810
v -1240.062622 17.167242 345.539490
v -1240.440552 17.167242 347.406891
v -177.576797 4.799304 589.903503
v -157.891098 4.799301 605.532471
v -149.641006 4.799303 595.127014
v -165.560303 4.799306 577.962524
v -167.274704 19.294703 595.822815
v -158.177597 19.294701 603.045227
v -151.971100 19.294703 595.217224
v -159.962708 19.294704 586.600525
v -170.583099 19.294704 585.448730
v -163.501297 19.294704 591.063599
v -165.612305 19.294704 580.509094
v -161.770599 19.910505 588.880676
v -166.576996 19.910503 594.942871
v -161.766403 19.910503 598.757019
v -156.960007 19.910503 592.694824
v -158.344498 19.910503 594.441101
v -154.053299 19.910503 597.843384
v -152.668793 19.910503 596.097229
v -159.683105 19.910503 596.129272
v -157.475204 19.910503 602.159180
v -155.391907 19.910503 599.531677
v -169.386597 19.712105 586.357117
v -164.096893 19.712105 590.551025
v -162.142502 19.712105 588.085999
v -167.432205 19.712105 583.892029
v -164.803299 19.712105 585.976318
v -163.238800 19.712105 584.003113
v -165.867706 19.712105 581.918701
v -395.038605 5.940154 280.508301
v -371.028015 5.940155 278.224487
v -373.080292 5.940157 260.870087
v -398.184296 5.940157 263.845306
v -395.434204 5.940154 280.406189
v -395.038605 27.286854 280.508301
v -387.963715 27.286854 279.835297
v -389.969788 27.286858 262.871796
v -398.184296 27.286856 263.845306
v -395.434204 27.286854 280.406189
v -388.297699 27.795254 277.011108
v -389.672089 27.795256 265.389587
v -394.584015 27.795256 265.970490
v -393.209595 27.795254 277.592010
v -393.812286 27.795256 272.496094
v -394.220795 27.795256 269.041412
v -396.742889 27.795256 269.339691
v -396.334412 27.795256 272.794403
v -497.719208 11.862463 841.918213
v -486.315186 11.862463 842.736877
v -486.394196 11.862465 829.694885
v -493.906403 11.862464 837.616028
v -493.933197 11.862465 833.184570
v -497.774292 11.862465 832.896118
v -497.799103 11.862465 828.838074
v -497.747192 11.862464 837.340271
vt 0.0000 0.6440
vt 0.7821 0.6440
vt 0.7819 0.0000
vt 0.0049 0.0002
vt 0.0000 0.6910
vt 0.8689 0.6910
vt 0.8687 -0.0000
vt 0.0029 0.0000
vt 0.0000 1.0000
vt 1.2200 1.0000
vt 1.2197 -0.0000
vt 0.0000 0.0004
vt 0.0000 1.0000
vt 0.5017 1.0000
vt 0.5017 0.0000
vt 0.0000 0.0000
vt 0.0000 1.0000
vt 1.0000 1.0000
vt 1.0000 0.0000
vt 0.0000 0.0000
vt 0.0000 1.0000
vt 0.7000 1.0000
vt 0.6999 -0.0000
vt 0.0000 0.0000
vt 0.0000 1.0000
vt 1.0000 1.0000
vt 1.0000 0.0000
vt 0.0000 0.0004
vt 0.0004 0.0000
vt 0.0000 1.0000
vt 1.0000 1.0000
vt 1.0000 0.0004
vt 1.1187 0.0000
vt 0.2127 0.0000
vt 0.0000 0.3286
vt 0.1477 0.6175
vt 0.0000 0.6175
vt 0.1477 1.0000
vt 1.1187 1.0000
vt 0.0000 1.0000
vt 1.0000 1.0000
vt 1.0000 0.0000
vt 0.0000 0.0000
vt 0.0000 1.0000
vt 1.0000 1.0000
vt 1.0000 0.0000
vt 0.0000 0.0000
vt 0.0608 0.3952
vt 0.0001 0.3952
vt 0.0000 1.1164
vt 0.5277 1.1164
vt 0.0609 0.0000
vt 0.5278 0.0292
vt 0.0000 1.0000
vt 1.0449 1.0000
vt 1.0449 0.0000
vt 0.0000 0.0000
vt 0.0000 1.0000
vt 1.0000 1.0000
vt 1.0000 0.0000
vt 0.0000 0.0000
vt -0.0000 0.0222
vt 0.0389 1.0607
vt 1.2284 1.0607
vt 1.0636 0.2771
vt 1.1995 0.2771
vt 1.0532 -0.0000
vt 0.0000 1.0000
vt 1.0000 1.0000
vt 1.0000 0.0000
vt 0.0000 0.0000
vt 0.0000 1.0000
vt 1.0000 1.0000
vt 1.0000 0.0000
vt -0.0000 1.0624
vt 1.6735 1.0624
vt 1.6735 0.0002
vt 0.0014 0.0000
vt 0.0000 0.0000
vt 0.0005 1.0000
vt 1.3069 1.0000
vt 1.3065 -0.0000
vt 0.0000 1.0000
vt 0.5226 1.0000
vt 0.5223 0.0000
vt 0.0000 0.0009
vt 0.2292 0.4961
vt 0.2291 0.0000
vt 0.0000 0.0000
vt 0.0002 1.0000
vt 0.9007 1.0000
vt 0.9006 0.4961
vt 0.0000 1.0000
vt 1.0000 1.0000
vt 0.9996 0.0000
vt 0.0000 0.0000
vt 0.0000 1.0000
vt 1.0000 1.0000
vt 1.0000 0.0000
vt 0.0000 0.0012
vt 0.9322 0.1336
vt 0.9153 0.1070
vt 0.0006 -0.0000
vt 0.0000 1.2471
vt 0.9380 1.2471
vt 0.0014 0.0000
vt -0.0000 0.8988
vt 1.6308 0.8988
vt 1.6159 0.0555
vt 0.0004 0.0000
vt 0.0000 1.0000
vt 0.7926 1.0000
vt 0.7903 0.2771
vt 0.7391 0.1432
vt 0.0000 0.7942
vt 1.2208 0.7942
vt 1.2097 0.0493
vt 0.0010 0.0000
vt 0.0000 1.0000
vt 0.6196 1.0000
vt 0.6176 0.1555
vt 0.0004 0.0000
vt 0.7330 0.5499
vt 0.7264 0.0344
vt 0.0006 -0.0000
vt -0.0000 0.5499
vt 1.7917 1.0000
vt 1.7859 0.1581
vt 0.0006 -0.0000
vt 0.0000 1.0000
vt 0.0006 -0.0000
vt 0.0000 1.0000
vt 0.7763 1.0000
vt 0.7694 0.0630
vt 0.0004 0.0000
vt 0.0000 1.0000
vt 1.3193 1.0000
vt 1.3151 0.1619
vt 0.0000 1.0000
vt 1.0000 1.0000
vt 0.9911 0.0634
vt 0.0008 0.0000
vt 0.0000 1.0000
vt 0.7016 1.0000
vt 0.6995 0.1647
vt 0.0004 0.0000
vt 0.3343 0.6369
vt 0.3347 0.0304
vt 0.0006 -0.0000
vt 0.0000 1.0000
vt 0.9976 0.6369
vt 1.0000 1.0000
vt 0.0000 1.0000
vt 1.0000 1.0000
vt 1.0000 0.0000
vt 0.0000 0.0000
vt 0.0000 1.0000
vt 1.0000 1.0000
vt 1.0000 0.0000
vt 0.0000 0.0000
vt 0.0000 1.0000
vt 1.0000 1.0000
vt 1.0000 0.0000
vt 0.0000 0.0000
vt 0.0000 1.0000
vt 0.8507 1.0000
vt 0.8533 0.2451
vt 0.6319 0.2451
vt 0.6320 0.0010
vt 0.0004 0.0000
vt 0.0000 1.0000
vt 0.9997 1.0000
vt 1.0000 0.0000
vt 0.0004 0.0000
vt 0.0000 1.0000
vt 1.0000 1.0000
vt 1.0000 0.0011
vt 0.0000 0.0000
vt 1.1171 0.0006
vt 0.0214 0.0000
vt 0.0008 0.0127
vt 0.0000 0.6003
vt 1.1166 0.6003
vt 0.0001 1.1180
vt 0.5919 1.1180
vt 0.5919 0.0000
vt 0.0000 0.0000
vt 0.0002 1.0000
vt 1.0000 1.0000
vt 1.0000 0.0000
vt 0.0000 0.0012
vt 0.0000 1.0000
vt 1.0000 1.0000
vt 1.0000 0.0000
vt 0.0000 0.0010
vt 0.0002 1.0000
vt 1.3161 1.0000
vt 1.3161 0.0000
vt 0.0000 0.0000
vt 0.0000 1.0000
vt 1.0000 1.0000
vt 1.0000 0.6297
vt 0.7932 0.6297
vt 0.7934 0.0013
vt 0.0004 0.0000
vt 0.0000 1.0000
vt 0.9997 1.0000
vt 1.0000 0.4674
vt 0.3794 0.4673
vt 0.3796 0.0005
vt 0.0006 -0.0000
vt 0.0000 1.0000
vt 1.0000 1.0000
vt 1.0000 0.0000
vt 0.0000 0.0000
vt 0.0970 1.5290
vt 1.1680 1.5290
vt 1.0383 0.0000
vt 0.0000 0.4169
vt 0.9092 -0.0000
vt 0.0000 0.1076
vt 0.0774 0.5283
vt 1.0083 0.5283
vt 0.0000 1.0000
vt 1.2543 1.0000
vt 1.0559 0.0000
vt 0.0000 0.3876
vt 0.0000 0.1926
vt 0.0307 1.0000
vt 1.3675 1.0000
vt 0.3384 0.0526
vt 1.3308 0.0526
vt 0.3364 0.0000
vt 0.0000 1.0000
vt 1.0000 1.0000
vt 1.0000 0.0000
vt 0.0000 0.0000
vt 0.0000 1.0000
vt 1.0000 1.0000
vt 1.0000 0.0000
vt 0.0000 0.0000
vt 1.0000 1.0000
vt 1.0000 0.0000
vt 0.6249 0.0000
vt 0.6249 0.2228
vt 0.0004 0.2228
vt 0.0000 1.0000
vt 0.0000 1.0000
vt 1.0000 1.0000
vt 1.0000 0.3808
vt 0.7788 0.3808
vt 0.7789 0.0005
vt 0.0004 0.0000
vt 0.0004 0.0000
vt 0.0000 1.0000
vt 1.0000 1.0000
vt 0.5304 0.3080
vt 1.0000 0.3080
vt 0.5305 0.0000
vt 0.0000 1.0000
vt 1.0000 1.0000
vt 1.0000 0.0000
vt 0.0000 0.0000
vt 0.0000 1.0000
vt 0.9997 1.0000
vt 1.0000 0.0000
vt 0.0004 0.0000
vt 1.0000 1.0000
vt 0.9997 -0.0000
vt 0.0004 0.0003
vt 0.0000 1.0000
vt 0.0000 0.7808
vt 0.8954 0.7808
vt 0.8951 0.1645
vt 0.0708 0.0000
vt 1.4790 0.9045
vt 1.4800 0.0000
vt 0.2246 0.0000
vt 0.0000 0.9045
vt 0.0000 1.0000
vt 0.6412 1.0000
vt 0.6412 0.1815
vt 0.0586 0.0000
vt 0.0000 1.0000
vt 1.0000 1.0000
vt 1.0000 0.0000
vt 0.0000 0.0000
vt 0.0000 1.0000
vt 1.0000 1.0000
vt 1.0000 0.0000
vt 0.0000 0.0000
vt 0.0000 1.0000
vt 1.0000 1.0000
vt 1.0000 0.0000
vt 0.0000 1.0000
vt 1.0000 1.0000
vt 1.0000 0.0000
vt 0.0000 0.0000
vt 0.0000 1.0000
vt 1.0000 1.0000
vt 1.0000 0.0000
vt 0.0000 0.0000
vt 1.4197 0.0207
vt 0.0004 0.0000
vt 0.0000 0.6485
vt 1.4881 0.6485
vt 1.4421 0.0262
vt 0.0094 0.0758
vt 0.0000 0.5373
vt 0.9871 0.5373
vt 0.9870 -0.0000
vt 0.0179 0.0511
vt 0.0000 1.0000
vt 0.9893 1.0000
vt 0.9893 0.0000
vt 0.0000 0.0000
vt 0.0000 1.0000
vt 1.0000 1.0000
vt 1.0000 0.0000
vt 0.0000 0.0000
vt 0.0596 0.0001
vt -0.0000 1.0289
vt 0.8763 1.0289
vt 0.3471 0.3465
vt 0.6449 0.3465
vt 0.6658 0.0000
vt 0.9385 0.0000
vt 0.3672 0.0000
vn -0.0000 1.0000 0.0000
g CityEngineMaterial_665_CityEngineMaterial_665_CityEngineMaterial_665_mat
usemtl CityEngineMaterial_665_mat
s 1
f 1/1/1 2/2/1 3/3/1 4/4/1
f 5/5/1 6/6/1 7/7/1 8/8/1
f 9/9/1 10/10/1 11/11/1 12/12/1
f 13/13/1 14/14/1 15/15/1 16/16/1
f 17/17/1 15/18/1 18/19/1 19/20/1
f 20/21/1 21/22/1 22/23/1 23/24/1
f 23/25/1 24/26/1 25/27/1 26/28/1
f 27/29/1 22/30/1 28/31/1 29/32/1
f 30/33/1 31/34/1 32/35/1 33/36/1
f 32/35/1 34/37/1 33/36/1
f 30/33/1 33/36/1 35/38/1 36/39/1
f 37/40/1 38/41/1 39/42/1 40/43/1
f 40/44/1 41/45/1 42/46/1 43/47/1
f 44/48/1 45/49/1 46/50/1 47/51/1
f 48/52/1 44/48/1 47/51/1 49/53/1
f 50/54/1 51/55/1 52/56/1 53/57/1
f 54/58/1 55/59/1 56/60/1 57/61/1
f 58/62/1 59/63/1 60/64/1 61/65/1
f 60/64/1 62/66/1 61/65/1
f 58/62/1 61/65/1 63/67/1
f 64/68/1 65/69/1 66/70/1 67/71/1
f 67/71/1 68/72/1 69/73/1 70/74/1
f 71/75/1 72/76/1 73/77/1 74/78/1
f 75/79/1 76/80/1 77/81/1 78/82/1
f 79/83/1 80/84/1 81/85/1 82/86/1
f 83/87/1 84/88/1 85/89/1 86/90/1
f 83/87/1 86/90/1 87/91/1 88/92/1
f 89/93/1 90/94/1 91/95/1 92/96/1
f 93/97/1 94/98/1 95/99/1 96/100/1
f 97/101/1 98/102/1 99/103/1 100/104/1
f 97/101/1 100/104/1 101/105/1
f 102/106/1 103/107/1 104/108/1 105/109/1
f 106/110/1 107/111/1 108/112/1 109/113/1
f 106/110/1 109/113/1 110/114/1
f 111/115/1 112/116/1 113/117/1 114/118/1
f 115/119/1 116/120/1 117/121/1 118/122/1
f 119/123/1 120/124/1 121/125/1 122/126/1
f 123/127/1 124/128/1 125/129/1 126/130/1
f 127/131/1 128/132/1 129/133/1 130/134/1
f 131/135/1 132/136/1 133/137/1 134/138/1
f 135/139/1 136/140/1 137/141/1 138/142/1
f 139/143/1 140/144/1 141/145/1 142/146/1
f 143/147/1 144/148/1 145/149/1 146/150/1
f 147/151/1 143/147/1 146/150/1 148/152/1
f 149/153/1 150/154/1 151/155/1 152/156/1
f 152/157/1 153/158/1 154/159/1 155/160/1
f 156/161/1 151/162/1 157/163/1 158/164/1
f 159/165/1 160/166/1 161/167/1 162/168/1
f 159/165/1 162/168/1 163/169/1 164/170/1
f 165/171/1 166/172/1 167/173/1 168/174/1
f 169/175/1 170/176/1 171/177/1 172/178/1
f 173/179/1 174/180/1 175/181/1 176/182/1
f 173/179/1 176/182/1 177/183/1
f 178/184/1 179/185/1 180/186/1 181/187/1
f 182/188/1 183/189/1 184/190/1 185/191/1
f 186/192/1 187/193/1 188/194/1 189/195/1
f 190/196/1 191/197/1 192/198/1 193/199/1
f 194/200/1 195/201/1 196/202/1 197/203/1
f 194/200/1 197/203/1 198/204/1 199/205/1
f 200/206/1 201/207/1 202/208/1 203/209/1
f 200/206/1 203/209/1 204/210/1 205/211/1
f 206/212/1 207/213/1 191/214/1 208/215/1
f 209/216/1 210/217/1 211/218/1 212/219/1
f 213/220/1 214/221/1 215/222/1 216/223/1
f 217/224/1 215/225/1 218/226/1 219/227/1
f 220/228/1 221/229/1 222/230/1 223/231/1
f 222/230/1 224/232/1 223/231/1
f 220/228/1 223/231/1 225/233/1
f 226/234/1 227/235/1 228/236/1 229/237/1
f 230/238/1 228/239/1 231/240/1 232/241/1
f 233/242/1 234/243/1 235/244/1 236/245/1
f 233/242/1 236/245/1 237/246/1 238/247/1
f 239/248/1 240/249/1 241/250/1 242/251/1
f 239/248/1 242/251/1 243/252/1 244/253/1
f 245/254/1 246/255/1 247/256/1 248/257/1
f 247/256/1 249/258/1 248/257/1
f 250/259/1 245/254/1 248/257/1
f 251/260/1 252/261/1 253/262/1 254/263/1
f 255/264/1 256/265/1 257/266/1 258/267/1
f 258/268/1 259/269/1 260/270/1 261/271/1
f 262/272/1 263/273/1 264/274/1 265/275/1
f 266/276/1 267/277/1 268/278/1 269/279/1
f 270/280/1 271/281/1 269/282/1 272/283/1
f 273/284/1 274/285/1 275/286/1 276/287/1
f 276/287/1 277/288/1 278/289/1 279/290/1
f 280/291/1 275/292/1 281/293/1 282/294/1
f 283/295/1 284/296/1 285/297/1 286/298/1
f 286/299/1 287/300/1 288/301/1 289/302/1
f 290/303/1 291/304/1 292/305/1 293/306/1
f 290/303/1 293/306/1 294/307/1
f 295/308/1 296/309/1 297/310/1 298/311/1
f 295/308/1 298/311/1 299/312/1
f 300/313/1 301/314/1 302/315/1 303/316/1
f 304/317/1 305/318/1 306/319/1 307/320/1
f 308/321/1 309/322/1 310/323/1 311/324/1
f 312/325/1 311/324/1 310/323/1 313/326/1
f 310/323/1 314/327/1 313/326/1
f 308/321/1 311/324/1 315/328/1
