# Blender v2.78 (sub 0) OBJ File: ''
# www.blender.org
mtllib CityEngineMaterial_243.mtl
o CityEngineMaterial_243
v -502.478607 3.109358 257.563812
v -488.455688 3.109358 255.630493
v -488.455688 4.713358 255.630493
v -502.478607 4.713358 257.563812
v -488.805695 3.109360 245.379593
v -488.805695 4.713360 245.379593
v -495.081512 3.109360 246.244904
v -495.081512 4.713360 246.244904
v -495.041412 3.109360 247.417801
v -495.041412 4.713359 247.417801
v -496.294189 3.109360 247.590500
v -496.294189 4.713359 247.590500
v -496.334198 3.109360 246.417603
v -496.334198 4.713360 246.417603
v -502.828400 3.109360 247.313004
v -502.828400 4.713360 247.313004
v 281.497101 52.068386 -544.139587
v 263.050903 52.068386 -541.235718
v 263.050903 54.038788 -541.235718
v 281.497101 54.038788 -544.139587
v 264.890991 52.068386 -529.515076
v 264.890991 54.038788 -529.515076
v 283.334412 52.068386 -532.407471
v 283.334412 54.038788 -532.407471
v 521.519592 20.468012 543.999817
v 520.914795 20.468012 541.116272
v 520.914795 22.119411 541.116272
v 521.519592 22.119411 543.999817
v 520.262024 20.468012 541.253113
v 520.262024 22.119411 541.253113
v 519.025085 20.467913 535.351013
v 519.025085 22.119411 535.351013
v 519.676514 20.467913 535.211487
v 519.676514 22.119411 535.211487
v 519.122192 20.468014 532.568420
v 519.122192 22.119413 532.568420
v 515.789612 20.467913 533.281921
v 515.789612 22.119411 533.281921
v 518.182373 20.468010 544.699219
v 518.182373 22.119410 544.699219
v -1376.680298 12.694940 367.388794
v -1376.793091 12.694942 356.696899
v -1376.793091 14.784342 356.696899
v -1376.680298 14.784340 367.388794
v -1380.154175 12.694942 356.727386
v -1380.154175 14.784342 356.727386
v -1380.144165 12.694942 357.678314
v -1380.144165 14.784342 357.678314
v -1385.064819 12.694942 357.723114
v -1385.064819 14.784342 357.723114
v -1384.974731 12.694940 367.464294
v -1384.974731 14.784340 367.464294
v -226.966797 7.319854 -334.935486
v -248.185898 7.319853 -323.591492
v -248.185898 9.254152 -323.591492
v -226.966797 9.254154 -334.935486
v -238.423492 7.319849 -305.371002
v -238.423492 9.254149 -305.371002
v -216.817307 7.319851 -315.973602
v -216.817307 9.254151 -315.973602
v -53.734901 40.565144 -898.879517
v -52.440800 40.565144 -890.661194
v -52.440800 41.953747 -890.661194
v -53.734901 41.953747 -898.879517
v -48.490501 40.565144 -891.280701
v -48.490501 41.953747 -891.280701
v -48.956699 40.565144 -894.241089
v -48.956699 41.953747 -894.241089
v -40.287601 40.565144 -895.599182
v -40.287601 41.953747 -895.599182
v -41.116402 40.565144 -900.856323
v -41.116402 41.953747 -900.856323
v -55.342701 34.095387 -1148.663818
v -54.680599 34.095387 -1143.902954
v -54.680599 35.520287 -1143.902954
v -55.342701 35.520287 -1148.663818
v -53.887501 34.095387 -1139.020508
v -53.887501 35.520287 -1139.020508
v -50.963402 34.095387 -1139.409790
v -50.963402 35.520287 -1139.409790
v -51.730000 34.095387 -1144.129272
v -51.730000 35.520287 -1144.129272
v -45.885601 34.095387 -1144.907959
v -45.885601 35.520287 -1144.907959
v -45.187599 34.095387 -1140.178833
v -45.187599 35.520287 -1140.178833
v -40.808800 34.095387 -1140.761719
v -40.808800 35.520287 -1140.761719
v -42.344200 34.095387 -1151.165039
v -42.344200 35.520287 -1151.165039
v -55.410400 34.095387 -1149.424194
v -55.410400 35.520287 -1149.424194
v -295.478699 2.698917 511.054413
v -295.627686 2.698917 509.489410
v -295.627686 4.306117 509.489410
v -295.478699 4.306117 511.054413
v -296.970795 2.698917 509.617096
v -296.970795 4.306117 509.617096
v -295.305603 2.698914 527.124817
v -295.305603 4.306114 527.124817
v -291.208496 2.698914 526.735229
v -291.208496 4.306114 526.735229
v -292.881409 2.698917 509.228088
v -292.881409 4.306117 509.228088
v -294.369904 2.698917 509.369812
v -294.369904 4.306117 509.369812
v -294.220306 2.698917 510.934692
v -294.220306 4.306117 510.934692
v -588.231323 39.918957 -950.021423
v -590.950928 39.918957 -957.428528
v -590.950928 41.989357 -957.428528
v -588.231323 41.989357 -950.021423
v -592.784485 39.918957 -964.072876
v -592.784485 41.989357 -964.072876
v -598.895325 39.918957 -962.148926
v -598.895325 41.989357 -962.148926
v -593.911987 39.918953 -947.245117
v -593.911987 41.989353 -947.245117
v -591.029785 39.918953 -948.109924
v -591.029785 41.989353 -948.109924
v -591.341614 39.918957 -949.042175
v -591.341614 41.989357 -949.042175
v 11.799500 32.213078 -463.128113
v 10.876900 32.213078 -468.976501
v 10.876900 33.955276 -468.976501
v 11.799500 33.955276 -463.128113
v -5.141100 32.213078 -466.497803
v -5.141100 33.955276 -466.497803
v -3.961900 32.213078 -458.972900
v -3.961900 33.955276 -458.972900
v 10.317000 32.213078 -461.209015
v 10.317000 33.955276 -461.209015
v 10.058400 32.213078 -462.858612
v 10.058400 33.955276 -462.858612
v -55.783401 41.160042 -869.296997
v -60.373798 41.160042 -868.577515
v -60.373798 42.453743 -868.577515
v -55.783401 42.453743 -869.296997
v -61.799900 41.160042 -877.685608
v -61.799900 42.453743 -877.685608
v -65.134804 41.160042 -877.163391
v -65.134804 42.453743 -877.163391
v -62.861698 41.160042 -862.646729
v -62.861698 42.453743 -862.646729
v -54.936699 41.160042 -863.888794
v -54.936699 42.453743 -863.888794
v -117.680000 30.044195 -585.904114
v -103.938797 30.044195 -585.760925
v -103.938797 32.005596 -585.760925
v -117.680000 32.005596 -585.904114
v -103.924103 30.044195 -587.088501
v -103.924103 32.005596 -587.088501
v -113.721901 30.044195 -587.190613
v -113.721901 32.005596 -587.190613
v -113.703697 30.044195 -587.405090
v -113.703697 32.005596 -587.405090
v -117.548798 30.044195 -587.445496
v -117.548798 32.005596 -587.445496
v 1193.115356 97.005394 -571.933228
v 1190.329468 97.005394 -571.096680
v 1190.329468 98.323090 -571.096680
v 1193.115356 98.323090 -571.933228
v 1191.454224 97.005394 -567.344177
v 1191.454224 98.323090 -567.344177
v 1200.741455 97.005394 -570.132812
v 1200.741455 98.323090 -570.132812
v 1197.467773 97.005394 -581.051270
v 1197.467773 98.323090 -581.051270
v 1190.824463 97.005394 -579.574097
v 1190.824463 98.323090 -579.574097
v -362.870087 3.784011 543.751892
v -364.576904 3.784013 532.646423
v -364.576904 5.876213 532.646423
v -362.870087 5.876211 543.751892
v -381.491089 3.784014 531.890991
v -381.491089 5.876213 531.890991
v -379.785889 3.784012 542.985779
v -379.785889 5.876211 542.985779
v -847.372009 12.040295 643.680176
v -848.285706 12.040294 650.541321
v -848.285706 14.018294 650.541321
v -847.372009 14.018295 643.680176
v -838.469604 12.040294 651.849182
v -838.469604 14.018294 651.849182
v -838.233276 12.040294 650.073975
v -838.233276 14.018294 650.073975
v -839.041809 12.040294 649.966187
v -839.041809 14.018294 649.966187
v -838.567688 12.040295 646.406189
v -838.567688 14.018295 646.406189
v -837.759216 12.040295 646.513916
v -837.759216 14.018295 646.513916
v -837.556030 12.040295 644.988220
v -837.556030 14.018295 644.988220
vt 0.1667 0.0000
vt 2.0000 0.0000
vt 2.0000 1.0000
vt 0.1667 1.0000
vt 0.1667 0.0000
vt 1.5000 0.0000
vt 1.5000 1.0000
vt 0.1667 1.0000
vt 0.6667 0.0000
vt 1.5000 0.0000
vt 1.5000 1.0000
vt 0.6667 1.0000
vt 0.8333 -0.0000
vt 1.0000 0.0000
vt 1.0000 1.0000
vt 0.8333 1.0000
vt 0.3333 0.0000
vt 0.5000 0.0000
vt 0.5000 1.0000
vt 0.3333 1.0000
vt 0.1667 0.0000
vt 0.3333 0.0000
vt 0.3333 1.0000
vt 0.1667 1.0000
vt 0.5000 0.0000
vt 1.3333 0.0000
vt 1.3333 1.0000
vt 0.5000 1.0000
vt 0.6667 0.0000
vt 2.0000 0.0000
vt 2.0000 1.0000
vt 0.6667 1.0000
vt 0.8333 -0.0000
vt 3.1667 0.0000
vt 3.1667 1.0000
vt 0.8333 1.0000
vt 0.1667 0.0000
vt 1.6667 0.0000
vt 1.6667 1.0000
vt 0.1667 1.0000
vt 0.0000 0.0000
vt 2.3333 0.0000
vt 2.3333 1.0000
vt 0.0000 1.0000
vt 0.1667 0.0000
vt 1.6667 0.0000
vt 1.6667 1.0000
vt 0.1667 1.0000
vt 0.3333 0.0000
vt 0.6667 0.0000
vt 0.6667 1.0000
vt 0.3333 1.0000
vt 0.3333 0.0000
vt 0.5000 0.0000
vt 0.5000 1.0000
vt 0.3333 1.0000
vt 0.3333 0.0000
vt 1.1667 0.0000
vt 1.1667 1.0000
vt 0.3333 1.0000
vt 0.0000 0.0000
vt 0.1667 0.0000
vt 0.1667 1.0000
vt 0.0000 1.0000
vt 0.5000 0.0000
vt 0.8333 -0.0000
vt 0.8333 1.0000
vt 0.5000 1.0000
vt 0.6667 0.0000
vt 1.1667 0.0000
vt 1.1667 1.0000
vt 0.6667 1.0000
vt 0.3333 0.0000
vt 1.8333 0.0000
vt 1.8333 1.0000
vt 0.3333 1.0000
vt 0.3333 0.0000
vt 0.8333 -0.0000
vt 0.8333 1.0000
vt 0.3333 1.0000
vt 0.5000 0.0000
vt 1.6667 0.0000
vt 1.6667 1.0000
vt 0.5000 1.0000
vt 0.5000 0.0000
vt 0.8333 -0.0000
vt 0.8333 1.0000
vt 0.5000 1.0000
vt 0.1667 0.0000
vt 0.3333 0.0000
vt 0.3333 1.0000
vt 0.1667 1.0000
vt 0.1667 0.0000
vt 0.6667 0.0000
vt 0.6667 1.0000
vt 0.1667 1.0000
vt 0.3333 0.0000
vt 1.5000 0.0000
vt 1.5000 1.0000
vt 0.3333 1.0000
vt 0.5000 0.0000
vt 1.5000 0.0000
vt 1.5000 1.0000
vt 0.5000 1.0000
vt 0.1667 0.0000
vt 3.3333 0.0000
vt 3.3333 1.0000
vt 0.1667 1.0000
vt 0.1667 0.0000
vt 2.8333 0.0000
vt 2.8333 1.0000
vt 0.1667 1.0000
vt 0.3333 0.0000
vt 3.5000 -0.0000
vt 3.5000 1.0000
vt 0.3333 1.0000
vt 0.6667 0.0000
vt 3.5000 -0.0000
vt 3.5000 1.0000
vt 0.6667 1.0000
vt 0.8333 -0.0000
vt 1.8333 0.0000
vt 1.8333 1.0000
vt 0.8333 1.0000
vt 0.3333 0.0000
vt 0.8333 -0.0000
vt 0.8333 1.0000
vt 0.3333 1.0000
vt 0.1667 0.0000
vt 0.5000 0.0000
vt 0.5000 1.0000
vt 0.1667 1.0000
vt 0.3333 0.0000
vt 1.5000 0.0000
vt 1.5000 1.0000
vt 0.3333 1.0000
vt 0.1667 0.0000
vt 0.8333 -0.0000
vt 0.8333 1.0000
vt 0.1667 1.0000
vt 2.5000 0.0000
vt 2.5000 1.0000
vt 0.1667 0.0000
vt 0.8333 -0.0000
vt 0.8333 1.0000
vt 0.1667 1.0000
vt 0.6667 0.0000
vt 1.3333 0.0000
vt 1.3333 1.0000
vt 0.6667 1.0000
vt 0.5000 0.0000
vt 0.8333 -0.0000
vt 0.8333 1.0000
vt 0.5000 1.0000
vt 1.5000 0.0000
vt 1.5000 1.0000
vt 0.0000 0.0000
vt 0.8333 -0.0000
vt 0.8333 1.0000
vt 0.0000 1.0000
vt 0.1667 0.0000
vt 0.8333 -0.0000
vt 0.8333 1.0000
vt 0.1667 1.0000
vt 0.1667 0.0000
vt 0.8333 -0.0000
vt 0.8333 1.0000
vt 0.1667 1.0000
vt 0.6667 0.0000
vt 2.1667 0.0000
vt 2.1667 1.0000
vt 0.6667 1.0000
vt 0.3333 0.0000
vt 2.1667 0.0000
vt 2.1667 1.0000
vt 0.3333 1.0000
vt 0.5000 0.0000
vt 0.6667 0.0000
vt 0.6667 1.0000
vt 0.5000 1.0000
vt 0.1667 0.0000
vt 0.5000 0.0000
vt 0.5000 1.0000
vt 0.1667 1.0000
vt 0.6667 0.0000
vt 0.8333 -0.0000
vt 0.8333 1.0000
vt 0.6667 1.0000
vt 0.1667 0.0000
vt 3.1667 0.0000
vt 3.1667 1.0000
vt 0.1667 1.0000
vt 0.5000 0.0000
vt 1.1667 0.0000
vt 1.1667 1.0000
vt 0.5000 1.0000
vt 0.5000 0.0000
vt 3.5000 -0.0000
vt 3.5000 1.0000
vt 0.5000 1.0000
vt 0.0000 0.0000
vt 0.3333 0.0000
vt 0.3333 1.0000
vt 0.0000 1.0000
vt 0.6667 0.0000
vt 1.0000 0.0000
vt 1.0000 1.0000
vt 0.6667 1.0000
vt 0.5000 0.0000
vt 0.6667 0.0000
vt 0.6667 1.0000
vt 0.5000 1.0000
vt 0.3333 0.0000
vt 1.8333 0.0000
vt 1.8333 1.0000
vt 0.3333 1.0000
vt 0.3333 0.0000
vt 1.5000 0.0000
vt 1.5000 1.0000
vt 0.3333 1.0000
vt 0.5000 0.0000
vt 1.6667 0.0000
vt 1.6667 1.0000
vt 0.5000 1.0000
vt 0.6667 0.0000
vt 3.5000 -0.0000
vt 3.5000 1.0000
vt 0.6667 1.0000
vt 0.1667 0.0000
vt 0.6667 0.0000
vt 0.6667 1.0000
vt 0.1667 1.0000
vt 0.5000 0.0000
vt 0.6667 0.0000
vt 0.6667 1.0000
vt 0.5000 1.0000
vt 1.3333 0.0000
vt 1.3333 1.0000
vt 0.1667 0.0000
vt 0.8333 -0.0000
vt 0.8333 1.0000
vt 0.1667 1.0000
vt 0.3333 0.0000
vt 2.3333 0.0000
vt 2.3333 1.0000
vt 0.3333 1.0000
vt 0.1667 0.0000
vt 1.1667 0.0000
vt 1.1667 1.0000
vt 0.1667 1.0000
vt 0.6667 0.0000
vt 2.5000 0.0000
vt 2.5000 1.0000
vt 0.6667 1.0000
vt 0.5000 0.0000
vt 0.6667 0.0000
vt 0.6667 1.0000
vt 0.5000 1.0000
vt 0.1667 0.0000
vt 0.3333 0.0000
vt 0.3333 1.0000
vt 0.1667 1.0000
vt 0.3333 0.0000
vt 1.0000 0.0000
vt 1.0000 1.0000
vt 0.3333 1.0000
vt 0.3333 0.0000
vt 1.5000 0.0000
vt 1.5000 1.0000
vt 0.3333 1.0000
vt 0.5000 0.0000
vt 1.0000 0.0000
vt 1.0000 1.0000
vt 0.5000 1.0000
vt 0.1667 0.0000
vt 2.0000 0.0000
vt 2.0000 1.0000
vt 0.1667 1.0000
vt 0.1667 0.0000
vt 1.1667 0.0000
vt 1.1667 1.0000
vt 0.1667 1.0000
vt 0.3333 0.0000
vt 1.0000 0.0000
vt 1.0000 1.0000
vt 0.3333 1.0000
vt 0.1667 0.0000
vt 1.8333 0.0000
vt 1.8333 1.0000
vt 0.1667 1.0000
vt 0.8333 -0.0000
vt 1.0000 0.0000
vt 1.0000 1.0000
vt 0.8333 1.0000
vt 0.1667 0.0000
vt 1.3333 0.0000
vt 1.3333 1.0000
vt 0.1667 1.0000
vt 0.1667 0.0000
vt 0.2000 0.0000
vt 0.2000 1.0000
vt 0.1667 1.0000
vt 0.5000 0.0000
vt 1.0000 0.0000
vt 1.0000 1.0000
vt 0.5000 1.0000
vt 0.1667 0.0000
vt 0.3333 0.0000
vt 0.3333 1.0000
vt 0.1667 1.0000
vt 0.6667 0.0000
vt 1.0000 0.0000
vt 1.0000 1.0000
vt 0.6667 1.0000
vt 0.6667 0.0000
vt 1.1667 0.0000
vt 1.1667 1.0000
vt 0.6667 1.0000
vt 0.6667 0.0000
vt 1.8333 0.0000
vt 1.8333 1.0000
vt 0.6667 1.0000
vt 0.5000 0.0000
vt 2.0000 0.0000
vt 2.0000 1.0000
vt 0.5000 1.0000
vt 0.5000 0.0000
vt 1.3333 0.0000
vt 1.3333 1.0000
vt 0.5000 1.0000
vt 0.8333 -0.0000
vt 1.8333 0.0000
vt 1.8333 1.0000
vt 0.8333 1.0000
vt 0.5000 0.0000
vt 1.6667 0.0000
vt 1.6667 1.0000
vt 0.5000 1.0000
vt 0.8333 -0.0000
vt 2.6667 0.0000
vt 2.6667 1.0000
vt 0.8333 1.0000
vt 0.3333 0.0000
vt 1.5000 0.0000
vt 1.5000 1.0000
vt 0.3333 1.0000
vt 0.6667 0.0000
vt 2.5000 0.0000
vt 2.5000 1.0000
vt 0.6667 1.0000
vt 0.0000 0.0000
vt 1.0000 0.0000
vt 1.0000 1.0000
vt 0.0000 1.0000
vt 0.0000 0.0000
vt 1.5000 0.0000
vt 1.5000 1.0000
vt 0.0000 1.0000
vt 0.1667 0.0000
vt 0.5000 0.0000
vt 0.5000 1.0000
vt 0.1667 1.0000
vt 0.8333 -0.0000
vt 1.0000 0.0000
vt 1.0000 1.0000
vt 0.8333 1.0000
vt 0.6667 0.0000
vt 1.1667 0.0000
vt 1.1667 1.0000
vt 0.6667 1.0000
vt 0.3333 0.0000
vt 0.5000 0.0000
vt 0.5000 1.0000
vt 0.3333 1.0000
vt 0.6667 0.0000
vt 0.8333 -0.0000
vt 0.8333 1.0000
vt 0.6667 1.0000
vt 2.3333 0.0000
vt 2.3333 1.0000
vn 0.1366 0.0000 0.9906
vn 0.9994 0.0000 -0.0341
vn -0.1366 0.0000 -0.9906
vn -0.9994 0.0000 0.0342
vn -0.9994 0.0000 0.0341
vn -0.1555 0.0000 -0.9878
vn -0.9879 0.0000 0.1551
vn 0.1549 0.0000 0.9879
vn 0.9880 0.0000 -0.1547
vn 0.9787 0.0000 -0.2053
vn -0.2052 0.0000 -0.9787
vn 0.9787 0.0000 -0.2051
vn 0.2094 0.0000 0.9778
vn -0.2094 0.0000 -0.9778
vn -0.9787 0.0000 0.2051
vn 0.2051 0.0000 0.9787
vn 0.9999 0.0000 -0.0105
vn -0.0091 0.0000 -1.0000
vn -0.9999 0.0000 0.0105
vn -1.0000 0.0000 0.0092
vn 0.0091 0.0000 1.0000
vn -0.4715 0.0000 -0.8819
vn -0.8815 0.0000 0.4723
vn 0.4405 0.0000 0.8977
vn 0.8816 0.0000 -0.4719
vn -0.9878 0.0000 0.1555
vn 0.9878 0.0000 -0.1556
vn 0.1548 0.0000 0.9880
vn 0.9878 0.0000 -0.1557
vn -0.1548 0.0000 -0.9880
vn -0.9905 0.0000 0.1377
vn -0.9871 0.0000 0.1603
vn 0.1320 0.0000 0.9913
vn 0.9871 0.0000 -0.1603
vn 0.1321 0.0000 0.9912
vn -0.9893 0.0000 0.1460
vn 0.9893 0.0000 -0.1460
vn -0.1321 0.0000 -0.9912
vn -0.9961 0.0000 0.0887
vn 0.9955 0.0000 -0.0948
vn -0.0946 0.0000 -0.9955
vn -0.9955 0.0000 0.0947
vn 0.0947 0.0000 0.9955
vn 0.9955 0.0000 -0.0951
vn -0.0948 0.0000 -0.9955
vn -0.9955 0.0000 0.0952
vn -0.0947 0.0000 -0.9955
vn 0.9387 0.0000 -0.3447
vn 0.9640 0.0000 -0.2660
vn -0.3003 0.0000 -0.9538
vn -0.9484 0.0000 0.3171
vn 0.2874 0.0000 0.9578
vn 0.9484 0.0000 -0.3172
vn 0.3003 0.0000 0.9538
vn 0.9878 0.0000 -0.1558
vn -0.1529 0.0000 -0.9882
vn -0.9879 0.0000 0.1548
vn 0.1547 0.0000 0.9880
vn 0.9879 0.0000 -0.1549
vn 0.1530 0.0000 0.9882
vn -0.1548 0.0000 -0.9879
vn -0.1547 0.0000 -0.9880
vn -0.9880 0.0000 0.1547
vn 0.1548 0.0000 0.9879
vn -0.0104 0.0000 0.9999
vn 0.9999 0.0000 0.0111
vn 0.0104 0.0000 -0.9999
vn 0.9964 0.0000 0.0846
vn 0.0105 0.0000 -0.9999
vn -0.9964 0.0000 -0.0848
vn -0.2876 0.0000 -0.9578
vn -0.9579 0.0000 0.2871
vn 0.2876 0.0000 0.9578
vn 0.9579 0.0000 -0.2872
vn -0.2170 0.0000 -0.9762
vn -0.9579 0.0000 0.2872
vn 0.9884 0.0000 -0.1519
vn 0.0446 0.0000 -0.9990
vn -0.9884 0.0000 0.1519
vn -0.0452 0.0000 0.9990
vn -0.9912 0.0000 -0.1320
vn -0.1321 0.0000 0.9912
vn 0.9913 0.0000 0.1320
vn 0.1321 0.0000 -0.9912
vn 0.9912 0.0000 0.1320
g CityEngineMaterial_243_CityEngineMaterial_243_CityEngineMaterial_243_mat
usemtl CityEngineMaterial_243_mat
s 1
f 1/1/1 2/2/1 3/3/1 4/4/1
f 2/5/2 5/6/2 6/7/2 3/8/2
f 5/9/3 7/10/3 8/11/3 6/12/3
f 7/13/4 9/14/4 10/15/4 8/16/4
f 9/17/3 11/18/3 12/19/3 10/20/3
f 11/21/2 13/22/2 14/23/2 12/24/2
f 13/25/3 15/26/3 16/27/3 14/28/3
f 15/29/5 1/30/5 4/31/5 16/32/5
f 17/33/6 18/34/6 19/35/6 20/36/6
f 18/37/7 21/38/7 22/39/7 19/40/7
f 21/41/8 23/42/8 24/43/8 22/44/8
f 23/45/9 17/46/9 20/47/9 24/48/9
f 25/49/10 26/50/10 27/51/10 28/52/10
f 26/53/11 29/54/11 30/55/11 27/56/11
f 29/57/12 31/58/12 32/59/12 30/60/12
f 31/61/13 33/62/13 34/63/13 32/64/13
f 33/65/10 35/66/10 36/67/10 34/68/10
f 35/69/14 37/70/14 38/71/14 36/72/14
f 37/73/15 39/74/15 40/75/15 38/76/15
f 39/77/16 25/78/16 28/79/16 40/80/16
f 41/81/17 42/82/17 43/83/17 44/84/17
f 42/85/18 45/86/18 46/87/18 43/88/18
f 45/89/19 47/90/19 48/91/19 46/92/19
f 47/93/18 49/94/18 50/95/18 48/96/18
f 49/97/20 51/98/20 52/99/20 50/100/20
f 51/101/21 41/102/21 44/103/21 52/104/21
f 53/105/22 54/106/22 55/107/22 56/108/22
f 54/109/23 57/110/23 58/111/23 55/112/23
f 57/113/24 59/114/24 60/115/24 58/116/24
f 59/117/25 53/118/25 56/119/25 60/120/25
f 61/121/26 62/122/26 63/123/26 64/124/26
f 62/125/8 65/126/8 66/127/8 63/128/8
f 65/129/27 67/130/27 68/131/27 66/132/27
f 67/133/28 69/134/28 70/135/28 68/136/28
f 69/137/29 71/138/29 72/139/29 70/140/29
f 71/138/30 61/141/30 64/142/30 72/139/30
f 73/143/31 74/144/31 75/145/31 76/146/31
f 74/147/32 77/148/32 78/149/32 75/150/32
f 77/151/33 79/152/33 80/153/33 78/154/33
f 79/152/34 81/155/34 82/156/34 80/153/34
f 81/157/35 83/158/35 84/159/35 82/160/35
f 83/161/36 85/162/36 86/163/36 84/164/36
f 85/165/33 87/166/33 88/167/33 86/168/33
f 87/169/37 89/170/37 90/171/37 88/172/37
f 89/173/38 91/174/38 92/175/38 90/176/38
f 91/177/39 73/178/39 76/179/39 92/180/39
f 93/181/40 94/182/40 95/183/40 96/184/40
f 94/185/41 97/186/41 98/187/41 95/188/41
f 97/189/42 99/190/42 100/191/42 98/192/42
f 99/193/43 101/194/43 102/195/43 100/196/43
f 101/197/44 103/198/44 104/199/44 102/200/44
f 103/201/45 105/202/45 106/203/45 104/204/45
f 105/205/46 107/206/46 108/207/46 106/208/46
f 107/209/47 93/210/47 96/211/47 108/212/47
f 109/213/48 110/214/48 111/215/48 112/216/48
f 110/217/49 113/218/49 114/219/49 111/220/49
f 113/221/50 115/222/50 116/223/50 114/224/50
f 115/225/51 117/226/51 118/227/51 116/228/51
f 117/229/52 119/230/52 120/231/52 118/232/52
f 119/233/53 121/234/53 122/235/53 120/236/53
f 121/234/54 109/237/54 112/238/54 122/235/54
f 123/239/55 124/240/55 125/241/55 126/242/55
f 124/243/56 127/244/56 128/245/56 125/246/56
f 127/247/57 129/248/57 130/249/57 128/250/57
f 129/251/58 131/252/58 132/253/58 130/254/58
f 131/255/59 133/256/59 134/257/59 132/258/59
f 133/259/60 123/260/60 126/261/60 134/262/60
f 135/263/61 136/264/61 137/265/61 138/266/61
f 136/267/9 139/268/9 140/269/9 137/270/9
f 139/271/62 141/272/62 142/273/62 140/274/62
f 141/275/63 143/276/63 144/277/63 142/278/63
f 143/279/64 145/280/64 146/281/64 144/282/64
f 145/283/9 135/284/9 138/285/9 146/286/9
f 147/287/65 148/288/65 149/289/65 150/290/65
f 148/291/66 151/292/66 152/293/66 149/294/66
f 151/295/67 153/296/67 154/297/67 152/298/67
f 153/299/68 155/300/68 156/301/68 154/302/68
f 155/303/69 157/304/69 158/305/69 156/306/69
f 157/307/70 147/308/70 150/309/70 158/310/70
f 159/311/71 160/312/71 161/313/71 162/314/71
f 160/315/72 163/316/72 164/317/72 161/318/72
f 163/319/73 165/320/73 166/321/73 164/322/73
f 165/323/74 167/324/74 168/325/74 166/326/74
f 167/327/75 169/328/75 170/329/75 168/330/75
f 169/331/76 159/332/76 162/333/76 170/334/76
f 171/335/77 172/336/77 173/337/77 174/338/77
f 172/339/78 175/340/78 176/341/78 173/342/78
f 175/343/79 177/344/79 178/345/79 176/346/79
f 177/347/80 171/348/80 174/349/80 178/350/80
f 179/351/81 180/352/81 181/353/81 182/354/81
f 180/355/82 183/356/82 184/357/82 181/358/82
f 183/359/83 185/360/83 186/361/83 184/362/83
f 185/363/84 187/364/84 188/365/84 186/366/84
f 187/367/85 189/368/85 190/369/85 188/370/85
f 189/371/82 191/372/82 192/373/82 190/374/82
f 191/375/85 193/376/85 194/377/85 192/378/85
f 193/376/84 179/379/84 182/380/84 194/377/84
