# Blender v2.78 (sub 0) OBJ File: ''
# www.blender.org
mtllib CityEngineMaterial_803.mtl
o CityEngineMaterial_803
v -1201.816162 11.762842 357.319397
v -1203.741943 11.762842 356.935791
v -1203.741943 13.437542 356.935791
v -1201.816162 13.437542 357.319397
v -1202.974121 11.762843 353.115509
v -1202.974121 13.437543 353.115509
v -1201.048950 11.762843 353.502686
v -1201.048950 13.437543 353.502686
v -1200.027832 11.762843 348.421387
v -1200.027832 13.437543 348.421387
v -1216.000244 11.762844 345.207886
v -1216.000244 13.437544 345.207886
v -1218.309326 11.762842 356.698486
v -1218.309326 13.437542 356.698486
v -1202.330811 11.762842 359.881012
v -1202.330811 13.437542 359.881012
v 691.636780 85.513741 -239.599182
v 691.873474 85.513741 -238.056290
v 691.873474 87.155037 -238.056290
v 691.636780 87.155037 -239.599182
v 694.879517 85.513741 -238.511078
v 694.879517 87.155037 -238.511078
v 692.755615 85.513741 -252.356781
v 692.755615 87.155037 -252.356781
v 684.335022 85.513741 -251.065079
v 684.335022 87.155037 -251.065079
v 686.801514 85.513741 -237.288788
v 686.801514 87.155037 -237.288788
v 689.415771 85.513741 -237.684387
v 689.415771 87.155037 -237.684387
v 689.141418 85.513741 -239.216492
v 689.141418 87.155037 -239.216492
v -256.518585 1.316681 117.837502
v -256.189514 1.316681 114.418297
v -256.189514 3.239081 114.418297
v -256.518585 3.239081 117.837502
v -253.547699 1.316681 114.672600
v -253.547699 3.239081 114.672600
v -252.773804 1.316683 106.632202
v -252.773804 3.239083 106.632202
v -262.371094 1.316683 105.708397
v -262.371094 3.239083 105.708397
v -263.473999 1.316681 117.168098
v -263.473999 3.239081 117.168098
v -1084.962158 9.367450 307.705109
v -1084.096191 9.367450 307.817505
v -1084.096191 11.003849 307.817505
v -1084.962158 11.003849 307.705109
v -1084.432983 9.367450 310.386993
v -1084.432983 11.003849 310.386993
v -1085.298706 9.367450 310.273285
v -1085.298706 11.003849 310.273285
v -1085.713135 9.367449 313.435303
v -1085.713135 11.003848 313.435303
v -1070.581055 9.367449 315.421906
v -1070.581055 11.003848 315.421906
v -1069.553101 9.367450 307.577789
v -1069.553101 11.003849 307.577789
v -1084.688232 9.367451 305.614685
v -1084.688232 11.003850 305.614685
v -542.484924 6.863597 629.824280
v -542.587524 6.863596 635.166870
v -542.587524 8.459996 635.166870
v -542.484924 8.459997 629.824280
v -541.506470 6.863596 635.187988
v -541.506470 8.459996 635.187988
v -541.522888 6.863596 636.042786
v -541.522888 8.459996 636.042786
v -532.486023 6.863596 637.437622
v -532.486023 8.459996 637.437622
v -532.343628 6.863597 630.023376
v -532.343628 8.459997 630.023376
v -256.509094 2.020220 -120.851601
v -261.014099 2.020223 -143.129105
v -261.014099 3.885823 -143.129105
v -256.509094 3.885820 -120.851601
v -274.021606 2.020223 -140.500000
v -274.021606 3.885823 -140.500000
v -269.547485 2.020219 -118.226700
v -269.547485 3.885819 -118.226700
v -37.790401 38.478458 -994.372986
v -28.108900 38.478458 -994.934387
v -28.108900 40.106861 -994.934387
v -37.790401 40.106861 -994.372986
v -28.211399 38.478462 -996.704102
v -28.211399 40.106865 -996.704102
v -30.122200 38.478462 -996.593323
v -30.122200 40.106865 -996.593323
v -30.365200 38.478462 -1000.788513
v -30.365200 40.106865 -1000.788513
v -28.454399 38.478462 -1000.899414
v -28.454399 40.106865 -1000.899414
v -28.563801 38.478462 -1002.789612
v -28.563801 40.106865 -1002.789612
v -38.245399 38.478462 -1002.228088
v -38.245399 40.106865 -1002.228088
v -66.700600 33.773788 -1157.442871
v -60.389400 33.773788 -1158.282471
v -60.389400 35.767487 -1158.282471
v -66.700600 35.767487 -1157.442871
v -61.161900 33.773792 -1171.620239
v -61.161900 35.767490 -1171.620239
v -62.661201 33.773792 -1171.420776
v -62.661201 35.767490 -1171.420776
v -62.503101 33.773792 -1168.692627
v -62.503101 35.767490 -1168.692627
v -67.315002 33.773792 -1168.052368
v -67.315002 35.767490 -1168.052368
v -299.487305 1.754162 235.559097
v -290.381897 1.754162 233.892502
v -290.381897 3.656762 233.892502
v -299.487305 3.656762 235.559097
v -292.515411 1.754165 215.791397
v -292.515411 3.656765 215.791397
v -309.019989 1.754164 217.736099
v -309.019989 3.656765 217.736099
v -306.851013 1.754161 236.154099
v -306.851013 3.656762 236.154099
v -137.378296 3.476613 -80.353302
v -136.213593 3.476612 -76.148903
v -136.213593 5.398012 -76.148903
v -137.378296 5.398013 -80.353302
v -127.251900 3.476612 -76.244797
v -127.251900 5.398012 -76.244797
v -128.502594 3.476613 -80.765297
v -128.502594 5.398013 -80.765297
v -130.175797 3.476613 -80.747299
v -130.175797 5.398013 -80.747299
v -130.586899 3.476613 -82.231400
v -130.586899 5.398013 -82.231400
v -178.090393 1.981359 865.684570
v -179.248596 1.981359 864.642822
v -179.248596 4.076159 864.642822
v -178.090393 4.076159 865.684570
v -187.834198 1.981358 874.190002
v -187.834198 4.076158 874.190002
v -183.148300 1.981357 878.405212
v -183.148300 4.076157 878.405212
v -174.562500 1.981359 868.858093
v -174.562500 4.076159 868.858093
v -176.266403 1.981359 867.325378
v -176.266403 4.076159 867.325378
v -177.484406 1.981359 868.679688
v -177.484406 4.076159 868.679688
v -179.308395 1.981359 867.039001
v -179.308395 4.076159 867.039001
v -350.428589 1.313922 -136.771500
v -349.841309 1.313921 -128.804306
v -349.841309 3.287921 -128.804306
v -350.428589 3.287922 -136.771500
v -345.391907 1.313921 -129.326706
v -345.391907 3.287921 -129.326706
v -345.459686 1.313921 -130.247498
v -345.459686 3.287921 -130.247498
v -342.064911 1.313921 -130.645996
v -342.064911 3.287921 -130.645996
v -341.957397 1.313921 -129.729904
v -341.957397 3.287921 -129.729904
v -338.525085 1.313921 -130.132904
v -338.525085 3.287921 -130.132904
v -339.455994 1.313923 -138.059692
v -339.455994 3.287922 -138.059692
v -243.373093 1.313886 88.598999
v -246.984207 1.313886 88.332298
v -246.984207 2.980086 88.332298
v -243.373093 2.980085 88.598999
v -247.108597 1.313885 90.017502
v -247.108597 2.980085 90.017502
v -250.058197 1.313885 89.799797
v -250.058197 2.980085 89.799797
v -250.597702 1.313884 97.109497
v -250.597702 2.980084 97.109497
v -244.036896 1.313884 97.593697
v -244.036896 2.980084 97.593697
v -582.813782 7.776397 634.586121
v -582.194885 7.776398 628.932373
v -582.194885 9.691998 628.932373
v -582.813782 9.691997 634.586121
v -581.628418 7.776398 628.994629
v -581.628418 9.691998 628.994629
v -581.282776 7.776398 625.835815
v -581.282776 9.691998 625.835815
v -586.221985 7.776398 625.294006
v -586.221985 9.691998 625.294006
v -587.186707 7.776397 634.106812
v -587.186707 9.691997 634.106812
v -357.958588 4.690551 -314.646515
v -351.053986 4.690549 -301.731415
v -351.053986 6.525449 -301.731415
v -357.958588 6.525452 -314.646515
v -334.245514 4.690550 -310.717987
v -334.245514 6.525451 -310.717987
v -341.159485 4.690553 -323.649200
v -341.159485 6.525453 -323.649200
v -760.591187 11.303689 676.933105
v -757.935608 11.303689 677.627991
v -757.935608 12.757190 677.627991
v -760.591187 12.757190 676.933105
v -756.538330 11.303690 672.400879
v -756.538330 12.757191 672.400879
v -750.553772 11.303690 673.967773
v -750.553772 12.757191 673.967773
v -751.918823 11.303689 679.202515
v -751.918823 12.757190 679.202515
v -749.282227 11.303689 679.892395
v -749.282227 12.757190 679.892395
v -746.922485 11.303690 670.842773
v -746.922485 12.757191 670.842773
v -758.175415 11.303691 667.896423
v -758.175415 12.757192 667.896423
v -656.171997 5.096038 378.715912
v -655.679688 5.096039 374.360901
v -655.679688 7.110139 374.360901
v -656.171997 7.110138 378.715912
v -655.110779 5.096039 374.425293
v -655.110779 7.110139 374.425293
v -654.847412 5.096039 372.094604
v -654.847412 7.110139 372.094604
v -663.860718 5.096039 371.075592
v -663.860718 7.110139 371.075592
v -664.616394 5.096038 377.760803
v -664.616394 7.110138 377.760803
v 446.561615 56.605534 -214.584778
v 447.924713 56.605534 -204.149490
v 447.924713 58.866833 -204.149490
v 446.561615 58.866833 -214.584778
v 448.692505 56.605534 -199.144485
v 448.692505 58.866833 -199.144485
v 470.241791 56.605534 -202.301987
v 470.241791 58.866833 -202.301987
v 467.840393 56.605534 -217.848785
v 467.840393 58.866833 -217.848785
v 119.112198 41.655144 -883.395996
v 117.742104 41.655144 -893.634277
v 117.742104 43.072845 -893.634277
v 119.112198 43.072845 -883.395996
v 114.496300 41.655144 -893.202209
v 114.496300 43.072845 -893.202209
v 115.044701 41.655144 -889.104370
v 115.044701 43.072845 -889.104370
v 107.365799 41.655144 -888.082886
v 107.365799 43.072845 -888.082886
v 106.818497 41.655144 -892.180298
v 106.818497 43.072845 -892.180298
v 102.091698 41.655144 -891.551086
v 102.091698 43.072845 -891.551086
v 103.459297 41.655144 -881.313782
v 103.459297 43.072845 -881.313782
vt 0.6667 0.0000
vt 1.0000 0.0000
vt 1.0000 1.0000
vt 0.6667 1.0000
vt 0.5000 0.0000
vt 1.0000 0.0000
vt 1.0000 1.0000
vt 0.5000 1.0000
vt 0.6667 0.0000
vt 1.0000 0.0000
vt 1.0000 1.0000
vt 0.6667 1.0000
vt 0.8333 0.0000
vt 1.5000 0.0000
vt 1.5000 1.0000
vt 0.8333 1.0000
vt 0.3333 0.0000
vt 2.5000 0.0000
vt 2.5000 1.0000
vt 0.3333 1.0000
vt 0.3333 0.0000
vt 2.0000 0.0000
vt 2.0000 1.0000
vt 0.3333 1.0000
vt 0.3333 0.0000
vt 2.5000 0.0000
vt 2.5000 1.0000
vt 0.3333 1.0000
vt 0.6667 0.0000
vt 1.0000 0.0000
vt 1.0000 1.0000
vt 0.6667 1.0000
vt 0.8333 0.0000
vt 1.0000 0.0000
vt 1.0000 1.0000
vt 0.8333 1.0000
vt 0.5000 0.0000
vt 0.8333 0.0000
vt 0.8333 1.0000
vt 0.5000 1.0000
vt 0.1667 0.0000
vt 1.8333 -0.0000
vt 1.8333 1.0000
vt 0.1667 1.0000
vt 0.3333 0.0000
vt 1.3333 0.0000
vt 1.3333 1.0000
vt 0.3333 1.0000
vt -0.0000 -0.0000
vt 1.6667 0.0000
vt 1.6667 1.0000
vt 0.0000 1.0000
vt 0.1667 0.0000
vt 0.5000 0.0000
vt 0.5000 1.0000
vt 0.1667 1.0000
vt 0.6667 0.0000
vt 0.6667 1.0000
vt 0.8333 0.0000
vt 1.1667 -0.0000
vt 1.1667 1.0000
vt 0.8333 1.0000
vt 0.3333 0.0000
vt 0.8333 0.0000
vt 0.8333 1.0000
vt 0.3333 1.0000
vt 0.1667 0.0000
vt 0.6667 0.0000
vt 0.6667 1.0000
vt 0.1667 1.0000
vt 0.3333 0.0000
vt 1.6667 0.0000
vt 1.6667 1.0000
vt 0.3333 1.0000
vt 0.1667 0.0000
vt 1.8333 -0.0000
vt 1.8333 1.0000
vt 0.1667 1.0000
vt 0.5000 0.0000
vt 2.5000 0.0000
vt 2.5000 1.0000
vt 0.5000 1.0000
vt 0.3333 0.0000
vt 1.5000 0.0000
vt 1.5000 1.0000
vt 0.3333 1.0000
vt 0.6667 0.0000
vt 0.8333 0.0000
vt 0.8333 1.0000
vt 0.6667 1.0000
vt 0.5000 0.0000
vt 0.8333 0.0000
vt 0.8333 1.0000
vt 0.5000 1.0000
vt 0.5000 0.0000
vt 0.6667 0.0000
vt 0.6667 1.0000
vt 0.5000 1.0000
vt 0.5000 0.0000
vt 0.8333 0.0000
vt 0.8333 1.0000
vt 0.5000 1.0000
vt 0.1667 0.0000
vt 2.0000 0.0000
vt 2.0000 1.0000
vt 0.1667 1.0000
vt 0.6667 0.0000
vt 1.6667 0.0000
vt 1.6667 1.0000
vt 0.6667 1.0000
vt 0.3333 0.0000
vt 2.1667 0.0000
vt 2.1667 1.0000
vt 0.3333 1.0000
vt 0.1667 0.0000
vt 0.5000 0.0000
vt 0.5000 1.0000
vt 0.1667 1.0000
vt 0.3333 0.0000
vt 1.0000 0.0000
vt 1.0000 1.0000
vt 0.3333 1.0000
vt 0.5000 0.0000
vt 0.6667 0.0000
vt 0.6667 1.0000
vt 0.5000 1.0000
vt -0.0000 -0.0000
vt 0.1667 0.0000
vt 0.1667 1.0000
vt 0.0000 1.0000
vt 0.3333 0.0000
vt 1.3333 0.0000
vt 1.3333 1.0000
vt 0.3333 1.0000
vt 0.3333 0.0000
vt 1.1667 -0.0000
vt 1.1667 1.0000
vt 0.3333 1.0000
vt 0.5000 0.0000
vt 1.6667 0.0000
vt 1.6667 1.0000
vt 0.5000 1.0000
vt 0.1667 0.0000
vt 4.1667 0.0000
vt 4.1667 1.0000
vt 0.1667 1.0000
vt 0.1667 0.0000
vt 2.5000 0.0000
vt 2.5000 1.0000
vt 0.1667 1.0000
vt 0.3333 0.0000
vt 4.3333 0.0000
vt 4.3333 1.0000
vt 0.3333 1.0000
vt -0.0000 -0.0000
vt 2.3333 0.0000
vt 2.3333 1.0000
vt 0.0000 1.0000
vt 0.5000 0.0000
vt 1.6667 0.0000
vt 1.6667 1.0000
vt 0.5000 1.0000
vt 0.3333 0.0000
vt 0.5000 0.0000
vt 0.5000 1.0000
vt 0.3333 1.0000
vt 0.3333 0.0000
vt 0.5000 0.0000
vt 0.5000 1.0000
vt 0.3333 1.0000
vt 0.3333 0.0000
vt 0.8333 0.0000
vt 0.8333 1.0000
vt 0.3333 1.0000
vt 0.3333 0.0000
vt 0.5000 0.0000
vt 0.5000 1.0000
vt 0.3333 1.0000
vt 0.6667 0.0000
vt 0.6667 1.0000
vt 0.8333 0.0000
vt 2.0000 0.0000
vt 2.0000 1.0000
vt 0.8333 1.0000
vt 0.1667 0.0000
vt 1.1667 -0.0000
vt 1.1667 1.0000
vt 0.1667 1.0000
vt 0.3333 0.0000
vt 1.1667 -0.0000
vt 1.1667 1.0000
vt 0.3333 1.0000
vt -0.0000 -0.0000
vt 1.8333 -0.0000
vt 1.8333 1.0000
vt 0.0000 1.0000
vt 0.3333 0.0000
vt 0.5000 0.0000
vt 0.5000 1.0000
vt 0.3333 1.0000
vt 0.6667 0.0000
vt 1.0000 0.0000
vt 1.0000 1.0000
vt 0.6667 1.0000
vt 0.8333 0.0000
vt 1.5000 0.0000
vt 1.5000 1.0000
vt 0.8333 1.0000
vt 0.5000 0.0000
vt 2.0000 0.0000
vt 2.0000 1.0000
vt 0.5000 1.0000
vt 0.8333 0.0000
vt 1.8333 -0.0000
vt 1.8333 1.0000
vt 0.8333 1.0000
vt 0.1667 0.0000
vt 2.3333 0.0000
vt 2.3333 1.0000
vt 0.1667 1.0000
vt 0.6667 0.0000
vt 2.5000 0.0000
vt 2.5000 1.0000
vt 0.6667 1.0000
vt 0.3333 0.0000
vt 2.5000 0.0000
vt 2.5000 1.0000
vt 0.3333 1.0000
vt 0.1667 0.0000
vt 1.0000 0.0000
vt 1.0000 1.0000
vt 0.1667 1.0000
vt 0.5000 0.0000
vt 1.1667 -0.0000
vt 1.1667 1.0000
vt 0.5000 1.0000
vt 0.3333 0.0000
vt 1.6667 0.0000
vt 1.6667 1.0000
vt 0.3333 1.0000
vt 0.1667 0.0000
vt 0.8333 0.0000
vt 0.8333 1.0000
vt 0.1667 1.0000
vt 0.1667 0.0000
vt 0.3333 0.0000
vt 0.3333 1.0000
vt 0.1667 1.0000
vt 0.8333 0.0000
vt 1.0000 0.0000
vt 1.0000 1.0000
vt 0.8333 1.0000
vt 0.8333 0.0000
vt 1.8333 -0.0000
vt 1.8333 1.0000
vt 0.8333 1.0000
vt 0.6667 0.0000
vt 0.8333 0.0000
vt 0.8333 1.0000
vt 0.6667 1.0000
vt 0.3333 0.0000
vt 2.3333 0.0000
vt 2.3333 1.0000
vt 0.3333 1.0000
vt 0.8333 0.0000
vt 1.8333 -0.0000
vt 1.8333 1.0000
vt 0.8333 1.0000
vt 0.1667 0.0000
vt 2.1667 0.0000
vt 2.1667 1.0000
vt 0.1667 1.0000
vt 0.6667 0.0000
vt 1.0000 0.0000
vt 1.0000 1.0000
vt 0.6667 1.0000
vt 0.6667 0.0000
vt 1.0000 0.0000
vt 1.0000 1.0000
vt 0.6667 1.0000
vt 0.6667 0.0000
vt 1.0000 0.0000
vt 1.0000 1.0000
vt 0.6667 1.0000
vt 0.6667 0.0000
vt 1.0000 0.0000
vt 1.0000 1.0000
vt 0.6667 1.0000
vt 0.3333 0.0000
vt 1.3333 0.0000
vt 1.3333 1.0000
vt 0.3333 1.0000
vt 0.5000 0.0000
vt 1.0000 0.0000
vt 1.0000 1.0000
vt 0.5000 1.0000
vt 0.5000 0.0000
vt 0.6667 0.0000
vt 0.6667 1.0000
vt 0.5000 1.0000
vt 0.8333 0.0000
vt 1.3333 0.0000
vt 1.3333 1.0000
vt 0.8333 1.0000
vt 0.3333 0.0000
vt 0.5000 0.0000
vt 0.5000 1.0000
vt 0.3333 1.0000
vt 1.0000 0.0000
vt 1.0000 1.0000
vt 0.8333 0.0000
vt 1.8333 -0.0000
vt 1.8333 1.0000
vt 0.8333 1.0000
vt 0.3333 0.0000
vt 1.6667 0.0000
vt 1.6667 1.0000
vt 0.3333 1.0000
vt 0.6667 0.0000
vt 1.1667 -0.0000
vt 1.1667 1.0000
vt 0.6667 1.0000
vt 0.6667 0.0000
vt 0.8333 0.0000
vt 0.8333 1.0000
vt 0.6667 1.0000
vt 0.6667 0.0000
vt 1.0000 0.0000
vt 1.0000 1.0000
vt 0.6667 1.0000
vt 0.6667 0.0000
vt 1.6667 0.0000
vt 1.6667 1.0000
vt 0.6667 1.0000
vt 0.3333 0.0000
vt 1.1667 -0.0000
vt 1.1667 1.0000
vt 0.3333 1.0000
vt 0.1667 0.0000
vt 1.3333 0.0000
vt 1.3333 1.0000
vt 0.1667 1.0000
vt 0.8333 0.0000
vt 1.5000 0.0000
vt 1.5000 1.0000
vt 0.8333 1.0000
vt 0.6667 0.0000
vt 0.7000 0.0000
vt 0.7000 1.0000
vt 0.6667 1.0000
vt 0.6667 0.0000
vt 1.0000 0.0000
vt 1.0000 1.0000
vt 0.6667 1.0000
vt 0.3333 0.0000
vt 1.0000 0.0000
vt 1.0000 1.0000
vt 0.3333 1.0000
vt 0.8333 0.0000
vt 2.0000 0.0000
vt 2.0000 1.0000
vt 0.8333 1.0000
vt 0.1667 0.0000
vt 0.6667 0.0000
vt 0.6667 1.0000
vt 0.1667 1.0000
vt 0.6667 0.0000
vt 3.1667 -0.0000
vt 3.1667 1.0000
vt 0.6667 1.0000
vt 0.3333 0.0000
vt 3.5000 0.0000
vt 3.5000 1.0000
vt 0.3333 1.0000
vt 0.1667 0.0000
vt 2.6667 0.0000
vt 2.6667 1.0000
vt 0.1667 1.0000
vt 0.1667 0.0000
vt 3.3333 0.0000
vt 3.3333 1.0000
vt 0.1667 1.0000
vt 0.1667 0.0000
vt 0.5000 0.0000
vt 0.5000 1.0000
vt 0.1667 1.0000
vt 0.1667 0.0000
vt 1.0000 0.0000
vt 1.0000 1.0000
vt 0.1667 1.0000
vt 0.3333 0.0000
vt 1.3333 0.0000
vt 1.3333 1.0000
vt 0.3333 1.0000
vt 0.5000 0.0000
vt 1.3333 0.0000
vt 1.3333 1.0000
vt 0.5000 1.0000
vt -0.0000 -0.0000
vt 0.3333 0.0000
vt 0.3333 1.0000
vt 0.0000 1.0000
vt 0.5000 0.0000
vt 1.8333 -0.0000
vt 1.8333 1.0000
vt 0.5000 1.0000
vt 0.3333 0.0000
vt 2.0000 0.0000
vt 2.0000 1.0000
vt 0.3333 1.0000
vt 0.5000 0.0000
vt 1.8333 -0.0000
vt 1.8333 1.0000
vt 0.5000 1.0000
vt 0.1667 0.0000
vt 0.6667 0.0000
vt 0.6667 1.0000
vt 0.1667 1.0000
vt 0.1667 0.0000
vt 0.2000 0.0000
vt 0.2000 1.0000
vt 0.1667 1.0000
vt 0.3333 0.0000
vt 0.6667 0.0000
vt 0.6667 1.0000
vt 0.3333 1.0000
vt -0.0000 -0.0000
vt 1.0000 0.0000
vt 1.0000 1.0000
vt 0.0000 1.0000
vt 0.3333 0.0000
vt 1.1667 -0.0000
vt 1.1667 1.0000
vt 0.3333 1.0000
vt 0.8333 0.0000
vt 1.8333 -0.0000
vt 1.8333 1.0000
vt 0.8333 1.0000
vt 0.6667 0.0000
vt 2.5000 0.0000
vt 2.5000 1.0000
vt 0.6667 1.0000
vt -0.0000 -0.0000
vt 1.0000 0.0000
vt 1.0000 1.0000
vt 0.0000 1.0000
vt 0.6667 0.0000
vt 4.6667 0.0000
vt 4.6667 1.0000
vt 0.6667 1.0000
vt 0.6667 0.0000
vt 3.5000 0.0000
vt 3.5000 1.0000
vt 0.6667 1.0000
vt 0.1667 0.0000
vt 4.0000 0.0000
vt 4.0000 1.0000
vt 0.1667 1.0000
vt 0.1667 0.0000
vt 1.5000 0.0000
vt 1.5000 1.0000
vt 0.1667 1.0000
vt 0.3333 0.0000
vt 0.6667 0.0000
vt 0.6667 1.0000
vt 0.3333 1.0000
vt 0.5000 0.0000
vt 1.0000 0.0000
vt 1.0000 1.0000
vt 0.5000 1.0000
vt 0.6667 0.0000
vt 1.6667 0.0000
vt 1.6667 1.0000
vt 0.6667 1.0000
vt 0.5000 0.0000
vt 1.0000 0.0000
vt 1.0000 1.0000
vt 0.5000 1.0000
vt 0.1667 0.0000
vt 0.6667 0.0000
vt 0.6667 1.0000
vt 0.1667 1.0000
vt -0.0000 -0.0000
vt 1.3333 0.0000
vt 1.3333 1.0000
vt 0.0000 1.0000
vt 0.3333 0.0000
vt 2.3333 0.0000
vt 2.3333 1.0000
vt 0.3333 1.0000
vn 0.1953 0.0000 -0.9807
vn 0.9804 0.0000 0.1970
vn -0.1972 0.0000 0.9804
vn 0.1972 0.0000 -0.9804
vn -0.9804 0.0000 -0.1970
vn -0.1953 0.0000 0.9807
vn -0.9884 0.0000 0.1516
vn 0.1496 0.0000 0.9887
vn 0.9884 0.0000 -0.1516
vn -0.1516 0.0000 -0.9884
vn -0.9843 0.0000 0.1762
vn 0.9843 0.0000 -0.1763
vn 0.1516 0.0000 0.9884
vn 0.9954 0.0000 0.0958
vn -0.0958 0.0000 0.9954
vn 0.0958 0.0000 -0.9954
vn -0.9954 0.0000 -0.0958
vn -0.1287 0.0000 0.9917
vn -0.9915 0.0000 -0.1300
vn 0.1302 0.0000 -0.9915
vn -0.1302 0.0000 0.9915
vn 0.9915 0.0000 0.1299
vn 0.1286 0.0000 -0.9917
vn -0.9915 0.0000 -0.1299
vn -0.9998 0.0000 -0.0192
vn -0.0196 0.0000 0.9998
vn -0.1525 0.0000 0.9883
vn 0.9998 0.0000 0.0192
vn 0.0196 0.0000 -0.9998
vn 0.9802 0.0000 -0.1982
vn -0.1981 0.0000 -0.9802
vn -0.9804 0.0000 0.1969
vn 0.1974 0.0000 0.9803
vn 0.0579 0.0000 0.9983
vn 0.9983 0.0000 -0.0578
vn -0.0579 0.0000 -0.9983
vn -0.9983 0.0000 0.0578
vn 0.1319 0.0000 0.9913
vn -0.1319 0.0000 -0.9913
vn -0.9983 0.0000 0.0579
vn 0.1800 0.0000 0.9837
vn 0.9931 0.0000 -0.1171
vn -0.1170 0.0000 -0.9931
vn -0.9931 0.0000 0.1170
vn 0.0805 0.0000 0.9968
vn -0.9637 0.0000 0.2670
vn 0.0107 0.0000 0.9999
vn 0.9638 0.0000 -0.2667
vn -0.0108 0.0000 -0.9999
vn 0.9637 0.0000 -0.2670
vn -0.2665 0.0000 -0.9638
vn 0.6687 0.0000 -0.7435
vn -0.7436 0.0000 -0.6687
vn -0.6688 0.0000 0.7435
vn 0.7435 0.0000 0.6687
vn 0.6688 0.0000 -0.7435
vn -0.7435 0.0000 -0.6687
vn 0.7436 0.0000 0.6687
vn -0.9973 0.0000 0.0735
vn 0.1166 0.0000 0.9932
vn 0.9973 0.0000 -0.0734
vn -0.9932 0.0000 0.1166
vn 0.9932 0.0000 -0.1166
vn -0.1166 0.0000 -0.9932
vn 0.0737 0.0000 -0.9973
vn -0.9973 0.0000 -0.0736
vn 0.0736 0.0000 -0.9973
vn -0.0736 0.0000 0.9973
vn 0.9973 0.0000 0.0736
vn 0.9941 0.0000 0.1088
vn -0.1089 0.0000 0.9941
vn 0.1090 0.0000 -0.9940
vn -0.9941 0.0000 -0.1088
vn -0.1089 0.0000 0.9940
vn -0.8819 0.0000 0.4715
vn 0.4715 0.0000 0.8819
vn 0.8819 0.0000 -0.4715
vn -0.4723 0.0000 -0.8814
vn -0.2531 0.0000 0.9674
vn 0.9661 0.0000 0.2582
vn -0.2533 0.0000 0.9674
vn -0.9676 0.0000 -0.2523
vn 0.9676 0.0000 0.2523
vn 0.2533 0.0000 -0.9674
vn -0.9661 0.0000 -0.2583
vn 0.9937 0.0000 0.1123
vn -0.1125 0.0000 0.9937
vn 0.1123 0.0000 -0.9937
vn -0.9937 0.0000 -0.1123
vn -0.1124 0.0000 0.9937
vn -0.9916 0.0000 0.1295
vn 0.1450 0.0000 0.9894
vn 0.9883 0.0000 -0.1527
vn 0.9912 0.0000 -0.1326
vn -0.1320 0.0000 -0.9913
vn -0.9912 0.0000 0.1326
vn 0.9912 0.0000 -0.1324
vn -0.9912 0.0000 0.1324
g CityEngineMaterial_803_CityEngineMaterial_803_CityEngineMaterial_803_mat
usemtl CityEngineMaterial_803_mat
s 1
f 1/1/1 2/2/1 3/3/1 4/4/1
f 2/5/2 5/6/2 6/7/2 3/8/2
f 5/9/3 7/10/3 8/11/3 6/12/3
f 7/13/2 9/14/2 10/15/2 8/16/2
f 9/17/4 11/18/4 12/19/4 10/20/4
f 11/21/5 13/22/5 14/23/5 12/24/5
f 13/25/6 15/26/6 16/27/6 14/28/6
f 15/29/2 1/30/2 4/31/2 16/32/2
f 17/33/7 18/34/7 19/35/7 20/36/7
f 18/37/8 21/38/8 22/39/8 19/40/8
f 21/41/9 23/42/9 24/43/9 22/44/9
f 23/45/10 25/46/10 26/47/10 24/48/10
f 25/49/11 27/50/11 28/51/11 26/52/11
f 27/53/8 29/54/8 30/55/8 28/56/8
f 29/54/12 31/57/12 32/58/12 30/55/12
f 31/59/13 17/60/13 20/61/13 32/62/13
f 33/63/14 34/64/14 35/65/14 36/66/14
f 34/67/15 37/68/15 38/69/15 35/70/15
f 37/71/14 39/72/14 40/73/14 38/74/14
f 39/75/16 41/76/16 42/77/16 40/78/16
f 41/79/17 43/80/17 44/81/17 42/82/17
f 43/83/15 33/84/15 36/85/15 44/86/15
f 45/87/18 46/88/18 47/89/18 48/90/18
f 46/91/19 49/92/19 50/93/19 47/94/19
f 49/95/20 51/96/20 52/97/20 50/98/20
f 51/99/19 53/100/19 54/101/19 52/102/19
f 53/103/21 55/104/21 56/105/21 54/106/21
f 55/107/22 57/108/22 58/109/22 56/110/22
f 57/111/23 59/112/23 60/113/23 58/114/23
f 59/115/24 45/116/24 48/117/24 60/118/24
f 61/119/25 62/120/25 63/121/25 64/122/25
f 62/123/26 65/124/26 66/125/26 63/126/26
f 65/127/25 67/128/25 68/129/25 66/130/25
f 67/131/27 69/132/27 70/133/27 68/134/27
f 69/135/28 71/136/28 72/137/28 70/138/28
f 71/139/29 61/140/29 64/141/29 72/142/29
f 73/143/30 74/144/30 75/145/30 76/146/30
f 74/147/31 77/148/31 78/149/31 75/150/31
f 77/151/32 79/152/32 80/153/32 78/154/32
f 79/155/33 73/156/33 76/157/33 80/158/33
f 81/159/34 82/160/34 83/161/34 84/162/34
f 82/163/35 85/164/35 86/165/35 83/166/35
f 85/167/36 87/168/36 88/169/36 86/170/36
f 87/171/35 89/172/35 90/173/35 88/174/35
f 89/175/34 91/176/34 92/177/34 90/178/34
f 91/176/35 93/179/35 94/180/35 92/177/35
f 93/181/36 95/182/36 96/183/36 94/184/36
f 95/185/37 81/186/37 84/187/37 96/188/37
f 97/189/38 98/190/38 99/191/38 100/192/38
f 98/193/35 101/194/35 102/195/35 99/196/35
f 101/197/39 103/198/39 104/199/39 102/200/39
f 103/201/40 105/202/40 106/203/40 104/204/40
f 105/205/39 107/206/39 108/207/39 106/208/39
f 107/209/37 97/210/37 100/211/37 108/212/37
f 109/213/41 110/214/41 111/215/41 112/216/41
f 110/217/42 113/218/42 114/219/42 111/220/42
f 113/221/43 115/222/43 116/223/43 114/224/43
f 115/225/44 117/226/44 118/227/44 116/228/44
f 117/229/45 109/230/45 112/231/45 118/232/45
f 119/233/46 120/234/46 121/235/46 122/236/46
f 120/237/47 123/238/47 124/239/47 121/240/47
f 123/241/48 125/242/48 126/243/48 124/244/48
f 125/245/49 127/246/49 128/247/49 126/248/49
f 127/249/50 129/250/50 130/251/50 128/252/50
f 129/253/51 119/254/51 122/255/51 130/256/51
f 131/257/52 132/258/52 133/259/52 134/260/52
f 132/261/53 135/262/53 136/263/53 133/264/53
f 135/265/54 137/266/54 138/267/54 136/268/54
f 137/269/55 139/270/55 140/271/55 138/272/55
f 139/273/56 141/274/56 142/275/56 140/276/56
f 141/277/57 143/278/57 144/279/57 142/280/57
f 143/281/56 145/282/56 146/283/56 144/284/56
f 145/285/58 131/286/58 134/287/58 146/288/58
f 147/289/59 148/290/59 149/291/59 150/292/59
f 148/293/60 151/294/60 152/295/60 149/296/60
f 151/297/61 153/298/61 154/299/61 152/300/61
f 153/301/60 155/302/60 156/303/60 154/304/60
f 155/305/62 157/306/62 158/307/62 156/308/62
f 157/306/60 159/309/60 160/310/60 158/307/60
f 159/311/63 161/312/63 162/313/63 160/314/63
f 161/315/64 147/316/64 150/317/64 162/318/64
f 163/319/65 164/320/65 165/321/65 166/322/65
f 164/323/66 167/324/66 168/325/66 165/326/66
f 167/327/67 169/328/67 170/329/67 168/330/67
f 169/331/66 171/332/66 172/333/66 170/334/66
f 171/335/68 173/336/68 174/337/68 172/338/68
f 173/339/69 163/340/69 166/341/69 174/342/69
f 175/343/70 176/344/70 177/345/70 178/346/70
f 176/347/71 179/348/71 180/349/71 177/350/71
f 179/351/70 181/352/70 182/353/70 180/354/70
f 181/355/72 183/356/72 184/357/72 182/358/72
f 183/359/73 185/360/73 186/361/73 184/362/73
f 185/363/74 175/364/74 178/365/74 186/366/74
f 187/367/75 188/368/75 189/369/75 190/370/75
f 188/371/76 191/372/76 192/373/76 189/374/76
f 191/375/77 193/376/77 194/377/77 192/378/77
f 193/379/78 187/380/78 190/381/78 194/382/78
f 195/383/79 196/384/79 197/385/79 198/386/79
f 196/387/80 199/388/80 200/389/80 197/390/80
f 199/391/81 201/392/81 202/393/81 200/394/81
f 201/395/82 203/396/82 204/397/82 202/398/82
f 203/399/79 205/400/79 206/401/79 204/402/79
f 205/403/83 207/404/83 208/405/83 206/406/83
f 207/407/84 209/408/84 210/409/84 208/410/84
f 209/411/85 195/412/85 198/413/85 210/414/85
f 211/415/86 212/416/86 213/417/86 214/418/86
f 212/419/87 215/420/87 216/421/87 213/422/87
f 215/423/86 217/424/86 218/425/86 216/426/86
f 217/427/88 219/428/88 220/429/88 218/430/88
f 219/431/89 221/432/89 222/433/89 220/434/89
f 221/435/90 211/436/90 214/437/90 222/438/90
f 223/439/91 224/440/91 225/441/91 226/442/91
f 224/443/7 227/444/7 228/445/7 225/446/7
f 227/447/92 229/448/92 230/449/92 228/450/92
f 229/451/93 231/452/93 232/453/93 230/454/93
f 231/455/10 223/456/10 226/457/10 232/458/10
f 233/459/94 234/460/94 235/461/94 236/462/94
f 234/463/95 237/464/95 238/465/95 235/466/95
f 237/467/96 239/468/96 240/469/96 238/470/96
f 239/471/39 241/472/39 242/473/39 240/474/39
f 241/475/97 243/476/97 244/477/97 242/478/97
f 243/479/95 245/480/95 246/481/95 244/482/95
f 245/483/98 247/484/98 248/485/98 246/486/98
f 247/487/38 233/488/38 236/489/38 248/490/38
