# Blender v2.78 (sub 0) OBJ File: ''
# www.blender.org
mtllib CityEngineMaterial_347.mtl
o CityEngineMaterial_347
v -1099.798584 10.587538 382.761414
v -1095.514771 10.587538 382.930603
v -1095.514771 11.818738 382.930603
v -1099.798584 11.818738 382.761414
v -1096.126465 10.587537 387.682800
v -1096.126465 11.818737 387.682800
v -1093.693115 10.587537 387.993713
v -1093.693115 11.818737 387.993713
v -1092.355225 10.587537 388.046509
v -1092.355225 11.818737 388.046509
v -1091.155396 10.587538 378.723511
v -1091.155396 11.818738 378.723511
v -1104.056519 10.587538 378.213898
v -1104.056519 11.818738 378.213898
v -1105.141113 10.587537 386.531189
v -1105.141113 11.818737 386.531189
v -1100.369629 10.587537 387.140686
v -1100.369629 11.818737 387.140686
v 174.377594 43.926437 -837.373779
v 176.664902 43.926434 -822.828003
v 176.664902 45.719635 -822.828003
v 174.377594 45.719639 -837.373779
v 188.538101 43.926434 -824.540710
v 188.538101 45.719635 -824.540710
v 186.259796 43.926437 -839.089905
v 186.259796 45.719639 -839.089905
v 75.884598 5.021165 214.840393
v 74.655403 5.021163 227.232605
v 74.655403 7.328563 227.232605
v 75.884598 7.328565 214.840393
v 87.503998 5.021163 225.656204
v 87.503998 7.328563 225.656204
v 84.991203 5.021167 205.041306
v 84.991203 7.328567 205.041306
v 76.889397 5.021166 206.606094
v 76.889397 7.328566 206.606094
v -826.870483 9.361920 490.413391
v -826.665710 9.361921 485.744385
v -826.665710 10.862321 485.744385
v -826.870483 10.862320 490.413391
v -832.470825 9.361921 485.410614
v -832.470825 10.862321 485.410614
v -832.076477 9.361923 476.414886
v -832.076477 10.862323 476.414886
v -836.952881 9.361923 476.209595
v -836.952881 10.862323 476.209595
v -837.548706 9.361920 489.799591
v -837.548706 10.862320 489.799591
v -147.983902 1.313699 619.716675
v -162.221405 1.313701 608.413391
v -162.221405 3.674601 608.413391
v -147.983902 3.674599 619.716675
v -171.144104 1.313699 619.662720
v -171.144104 3.674599 619.662720
v -156.891907 1.313697 630.963501
v -156.891907 3.674597 630.963501
v 303.174805 54.813900 -608.068176
v 300.193695 54.813904 -627.070679
v 300.193695 56.682602 -627.070679
v 303.174805 56.682697 -608.068176
v 281.509888 54.813904 -624.122070
v 281.509888 56.682701 -624.122070
v 284.517212 54.813900 -605.146423
v 284.517212 56.682697 -605.146423
v -496.595612 2.450887 79.587402
v -499.612793 2.450887 78.721901
v -499.612793 4.271787 78.721901
v -496.595612 4.271787 79.587402
v -502.427612 2.450887 78.108498
v -502.427612 4.271787 78.108498
v -505.108093 2.450887 77.759499
v -505.108093 4.271787 77.759499
v -507.639404 2.450887 77.704597
v -507.639404 4.271787 77.704597
v -509.113007 2.450887 77.866203
v -509.113007 4.271787 77.866203
v -508.649292 2.450884 97.412003
v -508.649292 4.271784 97.412003
v -491.678101 2.450884 96.825996
v -491.678101 4.271784 96.825996
v -492.209686 2.450887 81.173500
v -492.209686 4.271787 81.173500
v -230.988602 1.406085 93.881500
v -223.813095 1.406086 87.529198
v -223.813095 3.569386 87.529198
v -230.988602 3.569385 93.881500
v -226.205704 1.406086 84.827003
v -226.205704 3.569386 84.827003
v -232.037201 1.406086 85.641998
v -232.037201 3.569386 85.641998
v 527.845581 35.566074 170.113007
v 527.079529 35.566074 157.080902
v 527.079529 37.304672 157.080902
v 527.845581 37.304672 170.113007
v 520.711121 35.566074 157.452896
v 520.711121 37.304672 157.452896
v 520.881287 35.566074 160.365097
v 520.881287 37.304672 160.365097
v 522.443604 35.566074 160.273804
v 522.443604 37.304672 160.273804
v 523.038330 35.566074 170.390793
v 523.038330 37.304672 170.390793
v 256.529785 26.308287 86.396606
v 267.629608 26.308287 85.766411
v 267.629608 28.253887 85.766411
v 256.529785 28.253887 86.396606
v 266.590088 26.308289 67.469604
v 266.590088 28.253889 67.469604
v 255.477203 26.308289 68.146606
v 255.477203 28.253889 68.146606
v -24.281601 33.499210 -1280.089478
v -30.826700 33.499210 -1287.619751
v -30.826700 35.310009 -1287.619751
v -24.281601 35.310009 -1280.089478
v -29.530100 33.499210 -1288.746704
v -29.530100 35.310009 -1288.746704
v -32.110001 33.499210 -1291.715088
v -32.110001 35.310009 -1291.715088
v -39.390400 33.499210 -1285.386841
v -39.390400 35.310009 -1285.386841
v -27.031401 33.499207 -1271.167725
v -27.031401 35.310005 -1271.167725
v -19.751600 33.499210 -1277.496338
v -19.751600 35.310009 -1277.496338
v -22.985100 33.499210 -1281.216553
v -22.985100 35.310009 -1281.216553
v -295.580994 2.911242 353.694092
v -305.386200 2.911242 354.631714
v -305.386200 4.496342 354.631714
v -295.580994 4.496342 353.694092
v -304.277802 2.911240 366.145203
v -304.277802 4.496340 366.145203
v -298.596313 2.911240 365.601898
v -298.596313 4.496340 365.601898
v -298.449188 2.911240 367.149200
v -298.449188 4.496340 367.149200
v -294.338593 2.911240 366.755890
v -294.338593 4.496340 366.755890
v -720.958191 10.560991 668.404419
v -719.308777 10.560992 662.100403
v -719.308777 12.173992 662.100403
v -720.958191 12.173991 668.404419
v -725.131775 10.560992 660.575378
v -725.131775 12.173992 660.575378
v -725.314270 10.560992 661.273010
v -725.314270 12.173992 661.273010
v -726.871582 10.560992 660.865112
v -726.871582 12.173992 660.865112
v -728.337585 10.560991 666.471191
v -728.337585 12.173991 666.471191
v 181.920502 43.500038 -845.078796
v 186.235794 43.500038 -845.702271
v 186.235794 45.602139 -845.702271
v 181.920502 45.602139 -845.078796
v 184.400497 43.500042 -858.405701
v 184.400497 45.602142 -858.405701
v 182.716599 43.500042 -858.160889
v 182.716599 45.602142 -858.160889
v 183.016006 43.500042 -856.088196
v 183.016006 45.602142 -856.088196
v 182.142700 43.500042 -855.961975
v 182.142700 45.602142 -855.961975
v 181.843399 43.500042 -858.033875
v 181.843399 45.602142 -858.033875
v 180.085907 43.500042 -857.778381
v 180.085907 45.602142 -857.778381
v 200.565308 39.996662 -998.130920
v 199.210098 39.996662 -1006.865417
v 199.210098 41.366566 -1006.865417
v 200.565308 41.366566 -998.130920
v 196.611801 39.996662 -1006.463928
v 196.611801 41.366566 -1006.463928
v 197.359207 39.996662 -1001.646179
v 197.359207 41.366566 -1001.646179
v 193.311096 39.996662 -1001.020874
v 193.311096 41.366566 -1001.020874
v 192.557907 39.996662 -1005.837585
v 192.557907 41.366566 -1005.837585
v 189.738907 39.996662 -1005.402100
v 189.738907 41.366566 -1005.402100
v 191.104507 39.996662 -996.669312
v 191.104507 41.366566 -996.669312
v -17.788601 2.817276 148.894196
v -23.170401 2.817276 150.830597
v -23.170401 4.595675 150.830597
v -17.788601 4.595675 148.894196
v -21.288799 2.817274 158.534897
v -21.288799 4.595674 158.534897
v -20.826099 2.817274 158.368500
v -20.826099 4.595674 158.368500
v -18.916901 2.817273 166.186005
v -18.916901 4.595673 166.186005
v -19.379400 2.817273 166.352997
v -19.379400 4.595673 166.352997
v -18.221399 2.817272 171.094498
v -18.221399 4.595672 171.094498
v -12.841200 2.817272 169.151794
v -12.841200 4.595672 169.151794
v 122.297699 8.131568 197.413406
v 121.921501 8.131569 190.791199
v 121.921501 10.171768 190.791199
v 122.297699 10.171767 197.413406
v 116.960098 8.131569 191.072296
v 116.960098 10.171768 191.072296
v 116.898300 8.131570 188.552505
v 116.898300 10.171769 188.552505
v 111.690804 8.131570 188.848404
v 111.690804 10.171769 188.848404
v 111.915497 8.131568 198.001801
v 111.915497 10.171767 198.001801
v -549.401123 11.582107 -652.773315
v -546.797424 11.582105 -644.252380
v -546.797424 13.662805 -644.252380
v -549.401123 13.662807 -652.773315
v -544.185120 11.582105 -645.047913
v -544.185120 13.662805 -645.047913
v -544.331482 11.582105 -645.527222
v -544.331482 13.662805 -645.527222
v -538.509827 11.582106 -647.296692
v -538.509827 13.662806 -647.296692
v -538.364929 11.582105 -646.820007
v -538.364929 13.662805 -646.820007
v -535.752686 11.582106 -647.615417
v -535.752686 13.662806 -647.615417
v -538.343872 11.582107 -656.134216
v -538.343872 13.662807 -656.134216
vt -0.0000 0.0000
vt 1.5000 0.0000
vt 1.5000 1.0000
vt -0.0000 1.0000
vt 0.5000 0.0000
vt 2.5000 0.0000
vt 2.5000 1.0000
vt 0.5000 1.0000
vt -0.0000 0.0000
vt 1.0000 0.0000
vt 1.0000 1.0000
vt -0.0000 1.0000
vt -0.0000 0.0000
vt 0.5000 0.0000
vt 0.5000 1.0000
vt -0.0000 1.0000
vt -0.0000 0.0000
vt 3.5000 0.0000
vt 3.5000 1.0000
vt -0.0000 1.0000
vt -0.0000 0.0000
vt 5.0000 -0.0000
vt 5.0000 1.0000
vt -0.0000 1.0000
vt -0.0000 0.0000
vt 3.0000 0.0000
vt 3.0000 1.0000
vt -0.0000 1.0000
vt -0.0000 0.0000
vt 2.0000 0.0000
vt 2.0000 1.0000
vt -0.0000 1.0000
vt 0.5000 0.0000
vt 2.0000 0.0000
vt 2.0000 1.0000
vt 0.5000 1.0000
vt -0.0000 0.0000
vt 6.5000 0.0000
vt 6.5000 1.0000
vt -0.0000 1.0000
vt 0.5000 0.0000
vt 6.0000 0.0000
vt 6.0000 1.0000
vt 0.5000 1.0000
vt -0.0000 0.0000
vt 6.5000 0.0000
vt 6.5000 1.0000
vt -0.0000 1.0000
vt -0.0000 0.0000
vt 5.5000 -0.0000
vt 5.5000 1.0000
vt -0.0000 1.0000
vt -0.0000 0.0000
vt 6.5000 0.0000
vt 6.5000 1.0000
vt -0.0000 1.0000
vt 0.5000 0.0000
vt 7.0000 -0.0000
vt 7.0000 1.0000
vt 0.5000 1.0000
vt -0.0000 0.0000
vt 10.5000 0.0000
vt 10.5000 1.0000
vt -0.0000 1.0000
vt 0.5000 0.0000
vt 5.0000 -0.0000
vt 5.0000 1.0000
vt 0.5000 1.0000
vt 0.5000 0.0000
vt 5.0000 -0.0000
vt 5.0000 1.0000
vt 0.5000 1.0000
vt -0.0000 0.0000
vt 2.0000 0.0000
vt 2.0000 1.0000
vt -0.0000 1.0000
vt -0.0000 0.0000
vt 2.5000 0.0000
vt 2.5000 1.0000
vt -0.0000 1.0000
vt 0.5000 0.0000
vt 4.5000 0.0000
vt 4.5000 1.0000
vt 0.5000 1.0000
vt 0.5000 0.0000
vt 2.5000 0.0000
vt 2.5000 1.0000
vt 0.5000 1.0000
vt 0.5000 0.0000
vt 6.5000 0.0000
vt 6.5000 1.0000
vt 0.5000 1.0000
vt -0.0000 0.0000
vt 4.5000 0.0000
vt 4.5000 1.0000
vt -0.0000 1.0000
vt 0.5000 0.0000
vt 7.0000 -0.0000
vt 7.0000 1.0000
vt 0.5000 1.0000
vt -0.0000 0.0000
vt 5.5000 -0.0000
vt 5.5000 1.0000
vt -0.0000 1.0000
vt 0.5000 0.0000
vt 7.0000 -0.0000
vt 7.0000 1.0000
vt 0.5000 1.0000
vt -0.0000 0.0000
vt 5.5000 -0.0000
vt 5.5000 1.0000
vt -0.0000 1.0000
vt -0.0000 0.0000
vt 7.5000 0.0000
vt 7.5000 1.0000
vt -0.0000 1.0000
vt 0.5000 0.0000
vt 8.0000 -0.0000
vt 8.0000 1.0000
vt 0.5000 1.0000
vt -0.0000 0.0000
vt 7.5000 0.0000
vt 7.5000 1.0000
vt -0.0000 1.0000
vt -0.0000 0.0000
vt 7.5000 0.0000
vt 7.5000 1.0000
vt -0.0000 1.0000
vt -0.0000 0.0000
vt 1.5000 0.0000
vt 1.5000 1.0000
vt -0.0000 1.0000
vt 0.5000 0.0000
vt 2.0000 0.0000
vt 2.0000 1.0000
vt 0.5000 1.0000
vt 0.5000 0.0000
vt 2.0000 0.0000
vt 2.0000 1.0000
vt 0.5000 1.0000
vt 0.5000 0.0000
vt 2.0000 0.0000
vt 2.0000 1.0000
vt 0.5000 1.0000
vt 0.5000 0.0000
vt 1.0000 0.0000
vt 1.0000 1.0000
vt 0.5000 1.0000
vt 0.5000 0.0000
vt 10.5000 0.0000
vt 10.5000 1.0000
vt 0.5000 1.0000
vt -0.0000 0.0000
vt 8.5000 0.0000
vt 8.5000 1.0000
vt -0.0000 1.0000
vt -0.0000 0.0000
vt 8.0000 -0.0000
vt 8.0000 1.0000
vt -0.0000 1.0000
vt -0.0000 0.0000
vt 2.5000 0.0000
vt 2.5000 1.0000
vt -0.0000 1.0000
vt -0.0000 0.0000
vt 4.0000 -0.0000
vt 4.0000 1.0000
vt -0.0000 1.0000
vt 0.5000 0.0000
vt 2.0000 0.0000
vt 2.0000 1.0000
vt 0.5000 1.0000
vt 0.5000 0.0000
vt 3.0000 0.0000
vt 3.0000 1.0000
vt 0.5000 1.0000
vt 0.5000 0.0000
vt 4.0000 -0.0000
vt 4.0000 1.0000
vt 0.5000 1.0000
vt 0.5000 0.0000
vt 6.0000 0.0000
vt 6.0000 1.0000
vt 0.5000 1.0000
vt 0.5000 0.0000
vt 3.0000 0.0000
vt 3.0000 1.0000
vt 0.5000 1.0000
vt -0.0000 0.0000
vt 1.0000 0.0000
vt 1.0000 1.0000
vt -0.0000 1.0000
vt -0.0000 0.0000
vt 0.5000 0.0000
vt 0.5000 1.0000
vt -0.0000 1.0000
vt -0.0000 0.0000
vt 4.0000 -0.0000
vt 4.0000 1.0000
vt -0.0000 1.0000
vt -0.0000 0.0000
vt 2.0000 0.0000
vt 2.0000 1.0000
vt -0.0000 1.0000
vt 0.5000 0.0000
vt 5.0000 -0.0000
vt 5.0000 1.0000
vt 0.5000 1.0000
vt -0.0000 0.0000
vt 7.5000 0.0000
vt 7.5000 1.0000
vt -0.0000 1.0000
vt 0.5000 0.0000
vt 5.0000 -0.0000
vt 5.0000 1.0000
vt 0.5000 1.0000
vt 0.5000 0.0000
vt 8.0000 -0.0000
vt 8.0000 1.0000
vt 0.5000 1.0000
vt -0.0000 0.0000
vt 4.0000 -0.0000
vt 4.0000 1.0000
vt -0.0000 1.0000
vt -0.0000 0.0000
vt 0.5000 0.0000
vt 0.5000 1.0000
vt -0.0000 1.0000
vt -0.0000 0.0000
vt 1.5000 0.0000
vt 1.5000 1.0000
vt -0.0000 1.0000
vt 0.5000 0.0000
vt 4.5000 0.0000
vt 4.5000 1.0000
vt 0.5000 1.0000
vt 0.5000 0.0000
vt 8.0000 -0.0000
vt 8.0000 1.0000
vt 0.5000 1.0000
vt -0.0000 0.0000
vt 4.0000 -0.0000
vt 4.0000 1.0000
vt -0.0000 1.0000
vt -0.0000 0.0000
vt 2.0000 0.0000
vt 2.0000 1.0000
vt -0.0000 1.0000
vt 0.5000 0.0000
vt 1.0000 0.0000
vt 1.0000 1.0000
vt 0.5000 1.0000
vt -0.0000 0.0000
vt 4.5000 0.0000
vt 4.5000 1.0000
vt -0.0000 1.0000
vt 0.5000 0.0000
vt 6.0000 0.0000
vt 6.0000 1.0000
vt 0.5000 1.0000
vt -0.0000 0.0000
vt 2.5000 0.0000
vt 2.5000 1.0000
vt -0.0000 1.0000
vt 0.5000 0.0000
vt 1.0000 0.0000
vt 1.0000 1.0000
vt 0.5000 1.0000
vt 0.5000 0.0000
vt 2.5000 0.0000
vt 2.5000 1.0000
vt 0.5000 1.0000
vt 0.5000 0.0000
vt 6.5000 0.0000
vt 6.5000 1.0000
vt 0.5000 1.0000
vt 0.5000 0.0000
vt 3.0000 0.0000
vt 3.0000 1.0000
vt 0.5000 1.0000
vt -0.0000 0.0000
vt 2.0000 0.0000
vt 2.0000 1.0000
vt -0.0000 1.0000
vt 0.5000 0.0000
vt 1.0000 0.0000
vt 1.0000 1.0000
vt 0.5000 1.0000
vt -0.0000 0.0000
vt 0.5000 0.0000
vt 0.5000 1.0000
vt -0.0000 1.0000
vt -0.0000 0.0000
vt 2.0000 0.0000
vt 2.0000 1.0000
vt -0.0000 1.0000
vt 0.5000 0.0000
vt 3.5000 0.0000
vt 3.5000 1.0000
vt 0.5000 1.0000
vt 0.5000 0.0000
vt 2.0000 0.0000
vt 2.0000 1.0000
vt 0.5000 1.0000
vt -0.0000 0.0000
vt 4.5000 0.0000
vt 4.5000 1.0000
vt -0.0000 1.0000
vt 0.5000 0.0000
vt 1.0000 0.0000
vt 1.0000 1.0000
vt 0.5000 1.0000
vt 0.5000 0.0000
vt 1.0000 0.0000
vt 1.0000 1.0000
vt 0.5000 1.0000
vt 0.5000 0.0000
vt 1.0000 0.0000
vt 1.0000 1.0000
vt 0.5000 1.0000
vt -0.0000 0.0000
vt 0.5000 0.0000
vt 0.5000 1.0000
vt -0.0000 1.0000
vt 1.0000 0.0000
vt 1.0000 1.0000
vt 0.5000 0.0000
vt 5.0000 -0.0000
vt 5.0000 1.0000
vt 0.5000 1.0000
vt 0.5000 0.0000
vt 4.0000 -0.0000
vt 4.0000 1.0000
vt 0.5000 1.0000
vt -0.0000 0.0000
vt 1.0000 0.0000
vt 1.0000 1.0000
vt -0.0000 1.0000
vt -0.0000 0.0000
vt 2.0000 0.0000
vt 2.0000 1.0000
vt -0.0000 1.0000
vt -0.0000 0.0000
vt 1.5000 0.0000
vt 1.5000 1.0000
vt -0.0000 1.0000
vt 0.5000 0.0000
vt 2.5000 0.0000
vt 2.5000 1.0000
vt 0.5000 1.0000
vt 0.5000 0.0000
vt 1.5000 0.0000
vt 1.5000 1.0000
vt 0.5000 1.0000
vt -0.0000 0.0000
vt 3.5000 0.0000
vt 3.5000 1.0000
vt -0.0000 1.0000
vt 0.5000 0.0000
vt 4.0000 -0.0000
vt 4.0000 1.0000
vt 0.5000 1.0000
vt -0.0000 0.0000
vt 2.0000 0.0000
vt 2.0000 1.0000
vt -0.0000 1.0000
vt 0.5000 0.0000
vt 3.5000 0.0000
vt 3.5000 1.0000
vt 0.5000 1.0000
vt 0.5000 0.0000
vt 0.6000 -0.0000
vt 0.6000 1.0000
vt 0.5000 1.0000
vt -0.0000 0.0000
vt 3.0000 0.0000
vt 3.0000 1.0000
vt -0.0000 1.0000
vt 0.5000 0.0000
vt 0.6000 -0.0000
vt 0.6000 1.0000
vt 0.5000 1.0000
vt 0.5000 0.0000
vt 2.5000 0.0000
vt 2.5000 1.0000
vt 0.5000 1.0000
vt -0.0000 0.0000
vt 2.0000 0.0000
vt 2.0000 1.0000
vt -0.0000 1.0000
vt -0.0000 0.0000
vt 8.0000 -0.0000
vt 8.0000 1.0000
vt -0.0000 1.0000
vt -0.0000 0.0000
vt 3.5000 0.0000
vt 3.5000 1.0000
vt -0.0000 1.0000
vt -0.0000 0.0000
vt 2.5000 0.0000
vt 2.5000 1.0000
vt -0.0000 1.0000
vt -0.0000 0.0000
vt 1.5000 0.0000
vt 1.5000 1.0000
vt -0.0000 1.0000
vt -0.0000 0.0000
vt 3.0000 0.0000
vt 3.0000 1.0000
vt -0.0000 1.0000
vt -0.0000 0.0000
vt 5.0000 -0.0000
vt 5.0000 1.0000
vt -0.0000 1.0000
vt -0.0000 0.0000
vt 5.5000 -0.0000
vt 5.5000 1.0000
vt -0.0000 1.0000
vt 0.5000 0.0000
vt 5.0000 -0.0000
vt 5.0000 1.0000
vt 0.5000 1.0000
vt -0.0000 0.0000
vt 1.5000 0.0000
vt 1.5000 1.0000
vt -0.0000 1.0000
vt 0.5000 0.0000
vt 0.6000 -0.0000
vt 0.6000 1.0000
vt 0.5000 1.0000
vt 0.5000 0.0000
vt 3.5000 0.0000
vt 3.5000 1.0000
vt 0.5000 1.0000
vt 0.5000 0.0000
vt 0.6000 -0.0000
vt 0.6000 1.0000
vt 0.5000 1.0000
vt 0.5000 0.0000
vt 2.0000 0.0000
vt 2.0000 1.0000
vt 0.5000 1.0000
vt -0.0000 0.0000
vt 4.5000 0.0000
vt 4.5000 1.0000
vt -0.0000 1.0000
vt 0.5000 0.0000
vt 6.0000 0.0000
vt 6.0000 1.0000
vt 0.5000 1.0000
vn -0.0395 0.0000 0.9992
vn -0.9918 0.0000 -0.1277
vn -0.1267 0.0000 0.9919
vn -0.0394 0.0000 0.9992
vn 0.9918 0.0000 0.1276
vn 0.0395 0.0000 -0.9992
vn -0.9916 0.0000 -0.1293
vn 0.9916 0.0000 0.1293
vn -0.9879 0.0000 0.1553
vn 0.1428 0.0000 0.9898
vn 0.9880 0.0000 -0.1547
vn -0.1429 0.0000 -0.9897
vn -0.9951 0.0000 -0.0987
vn 0.1218 0.0000 0.9926
vn 0.9927 0.0000 -0.1210
vn -0.1896 0.0000 -0.9819
vn -0.9926 0.0000 -0.1211
vn 0.9990 0.0000 0.0438
vn 0.0574 0.0000 -0.9984
vn 0.0421 0.0000 -0.9991
vn -0.9990 0.0000 -0.0438
vn -0.0574 0.0000 0.9984
vn 0.6218 0.0000 -0.7832
vn -0.7835 0.0000 -0.6214
vn -0.6213 0.0000 0.7836
vn 0.7839 0.0000 0.6209
vn 0.9879 0.0000 -0.1550
vn -0.1559 0.0000 -0.9878
vn -0.9877 0.0000 0.1565
vn 0.1547 0.0000 0.9880
vn 0.2757 0.0000 -0.9612
vn 0.2129 0.0000 -0.9771
vn 0.1291 0.0000 -0.9916
vn 0.0217 0.0000 -0.9998
vn -0.1090 0.0000 -0.9940
vn -0.9997 0.0000 0.0237
vn 0.0345 0.0000 0.9994
vn 0.9994 0.0000 -0.0339
vn 0.3401 0.0000 -0.9404
vn 0.6629 0.0000 0.7488
vn 0.7487 0.0000 -0.6629
vn -0.1384 0.0000 -0.9904
vn -0.9920 0.0000 0.1262
vn 0.9983 0.0000 -0.0587
vn -0.0583 0.0000 -0.9983
vn -0.9983 0.0000 0.0583
vn 0.0583 0.0000 0.9983
vn -0.9983 0.0000 0.0587
vn 0.0577 0.0000 0.9983
vn 0.0567 0.0000 0.9984
vn 0.9984 0.0000 -0.0567
vn -0.0608 0.0000 -0.9981
vn -0.9983 0.0000 0.0576
vn 0.7548 0.0000 -0.6560
vn 0.6560 0.0000 0.7547
vn -0.6560 0.0000 -0.7547
vn -0.7547 0.0000 0.6560
vn 0.6561 0.0000 0.7547
vn -0.0952 0.0000 -0.9955
vn -0.9954 0.0000 0.0958
vn 0.0952 0.0000 0.9955
vn -0.9955 0.0000 0.0947
vn 0.9955 0.0000 -0.0947
vn 0.9674 0.0000 0.2531
vn 0.2533 0.0000 -0.9674
vn -0.9674 0.0000 -0.2531
vn 0.2534 0.0000 -0.9674
vn -0.9675 0.0000 -0.2530
vn -0.2534 0.0000 0.9674
vn 0.1430 0.0000 0.9897
vn 0.9897 0.0000 -0.1430
vn -0.1439 0.0000 -0.9896
vn -0.9897 0.0000 0.1430
vn -0.1431 0.0000 -0.9897
vn 0.9882 0.0000 -0.1533
vn -0.1527 0.0000 -0.9883
vn -0.9882 0.0000 0.1533
vn 0.9880 0.0000 -0.1545
vn -0.9880 0.0000 0.1545
vn 0.1527 0.0000 0.9883
vn -0.3386 0.0000 -0.9409
vn -0.9714 0.0000 0.2373
vn 0.3384 0.0000 0.9410
vn -0.9714 0.0000 0.2372
vn -0.3396 0.0000 -0.9406
vn 0.3396 0.0000 0.9406
vn 0.9714 0.0000 -0.2373
vn -0.0566 0.0000 -0.9984
vn 0.9997 0.0000 -0.0245
vn -0.0567 0.0000 -0.9984
vn -0.9997 0.0000 0.0245
vn 0.0566 0.0000 0.9984
vn -0.9563 0.0000 0.2922
vn 0.2913 0.0000 0.9566
vn 0.9564 0.0000 -0.2920
vn 0.2908 0.0000 0.9568
vn -0.9568 0.0000 0.2908
vn 0.9567 0.0000 -0.2910
vn -0.2908 0.0000 -0.9568
g CityEngineMaterial_347_CityEngineMaterial_347_CityEngineMaterial_347_mat
usemtl CityEngineMaterial_347_mat
s 1
f 1/1/1 2/2/1 3/3/1 4/4/1
f 2/5/2 5/6/2 6/7/2 3/8/2
f 5/9/3 7/10/3 8/11/3 6/12/3
f 7/13/4 9/14/4 10/15/4 8/16/4
f 9/17/5 11/18/5 12/19/5 10/20/5
f 11/21/6 13/22/6 14/23/6 12/24/6
f 13/25/7 15/26/7 16/27/7 14/28/7
f 15/29/3 17/30/3 18/31/3 16/32/3
f 17/33/8 1/34/8 4/35/8 18/36/8
f 19/37/9 20/38/9 21/39/9 22/40/9
f 20/41/10 23/42/10 24/43/10 21/44/10
f 23/45/11 25/46/11 26/47/11 24/48/11
f 25/49/12 19/50/12 22/51/12 26/52/12
f 27/53/13 28/54/13 29/55/13 30/56/13
f 28/57/14 31/58/14 32/59/14 29/60/14
f 31/61/15 33/62/15 34/63/15 32/64/15
f 33/65/16 35/66/16 36/67/16 34/68/16
f 35/69/17 27/70/17 30/71/17 36/72/17
f 37/73/18 38/74/18 39/75/18 40/76/18
f 38/77/19 41/78/19 42/79/19 39/80/19
f 41/81/18 43/82/18 44/83/18 42/84/18
f 43/85/20 45/86/20 46/87/20 44/88/20
f 45/89/21 47/90/21 48/91/21 46/92/21
f 47/93/22 37/94/22 40/95/22 48/96/22
f 49/97/23 50/98/23 51/99/23 52/100/23
f 50/101/24 53/102/24 54/103/24 51/104/24
f 53/105/25 55/106/25 56/107/25 54/108/25
f 55/109/26 49/110/26 52/111/26 56/112/26
f 57/113/27 58/114/27 59/115/27 60/116/27
f 58/117/28 61/118/28 62/119/28 59/120/28
f 61/121/29 63/122/29 64/123/29 62/124/29
f 63/125/30 57/126/30 60/127/30 64/128/30
f 65/129/31 66/130/31 67/131/31 68/132/31
f 66/133/32 69/134/32 70/135/32 67/136/32
f 69/137/33 71/138/33 72/139/33 70/140/33
f 71/141/34 73/142/34 74/143/34 72/144/34
f 73/145/35 75/146/35 76/147/35 74/148/35
f 75/149/36 77/150/36 78/151/36 76/152/36
f 77/153/37 79/154/37 80/155/37 78/156/37
f 79/157/38 81/158/38 82/159/38 80/160/38
f 81/161/39 65/162/39 68/163/39 82/164/39
f 83/165/40 84/166/40 85/167/40 86/168/40
f 84/169/41 87/170/41 88/171/41 85/172/41
f 87/173/42 89/174/42 90/175/42 88/176/42
f 89/177/43 83/178/43 86/179/43 90/180/43
f 91/181/44 92/182/44 93/183/44 94/184/44
f 92/185/45 95/186/45 96/187/45 93/188/45
f 95/189/46 97/190/46 98/191/46 96/192/46
f 97/193/47 99/194/47 100/195/47 98/196/47
f 99/197/48 101/198/48 102/199/48 100/200/48
f 101/201/49 91/202/49 94/203/49 102/204/49
f 103/205/50 104/206/50 105/207/50 106/208/50
f 104/209/51 107/210/51 108/211/51 105/212/51
f 107/213/52 109/214/52 110/215/52 108/216/52
f 109/217/53 103/218/53 106/219/53 110/220/53
f 111/221/54 112/222/54 113/223/54 114/224/54
f 112/225/55 115/226/55 116/227/55 113/228/55
f 115/229/54 117/230/54 118/231/54 116/232/54
f 117/233/56 119/234/56 120/235/56 118/236/56
f 119/237/57 121/238/57 122/239/57 120/240/57
f 121/241/58 123/242/58 124/243/58 122/244/58
f 123/245/54 125/246/54 126/247/54 124/248/54
f 125/249/56 111/250/56 114/251/56 126/252/56
f 127/253/59 128/254/59 129/255/59 130/256/59
f 128/257/60 131/258/60 132/259/60 129/260/60
f 131/261/61 133/262/61 134/263/61 132/264/61
f 133/265/62 135/266/62 136/267/62 134/268/62
f 135/269/61 137/270/61 138/271/61 136/272/61
f 137/273/63 127/274/63 130/275/63 138/276/63
f 139/277/64 140/278/64 141/279/64 142/280/64
f 140/281/65 143/282/65 144/283/65 141/284/65
f 143/285/66 145/286/66 146/287/66 144/288/66
f 145/289/67 147/290/67 148/291/67 146/292/67
f 147/293/68 149/294/68 150/295/68 148/296/68
f 149/297/69 139/298/69 142/299/69 150/300/69
f 151/301/70 152/302/70 153/303/70 154/304/70
f 152/305/71 155/306/71 156/307/71 153/308/71
f 155/309/72 157/310/72 158/311/72 156/312/72
f 157/313/73 159/314/73 160/315/73 158/316/73
f 159/317/74 161/318/74 162/319/74 160/320/74
f 161/321/71 163/322/71 164/323/71 162/324/71
f 163/322/72 165/325/72 166/326/72 164/323/72
f 165/327/73 151/328/73 154/329/73 166/330/73
f 167/331/75 168/332/75 169/333/75 170/334/75
f 168/335/76 171/336/76 172/337/76 169/338/76
f 171/339/77 173/340/77 174/341/77 172/342/77
f 173/343/76 175/344/76 176/345/76 174/346/76
f 175/347/78 177/348/78 178/349/78 176/350/78
f 177/351/76 179/352/76 180/353/76 178/354/76
f 179/355/79 181/356/79 182/357/79 180/358/79
f 181/359/80 167/360/80 170/361/80 182/362/80
f 183/363/81 184/364/81 185/365/81 186/366/81
f 184/367/82 187/368/82 188/369/82 185/370/82
f 187/371/83 189/372/83 190/373/83 188/374/83
f 189/375/84 191/376/84 192/377/84 190/378/84
f 191/379/85 193/380/85 194/381/85 192/382/85
f 193/383/82 195/384/82 196/385/82 194/386/82
f 195/387/86 197/388/86 198/389/86 196/390/86
f 197/391/87 183/392/87 186/393/87 198/394/87
f 199/395/51 200/396/51 201/397/51 202/398/51
f 200/399/88 203/400/88 204/401/88 201/402/88
f 203/403/89 205/404/89 206/405/89 204/406/89
f 205/407/90 207/408/90 208/409/90 206/410/90
f 207/411/91 209/412/91 210/413/91 208/414/91
f 209/415/92 199/416/92 202/417/92 210/418/92
f 211/419/93 212/420/93 213/421/93 214/422/93
f 212/423/94 215/424/94 216/425/94 213/426/94
f 215/427/95 217/428/95 218/429/95 216/430/95
f 217/431/96 219/432/96 220/433/96 218/434/96
f 219/435/97 221/436/97 222/437/97 220/438/97
f 221/439/94 223/440/94 224/441/94 222/442/94
f 223/443/98 225/444/98 226/445/98 224/446/98
f 225/447/99 211/448/99 214/449/99 226/450/99
