# Blender v2.78 (sub 0) OBJ File: ''
# www.blender.org
mtllib CityEngineMaterial_726.mtl
o CityEngineMaterial_726
v -613.553284 3.286477 139.167206
v -598.906616 3.286478 137.011902
v -598.906616 5.206378 137.011902
v -613.553284 5.206377 139.167206
v -602.486023 3.286481 114.891502
v -602.486023 5.206381 114.891502
v -617.394409 3.286481 117.288597
v -617.394409 5.206381 117.288597
v 6.743600 35.196884 -512.692200
v 18.471701 35.196884 -514.528809
v 18.471701 37.027885 -514.528809
v 6.743600 37.027885 -512.692200
v 15.423300 35.196888 -533.892883
v 15.423300 37.027889 -533.892883
v 3.710300 35.196888 -532.049316
v 3.710300 37.027889 -532.049316
v -194.412598 1.313760 243.602402
v -192.955902 1.313758 259.751495
v -192.955902 3.614558 259.751495
v -194.412598 3.614560 243.602402
v -183.568298 1.313758 258.858612
v -183.568298 3.614558 258.858612
v -185.140198 1.313761 242.369400
v -185.140198 3.614560 242.369400
v -219.933105 1.744911 544.797913
v -218.272507 1.744908 562.256226
v -218.272507 3.965008 562.256226
v -219.933105 3.965011 544.797913
v -207.551804 1.744908 562.193970
v -207.551804 3.965008 562.193970
v -208.162704 1.744911 544.103577
v -208.162704 3.965011 544.103577
v -471.008911 3.025858 254.444397
v -453.843109 3.025859 252.077896
v -453.843109 4.816959 252.077896
v -471.008911 4.816958 254.444397
v -443.935486 3.025859 250.873306
v -443.935486 4.816959 250.873306
v -444.896606 3.025862 233.682297
v -444.896606 4.816962 233.682297
v -472.077209 3.025862 235.212799
v -472.077209 4.816962 235.212799
v -162.112305 1.313878 134.510605
v -151.442505 1.313875 154.070099
v -151.442505 3.140975 154.070099
v -162.112305 3.140978 134.510605
v -141.105499 1.313875 152.658997
v -141.105499 3.140975 152.658997
v -132.415604 1.313876 147.922394
v -132.415497 3.140976 147.922394
v -134.767395 1.313879 130.778793
v -134.767395 3.140979 130.778793
v -555.857727 5.019132 418.568207
v -555.874573 5.019132 419.993500
v -555.874573 6.809532 419.993500
v -555.857727 6.809532 418.568207
v -554.026794 5.019131 420.015686
v -554.026794 6.809531 420.015686
v -553.849121 5.019134 405.066986
v -553.849121 6.809534 405.066986
v -563.015381 5.019134 404.958099
v -563.015381 6.809534 404.958099
v -563.176208 5.019132 418.481201
v -563.176208 6.809532 418.481201
v 590.211792 53.681194 17.812210
v 598.048584 53.681194 15.945708
v 598.048584 55.539497 15.945708
v 590.211792 55.539497 17.812210
v 595.420288 53.681301 4.939009
v 595.420288 55.539501 4.939009
v 591.273071 53.681198 5.926709
v 591.273071 55.539501 5.926709
v 590.853027 53.681198 4.131809
v 590.853027 55.539501 4.131809
v 587.213684 53.681198 5.000908
v 587.213684 55.539501 5.000909
v 266.201599 47.631771 -446.270691
v 254.632996 47.631771 -444.458893
v 254.632996 49.509571 -444.458893
v 266.201599 49.509571 -446.270691
v 254.755402 47.631771 -443.252808
v 254.755402 49.509571 -443.252808
v 260.654602 47.631771 -444.176697
v 260.654602 49.509571 -444.176697
v 260.672211 47.631771 -443.806213
v 260.672211 49.509571 -443.806213
v 266.276886 47.631771 -444.684906
v 266.276886 49.509571 -444.684906
v 397.847107 53.485035 -207.115692
v 399.486786 53.485031 -195.026184
v 399.486786 55.789330 -195.026184
v 397.847107 55.789333 -207.115692
v 426.195496 53.485035 -199.206787
v 426.195496 55.789333 -199.206787
v 424.313690 53.485035 -211.175491
v 424.313690 55.789333 -211.175491
v 521.304871 22.451431 426.681091
v 532.413574 22.451431 423.746490
v 532.413574 24.303932 423.746490
v 521.304871 24.303932 426.681091
v 528.990112 22.451532 410.784912
v 528.990112 24.304033 410.784912
v 525.340881 22.451433 411.749512
v 525.340881 24.303934 411.749512
v 526.152527 22.451433 414.821808
v 526.152527 24.303934 414.821808
v 518.835083 22.451431 416.754913
v 518.835083 24.303932 416.754913
v -286.769012 3.033398 625.696716
v -279.191315 3.033399 618.692627
v -279.191315 4.885900 618.692627
v -286.769012 4.885898 625.696716
v -280.684509 3.033399 617.077209
v -280.684509 4.885900 617.077209
v -282.480896 3.033399 618.737671
v -282.480896 4.885900 618.737671
v -285.532806 3.033400 615.435913
v -285.532806 4.885900 615.435913
v -291.312714 3.033399 620.780884
v -291.312714 4.885899 620.780884
v -127.353798 32.192810 -1289.031982
v -128.239594 32.192810 -1294.123169
v -128.239594 33.525608 -1294.123169
v -127.353798 33.525608 -1289.031982
v -126.795898 32.192810 -1293.959473
v -126.795898 33.525608 -1293.959473
v -126.372902 32.192810 -1297.696045
v -126.372902 33.525608 -1297.696045
v -126.711899 32.192814 -1299.644531
v -126.711899 33.525612 -1299.644531
v -134.153702 32.192814 -1300.488403
v -134.153702 33.525612 -1300.488403
v -133.857300 32.192814 -1299.911865
v -133.857300 33.525612 -1299.911865
v -133.572403 32.192810 -1298.855835
v -133.572403 33.525608 -1298.855835
v -133.515396 32.192810 -1297.763550
v -133.515396 33.525608 -1297.763550
v -133.688705 32.192810 -1296.683716
v -133.688705 33.525608 -1296.683716
v -134.084793 32.192810 -1295.664307
v -134.084793 33.525608 -1295.664307
v -134.183197 32.192810 -1295.514648
v -134.183197 33.525608 -1295.514648
v -132.531998 32.192810 -1286.024414
v -132.531998 33.525608 -1286.024414
v -127.597099 32.192810 -1286.882935
v -127.597099 33.525608 -1286.882935
v -985.470276 5.019274 160.360306
v -987.943481 5.019275 152.861099
v -987.943481 6.636075 152.861099
v -985.470276 6.636074 160.360306
v -991.852478 5.019275 154.150208
v -991.852478 6.636075 154.150208
v -992.481323 5.019275 154.321106
v -992.481323 6.636075 154.321106
v -995.112488 5.019275 155.289505
v -995.112488 6.636075 155.289505
v -993.413330 5.019273 164.923706
v -993.413330 6.636073 164.923706
v -989.283875 5.019273 163.563202
v -989.283875 6.636073 163.563202
v -989.608521 5.019274 161.723297
v -989.608521 6.636074 161.723297
v -989.578613 5.019274 161.715195
v -989.578613 6.636074 161.715195
v 73.175499 5.686075 155.506897
v 61.224098 5.686074 158.487701
v 61.224098 7.499274 158.487701
v 73.175499 7.499275 155.506897
v 66.410004 5.686071 179.185699
v 66.410004 7.499271 179.185699
v 71.949203 5.686071 177.799103
v 71.949203 7.499271 177.799103
v 204.688599 49.699413 -694.138977
v 210.928696 49.699413 -695.111816
v 210.928696 51.288616 -695.111816
v 204.688599 51.288616 -694.138977
v 209.414001 49.699413 -704.857300
v 209.414001 51.288616 -704.857300
v 208.062607 49.699413 -704.646179
v 208.062607 51.288616 -704.646179
v 208.211395 49.699413 -703.688477
v 208.211395 51.288616 -703.688477
v 205.369904 49.699413 -703.245483
v 205.369904 51.288616 -703.245483
v 205.219498 49.699413 -704.202087
v 205.219498 51.288616 -704.202087
v 203.157700 49.699413 -703.880005
v 203.157700 51.288616 -703.880005
v 316.347290 33.812496 22.744406
v 316.852509 33.812492 37.929802
v 316.852509 35.540092 37.929806
v 316.347290 35.540096 22.744406
v 323.610596 33.812492 37.740902
v 323.610596 35.540092 37.740906
v 323.312286 33.812496 26.045906
v 323.312286 35.540096 26.045906
v 320.753906 33.812496 26.117405
v 320.753906 35.540096 26.117405
v 320.637512 33.812496 22.619905
v 320.637512 35.540096 22.619905
v -52.854000 9.903028 -169.166000
v -51.491199 9.903027 -161.397705
v -51.491199 11.827726 -161.397705
v -52.854000 11.827727 -169.166000
v -53.018600 9.903027 -161.116501
v -53.018600 11.827726 -161.116501
v -52.406799 9.903026 -157.606903
v -52.406799 11.827725 -157.606903
v -40.190201 9.903026 -159.856201
v -40.190201 11.827725 -159.856201
v -42.168999 9.903028 -171.136505
v -42.168999 11.827727 -171.136505
v 437.087402 71.114677 -456.991913
v 438.214111 71.114677 -457.927704
v 438.214111 73.011673 -457.927704
v 437.087402 73.011673 -456.991913
v 440.353699 71.114677 -455.230591
v 440.353699 73.011673 -455.230591
v 446.296600 71.114677 -458.383514
v 446.296600 73.011673 -458.383514
v 442.499603 71.114677 -463.169495
v 442.499603 73.011673 -463.169495
v 436.288788 71.114677 -458.010712
v 436.288788 73.011673 -458.010712
v -881.739380 4.401670 185.706497
v -883.272827 4.401671 176.956406
v -883.272827 6.043071 176.956406
v -881.739380 6.043070 185.706497
v -885.242615 4.401671 177.301605
v -885.242615 6.043071 177.301605
v -884.939575 4.401671 179.030594
v -884.939575 6.043071 179.030594
v -889.852295 4.401671 179.891495
v -889.852295 6.043071 179.891495
v -890.155273 4.401671 178.162598
v -890.155273 6.043071 178.162598
v -892.308411 4.401671 178.539902
v -892.308411 6.043071 178.539902
v -890.774780 4.401670 187.289993
v -890.774780 6.043069 187.289993
vt 0.0000 0.0000
vt 4.3333 0.0000
vt 4.3333 1.0000
vt 0.0000 1.0000
vt 0.6667 -0.0000
vt 7.0000 -0.0000
vt 7.0000 1.0000
vt 0.6667 1.0000
vt 0.0000 0.0000
vt 4.3333 0.0000
vt 4.3333 1.0000
vt 0.0000 1.0000
vt 0.6667 -0.0000
vt 7.0000 -0.0000
vt 7.0000 1.0000
vt 0.6667 1.0000
vt 0.6667 -0.0000
vt 3.3333 0.0000
vt 3.3333 1.0000
vt 0.6667 1.0000
vt 0.3333 -0.0000
vt 5.0000 0.0000
vt 5.0000 1.0000
vt 0.3333 1.0000
vt 0.3333 -0.0000
vt 3.0000 0.0000
vt 3.0000 1.0000
vt 0.3333 1.0000
vt 0.3333 -0.0000
vt 5.0000 0.0000
vt 5.0000 1.0000
vt 0.3333 1.0000
vt 0.0000 0.0000
vt 5.0000 0.0000
vt 5.0000 1.0000
vt 0.0000 1.0000
vt 0.3333 -0.0000
vt 3.3333 0.0000
vt 3.3333 1.0000
vt 0.3333 1.0000
vt 0.3333 -0.0000
vt 5.6667 0.0000
vt 5.6667 1.0000
vt 0.3333 1.0000
vt 0.3333 -0.0000
vt 3.3333 0.0000
vt 3.3333 1.0000
vt 0.3333 1.0000
vt 0.0000 0.0000
vt 4.0000 0.0000
vt 4.0000 1.0000
vt 0.0000 1.0000
vt 0.3333 -0.0000
vt 2.6667 0.0000
vt 2.6667 1.0000
vt 0.3333 1.0000
vt 0.3333 -0.0000
vt 4.3333 0.0000
vt 4.3333 1.0000
vt 0.3333 1.0000
vt 0.6667 -0.0000
vt 3.3333 0.0000
vt 3.3333 1.0000
vt 0.6667 1.0000
vt 0.3333 -0.0000
vt 4.0000 0.0000
vt 4.0000 1.0000
vt 0.3333 1.0000
vt 0.3333 -0.0000
vt 2.6667 0.0000
vt 2.6667 1.0000
vt 0.3333 1.0000
vt 0.6667 -0.0000
vt 4.3333 0.0000
vt 4.3333 1.0000
vt 0.6667 1.0000
vt 0.6667 -0.0000
vt 6.6667 -0.0000
vt 6.6667 1.0000
vt 0.6667 1.0000
vt 0.0000 0.0000
vt 4.3333 0.0000
vt 4.3333 1.0000
vt 0.0000 1.0000
vt 0.0000 0.0000
vt 8.3333 -0.0000
vt 8.3333 1.0000
vt 0.0000 1.0000
vt 0.3333 -0.0000
vt 4.3333 0.0000
vt 4.3333 1.0000
vt 0.3333 1.0000
vt 0.3333 -0.0000
vt 4.0000 0.0000
vt 4.0000 1.0000
vt 0.3333 1.0000
vt 0.0000 0.0000
vt 6.3333 -0.0000
vt 6.3333 1.0000
vt 0.0000 1.0000
vt 0.0000 0.0000
vt 10.3333 -0.0000
vt 10.3333 1.0000
vt 0.0000 1.0000
vt 0.0000 0.0000
vt 0.3333 -0.0000
vt 0.3333 1.0000
vt 0.0000 1.0000
vt 0.6667 -0.0000
vt 1.3333 -0.0000
vt 1.3333 1.0000
vt 0.6667 1.0000
vt 0.3333 -0.0000
vt 4.6667 -0.0000
vt 4.6667 1.0000
vt 0.3333 1.0000
vt 0.3333 -0.0000
vt 3.0000 0.0000
vt 3.0000 1.0000
vt 0.3333 1.0000
vt 0.6667 -0.0000
vt 4.6667 -0.0000
vt 4.6667 1.0000
vt 0.6667 1.0000
vt 0.0000 0.0000
vt 2.3333 0.0000
vt 2.3333 1.0000
vt 0.0000 1.0000
vt 0.3333 -0.0000
vt 2.6667 0.0000
vt 2.6667 1.0000
vt 0.3333 1.0000
vt 0.3333 -0.0000
vt 3.6667 0.0000
vt 3.6667 1.0000
vt 0.3333 1.0000
vt 0.0000 0.0000
vt 1.3333 -0.0000
vt 1.3333 1.0000
vt 0.0000 1.0000
vt 0.6667 -0.0000
vt 1.3333 -0.0000
vt 1.3333 1.0000
vt 0.6667 1.0000
vt 0.6667 -0.0000
vt 1.6667 -0.0000
vt 1.6667 1.0000
vt 0.6667 1.0000
vt 0.6667 -0.0000
vt 4.6667 -0.0000
vt 4.6667 1.0000
vt 0.6667 1.0000
vt 0.0000 0.0000
vt 2.6667 0.0000
vt 2.6667 1.0000
vt 0.0000 1.0000
vt 0.3333 -0.0000
vt 0.6667 -0.0000
vt 0.6667 1.0000
vt 0.3333 1.0000
vt 0.3333 -0.0000
vt 1.6667 -0.0000
vt 1.6667 1.0000
vt 0.3333 1.0000
vt 0.6667 -0.0000
vt 0.7333 0.0000
vt 0.7333 1.0000
vt 0.6667 1.0000
vt 0.6667 -0.0000
vt 2.0000 0.0000
vt 2.0000 1.0000
vt 0.6667 1.0000
vt 0.3333 -0.0000
vt 0.6667 -0.0000
vt 0.6667 1.0000
vt 0.3333 1.0000
vt 0.3333 -0.0000
vt 4.6667 -0.0000
vt 4.6667 1.0000
vt 0.3333 1.0000
vt 0.6667 -0.0000
vt 10.6667 0.0000
vt 10.6667 1.0000
vt 0.6667 1.0000
vt 0.3333 -0.0000
vt 4.6667 -0.0000
vt 4.6667 1.0000
vt 0.3333 1.0000
vt 0.0000 0.0000
vt 9.6667 0.0000
vt 9.6667 1.0000
vt 0.0000 1.0000
vt 0.3333 -0.0000
vt 3.6667 0.0000
vt 3.6667 1.0000
vt 0.3333 1.0000
vt 0.3333 -0.0000
vt 4.0000 0.0000
vt 4.0000 1.0000
vt 0.3333 1.0000
vt 0.0000 0.0000
vt 1.0000 0.0000
vt 1.0000 1.0000
vt 0.0000 1.0000
vt 0.0000 0.0000
vt 1.0000 0.0000
vt 1.0000 1.0000
vt 0.0000 1.0000
vt 0.3333 -0.0000
vt 2.3333 0.0000
vt 2.3333 1.0000
vt 0.3333 1.0000
vt 0.3333 -0.0000
vt 3.0000 0.0000
vt 3.0000 1.0000
vt 0.3333 1.0000
vt 0.3333 -0.0000
vt 3.3333 0.0000
vt 3.3333 1.0000
vt 0.3333 1.0000
vt 0.3333 -0.0000
vt 1.0000 0.0000
vt 1.0000 1.0000
vt 0.3333 1.0000
vt 0.0000 0.0000
vt 0.6667 -0.0000
vt 0.6667 1.0000
vt 0.0000 1.0000
vt 0.0000 0.0000
vt 1.3333 -0.0000
vt 1.3333 1.0000
vt 0.0000 1.0000
vt 0.3333 -0.0000
vt 2.6667 0.0000
vt 2.6667 1.0000
vt 0.3333 1.0000
vt 0.3333 -0.0000
vt 2.3333 0.0000
vt 2.3333 1.0000
vt 0.3333 1.0000
vt 0.6667 -0.0000
vt 2.0000 0.0000
vt 2.0000 1.0000
vt 0.6667 1.0000
vt 0.3333 -0.0000
vt 0.6667 -0.0000
vt 0.6667 1.0000
vt 0.3333 1.0000
vt 0.0000 0.0000
vt 1.0000 0.0000
vt 1.0000 1.0000
vt 0.0000 1.0000
vt 0.6667 -0.0000
vt 1.3333 -0.0000
vt 1.3333 1.0000
vt 0.6667 1.0000
vt 0.3333 -0.0000
vt 2.3333 0.0000
vt 2.3333 1.0000
vt 0.3333 1.0000
vt 0.3333 -0.0000
vt 0.6667 -0.0000
vt 0.6667 1.0000
vt 0.3333 1.0000
vt 0.3333 -0.0000
vt 0.6667 -0.0000
vt 0.6667 1.0000
vt 0.3333 1.0000
vt 0.3333 -0.0000
vt 0.6667 -0.0000
vt 0.6667 1.0000
vt 0.3333 1.0000
vt 0.3333 -0.0000
vt 0.6667 -0.0000
vt 0.6667 1.0000
vt 0.3333 1.0000
vt 1.0000 0.0000
vt 1.0000 1.0000
vt 0.3333 -0.0000
vt 0.4000 0.0000
vt 0.4000 1.0000
vt 0.3333 1.0000
vt 0.3333 -0.0000
vt 3.0000 0.0000
vt 3.0000 1.0000
vt 0.3333 1.0000
vt 0.6667 -0.0000
vt 2.0000 0.0000
vt 2.0000 1.0000
vt 0.6667 1.0000
vt 0.0000 0.0000
vt 0.0000 1.0000
vt 0.0000 0.0000
vt 1.6667 -0.0000
vt 1.6667 1.0000
vt 0.0000 1.0000
vt 0.3333 -0.0000
vt 1.3333 -0.0000
vt 1.3333 1.0000
vt 0.3333 1.0000
vt 0.6667 -0.0000
vt 0.7333 0.0000
vt 0.7333 1.0000
vt 0.6667 1.0000
vt 0.3333 -0.0000
vt 1.0000 0.0000
vt 1.0000 1.0000
vt 0.3333 1.0000
vt 0.3333 -0.0000
vt 2.6667 0.0000
vt 2.6667 1.0000
vt 0.3333 1.0000
vt 0.0000 0.0000
vt 1.0000 0.0000
vt 1.0000 1.0000
vt 0.0000 1.0000
vt 0.3333 -0.0000
vt 0.6667 -0.0000
vt 0.6667 1.0000
vt 0.3333 1.0000
vt 0.3333 -0.0000
vt 0.4000 0.0000
vt 0.4000 1.0000
vt 0.3333 1.0000
vt 0.3333 -0.0000
vt 1.3333 -0.0000
vt 1.3333 1.0000
vt 0.3333 1.0000
vt 0.0000 0.0000
vt 2.6667 0.0000
vt 2.6667 1.0000
vt 0.0000 1.0000
vt 0.0000 0.0000
vt 4.6667 -0.0000
vt 4.6667 1.0000
vt 0.0000 1.0000
vt 0.6667 -0.0000
vt 2.0000 0.0000
vt 2.0000 1.0000
vt 0.6667 1.0000
vt 0.0000 0.0000
vt 5.0000 0.0000
vt 5.0000 1.0000
vt 0.0000 1.0000
vt 0.3333 -0.0000
vt 2.3333 0.0000
vt 2.3333 1.0000
vt 0.3333 1.0000
vt 0.3333 -0.0000
vt 3.6667 0.0000
vt 3.6667 1.0000
vt 0.3333 1.0000
vt 0.0000 0.0000
vt 0.3333 -0.0000
vt 0.3333 1.0000
vt 0.0000 1.0000
vt 0.0000 0.0000
vt 0.3333 -0.0000
vt 0.3333 1.0000
vt 0.0000 1.0000
vt 0.6667 -0.0000
vt 1.6667 -0.0000
vt 1.6667 1.0000
vt 0.6667 1.0000
vt 0.0000 0.0000
vt 0.3333 -0.0000
vt 0.3333 1.0000
vt 0.0000 1.0000
vt 1.0000 0.0000
vt 1.0000 1.0000
vt 0.6667 -0.0000
vt 4.0000 0.0000
vt 4.0000 1.0000
vt 0.6667 1.0000
vt 0.3333 -0.0000
vt 4.0000 0.0000
vt 4.0000 1.0000
vt 0.3333 1.0000
vt 0.6667 -0.0000
vt 2.3333 0.0000
vt 2.3333 1.0000
vt 0.6667 1.0000
vt 0.6667 -0.0000
vt 3.3333 0.0000
vt 3.3333 1.0000
vt 0.6667 1.0000
vt 0.3333 -0.0000
vt 1.0000 0.0000
vt 1.0000 1.0000
vt 0.3333 1.0000
vt 0.3333 -0.0000
vt 1.0000 0.0000
vt 1.0000 1.0000
vt 0.3333 1.0000
vt 0.3333 -0.0000
vt 1.3333 -0.0000
vt 1.3333 1.0000
vt 0.3333 1.0000
vt 0.3333 -0.0000
vt 2.3333 0.0000
vt 2.3333 1.0000
vt 0.3333 1.0000
vt 0.3333 -0.0000
vt 0.6667 -0.0000
vt 0.6667 1.0000
vt 0.3333 1.0000
vt 0.3333 -0.0000
vt 1.3333 -0.0000
vt 1.3333 1.0000
vt 0.3333 1.0000
vt 0.6667 -0.0000
vt 4.0000 0.0000
vt 4.0000 1.0000
vt 0.6667 1.0000
vt 0.6667 -0.0000
vt 3.6667 0.0000
vt 3.6667 1.0000
vt 0.6667 1.0000
vt 0.0000 0.0000
vt 3.0000 0.0000
vt 3.0000 1.0000
vt 0.0000 1.0000
vt 0.3333 -0.0000
vt 0.6667 -0.0000
vt 0.6667 1.0000
vt 0.3333 1.0000
vt 0.3333 -0.0000
vt 1.0000 0.0000
vt 1.0000 1.0000
vt 0.3333 1.0000
vt 0.3333 -0.0000
vt 2.0000 0.0000
vt 2.0000 1.0000
vt 0.3333 1.0000
vt 0.3333 -0.0000
vt 1.6667 -0.0000
vt 1.6667 1.0000
vt 0.3333 1.0000
vt 0.3333 -0.0000
vt 2.3333 0.0000
vt 2.3333 1.0000
vt 0.3333 1.0000
vt 0.6667 -0.0000
vt 1.0000 0.0000
vt 1.0000 1.0000
vt 0.6667 1.0000
vt 0.6667 -0.0000
vt 3.3333 0.0000
vt 3.3333 1.0000
vt 0.6667 1.0000
vt 0.3333 -0.0000
vt 1.0000 0.0000
vt 1.0000 1.0000
vt 0.3333 1.0000
vt 0.6667 -0.0000
vt 1.3333 -0.0000
vt 1.3333 1.0000
vt 0.6667 1.0000
vt 0.3333 -0.0000
vt 2.0000 0.0000
vt 2.0000 1.0000
vt 0.3333 1.0000
vt 0.0000 0.0000
vt 0.6667 -0.0000
vt 0.6667 1.0000
vt 0.0000 1.0000
vt 1.3333 -0.0000
vt 1.3333 1.0000
vt 0.6667 -0.0000
vt 3.3333 0.0000
vt 3.3333 1.0000
vt 0.6667 1.0000
vt 0.3333 -0.0000
vt 3.0000 0.0000
vt 3.0000 1.0000
vt 0.3333 1.0000
vn 0.1456 0.0000 0.9893
vn 0.9872 0.0000 -0.1597
vn -0.1587 0.0000 -0.9873
vn -0.9849 0.0000 0.1729
vn 0.1547 0.0000 0.9880
vn 0.9878 0.0000 -0.1555
vn -0.1555 0.0000 -0.9878
vn -0.9879 0.0000 0.1548
vn -0.9960 0.0000 0.0898
vn 0.0947 0.0000 0.9955
vn 0.9955 0.0000 -0.0949
vn -0.1318 0.0000 -0.9913
vn -0.9955 0.0000 0.0947
vn 0.0058 0.0000 1.0000
vn 0.9994 0.0000 -0.0338
vn -0.0589 0.0000 -0.9983
vn 0.1366 0.0000 0.9906
vn 0.1207 0.0000 0.9927
vn 0.9984 0.0000 -0.0558
vn -0.0562 0.0000 -0.9984
vn -0.9985 0.0000 0.0555
vn -0.8779 0.0000 0.4789
vn 0.1353 0.0000 0.9908
vn 0.4786 -0.0000 0.8780
vn 0.9907 -0.0000 -0.1359
vn -0.1352 0.0000 -0.9908
vn -0.9999 0.0000 -0.0118
vn -0.0120 0.0000 0.9999
vn 0.9999 0.0000 0.0119
vn 0.0119 0.0000 -0.9999
vn -0.9999 0.0000 -0.0119
vn -0.0119 0.0000 0.9999
vn 0.2317 0.0000 0.9728
vn 0.9727 0.0000 -0.2323
vn -0.2317 0.0000 -0.9728
vn 0.9737 0.0000 -0.2279
vn -0.2323 0.0000 -0.9726
vn -0.9737 0.0000 0.2279
vn -0.1547 0.0000 -0.9880
vn -0.9949 0.0000 0.1010
vn -0.9989 0.0000 0.0475
vn 0.1549 0.0000 0.9879
vn 0.9989 0.0000 -0.0474
vn -0.9909 0.0000 0.1344
vn 0.1546 0.0000 0.9880
vn 0.9879 0.0000 -0.1553
vn -0.1516 0.0000 -0.9884
vn 0.2554 0.0000 0.9668
vn 0.9668 0.0000 -0.2554
vn -0.2556 0.0000 -0.9668
vn -0.9668 0.0000 0.2554
vn -0.2554 0.0000 -0.9668
vn -0.9704 0.0000 0.2415
vn 0.6788 0.0000 0.7344
vn 0.7344 0.0000 -0.6788
vn -0.6788 0.0000 -0.7343
vn 0.7343 0.0000 -0.6788
vn -0.6789 0.0000 -0.7342
vn -0.7344 0.0000 0.6788
vn 0.9852 0.0000 -0.1714
vn -0.1127 0.0000 0.9936
vn 0.9937 0.0000 0.1125
vn 0.1127 0.0000 -0.9936
vn -0.8894 0.0000 0.4572
vn -0.9655 0.0000 0.2605
vn -0.9986 0.0000 0.0521
vn -0.9874 0.0000 -0.1585
vn -0.9321 0.0000 -0.3621
vn -0.8356 0.0000 -0.5494
vn -0.9852 0.0000 0.1714
vn 0.1714 0.0000 0.9852
vn 0.9497 0.0000 -0.3132
vn -0.3132 0.0000 -0.9497
vn -0.2623 0.0000 -0.9650
vn -0.3454 0.0000 -0.9385
vn -0.9848 0.0000 0.1737
vn 0.3129 0.0000 0.9498
vn 0.9848 0.0000 -0.1738
vn 0.2626 0.0000 0.9649
vn 0.3132 0.0000 0.9497
vn -0.2420 0.0000 -0.9703
vn -0.9700 0.0000 0.2430
vn 0.2428 0.0000 0.9701
vn 0.9985 0.0000 0.0549
vn 0.1540 0.0000 0.9881
vn 0.9881 0.0000 -0.1536
vn -0.1544 0.0000 -0.9880
vn -0.9881 0.0000 0.1535
vn -0.1540 0.0000 -0.9881
vn -0.1543 0.0000 -0.9880
vn -0.9879 0.0000 0.1553
vn -0.9994 0.0000 0.0333
vn 0.0279 -0.0000 0.9996
vn 0.9997 0.0000 -0.0255
vn -0.0279 0.0000 -0.9996
vn 0.9994 0.0000 -0.0333
vn -0.0290 0.0000 -0.9996
vn -0.9850 0.0000 0.1728
vn -0.1811 0.0000 -0.9835
vn -0.9851 0.0000 0.1717
vn 0.1811 0.0000 0.9835
vn 0.9850 0.0000 -0.1728
vn -0.1814 0.0000 -0.9834
vn 0.6389 0.0000 0.7693
vn -0.7834 0.0000 0.6215
vn 0.4687 0.0000 0.8834
vn 0.7834 0.0000 -0.6215
vn -0.6389 0.0000 -0.7692
vn -0.7870 0.0000 0.6169
vn 0.9850 0.0000 -0.1726
vn -0.1726 0.0000 -0.9850
vn -0.9850 0.0000 0.1726
vn 0.1726 0.0000 0.9850
g CityEngineMaterial_726_CityEngineMaterial_726_CityEngineMaterial_726_mat
usemtl CityEngineMaterial_726_mat
s 1
f 1/1/1 2/2/1 3/3/1 4/4/1
f 2/5/2 5/6/2 6/7/2 3/8/2
f 5/9/3 7/10/3 8/11/3 6/12/3
f 7/13/4 1/14/4 4/15/4 8/16/4
f 9/17/5 10/18/5 11/19/5 12/20/5
f 10/21/6 13/22/6 14/23/6 11/24/6
f 13/25/7 15/26/7 16/27/7 14/28/7
f 15/29/8 9/30/8 12/31/8 16/32/8
f 17/33/9 18/34/9 19/35/9 20/36/9
f 18/37/10 21/38/10 22/39/10 19/40/10
f 21/41/11 23/42/11 24/43/11 22/44/11
f 23/45/12 17/46/12 20/47/12 24/48/12
f 25/49/13 26/50/13 27/51/13 28/52/13
f 26/53/14 29/54/14 30/55/14 27/56/14
f 29/57/15 31/58/15 32/59/15 30/60/15
f 31/61/16 25/62/16 28/63/16 32/64/16
f 33/65/17 34/66/17 35/67/17 36/68/17
f 34/69/18 37/70/18 38/71/18 35/72/18
f 37/73/19 39/74/19 40/75/19 38/76/19
f 39/77/20 41/78/20 42/79/20 40/80/20
f 41/81/21 33/82/21 36/83/21 42/84/21
f 43/85/22 44/86/22 45/87/22 46/88/22
f 44/89/23 47/90/23 48/91/23 45/92/23
f 47/93/24 49/94/24 50/95/24 48/96/24
f 49/97/25 51/98/25 52/99/25 50/100/25
f 51/101/26 43/102/26 46/103/26 52/104/26
f 53/105/27 54/106/27 55/107/27 56/108/27
f 54/109/28 57/110/28 58/111/28 55/112/28
f 57/113/29 59/114/29 60/115/29 58/116/29
f 59/117/30 61/118/30 62/119/30 60/120/30
f 61/121/31 63/122/31 64/123/31 62/124/31
f 63/125/32 53/126/32 56/127/32 64/128/32
f 65/129/33 66/130/33 67/131/33 68/132/33
f 66/133/34 69/134/34 70/135/34 67/136/34
f 69/137/35 71/138/35 72/139/35 70/140/35
f 71/141/36 73/142/36 74/143/36 72/144/36
f 73/145/37 75/146/37 76/147/37 74/148/37
f 75/149/38 65/150/38 68/151/38 76/152/38
f 77/153/39 78/154/39 79/155/39 80/156/39
f 78/157/40 81/158/40 82/159/40 79/160/40
f 81/161/5 83/162/5 84/163/5 82/164/5
f 83/165/41 85/166/41 86/167/41 84/168/41
f 85/169/42 87/170/42 88/171/42 86/172/42
f 87/173/43 77/174/43 80/175/43 88/176/43
f 89/177/44 90/178/44 91/179/44 92/180/44
f 90/181/45 93/182/45 94/183/45 91/184/45
f 93/185/46 95/186/46 96/187/46 94/188/46
f 95/189/47 89/190/47 92/191/47 96/192/47
f 97/193/48 98/194/48 99/195/48 100/196/48
f 98/197/49 101/198/49 102/199/49 99/200/49
f 101/201/50 103/202/50 104/203/50 102/204/50
f 103/205/51 105/206/51 106/207/51 104/208/51
f 105/209/52 107/210/52 108/211/52 106/212/52
f 107/213/53 97/214/53 100/215/53 108/216/53
f 109/217/54 110/218/54 111/219/54 112/220/54
f 110/221/55 113/222/55 114/223/55 111/224/55
f 113/225/56 115/226/56 116/227/56 114/228/56
f 115/229/57 117/230/57 118/231/57 116/232/57
f 117/233/58 119/234/58 120/235/58 118/236/58
f 119/237/59 109/238/59 112/239/59 120/240/59
f 121/241/60 122/242/60 123/243/60 124/244/60
f 122/245/61 125/246/61 126/247/61 123/248/61
f 125/249/62 127/250/62 128/251/62 126/252/62
f 127/253/60 129/254/60 130/255/60 128/256/60
f 129/257/63 131/258/63 132/259/63 130/260/63
f 131/261/64 133/262/64 134/263/64 132/264/64
f 133/265/65 135/266/65 136/267/65 134/268/65
f 135/269/66 137/270/66 138/271/66 136/272/66
f 137/273/67 139/274/67 140/275/67 138/276/67
f 139/274/68 141/277/68 142/278/68 140/275/68
f 141/279/69 143/280/69 144/281/69 142/282/69
f 143/283/70 145/284/70 146/285/70 144/286/70
f 145/287/71 147/288/71 148/289/71 146/290/71
f 147/291/62 121/241/62 124/244/62 148/292/62
f 149/293/72 150/294/72 151/295/72 152/296/72
f 150/297/73 153/298/73 154/299/73 151/300/73
f 153/301/74 155/302/74 156/303/74 154/304/74
f 155/305/75 157/306/75 158/307/75 156/308/75
f 157/309/76 159/310/76 160/311/76 158/312/76
f 159/313/77 161/314/77 162/315/77 160/316/77
f 161/317/78 163/318/78 164/319/78 162/320/78
f 163/321/79 165/322/79 166/323/79 164/324/79
f 165/325/80 149/326/80 152/327/80 166/328/80
f 167/329/81 168/330/81 169/331/81 170/332/81
f 168/333/82 171/334/82 172/335/82 169/336/82
f 171/337/83 173/338/83 174/339/83 172/340/83
f 173/341/84 167/342/84 170/343/84 174/344/84
f 175/345/85 176/346/85 177/347/85 178/348/85
f 176/349/86 179/350/86 180/351/86 177/352/86
f 179/353/87 181/354/87 182/355/87 180/356/87
f 181/357/88 183/358/88 184/359/88 182/360/88
f 183/361/89 185/362/89 186/363/89 184/364/89
f 185/365/46 187/366/46 188/367/46 186/368/46
f 187/366/90 189/369/90 190/370/90 188/367/90
f 189/371/91 175/372/91 178/373/91 190/374/91
f 191/375/92 192/376/92 193/377/92 194/378/92
f 192/379/93 195/380/93 196/381/93 193/382/93
f 195/383/94 197/384/94 198/385/94 196/386/94
f 197/387/95 199/388/95 200/389/95 198/390/95
f 199/391/96 201/392/96 202/393/96 200/394/96
f 201/395/97 191/396/97 194/397/97 202/398/97
f 203/399/98 204/400/98 205/401/98 206/402/98
f 204/403/99 207/404/99 208/405/99 205/406/99
f 207/407/100 209/408/100 210/409/100 208/410/100
f 209/411/101 211/412/101 212/413/101 210/414/101
f 211/415/102 213/416/102 214/417/102 212/418/102
f 213/419/103 203/420/103 206/421/103 214/422/103
f 215/423/104 216/424/104 217/425/104 218/426/104
f 216/427/105 219/428/105 220/429/105 217/430/105
f 219/431/106 221/432/106 222/433/106 220/434/106
f 221/435/107 223/436/107 224/437/107 222/438/107
f 223/439/108 225/440/108 226/441/108 224/442/108
f 225/443/109 215/444/109 218/445/109 226/446/109
f 227/447/110 228/448/110 229/449/110 230/450/110
f 228/451/111 231/452/111 232/453/111 229/454/111
f 231/455/112 233/456/112 234/457/112 232/458/112
f 233/459/111 235/460/111 236/461/111 234/462/111
f 235/463/110 237/464/110 238/465/110 236/466/110
f 237/464/111 239/467/111 240/468/111 238/465/111
f 239/469/112 241/470/112 242/471/112 240/472/112
f 241/473/113 227/474/113 230/475/113 242/476/113
