# Blender v2.78 (sub 0) OBJ File: ''
# www.blender.org
mtllib CityEngineMaterial_858.mtl
o CityEngineMaterial_858
v -315.652588 1.313885 91.133904
v -315.618591 1.313885 91.135101
v -316.585388 1.313886 84.178299
v -321.229401 1.313885 91.047798
v -326.558685 1.313885 91.250900
v -328.043304 1.313885 91.348602
v -318.008209 1.313886 84.506500
v -323.004700 1.313886 85.472198
v -327.860413 1.313886 86.139900
vt 0.0027 0.0008
vt 0.0000 0.0000
vt 0.0000 1.0000
vt 0.4495 0.1223
vt 0.8797 0.1981
vt 1.0000 0.2134
vt 0.1179 0.9816
vt 0.5299 0.9433
vt 0.9272 0.9444
vn 0.0000 1.0000 0.0000
g CityEngineMaterial_858_CityEngineMaterial_858_CityEngineMaterial_858_mat
usemtl CityEngineMaterial_858_mat
s 1
f 1/1/1 2/2/1 3/3/1 4/4/1
f 5/5/1 4/4/1 3/3/1 6/6/1
f 6/6/1 3/3/1 7/7/1 8/8/1
f 8/8/1 9/9/1 6/6/1
