# Blender v2.78 (sub 0) OBJ File: ''
# www.blender.org
mtllib CityEngineMaterial_5.mtl
o CityEngineMaterial_5
v -121.018799 3.334409 -52.029900
v -128.932602 3.087908 -51.886799
v -128.929092 3.087908 -51.693001
v -121.015297 3.334408 -51.836201
v -129.281296 3.087908 -51.880501
v -129.236694 3.087908 -51.687500
v -127.808296 34.584286 -1148.040649
v -135.903702 34.584286 -1148.458008
v -135.913696 34.584286 -1148.264404
v -127.818298 34.584286 -1147.847168
v -136.065002 34.584286 -1148.466309
v -135.977997 34.584286 -1148.267822
v 357.277100 49.423927 -155.956284
v 355.129791 49.599228 -163.925278
v 354.942993 49.599228 -163.873581
v 357.093811 49.423725 -155.891479
v 348.235901 50.434830 -189.509583
v 346.087189 50.609829 -197.483780
v 345.898193 50.610031 -197.440384
v 348.048798 50.434830 -189.459183
v -29.461700 8.646016 -100.775497
v -29.267900 8.646016 -100.776100
v -29.270700 8.646016 -101.795303
v -29.464500 8.646016 -101.792198
v -29.459400 8.646016 -99.934799
v -29.265699 8.646016 -99.939201
v -29.441900 8.502915 -93.527603
v -29.248100 8.502915 -93.530197
v -29.367100 7.618711 -66.139000
v -29.344500 7.435009 -57.882401
v -29.150700 7.434909 -57.866001
v -29.173300 7.618711 -66.135201
v -26.560801 5.558101 -5.574099
v -26.608900 5.558101 -6.285799
v -26.802299 5.558101 -6.272699
v -26.755400 5.558101 -5.579499
v -27.118200 5.805102 -13.818899
v -27.311600 5.805102 -13.805899
v -28.984699 7.118906 -41.427799
v -29.540899 7.388608 -49.654499
v -29.735399 7.389208 -49.659199
v -29.178101 7.118906 -41.414700
v -24.773100 5.558099 5.447201
v -24.750799 5.558099 5.986701
v -24.557199 5.558099 5.978701
v -24.579000 5.558099 5.451001
v -24.432301 5.263798 13.702301
v -24.238701 5.263798 13.694301
v -24.095301 4.710896 21.866501
v -24.055700 4.643196 22.827400
v -23.862101 4.643196 22.819401
v -23.901699 4.710896 21.858500
v -23.754700 4.365095 30.119499
v -23.561100 4.365095 30.111500
v -61.206001 4.509000 -1.242599
v -68.622704 4.323000 -1.481199
v -68.628899 4.323000 -1.287499
v -61.212200 4.509100 -1.048999
v -69.467102 4.323000 -1.508399
v -69.421799 4.323000 -1.312999
vt 0.0000 0.0000
vt 1.9158 0.0000
vt 1.9158 1.0000
vt 0.0000 1.0000
vt 2.0000 0.0000
vt 1.9901 1.0000
vt 0.0000 0.0000
vt 1.9606 0.0000
vt 1.9606 1.0000
vt 0.0000 1.0000
vt 2.0000 0.0000
vt 1.9763 1.0000
vt 0.0028 0.0000
vt 2.0000 0.0000
vt 2.0000 1.0000
vt 0.0000 1.0000
vt 0.0000 0.0000
vt 1.9982 0.0000
vt 2.0000 1.0000
vt 0.0000 1.0000
vt 0.2456 0.0000
vt 0.2456 1.0000
vt 0.0000 1.0000
vt 0.0006 0.0000
vt 0.4545 0.0000
vt 0.4545 1.0000
vt 2.0000 0.0000
vt 2.0000 1.0000
vt 0.0000 0.0000
vt 1.9987 0.0000
vt 2.0000 1.0000
vt 0.0000 1.0000
vt 0.0000 0.0000
vt 0.1722 0.0000
vt 0.1722 1.0000
vt 0.0045 1.0000
vt 2.0000 0.0000
vt 2.0000 1.0000
vt 0.0000 0.0000
vt 1.9957 0.0000
vt 2.0000 1.0000
vt 0.0000 1.0000
vt 0.0000 0.0000
vt 0.1303 0.0000
vt 0.1303 1.0000
vt 0.0029 1.0000
vt 2.0000 0.0000
vt 2.0000 1.0000
vt 0.0000 0.0000
vt 0.2317 0.0000
vt 0.2317 1.0000
vt 0.0000 1.0000
vt 2.0000 0.0000
vt 2.0000 1.0000
vt 0.0000 0.0000
vt 0.8980 0.0000
vt 0.8980 1.0000
vt 0.0000 1.0000
vt 1.0000 0.0000
vt 0.9938 1.0000
vn -0.0311 0.9995 0.0006
vn 0.0000 1.0000 0.0000
vn 0.0059 0.9998 0.0204
vn 0.0056 0.9998 0.0204
vn 0.0004 0.9998 0.0223
vn -0.0009 0.9998 0.0222
vn 0.0022 0.9995 0.0326
vn 0.0023 0.9995 0.0326
vn 0.0016 0.9993 0.0381
vn 0.0029 0.9975 0.0702
vn 0.0016 0.9993 0.0380
vn -0.0251 0.9997 -0.0007
g CityEngineMaterial_5_CityEngineMaterial_5_CityEngineMaterial_5_mat
usemtl CityEngineMaterial_5_mat
s 1
f 1/1/1 2/2/1 3/3/1 4/4/1
f 2/2/2 5/5/2 6/6/2 3/3/2
f 7/7/2 8/8/2 9/9/2 10/10/2
f 8/8/2 11/11/2 12/12/2 9/9/2
f 13/13/3 14/14/3 15/15/3 16/16/3
f 17/17/4 18/18/4 19/19/4 20/20/4
f 21/21/2 22/22/2 23/23/2 24/24/2
f 21/21/2 25/25/2 26/26/2 22/22/2
f 25/25/5 27/27/5 28/28/5 26/26/5
f 29/29/6 30/30/6 31/31/6 32/32/6
f 33/33/2 34/34/2 35/35/2 36/36/2
f 34/34/7 37/37/7 38/38/7 35/35/7
f 39/39/8 40/40/8 41/41/8 42/42/8
f 43/43/2 44/44/2 45/45/2 46/46/2
f 44/44/9 47/47/9 48/48/9 45/45/9
f 49/49/10 50/50/10 51/51/10 52/52/10
f 50/50/11 53/53/11 54/54/11 51/51/11
f 55/55/12 56/56/12 57/57/12 58/58/12
f 56/56/2 59/59/2 60/60/2 57/57/2
