# Blender v2.78 (sub 0) OBJ File: ''
# www.blender.org
mtllib CityEngineMaterial_766.mtl
o CityEngineMaterial_766
v -292.713593 5.636949 -297.823792
v -283.745209 5.636946 -283.261292
v -283.745209 7.777046 -283.261292
v -292.713593 7.777049 -297.823792
v -274.091400 5.636947 -288.408112
v -274.091400 7.777047 -288.408112
v -282.157410 5.636950 -303.467285
v -282.157410 7.777050 -303.467285
v -293.080414 1.313910 -64.253998
v -294.475189 1.313912 -76.144203
v -294.475189 3.516312 -76.144203
v -293.080414 3.516310 -64.253998
v -308.898895 1.313912 -74.436501
v -308.898895 3.516312 -74.436501
v -307.497009 1.313910 -62.559799
v -307.497009 3.516310 -62.559799
v 356.918701 59.152195 -587.159973
v 343.327789 59.152195 -583.619202
v 343.327789 61.225594 -583.619202
v 356.918701 61.225594 -587.159973
v 342.743500 59.152195 -581.633484
v 342.743500 61.225594 -581.633484
v 345.710205 59.152191 -570.320496
v 345.710205 61.225590 -570.320496
v 358.376312 59.152195 -581.547607
v 358.376312 61.225594 -581.547607
v -196.065796 1.313761 242.280899
v -181.104401 1.313761 240.291306
v -181.104401 2.901461 240.291306
v -196.065796 2.901460 242.280899
v -181.321304 1.313761 237.887802
v -181.321304 2.901461 237.887802
v -182.873993 1.313761 238.094299
v -182.873993 2.901461 238.094299
v -183.587997 1.313762 230.178497
v -183.587997 2.901463 230.178497
v -197.048004 1.313762 231.392593
v -197.048004 2.901462 231.392593
v 265.384796 52.795994 -584.021118
v 263.401215 52.795994 -596.490295
v 263.401215 54.398094 -596.490295
v 265.384796 54.398094 -584.021118
v 253.746597 52.795994 -594.978394
v 253.746597 54.398094 -594.978394
v 255.710007 52.795994 -582.499023
v 255.710007 54.398094 -582.499023
v 259.470612 52.795994 -583.090576
v 259.470612 54.398094 -583.090576
v 259.320892 52.795994 -584.042603
v 259.320892 54.398094 -584.042603
v 262.927887 52.795994 -584.607483
v 262.927887 54.398094 -584.607483
v 263.078888 52.795994 -583.658325
v 263.078888 54.398094 -583.658325
v -101.232597 38.897625 -770.435181
v -100.039902 38.897625 -762.816223
v -100.039902 40.742126 -762.816223
v -101.232597 40.742126 -770.435181
v -88.052902 38.897625 -764.499573
v -88.052902 40.742126 -764.499573
v -88.837402 38.897625 -769.511719
v -88.837402 40.742126 -769.511719
v -86.651802 38.897625 -769.849609
v -86.651802 40.742126 -769.849609
v -87.084396 38.897625 -772.622803
v -87.084396 40.742126 -772.622803
v 164.151505 12.731777 141.995697
v 163.517700 12.731779 130.987000
v 163.517700 14.400379 130.987000
v 164.151505 14.400377 141.995697
v 157.073502 12.731779 131.362503
v 157.073502 14.400379 131.362503
v 157.173798 12.731778 133.105392
v 157.173798 14.400378 133.105392
v 153.352997 12.731778 133.322906
v 153.352997 14.400378 133.322906
v 153.887894 12.731777 142.580002
v 153.887894 14.400377 142.580002
v 174.099899 41.140656 -953.329224
v 162.999893 41.140656 -951.845215
v 162.999893 42.489258 -951.845215
v 174.099899 42.489258 -953.329224
v 164.933594 41.140652 -937.312317
v 164.933594 42.489254 -937.312317
v 176.033295 41.140652 -938.790222
v 176.033295 42.489254 -938.790222
v 175.499496 41.140652 -942.804626
v 175.499496 42.489254 -942.804626
v 171.029495 41.140652 -942.209412
v 171.029495 42.489254 -942.209412
v 170.369507 41.140652 -947.169983
v 170.369507 42.489254 -947.169983
v 174.839493 41.140652 -947.767578
v 174.839493 42.489254 -947.767578
v 1142.280151 102.017990 -553.715088
v 1139.755127 102.017990 -556.855530
v 1139.755127 103.716591 -556.855530
v 1142.280151 103.716591 -553.715088
v 1127.413818 102.017990 -546.922913
v 1127.413818 103.716591 -546.922913
v 1129.317627 102.017990 -544.563171
v 1129.317627 103.716591 -544.563171
v 1138.175537 102.017990 -551.692322
v 1138.175537 103.716591 -551.692322
v 1138.800415 102.017990 -550.915527
v 1138.800415 103.716591 -550.915527
vt 0.8000 0.0000
vt 4.0000 0.0000
vt 4.0000 1.0000
vt 0.8000 1.0000
vt 0.6000 -0.0000
vt 2.6000 0.0000
vt 2.6000 1.0000
vt 0.6000 1.0000
vt 0.4000 0.0000
vt 3.6000 0.0000
vt 3.6000 1.0000
vt 0.4000 1.0000
vt 0.2000 0.0000
vt 2.4000 0.0000
vt 2.4000 1.0000
vt 0.2000 1.0000
vt 0.6000 -0.0000
vt 2.6000 0.0000
vt 2.6000 1.0000
vt 0.6000 1.0000
vt 0.6000 -0.0000
vt 3.0000 -0.0000
vt 3.0000 1.0000
vt 0.6000 1.0000
vt 0.2000 0.0000
vt 2.2000 0.0000
vt 2.2000 1.0000
vt 0.2000 1.0000
vt 0.4000 0.0000
vt 2.8000 0.0000
vt 2.8000 1.0000
vt 0.4000 1.0000
vt 0.2000 0.0000
vt 2.8000 0.0000
vt 2.8000 1.0000
vt 0.2000 1.0000
vt 0.4000 0.0000
vt 0.8000 0.0000
vt 0.8000 1.0000
vt 0.4000 1.0000
vt 0.2000 0.0000
vt 2.4000 0.0000
vt 2.4000 1.0000
vt 0.2000 1.0000
vt 0.4000 0.0000
vt 3.4000 -0.0000
vt 3.4000 1.0000
vt 0.4000 1.0000
vt 0.2000 0.0000
vt 1.2000 0.0000
vt 1.2000 1.0000
vt 0.2000 1.0000
vt 0.4000 0.0000
vt 2.6000 0.0000
vt 2.6000 1.0000
vt 0.4000 1.0000
vt 0.6000 -0.0000
vt 1.0000 0.0000
vt 1.0000 1.0000
vt 0.6000 1.0000
vt 0.8000 0.0000
vt 1.0000 0.0000
vt 1.0000 1.0000
vt 0.8000 1.0000
vt 0.6000 -0.0000
vt 1.8000 0.0000
vt 1.8000 1.0000
vt 0.6000 1.0000
vt 0.6000 -0.0000
vt 2.6000 0.0000
vt 2.6000 1.0000
vt 0.6000 1.0000
vt 0.2000 0.0000
vt 1.8000 0.0000
vt 1.8000 1.0000
vt 0.2000 1.0000
vt 0.2000 0.0000
vt 2.2000 0.0000
vt 2.2000 1.0000
vt 0.2000 1.0000
vt 0.0000 0.0000
vt 1.6000 0.0000
vt 1.6000 1.0000
vt 0.0000 1.0000
vt 0.2000 0.0000
vt 2.2000 0.0000
vt 2.2000 1.0000
vt 0.2000 1.0000
vt 0.6000 -0.0000
vt 1.2000 0.0000
vt 1.2000 1.0000
vt 0.6000 1.0000
vt 0.6000 -0.0000
vt 0.8000 0.0000
vt 0.8000 1.0000
vt 0.6000 1.0000
vt 0.2000 0.0000
vt 0.8000 0.0000
vt 0.8000 1.0000
vt 0.2000 1.0000
vt 1.0000 0.0000
vt 1.0000 1.0000
vt 0.2000 0.0000
vt 0.6000 -0.0000
vt 0.6000 1.0000
vt 0.2000 1.0000
vt 0.6000 -0.0000
vt 2.0000 -0.0000
vt 2.0000 1.0000
vt 0.6000 1.0000
vt 0.2000 0.0000
vt 2.4000 0.0000
vt 2.4000 1.0000
vt 0.2000 1.0000
vt 0.8000 0.0000
vt 1.8000 0.0000
vt 1.8000 1.0000
vt 0.8000 1.0000
vt 0.0000 0.0000
vt 0.4000 0.0000
vt 0.4000 1.0000
vt 0.0000 1.0000
vt 1.0000 0.0000
vt 1.0000 1.0000
vt 0.4000 0.0000
vt 3.0000 -0.0000
vt 3.0000 1.0000
vt 0.4000 1.0000
vt 0.2000 0.0000
vt 1.8000 0.0000
vt 1.8000 1.0000
vt 0.2000 1.0000
vt 0.0000 0.0000
vt 1.0000 0.0000
vt 1.0000 1.0000
vt 0.0000 1.0000
vt 0.4000 0.0000
vt 0.6000 -0.0000
vt 0.6000 1.0000
vt 0.4000 1.0000
vt 1.2000 0.0000
vt 1.2000 1.0000
vt 0.4000 0.0000
vt 1.8000 0.0000
vt 1.8000 1.0000
vt 0.4000 1.0000
vt 0.0000 0.0000
vt 1.4000 0.0000
vt 1.4000 1.0000
vt 0.0000 1.0000
vt 0.6000 -0.0000
vt 2.6000 0.0000
vt 2.6000 1.0000
vt 0.6000 1.0000
vt 0.2000 0.0000
vt 2.8000 0.0000
vt 2.8000 1.0000
vt 0.2000 1.0000
vt 0.6000 -0.0000
vt 2.6000 0.0000
vt 2.6000 1.0000
vt 0.6000 1.0000
vt 0.4000 0.0000
vt 1.2000 0.0000
vt 1.2000 1.0000
vt 0.4000 1.0000
vt 0.2000 0.0000
vt 1.0000 0.0000
vt 1.0000 1.0000
vt 0.2000 1.0000
vt 0.8000 0.0000
vt 1.6000 0.0000
vt 1.6000 1.0000
vt 0.8000 1.0000
vt 0.0000 0.0000
vt 0.8000 0.0000
vt 0.8000 1.0000
vt 0.0000 1.0000
vt 0.0000 0.0000
vt 1.0000 0.0000
vt 1.0000 1.0000
vt 0.0000 1.0000
vt 0.2000 0.0000
vt 1.0000 0.0000
vt 1.0000 1.0000
vt 0.2000 1.0000
vt 0.6000 -0.0000
vt 3.4000 -0.0000
vt 3.4000 1.0000
vt 0.6000 1.0000
vt 0.0000 0.0000
vt 0.6000 -0.0000
vt 0.6000 1.0000
vt 0.0000 1.0000
vt 0.0000 0.0000
vt 2.0000 -0.0000
vt 2.0000 1.0000
vt 0.0000 1.0000
vt 0.6000 -0.0000
vt 0.8000 0.0000
vt 0.8000 1.0000
vt 0.6000 1.0000
vt 0.6000 -0.0000
vt 1.4000 0.0000
vt 1.4000 1.0000
vt 0.6000 1.0000
vn -0.8515 0.0000 0.5244
vn 0.4705 0.0000 0.8824
vn 0.8815 0.0000 -0.4722
vn -0.4715 0.0000 -0.8819
vn 0.9932 0.0000 -0.1165
vn -0.1176 0.0000 -0.9931
vn -0.9931 0.0000 0.1172
vn 0.1167 0.0000 0.9932
vn -0.2521 0.0000 -0.9677
vn -0.9593 0.0000 -0.2823
vn -0.9673 0.0000 0.2537
vn 0.6633 0.0000 0.7483
vn 0.9679 0.0000 -0.2514
vn 0.1318 0.0000 0.9913
vn 0.9960 0.0000 -0.0899
vn -0.1318 0.0000 -0.9913
vn 0.9960 0.0000 -0.0898
vn -0.0898 0.0000 -0.9960
vn -0.9960 0.0000 0.0898
vn 0.9876 0.0000 -0.1571
vn -0.1547 0.0000 -0.9880
vn -0.9878 0.0000 0.1554
vn 0.1554 0.0000 0.9879
vn 0.9879 0.0000 -0.1554
vn 0.1547 0.0000 0.9880
vn -0.9876 0.0000 0.1571
vn 0.1554 0.0000 0.9878
vn -0.9880 0.0000 0.1547
vn 0.1391 0.0000 0.9903
vn 0.9880 0.0000 -0.1546
vn 0.1528 0.0000 0.9883
vn 0.9881 0.0000 -0.1541
vn -0.1528 0.0000 -0.9883
vn 0.9983 0.0000 -0.0575
vn -0.0582 0.0000 -0.9983
vn -0.9983 0.0000 0.0575
vn -0.0568 0.0000 -0.9984
vn -0.9983 0.0000 0.0577
vn 0.0568 0.0000 0.9984
vn -0.1325 0.0000 -0.9912
vn -0.9913 0.0000 0.1319
vn 0.1320 0.0000 0.9913
vn 0.9913 0.0000 -0.1318
vn -0.1320 0.0000 -0.9913
vn 0.9913 0.0000 -0.1319
vn 0.1325 0.0000 0.9912
vn 0.7793 0.0000 -0.6266
vn -0.6270 0.0000 -0.7790
vn -0.7783 0.0000 0.6279
vn 0.6270 0.0000 0.7790
vn -0.7792 0.0000 0.6268
vn 0.6268 0.0000 0.7791
g CityEngineMaterial_766_CityEngineMaterial_766_CityEngineMaterial_766_mat
usemtl CityEngineMaterial_766_mat
s 1
f 1/1/1 2/2/1 3/3/1 4/4/1
f 2/5/2 5/6/2 6/7/2 3/8/2
f 5/9/3 7/10/3 8/11/3 6/12/3
f 7/13/4 1/14/4 4/15/4 8/16/4
f 9/17/5 10/18/5 11/19/5 12/20/5
f 10/21/6 13/22/6 14/23/6 11/24/6
f 13/25/7 15/26/7 16/27/7 14/28/7
f 15/29/8 9/30/8 12/31/8 16/32/8
f 17/33/9 18/34/9 19/35/9 20/36/9
f 18/37/10 21/38/10 22/39/10 19/40/10
f 21/41/11 23/42/11 24/43/11 22/44/11
f 23/45/12 25/46/12 26/47/12 24/48/12
f 25/49/13 17/50/13 20/51/13 26/52/13
f 27/53/14 28/54/14 29/55/14 30/56/14
f 28/57/15 31/58/15 32/59/15 29/60/15
f 31/61/16 33/62/16 34/63/16 32/64/16
f 33/65/17 35/66/17 36/67/17 34/68/17
f 35/69/18 37/70/18 38/71/18 36/72/18
f 37/73/19 27/74/19 30/75/19 38/76/19
f 39/77/20 40/78/20 41/79/20 42/80/20
f 40/81/21 43/82/21 44/83/21 41/84/21
f 43/85/22 45/86/22 46/87/22 44/88/22
f 45/89/23 47/90/23 48/91/23 46/92/23
f 47/93/24 49/94/24 50/95/24 48/96/24
f 49/97/25 51/98/25 52/99/25 50/100/25
f 51/98/26 53/101/26 54/102/26 52/99/26
f 53/103/27 39/104/27 42/105/27 54/106/27
f 55/107/28 56/108/28 57/109/28 58/110/28
f 56/111/29 59/112/29 60/113/29 57/114/29
f 59/115/30 61/116/30 62/117/30 60/118/30
f 61/119/31 63/120/31 64/121/31 62/122/31
f 63/120/32 65/123/32 66/124/32 64/121/32
f 65/125/33 55/126/33 58/127/33 66/128/33
f 67/129/34 68/130/34 69/131/34 70/132/34
f 68/133/35 71/134/35 72/135/35 69/136/35
f 71/137/36 73/138/36 74/139/36 72/140/36
f 73/138/37 75/141/37 76/142/37 74/139/37
f 75/143/38 77/144/38 78/145/38 76/146/38
f 77/147/39 67/148/39 70/149/39 78/150/39
f 79/151/40 80/152/40 81/153/40 82/154/40
f 80/155/41 83/156/41 84/157/41 81/158/41
f 83/159/42 85/160/42 86/161/42 84/162/42
f 85/163/43 87/164/43 88/165/43 86/166/43
f 87/167/44 89/168/44 90/169/44 88/170/44
f 89/171/45 91/172/45 92/173/45 90/174/45
f 91/175/46 93/176/46 94/177/46 92/178/46
f 93/179/43 79/180/43 82/181/43 94/182/43
f 95/183/47 96/184/47 97/185/47 98/186/47
f 96/187/48 99/188/48 100/189/48 97/190/48
f 99/191/49 101/192/49 102/193/49 100/194/49
f 101/195/50 103/196/50 104/197/50 102/198/50
f 103/199/51 105/200/51 106/201/51 104/202/51
f 105/203/52 95/204/52 98/205/52 106/206/52
