# Blender v2.78 (sub 0) OBJ File: ''
# www.blender.org
mtllib CityEngineMaterial_183.mtl
o CityEngineMaterial_183
v 282.548187 24.499580 116.597511
v 266.377106 24.499580 117.398705
v 266.377106 26.860281 117.398705
v 282.548187 26.860281 116.597511
v 267.317413 24.499577 136.255798
v 267.317413 26.860277 136.255798
v 282.400299 24.499577 135.399399
v 282.400299 26.860277 135.399399
v 12.279100 11.195018 -108.338097
v 28.182100 11.195018 -109.595802
v 28.182100 13.238419 -109.595802
v 12.279100 13.238419 -108.338097
v 23.345301 11.195022 -133.854004
v 23.345301 13.238422 -133.854004
v 9.224900 11.195021 -131.027603
v 9.224900 13.238421 -131.027603
v -354.083313 3.033440 -242.991501
v -350.125885 3.033437 -230.026703
v -350.125885 4.775038 -230.026703
v -354.083313 4.775040 -242.991501
v -345.434814 3.033438 -231.455704
v -345.434814 4.775038 -231.455704
v -344.828888 3.033437 -229.651703
v -344.828888 4.775037 -229.651703
v -340.988708 3.033438 -230.905197
v -340.988708 4.775038 -230.905197
v -341.960602 3.033438 -233.798706
v -341.960602 4.775038 -233.798706
v -345.866486 3.033440 -245.494598
v -345.866486 4.775040 -245.494598
v 259.201508 42.130753 -942.788818
v 260.308411 42.130753 -934.530396
v 260.308411 43.828053 -934.530396
v 259.201508 43.828053 -942.788818
v 263.550812 42.130753 -934.963074
v 263.550812 43.828053 -934.963074
v 263.221497 42.130753 -937.420227
v 263.221497 43.828053 -937.420227
v 266.071808 42.130753 -937.799988
v 266.071808 43.828053 -937.799988
v 265.318390 42.130753 -943.603699
v 265.318390 43.828053 -943.603699
v 398.455597 61.235458 -357.497711
v 404.801514 61.235458 -345.307404
v 404.801514 63.405457 -345.307404
v 398.455597 63.405457 -357.497711
v 420.264893 61.235458 -353.320892
v 420.264893 63.405457 -353.320892
v 413.735291 61.235462 -365.609802
v 413.735291 63.405460 -365.609802
v 144.326004 45.710705 -630.882629
v 146.146194 45.710701 -619.047791
v 146.146194 47.803699 -619.047791
v 144.326004 47.803703 -630.882629
v 171.497803 45.710705 -623.025818
v 171.497803 47.803703 -623.025818
v 170.802704 45.710705 -635.028625
v 170.802704 47.803703 -635.028625
v -5.839600 36.723076 -1077.606812
v -8.975500 36.723076 -1077.115112
v -8.975500 38.093174 -1077.115112
v -5.839600 38.093174 -1077.606812
v -8.161200 36.723076 -1071.915039
v -8.161200 38.093174 -1071.915039
v -13.103500 36.723076 -1071.140991
v -13.103500 38.093174 -1071.140991
v -12.322800 36.723076 -1066.155762
v -12.322800 38.093174 -1066.155762
v -4.244500 36.723076 -1067.420898
v -4.244500 38.093174 -1067.420898
v -1357.172241 11.566151 306.493896
v -1357.283813 11.566153 295.002899
v -1357.283813 13.068953 295.002899
v -1357.172241 13.068951 306.493896
v -1368.363525 11.566152 297.340912
v -1368.363525 13.068952 297.340912
v -1366.035278 11.566150 308.364410
v -1366.035278 13.068950 308.364410
v -1362.595825 11.566150 307.638611
v -1362.595825 13.068950 307.638611
v -1363.933716 11.566152 301.304108
v -1363.933716 13.068952 301.304108
v -1361.216553 11.566152 300.730713
v -1361.216553 13.068952 300.730713
v -1361.152344 11.566150 307.333893
v -1361.152344 13.068950 307.333893
v -303.628113 3.783891 666.817383
v -305.817200 3.783891 666.786926
v -305.817200 5.801591 666.786926
v -303.628113 5.801591 666.817383
v -305.887695 3.783890 671.859375
v -305.887695 5.801590 671.859375
v -298.862915 3.783890 671.957275
v -298.862915 5.801590 671.957275
v 240.278595 13.675060 245.316498
v 231.394104 13.675060 245.679993
v 231.394104 15.619460 245.679993
v 240.278595 15.619460 245.316498
v 213.617798 13.675060 246.689194
v 213.617798 15.619460 246.689194
v 214.817596 13.675056 267.689514
v 214.817596 15.619456 267.689514
v 241.473297 13.675056 266.361206
v 241.473297 15.619456 266.361206
v -1163.675293 14.321215 520.999207
v -1162.249146 14.321216 514.739380
v -1162.249146 16.363716 514.739380
v -1163.675293 16.363714 520.999207
v -1160.555786 14.321216 515.125671
v -1160.555786 16.363716 515.125671
v -1158.755737 14.321217 507.224701
v -1158.755737 16.363718 507.224701
v -1166.230591 14.321218 505.519409
v -1166.230591 16.363718 505.519409
v -1169.459473 14.321215 519.692505
v -1169.459473 16.363716 519.692505
v 538.188416 20.805508 564.536072
v 540.947205 20.805508 563.957825
v 540.947205 22.434509 563.957825
v 538.188416 22.434509 564.536072
v 540.071228 20.805508 559.776611
v 540.071228 22.434509 559.776611
v 543.226379 20.805508 559.115417
v 543.226379 22.434509 559.115417
v 540.718201 20.805611 547.178589
v 540.718201 22.434511 547.178589
v 534.811279 20.805611 548.416382
v 534.811279 22.434511 548.416382
v -108.317299 19.129768 -417.418488
v -106.304199 19.129765 -402.394196
v -106.304199 20.779764 -402.394196
v -108.317299 20.779869 -417.418488
v -104.399002 19.129765 -402.649414
v -104.399002 20.779764 -402.649414
v -104.984596 19.129766 -412.502106
v -104.984596 20.779766 -412.502106
v -105.669899 19.129768 -417.616913
v -105.669899 20.779768 -417.616913
v 927.182922 100.559128 -173.646179
v 930.583130 100.559120 -162.770889
v 930.583130 102.070625 -162.770889
v 927.182922 102.070633 -173.646179
v 934.096375 100.559120 -163.773483
v 934.096375 102.070625 -163.773483
v 932.741272 100.559128 -168.107681
v 932.741272 102.070633 -168.107681
v 935.172424 100.559128 -168.793289
v 935.172424 102.070633 -168.793289
v 936.772583 100.559128 -164.537186
v 936.772583 102.070633 -164.537186
v 939.975220 100.559128 -165.451080
v 939.975220 102.070633 -165.451080
v 935.962830 100.559128 -176.122482
v 935.962830 102.070633 -176.122482
v -235.809799 1.931330 427.242706
v -236.280701 1.931331 422.291412
v -236.280701 3.802431 422.291412
v -235.809799 3.802430 427.242706
v -249.835007 1.931331 423.580597
v -249.835007 3.802431 423.580597
v -249.529999 1.931330 426.787811
v -249.529999 3.802430 426.787811
v -245.763596 1.931330 426.429596
v -245.763596 3.802431 426.429596
v -245.597702 1.931330 428.173615
v -245.597702 3.802430 428.173615
v 600.621277 25.695740 376.195496
v 586.389282 25.695740 379.324005
v 586.389282 27.412239 379.324005
v 600.621277 27.412239 376.195496
v 587.671021 25.695738 385.165985
v 587.671021 27.412237 385.165985
v 599.668091 25.695738 382.561096
v 599.668091 27.412237 382.561096
v 599.064087 25.695740 379.808411
v 599.064087 27.412239 379.808411
v 601.305908 25.695740 379.315613
v 601.305908 27.412239 379.315613
v -75.365097 1.313722 475.988098
v -65.341202 1.313725 458.153107
v -65.341202 3.223025 458.153107
v -75.365097 3.223022 475.988098
v -77.940598 1.313725 461.461212
v -77.940598 3.223025 461.461212
v 962.575317 117.431458 -375.120758
v 958.103516 117.431458 -377.416779
v 958.103516 118.954758 -377.416779
v 962.575317 118.954758 -375.120758
v 955.029480 117.431458 -374.720978
v 955.029480 118.954758 -374.720978
v 951.944519 117.431458 -376.306671
v 951.944519 118.954758 -376.306671
v 948.189270 117.431458 -373.002258
v 948.189270 118.954758 -373.002258
v 955.736511 117.431458 -369.123260
v 955.736511 118.954758 -369.123260
v 732.745178 36.508148 337.884094
v 728.498901 36.508144 342.226990
v 728.498901 38.621742 342.226990
v 732.745178 38.621746 337.884094
v 729.843018 36.508144 343.549103
v 729.843018 38.621742 343.549103
v 727.965088 36.508144 345.474609
v 727.965088 38.621742 345.474609
v 736.481873 36.508144 353.818787
v 736.481873 38.621742 353.818787
v 742.583923 36.508144 347.561707
v 742.583923 38.621742 347.561707
vt 0.5000 0.0000
vt 3.0000 0.0000
vt 3.0000 1.0000
vt 0.5000 1.0000
vt 0.3333 0.0000
vt 3.3333 -0.0000
vt 3.3333 1.0000
vt 0.3333 1.0000
vt 0.6667 -0.0000
vt 3.0000 0.0000
vt 3.0000 1.0000
vt 0.6667 1.0000
vt 0.1667 0.0000
vt 3.1667 -0.0000
vt 3.1667 1.0000
vt 0.1667 1.0000
vt 0.1667 0.0000
vt 1.8333 0.0000
vt 1.8333 1.0000
vt 0.1667 1.0000
vt 0.5000 0.0000
vt 3.1667 -0.0000
vt 3.1667 1.0000
vt 0.5000 1.0000
vt 0.6667 -0.0000
vt 2.1667 0.0000
vt 2.1667 1.0000
vt 0.6667 1.0000
vt 0.1667 0.0000
vt 2.6667 -0.0000
vt 2.6667 1.0000
vt 0.1667 1.0000
vt 0.3333 0.0000
vt 2.0000 0.0000
vt 2.0000 1.0000
vt 0.3333 1.0000
vt 0.6667 -0.0000
vt 1.3333 0.0000
vt 1.3333 1.0000
vt 0.6667 1.0000
vt 0.6667 -0.0000
vt 0.8333 -0.0000
vt 0.8333 1.0000
vt 0.6667 1.0000
vt 0.5000 0.0000
vt 1.0000 -0.0000
vt 1.0000 1.0000
vt 0.5000 1.0000
vt 0.3333 0.0000
vt 0.6667 -0.0000
vt 0.6667 1.0000
vt 0.3333 1.0000
vt 0.1667 0.0000
vt 1.6667 0.0000
vt 1.6667 1.0000
vt 0.1667 1.0000
vt 0.1667 0.0000
vt 1.1667 0.0000
vt 1.1667 1.0000
vt 0.1667 1.0000
vt 0.3333 0.0000
vt 1.5000 -0.0000
vt 1.5000 1.0000
vt 0.3333 1.0000
vt 0.0000 0.0000
vt 0.5000 0.0000
vt 0.5000 1.0000
vt 0.0000 1.0000
vt 0.8333 -0.0000
vt 0.8333 1.0000
vt 0.6667 -0.0000
vt 1.0000 -0.0000
vt 1.0000 1.0000
vt 0.6667 1.0000
vt 0.1667 0.0000
vt 1.0000 -0.0000
vt 1.0000 1.0000
vt 0.1667 1.0000
vt 0.5000 0.0000
vt 1.3333 0.0000
vt 1.3333 1.0000
vt 0.5000 1.0000
vt 0.5000 0.0000
vt 2.5000 0.0000
vt 2.5000 1.0000
vt 0.5000 1.0000
vt 0.6667 -0.0000
vt 3.3333 -0.0000
vt 3.3333 1.0000
vt 0.6667 1.0000
vt 0.6667 -0.0000
vt 2.6667 -0.0000
vt 2.6667 1.0000
vt 0.6667 1.0000
vt 0.1667 0.0000
vt 2.6667 -0.0000
vt 2.6667 1.0000
vt 0.1667 1.0000
vt 0.3333 0.0000
vt 2.5000 0.0000
vt 2.5000 1.0000
vt 0.3333 1.0000
vt 0.1667 0.0000
vt 4.6667 0.0000
vt 4.6667 1.0000
vt 0.1667 1.0000
vt 0.6667 -0.0000
vt 2.8333 -0.0000
vt 2.8333 1.0000
vt 0.6667 1.0000
vt 0.3333 0.0000
vt 5.0000 0.0000
vt 5.0000 1.0000
vt 0.3333 1.0000
vt 0.0000 0.0000
vt 0.5000 0.0000
vt 0.5000 1.0000
vt 0.0000 1.0000
vt 0.1667 0.0000
vt 0.8333 -0.0000
vt 0.8333 1.0000
vt 0.1667 1.0000
vt 0.5000 0.0000
vt 1.1667 0.0000
vt 1.1667 1.0000
vt 0.5000 1.0000
vt 0.3333 0.0000
vt 1.0000 -0.0000
vt 1.0000 1.0000
vt 0.3333 1.0000
vt 0.0000 0.0000
vt 1.1667 0.0000
vt 1.1667 1.0000
vt 0.0000 1.0000
vt 0.8333 -0.0000
vt 2.3333 0.0000
vt 2.3333 1.0000
vt 0.8333 1.0000
vt 0.3333 0.0000
vt 2.1667 0.0000
vt 2.1667 1.0000
vt 0.3333 1.0000
vt 0.3333 0.0000
vt 2.0000 0.0000
vt 2.0000 1.0000
vt 0.3333 1.0000
vt 0.6667 -0.0000
vt 2.3333 0.0000
vt 2.3333 1.0000
vt 0.6667 1.0000
vt 0.0000 0.0000
vt 0.5000 0.0000
vt 0.5000 1.0000
vt 0.0000 1.0000
vt 0.1667 0.0000
vt 1.1667 0.0000
vt 1.1667 1.0000
vt 0.1667 1.0000
vt 0.3333 0.0000
vt 0.8333 -0.0000
vt 0.8333 1.0000
vt 0.3333 1.0000
vt 0.5000 0.0000
vt 1.5000 -0.0000
vt 1.5000 1.0000
vt 0.5000 1.0000
vt 0.1667 0.0000
vt 0.8333 -0.0000
vt 0.8333 1.0000
vt 0.1667 1.0000
vt 0.6667 -0.0000
vt 1.0000 -0.0000
vt 1.0000 1.0000
vt 0.6667 1.0000
vt 0.6667 -0.0000
vt 1.5000 -0.0000
vt 1.5000 1.0000
vt 0.6667 1.0000
vt 0.3333 0.0000
vt 1.5000 -0.0000
vt 1.5000 1.0000
vt 0.3333 1.0000
vt 0.6667 -0.0000
vt 1.8333 0.0000
vt 1.8333 1.0000
vt 0.6667 1.0000
vt 0.3333 0.0000
vt 1.6667 0.0000
vt 1.6667 1.0000
vt 0.3333 1.0000
vt 0.1667 0.0000
vt 2.8333 -0.0000
vt 2.8333 1.0000
vt 0.1667 1.0000
vt 0.0000 0.0000
vt 3.0000 0.0000
vt 3.0000 1.0000
vt 0.0000 1.0000
vt 0.1667 0.0000
vt 4.0000 0.0000
vt 4.0000 1.0000
vt 0.1667 1.0000
vt 0.6667 -0.0000
vt 3.6667 -0.0000
vt 3.6667 1.0000
vt 0.6667 1.0000
vt 0.0000 0.0000
vt 1.0000 -0.0000
vt 1.0000 1.0000
vt 0.0000 1.0000
vt 0.5000 0.0000
vt 0.8333 -0.0000
vt 0.8333 1.0000
vt 0.5000 1.0000
vt 0.1667 0.0000
vt 1.3333 0.0000
vt 1.3333 1.0000
vt 0.1667 1.0000
vt 0.6667 -0.0000
vt 1.8333 0.0000
vt 1.8333 1.0000
vt 0.6667 1.0000
vt 0.1667 0.0000
vt 2.3333 0.0000
vt 2.3333 1.0000
vt 0.1667 1.0000
vt 0.0000 0.0000
vt 0.8333 -0.0000
vt 0.8333 1.0000
vt 0.0000 1.0000
vt 0.1667 0.0000
vt 0.5000 0.0000
vt 0.5000 1.0000
vt 0.1667 1.0000
vt 1.0000 -0.0000
vt 1.0000 1.0000
vt 0.6667 -0.0000
vt 1.0000 -0.0000
vt 1.0000 1.0000
vt 0.6667 1.0000
vt 0.6667 -0.0000
vt 2.1667 0.0000
vt 2.1667 1.0000
vt 0.6667 1.0000
vt 0.1667 0.0000
vt 0.8333 -0.0000
vt 0.8333 1.0000
vt 0.1667 1.0000
vt 0.5000 0.0000
vt 2.5000 0.0000
vt 2.5000 1.0000
vt 0.5000 1.0000
vt 0.3333 0.0000
vt 2.1667 0.0000
vt 2.1667 1.0000
vt 0.3333 1.0000
vt 0.3333 0.0000
vt 0.5000 0.0000
vt 0.5000 1.0000
vt 0.3333 1.0000
vt 0.3333 0.0000
vt 1.5000 -0.0000
vt 1.5000 1.0000
vt 0.3333 1.0000
vt 0.3333 0.0000
vt 1.0000 -0.0000
vt 1.0000 1.0000
vt 0.3333 1.0000
vt 0.8333 -0.0000
vt 1.1667 0.0000
vt 1.1667 1.0000
vt 0.8333 1.0000
vt 0.3333 0.0000
vt 1.8333 0.0000
vt 1.8333 1.0000
vt 0.3333 1.0000
vt 0.6667 -0.0000
vt 1.1667 0.0000
vt 1.1667 1.0000
vt 0.6667 1.0000
vt 0.1667 0.0000
vt 0.8333 -0.0000
vt 0.8333 1.0000
vt 0.1667 1.0000
vt 0.3333 0.0000
vt 0.6667 -0.0000
vt 0.6667 1.0000
vt 0.3333 1.0000
vt 0.5000 0.0000
vt 1.1667 0.0000
vt 1.1667 1.0000
vt 0.5000 1.0000
vt 0.8333 -0.0000
vt 1.3333 0.0000
vt 1.3333 1.0000
vt 0.8333 1.0000
vt 0.5000 0.0000
vt 2.0000 0.0000
vt 2.0000 1.0000
vt 0.5000 1.0000
vt 0.1667 0.0000
vt 1.3333 0.0000
vt 1.3333 1.0000
vt 0.1667 1.0000
vt 0.1667 0.0000
vt 1.0000 -0.0000
vt 1.0000 1.0000
vt 0.1667 1.0000
vt 0.3333 0.0000
vt 2.3333 0.0000
vt 2.3333 1.0000
vt 0.3333 1.0000
vt 0.1667 0.0000
vt 0.6667 -0.0000
vt 0.6667 1.0000
vt 0.1667 1.0000
vt 0.1667 0.0000
vt 0.6667 -0.0000
vt 0.6667 1.0000
vt 0.1667 1.0000
vt 0.3333 0.0000
vt 0.6667 -0.0000
vt 0.6667 1.0000
vt 0.3333 1.0000
vt 0.5000 0.0000
vt 2.0000 0.0000
vt 2.0000 1.0000
vt 0.5000 1.0000
vt 0.5000 0.0000
vt 3.0000 0.0000
vt 3.0000 1.0000
vt 0.5000 1.0000
vt 0.5000 0.0000
vt 1.5000 -0.0000
vt 1.5000 1.0000
vt 0.5000 1.0000
vt 0.1667 0.0000
vt 2.3333 0.0000
vt 2.3333 1.0000
vt 0.1667 1.0000
vt 0.6667 -0.0000
vt 1.1667 0.0000
vt 1.1667 1.0000
vt 0.6667 1.0000
vt 0.3333 0.0000
vt 0.6667 -0.0000
vt 0.6667 1.0000
vt 0.3333 1.0000
vt 0.3333 0.0000
vt 0.8333 -0.0000
vt 0.8333 1.0000
vt 0.3333 1.0000
vt 0.5000 0.0000
vt 4.3333 -0.0000
vt 4.3333 1.0000
vt 0.5000 1.0000
vt 0.6667 -0.0000
vt 3.0000 0.0000
vt 3.0000 1.0000
vt 0.6667 1.0000
vt 0.5000 0.0000
vt 3.1667 -0.0000
vt 3.1667 1.0000
vt 0.5000 1.0000
vt 0.0000 0.0000
vt 0.6667 -0.0000
vt 0.6667 1.0000
vt 0.0000 1.0000
vt 0.1667 0.0000
vt 0.6667 -0.0000
vt 0.6667 1.0000
vt 0.1667 1.0000
vt 0.5000 0.0000
vt 1.0000 -0.0000
vt 1.0000 1.0000
vt 0.5000 1.0000
vt 0.5000 0.0000
vt 1.1667 0.0000
vt 1.1667 1.0000
vt 0.5000 1.0000
vt 0.0000 0.0000
vt 1.1667 0.0000
vt 1.1667 1.0000
vt 0.0000 1.0000
vt 0.8333 -0.0000
vt 2.0000 0.0000
vt 2.0000 1.0000
vt 0.8333 1.0000
vt 0.1667 0.0000
vt 1.0000 -0.0000
vt 1.0000 1.0000
vt 0.1667 1.0000
vt 0.5000 0.0000
vt 0.8333 -0.0000
vt 0.8333 1.0000
vt 0.5000 1.0000
vt 0.0000 0.0000
vt 0.3333 0.0000
vt 0.3333 1.0000
vt 0.0000 1.0000
vt 0.0000 0.0000
vt 1.6667 0.0000
vt 1.6667 1.0000
vt 0.0000 1.0000
vt 0.5000 0.0000
vt 1.8333 0.0000
vt 1.8333 1.0000
vt 0.5000 1.0000
vt 0.5000 0.0000
vt 2.5000 0.0000
vt 2.5000 1.0000
vt 0.5000 1.0000
vn -0.0495 0.0000 -0.9988
vn -0.9988 0.0000 0.0498
vn 0.0567 0.0000 0.9984
vn 1.0000 0.0000 0.0079
vn 0.0788 0.0000 0.9969
vn 0.9807 0.0000 -0.1955
vn -0.1963 0.0000 -0.9805
vn -0.9911 0.0000 0.1334
vn -0.9564 0.0000 0.2919
vn 0.2914 0.0000 0.9566
vn -0.9480 0.0000 0.3184
vn 0.3103 0.0000 0.9506
vn 0.9480 0.0000 -0.3184
vn 0.9482 0.0000 -0.3176
vn 0.9485 0.0000 -0.3168
vn -0.2914 0.0000 -0.9566
vn -0.9911 0.0000 0.1328
vn 0.1323 0.0000 0.9912
vn 0.9911 0.0000 -0.1328
vn 0.1321 0.0000 0.9912
vn 0.9917 0.0000 -0.1287
vn -0.1320 0.0000 -0.9912
vn -0.8870 0.0000 0.4618
vn 0.4601 0.0000 0.8879
vn 0.8831 0.0000 -0.4692
vn -0.4689 0.0000 -0.8832
vn -0.9884 0.0000 0.1520
vn 0.1550 0.0000 0.9879
vn 0.9983 0.0000 -0.0578
vn -0.1547 0.0000 -0.9880
vn -0.1549 0.0000 -0.9879
vn -0.9880 0.0000 0.1547
vn 0.1547 0.0000 0.9880
vn 0.9880 0.0000 -0.1547
vn 1.0000 0.0000 -0.0097
vn -0.2065 0.0000 -0.9785
vn -0.9784 0.0000 0.2066
vn 0.2065 0.0000 0.9785
vn 0.9784 0.0000 -0.2066
vn -1.0000 0.0000 0.0097
vn 0.2065 0.0000 0.9784
vn 0.0139 0.0000 -0.9999
vn -0.9999 0.0000 -0.0139
vn -0.0139 0.0000 0.9999
vn 0.7333 0.0000 -0.6799
vn -0.0409 0.0000 -0.9992
vn -0.0567 0.0000 -0.9984
vn -0.9984 0.0000 0.0570
vn 0.0498 0.0000 0.9988
vn 0.9984 0.0000 -0.0567
vn 0.9750 0.0000 0.2221
vn -0.2224 0.0000 0.9750
vn 0.2224 0.0000 -0.9750
vn -0.9750 0.0000 -0.2221
vn -0.2204 0.0000 0.9754
vn 0.2051 0.0000 0.9787
vn 0.9788 0.0000 -0.2051
vn 0.9786 0.0000 -0.2056
vn -0.2051 0.0000 -0.9787
vn -0.9788 0.0000 0.2051
vn 0.1328 0.0000 0.9911
vn 0.9982 0.0000 -0.0593
vn -0.0747 0.0000 -0.9972
vn -0.9544 0.0000 0.2984
vn 0.2744 0.0000 0.9616
vn 0.9544 0.0000 -0.2984
vn 0.2714 0.0000 0.9625
vn -0.9360 0.0000 0.3519
vn 0.9360 0.0000 -0.3519
vn -0.2715 0.0000 -0.9625
vn 0.9955 0.0000 -0.0947
vn -0.0947 0.0000 -0.9955
vn -0.9955 0.0000 0.0947
vn 0.0947 0.0000 0.9955
vn -0.2147 0.0000 -0.9767
vn -0.9768 0.0000 0.2143
vn 0.2122 0.0000 0.9772
vn 0.9768 0.0000 -0.2143
vn 0.2147 0.0000 0.9767
vn 0.8717 0.0000 0.4900
vn -0.2540 0.0000 -0.9672
vn -0.9846 0.0000 0.1746
vn 0.4568 0.0000 -0.8896
vn -0.6593 0.0000 -0.7518
vn 0.4572 0.0000 -0.8894
vn -0.6606 0.0000 -0.7507
vn -0.4571 0.0000 0.8894
vn 0.6593 0.0000 0.7518
vn -0.7150 0.0000 -0.6991
vn -0.7012 0.0000 0.7129
vn -0.7159 0.0000 -0.6982
vn -0.6998 0.0000 0.7143
vn 0.7159 0.0000 0.6982
vn 0.7012 0.0000 -0.7129
g CityEngineMaterial_183_CityEngineMaterial_183_CityEngineMaterial_183_mat
usemtl CityEngineMaterial_183_mat
s 1
f 1/1/1 2/2/1 3/3/1 4/4/1
f 2/5/2 5/6/2 6/7/2 3/8/2
f 5/9/3 7/10/3 8/11/3 6/12/3
f 7/13/4 1/14/4 4/15/4 8/16/4
f 9/17/5 10/18/5 11/19/5 12/20/5
f 10/21/6 13/22/6 14/23/6 11/24/6
f 13/25/7 15/26/7 16/27/7 14/28/7
f 15/29/8 9/30/8 12/31/8 16/32/8
f 17/33/9 18/34/9 19/35/9 20/36/9
f 18/37/10 21/38/10 22/39/10 19/40/10
f 21/41/11 23/42/11 24/43/11 22/44/11
f 23/45/12 25/46/12 26/47/12 24/48/12
f 25/49/13 27/50/14 28/51/14 26/52/13
f 27/53/14 29/54/15 30/55/15 28/56/14
f 29/57/16 17/58/16 20/59/16 30/60/16
f 31/61/17 32/62/17 33/63/17 34/64/17
f 32/65/18 35/66/18 36/67/18 33/68/18
f 35/66/19 37/69/19 38/70/19 36/67/19
f 37/71/20 39/72/20 40/73/20 38/74/20
f 39/75/21 41/76/21 42/77/21 40/78/21
f 41/79/22 31/80/22 34/81/22 42/82/22
f 43/83/23 44/84/23 45/85/23 46/86/23
f 44/87/24 47/88/24 48/89/24 45/90/24
f 47/91/25 49/92/25 50/93/25 48/94/25
f 49/95/26 43/96/26 46/97/26 50/98/26
f 51/99/27 52/100/27 53/101/27 54/102/27
f 52/103/28 55/104/28 56/105/28 53/106/28
f 55/107/29 57/108/29 58/109/29 56/110/29
f 57/111/30 51/112/30 54/113/30 58/114/30
f 59/115/31 60/116/31 61/117/31 62/118/31
f 60/119/32 63/120/32 64/121/32 61/122/32
f 63/123/30 65/124/30 66/125/30 64/126/30
f 65/127/32 67/128/32 68/129/32 66/130/32
f 67/131/33 69/132/33 70/133/33 68/134/33
f 69/135/34 59/136/34 62/137/34 70/138/34
f 71/139/35 72/140/35 73/141/35 74/142/35
f 72/143/36 75/144/36 76/145/36 73/146/36
f 75/147/37 77/148/37 78/149/37 76/150/37
f 77/151/38 79/152/38 80/153/38 78/154/38
f 79/155/39 81/156/39 82/157/39 80/158/39
f 81/159/38 83/160/38 84/161/38 82/162/38
f 83/163/40 85/164/40 86/165/40 84/166/40
f 85/167/41 71/168/41 74/169/41 86/170/41
f 87/171/42 88/172/42 89/173/42 90/174/42
f 88/175/43 91/176/43 92/177/43 89/178/43
f 91/179/44 93/180/44 94/181/44 92/182/44
f 93/183/45 87/184/45 90/185/45 94/186/45
f 95/187/46 96/188/46 97/189/46 98/190/46
f 96/191/47 99/192/47 100/193/47 97/194/47
f 99/195/48 101/196/48 102/197/48 100/198/48
f 101/199/49 103/200/49 104/201/49 102/202/49
f 103/203/50 95/204/50 98/205/50 104/206/50
f 105/207/51 106/208/51 107/209/51 108/210/51
f 106/211/52 109/212/52 110/213/52 107/214/52
f 109/215/51 111/216/51 112/217/51 110/218/51
f 111/219/53 113/220/53 114/221/53 112/222/53
f 113/223/54 115/224/54 116/225/54 114/226/54
f 115/227/55 105/228/55 108/229/55 116/230/55
f 117/231/56 118/232/56 119/233/56 120/234/56
f 118/232/57 121/235/57 122/236/57 119/233/57
f 121/237/56 123/238/56 124/239/56 122/240/56
f 123/241/58 125/242/58 126/243/58 124/244/58
f 125/245/59 127/246/59 128/247/59 126/248/59
f 127/249/60 117/250/60 120/251/60 128/252/60
f 129/253/17 130/254/17 131/255/17 132/256/17
f 130/257/61 133/258/61 134/259/61 131/260/61
f 133/261/62 135/262/62 136/263/62 134/264/62
f 135/265/19 137/266/19 138/267/19 136/268/19
f 137/269/63 129/270/63 132/271/63 138/272/63
f 139/273/64 140/274/64 141/275/64 142/276/64
f 140/277/65 143/278/65 144/279/65 141/280/65
f 143/281/66 145/282/66 146/283/66 144/284/66
f 145/285/67 147/286/67 148/287/67 146/288/67
f 147/289/68 149/290/68 150/291/68 148/292/68
f 149/293/65 151/294/65 152/295/65 150/296/65
f 151/297/69 153/298/69 154/299/69 152/300/69
f 153/301/70 139/302/70 142/303/70 154/304/70
f 155/305/71 156/306/71 157/307/71 158/308/71
f 156/309/72 159/310/72 160/311/72 157/312/72
f 159/313/73 161/314/73 162/315/73 160/316/73
f 161/317/74 163/318/74 164/319/74 162/320/74
f 163/321/73 165/322/73 166/323/73 164/324/73
f 165/325/74 155/326/74 158/327/74 166/328/74
f 167/329/75 168/330/75 169/331/75 170/332/75
f 168/333/76 171/334/76 172/335/76 169/336/76
f 171/337/77 173/338/77 174/339/77 172/340/77
f 173/341/78 175/342/78 176/343/78 174/344/78
f 175/345/79 177/346/79 178/347/79 176/348/79
f 177/349/78 167/350/78 170/351/78 178/352/78
f 179/353/80 180/354/80 181/355/80 182/356/80
f 180/357/81 183/358/81 184/359/81 181/360/81
f 183/361/82 179/362/82 182/363/82 184/364/82
f 185/365/83 186/366/83 187/367/83 188/368/83
f 186/369/84 189/370/84 190/371/84 187/372/84
f 189/373/85 191/374/85 192/375/85 190/376/85
f 191/377/86 193/378/86 194/379/86 192/380/86
f 193/381/87 195/382/87 196/383/87 194/384/87
f 195/385/88 185/386/88 188/387/88 196/388/88
f 197/389/89 198/390/89 199/391/89 200/392/89
f 198/393/90 201/394/90 202/395/90 199/396/90
f 201/397/91 203/398/91 204/399/91 202/400/91
f 203/401/92 205/402/92 206/403/92 204/404/92
f 205/405/93 207/406/93 208/407/93 206/408/93
f 207/409/94 197/410/94 200/411/94 208/412/94
