# Blender v2.78 (sub 0) OBJ File: ''
# www.blender.org
mtllib CityEngineMaterial_812.mtl
o CityEngineMaterial_812
v -38.244701 46.671040 -877.294373
v -38.923801 46.671043 -881.592529
v -48.669800 46.671043 -880.070312
v -45.872398 46.671040 -876.600525
v -48.070702 46.671040 -876.257080
v -45.795700 46.671040 -876.114502
v -41.054901 47.737946 -880.048218
v -40.621201 47.737942 -877.303528
v -38.674801 47.737942 -877.607788
v -39.236500 47.737946 -881.163208
v -48.112598 47.737946 -878.945801
v -48.240002 47.737946 -879.757019
v -487.046600 5.193806 -37.219700
v -485.006104 5.193803 -16.538700
v -476.365814 5.193803 -17.400200
v -476.740601 5.193806 -37.368198
v -485.834198 42.645607 -36.136791
v -484.019287 42.645603 -17.742792
v -479.335999 42.645603 -18.209692
v -481.106812 42.645607 -36.204994
v -482.991486 43.455402 -27.189192
v -481.380890 43.455402 -27.212393
v -482.150787 43.455402 -35.036392
v -484.563202 43.455402 -35.001694
v -482.191895 43.455402 -19.084093
v -482.984894 43.455402 -19.004992
v 69.068604 10.368750 311.356201
v 73.525398 10.368750 310.173615
v 74.438400 10.368750 309.909912
v 73.893898 10.368750 308.238403
v 64.588203 10.368750 312.590515
v 67.803703 10.368751 305.544708
v 77.678101 10.368751 304.902588
v 77.170601 10.368750 308.048401
v 78.698502 10.368750 308.041290
v 72.467796 10.368751 305.172485
v 77.072304 10.368751 304.905487
v 63.098801 10.368751 305.876312
v 58.379002 10.368751 306.016388
v 57.515400 10.368751 306.015106
v 60.123402 10.368749 314.020905
v 68.022598 11.209249 308.534790
v 63.605701 11.209249 309.290985
v 64.588203 11.209249 312.590515
v 68.028297 11.209249 308.533813
v 68.292702 11.209249 308.487213
v 69.068604 11.209249 311.356201
v 73.368896 11.183249 310.215088
v 73.092796 11.183249 309.194214
v 70.955704 11.183249 308.031494
v 68.292801 11.183249 308.487213
v 69.068604 11.183249 311.356201
v 74.438400 11.307650 309.909912
v 73.282600 11.307650 309.297394
v 73.525398 11.307650 310.173615
v 71.779900 11.363450 306.795410
v 70.955704 11.363350 308.031403
v 73.282600 11.363350 309.297394
v 74.438400 11.363350 309.909912
v 73.893898 11.363350 308.238403
v 76.548103 11.252650 306.510193
v 72.575798 11.252650 306.740601
v 71.779900 11.252650 306.795410
v 73.893898 11.252649 308.238403
v 76.104103 11.252649 308.110291
v 78.698502 10.998650 308.041290
v 77.135002 10.998651 306.911102
v 77.170601 10.998650 308.048401
v 77.678101 11.533251 304.902588
v 77.097298 11.533251 305.706085
v 76.548103 11.533251 306.510193
v 77.135002 11.533251 306.911102
v 78.698502 11.533250 308.041290
v 77.072304 11.547251 304.905487
v 77.097298 11.547251 305.706085
v 77.678101 11.547251 304.902710
v 72.467796 11.427350 305.172485
v 72.575897 11.427350 306.740601
v 76.548103 11.427350 306.510193
v 77.097298 11.427350 305.706085
v 77.072304 11.427350 304.905487
v 68.292801 10.893950 308.487213
v 70.955704 10.893950 308.031494
v 71.779900 10.893950 306.795410
v 72.467796 10.893950 305.172485
v 72.575798 10.893950 306.740509
v 68.028297 10.893950 308.533813
v 67.803703 10.893950 305.544800
v 63.605598 11.363549 309.290985
v 68.028297 11.363549 308.533813
v 67.803703 11.363550 305.544708
v 63.272999 11.363549 309.355103
v 63.098801 11.363550 305.876312
v 58.387901 11.224051 306.649506
v 62.437302 11.224050 309.498413
v 63.272999 11.224050 309.355103
v 63.098801 11.224051 305.876312
v 58.379002 11.224051 306.016388
v 57.515400 11.346650 306.015106
v 58.387901 11.346650 306.649597
v 58.379002 11.346650 306.016388
v 58.387901 11.148951 306.649506
v 57.515400 11.148951 306.015106
v 60.123402 11.148949 314.020905
v 62.437302 11.148950 309.498413
v 63.272999 10.957150 309.355103
v 62.437302 10.957150 309.498413
v 60.123402 10.957149 314.020905
v 63.605598 10.957150 309.290985
v 64.588203 10.957150 312.590515
v -200.082993 6.218585 705.803589
v -207.070404 6.218584 712.273682
v -201.715607 6.218583 718.066895
v -196.763000 6.218583 718.531921
v -192.215103 6.218584 714.311584
v -194.384293 6.926984 712.040405
v -199.519196 6.926985 706.487610
v -202.704300 6.926985 709.432983
v -197.569305 6.926984 714.985779
v -200.413193 6.926984 711.910522
v -205.573303 6.926984 712.086182
v -203.282196 6.926984 714.563721
v 325.018311 33.780079 134.202896
v 331.923096 33.780079 133.810898
v 331.105011 33.780083 119.905510
v 328.128113 33.780083 123.468208
v 327.928894 33.780083 120.083405
v 324.420502 33.780083 123.678711
v 331.844788 34.493877 132.479202
v 331.384613 34.493881 124.657906
v 327.032196 34.493881 124.914009
v 327.492310 34.493877 132.735306
v 327.438507 34.493877 131.820999
v 327.271515 34.493877 128.981094
v 324.754486 34.493877 129.129196
v 324.921600 34.493877 131.969101
v 289.428192 28.205578 141.364304
v 290.504791 28.205574 160.326004
v 310.141998 28.205574 159.203506
v 309.063812 28.205578 140.249405
v 301.348206 83.870880 140.687515
v 302.424500 83.870880 159.644714
v 310.141998 83.870880 159.203522
v 309.063812 83.870880 140.249420
v 305.951294 85.027275 145.730408
v 308.651306 85.027275 145.577118
v 308.391205 85.027275 141.003220
v 302.101990 85.027275 141.360321
v 306.686798 85.027275 158.685410
v 303.097198 85.027275 158.890610
v -26.073000 22.842442 -251.838699
v -27.391899 22.842442 -256.572388
v -33.444401 22.842442 -255.509598
v -31.284599 22.842442 -251.962204
v -32.411400 22.842442 -251.764404
v -30.895901 22.842440 -250.567093
v -30.518700 23.369541 -254.413895
v -29.683701 23.369539 -251.416794
v -26.706301 23.369541 -252.201797
v -27.760900 23.369541 -255.987106
v -32.513802 23.369541 -254.063599
v -32.800400 23.369541 -255.102295
vt 0.0000 0.0001
vt 0.0006 1.0000
vt 0.7274 1.0000
vt 0.5632 0.1130
vt 0.7271 0.1130
vt 0.5631 0.0000
vt 0.2467 0.7719
vt 0.2461 0.0000
vt 0.0000 0.0001
vt 0.0008 1.0000
vt 1.1390 0.7719
vt 1.1391 1.0000
vt -0.0000 0.7274
vt 0.7125 0.7274
vt 0.7122 0.1124
vt 0.0296 -0.0000
vt 0.0000 1.0000
vt 0.6916 1.0000
vt 0.6914 0.0010
vt 0.0148 0.0000
vt 0.2926 0.6685
vt 0.2976 0.0009
vt 0.0075 0.0000
vt 0.0000 1.0000
vt 0.5932 0.6685
vt 0.5932 1.0000
vt 0.6428 0.3697
vt 0.6618 0.2026
vt 0.6642 0.1681
vt 0.5337 0.1681
vt 0.6269 0.5382
vt 0.2034 0.3480
vt 0.3852 0.0000
vt 0.5956 0.0529
vt 0.6303 0.0001
vt 0.2844 0.1828
vt 0.3715 0.0209
vt 0.1186 0.5141
vt 0.0200 0.6785
vt 0.0000 0.7083
vt 0.6252 0.7083
vt 0.9423 0.1290
vt 0.0000 0.0001
vt 0.0150 1.0000
vt 0.9435 0.1292
vt 1.0000 0.1365
vt 0.9970 1.0000
vt 1.0000 1.0000
vt 0.9989 0.6441
vt 0.6029 0.0816
vt 0.0000 0.0001
vt 0.0031 1.0000
vt 0.0000 1.0000
vt 1.0000 1.0000
vt 0.5223 0.0000
vt 0.0337 0.0000
vt 0.0000 1.0000
vt 0.6695 1.0000
vt 1.0000 0.9904
vt 0.6773 0.1739
vt 0.0000 1.0000
vt 0.8330 1.0000
vt 1.0000 0.9945
vt 0.5757 -0.0000
vt 0.1122 -0.0000
vt 0.0000 1.0000
vt 1.0000 1.0000
vt 0.6397 0.0000
vt 1.0000 1.0000
vt 0.8229 0.4905
vt 0.6427 0.0000
vt 0.4721 0.2763
vt 0.0000 1.0000
vt 0.6397 0.0000
vt 0.0000 1.0000
vt 1.0000 1.0000
vt 1.0000 1.0000
vt 0.9963 0.0000
vt 0.1336 0.0000
vt 0.0046 0.4905
vt 0.0000 1.0000
vt 0.9430 0.0084
vt 0.3697 0.0893
vt 0.1736 0.4785
vt 0.0000 1.0000
vt 0.0036 0.4757
vt 1.0000 -0.0000
vt 0.9970 1.0000
vt 0.9299 0.0116
vt -0.0000 0.1393
vt 0.0029 1.0000
vt 1.0000 -0.0000
vt 0.9852 1.0000
vt 0.0627 1.0000
vt 0.8985 1.0000
vt 1.0000 0.8211
vt 0.6380 0.0000
vt 0.0000 0.8466
vt 0.0000 1.0000
vt 1.0000 1.0000
vt 0.6481 -0.0000
vt 0.0724 0.8242
vt 0.0000 1.0000
vt 0.6975 1.0000
vt 0.4007 0.0000
vt 0.0360 0.7958
vt 0.1236 1.0000
vt 1.0000 1.0000
vt 0.0000 0.7154
vt 0.4295 0.0000
vt 1.3704 1.1577
vt 1.3697 0.0002
vt 0.4376 -0.0000
vt 0.0000 0.4036
vt 0.0013 1.1577
vt 0.0000 1.0000
vt 1.0000 1.0000
vt 1.0000 -0.0000
vt 0.0000 0.0001
vt 0.0000 0.0001
vt 0.0000 1.0000
vt 1.0000 1.0000
vt 1.0000 -0.0000
vt 0.0015 0.0000
vt 0.0000 1.0000
vt 1.4574 1.0000
vt 1.1036 0.5400
vt 1.4583 0.5400
vt 1.1044 0.0031
vt 0.0000 1.0000
vt 1.0000 1.0000
vt 1.0000 -0.0000
vt 0.0000 0.0001
vt 0.0000 1.0000
vt 1.0000 1.0000
vt 1.0000 -0.0000
vt 0.0000 0.0001
vt 0.0003 0.0000
vt 0.0000 0.8340
vt 0.8274 0.8340
vt 0.8276 0.0003
vt 0.0000 1.0000
vt 0.7636 1.0000
vt 0.7635 -0.0000
vt -0.0000 0.0003
vt 0.2704 0.4293
vt 0.2704 -0.0000
vt 0.0000 0.0001
vt 0.0000 1.0000
vt 1.0364 0.4293
vt 1.0365 1.0000
vt -0.0000 0.0788
vt 0.0725 1.0000
vt 1.0000 1.0000
vt 0.7715 0.2715
vt 0.9442 0.2715
vt 0.7502 0.0000
vt 0.6131 0.7427
vt 0.5578 0.0000
vt 0.0000 0.0620
vt 0.0698 1.0000
vt 0.9814 0.7427
vt 1.0000 1.0000
vn 0.0000 1.0000 0.0000
vn -0.0000 1.0000 0.0001
vn 0.0001 1.0000 -0.0000
g CityEngineMaterial_812_CityEngineMaterial_812_CityEngineMaterial_812_mat
usemtl CityEngineMaterial_812_mat
s 1
f 1/1/1 2/2/1 3/3/1 4/4/1
f 3/3/1 5/5/1 4/4/1
f 1/1/1 4/4/1 6/6/1
f 7/7/1 8/8/1 9/9/1 10/10/1
f 11/11/1 7/7/1 10/10/1 12/12/1
f 13/13/1 14/14/1 15/15/1 16/16/1
f 17/17/1 18/18/1 19/19/1 20/20/1
f 21/21/1 22/22/1 23/23/1 24/24/1
f 25/25/1 21/21/1 24/24/1 26/26/1
f 27/27/1 28/28/1 29/29/1 30/30/1
f 31/31/1 27/27/1 30/30/1 32/32/1
f 33/33/1 32/32/1 30/30/1 34/34/1
f 34/34/1 35/35/1 33/33/1
f 36/36/1 32/32/1 33/33/1 37/37/1
f 31/31/1 32/32/1 38/38/1 39/39/1
f 31/31/1 39/39/1 40/40/1 41/41/1
f 42/42/1 43/43/1 44/44/1 45/45/1
f 46/46/1 45/45/1 44/44/1 47/47/1
f 48/48/1 49/49/1 50/50/1 51/51/1
f 48/48/1 51/51/1 52/52/1
f 53/53/1 54/54/1 55/55/1
f 56/56/1 57/57/2 58/58/2 59/59/1
f 56/56/1 59/59/1 60/60/3
f 61/61/1 62/62/1 63/63/1 64/64/1
f 61/61/1 64/64/1 65/65/1
f 66/66/1 67/67/1 68/68/1
f 69/69/1 70/70/1 71/71/1 72/72/1
f 69/69/1 72/72/1 73/73/1
f 74/74/1 75/75/1 76/76/1
f 77/77/1 78/78/1 79/79/1 80/80/1
f 77/77/1 80/80/1 81/81/1
f 82/82/1 83/83/1 84/84/1 85/85/1
f 84/84/1 86/86/1 85/85/1
f 87/87/1 82/82/1 85/85/1 88/88/1
f 89/89/1 90/90/1 91/91/1 92/92/1
f 92/92/1 91/91/1 93/93/1
f 94/94/1 95/95/1 96/96/1 97/97/1
f 94/94/1 97/97/1 98/98/1
f 99/99/1 100/100/1 101/101/1
f 102/102/1 103/103/1 104/104/1 105/105/1
f 106/106/1 107/107/1 108/108/1 109/109/1
f 109/109/1 108/108/1 110/110/1
f 111/111/1 112/112/1 113/113/1 114/114/1
f 111/111/1 114/114/1 115/115/1
f 116/116/1 117/117/1 118/118/1 119/119/1
f 120/120/1 118/121/1 121/122/1 122/123/1
f 123/124/1 124/125/1 125/126/1 126/127/1
f 125/126/1 127/128/1 126/127/1
f 128/129/1 123/124/1 126/127/1
f 129/130/1 130/131/1 131/132/1 132/133/1
f 133/134/1 134/135/1 135/136/1 136/137/1
f 137/138/1 138/139/1 139/140/1 140/141/1
f 141/142/1 142/143/1 143/144/1 144/145/1
f 145/146/1 146/147/1 147/148/1 148/149/1
f 149/150/1 145/146/1 148/149/1 150/151/1
f 151/152/1 152/153/1 153/154/1 154/155/1
f 153/154/1 155/156/1 154/155/1
f 151/152/1 154/155/1 156/157/1
f 157/158/1 158/159/1 159/160/1 160/161/1
f 161/162/1 157/158/1 160/161/1 162/163/1
