# Blender v2.78 (sub 0) OBJ File: ''
# www.blender.org
mtllib CityEngineMaterial_346.mtl
o CityEngineMaterial_346
v -1343.540039 25.586428 446.630890
v -1348.460571 25.586428 445.068512
v -1350.319214 25.586426 452.256409
v -1350.061157 25.586426 452.338287
v -1351.781738 25.586426 458.990997
v -1347.053589 25.586426 460.215393
v -1345.025024 26.141926 452.372009
v -1343.843994 26.141928 447.805908
v -1346.814087 26.141928 447.037811
v -1347.994995 26.141926 451.603790
v -1347.518677 26.141928 449.762390
v -1348.834229 26.141928 446.515289
v -1349.538940 26.141928 449.239899
v -742.376770 12.162424 468.964294
v -744.436218 12.162424 468.796692
v -744.968018 12.162423 475.267303
v -737.346985 12.162423 475.887512
v -742.230713 12.162424 467.187286
v -736.669617 12.162424 467.645599
v -742.159485 12.861224 469.948608
v -742.533386 12.861223 474.498108
v -737.268127 12.861223 474.927887
v -736.894226 12.861224 470.378387
v -744.768188 12.861223 472.835999
v -744.888916 12.861223 474.305908
v -742.412720 12.861223 473.029602
v -744.515015 12.861224 469.756287
v -744.603088 12.861224 470.828186
v -742.247681 12.861224 471.021790
v -586.914429 6.808485 89.471497
v -607.293701 6.808485 93.006798
v -603.462891 6.808382 115.048599
v -584.833801 6.808382 112.053200
v -588.154114 14.830385 91.090202
v -605.694214 14.830385 94.132896
v -604.148682 14.830383 103.025902
v -587.323303 14.830384 100.107201
v -587.323303 15.869584 100.107201
v -595.762329 15.869584 101.571098
v -593.933228 15.869582 112.115501
v -586.329529 15.869582 110.892899
v -595.173828 15.900784 95.956497
v -594.919312 15.900784 98.718803
v -590.204224 15.900784 97.900803
v -590.544128 15.900784 94.210899
v -602.451599 15.900784 97.219002
v -602.610718 15.900784 96.304100
v -586.528381 16.456182 109.176102
v -587.143677 16.456182 102.498100
v -591.416382 16.456182 102.891701
v -590.801086 16.456182 109.569702
v 284.121887 24.038872 173.612793
v 265.309814 24.038872 174.692093
v 266.090302 24.038870 189.311707
v 284.952515 24.038870 188.240707
v 271.898895 66.688072 174.314117
v 265.309814 66.687973 174.692215
v 266.090302 66.687973 189.311722
v 272.728912 66.687973 188.934814
v 265.435913 67.224472 176.431808
v 266.031708 67.224472 187.593323
v 269.449493 67.224472 187.410812
v 268.853607 67.224472 176.249313
v 269.015106 67.224472 179.274216
v 269.170013 67.224472 182.174118
v 272.309509 67.224472 182.006516
v 272.154694 67.224472 179.106613
v -335.177612 6.555026 457.061798
v -333.633911 6.555023 473.291901
v -309.642700 6.555023 470.982513
v -311.185913 6.555026 454.757507
v -318.972687 17.500126 457.207703
v -317.750214 17.500124 470.060608
v -311.489807 17.500124 469.458008
v -312.712189 17.500126 456.606415
v -333.330414 17.500126 458.586700
v -332.107605 17.500124 471.442688
v -325.250610 17.500124 470.782715
v -326.473297 17.500126 457.928101
v -326.041504 17.500124 462.468292
v -318.540192 17.500126 461.754791
v -329.760986 17.911123 466.624207
v -327.805115 17.911123 466.436310
v -328.393097 17.911125 460.253693
v -331.006989 17.911125 460.504700
v -329.529999 17.911123 469.053314
v -330.187897 17.911123 469.116608
v -318.896210 18.115126 458.012390
v -317.826813 18.115124 469.255188
v -313.669098 18.115124 468.855591
v -314.738403 18.115126 457.613495
v -323.483307 18.447224 468.319702
v -318.082886 18.447224 467.806000
v -318.646301 18.447226 461.883209
v -325.913086 18.447224 462.574402
v -323.278412 18.447224 470.474396
v -325.144592 18.447224 470.654114
v -314.523285 18.115126 459.874695
v -312.420288 18.115126 459.674713
v -312.635590 18.115126 457.411804
v -314.098297 18.115124 464.342987
v -311.566315 18.115124 468.653412
v -311.995300 18.115124 464.143005
v -187.865799 8.071159 860.530518
v -194.637604 8.071158 868.069885
v -187.834198 8.071157 874.190002
v -186.192993 8.071159 863.103577
v -183.309906 8.071158 865.697083
v -182.778900 8.071158 865.106384
v -181.057800 8.071158 866.654602
v -185.662292 8.071159 862.512695
v -186.649200 8.493459 863.569397
v -192.023407 8.493458 869.545471
v -187.398605 8.493458 873.705627
v -182.024399 8.493459 867.729370
v -189.907303 8.493460 862.803223
v -192.598007 8.493459 865.799377
v -190.417694 8.493459 867.760071
v -187.724899 8.493459 864.765686
v 121.772003 44.202061 -982.922485
v 129.686295 44.202061 -983.872375
v 129.441803 44.202061 -988.145203
v 126.204597 44.202061 -987.756714
v 120.167999 44.202065 -996.257690
v 125.634003 44.202061 -992.500488
v 129.170303 44.202061 -992.892517
v 128.922302 44.202065 -997.227905
v 158.517899 53.395016 -695.948792
v 167.948196 53.395016 -698.496277
v 167.451797 53.395016 -700.335815
v 166.882294 53.395016 -700.181885
v 166.319199 53.395016 -702.270874
v 165.947495 53.395016 -705.910828
v 166.904602 53.395016 -702.363525
v 156.246201 53.395016 -704.375977
v 165.868500 53.927513 -705.788879
v 156.381699 53.927513 -704.288086
v 157.757507 53.927513 -699.184692
v 166.183701 53.927513 -702.358826
v 158.599304 53.927513 -699.317810
v 166.806198 53.927513 -700.049377
v 167.815796 53.927513 -698.572388
v 159.412292 53.927513 -696.302185
v 167.375702 53.927513 -700.203308
v 166.768997 53.927513 -702.451416
v -241.621796 7.278893 43.590199
v -247.911606 7.278893 44.463100
v -247.501495 7.278893 47.404900
v -242.496506 7.278893 46.710300
v -242.358200 7.278893 47.707199
v -241.075394 7.278893 47.529099
v -243.449295 7.840493 45.001499
v -243.301804 7.840492 46.065300
v -242.059097 7.840492 45.892899
v -242.261307 7.840493 44.435699
v -247.010803 7.840492 45.495800
v -247.065598 7.840493 45.102501
v -693.468811 35.574551 -916.890503
v -689.867676 35.574551 -917.987671
v -691.289673 35.574551 -922.708496
v -698.921875 35.574551 -920.383118
v -692.108276 35.574551 -912.388428
v -694.765686 35.574551 -906.628723
v -688.508118 35.574551 -913.474121
v -687.138977 35.574551 -908.928711
v -1188.738037 18.416140 370.592987
v -1188.434814 18.416142 362.873901
v -1192.810791 18.416142 362.700989
v -1192.848633 18.416142 363.664886
v -1197.125366 18.416142 363.495911
v -1198.468262 18.416140 370.208588
v -1196.170166 19.874140 370.265594
v -1190.004883 19.874140 370.509186
v -1189.869141 19.874142 367.071289
v -1196.034302 19.874142 366.827789
v -1193.838501 19.874142 366.914490
v -1193.708740 19.874142 363.630890
v -1195.904663 19.874142 363.544098
v 391.553589 59.159542 -265.273804
v 381.467499 59.159542 -264.162415
v 383.787201 59.159538 -243.230377
v 397.478699 59.159538 -244.729187
v 384.269287 95.239449 -264.471069
v 381.467499 95.239449 -264.162262
v 383.787201 95.239441 -243.230377
v 390.192688 95.239441 -243.931580
v 389.713196 95.729340 -244.252884
v 383.998901 95.729347 -264.067383
v 382.479614 95.729347 -263.899963
v 384.450409 95.729340 -257.066467
v 384.115601 95.729340 -243.640091
v 382.649597 95.729340 -256.869263
v -135.372894 13.164047 -295.347900
v -137.621201 13.164050 -307.900513
v -157.044800 13.164048 -297.449005
v -154.163300 13.164047 -292.093292
v -136.259506 63.456249 -295.968903
v -138.186798 63.456249 -306.729401
v -156.011002 63.456249 -297.138611
v -153.751801 63.456249 -292.939209
v -138.413300 64.469551 -306.260498
v -155.597198 64.469543 -297.014313
v -153.678299 64.469543 -293.447693
v -146.556000 64.469543 -297.279999
v -146.072296 64.469543 -294.579407
v -136.614502 64.469543 -296.217590
v -261.166687 5.675331 421.545593
v -263.071594 5.675334 401.981689
v -287.418610 5.675334 404.314911
v -285.558990 5.675331 423.865692
v -276.189514 16.724031 421.306000
v -277.771515 16.724033 405.059113
v -285.607788 16.724033 405.809998
v -284.062714 16.724031 422.054810
v -262.981201 16.724031 420.049713
v -264.564087 16.724035 403.793396
v -271.533905 16.724033 404.461304
v -269.951508 16.724031 420.712585
v -270.682190 16.724033 413.208405
v -276.918915 16.724033 413.815704
v -267.382294 17.780233 412.385712
v -269.904907 17.780233 412.625702
v -269.205597 17.780231 419.807800
v -263.888092 17.780231 419.302002
v -268.104614 17.780233 404.966705
v -265.309998 17.780233 404.698792
v -276.425812 17.319832 419.286591
v -277.623291 17.319834 406.987396
v -282.645691 17.319834 407.476501
v -281.448090 17.319832 419.775604
v -281.770386 17.319832 416.465790
v -284.544006 17.319832 416.735901
v -284.221802 17.319832 420.045685
v -273.329895 17.230034 411.916595
v -273.883209 17.230034 406.233795
v -277.622009 17.230034 406.594086
v -277.068298 17.230034 412.280609
v -271.245087 17.230034 407.426788
v -271.384796 17.230034 405.993011
v -273.743286 17.230034 407.670013
v -549.401123 19.324106 -652.773315
v -546.797424 19.324104 -644.252380
v -544.185120 19.324104 -645.047913
v -544.331482 19.324104 -645.527222
v -538.509827 19.324104 -647.296692
v -535.752686 19.324104 -647.615417
v -538.364929 19.324104 -646.820007
v -538.343872 19.324106 -656.134216
v -548.565186 20.793106 -653.027405
v -547.092285 20.793104 -648.203186
v -537.711914 20.793106 -651.054382
v -539.179504 20.793106 -655.880188
v -542.655396 20.793104 -649.551819
v -541.677429 20.793104 -646.333923
v -538.671509 20.793104 -647.247620
v -539.649597 20.793106 -650.465515
vt 1.2670 1.0000
vt 1.2923 -0.0000
vt 0.6220 0.0001
vt 0.6206 0.0525
vt 0.0001 0.0525
vt -0.0000 1.0000
vt -0.0000 1.0000
vt 1.0000 1.0000
vt 1.0000 0.0000
vt 0.0000 0.0000
vt -0.0000 1.0000
vt 1.0000 1.0000
vt 1.0000 0.0000
vt 0.0000 0.0000
vt 0.8098 0.2702
vt 0.8096 0.0000
vt 0.0000 0.0000
vt 0.0008 1.0000
vt 1.0321 0.2702
vt 1.0320 1.0000
vt 0.0005 -0.0000
vt -0.0000 1.0000
vt 0.9995 1.0000
vt 1.0000 0.0000
vt 0.0004 0.0000
vt -0.0000 1.0000
vt 0.9996 1.0000
vt 1.0000 0.0009
vt 0.0000 0.0012
vt -0.0000 1.0000
vt 1.0000 1.0000
vt 1.0000 0.0000
vt 0.8974 1.0041
vt 0.8355 0.0000
vt -0.0000 0.0873
vt 0.0477 1.0041
vt -0.0000 0.5749
vt 0.6733 0.5749
vt 0.6732 0.0000
vt 0.0273 0.0000
vt 1.1150 0.5917
vt 1.0479 -0.0000
vt 0.0000 0.0592
vt 0.0511 0.5917
vt 0.5817 0.7486
vt 0.6082 0.0000
vt 0.0354 0.0000
vt -0.0000 1.0000
vt 1.4658 0.7486
vt 1.4659 1.0000
vt -0.0000 1.0000
vt 1.0000 1.0000
vt 1.0000 0.0000
vt 0.0000 0.0000
vt 1.0755 -0.0000
vt 0.0028 0.0011
vt -0.0000 1.4838
vt 1.0755 1.4838
vt 0.0000 0.0074
vt 0.0017 1.0000
vt 0.9436 1.0000
vt 0.9421 0.0000
vt -0.0000 1.0000
vt 1.1463 1.0000
vt 1.1463 0.0000
vt 0.0000 0.0000
vt 0.0000 0.0000
vt -0.0000 1.0000
vt 1.0000 1.0000
vt 1.0000 0.0000
vt 0.0006 -0.0000
vt 0.0000 0.6346
vt 0.7898 0.6346
vt 0.7904 0.0002
vt 0.0006 1.0000
vt 1.3515 1.0000
vt 1.3508 0.0000
vt 0.0000 0.0000
vt 0.0006 1.0000
vt 1.2058 1.0000
vt 1.2051 -0.0000
vt 0.0000 0.0000
vt -0.0000 1.0000
vt 0.7010 1.0000
vt 0.7002 0.0000
vt 0.0000 0.0000
vt 0.4249 0.7483
vt 0.4248 0.0000
vt 0.0000 0.0000
vt 0.0002 1.0000
vt 0.5918 0.7483
vt 0.5918 1.0000
vt 0.0002 1.0000
vt 0.8586 1.0000
vt 0.8583 0.0000
vt 0.0000 0.0000
vt 0.3799 0.7432
vt 0.3799 0.0000
vt 0.0000 0.0000
vt -0.0000 1.0000
vt 0.5181 0.7432
vt 0.5182 1.0000
vt 0.9993 0.0000
vt 0.0000 0.0000
vt -0.0000 1.0000
vt 1.0000 1.0000
vt -0.0000 1.0000
vt 1.0000 1.0000
vt 0.9995 0.0000
vt 0.0000 0.0000
vt 0.0000 0.6006
vt 0.6578 0.6006
vt 0.6582 0.0004
vt 0.0517 0.4062
vt 0.0519 0.1518
vt 0.0003 0.1518
vt 0.0005 -0.0000
vt 0.0001 0.4062
vt -0.0000 1.0000
vt 0.5588 1.0000
vt 0.5589 0.0000
vt 0.0000 0.0000
vt -0.0000 1.0000
vt 0.9995 1.0000
vt 1.0000 0.0009
vt 0.0005 -0.0000
vt 1.5739 0.8762
vt 1.5742 0.0832
vt 1.0736 0.0566
vt 1.0735 0.3810
vt -0.0000 0.8762
vt 0.5136 0.3810
vt 0.5175 0.0270
vt 0.0096 -0.0000
vt 0.7684 -0.0000
vt -0.0000 0.1117
vt 0.0160 0.3146
vt 0.0625 0.3079
vt 0.0806 0.5384
vt 0.0647 0.9297
vt 0.0337 0.5384
vt 0.8418 0.9297
vt 0.0565 0.6704
vt 0.7384 0.6704
vt 0.6985 0.2490
vt 0.0724 0.3948
vt 0.6380 0.2490
vt 0.0544 0.2041
vt 0.0000 0.0745
vt 0.6144 -0.0000
vt 0.0128 0.2092
vt 0.0304 0.3948
vt -0.0000 1.0000
vt 1.0000 1.0000
vt 0.9997 0.2531
vt 0.2040 0.2531
vt 0.2040 0.0000
vt 0.0000 0.0000
vt 0.2586 0.7301
vt 0.2587 0.0000
vt 0.0000 0.0000
vt -0.0000 1.0000
vt 1.0000 0.7301
vt 1.0000 1.0000
vt 0.4691 0.3151
vt 0.4682 0.0004
vt 0.0000 0.0000
vt 0.0017 0.6671
vt 0.9157 0.3151
vt 1.3664 0.6671
vt 0.9159 0.0007
vt 1.3668 0.0011
vt 1.0384 1.0000
vt 1.0382 0.0000
vt 0.5712 0.0000
vt 0.5712 0.1249
vt 0.1148 0.1249
vt -0.0000 1.0000
vt -0.0000 1.0000
vt 1.0000 1.0000
vt 1.0000 0.0000
vt 0.0000 0.0000
vt -0.0000 1.0000
vt 1.0000 1.0000
vt 1.0000 0.0000
vt 0.8879 1.1368
vt 0.9596 0.2992
vt 0.0977 -0.0000
vt -0.0000 1.1368
vt 0.8256 1.0000
vt 0.8442 0.5625
vt 0.0425 0.0000
vt -0.0000 1.0000
vt -0.0000 1.0000
vt 0.7929 1.0000
vt 0.8029 0.7285
vt 0.5295 0.7285
vt 0.0370 0.0000
vt 0.5414 0.4068
vt 0.2313 0.0000
vt 0.0000 1.1113
vt 1.2860 1.1113
vt 1.2860 0.5536
vt 0.1445 -0.0000
vt 0.0000 1.0692
vt 0.8597 1.0692
vt 0.8597 0.5785
vt 0.0000 1.0570
vt 0.8592 1.0570
vt 0.8592 0.6155
vt 0.5031 0.6155
vt 0.5407 0.3313
vt 0.1398 -0.0000
vt 0.7947 0.7278
vt 0.7933 0.0000
vt 0.0000 0.0006
vt -0.0000 0.7278
vt 0.0000 0.5501
vt 0.8650 0.5501
vt 0.8656 0.0025
vt 0.0009 -0.0000
vt -0.0000 1.0000
vt 0.5713 1.0000
vt 0.5716 -0.0000
vt 0.0005 -0.0000
vt 0.7904 0.0000
vt 0.0009 -0.0000
vt -0.0000 1.0000
vt 0.7904 1.0000
vt 0.4589 0.4744
vt 0.4593 0.0000
vt 0.0009 -0.0000
vt -0.0000 1.0000
vt 0.9325 0.4744
vt 0.9323 1.0000
vt -0.0000 1.0000
vt 1.3514 1.0000
vt 1.3514 0.0000
vt 0.0000 0.0000
vt -0.0000 1.0000
vt 1.0000 1.0000
vt 1.0000 0.0000
vt 0.0000 0.0000
vt 1.0000 0.0000
vt 0.0006 -0.0000
vt -0.0000 1.0000
vt 1.0000 1.0000
vt 0.0000 0.0017
vt 0.0006 1.0000
vt 1.0000 1.0000
vt 0.9994 0.0000
vt 1.0051 0.8121
vt 1.0039 -0.0000
vt 0.7665 0.0001
vt 0.7665 0.0458
vt 0.2374 0.0458
vt -0.0000 0.0005
vt 0.2374 0.0004
vt 0.0002 0.8121
vt 1.0950 1.0000
vt 1.0943 -0.0000
vt 0.0000 0.0000
vt -0.0000 1.0000
vt -0.0000 1.0000
vt 1.0000 1.0000
vt 1.0000 0.0000
vt 0.0000 0.0000
vn -0.0000 1.0000 0.0000
g CityEngineMaterial_346_CityEngineMaterial_346_CityEngineMaterial_346_mat
usemtl CityEngineMaterial_346_mat
s 1
f 1/1/1 2/2/1 3/3/1 4/4/1
f 1/1/1 4/4/1 5/5/1 6/6/1
f 7/7/1 8/8/1 9/9/1 10/10/1
f 11/11/1 9/12/1 12/13/1 13/14/1
f 14/15/1 15/16/1 16/17/1 17/18/1
f 18/19/1 14/15/1 17/18/1 19/20/1
f 20/21/1 21/22/1 22/23/1 23/24/1
f 24/25/1 25/26/1 21/27/1 26/28/1
f 27/29/1 28/30/1 29/31/1 20/32/1
f 30/33/1 31/34/1 32/35/1 33/36/1
f 34/37/1 35/38/1 36/39/1 37/40/1
f 38/41/1 39/42/1 40/43/1 41/44/1
f 42/45/1 43/46/1 44/47/1 45/48/1
f 46/49/1 42/45/1 45/48/1 47/50/1
f 48/51/1 49/52/1 50/53/1 51/54/1
f 52/55/1 53/56/1 54/57/1 55/58/1
f 56/59/1 57/60/1 58/61/1 59/62/1
f 60/63/1 61/64/1 62/65/1 63/66/1
f 64/67/1 65/68/1 66/69/1 67/70/1
f 68/71/1 69/72/1 70/73/1 71/74/1
f 72/75/1 73/76/1 74/77/1 75/78/1
f 76/79/1 77/80/1 78/81/1 79/82/1
f 80/83/1 78/84/1 73/85/1 81/86/1
f 82/87/1 83/88/1 84/89/1 85/90/1
f 86/91/1 82/87/1 85/90/1 87/92/1
f 88/93/1 89/94/1 90/95/1 91/96/1
f 92/97/1 93/98/1 94/99/1 95/100/1
f 96/101/1 92/97/1 95/100/1 97/102/1
f 91/103/1 98/104/1 99/105/1 100/106/1
f 101/107/1 90/108/1 102/109/1 103/110/1
f 104/111/1 105/112/1 106/113/1 107/114/1
f 108/115/1 107/114/1 106/113/1 109/116/1
f 106/113/1 110/117/1 109/116/1
f 104/111/1 107/114/1 111/118/1
f 112/119/1 113/120/1 114/121/1 115/122/1
f 116/123/1 117/124/1 118/125/1 119/126/1
f 120/127/1 121/128/1 122/129/1 123/130/1
f 124/131/1 120/127/1 123/130/1 125/132/1
f 124/131/1 125/132/1 126/133/1 127/134/1
f 128/135/1 129/136/1 130/137/1 131/138/1
f 128/135/1 131/138/1 132/139/1 133/140/1
f 132/139/1 134/141/1 133/140/1
f 128/135/1 133/140/1 135/142/1
f 136/143/1 137/144/1 138/145/1 139/146/1
f 139/146/1 138/145/1 140/147/1 141/148/1
f 142/149/1 141/148/1 140/147/1 143/150/1
f 142/149/1 144/151/1 141/148/1
f 136/143/1 139/146/1 145/152/1
f 146/153/1 147/154/1 148/155/1 149/156/1
f 146/153/1 149/156/1 150/157/1 151/158/1
f 152/159/1 153/160/1 154/161/1 155/162/1
f 156/163/1 152/159/1 155/162/1 157/164/1
f 158/165/1 159/166/1 160/167/1 161/168/1
f 162/169/1 158/165/1 161/168/1 163/170/1
f 164/171/1 162/169/1 163/170/1 165/172/1
f 166/173/1 167/174/1 168/175/1 169/176/1
f 166/173/1 169/176/1 170/177/1 171/178/1
f 172/179/1 173/180/1 174/181/1 175/182/1
f 175/182/1 176/183/1 177/184/1 178/185/1
f 179/186/1 180/187/1 181/188/1 182/189/1
f 183/190/1 184/191/1 185/192/1 186/193/1
f 187/194/1 188/195/1 189/196/1 190/197/1
f 191/198/1 187/194/1 190/197/1 192/199/1
f 193/200/1 194/201/1 195/202/1 196/203/1
f 197/204/1 198/205/1 199/206/1 200/207/1
f 201/208/1 202/209/1 203/210/1 204/211/1
f 201/208/1 204/211/1 205/212/1 206/213/1
f 207/214/1 208/215/1 209/216/1 210/217/1
f 211/218/1 212/219/1 213/220/1 214/221/1
f 215/222/1 216/223/1 217/224/1 218/225/1
f 219/226/1 217/227/1 212/228/1 220/229/1
f 221/230/1 222/231/1 223/232/1 224/233/1
f 225/234/1 221/230/1 224/233/1 226/235/1
f 227/236/1 228/237/1 229/238/1 230/239/1
f 230/240/1 231/241/1 232/242/1 233/243/1
f 234/244/1 235/245/1 236/246/1 237/247/1
f 238/248/1 239/249/1 235/250/1 240/251/1
f 241/252/1 242/253/1 243/254/1 244/255/1
f 241/252/1 244/255/1 245/256/1 246/257/1
f 245/256/1 247/258/1 246/257/1
f 241/252/1 246/257/1 248/259/1
f 249/260/1 250/261/1 251/262/1 252/263/1
f 253/264/1 254/265/1 255/266/1 256/267/1
