# Blender v2.78 (sub 0) OBJ File: ''
# www.blender.org
mtllib CityEngineMaterial_421.mtl
o CityEngineMaterial_421
v 457.662689 38.511372 166.935303
v 457.990112 38.511372 171.697403
v 459.590790 39.412575 171.587402
v 459.263306 39.412575 166.825302
v 461.191406 38.511372 171.477295
v 460.864014 38.511372 166.715195
v 457.380615 38.511372 171.739304
v 459.590790 38.511372 171.587402
v 459.533112 38.983772 170.748306
v 457.322906 38.983772 170.900299
v 459.475403 38.511372 169.909195
v 457.265198 38.511372 170.061203
v 310.334503 82.221992 -543.487488
v 310.964905 82.221992 -548.862793
v 310.419189 82.486794 -548.926819
v 309.788788 82.486794 -543.551514
v 309.873505 82.221992 -548.990723
v 309.243195 82.221992 -543.615417
v 311.060303 82.221992 -548.851624
v 310.419189 82.221992 -548.926819
v 310.245605 82.940292 -547.446472
v 310.886688 82.940292 -547.371277
v 310.071991 82.221992 -545.966309
v 310.713104 82.221992 -545.891113
v 427.707214 84.709053 -349.897095
v 423.911102 84.709053 -347.915100
v 426.054901 85.491455 -347.242004
v 427.034088 85.491455 -347.753204
v 425.381897 84.709053 -345.098206
v 429.177887 84.709053 -347.080109
v 427.397400 84.709053 -350.490387
v 425.430603 84.709053 -349.463501
v 426.927490 85.255356 -348.993500
v 427.027313 84.709053 -346.405396
v 427.497314 85.255356 -347.902191
v 428.994110 84.709053 -347.432312
v 268.967987 65.461418 -692.949219
v 269.570892 65.461418 -690.712524
v 270.197510 65.957512 -691.801575
v 270.057098 65.957512 -692.322571
v 271.286591 65.461418 -691.174988
v 270.683685 65.461418 -693.411682
v 268.971497 65.461418 -691.495422
v 269.208893 65.461418 -690.614929
v 269.530396 65.715912 -691.173828
v 271.072113 65.461418 -691.117188
v 270.513306 65.715912 -691.438782
v 270.834808 65.461418 -691.997620
v -1403.796509 18.026243 355.425110
v -1406.820679 18.026243 355.453491
v -1406.816162 18.264143 355.934906
v -1403.791992 18.264143 355.906494
v -1406.811646 18.026243 356.416290
v -1403.787476 18.026243 356.387909
v -1406.822998 18.026243 355.206085
v -1406.816162 18.026243 355.934906
v -1406.111450 18.374443 355.928192
v -1406.118408 18.374443 355.199493
v -1405.406860 18.026243 355.921692
v -1405.413696 18.026243 355.192902
v -445.374603 11.266957 -353.028412
v -444.988586 11.266957 -351.377197
v -444.219910 11.653757 -351.556702
v -444.605804 11.653757 -353.207886
v -443.450989 11.266957 -351.736206
v -443.837097 11.266957 -353.387390
v -445.642609 11.266957 -352.965790
v -445.493500 11.266957 -352.328094
v -444.975189 11.527758 -352.449310
v -445.124207 11.527758 -353.086700
v -444.456787 11.266957 -352.570404
v -444.605804 11.266957 -353.207703
v -504.083099 19.699503 -627.076721
v -507.626587 19.699501 -626.003113
v -506.415588 20.196800 -625.356201
v -504.729614 20.197102 -625.866272
v -507.061890 19.699501 -624.147278
v -503.517609 19.699501 -625.218323
v -505.771912 19.699501 -626.311096
v -507.556305 19.699501 -625.770386
v -506.393890 20.176802 -625.149475
v -506.973694 19.699501 -623.855530
v -506.353302 20.176802 -625.015686
v -505.192505 19.699501 -624.393677
v -287.416687 9.816570 795.643677
v -289.367798 9.816570 797.756226
v -288.835114 10.121370 798.248230
v -286.883911 10.121370 796.135681
v -288.302399 9.816570 798.740173
v -286.351196 9.816570 796.627930
v -289.577789 9.816570 797.562317
v -288.835114 9.816570 798.248230
v -288.381989 10.097270 797.757629
v -289.124695 10.097270 797.071716
v -287.928802 9.816570 797.267029
v -288.671509 9.816570 796.581116
v -1107.022095 18.512714 531.461914
v -1102.058472 18.512714 532.584229
v -1102.684570 18.907915 531.592224
v -1106.030029 18.907915 530.835815
v -1101.692505 18.512714 530.966125
v -1106.656128 18.512714 529.843811
v -1105.641235 18.512714 532.038391
v -1103.552979 18.512714 532.510620
v -1104.198120 18.919914 531.488525
v -1104.619019 18.919914 531.393188
v -1103.176025 18.512714 530.843323
v -1105.264282 18.512714 530.371216
v -207.809204 13.208838 -234.664993
v -207.687195 13.208839 -237.403000
v -208.079498 13.418638 -237.044205
v -208.167999 13.418638 -235.057205
v -208.438293 13.208839 -237.436493
v -208.560303 13.208838 -234.698502
v -207.573593 13.208838 -235.285095
v -207.507706 13.208838 -236.764297
v -207.959305 13.450338 -236.351196
v -207.986694 13.450338 -235.736801
v -208.372406 13.208838 -236.802902
v -208.438293 13.208838 -235.323700
v 171.968002 45.336281 -1096.432983
v 173.984299 45.336281 -1097.564941
v 172.423203 45.784081 -1098.003418
v 172.406494 45.784081 -1097.994019
v 172.861893 45.336281 -1099.564087
v 170.845200 45.336281 -1098.432739
v 131.064804 43.847645 -271.135986
v 138.531906 43.847645 -271.832306
v 137.586594 44.174747 -272.616302
v 131.848801 44.174747 -272.081299
v 138.370605 43.847645 -273.561615
v 130.903503 43.847645 -272.865295
v 135.389999 43.847645 -271.130096
v 138.569702 43.847645 -271.426514
v 137.520798 44.210648 -272.296509
v 136.259995 44.210648 -272.178986
v 138.390793 43.847645 -273.345398
v 135.211105 43.847645 -273.048889
v -124.727501 19.210405 579.618408
v -125.724800 19.210405 580.294312
v -125.334702 19.339804 580.369202
v -124.802498 19.339804 580.008606
v -125.409698 19.210405 580.759399
v -124.412300 19.210405 580.083618
v -125.010803 19.210405 579.648315
v -125.592003 19.210405 580.042114
v -125.157402 19.354506 580.125671
v -125.094398 19.354506 580.082886
v -125.240997 19.210405 580.560181
v -124.659798 19.210405 580.166382
v -357.371796 25.750931 -189.441498
v -355.892700 25.750931 -185.418793
v -355.055511 26.155230 -185.726593
v -356.534607 26.155230 -189.749298
v -354.218414 25.750931 -186.034393
v -355.697388 25.750931 -190.057098
vt -0.0128 -0.0281
vt 0.9612 -0.0281
vt 0.9612 0.3474
vt -0.0128 0.3474
vt -0.0083 -0.0627
vt 0.9656 -0.0627
vt 0.9656 0.3128
vt -0.0083 0.3128
vt -0.0085 -0.0320
vt 0.4435 -0.0320
vt 0.4435 0.1648
vt -0.0085 0.1648
vt -0.0123 -0.0250
vt 0.4397 -0.0250
vt 0.4397 0.1718
vt -0.0123 0.1718
vt -0.0618 -0.0442
vt 0.8618 -0.0442
vt 0.8618 0.0599
vt -0.0618 0.0599
vt -0.0277 -0.0444
vt 0.8959 -0.0444
vt 0.8959 0.0597
vt -0.0277 0.0597
vt -0.0049 -0.0176
vt 0.1053 -0.0176
vt 0.1053 0.2647
vt -0.0049 0.2647
vt -0.0011 -0.0478
vt 0.1090 -0.0478
vt 0.1090 0.2346
vt -0.0011 0.2346
vt -0.0353 -0.0444
vt 0.7509 -0.0444
vt 0.4592 0.2807
vt 0.2564 0.2807
vt -0.0267 -0.0479
vt 0.5567 -0.0479
vt 0.2650 0.2772
vt -0.0301 -0.0489
vt 0.7560 -0.0489
vt 0.4643 0.2762
vt 0.2616 0.2762
vt -0.0312 -0.0441
vt 0.5522 -0.0441
vt 0.2605 0.2811
vt -0.0677 -0.0589
vt 0.3396 -0.0589
vt 0.1360 0.1681
vt -0.0411 -0.0029
vt 0.5922 -0.0029
vt 0.3886 0.2241
vt 0.1625 0.2241
vt -0.0575 -0.0198
vt 0.3499 -0.0198
vt 0.1462 0.2072
vt -0.0020 -0.0060
vt 0.6313 -0.0060
vt 0.4276 0.2210
vt 0.2016 0.2210
vt -0.0417 -0.0038
vt 0.4635 -0.0038
vt 0.2697 0.2181
vt 0.1521 0.2181
vt -0.0686 -0.0740
vt 0.3189 -0.0740
vt 0.1252 0.1479
vt -0.0529 -0.0117
vt 0.4522 -0.0117
vt 0.2585 0.2102
vt 0.1408 0.2102
vt -0.0765 -0.0837
vt 0.3110 -0.0837
vt 0.1172 0.1382
vt -0.0805 -0.0458
vt 0.1183 -0.0458
vt 0.0189 0.0680
vt -0.0248 -0.0197
vt 0.3961 -0.0197
vt 0.2966 0.0942
vt 0.0747 0.0942
vt -0.0844 -0.0851
vt 0.1144 -0.0851
vt 0.0150 0.0288
vt -0.0640 -0.0597
vt 0.3568 -0.0597
vt 0.2574 0.0542
vt 0.0354 0.0542
vt -0.0261 -0.0442
vt 0.7153 -0.0442
vt 0.7153 0.0875
vt -0.0261 0.0875
vt -0.0205 -0.0679
vt 0.7209 -0.0679
vt 0.7209 0.0638
vt -0.0205 0.0638
vt -0.0802 -0.0642
vt 0.0984 -0.0642
vt 0.0984 0.1285
vt -0.0802 0.1285
vt -0.0405 -0.0161
vt 0.1381 -0.0161
vt 0.1381 0.1766
vt -0.0405 0.1766
vt -0.0630 -0.0724
vt 0.2861 -0.0724
vt 0.2861 0.1086
vt -0.0630 0.1086
vt -0.0525 -0.0269
vt 0.2967 -0.0269
vt 0.2967 0.1541
vt -0.0524 0.1541
vt -0.0017 -0.0216
vt 0.1331 -0.0216
vt 0.1331 0.1005
vt -0.0016 0.1005
vt -0.0017 -0.0025
vt 0.1331 -0.0025
vt 0.1331 0.1195
vt -0.0017 0.1195
vt -0.0811 -0.0774
vt 0.8453 -0.0774
vt 0.6023 0.1954
vt 0.1615 0.1956
vt -0.0532 -0.0538
vt 0.4321 -0.0538
vt 0.1898 0.2191
vt -0.0296 -0.0297
vt 0.8969 -0.0297
vt 0.6535 0.2433
vt 0.2127 0.2432
vt -0.0055 -0.0156
vt 0.4806 -0.0156
vt 0.2380 0.2574
vt -0.0478 -0.0616
vt 0.4187 -0.0616
vt 0.1854 0.2003
vt -0.0374 -0.0595
vt 0.4635 -0.0595
vt 0.2309 0.2023
vt 0.1959 0.2024
vt -0.0353 -0.0232
vt 0.4302 -0.0232
vt 0.1972 0.2386
vt -0.0975 -0.0238
vt 0.4037 -0.0238
vt 0.1705 0.2381
vt 0.1355 0.2381
vt -0.0756 -0.0520
vt 0.6548 -0.0520
vt 0.6548 0.1478
vt -0.0756 0.1478
vt -0.0275 -0.0419
vt 0.7029 -0.0419
vt 0.7029 0.1579
vt -0.0275 0.1579
vt -0.0968 -0.0763
vt 0.1600 -0.0763
vt 0.1600 0.1077
vt -0.0968 0.1077
vt -0.0518 -0.0303
vt 0.2050 -0.0303
vt 0.2050 0.1537
vt -0.0518 0.1537
vt -0.0154 -0.0729
vt 0.9476 -0.0729
vt 0.7906 0.1009
vt 0.1416 0.1009
vt -0.0546 -0.0501
vt 0.2593 -0.0501
vt 0.1023 0.1237
vt -0.0318 -0.0248
vt 0.9311 -0.0248
vt 0.7742 0.1490
vt 0.1251 0.1490
vt -0.0065 -0.0680
vt 0.3074 -0.0680
vt 0.1504 0.1059
vt -0.0608 -0.0299
vt 0.3443 -0.0299
vt 0.1826 0.1492
vt 0.1009 0.1492
vt -0.0116 -0.0730
vt 0.3118 -0.0730
vt 0.1501 0.1062
vt -0.0547 -0.0271
vt 0.3505 -0.0271
vt 0.1887 0.1521
vt 0.1071 0.1521
vt -0.0088 -0.0205
vt 0.3147 -0.0205
vt 0.1529 0.1586
vt -0.0209 -0.0282
vt 0.5605 -0.0282
vt 0.4808 0.0631
vt 0.0589 0.0631
vt -0.0077 -0.0340
vt 0.1518 -0.0340
vt 0.0720 0.0573
vt -0.0135 -0.0675
vt 0.5679 -0.0675
vt 0.4882 0.0238
vt 0.0663 0.0238
vt -0.0470 -0.0671
vt 0.1124 -0.0671
vt 0.0327 0.0242
vt -0.0089 -0.0317
vt 0.3052 -0.0317
vt 0.2134 0.0734
vt 0.0829 0.0734
vt -0.0112 -0.0203
vt 0.1724 -0.0203
vt 0.0806 0.0848
vt -0.0833 -0.0684
vt 0.2307 -0.0684
vt 0.1389 0.0368
vt 0.0085 0.0368
vt -0.0479 -0.0113
vt 0.1358 -0.0113
vt 0.0439 0.0938
vt -0.0731 -0.0304
vt 0.3575 -0.0304
vt 0.1440 0.1988
vt 0.1404 0.1988
vt -0.0124 -0.0020
vt 0.4146 -0.0020
vt 0.2011 0.2273
vt -0.0573 -0.0361
vt 0.3734 -0.0361
vt 0.1598 0.1932
vt 0.1562 0.1932
vt -0.0181 -0.0278
vt 0.4091 -0.0278
vt 0.1955 0.2014
vt -0.0315 -0.0736
vt 1.4421 -0.0736
vt 1.2715 0.1087
vt 0.1392 0.1087
vt -0.0546 -0.0268
vt 0.2866 -0.0268
vt 0.1160 0.1555
vt -0.0078 -0.0671
vt 1.4657 -0.0671
vt 1.2951 0.1152
vt 0.1628 0.1152
vt -0.0481 -0.0540
vt 0.2931 -0.0540
vt 0.1225 0.1283
vt -0.0368 -0.0608
vt 0.5907 -0.0608
vt 0.4014 0.1416
vt 0.1525 0.1416
vt -0.0418 -0.0132
vt 0.3369 -0.0132
vt 0.1476 0.1891
vt -0.0716 -0.0523
vt 0.5559 -0.0523
vt 0.3666 0.1500
vt 0.1178 0.1500
vt -0.0333 -0.0196
vt 0.3454 -0.0196
vt 0.1560 0.1827
vt -0.0110 -0.0340
vt 0.2146 -0.0340
vt 0.1620 0.0239
vt 0.0416 0.0239
vt -0.0159 -0.0587
vt 0.0893 -0.0587
vt 0.0367 -0.0007
vt -0.0406 -0.0088
vt 0.1851 -0.0088
vt 0.1325 0.0491
vt 0.0120 0.0491
vt -0.0645 -0.0228
vt 0.0408 -0.0228
vt -0.0118 0.0351
vt -0.0512 -0.0407
vt 0.0803 -0.0407
vt 0.0217 0.0238
vt 0.0074 0.0238
vt -0.0226 -0.0088
vt 0.0946 -0.0088
vt 0.0360 0.0558
vt -0.0644 -0.0097
vt 0.0671 -0.0097
vt 0.0085 0.0548
vt -0.0058 0.0548
vt -0.0653 -0.0172
vt 0.0519 -0.0172
vt -0.0067 0.0473
vt -0.0242 -0.0687
vt 0.9093 -0.0687
vt 0.9093 0.1446
vt -0.0242 0.1446
vt -0.0477 -0.0476
vt 0.8859 -0.0476
vt 0.8859 0.1657
vt -0.0477 0.1657
vn -0.4886 0.8719 0.0336
vn 0.4886 0.8719 -0.0336
vn 0.0336 0.8719 0.4886
vn -0.0336 0.8719 -0.4886
vn 0.4312 0.9008 0.0506
vn -0.4312 0.9008 -0.0506
vn 0.0506 0.9009 -0.4312
vn -0.0506 0.9008 0.4312
vn -0.2045 0.8971 -0.3916
vn -0.3916 0.8971 0.2045
vn 0.2044 0.8971 0.3916
vn 0.3916 0.8971 -0.2044
vn 0.2045 0.8971 0.3917
vn 0.3916 0.8971 -0.2045
vn -0.4707 0.8731 0.1269
vn 0.1269 0.8731 0.4707
vn 0.4707 0.8731 -0.1269
vn -0.1269 0.8731 -0.4707
vn -0.4706 0.8732 0.1269
vn 0.1270 0.8730 0.4708
vn -0.1270 0.8730 -0.4709
vn -0.0042 0.8965 -0.4430
vn 0.0042 0.8965 0.4430
vn -0.4431 0.8965 0.0042
vn 0.4431 0.8965 -0.0042
vn -0.4285 0.8980 0.1001
vn 0.4284 0.8980 -0.1002
vn -0.4284 0.8980 0.1002
vn -0.1322 0.8899 -0.4365
vn -0.4364 0.8899 0.1328
vn 0.1320 0.8899 0.4366
vn 0.4364 0.8899 -0.1328
vn -0.4364 0.8899 0.1327
vn 0.1319 0.8899 0.4366
vn 0.4366 0.8899 -0.1320
vn -0.2846 0.9219 -0.2629
vn 0.2846 0.9219 0.2629
vn -0.2629 0.9219 0.2847
vn 0.2629 0.9219 -0.2846
vn -0.0949 0.9028 0.4195
vn 0.4195 0.9028 0.0949
vn 0.0949 0.9028 -0.4195
vn -0.4195 0.9028 -0.0949
vn -0.0949 0.9028 0.4194
vn 0.4196 0.9027 0.0949
vn -0.4195 0.9028 -0.0948
vn 0.4868 0.8732 0.0217
vn 0.0217 0.8732 -0.4868
vn -0.4869 0.8732 -0.0217
vn -0.0217 0.8732 0.4869
vn 0.0217 0.8733 -0.4867
vn -0.4868 0.8732 -0.0217
vn -0.0217 0.8733 0.4868
vn 0.1781 0.9315 0.3172
vn 0.3172 0.9315 -0.1781
vn -0.1780 0.9315 -0.3173
vn -0.3172 0.9315 0.1781
vn 0.0327 0.9358 0.3510
vn 0.3510 0.9358 -0.0327
vn -0.0327 0.9358 -0.3510
vn -0.3510 0.9358 0.0327
vn -0.2348 0.9083 -0.3464
vn -0.3463 0.9083 0.2346
vn 0.2346 0.9083 0.3463
vn 0.3465 0.9082 -0.2346
vn -0.2347 0.9082 -0.3465
vn 0.3462 0.9084 -0.2346
vn -0.3875 0.9108 0.1425
vn 0.3875 0.9108 -0.1425
g CityEngineMaterial_421_CityEngineMaterial_421_CityEngineMaterial_421_mat
usemtl CityEngineMaterial_421_mat
s 1
f 1/1/1 2/2/1 3/3/1 4/4/1
f 5/5/2 6/6/2 4/7/2 3/8/2
f 7/9/3 8/10/3 9/11/3 10/12/3
f 11/13/4 12/14/4 10/15/4 9/16/4
f 13/17/5 14/18/5 15/19/5 16/20/5
f 17/21/6 18/22/6 16/23/6 15/24/6
f 19/25/7 20/26/7 21/27/7 22/28/7
f 23/29/8 24/30/8 22/31/8 21/32/8
f 25/33/9 26/34/9 27/35/9 28/36/9
f 26/37/10 29/38/10 27/39/10
f 29/40/11 30/41/11 28/42/11 27/43/11
f 30/44/12 25/45/12 28/46/12
f 31/47/9 32/48/9 33/49/9
f 32/50/10 34/51/10 35/52/10 33/53/10
f 34/54/13 36/55/13 35/56/13
f 36/57/14 31/58/14 33/59/14 35/60/14
f 37/61/15 38/62/15 39/63/15 40/64/15
f 38/65/16 41/66/16 39/67/16
f 41/68/17 42/69/17 40/70/17 39/71/17
f 42/72/18 37/73/18 40/74/18
f 43/75/19 44/76/19 45/77/19
f 44/78/20 46/79/20 47/80/20 45/81/20
f 46/82/17 48/83/17 47/84/17
f 48/85/21 43/86/21 45/87/21 47/88/21
f 49/89/22 50/90/22 51/91/22 52/92/22
f 53/93/23 54/94/23 52/95/23 51/96/23
f 55/97/24 56/98/24 57/99/24 58/100/24
f 59/101/25 60/102/25 58/103/25 57/104/25
f 61/105/26 62/106/26 63/107/26 64/108/26
f 65/109/27 66/110/27 64/111/27 63/112/27
f 67/113/28 68/114/28 69/115/28 70/116/28
f 71/117/27 72/118/27 70/119/27 69/120/27
f 73/121/29 74/122/29 75/123/29 76/124/29
f 74/125/30 77/126/30 75/127/30
f 77/128/31 78/129/31 76/130/31 75/131/31
f 78/132/32 73/133/32 76/134/32
f 79/135/29 80/136/29 81/137/29
f 80/138/33 82/139/33 83/140/33 81/141/33
f 82/142/34 84/143/34 83/144/34
f 84/145/35 79/146/35 81/147/35 83/148/35
f 85/149/36 86/150/36 87/151/36 88/152/36
f 89/153/37 90/154/37 88/155/37 87/156/37
f 91/157/38 92/158/38 93/159/38 94/160/38
f 95/161/39 96/162/39 94/163/39 93/164/39
f 97/165/40 98/166/40 99/167/40 100/168/40
f 98/169/41 101/170/41 99/171/41
f 101/172/42 102/173/42 100/174/42 99/175/42
f 102/176/43 97/177/43 100/178/43
f 103/179/44 104/180/44 105/181/44 106/182/44
f 104/183/45 107/184/45 105/185/45
f 107/186/42 108/187/42 106/188/42 105/189/42
f 108/190/46 103/191/46 106/192/46
f 109/193/47 110/194/47 111/195/47 112/196/47
f 110/197/48 113/198/48 111/199/48
f 113/200/49 114/201/49 112/202/49 111/203/49
f 114/204/50 109/205/50 112/206/50
f 115/207/47 116/208/47 117/209/47 118/210/47
f 116/211/51 119/212/51 117/213/51
f 119/214/52 120/215/52 118/216/52 117/217/52
f 120/218/53 115/219/53 118/220/53
f 121/221/54 122/222/54 123/223/54 124/224/54
f 122/225/55 125/226/55 123/227/55
f 125/228/56 126/229/56 124/230/56 123/231/56
f 126/232/57 121/233/57 124/234/57
f 127/235/58 128/236/58 129/237/58 130/238/58
f 128/239/59 131/240/59 129/241/59
f 131/242/60 132/243/60 130/244/60 129/245/60
f 132/246/61 127/247/61 130/248/61
f 133/249/58 134/250/58 135/251/58 136/252/58
f 134/253/59 137/254/59 135/255/59
f 137/256/60 138/257/60 136/258/60 135/259/60
f 138/260/61 133/261/61 136/262/61
f 139/263/62 140/264/62 141/265/62 142/266/62
f 140/267/63 143/268/63 141/269/63
f 143/270/64 144/271/64 142/272/64 141/273/64
f 144/274/65 139/275/65 142/276/65
f 145/277/66 146/278/66 147/279/66 148/280/66
f 146/281/63 149/282/63 147/283/63
f 149/284/64 150/285/64 148/286/64 147/287/64
f 150/288/67 145/289/67 148/290/67
f 151/291/68 152/292/68 153/293/68 154/294/68
f 155/295/69 156/296/69 154/297/69 153/298/69
