# Blender v2.78 (sub 0) OBJ File: ''
# www.blender.org
mtllib CityEngineMaterial_244.mtl
o CityEngineMaterial_244
v -1059.714722 8.119462 232.504898
v -1066.786133 8.119462 232.081802
v -1066.786133 9.725462 232.081802
v -1059.714722 9.725462 232.504898
v -1067.606201 8.119460 245.741806
v -1067.606201 9.725460 245.741806
v -1065.879639 8.119460 245.845200
v -1065.879639 9.725460 245.845200
v -1065.826660 8.119460 244.960297
v -1065.826660 9.725460 244.960297
v -1063.457031 8.119460 245.102097
v -1063.457031 9.725460 245.102097
v -1063.572510 8.119460 245.983398
v -1063.572510 9.725460 245.983398
v -1061.497314 8.119460 246.107803
v -1061.497314 9.725460 246.107803
v -832.469482 3.845758 257.569397
v -831.960510 3.845760 245.962402
v -831.960510 5.170060 245.962402
v -832.469482 5.170058 257.569397
v -834.717712 3.845760 245.709793
v -834.717712 5.170060 245.709793
v -834.974487 3.845759 251.562500
v -834.974487 5.170059 251.562500
v -840.167175 3.845759 251.086899
v -840.167175 5.170059 251.086899
v -839.919922 3.845760 245.233200
v -839.919922 5.170060 245.233200
v -843.140503 3.845760 244.938004
v -843.140503 5.170060 244.938004
v -843.631287 3.845758 256.547089
v -843.631287 5.170058 256.547089
v 228.751007 36.306824 -140.880295
v 228.999603 36.306824 -138.931198
v 228.999603 38.207722 -138.931198
v 228.751007 38.207722 -140.880295
v 230.791306 36.306824 -139.120697
v 230.791306 38.207722 -139.120697
v 231.174698 36.306824 -136.030502
v 231.174698 38.207722 -136.030502
v 229.393707 36.306824 -135.842300
v 229.393707 38.207722 -135.842300
v 229.926895 36.306824 -131.662201
v 229.926895 38.207722 -131.662201
v 243.366699 36.306824 -133.082794
v 243.366699 38.207722 -133.082794
v 242.222702 36.306824 -142.305099
v 242.222702 38.207722 -142.305099
v 328.824310 50.828861 -364.367493
v 328.757385 50.828861 -364.359894
v 328.757385 52.423462 -364.359894
v 328.824310 52.423462 -364.367493
v 328.583893 50.828861 -365.896301
v 328.583893 52.423462 -365.896301
v 327.672791 50.828861 -367.640198
v 327.672791 52.423462 -367.640198
v 327.462006 50.828861 -368.011597
v 327.462006 52.423462 -368.011597
v 328.230713 50.828857 -361.202911
v 328.230713 52.423458 -361.202911
v 329.157715 50.828857 -361.308807
v 329.157715 52.423458 -361.308807
v 40.722900 39.983150 -917.016113
v 42.500198 39.983150 -905.706604
v 42.500198 41.566250 -905.706604
v 40.722900 41.566250 -917.016113
v 45.066502 39.983150 -906.108521
v 45.066502 41.566250 -906.108521
v 45.632702 39.983150 -902.506104
v 45.632702 41.566250 -902.506104
v 50.857201 39.983150 -903.325073
v 50.857201 41.566250 -903.325073
v 48.513302 39.983150 -918.236023
v 48.513302 41.566250 -918.236023
v -623.494324 3.784067 202.714203
v -630.332092 3.784067 201.623993
v -630.332092 5.392267 201.623993
v -623.494324 5.392267 202.714203
v -631.737122 3.784066 210.436203
v -631.737122 5.392266 210.436203
v -626.353882 3.784066 211.296204
v -626.353882 5.392266 211.296204
v -625.774597 3.784066 207.662796
v -625.774597 5.392266 207.662796
v -624.320312 3.784066 207.894608
v -624.320312 5.392266 207.894608
v 9.604200 39.218502 -626.342896
v 9.740700 39.218502 -625.473694
v 9.740700 40.796303 -625.473694
v 9.604200 40.796303 -626.342896
v 5.757400 39.218502 -624.849915
v 5.757400 40.796303 -624.849915
v 7.284700 39.218498 -615.149170
v 7.284700 40.796299 -615.149170
v 13.343000 39.218498 -616.098022
v 13.343000 40.796299 -616.098022
v 11.683000 39.218502 -626.668091
v 11.683000 40.796303 -626.668091
v -121.817299 32.460697 -1207.640381
v -113.630898 32.460697 -1208.922485
v -113.630898 34.549599 -1208.922485
v -121.817299 34.549599 -1207.640381
v -114.536797 32.460697 -1214.706787
v -114.536797 34.549599 -1214.706787
v -115.103996 32.460697 -1214.617920
v -115.103996 34.549599 -1214.617920
v -117.193497 32.460697 -1227.961426
v -117.193497 34.549599 -1227.961426
v -124.812103 32.460697 -1226.765015
v -124.812103 34.549599 -1226.765015
v -182.657806 1.931193 659.473389
v -182.712601 1.931193 654.580383
v -182.712601 4.080793 654.580383
v -182.657806 4.080793 659.473389
v -183.697693 1.931194 653.398193
v -183.697693 4.080794 653.398193
v -183.465698 1.931194 653.394775
v -183.465698 4.080794 653.394775
v -187.214005 1.931194 648.895813
v -187.214005 4.080794 648.895813
v -191.518707 1.931194 648.958313
v -191.518707 4.080794 648.958313
v -183.675507 1.931193 658.372375
v -183.675507 4.080793 658.372375
v 94.296700 42.534004 -621.336182
v 96.731400 42.534000 -605.797485
v 96.731400 44.814499 -605.797485
v 94.296700 44.814503 -621.336182
v 111.648102 42.534000 -608.134705
v 111.648102 44.814499 -608.134705
v 107.530701 42.534004 -623.408691
v 107.530701 44.814503 -623.408691
v 307.774414 52.808876 -473.502594
v 307.682190 52.808876 -468.575989
v 307.682190 54.736477 -468.575989
v 307.774414 54.736477 -473.502594
v 315.588501 52.808876 -468.398590
v 315.588501 54.736477 -468.398590
v 315.735992 52.808876 -475.790588
v 315.735992 54.736477 -475.790588
v 309.526703 52.808876 -475.929291
v 309.526703 54.736477 -475.929291
v 309.477509 52.808876 -473.464386
v 309.477509 54.736477 -473.464386
v 586.432373 21.693499 615.462524
v 597.815613 21.693501 611.510620
v 597.815613 23.359901 611.510620
v 586.432373 23.359900 615.462524
v 597.540283 21.693501 610.197205
v 597.540283 23.359901 610.197205
v 596.652283 21.693501 610.505371
v 596.652283 23.359901 610.505371
v 596.342590 21.693501 609.027771
v 596.342590 23.359901 609.027771
v 597.255127 21.693501 608.836609
v 597.255127 23.359901 608.836609
v 596.940125 21.693501 607.334290
v 596.940125 23.359901 607.334290
v 585.242676 21.693501 609.785706
v 585.242676 23.359901 609.785706
v -82.532204 39.394657 -960.754272
v -81.139297 39.394657 -951.859497
v -81.139297 41.271957 -951.859497
v -82.532204 41.271957 -960.754272
v -71.622101 39.394657 -953.349670
v -71.622101 41.271957 -953.349670
v -72.393303 39.394657 -958.274475
v -72.393303 41.271957 -958.274475
v -69.842598 39.394657 -958.673889
v -69.842598 41.271957 -958.673889
v -70.464302 39.394657 -962.643616
v -70.464302 41.271957 -962.643616
v -86.634003 30.787998 -593.463928
v -100.533401 30.787998 -591.991516
v -100.533401 33.139896 -591.991516
v -86.634003 33.139896 -593.463928
v -100.761803 30.787994 -571.380371
v -100.761803 33.139893 -571.380371
v -85.264297 30.787994 -572.400024
v -85.264297 33.139893 -572.400024
v -531.458191 5.019120 492.522888
v -531.396118 5.019122 476.554108
v -531.396118 7.015322 476.554108
v -531.458191 7.015320 492.522888
v -546.316711 5.019122 476.433685
v -546.316711 7.015322 476.433685
v -546.435913 5.019120 492.464691
v -546.435913 7.015320 492.464813
v 439.830414 60.949146 -272.194489
v 438.770294 60.949146 -277.099792
v 438.770294 62.981647 -277.099792
v 439.830414 62.981647 -272.194489
v 431.004486 60.949146 -275.391815
v 431.004486 62.981647 -275.391815
v 431.355896 60.949146 -273.765900
v 431.355896 62.981647 -273.765900
v 429.201111 60.949146 -273.334412
v 429.201111 62.981647 -273.334412
v 429.862488 60.949146 -270.198608
v 429.862488 62.981647 -270.198608
v -847.613220 12.190294 650.630676
v -848.201416 12.190293 655.048279
v -848.201416 13.988593 655.048279
v -847.613220 13.988594 650.630676
v -840.166504 12.190293 657.195190
v -840.166504 13.988593 657.195190
v -839.918518 12.190293 655.332886
v -839.918518 13.988593 655.332886
v -838.849426 12.190293 655.475220
v -838.849426 13.988593 655.475220
v -838.368286 12.190294 651.862488
v -838.368286 13.988594 651.862488
v -355.324097 4.401497 630.672607
v -355.540894 4.401498 623.881104
v -355.540894 6.539798 623.881104
v -355.324097 6.539797 630.672607
v -369.817413 4.401498 624.336914
v -369.817413 6.539798 624.336914
v -369.754303 4.401498 626.311584
v -369.754303 6.539798 626.311584
v -368.090790 4.401498 626.258484
v -368.090790 6.539798 626.258484
v -367.937012 4.401497 631.075195
v -367.937012 6.539797 631.075195
v 246.042999 49.021626 -773.682678
v 246.028702 49.021626 -771.443115
v 246.028702 51.062325 -771.443115
v 246.042999 51.062325 -773.682678
v 245.469101 49.021626 -766.525024
v 245.469101 51.062325 -766.525024
v 244.872299 49.021626 -763.241821
v 244.872299 51.062325 -763.241821
v 253.247406 49.021626 -765.499512
v 253.247406 51.062325 -765.499512
v 251.398300 49.021626 -772.379822
v 251.398300 51.062325 -772.379822
v 249.349396 49.021626 -771.827515
v 249.349396 51.062325 -771.827515
v 249.366806 49.021626 -774.572388
v 249.366806 51.062325 -774.572388
vt 0.5000 0.0000
vt 1.5000 0.0000
vt 1.5000 1.0000
vt 0.5000 1.0000
vt 0.5000 0.0000
vt 2.3333 0.0000
vt 2.3333 1.0000
vt 0.5000 1.0000
vt 0.5000 0.0000
vt 0.6667 0.0000
vt 0.6667 1.0000
vt 0.5000 1.0000
vt 0.0000 -0.0000
vt 0.1667 -0.0000
vt 0.1667 1.0000
vt 0.0000 1.0000
vt 0.5000 0.0000
vt 0.8333 -0.0000
vt 0.8333 1.0000
vt 0.5000 1.0000
vt 0.1667 -0.0000
vt 0.3333 0.0000
vt 0.3333 1.0000
vt 0.1667 1.0000
vt 0.6667 0.0000
vt 0.6667 1.0000
vt 0.5000 0.0000
vt 2.3333 0.0000
vt 2.3333 1.0000
vt 0.5000 1.0000
vt 0.1667 -0.0000
vt 1.6667 -0.0000
vt 1.6667 1.0000
vt 0.1667 1.0000
vt 0.3333 0.0000
vt 0.6667 0.0000
vt 0.6667 1.0000
vt 0.3333 1.0000
vt 0.1667 -0.0000
vt 0.8333 -0.0000
vt 0.8333 1.0000
vt 0.1667 1.0000
vt 0.0000 -0.0000
vt 0.6667 0.0000
vt 0.6667 1.0000
vt 0.0000 1.0000
vt 0.1667 -0.0000
vt 0.8333 -0.0000
vt 0.8333 1.0000
vt 0.1667 1.0000
vt 1.1667 0.0000
vt 1.1667 1.0000
vt 0.1667 -0.0000
vt 1.6667 -0.0000
vt 1.6667 1.0000
vt 0.1667 1.0000
vt 0.5000 0.0000
vt 1.8333 0.0000
vt 1.8333 1.0000
vt 0.5000 1.0000
vt 0.6667 0.0000
vt 1.0000 0.0000
vt 1.0000 1.0000
vt 0.6667 1.0000
vt 0.5000 0.0000
vt 0.6667 0.0000
vt 0.6667 1.0000
vt 0.5000 1.0000
vt 0.8333 -0.0000
vt 1.1667 0.0000
vt 1.1667 1.0000
vt 0.8333 1.0000
vt 0.6667 0.0000
vt 0.8333 -0.0000
vt 0.8333 1.0000
vt 0.6667 1.0000
vt 0.0000 -0.0000
vt 0.5000 0.0000
vt 0.5000 1.0000
vt 0.0000 1.0000
vt 0.6667 0.0000
vt 2.5000 -0.0000
vt 2.5000 1.0000
vt 0.6667 1.0000
vt 0.1667 -0.0000
vt 1.3333 0.0000
vt 1.3333 1.0000
vt 0.1667 1.0000
vt 0.6667 0.0000
vt 2.5000 -0.0000
vt 2.5000 1.0000
vt 0.6667 1.0000
vt 0.6667 0.0000
vt 0.7000 -0.0000
vt 0.7000 1.0000
vt 0.6667 1.0000
vt 0.6667 0.0000
vt 0.8333 -0.0000
vt 0.8333 1.0000
vt 0.6667 1.0000
vt 0.1667 -0.0000
vt 0.5000 0.0000
vt 0.5000 1.0000
vt 0.1667 1.0000
vt 0.6667 0.0000
vt 0.7000 -0.0000
vt 0.7000 1.0000
vt 0.6667 1.0000
vt 0.8333 -0.0000
vt 1.6667 -0.0000
vt 1.6667 1.0000
vt 0.8333 1.0000
vt 0.6667 0.0000
vt 0.8333 -0.0000
vt 0.8333 1.0000
vt 0.6667 1.0000
vt 0.3333 0.0000
vt 0.3333 1.0000
vt 0.3333 0.0000
vt 1.6667 -0.0000
vt 1.6667 1.0000
vt 0.3333 1.0000
vt 0.3333 0.0000
vt 0.6667 0.0000
vt 0.6667 1.0000
vt 0.3333 1.0000
vt 0.3333 0.0000
vt 0.8333 -0.0000
vt 0.8333 1.0000
vt 0.3333 1.0000
vt 0.5000 0.0000
vt 1.1667 0.0000
vt 1.1667 1.0000
vt 0.5000 1.0000
vt 0.8333 -0.0000
vt 2.5000 -0.0000
vt 2.5000 1.0000
vt 0.8333 1.0000
vt 0.1667 -0.0000
vt 1.0000 0.0000
vt 1.0000 1.0000
vt 0.1667 1.0000
vt 0.0000 -0.0000
vt 0.8333 -0.0000
vt 0.8333 1.0000
vt 0.0000 1.0000
vt 0.6667 0.0000
vt 1.8333 0.0000
vt 1.8333 1.0000
vt 0.6667 1.0000
vt 0.1667 -0.0000
vt 0.8333 -0.0000
vt 0.8333 1.0000
vt 0.1667 1.0000
vt 0.3333 0.0000
vt 0.8333 -0.0000
vt 0.8333 1.0000
vt 0.3333 1.0000
vt 0.1667 -0.0000
vt 0.3333 0.0000
vt 0.3333 1.0000
vt 0.1667 1.0000
vt 0.8333 -0.0000
vt 1.5000 0.0000
vt 1.5000 1.0000
vt 0.8333 1.0000
vt 0.6667 0.0000
vt 0.8333 -0.0000
vt 0.8333 1.0000
vt 0.6667 1.0000
vt 0.6667 0.0000
vt 1.1667 0.0000
vt 1.1667 1.0000
vt 0.6667 1.0000
vt 0.5000 0.0000
vt 1.8333 0.0000
vt 1.8333 1.0000
vt 0.5000 1.0000
vt 0.5000 0.0000
vt 1.3333 0.0000
vt 1.3333 1.0000
vt 0.5000 1.0000
vt 0.0000 -0.0000
vt 1.5000 0.0000
vt 1.5000 1.0000
vt 0.0000 1.0000
vt 0.1667 -0.0000
vt 0.5000 0.0000
vt 0.5000 1.0000
vt 0.1667 1.0000
vt 0.6667 0.0000
vt 1.8333 0.0000
vt 1.8333 1.0000
vt 0.6667 1.0000
vt 0.3333 0.0000
vt 1.1667 0.0000
vt 1.1667 1.0000
vt 0.3333 1.0000
vt 0.8333 -0.0000
vt 0.8667 0.0000
vt 0.8667 1.0000
vt 0.8333 1.0000
vt 0.0000 -0.0000
vt 2.0000 0.0000
vt 2.0000 1.0000
vt 0.0000 1.0000
vt 0.3333 0.0000
vt 1.5000 0.0000
vt 1.5000 1.0000
vt 0.3333 1.0000
vt 0.0000 -0.0000
vt 2.8333 -0.0000
vt 2.8333 1.0000
vt 0.0000 1.0000
vt 0.3333 0.0000
vt 0.8333 -0.0000
vt 0.8333 1.0000
vt 0.3333 1.0000
vt 0.5000 0.0000
vt 0.6667 0.0000
vt 0.6667 1.0000
vt 0.5000 1.0000
vt 0.1667 -0.0000
vt 0.2000 -0.0000
vt 0.2000 1.0000
vt 0.1667 1.0000
vt 0.3333 0.0000
vt 1.0000 0.0000
vt 1.0000 1.0000
vt 0.3333 1.0000
vt 0.6667 0.0000
vt 1.1667 0.0000
vt 1.1667 1.0000
vt 0.6667 1.0000
vt 0.6667 0.0000
vt 2.1667 0.0000
vt 2.1667 1.0000
vt 0.6667 1.0000
vt 0.5000 0.0000
vt 0.6667 0.0000
vt 0.6667 1.0000
vt 0.5000 1.0000
vt 0.1667 -0.0000
vt 3.1667 0.0000
vt 3.1667 1.0000
vt 0.1667 1.0000
vt 0.3333 0.0000
vt 3.1667 0.0000
vt 3.1667 1.0000
vt 0.3333 1.0000
vt 0.1667 -0.0000
vt 3.1667 0.0000
vt 3.1667 1.0000
vt 0.1667 1.0000
vt 0.5000 0.0000
vt 3.0000 -0.0000
vt 3.0000 1.0000
vt 0.5000 1.0000
vt 0.5000 0.0000
vt 1.3333 0.0000
vt 1.3333 1.0000
vt 0.5000 1.0000
vt 0.6667 0.0000
vt 2.0000 0.0000
vt 2.0000 1.0000
vt 0.6667 1.0000
vt 0.1667 -0.0000
vt 1.5000 0.0000
vt 1.5000 1.0000
vt 0.1667 1.0000
vt 0.5000 0.0000
vt 1.6667 -0.0000
vt 1.6667 1.0000
vt 0.5000 1.0000
vt 0.1667 -0.0000
vt 0.6667 0.0000
vt 0.6667 1.0000
vt 0.1667 1.0000
vt 0.0000 -0.0000
vt 0.3333 0.0000
vt 0.3333 1.0000
vt 0.0000 1.0000
vt 0.6667 0.0000
vt 2.5000 -0.0000
vt 2.5000 1.0000
vt 0.6667 1.0000
vt 0.0000 -0.0000
vt 0.1667 -0.0000
vt 0.1667 1.0000
vt 0.0000 1.0000
vt 0.3333 0.0000
vt 0.5000 0.0000
vt 0.5000 1.0000
vt 0.3333 1.0000
vt 0.6667 0.0000
vt 0.8333 -0.0000
vt 0.8333 1.0000
vt 0.6667 1.0000
vt 0.6667 0.0000
vt 0.8333 -0.0000
vt 0.8333 1.0000
vt 0.6667 1.0000
vt 0.1667 -0.0000
vt 0.3333 0.0000
vt 0.3333 1.0000
vt 0.1667 1.0000
vt 2.1667 0.0000
vt 2.1667 1.0000
vt 0.3333 0.0000
vt 1.1667 0.0000
vt 1.1667 1.0000
vt 0.3333 1.0000
vt 0.3333 0.0000
vt 1.3333 0.0000
vt 1.3333 1.0000
vt 0.3333 1.0000
vt 0.3333 0.0000
vt 1.5000 0.0000
vt 1.5000 1.0000
vt 0.3333 1.0000
vt 0.3333 0.0000
vt 0.8333 -0.0000
vt 0.8333 1.0000
vt 0.3333 1.0000
vt 0.5000 0.0000
vt 0.8333 -0.0000
vt 0.8333 1.0000
vt 0.5000 1.0000
vt 0.0000 -0.0000
vt 0.5000 0.0000
vt 0.5000 1.0000
vt 0.0000 1.0000
vt 0.3333 0.0000
vt 1.8333 0.0000
vt 1.8333 1.0000
vt 0.3333 1.0000
vt 0.5000 0.0000
vt 3.0000 -0.0000
vt 3.0000 1.0000
vt 0.5000 1.0000
vt 0.0000 -0.0000
vt 3.6667 0.0000
vt 3.6667 1.0000
vt 0.0000 1.0000
vt 0.6667 0.0000
vt 3.3333 0.0000
vt 3.3333 1.0000
vt 0.6667 1.0000
vt 0.5000 0.0000
vt 4.1667 -0.0000
vt 4.1667 1.0000
vt 0.5000 1.0000
vt 0.5000 0.0000
vt 3.5000 -0.0000
vt 3.5000 1.0000
vt 0.5000 1.0000
vt 0.1667 -0.0000
vt 3.0000 -0.0000
vt 3.0000 1.0000
vt 0.1667 1.0000
vt 0.3333 0.0000
vt 3.3333 0.0000
vt 3.3333 1.0000
vt 0.3333 1.0000
vt 0.1667 -0.0000
vt 3.0000 -0.0000
vt 3.0000 1.0000
vt 0.1667 1.0000
vt 0.5000 0.0000
vt 1.1667 0.0000
vt 1.1667 1.0000
vt 0.5000 1.0000
vt 0.8333 -0.0000
vt 1.8333 0.0000
vt 1.8333 1.0000
vt 0.8333 1.0000
vt 0.3333 0.0000
vt 0.5000 0.0000
vt 0.5000 1.0000
vt 0.3333 1.0000
vt 0.8333 -0.0000
vt 1.1667 0.0000
vt 1.1667 1.0000
vt 0.8333 1.0000
vt 0.8333 -0.0000
vt 1.1667 0.0000
vt 1.1667 1.0000
vt 0.8333 1.0000
vt 0.8333 -0.0000
vt 2.0000 0.0000
vt 2.0000 1.0000
vt 0.8333 1.0000
vt 0.0000 -0.0000
vt 0.6667 0.0000
vt 0.6667 1.0000
vt 0.0000 1.0000
vt 2.0000 0.0000
vt 2.0000 1.0000
vt 0.6667 0.0000
vt 1.0000 0.0000
vt 1.0000 1.0000
vt 0.6667 1.0000
vt 0.5000 0.0000
vt 0.6667 0.0000
vt 0.6667 1.0000
vt 0.5000 1.0000
vt 0.0000 -0.0000
vt 0.5000 0.0000
vt 0.5000 1.0000
vt 0.0000 1.0000
vt 0.0000 -0.0000
vt 1.5000 0.0000
vt 1.5000 1.0000
vt 0.0000 1.0000
vt 0.5000 0.0000
vt 1.3333 0.0000
vt 1.3333 1.0000
vt 0.5000 1.0000
vt 0.5000 0.0000
vt 2.1667 0.0000
vt 2.1667 1.0000
vt 0.5000 1.0000
vt 0.3333 0.0000
vt 0.5000 0.0000
vt 0.5000 1.0000
vt 0.3333 1.0000
vt 0.1667 -0.0000
vt 0.3333 0.0000
vt 0.3333 1.0000
vt 0.1667 1.0000
vt 0.8333 -0.0000
vt 0.8333 1.0000
vt 0.1667 -0.0000
vt 1.6667 -0.0000
vt 1.6667 1.0000
vt 0.1667 1.0000
vt 0.1667 -0.0000
vt 0.5000 0.0000
vt 0.5000 1.0000
vt 0.1667 1.0000
vt 0.6667 0.0000
vt 1.3333 0.0000
vt 1.3333 1.0000
vt 0.6667 1.0000
vt 0.8333 -0.0000
vt 1.3333 0.0000
vt 1.3333 1.0000
vt 0.8333 1.0000
vt 0.3333 0.0000
vt 1.6667 -0.0000
vt 1.6667 1.0000
vt 0.3333 1.0000
vt 0.8333 -0.0000
vt 1.8333 0.0000
vt 1.8333 1.0000
vt 0.8333 1.0000
vt 0.3333 0.0000
vt 0.6667 0.0000
vt 0.6667 1.0000
vt 0.3333 1.0000
vt 0.5000 0.0000
vt 0.8333 -0.0000
vt 0.8333 1.0000
vt 0.5000 1.0000
vt 1.3333 0.0000
vt 1.3333 1.0000
vn 0.0597 0.0000 -0.9982
vn -0.9982 0.0000 -0.0599
vn -0.0598 0.0000 0.9982
vn 0.9982 0.0000 0.0598
vn -0.0597 0.0000 0.9982
vn -0.9915 0.0000 -0.1299
vn 0.9915 0.0000 0.1299
vn 0.9990 0.0000 0.0438
vn 0.0912 0.0000 -0.9958
vn -0.9990 0.0000 -0.0438
vn 0.9991 0.0000 0.0422
vn 0.0913 0.0000 -0.9958
vn -0.9991 0.0000 -0.0422
vn -0.0912 0.0000 0.9958
vn -0.9920 0.0000 0.1265
vn 0.1052 0.0000 0.9945
vn -0.9924 0.0000 0.1231
vn -0.1051 0.0000 -0.9945
vn 0.1051 0.0000 0.9945
vn 0.9924 0.0000 -0.1231
vn -0.1052 0.0000 -0.9945
vn -0.1134 0.0000 -0.9935
vn 0.9937 0.0000 -0.1122
vn 0.8863 0.0000 -0.4631
vn 0.8697 0.0000 -0.4936
vn -0.9937 0.0000 0.1122
vn 0.1135 0.0000 0.9935
vn 0.9941 0.0000 -0.1084
vn -0.9879 0.0000 0.1552
vn 0.1547 0.0000 0.9880
vn -0.9879 0.0000 0.1553
vn 0.1549 0.0000 0.9879
vn 0.9879 0.0000 -0.1553
vn -0.1547 0.0000 -0.9880
vn 0.1574 0.0000 -0.9875
vn -0.9875 0.0000 -0.1575
vn -0.1578 0.0000 0.9875
vn 0.9875 0.0000 0.1574
vn -0.1574 0.0000 0.9875
vn 0.9875 0.0000 0.1575
vn -0.9879 0.0000 0.1551
vn -0.9878 0.0000 0.1555
vn 0.9879 0.0000 -0.1551
vn -0.1546 0.0000 -0.9880
vn 0.9880 0.0000 -0.1547
vn -0.1551 0.0000 -0.9879
vn -0.9880 0.0000 0.1547
vn 0.9999 0.0000 -0.0112
vn 0.7683 0.0000 -0.6401
vn 0.0143 0.0000 0.9999
vn -0.0145 0.0000 -0.9999
vn -0.7683 0.0000 0.6401
vn -0.7343 0.0000 0.6788
vn -0.9879 0.0000 0.1548
vn 0.1548 0.0000 0.9879
vn 0.9655 0.0000 -0.2603
vn -0.9998 0.0000 -0.0187
vn -0.0224 0.0000 0.9997
vn 0.9998 0.0000 0.0199
vn 0.0223 0.0000 -0.9998
vn -0.9998 0.0000 -0.0200
vn 0.0224 0.0000 -0.9997
vn 0.3280 0.0000 0.9447
vn 0.9787 0.0000 -0.2052
vn -0.3278 0.0000 -0.9447
vn 0.9787 0.0000 -0.2051
vn 0.2051 0.0000 0.9787
vn -0.2051 0.0000 -0.9787
vn -0.9787 0.0000 0.2051
vn -0.1053 0.0000 -0.9944
vn -0.9999 0.0000 -0.0111
vn 0.0657 0.0000 0.9978
vn 0.9979 0.0000 -0.0649
vn 1.0000 0.0000 0.0039
vn 0.0081 0.0000 -1.0000
vn -1.0000 -0.0000 -0.0074
vn -0.0039 -0.0000 1.0000
vn 0.9774 0.0000 -0.2112
vn -0.2148 0.0000 -0.9767
vn -0.9774 0.0000 0.2113
vn -0.1963 0.0000 -0.9805
vn -0.9785 0.0000 0.2064
vn 0.1963 0.0000 0.9805
vn -0.9913 0.0000 -0.1320
vn -0.2581 0.0000 0.9661
vn 0.9913 0.0000 0.1320
vn -0.1320 0.0000 0.9913
vn 0.9912 0.0000 0.1320
vn 0.1321 0.0000 -0.9912
vn 0.9995 0.0000 -0.0319
vn -0.0319 0.0000 -0.9995
vn -0.9995 0.0000 0.0319
vn 0.0319 0.0000 0.9995
vn -1.0000 0.0000 -0.0064
vn -0.9936 0.0000 -0.1131
vn -0.9839 0.0000 -0.1788
vn 0.2603 0.0000 0.9655
vn 0.9657 0.0000 -0.2595
vn -0.2603 0.0000 -0.9655
vn 1.0000 0.0000 0.0063
vn -0.2586 0.0000 -0.9660
g CityEngineMaterial_244_CityEngineMaterial_244_CityEngineMaterial_244_mat
usemtl CityEngineMaterial_244_mat
s 1
f 1/1/1 2/2/1 3/3/1 4/4/1
f 2/5/2 5/6/2 6/7/2 3/8/2
f 5/9/3 7/10/3 8/11/3 6/12/3
f 7/13/4 9/14/4 10/15/4 8/16/4
f 9/17/5 11/18/5 12/19/5 10/20/5
f 11/21/6 13/22/6 14/23/6 12/24/6
f 13/22/3 15/25/3 16/26/3 14/23/3
f 15/27/7 1/28/7 4/29/7 16/30/7
f 17/31/8 18/32/8 19/33/8 20/34/8
f 18/35/9 21/36/9 22/37/9 19/38/9
f 21/39/10 23/40/10 24/41/10 22/42/10
f 23/43/9 25/44/9 26/45/9 24/46/9
f 25/47/11 27/48/11 28/49/11 26/50/11
f 27/48/12 29/51/12 30/52/12 28/49/12
f 29/53/13 31/54/13 32/55/13 30/56/13
f 31/57/14 17/58/14 20/59/14 32/60/14
f 33/61/15 34/62/15 35/63/15 36/64/15
f 34/65/16 37/66/16 38/67/16 35/68/16
f 37/69/17 39/70/17 40/71/17 38/72/17
f 39/73/18 41/74/18 42/75/18 40/76/18
f 41/77/15 43/78/15 44/79/15 42/80/15
f 43/81/19 45/82/19 46/83/19 44/84/19
f 45/85/20 47/86/20 48/87/20 46/88/20
f 47/89/21 33/90/21 36/91/21 48/92/21
f 49/93/22 50/94/22 51/95/22 52/96/22
f 50/97/23 53/98/23 54/99/23 51/100/23
f 53/101/24 55/102/24 56/103/24 54/104/24
f 55/105/25 57/106/25 58/107/25 56/108/25
f 57/109/26 59/110/26 60/111/26 58/112/26
f 59/113/27 61/114/27 62/115/27 60/116/27
f 61/117/28 49/93/28 52/96/28 62/118/28
f 63/119/29 64/120/29 65/121/29 66/122/29
f 64/123/30 67/124/30 68/125/30 65/126/30
f 67/127/31 69/128/31 70/129/31 68/130/31
f 69/131/32 71/132/32 72/133/32 70/134/32
f 71/135/33 73/136/33 74/137/33 72/138/33
f 73/139/34 63/140/34 66/141/34 74/142/34
f 75/143/35 76/144/35 77/145/35 78/146/35
f 76/147/36 79/148/36 80/149/36 77/150/36
f 79/151/37 81/152/37 82/153/37 80/154/37
f 81/155/38 83/156/38 84/157/38 82/158/38
f 83/159/39 85/160/39 86/161/39 84/162/39
f 85/163/40 75/164/40 78/165/40 86/166/40
f 87/167/41 88/168/41 89/169/41 90/170/41
f 88/171/34 91/172/34 92/173/34 89/174/34
f 91/175/42 93/176/42 94/177/42 92/178/42
f 93/179/30 95/180/30 96/181/30 94/182/30
f 95/183/43 97/184/43 98/185/43 96/186/43
f 97/187/44 87/188/44 90/189/44 98/190/44
f 99/191/30 100/192/30 101/193/30 102/194/30
f 100/195/45 103/196/45 104/197/45 101/198/45
f 103/199/34 105/200/34 106/201/34 104/202/34
f 105/203/45 107/204/45 108/205/45 106/206/45
f 107/207/46 109/208/46 110/209/46 108/210/46
f 109/211/47 99/212/47 102/213/47 110/214/47
f 111/215/48 112/216/48 113/217/48 114/218/48
f 112/219/49 115/220/49 116/221/49 113/222/49
f 115/223/50 117/224/50 118/225/50 116/226/50
f 117/227/49 119/228/49 120/229/49 118/230/49
f 119/231/51 121/232/51 122/233/51 120/234/51
f 121/235/52 123/236/52 124/237/52 122/238/52
f 123/239/53 111/240/53 114/241/53 124/242/53
f 125/243/54 126/244/54 127/245/54 128/246/54
f 126/247/55 129/248/55 130/249/55 127/250/55
f 129/251/56 131/252/56 132/253/56 130/254/56
f 131/255/34 125/256/34 128/257/34 132/258/34
f 133/259/57 134/260/57 135/261/57 136/262/57
f 134/263/58 137/264/58 138/265/58 135/266/58
f 137/267/59 139/268/59 140/269/59 138/270/59
f 139/271/60 141/272/60 142/273/60 140/274/60
f 141/275/61 143/276/61 144/277/61 142/278/61
f 143/279/62 133/280/62 136/281/62 144/282/62
f 145/283/63 146/284/63 147/285/63 148/286/63
f 146/287/64 149/288/64 150/289/64 147/290/64
f 149/291/65 151/292/65 152/293/65 150/294/65
f 151/295/66 153/296/66 154/297/66 152/298/66
f 153/299/67 155/300/67 156/301/67 154/302/67
f 155/303/64 157/304/64 158/305/64 156/306/64
f 157/304/68 159/307/68 160/308/68 158/305/68
f 159/309/69 145/310/69 148/311/69 160/312/69
f 161/313/47 162/314/47 163/315/47 164/316/47
f 162/317/30 165/318/30 166/319/30 163/320/30
f 165/321/45 167/322/45 168/323/45 166/324/45
f 167/325/30 169/326/30 170/327/30 168/328/30
f 169/329/45 171/330/45 172/331/45 170/332/45
f 171/333/34 161/334/34 164/335/34 172/336/34
f 173/337/70 174/338/70 175/339/70 176/340/70
f 174/341/71 177/342/71 178/343/71 175/344/71
f 177/345/72 179/346/72 180/347/72 178/348/72
f 179/349/73 173/350/73 176/351/73 180/352/73
f 181/353/74 182/354/74 183/355/74 184/356/74
f 182/357/75 185/358/75 186/359/75 183/360/75
f 185/361/76 187/362/76 188/363/76 186/364/76
f 187/365/77 181/366/77 184/367/77 188/368/77
f 189/369/78 190/370/78 191/371/78 192/372/78
f 190/373/79 193/374/79 194/375/79 191/376/79
f 193/377/80 195/378/80 196/379/80 194/380/80
f 195/381/81 197/382/81 198/383/81 196/384/81
f 197/385/82 199/386/82 200/387/82 198/388/82
f 199/389/83 189/390/83 192/391/83 200/392/83
f 201/393/84 202/394/84 203/395/84 204/396/84
f 202/394/85 205/397/85 206/398/85 203/395/85
f 205/399/86 207/400/86 208/401/86 206/402/86
f 207/403/87 209/404/87 210/405/87 208/406/87
f 209/407/88 211/408/88 212/409/88 210/410/88
f 211/411/89 201/412/89 204/413/89 212/414/89
f 213/415/90 214/416/90 215/417/90 216/418/90
f 214/419/91 217/420/91 218/421/91 215/422/91
f 217/423/92 219/424/92 220/425/92 218/426/92
f 219/427/93 221/428/93 222/429/93 220/430/93
f 221/428/92 223/431/92 224/432/92 222/429/92
f 223/433/93 213/434/93 216/435/93 224/436/93
f 225/437/94 226/438/94 227/439/94 228/440/94
f 226/441/95 229/442/95 230/443/95 227/444/95
f 229/445/96 231/446/96 232/447/96 230/448/96
f 231/449/97 233/450/97 234/451/97 232/452/97
f 233/453/98 235/454/98 236/455/98 234/456/98
f 235/457/99 237/458/99 238/459/99 236/460/99
f 237/461/100 239/462/100 240/463/100 238/464/100
f 239/462/101 225/465/101 228/466/101 240/463/101
