# Blender v2.78 (sub 0) OBJ File: ''
# www.blender.org
mtllib CityEngineMaterial_743.mtl
o CityEngineMaterial_743
v 499.084900 39.006969 195.936096
v 498.739502 39.006969 189.468399
v 484.726593 39.006969 194.875793
v 484.837006 39.006969 196.649902
v 496.881500 39.587471 190.206406
v 489.016907 39.587471 193.241302
v 489.625885 39.587471 194.819504
v 497.490601 39.587471 191.784607
v 492.588196 39.587471 193.676407
v 490.118286 39.587471 196.095703
v 493.080597 39.587471 194.952606
v 175.163498 36.385223 -150.249802
v 172.558899 36.385227 -165.663300
v 165.725098 36.385227 -164.515305
v 169.676697 36.385223 -150.839905
v 168.096405 36.385223 -150.574402
v 169.925400 36.385223 -149.369202
v 174.782303 37.076927 -152.505707
v 172.690598 37.076927 -164.884003
v 167.983307 37.076927 -164.088593
v 170.075104 37.076824 -151.710297
v 168.511200 37.076927 -160.964401
v 168.114502 37.076927 -163.312195
v 166.004105 37.076927 -162.955597
v 166.400894 37.076927 -160.607697
v 676.057800 77.998329 -166.888885
v 696.387512 77.998329 -170.031586
v 696.367126 77.998329 -170.292084
v 694.349609 77.998329 -182.003479
v 674.669922 77.998329 -179.884979
v 675.348083 107.620827 -173.534286
v 695.277893 107.620827 -176.615189
v 694.349609 107.620827 -182.003479
v 674.669922 107.620827 -179.884979
v 678.783630 108.858429 -174.095291
v 692.091919 108.858429 -176.152588
v 691.517273 108.858429 -179.870392
v 678.208923 108.858429 -177.813080
v 686.833191 108.858429 -179.146286
v 686.577271 108.858429 -180.801987
v 677.952881 108.858429 -179.468689
v -854.041016 18.569277 764.226807
v -853.424988 18.569275 776.736511
v -844.038818 18.569273 779.241577
v -844.055725 18.569275 772.278625
v -843.398682 18.569275 772.453918
v -843.216614 18.569275 776.156616
v -844.161011 18.569275 770.140198
v -843.513916 18.569275 770.108215
v -843.827881 18.569277 763.722900
v -845.805786 19.409376 765.905823
v -851.858276 19.409376 766.204407
v -851.419373 19.409374 775.116089
v -847.950378 19.409374 769.576477
v -847.627686 19.409374 776.128113
v -846.343628 19.409374 768.162720
v -846.278015 19.409374 769.494019
v -845.696411 19.409374 768.130676
v -845.514709 19.087074 776.692078
v -845.312683 19.087074 775.934326
v -845.404175 19.087074 774.074280
v -846.061218 19.087074 773.898926
v -845.929077 19.087074 776.581421
v -366.572815 5.830005 -29.413401
v -341.587189 5.830005 -32.346600
v -343.347809 5.830008 -47.343800
v -368.318512 5.830007 -44.377399
v -349.942902 19.776606 -31.365696
v -341.587189 19.776606 -32.346596
v -343.347809 19.776608 -47.343796
v -351.702209 19.776608 -46.351295
v -358.093506 13.959605 -30.408897
v -349.942902 13.959605 -31.365698
v -350.851593 13.959607 -39.105495
v -359.002106 13.959607 -38.148598
v -347.707886 20.604906 -34.195297
v -344.416809 20.604906 -34.581696
v -345.582489 20.604908 -44.510597
v -347.432587 20.604908 -41.036995
v -347.809387 20.604908 -44.246098
v -348.496399 20.604906 -40.912098
v -353.494293 14.856306 -34.528896
v -353.717712 14.856306 -36.432297
v -356.426605 14.856306 -36.114296
v -356.059113 14.856306 -32.984398
v -352.662415 14.856306 -34.626595
v -352.518494 14.856306 -33.400097
v 44.346401 18.260719 -111.791801
v 57.591900 18.260719 -112.839302
v 55.596600 18.260719 -118.189102
v 54.295300 18.260721 -122.992798
v 42.558498 18.260719 -120.658798
v 44.346401 86.021118 -111.791786
v 57.591900 86.021118 -112.839287
v 55.596600 86.021126 -118.189087
v 54.295300 86.021126 -122.992783
v 42.558498 86.021126 -120.658783
v 47.501598 87.027817 -115.861084
v 46.696800 87.027824 -119.852684
v 44.441299 87.027824 -119.404182
v 45.632599 87.027817 -113.496185
v 54.551701 87.027817 -116.418587
v 55.354900 87.027817 -114.265083
v -891.904114 9.318377 142.099197
v -889.840027 9.318376 152.039200
v -884.536926 9.318376 150.938004
v -885.162598 9.318377 147.924896
v -874.126282 9.318377 145.633102
v -875.348083 9.318377 138.661102
v -152.787994 8.935759 868.137024
v -153.283997 8.935759 868.689697
v -148.448502 8.935757 879.278992
v -148.543594 8.935759 868.002625
v -141.486603 8.935759 864.779724
v -137.209595 8.935758 874.146179
v -149.225296 8.935759 866.509888
v -150.030594 9.675958 872.809387
v -147.313095 9.675957 878.760376
v -138.344894 9.675958 874.664673
v -141.062393 9.675959 868.713623
v -147.462708 9.675959 867.508972
v -145.902893 9.675958 870.924316
v -141.071899 9.675959 868.718018
v -142.631607 9.675959 865.302612
v -262.683289 9.671052 295.245911
v -248.492203 9.671052 293.898407
v -249.566299 9.671054 282.605713
v -260.335114 9.671053 286.308411
v -260.586700 9.671054 283.663788
v -263.504791 9.671053 286.609497
v -257.761414 11.090153 294.778595
v -250.244904 11.090153 294.064789
v -250.837097 11.090154 287.835907
v -258.353607 11.090154 288.549713
v -258.169006 11.090154 288.532196
v -251.229401 11.090154 287.873199
v -251.710205 11.090155 282.809814
v -258.648804 11.090155 283.479492
v 698.264771 37.848846 324.194794
v 717.135986 37.848846 319.775085
v 713.645386 37.848850 304.781097
v 695.108398 37.848850 309.147888
v 699.299500 57.283146 322.569794
v 715.519897 57.283146 318.770905
v 714.298523 57.283150 313.524414
v 698.191284 57.283146 317.287292
v 706.089478 57.283150 315.442108
v 704.429077 57.283150 308.335297
v 696.695679 57.283150 310.157104
v 700.865784 58.029148 322.175293
v 714.143677 58.029148 319.065491
v 713.507996 58.029148 316.351410
v 700.230225 58.029148 319.461212
v 710.401917 58.029148 317.078888
v 712.921387 58.029152 313.846893
v 709.815430 58.029152 314.574310
v 698.848389 58.809647 317.096313
v 705.615417 58.809650 315.515503
v 704.559082 58.809650 310.994507
v 697.792175 58.809650 312.575409
v 699.491089 58.809650 312.178497
v 698.898621 58.809650 309.642487
v 697.199829 58.809650 310.039307
v 702.087585 58.809650 311.571899
v 703.966675 58.809650 308.458405
v 701.495178 58.809650 309.035797
v -437.352203 10.087568 -422.096710
v -438.012512 10.087568 -424.268005
v -440.063507 10.087568 -423.644714
v -451.504395 10.087569 -427.947693
v -441.294586 10.087569 -427.690704
v -440.180206 10.087570 -431.395386
v -439.243408 10.087569 -428.315186
v -448.676697 10.087568 -418.655090
v -444.256714 11.116070 -426.973907
v -447.708191 11.116070 -425.923096
v -447.188995 11.116069 -424.216888
v -446.019714 11.116070 -424.572815
v -445.482086 11.116069 -422.805786
v -443.199493 11.116069 -423.499512
v -45.679798 38.289204 -1243.078003
v -44.448799 38.289204 -1243.232788
v -44.570400 38.289204 -1245.335938
v -61.532398 38.289204 -1237.037842
v -61.887001 38.289204 -1243.158936
v -45.477402 38.289204 -1239.584106
v -44.241798 38.289204 -1239.655762
v -44.148499 38.289204 -1238.044922
v -47.702000 39.554302 -1244.942261
v -60.396900 39.554302 -1243.346313
v -59.934399 39.554302 -1239.667603
v -47.239601 39.554302 -1241.263550
v -47.799900 39.554302 -1241.193115
v -50.714699 39.554302 -1240.826660
v -50.410702 39.554302 -1238.408081
v -47.495899 39.554302 -1238.774536
v -11.405800 5.767041 362.311707
v -22.563601 5.767047 325.216187
v -28.157301 5.767046 326.898895
v -27.205400 5.767045 333.644592
v -20.973000 5.767040 365.189392
v -19.572599 27.596945 340.615906
v -23.615801 27.596947 327.173706
v -26.412800 27.596947 328.015106
v -25.655399 27.596947 333.382294
v -23.965200 27.596945 341.937286
v -19.251200 16.747143 350.571014
v -22.024099 16.747145 341.353302
v -23.965200 16.747145 341.937286
v -22.090599 16.747143 351.425110
v -20.028900 28.928545 339.098999
v -23.159500 28.928547 328.690704
v -24.672100 28.928547 329.145691
v -21.541500 28.928545 339.553986
v -23.646799 17.759245 342.128906
v -21.879400 17.759243 351.074097
v -20.609699 17.759243 350.692200
v -21.659901 17.759243 345.376190
v -21.147699 17.759245 345.222107
v -22.208401 17.759245 341.696198
v -22.674200 28.928545 335.788086
v -23.958599 28.928545 336.174408
v -22.825899 28.928545 339.940308
v -23.732300 28.928547 332.270203
v -25.956499 28.928547 329.532013
v -25.016701 28.928547 332.656494
v -20.679600 40.432693 -1188.802124
v -21.779400 40.432693 -1188.670288
v -21.692699 40.432693 -1187.127319
v -9.741900 40.432693 -1194.088989
v -9.432700 40.432693 -1188.596924
v -20.807501 40.432693 -1191.074097
v -21.910900 40.432693 -1191.011963
v -22.045000 40.432693 -1193.396362
v -19.396299 41.617996 -1187.432007
v -10.236400 41.618095 -1188.530029
v -10.563900 41.618095 -1191.262085
v -19.723801 41.617996 -1190.163940
v -16.536699 41.617996 -1190.546021
v -16.861799 41.617996 -1193.257568
v -20.048800 41.617996 -1192.875488
v -14.594900 41.617996 -1190.778809
v -10.889000 41.618095 -1193.973511
v -14.919900 41.618095 -1193.490234
vt 0.1954 0.0000
vt -0.0000 1.0000
vt 1.4627 1.0000
vt 1.5148 0.7248
vt -0.0000 1.0000
vt 0.7278 1.0000
vt 0.7278 0.0000
vt 0.0000 0.0000
vt -0.0000 1.0000
vt 1.0000 1.0000
vt 1.0000 0.0000
vt 0.0000 0.0000
vt -0.0000 1.0000
vt 1.1146 1.0000
vt 1.1150 0.0000
vt 0.1067 0.2335
vt 0.1068 0.0022
vt 0.0003 0.2335
vt -0.0000 1.0000
vt 1.0706 1.0000
vt 1.0706 0.0000
vt 0.0000 0.0000
vt -0.0000 1.0000
vt 1.0000 1.0000
vt 1.0000 0.0000
vt 0.0000 0.0000
vt 0.0000 1.6493
vt 0.7546 1.6493
vt 0.7553 1.6164
vt 0.7478 0.1153
vt 0.0225 0.0000
vt -0.0000 1.0000
vt 0.6463 1.0000
vt 0.6433 0.1431
vt 0.0096 -0.0000
vt -0.0000 1.0000
vt 1.1643 1.0000
vt 1.1643 -0.0000
vt 0.0000 0.0000
vt -0.0000 1.0000
vt 0.8322 1.0000
vt 0.8322 0.0000
vt 0.0000 0.0000
vt 0.0001 0.6547
vt 1.5025 0.6547
vt 1.8580 0.0624
vt 1.0237 0.0415
vt 1.0485 0.0000
vt 1.4932 0.0001
vt 0.7669 0.0415
vt 0.7668 0.0000
vt 0.0000 0.0000
vt 0.0000 0.0000
vt -0.0000 1.0000
vt 0.6123 1.0000
vt 0.2443 0.3832
vt 0.6944 0.3832
vt 0.1529 0.1069
vt 0.2443 0.1070
vt 0.1529 0.0000
vt 1.0000 0.3692
vt 0.7348 0.0002
vt 0.0736 0.0000
vt -0.0000 1.0000
vt 0.9535 1.0000
vt -0.0000 1.4269
vt 1.3248 1.4269
vt 1.3248 0.0000
vt 0.0006 0.0033
vt 0.0000 0.0000
vt 0.0000 0.9683
vt 1.4282 0.9683
vt 1.4271 0.0000
vt -0.0000 1.0000
vt 0.6082 1.0000
vt 0.6082 0.0000
vt 0.0000 0.0000
vt 0.0000 0.0000
vt -0.0000 1.0000
vt 0.9213 1.0000
vt 0.6233 0.3232
vt 0.9211 0.3232
vt 0.6233 0.0000
vt 0.7651 0.6081
vt 0.7651 -0.0000
vt 0.0000 0.0000
vt -0.0000 1.0000
vt 1.0000 0.6081
vt 1.0000 1.0000
vt 0.0722 0.8555
vt 0.9576 0.8555
vt 0.8531 0.4031
vt 0.7919 0.0000
vt 0.0000 0.1155
vt 0.0920 0.8294
vt 1.2206 0.8294
vt 1.0874 0.3908
vt 1.0094 0.0000
vt -0.0000 0.1120
vt 0.2388 0.6465
vt 0.1968 0.0000
vt 0.0000 0.0431
vt 0.0622 1.0000
vt 0.8481 0.6465
vt 0.9024 1.0000
vt 0.9512 0.7153
vt 0.9512 0.0000
vt 0.6465 0.0000
vt 0.6465 0.2168
vt 0.0124 0.2168
vt 0.0000 0.7153
vt 0.0460 0.0000
vt 0.0000 0.0224
vt -0.0000 0.9026
vt 0.3107 0.1241
vt 0.8350 0.1241
vt 0.8350 0.9026
vt 0.3107 0.0000
vt 0.0000 0.0000
vt -0.0000 1.0000
vt 0.7327 1.0000
vt 0.7327 0.0000
vt 0.0000 0.0000
vt -0.0000 1.0000
vt 1.0000 1.0000
vt 1.0000 0.0000
vt 0.0002 1.0872
vt 1.6104 1.0872
vt 1.6102 0.0000
vt 0.3597 0.2557
vt 0.3596 0.0011
vt -0.0000 0.2557
vt -0.0000 1.0000
vt 1.0000 1.0000
vt 1.0000 0.0000
vt 0.0000 0.0000
vt -0.0000 1.0000
vt 1.0000 1.0000
vt 1.0000 0.0000
vt 0.0000 0.0021
vt 0.0000 1.9178
vt 0.6801 1.9178
vt 0.6809 0.0000
vt 0.0126 0.0031
vt -0.0000 1.0000
vt 0.8136 1.0000
vt 0.8140 0.0017
vt 0.0061 0.0000
vt -0.0000 1.0000
vt 0.5161 1.0000
vt 0.5161 0.0000
vt 0.0105 0.0020
vt -0.0000 1.0000
vt 1.1948 1.0000
vt 1.1948 0.0000
vt 0.0000 0.0000
vt -0.0000 1.0000
vt 1.0000 1.0000
vt 1.0000 0.0000
vt 0.0000 0.0000
vt -0.0000 1.0000
vt 1.0000 1.0000
vt 1.0000 0.0000
vt 0.0000 0.0000
vt -0.0000 1.0000
vt 1.0000 1.0000
vt 1.0000 0.0000
vt 0.0000 0.0000
vt -0.0000 1.0000
vt 1.0000 1.0000
vt 1.0000 0.0000
vt 0.0002 -0.0000
vt 0.0002 0.2760
vt 0.1688 0.2761
vt 0.9315 1.1820
vt 0.1688 0.7904
vt 0.0000 1.1820
vt 0.0001 0.7904
vt 0.9316 0.0007
vt 1.0000 1.0000
vt 1.0000 0.0000
vt 0.5088 0.0000
vt 0.5088 0.3388
vt 0.0002 0.3388
vt -0.0000 1.0000
vt 0.0768 0.7115
vt 0.0079 0.7116
vt -0.0000 1.0000
vt 0.9919 0.1605
vt 0.9691 1.0000
vt 0.0898 0.2323
vt 0.0212 0.2209
vt 0.0273 0.0000
vt -0.0000 1.0000
vt 0.9292 1.0000
vt 0.9292 0.0000
vt 0.0000 0.0000
vt -0.0000 1.0000
vt 1.0000 1.0000
vt 1.0000 0.0000
vt 0.0000 0.0000
vt 0.0000 0.7914
vt 2.2259 0.7914
vt 2.2259 0.3287
vt 1.8390 0.2470
vt 0.0000 0.0000
vt -0.0000 1.0000
vt 1.2721 1.0000
vt 1.2721 0.3632
vt 0.7865 0.1843
vt 0.0000 0.0000
vt 0.7623 0.0000
vt -0.0000 0.3164
vt 0.0156 1.0000
vt 0.7852 1.0000
vt -0.0000 1.0000
vt 0.9914 1.0000
vt 0.9914 0.0000
vt 0.0000 0.0000
vt 0.0183 1.0000
vt 1.1659 1.0000
vt 1.1497 0.2875
vt 0.4677 0.2874
vt 0.4612 0.0000
vt -0.0000 0.1928
vt -0.0000 1.0000
vt 1.0000 1.0000
vt 1.0000 0.0000
vt 0.0000 0.0000
vt -0.0000 1.0000
vt 1.0000 1.0000
vt 1.0000 0.0000
vt 0.0000 0.0000
vt 0.0850 0.7539
vt 0.0069 0.7539
vt -0.0000 1.0000
vt 0.8951 0.1239
vt 0.8707 1.0000
vt 0.0951 0.3915
vt 0.0173 0.3804
vt 0.0279 0.0000
vt -0.0000 1.0000
vt 0.9489 1.0000
vt 0.9489 0.0000
vt 0.0000 0.0000
vt -0.0000 1.0000
vt 1.0000 1.0000
vt 1.0000 0.0000
vt 0.0000 0.0000
vt -0.0000 1.0000
vt 1.0000 1.0000
vt 1.0000 0.0000
vt 0.0000 0.0000
vn 0.0000 1.0000 0.0000
g CityEngineMaterial_743_CityEngineMaterial_743_CityEngineMaterial_743_mat
usemtl CityEngineMaterial_743_mat
s 1
f 1/1/1 2/2/1 3/3/1 4/4/1
f 5/5/1 6/6/1 7/7/1 8/8/1
f 9/9/1 7/10/1 10/11/1 11/12/1
f 12/13/1 13/14/1 14/15/1 15/16/1
f 14/15/1 16/17/1 15/16/1
f 12/13/1 15/16/1 17/18/1
f 18/19/1 19/20/1 20/21/1 21/22/1
f 22/23/1 23/24/1 24/25/1 25/26/1
f 26/27/1 27/28/1 28/29/1 29/30/1
f 26/27/1 29/30/1 30/31/1
f 31/32/1 32/33/1 33/34/1 34/35/1
f 35/36/1 36/37/1 37/38/1 38/39/1
f 38/40/1 39/41/1 40/42/1 41/43/1
f 42/44/1 43/45/1 44/46/1 45/47/1
f 46/48/1 45/47/1 44/46/1 47/49/1
f 42/44/1 45/47/1 48/50/1 49/51/1
f 42/44/1 49/51/1 50/52/1
f 51/53/1 52/54/1 53/55/1 54/56/1
f 53/55/1 55/57/1 54/56/1
f 56/58/1 51/53/1 54/56/1 57/59/1
f 51/53/1 56/58/1 58/60/1
f 59/61/1 60/62/1 61/63/1 62/64/1
f 59/61/1 62/64/1 63/65/1
f 64/66/1 65/67/1 66/68/1 67/69/1
f 68/70/1 69/71/1 70/72/1 71/73/1
f 72/74/1 73/75/1 74/76/1 75/77/1
f 76/78/1 77/79/1 78/80/1 79/81/1
f 78/80/1 80/82/1 79/81/1
f 76/78/1 79/81/1 81/83/1
f 82/84/1 83/85/1 84/86/1 85/87/1
f 86/88/1 82/84/1 85/87/1 87/89/1
f 88/90/1 89/91/1 90/92/1 91/93/1
f 88/90/1 91/93/1 92/94/1
f 93/95/1 94/96/1 95/97/1 96/98/1
f 93/95/1 96/98/1 97/99/1
f 98/100/1 99/101/1 100/102/1 101/103/1
f 102/104/1 98/100/1 101/103/1 103/105/1
f 104/106/1 105/107/1 106/108/1 107/109/1
f 104/106/1 107/109/1 108/110/1 109/111/1
f 110/112/1 111/113/1 112/114/1 113/115/1
f 114/116/1 113/115/1 112/114/1 115/117/1
f 116/118/1 110/112/1 113/115/1
f 117/119/1 118/120/1 119/121/1 120/122/1
f 121/123/1 122/124/1 123/125/1 124/126/1
f 125/127/1 126/128/1 127/129/1 128/130/1
f 127/129/1 129/131/1 128/130/1
f 125/127/1 128/130/1 130/132/1
f 131/133/1 132/134/1 133/135/1 134/136/1
f 135/137/1 136/138/1 137/139/1 138/140/1
f 139/141/1 140/142/1 141/143/1 142/144/1
f 143/145/1 144/146/1 145/147/1 146/148/1
f 146/149/1 147/150/1 148/151/1 149/152/1
f 150/153/1 151/154/1 152/155/1 153/156/1
f 154/157/1 152/158/1 155/159/1 156/160/1
f 157/161/1 158/162/1 159/163/1 160/164/1
f 160/164/1 161/165/1 162/166/1 163/167/1
f 164/168/1 159/169/1 165/170/1 166/171/1
f 167/172/1 168/173/1 169/174/1 170/175/1
f 170/175/1 169/174/1 171/176/1 172/177/1
f 171/176/1 173/178/1 172/177/1
f 167/172/1 170/175/1 174/179/1
f 175/180/1 176/181/1 177/182/1 178/183/1
f 175/180/1 178/183/1 179/184/1 180/185/1
f 181/186/1 182/187/1 183/188/1 184/189/1
f 183/188/1 185/190/1 184/189/1
f 186/191/1 181/186/1 184/189/1 187/192/1
f 184/189/1 188/193/1 187/192/1
f 189/194/1 190/195/1 191/196/1 192/197/1
f 193/198/1 194/199/1 195/200/1 196/201/1
f 197/202/1 198/203/1 199/204/1 200/205/1
f 197/202/1 200/205/1 201/206/1
f 202/207/1 203/208/1 204/209/1 205/210/1
f 202/207/1 205/210/1 206/211/1
f 207/212/1 208/213/1 209/214/1 210/215/1
f 211/216/1 212/217/1 213/218/1 214/219/1
f 215/220/1 216/221/1 217/222/1 218/223/1
f 215/220/1 218/223/1 219/224/1 220/225/1
f 214/226/1 221/227/1 222/228/1 223/229/1
f 224/230/1 213/231/1 225/232/1 226/233/1
f 227/234/1 228/235/1 229/236/1 230/237/1
f 229/236/1 231/238/1 230/237/1
f 232/239/1 227/234/1 230/237/1 233/240/1
f 230/237/1 234/241/1 233/240/1
f 235/242/1 236/243/1 237/244/1 238/245/1
f 238/246/1 239/247/1 240/248/1 241/249/1
f 242/250/1 237/251/1 243/252/1 244/253/1
