# Blender v2.78 (sub 0) OBJ File: ''
# www.blender.org
mtllib CityEngineMaterial_777.mtl
o CityEngineMaterial_777
v 449.446808 27.890163 226.312302
v 448.397400 27.890165 211.042892
v 448.397400 36.442066 211.042892
v 449.446808 36.442062 226.312302
v 444.245392 27.890165 212.792999
v 444.245392 36.442066 212.792999
v 444.794006 27.890163 220.830902
v 444.794006 36.442066 220.830902
v 445.264099 27.890163 220.632797
v 445.264099 36.442066 220.632797
v 445.670898 27.890163 226.551102
v 445.670898 36.442062 226.551102
v 445.135803 36.442066 215.787598
v 444.925598 36.442066 212.728104
v 444.925598 36.988365 212.727997
v 445.135803 36.988365 215.787598
v 444.459106 36.442066 212.924606
v 444.459106 36.988365 212.924606
v 444.978302 36.442066 220.531601
v 444.978302 36.988365 220.531601
v 445.448212 36.442066 220.333496
v 445.448212 36.988365 220.333496
v 445.860809 36.442062 226.334503
v 445.860809 36.988361 226.334503
v 449.229004 36.442062 226.121399
v 449.229004 36.988361 226.121399
v 448.213196 36.442066 211.342194
v 448.213196 36.988365 211.342194
v 446.413788 36.442066 212.100693
v 446.413788 36.988365 212.100693
v 446.660492 36.442066 215.691193
v 446.660492 36.988365 215.691193
v -246.245895 7.245843 -265.499695
v -247.217102 7.245844 -268.511505
v -247.217102 14.367544 -268.511505
v -246.245895 14.367543 -265.499695
v -258.190613 7.245843 -264.986115
v -258.190613 14.367543 -264.986115
v -265.365387 7.245842 -261.150513
v -265.365387 14.367543 -261.150513
v -262.277100 7.245842 -260.349487
v -262.277100 14.367542 -260.349487
v -262.958008 14.367543 -261.712585
v -263.620697 14.367543 -261.358307
v -263.620697 15.335143 -261.358307
v -262.958008 15.335143 -261.712585
v -262.296112 14.367543 -261.014709
v -262.296112 15.335143 -261.014709
v -247.050705 14.367543 -265.912598
v -247.050705 15.335143 -265.912598
v -247.207001 14.367544 -266.397308
v -247.207001 15.335144 -266.397308
v -262.311188 14.367543 -261.544891
v -262.311188 15.335143 -261.544891
v -527.753418 10.975494 647.515381
v -527.912415 10.975494 648.649780
v -527.912415 14.945794 648.649780
v -527.753418 14.945794 647.515381
v -532.688477 10.975494 647.978271
v -532.688477 14.945794 647.978271
v -532.832214 10.975493 655.453918
v -532.832214 14.945793 655.453918
v -511.108002 10.975493 658.508484
v -511.108002 14.945793 658.508484
v -509.918304 10.975494 650.023315
v -509.918304 14.945794 650.023315
v -526.630371 14.945794 651.791992
v -527.254211 14.945793 656.238281
v -527.254211 16.204292 656.238281
v -526.630371 16.204292 651.791992
v -512.797485 14.945793 658.270996
v -512.797485 16.204292 658.270996
v -512.173828 14.945793 653.824829
v -512.173828 16.204292 653.824829
v -520.289001 14.945794 648.565125
v -520.856873 14.945794 652.603821
v -520.856873 16.204292 652.603821
v -520.289001 16.204294 648.565125
v -514.866821 14.945793 653.445984
v -514.866821 16.204292 653.445984
v -514.298889 14.945794 649.407288
v -514.298889 16.204294 649.407288
v 70.773903 5.665368 197.737595
v 71.697098 5.665368 197.507599
v 71.697098 14.331568 197.507599
v 70.773903 14.331568 197.737595
v 72.746498 5.665371 178.457504
v 72.746498 14.331572 178.457504
v 68.572304 5.665371 179.502396
v 68.572304 14.331571 179.502396
v 68.157600 5.665370 187.030502
v 68.157600 14.331570 187.030502
v 72.199303 14.331570 188.391495
v 72.573303 14.331571 181.601700
v 72.573303 15.549971 181.601700
v 72.199303 15.549970 188.391495
v 70.604599 14.331571 181.493301
v 70.604599 15.549971 181.493301
v 70.230499 14.331570 188.283096
v 70.230499 15.549970 188.283096
v 70.457497 14.331571 184.162399
v 70.457497 15.549971 184.162399
v 69.476898 14.331571 181.431198
v 69.476898 15.549971 181.431198
v 69.329803 14.331571 184.100296
v 69.329803 15.549971 184.100296
v 237.666504 43.739338 -229.775803
v 239.917801 43.739338 -230.132599
v 239.917801 50.797939 -230.132584
v 237.666504 50.797939 -229.775787
v 239.459106 43.739338 -243.439606
v 239.459106 50.797939 -243.439484
v 240.140396 43.739338 -243.503494
v 240.140396 50.797939 -243.503479
v 239.975998 43.739342 -248.278503
v 239.975998 50.797943 -248.278488
v 237.038193 43.739342 -248.002594
v 237.038193 50.797943 -248.002579
v 323.418610 49.743732 -204.266388
v 321.713989 49.743732 -211.294891
v 321.713989 56.209133 -211.294891
v 323.418610 56.209133 -204.266388
v 323.620514 49.743732 -211.767380
v 323.620514 56.209133 -211.767380
v 322.654785 49.743732 -215.757080
v 322.654785 56.209133 -215.757080
v 307.373688 49.743732 -211.969681
v 307.373688 56.209133 -211.969681
v 311.544006 49.743729 -194.775085
v 311.544006 56.209129 -194.775085
v 326.678192 49.743732 -199.134888
v 326.678192 56.209133 -199.134888
v 325.304596 49.743732 -204.809677
v 325.304596 56.209133 -204.809677
v 307.854401 56.209133 -209.987885
v 310.925110 56.209129 -197.326889
v 310.925110 57.592831 -197.326889
v 307.854401 57.592834 -209.987885
v 317.943115 56.209133 -199.028992
v 317.943115 57.592834 -199.028992
v 314.872406 56.209133 -211.689987
v 314.872406 57.592834 -211.689987
v 316.274109 56.209133 -205.910278
v 316.274109 57.592834 -205.910278
v 322.645203 56.209133 -207.455490
v 322.645203 57.592834 -207.455490
v 321.243408 56.209133 -213.235184
v 321.243408 57.592834 -213.235184
v -170.276901 10.840152 -317.471985
v -173.081299 10.840153 -321.905914
v -173.081299 17.629251 -321.905914
v -170.276901 17.629251 -317.471985
v -177.168304 10.840153 -319.333191
v -177.168304 17.629251 -319.333191
v -177.592194 10.840153 -320.125885
v -177.592194 17.629251 -320.125885
v -188.594406 10.840152 -313.204712
v -188.594406 17.629251 -313.204712
v -185.688202 10.840151 -307.770905
v -185.688202 17.629250 -307.770905
v -185.843307 17.629251 -312.475586
v -184.906204 17.629251 -310.723389
v -184.906204 18.702951 -310.723389
v -185.843307 18.702951 -312.475586
v -173.151794 17.629251 -318.122498
v -173.151794 18.702951 -318.122498
v -173.498703 17.629251 -318.670898
v -173.498703 18.702951 -318.670898
v -178.011002 17.629251 -315.830414
v -178.011002 18.702951 -315.830414
v -178.640198 17.629251 -317.006805
v -178.640198 18.702951 -317.006805
v -111.082802 4.952313 532.907227
v -115.703598 4.952313 533.233704
v -115.703598 8.922013 533.233704
v -111.082802 8.921913 532.907227
v -113.751404 4.952309 560.608582
v -113.751404 8.921908 560.608582
v -110.918404 4.952309 560.518005
v -110.918404 8.921908 560.518005
v -112.635902 4.952313 536.509277
v -112.635902 8.921912 536.509277
v -112.632401 4.952313 535.961182
v -112.632401 8.922012 535.961182
v -112.546097 4.952313 535.419495
v -112.546097 8.922013 535.419495
v -112.380203 4.952313 534.896423
v -112.380203 8.922013 534.896423
v -112.138298 4.952313 534.404419
v -112.138298 8.921913 534.404419
v -114.067398 8.922012 536.010071
v -114.066299 8.922012 535.843079
v -114.066299 9.783412 535.843079
v -114.067398 9.783412 536.010071
v -113.945900 8.922013 535.088013
v -113.945900 9.783413 535.088013
v -113.770599 8.922013 534.535278
v -113.770599 9.783413 534.535278
v -114.170502 8.921913 534.563477
v -114.170502 9.783413 534.563477
vt 0.3333 -0.4000
vt 3.3333 -0.4000
vt 3.3333 1.0000
vt 0.3333 1.0000
vt 0.1667 -0.4000
vt 1.0000 -0.4000
vt 1.0000 1.0000
vt 0.1667 1.0000
vt 0.3333 -0.4000
vt 1.8333 -0.4000
vt 1.8333 1.0000
vt 0.3333 1.0000
vt 0.1667 -0.4000
vt 0.3333 -0.4000
vt 0.3333 1.0000
vt 0.1667 1.0000
vt 0.5000 -0.4000
vt 1.6667 -0.4000
vt 1.6667 1.0000
vt 0.5000 1.0000
vt 0.5000 -0.4000
vt 1.1667 -0.4000
vt 1.1667 1.0000
vt 0.5000 1.0000
vt 0.1667 0.9800
vt 0.8333 0.9800
vt 0.8333 1.0000
vt 0.1667 1.0000
vt 0.6667 0.9800
vt 0.8333 0.9800
vt 0.8333 1.0000
vt 0.6667 1.0000
vt 0.3333 0.9800
vt 1.8333 0.9800
vt 1.8333 1.0000
vt 0.3333 1.0000
vt 0.6667 0.9800
vt 0.8333 0.9800
vt 0.8333 1.0000
vt 0.6667 1.0000
vt 0.0000 0.9800
vt 1.1667 0.9800
vt 1.1667 1.0000
vt 0.0000 1.0000
vt 0.8333 0.9800
vt 1.5000 0.9800
vt 1.5000 1.0000
vt 0.8333 1.0000
vt 0.6667 0.9800
vt 3.5000 0.9800
vt 3.5000 1.0000
vt 0.6667 1.0000
vt 0.8333 0.9800
vt 1.1667 0.9800
vt 1.1667 1.0000
vt 0.8333 1.0000
vt 0.6667 0.9800
vt 1.3333 0.9800
vt 1.3333 1.0000
vt 0.6667 1.0000
vt 0.1667 0.9800
vt 0.5000 0.9800
vt 0.5000 1.0000
vt 0.1667 1.0000
vt 0.6667 -0.2000
vt 1.1667 -0.2000
vt 1.1667 1.0000
vt 0.6667 1.0000
vt 0.6667 -0.2000
vt 2.6667 -0.2000
vt 2.6667 1.0000
vt 0.6667 1.0000
vt 0.1667 -0.2000
vt 1.6667 -0.2000
vt 1.6667 1.0000
vt 0.1667 1.0000
vt -0.0000 -0.2000
vt 0.5000 -0.2000
vt 0.5000 1.0000
vt 0.0000 1.0000
vt 3.5000 -0.2000
vt 3.5000 1.0000
vt 0.5000 0.8000
vt 0.6667 0.8000
vt 0.6667 1.0000
vt 0.5000 1.0000
vt 0.8333 0.8000
vt 0.8333 1.0000
vt 0.6667 0.8000
vt 3.5000 0.8000
vt 3.5000 1.0000
vt 0.6667 1.0000
vt 0.8333 0.8000
vt 1.0000 0.8000
vt 1.0000 1.0000
vt 0.8333 1.0000
vt 0.3333 0.8000
vt 3.1667 0.8000
vt 3.1667 1.0000
vt 0.3333 1.0000
vt 0.1667 0.8000
vt 0.3333 0.8000
vt 0.3333 1.0000
vt 0.1667 1.0000
vt 0.8333 0.4000
vt 1.0000 0.4000
vt 1.0000 1.0000
vt 0.8333 1.0000
vt 0.1667 0.4000
vt 1.0000 0.4000
vt 1.0000 1.0000
vt 0.1667 1.0000
vt 0.0000 0.4000
vt 1.3333 0.4000
vt 1.3333 1.0000
vt 0.0000 1.0000
vt 0.3333 0.4000
vt 4.1667 0.4000
vt 4.1667 1.0000
vt 0.3333 1.0000
vt 0.1667 0.4000
vt 1.6667 0.4000
vt 1.6667 1.0000
vt 0.1667 1.0000
vt 0.1667 0.4000
vt 3.3333 0.4000
vt 3.3333 1.0000
vt 0.1667 1.0000
vt 0.3333 0.8000
vt 1.1667 0.8000
vt 1.1667 1.0000
vt 0.3333 1.0000
vt 0.1667 0.8000
vt 2.6667 0.8000
vt 2.6667 1.0000
vt 0.1667 1.0000
vt 0.1667 0.8000
vt 1.0000 0.8000
vt 1.0000 1.0000
vt 0.1667 1.0000
vt 0.1667 0.8000
vt 2.6667 0.8000
vt 2.6667 1.0000
vt 0.1667 1.0000
vt 0.6667 0.8000
vt 1.3333 0.8000
vt 1.3333 1.0000
vt 0.6667 1.0000
vt 0.5000 0.8000
vt 1.5000 0.8000
vt 1.5000 1.0000
vt 0.5000 1.0000
vt 0.3333 0.8000
vt 1.0000 0.8000
vt 1.0000 1.0000
vt 0.3333 1.0000
vt 0.8333 0.8000
vt 1.8333 0.8000
vt 1.8333 1.0000
vt 0.8333 1.0000
vt 0.5000 -0.6000
vt 0.6667 -0.6000
vt 0.6667 1.0000
vt 0.5000 1.0000
vt 0.1667 -0.6000
vt 3.5000 -0.6000
vt 3.5000 1.0000
vt 0.1667 1.0000
vt 0.8333 -0.6000
vt 1.6667 -0.6000
vt 1.6667 1.0000
vt 0.8333 1.0000
vt 0.6667 -0.6000
vt 2.0000 -0.6000
vt 2.0000 1.0000
vt 0.6667 1.0000
vt 0.0000 -0.6000
vt 2.0000 -0.6000
vt 2.0000 1.0000
vt 0.0000 1.0000
vt 0.5000 0.8000
vt 1.6667 0.8000
vt 1.6667 1.0000
vt 0.5000 1.0000
vt 0.5000 0.8000
vt 0.8333 0.8000
vt 0.8333 1.0000
vt 0.5000 1.0000
vt 0.3333 0.8000
vt 1.5000 0.8000
vt 1.5000 1.0000
vt 0.3333 1.0000
vt 0.3333 0.8000
vt 0.6667 0.8000
vt 0.6667 1.0000
vt 0.3333 1.0000
vt 0.3333 0.8000
vt 0.3333 1.0000
vt 0.1667 0.8000
vt 0.3333 0.8000
vt 0.3333 1.0000
vt 0.1667 1.0000
vt 0.0000 0.8000
vt 0.5000 0.8000
vt 0.5000 1.0000
vt 0.0000 1.0000
vt 0.6667 0.8000
vt 0.8333 0.8000
vt 0.8333 1.0000
vt 0.6667 1.0000
vt 0.5000 -0.2000
vt 0.8333 -0.2000
vt 0.8333 1.0000
vt 0.5000 1.0000
vt 0.5000 -0.2000
vt 2.3333 -0.2000
vt 2.3333 1.0000
vt 0.5000 1.0000
vt 0.5000 -0.2000
vt 0.6667 -0.2000
vt 0.6667 1.0000
vt 0.5000 1.0000
vt 0.1667 -0.2000
vt 0.8333 -0.2000
vt 0.8333 1.0000
vt 0.1667 1.0000
vt 0.1667 -0.2000
vt 0.5000 -0.2000
vt 0.5000 1.0000
vt 0.1667 1.0000
vt 0.1667 -0.2000
vt 2.6667 -0.2000
vt 2.6667 1.0000
vt 0.1667 1.0000
vt 0.6667 0.0000
vt 1.5000 0.0000
vt 1.5000 1.0000
vt 0.6667 1.0000
vt 0.1667 0.0000
vt 0.3333 0.0000
vt 0.3333 1.0000
vt 0.1667 1.0000
vt 0.8333 0.0000
vt 0.8333 1.0000
vt 0.5000 0.0000
vt 2.3333 0.0000
vt 2.3333 1.0000
vt 0.5000 1.0000
vt 0.1667 0.0000
vt 2.1667 0.0000
vt 2.1667 1.0000
vt 0.1667 1.0000
vt 0.5000 0.0000
vt 2.3333 0.0000
vt 2.3333 1.0000
vt 0.5000 1.0000
vt 0.3333 0.0000
vt 1.0000 0.0000
vt 1.0000 1.0000
vt 0.3333 1.0000
vt 0.5000 0.0000
vt 0.5000 1.0000
vt 0.5000 0.8000
vt 2.0000 0.8000
vt 2.0000 1.0000
vt 0.5000 1.0000
vt 0.3333 0.8000
vt 1.1667 0.8000
vt 1.1667 1.0000
vt 0.3333 1.0000
vt 0.6667 0.8000
vt 2.1667 0.8000
vt 2.1667 1.0000
vt 0.6667 1.0000
vt 0.1667 0.8000
vt 1.0000 0.8000
vt 1.0000 1.0000
vt 0.1667 1.0000
vt 0.8333 0.8000
vt 0.8333 1.0000
vt 0.6667 0.8000
vt 1.5000 0.8000
vt 1.5000 1.0000
vt 0.6667 1.0000
vt 0.5000 0.8000
vt 1.1667 0.8000
vt 1.1667 1.0000
vt 0.5000 1.0000
vt 0.0000 0.8000
vt 0.8333 0.8000
vt 0.8333 1.0000
vt 0.0000 1.0000
vt 0.6667 0.0000
vt 1.3333 0.0000
vt 1.3333 1.0000
vt 0.6667 1.0000
vt 0.0000 0.0000
vt 0.6667 0.0000
vt 0.6667 1.0000
vt 0.0000 1.0000
vt 0.1667 0.0000
vt 0.3333 0.0000
vt 0.3333 1.0000
vt 0.1667 1.0000
vt 2.1667 0.0000
vt 2.1667 1.0000
vt 0.6667 0.0000
vt 1.5000 0.0000
vt 1.5000 1.0000
vt 0.6667 1.0000
vt 0.3333 0.0000
vt 2.8333 0.0000
vt 2.8333 1.0000
vt 0.3333 1.0000
vt 0.3333 0.8000
vt 0.6667 0.8000
vt 0.6667 1.0000
vt 0.3333 1.0000
vt 0.5000 0.8000
vt 2.5000 0.8000
vt 2.5000 1.0000
vt 0.5000 1.0000
vt 0.3333 0.8000
vt 0.5000 0.8000
vt 0.5000 1.0000
vt 0.3333 1.0000
vt 0.1667 0.8000
vt 0.8333 0.8000
vt 0.8333 1.0000
vt 0.1667 1.0000
vt 0.0000 0.8000
vt 0.1667 0.8000
vt 0.1667 1.0000
vt 0.0000 1.0000
vt 0.3333 0.8000
vt 1.5000 0.8000
vt 1.5000 1.0000
vt 0.3333 1.0000
vt 0.5000 0.4000
vt 1.0000 0.4000
vt 1.0000 1.0000
vt 0.5000 1.0000
vt 0.5000 0.4000
vt 3.6667 0.4000
vt 3.6667 1.0000
vt 0.5000 1.0000
vt 0.6667 0.4000
vt 1.0000 0.4000
vt 1.0000 1.0000
vt 0.6667 1.0000
vt 0.6667 0.4000
vt 3.5000 0.4000
vt 3.5000 1.0000
vt 0.6667 1.0000
vt 0.1667 0.4000
vt 0.2000 0.4000
vt 0.2000 1.0000
vt 0.1667 1.0000
vt 0.1667 0.4000
vt 0.2000 0.4000
vt 0.2000 1.0000
vt 0.1667 1.0000
vt 0.1667 0.4000
vt 0.2000 0.4000
vt 0.2000 1.0000
vt 0.1667 1.0000
vt 0.6667 0.4000
vt 0.7000 0.4000
vt 0.7000 1.0000
vt 0.6667 1.0000
vt 0.8333 0.4000
vt 1.0000 0.4000
vt 1.0000 1.0000
vt 0.8333 1.0000
vt 0.1667 0.9800
vt 0.2000 0.9800
vt 0.2000 1.0000
vt 0.1667 1.0000
vt 0.3333 0.9800
vt 0.5000 0.9800
vt 0.5000 1.0000
vt 0.3333 1.0000
vt 0.1667 0.9800
vt 0.2000 0.9800
vt 0.2000 1.0000
vt 0.1667 1.0000
vt 0.1667 0.9800
vt 0.2000 0.9800
vt 0.2000 1.0000
vt 0.1667 1.0000
vt 0.5000 0.9800
vt 0.6667 0.9800
vt 0.6667 1.0000
vt 0.5000 1.0000
vn 0.9976 0.0000 -0.0686
vn -0.3884 0.0000 -0.9215
vn -0.9977 0.0000 0.0681
vn 0.3883 0.0000 0.9215
vn -0.9976 0.0000 0.0686
vn 0.0631 0.0000 0.9980
vn 0.9976 -0.0001 -0.0685
vn -0.3883 -0.0001 -0.9215
vn 0.3885 0.0000 0.9215
vn -0.9976 0.0000 0.0685
vn -0.0631 0.0000 -0.9980
vn 0.9517 0.0000 -0.3069
vn -0.3059 0.0000 -0.9521
vn -0.4715 0.0000 -0.8819
vn -0.2511 0.0000 0.9680
vn 0.3059 0.0000 0.9521
vn 0.2510 0.0000 -0.9680
vn -0.9903 0.0000 -0.1388
vn 0.1392 0.0000 -0.9903
vn -0.9998 0.0000 -0.0192
vn -0.1392 0.0000 0.9903
vn 0.9903 0.0000 0.1389
vn -0.9903 0.0000 -0.1389
vn -0.9903 0.0000 -0.1392
vn 0.9903 0.0000 0.1393
vn 0.2418 0.0000 0.9703
vn 0.9985 0.0000 0.0550
vn -0.2428 0.0000 -0.9701
vn -0.9985 0.0000 -0.0550
vn -0.9714 0.0000 0.2374
vn 0.0550 0.0000 -0.9985
vn -0.0550 0.0000 0.9985
vn 0.1565 -0.0000 0.9877
vn 0.9994 0.0000 -0.0344
vn 0.0934 -0.0000 0.9956
vn -0.0935 0.0000 -0.9956
vn -0.9994 0.0000 0.0345
vn 0.9718 0.0000 -0.2357
vn 0.2406 0.0000 0.9706
vn 0.9719 0.0000 -0.2353
vn -0.2406 0.0000 -0.9706
vn -0.9718 0.0000 0.2357
vn 0.2768 0.0000 0.9609
vn -0.2768 0.0000 -0.9609
vn 0.2357 0.0000 0.9718
vn -0.2357 0.0000 -0.9718
vn 0.8451 0.0000 -0.5345
vn -0.5327 0.0000 -0.8463
vn 0.8818 0.0000 -0.4716
vn -0.5325 0.0000 -0.8464
vn -0.8818 0.0000 0.4716
vn 0.5327 0.0000 0.8463
vn 0.8451 0.0000 -0.5346
vn -0.0705 0.0000 -0.9975
vn -0.9975 0.0000 0.0711
vn 0.0319 0.0000 0.9995
vn 0.9975 0.0000 -0.0714
vn 1.0000 0.0000 0.0064
vn 0.9875 0.0000 0.1573
vn 0.9532 0.0000 0.3023
vn 0.8974 0.0000 0.4412
vn 0.8173 0.0000 0.5762
vn 1.0000 0.0000 0.0066
vn 0.9875 0.0000 0.1575
vn -0.0703 0.0000 -0.9975
g CityEngineMaterial_777_CityEngineMaterial_777_CityEngineMaterial_777_mat
usemtl CityEngineMaterial_777_mat
s 1
f 1/1/1 2/2/1 3/3/1 4/4/1
f 2/5/2 5/6/2 6/7/2 3/8/2
f 5/9/3 7/10/3 8/11/3 6/12/3
f 7/13/4 9/14/4 10/15/4 8/16/4
f 9/17/5 11/18/5 12/19/5 10/20/5
f 11/21/6 1/22/6 4/23/6 12/24/6
f 13/25/7 14/26/7 15/27/7 16/28/7
f 14/29/8 17/30/8 18/31/8 15/32/8
f 17/33/3 19/34/3 20/35/3 18/36/3
f 19/37/9 21/38/9 22/39/9 20/40/9
f 21/41/5 23/42/5 24/43/5 22/44/5
f 23/45/6 25/46/6 26/47/6 24/48/6
f 25/49/1 27/50/1 28/51/1 26/52/1
f 27/53/2 29/54/2 30/55/2 28/56/2
f 29/57/10 31/58/10 32/59/10 30/60/10
f 31/61/11 13/62/11 16/63/11 32/64/11
f 33/65/12 34/66/12 35/67/12 36/68/12
f 34/69/13 37/70/13 38/71/13 35/72/13
f 37/73/14 39/74/14 40/75/14 38/76/14
f 39/77/15 41/78/15 42/79/15 40/80/15
f 41/78/16 33/81/16 36/82/16 42/79/16
f 43/83/14 44/84/14 45/85/14 46/86/14
f 44/84/15 47/87/15 48/88/15 45/85/15
f 47/89/16 49/90/16 50/91/16 48/92/16
f 49/93/12 51/94/12 52/95/12 50/96/12
f 51/97/13 53/98/13 54/99/13 52/100/13
f 53/101/17 43/102/17 46/103/17 54/104/17
f 55/105/18 56/106/18 57/107/18 58/108/18
f 56/109/19 59/110/19 60/111/19 57/112/19
f 59/113/20 61/114/20 62/115/20 60/116/20
f 61/117/21 63/118/21 64/119/21 62/120/21
f 63/121/22 65/122/22 66/123/22 64/124/22
f 65/125/19 55/126/19 58/127/19 66/128/19
f 67/129/23 68/130/23 69/131/23 70/132/23
f 68/133/21 71/134/21 72/135/21 69/136/21
f 71/137/22 73/138/22 74/139/22 72/140/22
f 73/141/19 67/142/19 70/143/19 74/144/19
f 75/145/24 76/146/24 77/147/24 78/148/24
f 76/149/21 79/150/21 80/151/21 77/152/21
f 79/153/25 81/154/25 82/155/25 80/156/25
f 81/157/19 75/158/19 78/159/19 82/160/19
f 83/161/26 84/162/26 85/163/26 86/164/26
f 84/165/27 87/166/27 88/167/27 85/168/27
f 87/169/28 89/170/28 90/171/28 88/172/28
f 89/173/29 91/174/29 92/175/29 90/176/29
f 91/177/30 83/178/30 86/179/30 92/180/30
f 93/181/27 94/182/27 95/183/27 96/184/27
f 94/185/31 97/186/31 98/187/31 95/188/31
f 97/189/29 99/190/29 100/191/29 98/192/29
f 99/193/32 93/194/32 96/195/32 100/196/32
f 101/197/27 97/186/27 98/187/27 102/198/27
f 97/199/31 103/200/31 104/201/31 98/202/31
f 103/203/29 105/204/29 106/205/29 104/206/29
f 105/207/32 101/208/32 102/209/32 106/210/32
f 107/211/33 108/212/33 109/213/33 110/214/33
f 108/215/34 111/216/34 112/217/34 109/218/34
f 111/219/35 113/220/35 114/221/35 112/222/35
f 113/223/34 115/224/34 116/225/34 114/226/34
f 115/227/36 117/228/36 118/229/36 116/230/36
f 117/231/37 107/232/37 110/233/37 118/234/37
f 119/235/38 120/236/38 121/237/38 122/238/38
f 120/239/39 123/240/39 124/241/39 121/242/39
f 123/240/40 125/243/40 126/244/40 124/241/40
f 125/245/41 127/246/41 128/247/41 126/248/41
f 127/249/42 129/250/42 130/251/42 128/252/42
f 129/253/43 131/254/43 132/255/43 130/256/43
f 131/257/40 133/258/40 134/259/40 132/260/40
f 133/261/44 119/235/44 122/238/44 134/262/44
f 135/263/42 136/264/42 137/265/42 138/266/42
f 136/267/45 139/268/45 140/269/45 137/270/45
f 139/271/38 141/272/38 142/273/38 140/274/38
f 141/275/46 135/276/46 138/277/46 142/278/46
f 141/275/42 143/279/42 144/280/42 142/278/42
f 143/281/45 145/282/45 146/283/45 144/284/45
f 145/285/38 147/286/38 148/287/38 146/288/38
f 147/289/46 141/290/46 142/291/46 148/292/46
f 149/293/47 150/294/47 151/295/47 152/296/47
f 150/297/48 153/298/48 154/299/48 151/300/48
f 153/301/49 155/302/49 156/303/49 154/304/49
f 155/302/50 157/305/50 158/306/50 156/303/50
f 157/307/51 159/308/51 160/309/51 158/310/51
f 159/311/52 149/312/52 152/313/52 160/314/52
f 161/315/51 162/316/51 163/317/51 164/318/51
f 162/319/52 165/320/52 166/321/52 163/322/52
f 165/323/53 167/324/53 168/325/53 166/326/53
f 167/327/48 169/328/48 170/329/48 168/330/48
f 169/331/49 171/332/49 172/333/49 170/334/49
f 171/335/50 161/336/50 164/337/50 172/338/50
f 173/339/54 174/340/54 175/341/54 176/342/54
f 174/343/55 177/344/55 178/345/55 175/346/55
f 177/347/56 179/348/56 180/349/56 178/350/56
f 179/351/57 181/352/57 182/353/57 180/354/57
f 181/355/58 183/356/58 184/357/58 182/358/58
f 183/359/59 185/360/59 186/361/59 184/362/59
f 185/363/60 187/364/60 188/365/60 186/366/60
f 187/367/61 189/368/61 190/369/61 188/370/61
f 189/371/62 173/372/62 176/373/62 190/374/62
f 191/375/63 192/376/63 193/377/63 194/378/63
f 192/379/64 195/380/64 196/381/64 193/382/64
f 195/383/60 197/384/60 198/385/60 196/386/60
f 197/387/65 199/388/65 200/389/65 198/390/65
f 199/391/55 191/392/55 194/393/55 200/394/55
