# Blender v2.78 (sub 0) OBJ File: ''
# www.blender.org
mtllib CityEngineMaterial_705.mtl
o CityEngineMaterial_705
v -1314.073242 18.047848 319.190399
v -1311.449585 18.047848 319.165588
v -1311.456543 18.357449 318.426392
v -1314.080200 18.357449 318.450989
v -1311.463501 18.047848 317.687103
v -1314.087158 18.047848 317.711792
v -1313.027832 18.047848 319.336914
v -1313.036255 18.047848 318.441193
v -1313.558228 18.266449 318.446106
v -1313.549805 18.266449 319.341797
v -1314.080200 18.047848 318.450989
v -1314.071777 18.047848 319.346710
v 505.565399 74.188377 153.033020
v 505.413086 74.188377 150.400513
v 504.931610 74.365479 150.428421
v 505.083893 74.365479 153.060913
v 504.450104 74.188377 150.456223
v 504.602386 74.188377 153.088715
v 505.526398 74.188377 150.394012
v 504.931610 74.188377 150.428421
v 504.964813 74.399078 151.001312
v 505.559509 74.399078 150.966919
v 504.997894 74.188377 151.574219
v 505.592590 74.188377 151.539810
v 97.600098 126.755386 115.039223
v 95.315598 126.755386 115.226326
v 96.000504 127.044685 115.807625
v 97.018799 127.044685 115.724220
v 95.419197 126.755386 116.492523
v 97.703796 126.755386 116.305420
v 97.065300 126.755386 114.686119
v 95.785797 126.755386 114.790924
v 96.477898 127.047684 115.378326
v 95.908798 126.755386 116.293121
v 96.496201 127.047684 115.601021
v 97.188301 126.755386 116.188324
v 656.810120 99.841721 -120.782082
v 650.475708 99.841721 -119.802887
v 650.657715 100.436119 -118.625984
v 656.992004 100.436119 -119.605186
v 650.839600 99.841721 -117.449081
v 657.174011 99.841721 -118.428284
v 650.401978 99.841721 -120.279488
v 650.657715 99.841721 -118.625984
v 652.113586 100.577026 -118.850983
v 651.857971 100.577026 -120.504585
v 653.569580 99.841721 -119.076088
v 653.314026 99.841721 -120.729683
v 272.404510 56.051422 -750.636292
v 271.607086 56.051422 -753.599121
v 271.045990 56.379421 -753.448120
v 271.846313 56.377724 -750.486084
v 270.484894 56.051422 -753.297119
v 271.288086 56.051422 -750.335876
v 271.269592 56.051422 -752.619019
v 270.410309 56.051422 -752.385986
v 270.587097 56.432621 -751.734070
v 271.445404 56.432621 -751.966919
v 270.763885 56.051422 -751.082275
v 271.621185 56.051422 -751.314819
v 574.098083 48.666260 255.474014
v 570.903015 48.666260 256.223206
v 571.875671 48.979759 256.826385
v 573.494995 48.979759 256.446686
v 571.272583 48.666260 257.799011
v 574.467712 48.666260 257.049805
v 574.004883 48.666260 255.076721
v 572.989807 48.666260 255.314713
v 573.616394 48.868156 255.703308
v 573.406311 48.666260 257.090912
v 573.794922 48.868156 256.464203
v 574.421387 48.666260 256.852814
v 571.896118 48.666260 255.571213
v 570.809875 48.666260 255.825912
v 571.480286 48.882359 256.241699
v 571.226379 48.666260 257.602112
v 571.642212 48.882359 256.931488
v 572.312622 48.666260 257.347290
v -31.644600 52.819862 238.978714
v -27.728300 52.819862 237.799408
v -27.865299 53.084362 237.344513
v -31.781601 53.084362 238.523712
v -28.002300 52.819862 236.889511
v -31.918600 52.819862 238.068817
v -29.985300 52.819862 238.715714
v -30.187599 52.819862 238.043808
v -30.984600 53.283161 238.283722
v -30.782301 53.283161 238.955719
v -31.781601 52.819862 238.523712
v -31.579201 52.819862 239.195709
v 414.574799 78.540970 -406.717407
v 415.201294 78.540970 -405.537598
v 415.771790 78.845070 -405.840515
v 415.145203 78.845070 -407.020294
v 416.342194 78.540970 -406.143402
v 415.715607 78.540970 -407.323212
v 666.985718 110.984947 -276.908478
v 666.258179 110.984947 -281.608673
v 665.476501 111.465546 -280.540680
v 665.917725 111.465546 -277.690155
v 664.408630 110.984947 -281.322357
v 665.135986 110.984947 -276.622162
v 667.239685 110.984947 -276.947784
v 666.954590 110.984947 -278.790070
v 666.176025 111.463646 -277.726379
v 665.081970 110.984947 -278.500275
v 666.145813 111.463646 -277.721680
v 665.367188 110.984947 -276.657959
v -348.897797 23.941408 560.553406
v -352.349091 23.941408 560.582092
v -352.341492 24.425808 561.490479
v -348.890289 24.425808 561.461792
v -352.333893 23.941408 562.398987
v -348.882690 23.941408 562.370178
v 703.440430 58.125145 318.898895
v 709.086426 58.125145 317.576599
v 708.172119 58.414146 317.009308
v 704.007690 58.414146 317.984589
v 708.739380 58.125145 316.095093
v 703.093506 58.125145 317.417389
v 705.834412 58.125145 318.793304
v 709.187378 58.125145 318.008087
v 708.121216 58.462246 317.346497
v 706.495972 58.462246 317.727112
v 708.782776 58.125145 316.280304
v 705.429688 58.125145 317.065613
v 117.359596 59.962135 -819.419128
v 114.084000 59.962135 -818.906128
v 114.232597 60.363934 -817.962524
v 117.507401 60.363632 -818.476074
v 114.381302 59.962135 -817.018921
v 117.655098 59.962135 -817.532776
v 114.003899 59.962135 -819.417175
v 114.233498 59.962135 -817.962585
v 114.977303 60.278835 -818.079285
v 114.748497 60.279133 -819.533813
v 115.721001 59.962135 -818.195984
v 115.493202 59.962135 -819.650513
v -187.916504 9.226559 865.361877
v -190.098206 9.226559 867.790527
v -189.075302 9.872159 868.710815
v -186.892899 9.872559 866.282593
v -188.052399 9.226558 869.630981
v -185.869400 9.226559 867.203430
v -187.784195 9.226559 867.274475
v -186.552597 9.226559 868.382019
v -186.106903 9.539359 867.886414
v -187.338501 9.539459 866.778503
v -185.661102 9.226559 867.390686
v -186.892807 9.226559 866.282471
v 152.376694 109.209389 67.164719
v 156.612000 109.209389 66.996216
v 156.048706 109.429192 66.476112
v 152.896896 109.429192 66.601418
v 156.568893 109.209389 65.912819
v 152.333603 109.209389 66.081314
v 152.385803 109.209389 67.393318
v 153.905106 109.209389 67.332817
v 153.293396 109.448090 66.768013
v 152.950699 109.448090 66.781616
v 153.858307 109.209389 66.156319
v 152.339005 109.209389 66.216713
v 994.631104 118.219131 -199.962891
v 997.613770 118.219131 -198.356979
v 998.034485 118.630630 -199.138489
v 995.051880 118.630630 -200.744385
v 998.455322 118.219131 -199.919983
v 995.472595 118.219131 -201.525879
v -386.326691 23.376549 313.963501
v -384.186401 23.376549 313.764313
v -384.250702 23.657349 313.073212
v -386.390991 23.657349 313.272491
v -384.315002 23.376549 312.382294
v -386.455292 23.376549 312.581512
v -384.160889 23.376549 314.037109
v -384.250702 23.376549 313.073212
v -384.659088 23.542549 313.111298
v -384.569305 23.542549 314.075104
v -385.067413 23.376549 313.149292
v -384.977692 23.376549 314.113098
v 441.577393 65.852142 -257.866089
v 441.009888 65.852142 -260.824493
v 439.941101 66.452843 -260.619385
v 440.508606 66.452843 -257.661102
v 438.872192 65.852142 -260.414307
v 439.439789 65.852036 -257.455994
v 441.622101 65.852142 -257.633087
v 441.293610 65.852142 -259.345306
v 440.765106 66.149147 -259.243896
v 441.093597 66.149139 -257.531799
v 440.236603 65.852142 -259.142487
v 440.565094 65.852036 -257.430389
v 499.589905 50.377235 396.653992
v 497.468414 50.377235 388.188904
v 496.752106 50.664936 388.368408
v 498.873505 50.664936 396.833496
v 496.035706 50.377235 388.548004
v 498.157196 50.377235 397.013000
v 498.700500 50.377235 392.413696
v 497.821106 50.377235 392.634094
v 498.347290 51.220535 394.733795
v 499.226807 51.220535 394.513397
v 498.873505 50.377235 396.833496
v 499.752991 50.377235 396.613098
v -432.849213 21.961842 367.862213
v -432.673187 21.961840 370.058014
v -431.663391 22.458839 368.871490
v -428.345398 21.961840 369.708588
v -429.530914 22.458841 368.699310
v -428.520691 21.961842 367.512787
v -106.255898 37.432701 -1241.737183
v -106.526703 37.432701 -1246.428833
v -107.149597 37.710903 -1245.729736
v -106.955101 37.710903 -1242.360107
v -107.848701 37.432701 -1246.352539
v -107.577904 37.432701 -1241.660889
v -106.117897 37.432701 -1244.341797
v -106.239304 37.432701 -1246.445435
v -106.919701 37.736603 -1245.681641
v -106.881699 37.736603 -1245.022217
v -107.683502 37.432701 -1246.362061
v -107.561996 37.432701 -1244.258423
vt -0.0287 -0.0249
vt 0.4420 -0.0249
vt 0.4420 0.1189
vt -0.0287 0.1189
vt -0.0076 -0.0248
vt 0.4632 -0.0248
vt 0.4632 0.1190
vt -0.0076 0.1190
vt -0.0622 -0.0125
vt 0.0985 -0.0125
vt 0.0985 0.0890
vt -0.0622 0.0890
vt -0.0658 -0.0183
vt 0.0949 -0.0183
vt 0.0949 0.0832
vt -0.0658 0.0832
vt -0.0464 -0.0449
vt 0.4255 -0.0449
vt 0.4255 0.0471
vt -0.0464 0.0471
vt -0.0276 -0.0016
vt 0.4443 -0.0016
vt 0.4443 0.0904
vt -0.0276 0.0904
vt -0.0577 -0.0242
vt 0.0490 -0.0242
vt 0.0490 0.0852
vt -0.0577 0.0852
vt -0.0069 -0.0677
vt 0.0998 -0.0677
vt 0.0998 0.0417
vt -0.0069 0.0417
vt -0.0469 -0.0445
vt 0.4826 -0.0445
vt 0.3359 0.1167
vt 0.0999 0.1167
vt -0.0222 -0.0426
vt 0.2713 -0.0426
vt 0.1245 0.1186
vt -0.0203 -0.0661
vt 0.5092 -0.0661
vt 0.3625 0.0951
vt 0.1265 0.0951
vt -0.0438 -0.0408
vt 0.2497 -0.0408
vt 0.1030 0.1205
vt -0.0246 -0.0709
vt 0.2719 -0.0709
vt 0.1237 0.0921
vt -0.0485 -0.0470
vt 0.2996 -0.0470
vt 0.1514 0.1159
vt 0.0997 0.1159
vt -0.0247 -0.0481
vt 0.2718 -0.0481
vt 0.1236 0.1148
vt -0.0258 -0.0698
vt 0.3224 -0.0698
vt 0.1741 0.0932
vt 0.1225 0.0932
vt -0.0246 -0.0470
vt 1.1846 -0.0470
vt 1.1846 0.2042
vt -0.0246 0.2042
vt -0.0287 -0.0265
vt 1.1805 -0.0265
vt 1.1805 0.2246
vt -0.0287 0.2246
vt -0.0151 -0.0046
vt 0.3006 -0.0046
vt 0.3006 0.3060
vt -0.0151 0.3060
vt -0.0607 -0.0367
vt 0.2550 -0.0367
vt 0.2550 0.2740
vt -0.0607 0.2740
vt -0.0810 -0.0442
vt 0.6231 -0.0442
vt 0.6231 0.1089
vt -0.0809 0.1082
vt -0.0220 -0.0687
vt 0.6821 -0.0687
vt 0.6824 0.0836
vt -0.0217 0.0844
vt -0.0004 -0.0594
vt 0.2039 -0.0594
vt 0.2039 0.1185
vt -0.0001 0.1185
vt -0.0372 -0.0681
vt 0.1666 -0.0681
vt 0.1668 0.1099
vt -0.0372 0.1099
vt -0.0536 -0.0475
vt 0.5708 -0.0475
vt 0.4168 0.1176
vt 0.1004 0.1176
vt -0.0291 -0.0032
vt 0.2788 -0.0032
vt 0.1249 0.1619
vt -0.0597 -0.0104
vt 0.5647 -0.0104
vt 0.4108 0.1547
vt 0.0943 0.1547
vt -0.0669 -0.0022
vt 0.2411 -0.0022
vt 0.0871 0.1629
vt -0.0614 -0.0107
vt 0.1370 -0.0107
vt 0.0378 0.0957
vt -0.0672 -0.0077
vt 0.2799 -0.0077
vt 0.1807 0.0987
vt 0.0320 0.0987
vt -0.0642 -0.0501
vt 0.1342 -0.0501
vt 0.0350 0.0563
vt -0.0317 -0.0535
vt 0.3155 -0.0535
vt 0.2163 0.0528
vt 0.0675 0.0528
vt -0.0141 -0.0412
vt 0.1982 -0.0412
vt 0.0920 0.0726
vt -0.0228 -0.0455
vt 0.3243 -0.0455
vt 0.2182 0.0683
vt 0.0834 0.0683
vt -0.0271 -0.0478
vt 0.1851 -0.0478
vt 0.0790 0.0660
vt -0.0294 -0.0617
vt 0.3177 -0.0617
vt 0.2116 0.0521
vt 0.0767 0.0521
vt -0.0069 -0.0142
vt 0.7242 -0.0142
vt 0.7242 0.0830
vt -0.0069 0.0830
vt -0.0673 -0.0022
vt 0.6639 -0.0022
vt 0.6639 0.0950
vt -0.0673 0.0950
vt -0.0337 -0.0335
vt 0.0917 -0.0335
vt 0.0917 0.1367
vt -0.0337 0.1367
vt -0.0163 -0.0116
vt 0.1092 -0.0116
vt 0.1092 0.1587
vt -0.0163 0.1587
vt -0.0251 -0.0409
vt 0.2831 -0.0409
vt 0.2831 0.1239
vt -0.0251 0.1239
vt -0.0185 -0.0355
vt 0.2897 -0.0355
vt 0.2897 0.1292
vt -0.0185 0.1292
vt -0.0573 -0.0634
vt 0.8252 -0.0634
vt 0.6516 0.1318
vt 0.1164 0.1318
vt -0.0454 -0.0214
vt 0.3018 -0.0214
vt 0.1282 0.1738
vt -0.0035 -0.0357
vt 0.8790 -0.0357
vt 0.7054 0.1595
vt 0.1702 0.1595
vt -0.0178 -0.0580
vt 0.3295 -0.0580
vt 0.1559 0.1372
vt -0.0088 -0.0689
vt 0.3371 -0.0689
vt 0.1642 0.1255
vt -0.0510 -0.0054
vt 0.3006 -0.0054
vt 0.1276 0.1891
vt 0.1220 0.1891
vt -0.0605 -0.0405
vt 0.2854 -0.0405
vt 0.1125 0.1540
vt -0.0225 -0.0247
vt 0.3291 -0.0247
vt 0.1561 0.1698
vt 0.1504 0.1698
vt -0.0791 -0.0427
vt 0.7146 -0.0427
vt 0.7146 0.1940
vt -0.0791 0.1940
vt -0.0205 -0.0105
vt 0.7732 -0.0105
vt 0.7732 0.2263
vt -0.0205 0.2263
vt -0.0380 -0.0691
vt 1.0672 -0.0691
vt 0.9222 0.0860
vt 0.1070 0.0860
vt -0.0507 -0.0540
vt 0.2393 -0.0540
vt 0.0943 0.1011
vt -0.0356 -0.0710
vt 1.0696 -0.0710
vt 0.9246 0.0842
vt 0.1094 0.0842
vt -0.0525 -0.0414
vt 0.2375 -0.0414
vt 0.0925 0.1137
vt -0.0709 -0.0360
vt 0.5855 -0.0360
vt 0.4164 0.1449
vt 0.0982 0.1449
vt -0.0176 -0.0353
vt 0.3206 -0.0353
vt 0.1515 0.1456
vt -0.0168 -0.0546
vt 0.6395 -0.0546
vt 0.4704 0.1263
vt 0.1523 0.1263
vt -0.0361 -0.0731
vt 0.3021 -0.0731
vt 0.1330 0.1078
vt -0.0478 -0.0343
vt 0.6119 -0.0343
vt 0.6117 0.1719
vt -0.0478 0.1718
vt -0.0149 -0.0484
vt 0.6445 -0.0484
vt 0.6445 0.1577
vt -0.0150 0.1578
vt -0.0557 -0.0037
vt 0.2374 -0.0037
vt 0.2375 0.1588
vt -0.0555 0.1590
vt -0.0628 -0.0032
vt 0.2301 -0.0032
vt 0.2301 0.1595
vt -0.0628 0.1593
vt -0.0212 -0.0252
vt 0.6276 -0.0252
vt 0.6278 0.2768
vt -0.0210 0.2770
vt -0.0060 -0.0097
vt 0.6428 -0.0097
vt 0.6429 0.2925
vt -0.0059 0.2924
vt -0.0058 -0.0183
vt 0.3234 -0.0183
vt 0.3234 0.1280
vt -0.0058 0.1281
vt -0.0773 -0.0589
vt 0.2520 -0.0589
vt 0.2519 0.0874
vt -0.0773 0.0874
vt -0.0761 -0.0396
vt 0.7582 -0.0396
vt 0.6515 0.0756
vt 0.0306 0.0756
vt -0.0205 -0.0020
vt 0.1929 -0.0020
vt 0.0862 0.1131
vt -0.0605 -0.0086
vt 0.7738 -0.0086
vt 0.6671 0.1065
vt 0.0462 0.1065
vt -0.0671 -0.0200
vt 0.1463 -0.0200
vt 0.0396 0.0952
vt -0.0453 -0.0276
vt 0.2540 -0.0276
vt 0.1381 0.0975
vt 0.0706 0.0975
vt -0.0086 -0.0538
vt 0.2232 -0.0538
vt 0.1073 0.0712
vt -0.0348 -0.0618
vt 0.2645 -0.0618
vt 0.1486 0.0632
vt 0.0811 0.0632
vt -0.0428 -0.0599
vt 0.1890 -0.0599
vt 0.0731 0.0652
vt -0.0104 -0.0508
vt 0.6331 -0.0508
vt 0.6331 0.1351
vt -0.0104 0.1351
vt -0.0324 -0.0423
vt 0.6111 -0.0423
vt 0.6111 0.1435
vt -0.0324 0.1435
vt -0.0551 -0.0432
vt 0.3529 -0.0432
vt 0.3529 0.0989
vt -0.0551 0.0989
vt -0.0249 -0.0034
vt 0.3832 -0.0034
vt 0.3832 0.1387
vt -0.0249 0.1387
vt -0.0587 -0.0487
vt 0.1251 -0.0487
vt 0.1251 0.0353
vt -0.0587 0.0353
vt -0.0304 -0.0391
vt 0.1534 -0.0391
vt 0.1534 0.0449
vt -0.0304 0.0449
vt -0.0051 -0.0111
vt 0.6119 -0.0111
vt 0.6119 0.2435
vt -0.0051 0.2435
vt -0.0719 -0.0632
vt 0.5451 -0.0632
vt 0.5451 0.1914
vt -0.0719 0.1914
vt -0.0786 -0.0031
vt 0.2785 -0.0031
vt 0.2785 0.1228
vt -0.0786 0.1228
vt -0.0639 -0.0540
vt 0.2932 -0.0540
vt 0.2932 0.0720
vt -0.0639 0.0720
vt -0.0022 -0.0146
vt 1.4998 -0.0146
vt 1.4998 0.1218
vt -0.0022 0.1218
vt -0.0657 -0.0290
vt 1.4363 -0.0290
vt 1.4363 0.1074
vt -0.0657 0.1074
vt -0.0420 -0.0352
vt 0.1140 -0.0352
vt 0.1140 0.3646
vt -0.0420 0.3646
vt -0.0186 -0.0332
vt 0.1374 -0.0332
vt 0.1374 0.3667
vt -0.0186 0.3667
vt -0.0213 -0.0752
vt 0.5312 -0.0752
vt 0.2548 0.2279
vt -0.0509 -0.0372
vt 1.0381 -0.0372
vt 0.7621 0.2659
vt 0.2255 0.2659
vt -0.0130 -0.0865
vt 0.5395 -0.0865
vt 0.2631 0.2166
vt -0.0622 -0.0967
vt 1.0270 -0.0967
vt 0.7509 0.2063
vt 0.2143 0.2063
vt -0.0598 -0.0016
vt 0.8304 -0.0016
vt 0.7050 0.1344
vt 0.0656 0.1344
vt -0.0578 -0.0386
vt 0.1930 -0.0386
vt 0.0676 0.0974
vt -0.0203 -0.0135
vt 0.8699 -0.0135
vt 0.7445 0.1225
vt 0.1051 0.1225
vt -0.0698 -0.0604
vt 0.1811 -0.0604
vt 0.0557 0.0756
vt -0.0491 -0.0692
vt 0.3500 -0.0692
vt 0.2130 0.0794
vt 0.0879 0.0794
vt -0.0509 -0.0578
vt 0.2231 -0.0578
vt 0.0861 0.0908
vt -0.0395 -0.0642
vt 0.3597 -0.0642
vt 0.2227 0.0845
vt 0.0975 0.0845
vt -0.0458 -0.0561
vt 0.2282 -0.0561
vt 0.0912 0.0925
vn 0.0036 0.9224 0.3863
vn -0.0036 0.9224 -0.3863
vn 0.3863 0.9224 -0.0036
vn -0.3862 0.9224 0.0036
vn 0.3441 0.9387 -0.0199
vn -0.3441 0.9387 0.0199
vn -0.0199 0.9387 -0.3441
vn 0.0199 0.9387 0.3441
vn -0.0338 0.9101 -0.4131
vn -0.4131 0.9101 0.0338
vn 0.0338 0.9100 0.4131
vn 0.4131 0.9101 -0.0338
vn -0.0338 0.9101 -0.4130
vn -0.4130 0.9101 0.0338
vn 0.0338 0.9101 0.4131
vn 0.4130 0.9101 -0.0338
vn -0.0682 0.8947 -0.4413
vn 0.0682 0.8947 0.4413
vn -0.4413 0.8947 0.0682
vn 0.4413 0.8948 -0.0682
vn 0.4747 0.8708 -0.1278
vn -0.4744 0.8709 0.1287
vn -0.1287 0.8709 -0.4744
vn 0.1288 0.8707 0.4747
vn -0.0825 0.9325 -0.3517
vn -0.3517 0.9325 0.0825
vn 0.0825 0.9325 0.3517
vn 0.3517 0.9325 -0.0825
vn -0.0824 0.9325 -0.3515
vn -0.3516 0.9325 0.0824
vn 0.0825 0.9325 0.3516
vn -0.3516 0.9325 0.0825
vn 0.1402 0.8737 0.4657
vn -0.1402 0.8737 -0.4657
vn 0.4657 0.8738 -0.1402
vn -0.4657 0.8738 0.1402
vn -0.3762 0.9047 0.1998
vn 0.3762 0.9047 -0.1998
vn 0.4515 0.8896 -0.0699
vn -0.0699 0.8895 -0.4515
vn -0.4515 0.8895 0.0699
vn 0.0699 0.8895 0.4515
vn 0.4515 0.8895 -0.0699
vn -0.4514 0.8896 0.0699
vn 0.0699 0.8896 0.4514
vn -0.0039 0.8824 -0.4705
vn 0.0039 0.8824 0.4705
vn 0.0810 0.9348 0.3457
vn 0.3458 0.9348 -0.0810
vn -0.0810 0.9348 -0.3458
vn -0.3458 0.9348 0.0810
vn 0.0810 0.9348 0.3458
vn -0.0600 0.9218 -0.3830
vn 0.0601 0.9218 0.3830
vn -0.3830 0.9218 0.0604
vn 0.3830 0.9218 -0.0600
vn -0.3160 0.9053 -0.2839
vn 0.3158 0.9053 0.2840
vn -0.2841 0.9053 0.3159
vn 0.2841 0.9053 -0.3158
vn 0.0149 0.9267 0.3754
vn 0.3754 0.9267 -0.0149
vn -0.0149 0.9267 -0.3754
vn -0.3754 0.9267 0.0149
vn -0.1994 0.9072 0.3704
vn 0.1994 0.9072 -0.3703
vn 0.0348 0.9270 0.3734
vn -0.0348 0.9270 -0.3735
vn 0.3735 0.9270 -0.0348
vn -0.3736 0.9269 0.0348
vn 0.4746 0.8755 -0.0910
vn -0.4746 0.8755 0.0911
vn 0.4745 0.8755 -0.0910
vn 0.3521 0.9318 -0.0882
vn -0.3521 0.9318 0.0882
vn -0.0882 0.9318 -0.3521
vn 0.0882 0.9318 0.3521
vn -0.4100 0.9115 0.0329
vn 0.0331 0.9115 0.4100
vn 0.4100 0.9115 -0.0327
vn -0.0331 0.9115 -0.4100
vn 0.3867 0.9219 -0.0223
vn -0.0223 0.9219 -0.3868
vn -0.3868 0.9219 0.0223
vn 0.0223 0.9219 0.3867
vn -0.0223 0.9219 -0.3867
vn -0.3867 0.9219 0.0223
g CityEngineMaterial_705_CityEngineMaterial_705_CityEngineMaterial_705_mat
usemtl CityEngineMaterial_705_mat
s 1
f 1/1/1 2/2/1 3/3/1 4/4/1
f 5/5/2 6/6/2 4/7/2 3/8/2
f 7/9/3 8/10/3 9/11/3 10/12/3
f 11/13/4 12/14/4 10/15/4 9/16/4
f 13/17/5 14/18/5 15/19/5 16/20/5
f 17/21/6 18/22/6 16/23/6 15/24/6
f 19/25/7 20/26/7 21/27/7 22/28/7
f 23/29/8 24/30/8 22/31/8 21/32/8
f 25/33/9 26/34/9 27/35/9 28/36/9
f 26/37/10 29/38/10 27/39/10
f 29/40/11 30/41/11 28/42/11 27/43/11
f 30/44/12 25/45/12 28/46/12
f 31/47/13 32/48/13 33/49/13
f 32/50/14 34/51/14 35/52/14 33/53/14
f 34/54/15 36/55/15 35/56/15
f 36/57/16 31/58/16 33/59/16 35/60/16
f 37/61/17 38/62/17 39/63/17 40/64/17
f 41/65/18 42/66/18 40/67/18 39/68/18
f 43/69/19 44/70/19 45/71/19 46/72/19
f 47/73/20 48/74/20 46/75/20 45/76/20
f 49/77/21 50/78/21 51/79/21 52/80/21
f 53/81/22 54/82/22 52/83/22 51/84/22
f 55/85/23 56/86/23 57/87/23 58/88/23
f 59/89/24 60/90/24 58/91/24 57/92/24
f 61/93/25 62/94/25 63/95/25 64/96/25
f 62/97/26 65/98/26 63/99/26
f 65/100/27 66/101/27 64/102/27 63/103/27
f 66/104/28 61/105/28 64/106/28
f 67/107/29 68/108/29 69/109/29
f 68/110/30 70/111/30 71/112/30 69/113/30
f 70/114/31 72/115/31 71/116/31
f 72/117/28 67/118/28 69/119/28 71/120/28
f 73/121/25 74/122/25 75/123/25
f 74/124/32 76/125/32 77/126/32 75/127/32
f 76/128/31 78/129/31 77/130/31
f 78/131/28 73/132/28 75/133/28 77/134/28
f 79/135/33 80/136/33 81/137/33 82/138/33
f 83/139/34 84/140/34 82/141/34 81/142/34
f 85/143/35 86/144/35 87/145/35 88/146/35
f 89/147/36 90/148/36 88/149/36 87/150/36
f 91/151/37 92/152/37 93/153/37 94/154/37
f 95/155/38 96/156/38 94/157/38 93/158/38
f 97/159/39 98/160/39 99/161/39 100/162/39
f 98/163/40 101/164/40 99/165/40
f 101/166/41 102/167/41 100/168/41 99/169/41
f 102/170/42 97/171/42 100/172/42
f 103/173/43 104/174/43 105/175/43
f 104/176/40 106/177/40 107/178/40 105/179/40
f 106/180/44 108/181/44 107/182/44
f 108/183/45 103/184/45 105/185/45 107/186/45
f 109/187/46 110/188/46 111/189/46 112/190/46
f 113/191/47 114/192/47 112/193/47 111/194/47
f 115/195/48 116/196/48 117/197/48 118/198/48
f 116/199/49 119/200/49 117/201/49
f 119/202/50 120/203/50 118/204/50 117/205/50
f 120/206/51 115/207/51 118/208/51
f 121/209/52 122/210/52 123/211/52 124/212/52
f 122/213/49 125/214/49 123/215/49
f 125/216/50 126/217/50 124/218/50 123/219/50
f 126/220/51 121/221/51 124/222/51
f 127/223/53 128/224/53 129/225/53 130/226/53
f 131/227/54 132/228/54 130/229/54 129/230/54
f 133/231/55 134/232/55 135/233/55 136/234/55
f 137/235/56 138/236/56 136/237/56 135/238/56
f 139/239/57 140/240/57 141/241/57 142/242/57
f 143/243/58 144/244/58 142/245/58 141/246/58
f 145/247/59 146/248/59 147/249/59 148/250/59
f 149/251/60 150/252/60 148/253/60 147/254/60
f 151/255/61 152/256/61 153/257/61 154/258/61
f 152/259/62 155/260/62 153/261/62
f 155/262/63 156/263/63 154/264/63 153/265/63
f 156/266/64 151/267/64 154/268/64
f 157/269/61 158/270/61 159/271/61 160/272/61
f 158/273/62 161/274/62 159/275/62
f 161/276/63 162/277/63 160/278/63 159/279/63
f 162/280/64 157/281/64 160/282/64
f 163/283/65 164/284/65 165/285/65 166/286/65
f 167/287/66 168/288/66 166/289/66 165/290/66
f 169/291/67 170/292/67 171/293/67 172/294/67
f 173/295/68 174/296/68 172/297/68 171/298/68
f 175/299/69 176/300/69 177/301/69 178/302/69
f 179/303/70 180/304/70 178/305/70 177/306/70
f 181/307/71 182/308/71 183/309/71 184/310/71
f 185/311/72 186/312/72 184/313/72 183/314/72
f 187/315/73 188/316/73 189/317/73 190/318/73
f 191/319/72 192/320/72 190/321/72 189/322/72
f 193/323/74 194/324/74 195/325/74 196/326/74
f 197/327/75 198/328/75 196/329/75 195/330/75
f 199/331/76 200/332/76 201/333/76 202/334/76
f 203/335/77 204/336/77 202/337/77 201/338/77
f 205/339/78 206/340/78 207/341/78
f 206/342/79 208/343/79 209/344/79 207/345/79
f 208/346/80 210/347/80 209/348/80
f 210/349/81 205/350/81 207/351/81 209/352/81
f 211/353/82 212/354/82 213/355/82 214/356/82
f 212/357/83 215/358/83 213/359/83
f 215/360/84 216/361/84 214/362/84 213/363/84
f 216/364/85 211/365/85 214/366/85
f 217/367/82 218/368/82 219/369/82 220/370/82
f 218/371/86 221/372/86 219/373/86
f 221/374/87 222/375/87 220/376/87 219/377/87
f 222/378/85 217/379/85 220/380/85
