# Blender v2.78 (sub 0) OBJ File: ''
# www.blender.org
mtllib CityEngineMaterial_801.mtl
o CityEngineMaterial_801
v -16.836901 39.481693 -550.539124
v -13.947700 39.481689 -532.089783
v 1.287000 39.481689 -534.489502
v -1.601900 39.481693 -552.924988
v -16.836901 50.682991 -550.539124
v -13.947700 50.682987 -532.089783
v -6.781000 50.682987 -533.218689
v -9.669100 50.682991 -551.661621
v -8.471700 49.860588 -544.014771
v -6.781000 49.860588 -533.218689
v 1.286900 49.860588 -534.489502
v -0.403700 49.860588 -545.278198
v -16.595100 51.084087 -548.995483
v -14.189500 51.084087 -533.633423
v -10.294400 51.084087 -534.246277
v -12.699600 51.084087 -549.605591
v -8.180500 50.475388 -542.155518
v -7.072200 50.475388 -535.077881
v -2.818800 50.475388 -535.746582
v -3.926800 50.475388 -542.821716
v -3.627000 50.475388 -540.907715
v 0.187500 50.475388 -541.505127
v -0.112500 50.475388 -543.418884
v 234.256805 46.331146 -270.114685
v 234.602905 46.331142 -249.203293
v 253.784393 46.331142 -251.005005
v 251.818405 46.331146 -271.781403
v 234.256805 68.631149 -270.114685
v 234.388397 68.631149 -262.165588
v 252.565094 68.631149 -263.890594
v 251.818405 68.631149 -271.781403
v 234.513000 68.631142 -254.634384
v 242.160400 68.631142 -255.360092
v 241.451004 68.631149 -262.835785
v 236.800903 69.764549 -264.862488
v 249.887802 69.764549 -266.104401
v 249.719406 69.764549 -267.883514
v 243.284195 69.764549 -267.272797
v 243.263794 69.764549 -268.501587
v 236.751007 69.764549 -267.883514
v 235.410507 69.648537 -255.637680
v 241.164200 69.648537 -256.183685
v 240.886597 69.648544 -259.108887
v 238.501602 69.648544 -258.882599
v 238.455994 69.648544 -261.633514
v 235.316193 69.648544 -261.335510
v -95.757202 8.983692 44.726601
v -90.354599 8.983693 43.643902
v -92.985603 8.983695 30.554102
v -93.732803 8.983694 33.194000
v -94.213898 8.983695 30.800201
v -97.261803 8.983694 33.901100
v -91.932701 9.627193 42.593399
v -93.554497 9.627094 34.525002
v -94.873001 9.627094 34.789200
v -94.350800 9.627094 37.387299
v -95.395103 9.627094 37.596500
v -94.625702 9.627193 43.132999
v -133.036804 5.877084 99.614899
v -116.404602 5.877084 98.692101
v -117.528503 5.877087 78.954903
v -134.970703 5.877087 79.922997
v -116.573196 65.852287 95.731506
v -117.359901 65.852287 81.915504
v -134.680603 65.852287 82.876808
v -133.326797 65.852287 96.661110
v -120.073502 33.574585 98.895706
v -121.197304 33.574688 79.158607
v -131.298401 33.574688 79.719208
v -129.364502 33.574585 99.411209
v -133.015396 73.563385 84.021317
v -131.903305 73.563385 95.345314
v -118.186302 73.563385 94.584213
v -118.832603 73.563385 83.234116
v -130.225403 78.813889 81.424713
v -128.636200 78.813889 97.605812
v -121.073502 78.813889 97.186218
v -121.997002 78.813889 80.968117
v -119.509201 78.961182 93.590416
v -120.034500 78.961182 84.367912
v -131.647797 78.961182 85.012619
v -130.744202 78.961182 94.213814
v -121.889801 92.385681 95.752113
v -122.645401 92.385681 82.483215
v -129.347900 92.385681 82.855316
v -128.047699 92.385681 96.093819
v -130.531693 82.739586 85.776314
v -129.789307 82.739586 93.335213
v -120.590599 82.739586 92.824814
v -121.022102 82.739586 85.248413
v -128.634293 96.457283 84.002312
v -127.566002 96.457283 94.880615
v -122.554199 96.457283 94.602417
v -123.175102 96.457283 83.699318
v -121.477501 88.910988 92.161415
v -121.828003 88.910988 86.005615
v -129.615005 88.910988 86.437912
v -129.011795 88.910988 92.579514
v -123.096603 98.425781 93.638313
v -123.604599 98.425781 84.717316
v -128.050903 98.425781 84.964119
v -127.176804 98.425781 93.864716
v -128.866806 90.879486 86.947517
v -128.371307 90.879486 91.992912
v -122.202400 90.879486 91.650612
v -122.490402 90.879486 86.593513
v -127.972298 99.805984 85.763916
v -127.238403 99.805984 93.237816
v -125.116600 99.805984 93.029419
v -125.850601 99.805984 85.555511
v -124.919403 91.724388 90.381714
v -125.254997 91.724388 86.964912
v -128.628006 91.724388 87.152214
v -128.175095 91.724388 91.764015
v -122.500397 91.724388 90.247513
v -122.432098 91.724388 91.445412
v -125.591599 99.805984 88.192917
v -125.413498 99.805984 90.005814
v -123.464897 99.805984 89.814415
v -123.642998 99.805984 88.001617
v 594.794312 55.171692 47.851509
v 615.606201 55.171692 41.917809
v 611.280029 55.171696 27.005310
v 590.975525 55.171696 31.874010
v 595.757019 84.703293 46.205517
v 613.970276 84.703293 41.012615
v 612.396729 84.703293 35.588417
v 594.442871 84.703293 40.707314
v 602.108398 71.364594 38.521713
v 612.396729 71.364594 35.588413
v 610.363892 71.364594 28.581312
v 599.983887 71.364594 31.070311
v 604.259827 85.677895 40.018314
v 603.888611 85.677895 38.464714
v 594.960815 85.677895 41.010117
v 596.073181 85.677895 45.664814
v 612.545288 85.677895 37.656013
v 613.432922 85.677895 40.715416
v 606.676819 72.099091 33.559311
v 606.027283 72.099091 31.281311
v 601.998230 72.099091 32.247410
v 603.218201 72.099091 36.526611
v 609.863525 72.099091 32.650711
v 610.394409 72.099091 34.480610
v -259.570404 9.170947 322.293610
v -258.580597 9.170945 332.590912
v -250.900299 9.170945 331.852814
v -252.730606 9.170946 329.406311
v -251.149994 9.170946 329.254395
v -253.470093 9.170947 321.713409
v -278.145813 5.157147 320.577789
v -265.100494 5.157148 319.337006
v -267.368408 5.157152 295.690796
v -280.432098 5.157152 296.931213
v -279.752594 43.289249 303.958405
v -266.694489 43.289249 302.716400
v -267.368408 43.289249 295.690796
v -280.432098 43.289249 296.931213
v -268.169891 43.773651 296.661407
v -279.459900 43.773651 297.733490
v -279.282806 43.773651 299.565186
v -274.737305 43.773651 299.133514
v -267.665985 43.773651 301.914307
v -274.409088 43.773651 302.555695
v -695.490417 40.065456 -951.271118
v -691.804871 40.065453 -941.482178
v -686.599426 40.065453 -943.069214
v -688.169800 40.065453 -947.240112
v -680.060974 40.065456 -956.016479
v -682.297974 40.065456 -949.046021
v -676.876770 40.065453 -946.033386
v -680.941772 40.065453 -944.794128
v -749.603821 58.617870 -1047.942505
v -748.187317 58.617870 -1048.273071
v -753.258911 58.617870 -1059.836304
v -748.627625 58.617870 -1043.918213
v -755.461670 58.617870 -1059.322266
v -751.565674 58.617870 -1043.260010
v -755.227478 60.049370 -1058.427979
v -752.717773 60.049473 -1048.081299
v -751.471680 60.049370 -1048.383423
v -753.981384 60.049370 -1058.730103
v -751.978271 60.049473 -1050.471924
v -751.718689 60.049473 -1049.401733
v -750.783020 60.049473 -1049.628662
v -751.042480 60.049370 -1050.698853
v -68.061203 9.049386 90.255302
v -73.192497 9.049386 90.449600
v -73.745300 9.049386 90.482903
v -72.913696 9.049385 96.135101
v -86.649803 9.049386 88.993202
v -73.877296 9.049386 88.218903
v -86.186897 9.049384 96.934502
v -67.839302 9.049385 95.943001
v -84.140404 9.651284 96.811302
v -75.445396 9.651285 96.287697
v -75.717400 9.651285 91.770302
v -84.412399 9.651285 92.293900
v -81.936996 9.651285 92.144798
v -78.842201 9.651285 91.958397
v -79.048302 9.651286 88.535400
v -82.143204 9.651286 88.721802
v -18.648899 47.334530 -794.392029
v -18.149700 47.334530 -791.208618
v -14.465000 47.334530 -791.785400
v -16.961901 47.334530 -807.713013
v -23.776699 47.334530 -806.645874
v -21.767700 47.334530 -793.903625
v -15.634600 47.976429 -792.638184
v -17.814600 47.976429 -806.543579
v -22.606199 47.976429 -805.793213
v -17.796301 47.976429 -795.561523
v -20.916000 47.976429 -795.072876
v -17.297100 47.976429 -792.377991
v 1148.257568 116.726463 -391.593262
v 1141.123291 116.726463 -387.102264
v 1139.711914 116.726463 -384.790070
v 1138.627319 116.726463 -373.777069
v 1135.231445 116.726463 -383.393372
v 1139.071289 116.726463 -385.810455
v 1133.929321 116.726463 -381.259979
v 1148.889038 116.726463 -390.588470
vt 0.0000 1.8817
vt 0.8768 1.8817
vt 0.8761 0.0000
vt 0.0000 0.0002
vt 0.0000 1.0000
vt 0.6471 1.0000
vt 0.6469 0.0000
vt 0.0000 0.0000
vt 0.0000 0.5575
vt 1.3722 0.5575
vt 1.3713 0.0000
vt 0.0000 0.0000
vt 0.0000 1.0000
vt 0.9911 1.0000
vt 0.9909 0.0000
vt 0.0000 0.0000
vt 0.0000 1.0000
vt 1.0000 1.0000
vt 0.9996 0.0000
vt 0.0000 0.0000
vt 0.0000 1.0000
vt 1.0000 1.0000
vt 0.9999 0.0000
vt 0.0488 0.6703
vt 0.7902 0.6703
vt 0.7376 0.0000
vt 0.0000 0.0566
vt 0.0232 0.0000
vt -0.0000 0.9720
vt 0.6820 0.9720
vt 0.6821 -0.0000
vt 0.0765 0.0000
vt 0.0000 1.0000
vt 1.0000 1.0000
vt 0.9999 0.0000
vt 0.0000 1.0000
vt 1.0250 1.0000
vt 1.0251 0.4068
vt 0.5210 0.4067
vt 0.5285 0.0000
vt 0.0184 0.0000
vt 0.0000 1.0000
vt 1.0000 1.0000
vt 1.0000 0.4828
vt 0.5855 0.4828
vt 0.6226 0.0000
vt 0.0769 -0.0000
vt 0.0003 -0.0000
vt 0.0000 1.0000
vt 1.4471 1.0000
vt 1.1826 0.7727
vt 1.4472 0.7727
vt 1.1828 0.1195
vt 0.0000 1.0000
vt 0.9246 1.0000
vt 0.9247 0.5104
vt 0.6270 0.5104
vt 0.6271 0.1226
vt 0.0002 0.0000
vt 1.1409 0.9143
vt 1.1816 0.0425
vt 0.0427 -0.0000
vt -0.0000 0.9143
vt 0.0000 0.0000
vt 0.0011 1.0916
vt 0.9252 1.0916
vt 0.8939 0.0000
vt 0.7377 0.0752
vt 0.0157 -0.0000
vt -0.0000 0.9382
vt 0.7233 0.9382
vt 0.9143 1.2293
vt 0.8833 0.0000
vt 0.0000 0.0000
vt 0.0010 1.2293
vt -0.0000 0.5266
vt 0.6898 0.5266
vt 0.7034 0.0426
vt 0.0148 0.0000
vt 0.0000 0.0000
vt 0.0013 0.6066
vt 1.1048 0.6066
vt 1.0676 0.0000
vt 1.0729 0.0812
vt 0.0225 -0.0000
vt 0.0000 1.0000
vt 1.0522 1.0000
vt 0.8436 1.0000
vt 0.8151 0.0000
vt 0.0000 0.0000
vt 0.0010 1.0000
vt 0.0000 1.0000
vt 1.1404 1.0000
vt 1.1626 0.0819
vt 0.0242 0.0000
vt 0.0000 0.0000
vt 0.0011 1.0000
vt 1.0000 1.0000
vt 0.9665 0.0000
vt 0.6152 0.0823
vt 0.0127 0.0000
vt 0.0000 1.0000
vt 0.6035 1.0000
vt 1.0000 1.0000
vt 0.9664 0.0000
vt 0.0000 0.0000
vt 0.0011 1.0000
vt 0.0000 1.0000
vt 1.0000 1.0000
vt 0.9999 0.0000
vt 0.0000 0.0000
vt 0.5924 0.7409
vt 0.5679 0.0000
vt 0.0000 0.0000
vt 0.0331 1.0000
vt 0.9997 0.7409
vt 1.0000 1.0000
vt 0.0000 0.0000
vt 0.0000 1.0000
vt 1.0000 1.0000
vt 0.9999 0.0000
vt -0.0000 0.9200
vt 0.9884 0.9200
vt 0.9851 0.0496
vt 0.0323 -0.0000
vt 0.0000 1.0000
vt 0.7091 1.0000
vt 0.7081 0.0000
vt 0.0091 0.0000
vt 0.0000 1.0000
vt 1.2673 1.0000
vt 1.2633 0.0584
vt 0.0000 0.0000
vt 0.3327 0.3338
vt 0.3351 0.0000
vt 0.0073 0.0000
vt 0.0000 1.0000
vt 0.6369 0.3338
vt 0.6374 1.0000
vt 0.5547 0.5718
vt 0.5547 0.0395
vt 0.0000 0.0000
vt 0.0000 1.0000
vt 0.9988 0.5718
vt 1.0000 1.0000
vt 0.0000 1.0000
vt 1.1142 1.0000
vt 1.1142 0.0000
vt 0.8331 0.2058
vt 0.8331 0.0000
vt 0.0007 0.2058
vt 0.0005 0.0017
vt -0.0000 1.1914
vt 1.0839 1.1914
vt 1.0845 -0.0000
vt 0.0008 1.0000
vt 0.9075 1.0000
vt 0.9071 0.0003
vt 0.0000 0.0000
vt 0.0006 1.0000
vt 1.2567 1.0000
vt 1.2563 0.6513
vt 0.7506 0.6513
vt 0.0000 0.0002
vt 0.7503 0.0000
vt 1.0293 0.8056
vt 0.9885 0.0029
vt 0.6438 0.0019
vt 0.6612 0.3439
vt 0.0069 0.8056
vt 0.2721 0.3439
vt 0.0000 0.0000
vt 0.2692 0.0008
vt 0.6331 0.3258
vt 0.6337 0.0000
vt 0.0010 0.4934
vt 0.8438 0.3258
vt 0.0000 1.0000
vt 0.8411 1.0000
vt 0.0000 1.0000
vt 1.1020 1.0000
vt 1.1020 0.0000
vt 0.0000 0.0000
vt 0.0000 1.0000
vt 1.0000 1.0000
vt 0.9999 0.0000
vt 0.0000 0.0000
vt 0.6509 0.1539
vt 0.4702 0.1465
vt 0.4507 0.1465
vt 0.4680 0.5141
vt 0.0005 0.0003
vt 0.4509 0.0000
vt -0.0000 0.5141
vt 0.6466 0.5214
vt 0.0000 1.0000
vt 0.6129 1.0000
vt 0.6129 0.0000
vt 0.0000 0.0000
vt 0.0000 0.0000
vt 0.0000 1.0000
vt 1.0000 1.0000
vt 0.9999 0.0000
vt 0.1077 0.4593
vt 0.0000 0.4593
vt 0.0000 1.0000
vt 0.5386 1.0000
vt 0.5386 0.0000
vt 0.1077 0.0016
vt 0.0000 1.0000
vt 1.2487 1.0000
vt 1.2488 -0.0000
vt 0.2859 0.6530
vt 0.2860 0.0019
vt 0.0000 0.6530
vt 0.7678 0.7061
vt 0.4812 0.3194
vt 0.3783 0.3194
vt -0.0000 0.8157
vt 0.2444 0.0000
vt 0.3987 0.2082
vt 0.1496 0.0000
vt 0.7477 0.8157
vn 0.0000 1.0000 0.0000
vn 0.0000 1.0000 -0.0001
g CityEngineMaterial_801_CityEngineMaterial_801_CityEngineMaterial_801_mat
usemtl CityEngineMaterial_801_mat
s 1
f 1/1/1 2/2/1 3/3/1 4/4/1
f 5/5/1 6/6/1 7/7/1 8/8/1
f 9/9/1 10/10/1 11/11/1 12/12/1
f 13/13/1 14/14/1 15/15/1 16/16/1
f 17/17/1 18/18/1 19/19/1 20/20/1
f 20/20/1 21/21/1 22/22/1 23/23/1
f 24/24/1 25/25/1 26/26/1 27/27/1
f 28/28/1 29/29/1 30/30/1 31/31/1
f 29/32/1 32/33/1 33/34/1 34/35/1
f 35/36/1 36/37/1 37/38/1 38/39/1
f 35/36/1 38/39/1 39/40/1 40/41/1
f 41/42/1 42/43/1 43/44/1 44/45/1
f 41/42/1 44/45/1 45/46/1 46/47/1
f 47/48/1 48/49/1 49/50/1 50/51/1
f 49/50/1 51/52/1 50/51/1
f 47/48/1 50/51/1 52/53/1
f 53/54/1 54/55/1 55/56/1 56/57/1
f 53/54/1 56/57/1 57/58/1 58/59/1
f 59/60/1 60/61/1 61/62/1 62/63/1
f 63/64/1 64/65/1 65/66/1 66/67/1
f 67/68/1 68/69/1 69/70/1 70/71/1
f 71/72/1 72/73/1 73/74/1 74/75/1
f 75/76/1 76/77/1 77/78/1 78/79/1
f 79/80/1 80/81/1 81/82/1 82/83/1
f 83/84/1 84/85/1 85/86/1 86/87/1
f 87/88/1 88/89/1 89/90/1 90/91/1
f 91/92/1 92/93/1 93/94/1 94/95/1
f 95/96/1 96/97/1 97/98/1 98/99/1
f 99/100/1 100/101/1 101/102/1 102/103/1
f 103/104/1 104/105/1 105/106/1 106/107/1
f 107/108/1 108/109/1 109/110/1 110/111/1
f 111/112/1 112/113/1 113/114/1 114/115/1
f 115/116/1 111/112/1 114/115/1 116/117/1
f 117/118/1 118/119/1 119/120/1 120/121/1
f 121/122/1 122/123/1 123/124/1 124/125/1
f 125/126/1 126/127/1 127/128/1 128/129/1
f 129/130/1 130/131/1 131/132/1 132/133/1
f 133/134/1 134/135/1 135/136/1 136/137/1
f 137/138/1 133/134/1 136/137/1 138/139/1
f 139/140/1 140/141/1 141/142/1 142/143/1
f 143/144/1 139/140/1 142/143/1 144/145/1
f 145/146/1 146/147/1 147/148/1 148/149/1
f 147/148/1 149/150/1 148/149/1
f 145/146/1 148/149/1 150/151/1
f 151/152/1 152/153/1 153/154/1 154/155/1
f 155/156/1 156/157/1 157/158/1 158/159/1
f 159/160/1 160/161/1 161/162/1 162/163/1
f 163/164/1 159/160/1 162/163/1 164/165/1
f 165/166/1 166/167/1 167/168/1 168/169/1
f 169/170/1 165/166/1 168/169/1 170/171/1
f 171/172/1 169/170/1 170/171/1 172/173/1
f 173/174/1 174/175/1 175/176/1 176/177/1
f 176/177/1 175/176/1 177/178/1 178/179/1
f 179/180/1 180/181/1 181/182/1 182/183/1
f 183/184/2 184/185/2 185/186/2 186/187/2
f 187/188/1 188/189/1 189/190/1 190/191/1
f 191/192/1 190/191/1 189/190/1 192/193/1
f 191/192/1 193/194/1 190/191/1
f 194/195/1 187/188/1 190/191/1
f 195/196/1 196/197/1 197/198/1 198/199/1
f 199/200/1 200/201/1 201/202/1 202/203/1
f 203/204/1 204/205/1 205/206/1 206/207/1
f 203/204/1 206/207/1 207/208/1 208/209/1
f 209/210/1 210/211/1 211/212/1 212/213/1
f 211/212/1 213/214/1 212/213/1
f 209/210/1 212/213/1 214/215/1
f 215/216/1 216/217/1 217/218/1 218/219/1
f 219/220/1 218/219/1 217/218/1 220/221/1
f 219/220/1 221/222/1 218/219/1
f 215/216/1 218/219/1 222/223/1
