# Blender v2.78 (sub 0) OBJ File: ''
# www.blender.org
mtllib CityEngineMaterial_808.mtl
o CityEngineMaterial_808
v -1308.976318 12.708835 404.226013
v -1310.377930 12.708835 403.864014
v -1310.377930 14.587434 403.864014
v -1308.976318 14.587434 404.226013
v -1309.909546 12.708835 402.053497
v -1309.909546 14.587434 402.053497
v -1323.593628 12.708836 398.468109
v -1323.593628 14.587435 398.468109
v -1325.965698 12.708834 407.639008
v -1325.965698 14.587433 407.639008
v -1310.867065 12.708834 411.538788
v -1310.867065 14.587433 411.538788
v -586.914429 3.166585 89.471497
v -607.293701 3.166585 93.006798
v -607.293701 5.300985 93.006798
v -586.914429 5.300985 89.471497
v -603.462891 3.166581 115.048599
v -603.462891 5.300982 115.048599
v -584.833801 3.166582 112.053200
v -584.833801 5.300982 112.053200
v -628.454102 27.834246 -884.434692
v -633.070007 27.834248 -899.608093
v -633.070007 29.836046 -899.608093
v -628.454102 29.836044 -884.434692
v -640.934021 27.834248 -897.221497
v -640.934021 29.836046 -897.221497
v -635.882019 27.834244 -880.881470
v -635.882019 29.836042 -880.881470
v -632.562073 27.834244 -881.880371
v -632.562073 29.836042 -881.880371
v -632.931702 27.834244 -883.075684
v -632.931702 29.836042 -883.075684
v 612.313171 66.190926 -154.911484
v 618.299377 66.190926 -155.973282
v 618.299377 67.801826 -155.973282
v 612.313171 67.801826 -154.911484
v 618.132874 66.190926 -158.312790
v 618.132874 67.801826 -158.312790
v 620.574280 66.190926 -158.466385
v 620.574280 67.801826 -158.466385
v 620.115173 66.190933 -164.266388
v 620.115173 67.801834 -164.266388
v 611.685120 66.190926 -163.735977
v 611.685120 67.801826 -163.735977
v 344.746399 23.930765 212.926697
v 345.386200 23.930763 224.195099
v 345.386200 26.012964 224.195099
v 344.746399 26.012966 212.926697
v 364.147614 23.930763 221.660095
v 364.147614 26.012964 221.660095
v 362.647095 23.930765 210.514496
v 362.647095 26.012966 210.514496
v -190.863907 1.450824 469.172211
v -204.030701 1.450823 470.424500
v -204.030701 3.250423 470.424500
v -190.863907 3.250423 469.172211
v -201.759796 1.450819 494.217896
v -201.759796 3.250419 494.217896
v -188.577103 1.450820 492.966309
v -188.577103 3.250420 492.966309
v -248.158600 2.548802 597.844910
v -260.253387 2.548801 609.036194
v -260.253387 4.679001 609.036194
v -248.158600 4.679003 597.844910
v -257.990387 2.548800 611.479187
v -257.990387 4.679000 611.479187
v -253.724503 2.548801 607.531921
v -253.724503 4.679001 607.531921
v -254.103195 2.548801 607.122986
v -254.103195 4.679001 607.122986
v -249.249100 2.548802 602.631592
v -249.249100 4.679002 602.631592
v -248.870895 2.548802 603.040771
v -248.870895 4.679002 603.040771
v -245.898300 2.548802 600.290283
v -245.898300 4.679002 600.290283
v -582.404724 3.166577 139.881302
v -604.095886 3.166577 143.073196
v -604.095886 5.494277 143.073196
v -582.404724 5.494277 139.881302
v -601.845886 3.166574 161.432907
v -601.845886 5.494274 161.432907
v -581.726013 3.166574 158.954300
v -581.726013 5.494274 158.954300
v 215.679504 26.794493 44.329105
v 215.992096 26.794493 49.648205
v 215.992096 28.712292 49.648205
v 215.679504 28.712292 44.329105
v 216.769104 26.794493 49.604103
v 216.769104 28.712292 49.604103
v 216.864395 26.794493 51.282104
v 216.864395 28.712292 51.282104
v 229.209900 26.794493 50.801205
v 229.209900 28.712292 50.801205
v 228.813202 26.794493 43.812805
v 228.813202 28.712292 43.812805
v 221.540100 26.794493 43.996304
v 221.540100 28.712292 43.996304
v -411.170288 1.313924 -147.977295
v -416.424988 1.313924 -146.117401
v -416.424988 3.101024 -146.117401
v -411.170288 3.101024 -147.977295
v -426.761902 1.313923 -142.976807
v -426.761902 3.101023 -142.976807
v -426.149414 1.313922 -137.759903
v -426.149414 3.101022 -137.759903
v -410.190704 1.313923 -139.633499
v -410.190704 3.101023 -139.633499
v -62.227901 11.114134 -202.541595
v -61.627701 11.114133 -199.175201
v -61.627701 12.802333 -199.175201
v -62.227901 12.802334 -202.541595
v -60.756901 11.114133 -199.328094
v -60.756901 12.802333 -199.328094
v -59.409698 11.114132 -191.655807
v -59.409698 12.802332 -191.655807
v -45.254700 11.114132 -193.893402
v -45.254700 12.802332 -193.893402
v -47.235401 11.114134 -205.173904
v -47.235401 12.802334 -205.173904
v -505.603302 5.541111 545.333984
v -517.358521 5.541111 545.192322
v -517.358521 7.286611 545.192322
v -505.603302 7.286611 545.333984
v -517.392822 5.541111 548.080688
v -517.392822 7.286611 548.080688
v -515.954895 5.541111 548.098083
v -515.954895 7.286611 548.098083
v -515.975220 5.541111 549.803711
v -515.975220 7.286610 549.803711
v -517.445801 5.541110 552.539673
v -517.445801 7.286610 552.539673
v -517.447510 5.541110 552.677124
v -517.447510 7.286610 552.677124
v -505.879486 5.541110 552.814575
v -505.879486 7.286610 552.814575
v -505.687897 5.541110 552.458374
v -505.687897 7.286610 552.458374
v -80.759201 32.749897 -1208.474854
v -73.093697 32.749897 -1209.675171
v -73.093697 34.888298 -1209.675171
v -80.759201 34.888298 -1208.474854
v -73.753197 32.749897 -1221.063477
v -73.753197 34.888298 -1221.063477
v -75.532799 32.749897 -1220.784790
v -75.532799 34.888298 -1220.784790
v -75.909698 32.749897 -1223.191406
v -75.909698 34.888298 -1223.191406
v -82.892403 32.749897 -1222.097778
v -82.892403 34.888298 -1222.097778
v 457.342896 56.162430 -178.512085
v 460.549286 56.162426 -159.875992
v 460.549286 58.293728 -159.875992
v 457.342896 58.293732 -178.512085
v 471.858093 56.162426 -161.817780
v 471.858093 58.293728 -161.817780
v 468.709900 56.162430 -180.200882
v 468.709900 58.293732 -180.200882
v 653.694275 32.110550 313.363708
v 650.129578 32.110550 314.115906
v 650.129578 34.065952 314.115906
v 653.694275 34.065952 313.363708
v 651.768982 32.110546 321.128204
v 651.768982 34.065948 321.128204
v 650.499023 32.110546 321.425690
v 650.499023 34.065948 321.425690
v 653.598022 32.110546 334.656006
v 653.598022 34.065948 334.656006
v 658.408813 32.110546 333.529388
v 658.408813 34.065948 333.529388
v -704.978210 7.737920 489.862396
v -713.817322 7.737920 489.078003
v -713.817322 9.053820 489.078003
v -704.978210 9.053820 489.862396
v -713.596985 7.737921 486.340515
v -713.596985 9.053821 486.340515
v -719.040527 7.737921 485.857513
v -719.040527 9.053821 485.857513
v -719.673706 7.737919 493.724091
v -719.673706 9.053820 493.724091
v -705.398376 7.737919 494.990906
v -705.398376 9.053819 494.990906
v -241.621796 1.453293 43.590199
v -247.911606 1.453293 44.463100
v -247.911606 3.096193 44.463100
v -241.621796 3.096193 43.590199
v -247.501495 1.453292 47.404900
v -247.501495 3.096192 47.404900
v -242.496506 1.453292 46.710300
v -242.496506 3.096192 46.710300
v -242.358200 1.453292 47.707199
v -242.358200 3.096192 47.707199
v -241.075394 1.453292 47.529099
v -241.075394 3.096192 47.529099
vt -0.0000 -0.0000
vt 0.2500 -0.0000
vt 0.2500 1.0000
vt -0.0000 1.0000
vt -0.0000 -0.0000
vt 0.5000 0.0000
vt 0.5000 1.0000
vt -0.0000 1.0000
vt 4.0000 0.0000
vt 4.0000 1.0000
vt 0.5000 0.0000
vt 2.7500 0.0000
vt 2.7500 1.0000
vt 0.5000 1.0000
vt 0.2500 -0.0000
vt 4.0000 0.0000
vt 4.0000 1.0000
vt 0.2500 1.0000
vt 0.5000 0.0000
vt 2.2500 0.0000
vt 2.2500 1.0000
vt 0.5000 1.0000
vt 0.2500 -0.0000
vt 6.2500 -0.0000
vt 6.2500 1.0000
vt 0.2500 1.0000
vt 0.5000 0.0000
vt 7.0000 0.0000
vt 7.0000 1.0000
vt 0.5000 1.0000
vt -0.0000 -0.0000
vt 5.5000 0.0000
vt 5.5000 1.0000
vt -0.0000 1.0000
vt 0.2500 -0.0000
vt 6.7500 0.0000
vt 6.7500 1.0000
vt 0.2500 1.0000
vt 0.7500 -0.0000
vt 4.7500 0.0000
vt 4.7500 1.0000
vt 0.7500 1.0000
vt 0.2500 -0.0000
vt 2.2500 0.0000
vt 2.2500 1.0000
vt 0.2500 1.0000
vt 0.2500 -0.0000
vt 4.5000 0.0000
vt 4.5000 1.0000
vt 0.2500 1.0000
vt 0.2500 -0.0000
vt 1.0000 -0.0000
vt 1.0000 1.0000
vt 0.2500 1.0000
vt 0.5000 0.0000
vt 0.7500 -0.0000
vt 0.7500 1.0000
vt 0.5000 1.0000
vt -0.0000 -0.0000
vt 1.2500 0.0000
vt 1.2500 1.0000
vt -0.0000 1.0000
vt 0.5000 0.0000
vt 1.7500 -0.0000
vt 1.7500 1.0000
vt 0.5000 1.0000
vt 0.2500 -0.0000
vt 0.7500 -0.0000
vt 0.7500 1.0000
vt 0.2500 1.0000
vt -0.0000 -0.0000
vt 0.5000 0.0000
vt 0.5000 1.0000
vt -0.0000 1.0000
vt 0.2500 -0.0000
vt 1.2500 0.0000
vt 1.2500 1.0000
vt 0.2500 1.0000
vt 0.2500 -0.0000
vt 1.7500 -0.0000
vt 1.7500 1.0000
vt 0.2500 1.0000
vt -0.0000 -0.0000
vt 1.7500 -0.0000
vt 1.7500 1.0000
vt -0.0000 1.0000
vt 0.5000 0.0000
vt 2.5000 0.0000
vt 2.5000 1.0000
vt 0.5000 1.0000
vt 0.5000 0.0000
vt 3.7500 0.0000
vt 3.7500 1.0000
vt 0.5000 1.0000
vt 0.7500 -0.0000
vt 2.7500 0.0000
vt 2.7500 1.0000
vt 0.7500 1.0000
vt -0.0000 -0.0000
vt 3.2500 0.0000
vt 3.2500 1.0000
vt -0.0000 1.0000
vt 0.7500 -0.0000
vt 3.5000 0.0000
vt 3.5000 1.0000
vt 0.7500 1.0000
vt 0.2500 -0.0000
vt 5.2500 0.0000
vt 5.2500 1.0000
vt 0.2500 1.0000
vt 0.2500 -0.0000
vt 3.0000 0.0000
vt 3.0000 1.0000
vt 0.2500 1.0000
vt 0.2500 -0.0000
vt 5.2500 0.0000
vt 5.2500 1.0000
vt 0.2500 1.0000
vt 0.7500 -0.0000
vt 4.7500 0.0000
vt 4.7500 1.0000
vt 0.7500 1.0000
vt 0.2500 -0.0000
vt 1.0000 -0.0000
vt 1.0000 1.0000
vt 0.2500 1.0000
vt 0.5000 0.0000
vt 1.7500 -0.0000
vt 1.7500 1.0000
vt 0.5000 1.0000
vt 0.5000 0.0000
vt 0.7500 -0.0000
vt 0.7500 1.0000
vt 0.5000 1.0000
vt 0.5000 0.0000
vt 2.0000 0.0000
vt 2.0000 1.0000
vt 0.5000 1.0000
vt -0.0000 -0.0000
vt 0.2500 -0.0000
vt 0.2500 1.0000
vt -0.0000 1.0000
vt 0.5000 0.0000
vt 1.5000 0.0000
vt 1.5000 1.0000
vt 0.5000 1.0000
vt -0.0000 -0.0000
vt -0.0000 1.0000
vt 0.5000 0.0000
vt 5.5000 0.0000
vt 5.5000 1.0000
vt 0.5000 1.0000
vt 0.5000 0.0000
vt 4.7500 0.0000
vt 4.7500 1.0000
vt 0.5000 1.0000
vt -0.0000 -0.0000
vt 4.5000 0.0000
vt 4.5000 1.0000
vt -0.0000 1.0000
vt 0.2500 -0.0000
vt 4.5000 0.0000
vt 4.5000 1.0000
vt 0.2500 1.0000
vt 0.5000 0.0000
vt 1.5000 0.0000
vt 1.5000 1.0000
vt 0.5000 1.0000
vt 0.7500 -0.0000
vt 1.0000 -0.0000
vt 1.0000 1.0000
vt 0.7500 1.0000
vt -0.0000 -0.0000
vt 0.2500 -0.0000
vt 0.2500 1.0000
vt -0.0000 1.0000
vt 0.7500 -0.0000
vt 3.0000 0.0000
vt 3.0000 1.0000
vt 0.7500 1.0000
vt 0.2500 -0.0000
vt 1.5000 0.0000
vt 1.5000 1.0000
vt 0.2500 1.0000
vt 0.2500 -0.0000
vt 1.7500 -0.0000
vt 1.7500 1.0000
vt 0.2500 1.0000
vt 0.5000 0.0000
vt 1.5000 0.0000
vt 1.5000 1.0000
vt 0.5000 1.0000
vt 0.7500 -0.0000
vt 2.0000 0.0000
vt 2.0000 1.0000
vt 0.7500 1.0000
vt 0.5000 0.0000
vt 3.2500 0.0000
vt 3.2500 1.0000
vt 0.5000 1.0000
vt 0.7500 -0.0000
vt 2.0000 0.0000
vt 2.0000 1.0000
vt 0.7500 1.0000
vt 0.5000 0.0000
vt 4.5000 0.0000
vt 4.5000 1.0000
vt 0.5000 1.0000
vt 0.2500 -0.0000
vt 2.2500 0.0000
vt 2.2500 1.0000
vt 0.2500 1.0000
vt 0.7500 -0.0000
vt 1.5000 0.0000
vt 1.5000 1.0000
vt 0.7500 1.0000
vt -0.0000 -0.0000
vt 0.2500 -0.0000
vt 0.2500 1.0000
vt -0.0000 1.0000
vt 1.7500 -0.0000
vt 1.7500 1.0000
vt 0.5000 0.0000
vt 3.2500 0.0000
vt 3.2500 1.0000
vt 0.5000 1.0000
vt 0.2500 -0.0000
vt 2.5000 0.0000
vt 2.5000 1.0000
vt 0.2500 1.0000
vt 0.7500 -0.0000
vt 3.7500 0.0000
vt 3.7500 1.0000
vt 0.7500 1.0000
vt 0.5000 0.0000
vt 3.7500 0.0000
vt 3.7500 1.0000
vt 0.5000 1.0000
vt 0.2500 -0.0000
vt 1.0000 -0.0000
vt 1.0000 1.0000
vt 0.2500 1.0000
vt 0.2500 -0.0000
vt 0.7500 -0.0000
vt 0.7500 1.0000
vt 0.2500 1.0000
vt -0.0000 -0.0000
vt 0.5000 0.0000
vt 0.5000 1.0000
vt -0.0000 1.0000
vt 0.2500 -0.0000
vt 1.0000 -0.0000
vt 1.0000 1.0000
vt 0.2500 1.0000
vt 0.7500 -0.0000
vt 0.8000 0.0000
vt 0.8000 1.0000
vt 0.7500 1.0000
vt 0.5000 0.0000
vt 3.7500 0.0000
vt 3.7500 1.0000
vt 0.5000 1.0000
vt 0.5000 0.0000
vt 0.5500 0.0000
vt 0.5500 1.0000
vt 0.5000 1.0000
vt 0.5000 0.0000
vt 2.5000 0.0000
vt 2.5000 1.0000
vt 0.5000 1.0000
vt 0.5000 0.0000
vt 2.0000 0.0000
vt 2.0000 1.0000
vt 0.5000 1.0000
vt 0.7500 -0.0000
vt 2.7500 0.0000
vt 2.7500 1.0000
vt 0.7500 1.0000
vt 0.5000 0.0000
vt 0.7500 -0.0000
vt 0.7500 1.0000
vt 0.5000 1.0000
vt 1.2500 0.0000
vt 1.2500 1.0000
vt 0.5000 0.0000
vt 1.7500 -0.0000
vt 1.7500 1.0000
vt 0.5000 1.0000
vt 0.2500 -0.0000
vt 2.7500 0.0000
vt 2.7500 1.0000
vt 0.2500 1.0000
vt 0.5000 0.0000
vt 4.2500 0.0000
vt 4.2500 1.0000
vt 0.5000 1.0000
vt 0.5000 0.0000
vt 2.7500 0.0000
vt 2.7500 1.0000
vt 0.5000 1.0000
vt 0.7500 -0.0000
vt 4.5000 0.0000
vt 4.5000 1.0000
vt 0.7500 1.0000
vt -0.0000 -0.0000
vt 2.2500 0.0000
vt 2.2500 1.0000
vt -0.0000 1.0000
vt 0.7500 -0.0000
vt 1.5000 0.0000
vt 1.5000 1.0000
vt 0.7500 1.0000
vt 0.5000 0.0000
vt 1.7500 -0.0000
vt 1.7500 1.0000
vt 0.5000 1.0000
vt 0.7500 -0.0000
vt 1.0000 -0.0000
vt 1.0000 1.0000
vt 0.7500 1.0000
vt 0.2500 -0.0000
vt 2.7500 0.0000
vt 2.7500 1.0000
vt 0.2500 1.0000
vt 0.2500 -0.0000
vt 1.2500 0.0000
vt 1.2500 1.0000
vt 0.2500 1.0000
vt 0.7500 -0.0000
vt 4.5000 0.0000
vt 4.5000 1.0000
vt 0.7500 1.0000
vt 0.2500 -0.0000
vt 2.0000 0.0000
vt 2.0000 1.0000
vt 0.2500 1.0000
vt 0.2500 -0.0000
vt 0.7500 -0.0000
vt 0.7500 1.0000
vt 0.2500 1.0000
vt -0.0000 -0.0000
vt 1.0000 -0.0000
vt 1.0000 1.0000
vt -0.0000 1.0000
vt 0.2500 -0.0000
vt 1.7500 -0.0000
vt 1.7500 1.0000
vt 0.2500 1.0000
vt 0.5000 0.0000
vt 3.2500 0.0000
vt 3.2500 1.0000
vt 0.5000 1.0000
vt 0.2500 -0.0000
vt 1.2500 0.0000
vt 1.2500 1.0000
vt 0.2500 1.0000
vt 0.5000 0.0000
vt 1.7500 -0.0000
vt 1.7500 1.0000
vt 0.5000 1.0000
vt 0.7500 -0.0000
vt 1.2500 0.0000
vt 1.2500 1.0000
vt 0.7500 1.0000
vt -0.0000 -0.0000
vt 1.0000 -0.0000
vt 1.0000 1.0000
vt -0.0000 1.0000
vt 0.7500 -0.0000
vt 1.0000 -0.0000
vt 1.0000 1.0000
vt 0.7500 1.0000
vt 0.5000 0.0000
vt 0.7500 -0.0000
vt 0.7500 1.0000
vt 0.5000 1.0000
vt 0.2500 -0.0000
vt 1.0000 -0.0000
vt 1.0000 1.0000
vt 0.2500 1.0000
vn 0.2501 0.0000 -0.9682
vn 0.9681 0.0000 0.2505
vn 0.2535 0.0000 -0.9673
vn -0.9681 0.0000 -0.2504
vn -0.2501 0.0000 0.9682
vn 0.9682 0.0000 0.2503
vn -0.1709 0.0000 -0.9853
vn -0.9852 0.0000 0.1712
vn 0.1588 0.0000 0.9873
vn 0.9958 0.0000 -0.0917
vn 0.9567 0.0000 -0.2910
vn -0.2904 0.0000 -0.9569
vn -0.9554 0.0000 0.2954
vn 0.2881 0.0000 0.9576
vn 0.9554 0.0000 -0.2954
vn 0.2904 0.0000 0.9569
vn 0.1746 0.0000 0.9846
vn 0.9975 0.0000 -0.0710
vn 0.0628 0.0000 0.9980
vn 0.9969 0.0000 -0.0789
vn -0.0628 0.0000 -0.9980
vn -0.9975 0.0000 0.0710
vn -0.9984 0.0000 0.0567
vn 0.1339 0.0000 0.9910
vn 0.9911 0.0000 -0.1334
vn -0.1335 0.0000 -0.9910
vn -0.0947 0.0000 -0.9955
vn -0.9955 0.0000 0.0950
vn 0.0945 0.0000 0.9955
vn 0.9954 0.0000 -0.0957
vn -0.6792 0.0000 -0.7340
vn -0.7336 0.0000 0.6796
vn 0.6792 0.0000 0.7340
vn 0.7337 0.0000 -0.6794
vn 0.6791 0.0000 0.7340
vn -0.7343 0.0000 0.6788
vn 0.7344 0.0000 -0.6788
vn -0.1456 0.0000 -0.9893
vn -0.9926 0.0000 0.1216
vn 0.1223 0.0000 0.9925
vn 0.9994 0.0000 -0.0356
vn -0.9983 0.0000 0.0587
vn 0.0567 0.0000 0.9984
vn 0.0389 0.0000 0.9992
vn 0.9984 0.0000 -0.0567
vn -0.0252 0.0000 -0.9997
vn -0.0567 0.0000 -0.9984
vn -0.3337 0.0000 -0.9427
vn -0.2907 0.0000 -0.9568
vn -0.9932 0.0000 0.1166
vn 0.1166 0.0000 0.9932
vn 0.9932 0.0000 -0.1166
vn -0.9845 0.0000 0.1755
vn 0.1729 0.0000 0.9849
vn -0.9849 0.0000 0.1729
vn 0.1561 0.0000 0.9877
vn 0.9849 0.0000 -0.1729
vn -0.1729 0.0000 -0.9849
vn 0.0120 0.0000 -0.9999
vn -0.9999 0.0000 -0.0119
vn -0.0121 0.0000 0.9999
vn -0.8808 0.0000 -0.4734
vn -0.9999 0.0000 -0.0124
vn -0.0119 0.0000 0.9999
vn 0.8807 0.0000 0.4737
vn 0.9999 0.0000 0.0119
vn 0.1547 0.0000 0.9880
vn 0.9983 0.0000 -0.0578
vn -0.1547 0.0000 -0.9880
vn 0.9880 0.0000 -0.1547
vn -0.9880 0.0000 0.1547
vn -0.9855 0.0000 0.1696
vn 0.1692 0.0000 0.9856
vn 0.9857 0.0000 -0.1688
vn -0.1470 0.0000 -0.9891
vn -0.2065 0.0000 -0.9785
vn -0.9737 0.0000 0.2277
vn -0.2281 0.0000 -0.9736
vn -0.9736 0.0000 0.2281
vn 0.2280 0.0000 0.9737
vn 0.9737 0.0000 -0.2277
vn 0.0884 0.0000 -0.9961
vn 0.9968 0.0000 0.0802
vn -0.9968 0.0000 -0.0802
vn -0.0884 0.0000 0.9961
vn 0.9967 0.0000 0.0817
vn -0.1375 0.0000 -0.9905
vn -0.9904 0.0000 0.1381
vn 0.1375 0.0000 0.9905
vn -0.9905 0.0000 0.1374
vn 0.9905 0.0000 -0.1374
g CityEngineMaterial_808_CityEngineMaterial_808_CityEngineMaterial_808_mat
usemtl CityEngineMaterial_808_mat
s 1
f 1/1/1 2/2/1 3/3/1 4/4/1
f 2/5/2 5/6/2 6/7/2 3/8/2
f 5/6/3 7/9/3 8/10/3 6/7/3
f 7/11/4 9/12/4 10/13/4 8/14/4
f 9/15/5 11/16/5 12/17/5 10/18/5
f 11/19/6 1/20/6 4/21/6 12/22/6
f 13/23/7 14/24/7 15/25/7 16/26/7
f 14/27/8 17/28/8 18/29/8 15/30/8
f 17/31/9 19/32/9 20/33/9 18/34/9
f 19/35/10 13/36/10 16/37/10 20/38/10
f 21/39/11 22/40/11 23/41/11 24/42/11
f 22/43/12 25/44/12 26/45/12 23/46/12
f 25/47/13 27/48/13 28/49/13 26/50/13
f 27/51/14 29/52/14 30/53/14 28/54/14
f 29/55/15 31/56/15 32/57/15 30/58/15
f 31/59/16 21/60/16 24/61/16 32/62/16
f 33/63/17 34/64/17 35/65/17 36/66/17
f 34/67/18 37/68/18 38/69/18 35/70/18
f 37/71/19 39/72/19 40/73/19 38/74/19
f 39/75/20 41/76/20 42/77/20 40/78/20
f 41/79/21 43/80/21 44/81/21 42/82/21
f 43/83/22 33/84/22 36/85/22 44/86/22
f 45/87/23 46/88/23 47/89/23 48/90/23
f 46/91/24 49/92/24 50/93/24 47/94/24
f 49/95/25 51/96/25 52/97/25 50/98/25
f 51/99/26 45/100/26 48/101/26 52/102/26
f 53/103/27 54/104/27 55/105/27 56/106/27
f 54/107/28 57/108/28 58/109/28 55/110/28
f 57/111/29 59/112/29 60/113/29 58/114/29
f 59/115/30 53/116/30 56/117/30 60/118/30
f 61/119/31 62/120/31 63/121/31 64/122/31
f 62/123/32 65/124/32 66/125/32 63/126/32
f 65/127/33 67/128/33 68/129/33 66/130/33
f 67/131/34 69/132/34 70/133/34 68/134/34
f 69/135/35 71/136/35 72/137/35 70/138/35
f 71/139/36 73/140/36 74/141/36 72/142/36
f 73/143/33 75/144/33 76/145/33 74/146/33
f 75/147/37 61/119/37 64/122/37 76/148/37
f 77/149/38 78/150/38 79/151/38 80/152/38
f 78/153/39 81/154/39 82/155/39 79/156/39
f 81/157/40 83/158/40 84/159/40 82/160/40
f 83/161/41 77/162/41 80/163/41 84/164/41
f 85/165/42 86/166/42 87/167/42 88/168/42
f 86/169/43 89/170/43 90/171/43 87/172/43
f 89/173/23 91/174/23 92/175/23 90/176/23
f 91/177/44 93/178/44 94/179/44 92/180/44
f 93/181/45 95/182/45 96/183/45 94/184/45
f 95/185/46 97/186/46 98/187/46 96/188/46
f 97/189/47 85/190/47 88/191/47 98/192/47
f 99/193/48 100/194/48 101/195/48 102/196/48
f 100/197/49 103/198/49 104/199/49 101/200/49
f 103/201/50 105/202/50 106/203/50 104/204/50
f 105/205/51 107/206/51 108/207/51 106/208/51
f 107/209/52 99/210/52 102/211/52 108/212/52
f 109/213/53 110/214/53 111/215/53 112/216/53
f 110/217/54 113/218/54 114/219/54 111/220/54
f 113/218/55 115/221/55 116/222/55 114/219/55
f 115/223/56 117/224/56 118/225/56 116/226/56
f 117/227/57 119/228/57 120/229/57 118/230/57
f 119/231/58 109/232/58 112/233/58 120/234/58
f 121/235/59 122/236/59 123/237/59 124/238/59
f 122/239/60 125/240/60 126/241/60 123/242/60
f 125/243/61 127/244/61 128/245/61 126/246/61
f 127/247/60 129/248/60 130/249/60 128/250/60
f 129/251/62 131/252/62 132/253/62 130/254/62
f 131/255/63 133/256/63 134/257/63 132/258/63
f 133/259/64 135/260/64 136/261/64 134/262/64
f 135/263/65 137/264/65 138/265/65 136/266/65
f 137/267/66 121/268/66 124/269/66 138/270/66
f 139/271/67 140/272/67 141/273/67 142/274/67
f 140/275/68 143/276/68 144/277/68 141/278/68
f 143/279/69 145/280/69 146/281/69 144/282/69
f 145/280/70 147/283/70 148/284/70 146/281/70
f 147/285/69 149/286/69 150/287/69 148/288/69
f 149/289/71 139/290/71 142/291/71 150/292/71
f 151/293/72 152/294/72 153/295/72 154/296/72
f 152/297/73 155/298/73 156/299/73 153/300/73
f 155/301/74 157/302/74 158/303/74 156/304/74
f 157/305/75 151/306/75 154/307/75 158/308/75
f 159/309/76 160/310/76 161/311/76 162/312/76
f 160/313/77 163/314/77 164/315/77 161/316/77
f 163/317/78 165/318/78 166/319/78 164/320/78
f 165/321/79 167/322/79 168/323/79 166/324/79
f 167/325/80 169/326/80 170/327/80 168/328/80
f 169/329/81 159/330/81 162/331/81 170/332/81
f 171/333/82 172/334/82 173/335/82 174/336/82
f 172/337/83 175/338/83 176/339/83 173/340/83
f 175/341/82 177/342/82 178/343/82 176/344/82
f 177/345/84 179/346/84 180/347/84 178/348/84
f 179/349/85 181/350/85 182/351/85 180/352/85
f 181/353/86 171/354/86 174/355/86 182/356/86
f 183/357/87 184/358/87 185/359/87 186/360/87
f 184/361/88 187/362/88 188/363/88 185/364/88
f 187/365/89 189/366/89 190/367/89 188/368/89
f 189/369/90 191/370/90 192/371/90 190/372/90
f 191/373/89 193/374/89 194/375/89 192/376/89
f 193/377/91 183/378/91 186/379/91 194/380/91
