# Blender v2.78 (sub 0) OBJ File: ''
# www.blender.org
mtllib CityEngineMaterial_855.mtl
o CityEngineMaterial_855
v -487.311096 2.240189 69.138000
v -493.809814 2.548989 70.335098
v -488.081390 2.452488 72.408798
v -479.108185 2.092688 76.123398
v -482.701202 2.240188 74.662903
v -480.629211 1.931389 67.908096
v -480.851501 1.931389 67.948997
vt 0.5069 1.0000
vt 1.0000 1.0000
vt 0.6082 0.6315
vt -0.0000 -0.0000
vt 0.2439 0.2497
vt -0.0000 0.9999
vt 0.0168 0.9999
vn 0.0462 0.9981 -0.0402
g CityEngineMaterial_855_CityEngineMaterial_855_CityEngineMaterial_855_mat
usemtl CityEngineMaterial_855_mat
s 1
f 1/1/1 2/2/1 3/3/1 4/4/1
f 3/3/1 5/5/1 4/4/1
f 1/1/1 4/4/1 6/6/1 7/7/1
