# Blender v2.78 (sub 0) OBJ File: ''
# www.blender.org
mtllib CityEngineMaterial_761.mtl
o CityEngineMaterial_761
v 398.455597 63.405457 -357.497711
v 404.801514 63.405457 -345.307404
v 404.801514 65.071457 -345.307404
v 398.455597 65.071465 -357.497711
v 420.264893 63.405457 -353.320892
v 420.264893 65.071465 -353.320892
v 413.735291 63.405460 -365.609802
v 413.735291 65.071465 -365.609802
v 401.468292 65.071465 -357.989594
v 406.931091 65.071457 -347.512787
v 406.931091 71.958351 -347.512787
v 401.468292 71.958359 -357.989594
v 418.937286 65.071465 -353.734711
v 418.937286 71.958359 -353.734711
v 413.330200 65.071465 -364.287201
v 413.330200 71.958359 -364.287201
v 417.085114 71.958359 -354.312012
v 414.486908 71.958359 -359.201904
v 414.486908 72.630562 -359.201904
v 417.085114 72.630562 -354.312012
v 412.200897 71.958359 -358.017212
v 412.200897 72.630562 -358.017212
v 410.516205 71.958359 -361.248108
v 410.516205 72.630562 -361.248108
v 403.304596 71.958359 -357.419403
v 403.304596 72.630562 -357.419403
v 407.511810 71.958351 -349.350800
v 407.511810 72.630554 -349.350800
v -105.081497 3.194754 278.856415
v -93.599297 3.194755 277.578888
v -93.599297 10.869955 277.578888
v -105.081497 10.869954 278.856415
v -95.701500 3.194758 255.498001
v -95.701500 10.869958 255.498001
v -109.526299 3.194758 256.812897
v -109.526299 10.869958 256.812897
v -108.045403 3.194756 272.368195
v -108.045403 10.869955 272.368195
v -105.720200 3.194756 272.147095
v -105.720200 10.869956 272.147095
v -94.369102 10.869956 269.492493
v -95.552902 10.869958 257.058411
v -95.552902 12.215858 257.058411
v -94.369102 12.215857 269.492493
v -104.227501 10.869958 257.883698
v -104.227501 12.215858 257.883698
v -103.043800 10.869956 270.317810
v -103.043800 12.215857 270.317810
v -103.443703 10.869957 266.116394
v -103.977898 10.869957 260.505890
v -103.977898 12.215858 260.505890
v -103.443703 12.215858 266.116394
v -109.128098 10.869957 260.996185
v -109.128098 12.215858 260.996185
v -108.593903 10.869956 266.606689
v -108.593903 12.215857 266.606689
v -156.503799 3.464667 204.836304
v -170.201294 3.464666 207.117401
v -170.201294 11.643167 207.117401
v -156.503799 11.643167 204.836304
v -170.259201 3.464666 206.788101
v -170.259201 11.643167 206.788101
v -175.004807 3.464666 207.578400
v -175.004807 11.643167 207.578400
v -174.283600 3.464665 211.677994
v -174.283600 11.643166 211.677994
v -155.748398 3.464666 208.591202
v -155.748398 11.643166 208.591202
v -167.856201 11.643166 210.607605
v -157.557098 11.643166 208.892395
v -157.557098 12.101766 208.892395
v -167.856201 12.101766 210.607605
v -157.893494 11.643167 206.872299
v -157.893494 12.101867 206.872299
v -168.192703 11.643166 208.587402
v -168.192703 12.101766 208.587402
v -163.449402 11.643167 207.797501
v -160.940598 11.643167 207.379700
v -160.940598 12.101867 207.379700
v -163.449402 12.101867 207.797501
v -161.233093 11.643167 205.623901
v -161.233093 12.101867 205.623901
v -163.741806 11.643167 206.041702
v -163.741806 12.101867 206.041702
v 418.647308 66.771072 -423.886414
v 405.377106 66.771072 -417.215607
v 405.377106 68.020966 -417.215607
v 418.647308 68.020966 -423.886414
v 413.983612 66.771072 -401.009399
v 413.983612 68.020966 -401.009399
v 427.087189 66.771072 -407.977600
v 427.087189 68.020966 -407.977600
v 418.157715 70.285767 -422.350800
v 406.947388 70.285767 -416.715393
v 406.947388 77.459167 -416.715393
v 418.157715 77.459167 -422.350800
v 411.367096 70.285767 -408.392792
v 411.367096 77.459167 -408.392792
v 422.573914 70.285767 -414.026398
v 422.573914 77.459167 -414.026398
v 416.339813 70.285767 -410.892487
v 416.339813 77.459167 -410.892487
v 414.460510 70.285767 -402.567902
v 414.460510 77.459167 -402.567902
v 419.245392 70.285767 -405.112488
v 419.245392 77.459167 -405.112488
v 410.214691 77.459167 -413.270203
v 414.412506 77.459167 -415.380402
v 414.412506 78.249268 -415.380402
v 410.214691 78.249268 -413.270203
v 416.102600 77.459167 -412.194489
v 416.102600 78.249268 -412.194489
v 420.843903 77.459167 -414.577911
v 420.843903 78.249268 -414.577911
v 417.618195 77.459167 -420.658295
v 417.618195 78.249268 -420.658295
v 408.677887 77.459167 -416.164093
v 408.677887 78.249268 -416.164093
v 414.574799 77.459167 -406.717407
v 415.201294 77.459167 -405.537598
v 415.201294 78.540970 -405.537598
v 414.574799 78.540970 -406.717407
v 416.342194 77.459167 -406.143402
v 416.342194 78.540970 -406.143402
v 415.715607 77.459167 -407.323212
v 415.715607 78.540970 -407.323212
v 415.771698 78.845070 -405.840515
v 415.145203 78.845070 -407.020294
v 411.982697 77.459167 -407.292114
v 413.963898 77.459167 -403.561493
v 413.963898 77.938972 -403.561493
v 411.982697 77.938972 -407.292114
v 417.020905 77.459167 -405.184906
v 417.020905 77.938972 -405.184906
v 415.039703 77.459167 -408.915588
v 415.039703 77.938972 -408.915588
v 416.259888 77.459167 -406.617798
v 416.259888 77.938972 -406.617798
v 417.965088 77.459167 -407.523407
v 417.965088 77.938972 -407.523407
v 416.744812 77.459167 -409.821106
v 416.744812 77.938972 -409.821106
v -317.876801 7.887456 -343.249390
v -312.982208 7.887455 -333.662811
v -312.982208 9.514255 -333.662811
v -317.876801 9.514256 -343.249390
v -296.881805 7.887456 -342.110687
v -296.881805 9.514256 -342.110687
v -301.958893 7.887457 -351.585205
v -301.958893 9.514257 -351.585205
v -316.639893 9.514256 -342.855591
v -312.584686 9.514255 -334.913300
v -312.584686 16.171856 -334.913300
v -316.639893 16.171755 -342.855591
v -298.134613 9.514256 -342.495300
v -298.134613 16.171755 -342.495300
v -302.340515 9.514257 -350.343903
v -302.340515 16.171858 -350.343903
v -310.727692 16.171856 -335.887695
v -299.972504 16.171856 -341.530914
v -299.972504 16.825455 -341.530914
v -310.727692 16.825455 -335.887695
v -302.421814 16.171858 -346.198792
v -302.421814 16.825457 -346.198792
v -313.176910 16.171856 -340.555511
v -313.176910 16.825455 -340.555511
v -308.455414 16.171856 -343.032990
v -304.644989 16.171856 -345.032196
v -304.644989 16.825455 -345.032196
v -308.455414 16.825455 -343.032990
v -306.332886 16.171858 -348.249115
v -306.332886 16.825457 -348.249115
v -310.143188 16.171858 -346.249786
v -310.143188 16.825457 -346.249786
vt 0.5455 0.8333
vt 1.6364 0.8333
vt 1.6364 1.0000
vt 0.5455 1.0000
vt 0.6364 0.8333
vt 2.0909 0.8333
vt 2.0909 1.0000
vt 0.6364 1.0000
vt 0.0000 0.8333
vt 1.0909 0.8333
vt 1.0909 1.0000
vt 0.0000 1.0000
vt 0.0909 0.8333
vt 1.4545 0.8333
vt 1.4545 1.0000
vt 0.0909 1.0000
vt 0.3636 0.1667
vt 1.3636 0.1667
vt 1.3636 1.0000
vt 0.3636 1.0000
vt 0.7273 0.1667
vt 1.8182 0.1667
vt 1.8182 1.0000
vt 0.7273 1.0000
vt 0.7273 0.1667
vt 1.7273 0.1667
vt 1.7273 1.0000
vt 0.7273 1.0000
vt 0.4545 0.1667
vt 1.5455 0.1667
vt 1.5455 1.0000
vt 0.4545 1.0000
vt 0.1818 0.9833
vt 0.6364 0.9833
vt 0.6364 1.0000
vt 0.1818 1.0000
vt 0.4545 0.9833
vt 0.6364 0.9833
vt 0.6364 1.0000
vt 0.4545 1.0000
vt 0.7273 0.9833
vt 1.0000 0.9833
vt 1.0000 1.0000
vt 0.7273 1.0000
vt 0.5455 0.9833
vt 1.1818 0.9833
vt 1.1818 1.0000
vt 0.5455 1.0000
vt 0.8182 0.9833
vt 1.5455 0.9833
vt 1.5455 1.0000
vt 0.8182 1.0000
vt 0.7273 0.9833
vt 1.6364 0.9833
vt 1.6364 1.0000
vt 0.7273 1.0000
vt 0.8182 -0.1667
vt 1.6364 -0.1667
vt 1.6364 1.0000
vt 0.8182 1.0000
vt 0.8182 -0.1667
vt 2.3636 -0.1667
vt 2.3636 1.0000
vt 0.8182 1.0000
vt 0.2727 -0.1667
vt 1.2727 -0.1667
vt 1.2727 1.0000
vt 0.2727 1.0000
vt 0.6364 -0.1667
vt 1.7273 -0.1667
vt 1.7273 1.0000
vt 0.6364 1.0000
vt 0.6364 -0.1667
vt 0.8182 -0.1667
vt 0.8182 1.0000
vt 0.6364 1.0000
vt 0.2727 -0.1667
vt 0.7273 -0.1667
vt 0.7273 1.0000
vt 0.2727 1.0000
vt 0.5455 0.8333
vt 1.4545 0.8333
vt 1.4545 1.0000
vt 0.5455 1.0000
vt 0.2727 0.8333
vt 0.9091 0.8333
vt 0.9091 1.0000
vt 0.2727 1.0000
vt 0.3636 0.8333
vt 1.2727 0.8333
vt 1.2727 1.0000
vt 0.3636 1.0000
vt 0.5455 0.8333
vt 1.1818 0.8333
vt 1.1818 1.0000
vt 0.5455 1.0000
vt 0.6364 0.8333
vt 1.0000 0.8333
vt 1.0000 1.0000
vt 0.6364 1.0000
vt 0.5455 0.8333
vt 0.9091 0.8333
vt 0.9091 1.0000
vt 0.5455 1.0000
vt 0.4545 0.8333
vt 0.8182 0.8333
vt 0.8182 1.0000
vt 0.4545 1.0000
vt 0.7273 0.8333
vt 1.0909 0.8333
vt 1.0909 1.0000
vt 0.7273 1.0000
vt 0.7273 -0.1667
vt 2.0909 -0.1667
vt 2.0909 1.0000
vt 0.7273 1.0000
vt 0.3636 -0.1667
vt 0.3818 -0.1667
vt 0.3818 1.0000
vt 0.3636 1.0000
vt 0.1818 -0.1667
vt 0.6364 -0.1667
vt 0.6364 1.0000
vt 0.1818 1.0000
vt 0.8182 -0.1667
vt 1.1818 -0.1667
vt 1.1818 1.0000
vt 0.8182 1.0000
vt 0.7273 -0.1667
vt 2.5455 -0.1667
vt 2.5455 1.0000
vt 0.7273 1.0000
vt 0.7273 -0.1667
vt 1.0909 -0.1667
vt 1.0909 1.0000
vt 0.7273 1.0000
vt 0.3636 0.9833
vt 1.3636 0.9833
vt 1.3636 1.0000
vt 0.3636 1.0000
vt 0.6364 0.9833
vt 0.8182 0.9833
vt 0.8182 1.0000
vt 0.6364 1.0000
vt 0.5455 0.9833
vt 1.5455 0.9833
vt 1.5455 1.0000
vt 0.5455 1.0000
vt 0.5455 0.9833
vt 0.7273 0.9833
vt 0.7273 1.0000
vt 0.5455 1.0000
vt 0.2727 0.9833
vt 0.5455 0.9833
vt 0.5455 1.0000
vt 0.2727 1.0000
vt 0.8182 0.9833
vt 1.0000 0.9833
vt 1.0000 1.0000
vt 0.8182 1.0000
vt 0.8182 0.9833
vt 1.0909 0.9833
vt 1.0909 1.0000
vt 0.8182 1.0000
vt 0.4545 0.9833
vt 0.6364 0.9833
vt 0.6364 1.0000
vt 0.4545 1.0000
vt 0.9091 0.8333
vt 2.2727 0.8333
vt 2.2727 1.0000
vt 0.9091 1.0000
vt 0.6364 0.8333
vt 2.2727 0.8333
vt 2.2727 1.0000
vt 0.6364 1.0000
vt 0.0909 0.8333
vt 1.4545 0.8333
vt 1.4545 1.0000
vt 0.0909 1.0000
vt 0.6364 0.8333
vt 2.2727 0.8333
vt 2.2727 1.0000
vt 0.6364 1.0000
vt 0.2727 0.0000
vt 1.3636 0.0000
vt 1.3636 1.0000
vt 0.2727 1.0000
vt 0.1818 0.0000
vt 1.0000 0.0000
vt 1.0000 1.0000
vt 0.1818 1.0000
vt 0.8182 0.0000
vt 1.9091 0.0000
vt 1.9091 1.0000
vt 0.8182 1.0000
vt 0.3636 0.0000
vt 1.1818 0.0000
vt 1.1818 1.0000
vt 0.3636 1.0000
vt 0.7273 0.0000
vt 1.2727 0.0000
vt 1.2727 1.0000
vt 0.7273 1.0000
vt 0.9091 0.0000
vt 1.5455 0.0000
vt 1.5455 1.0000
vt 0.9091 1.0000
vt 0.0000 0.0000
vt 0.4545 0.0000
vt 0.4545 1.0000
vt 0.0000 1.0000
vt 0.2727 0.0000
vt 0.8182 0.0000
vt 0.8182 1.0000
vt 0.2727 1.0000
vt 0.4545 0.9833
vt 0.9091 0.9833
vt 0.9091 1.0000
vt 0.4545 1.0000
vt 1.2727 0.9833
vt 1.2727 1.0000
vt 0.1818 0.9833
vt 0.6364 0.9833
vt 0.6364 1.0000
vt 0.1818 1.0000
vt 0.4545 0.9833
vt 1.0909 0.9833
vt 1.0909 1.0000
vt 0.4545 1.0000
vt 0.5455 0.9833
vt 1.4545 0.9833
vt 1.4545 1.0000
vt 0.5455 1.0000
vt 0.0909 0.9833
vt 0.3636 0.9833
vt 0.3636 1.0000
vt 0.0909 1.0000
vt 0.0909 0.8333
vt 0.1818 0.8333
vt 0.1818 1.0000
vt 0.0909 1.0000
vt 0.8182 0.8333
vt 0.9091 0.8333
vt 0.9091 1.0000
vt 0.8182 1.0000
vt 0.2727 0.8333
vt 0.3636 0.8333
vt 0.3636 1.0000
vt 0.2727 1.0000
vt 0.4545 0.8333
vt 0.4545 1.0000
vt 0.3636 0.9833
vt 0.4545 0.9833
vt 0.4091 1.0000
vt -0.0000 0.9833
vt 0.0909 0.9833
vt 0.0455 1.0000
vt 0.1818 0.9833
vt 0.5455 0.9833
vt 0.5455 1.0000
vt 0.1818 1.0000
vt 0.3636 0.9833
vt 0.6364 0.9833
vt 0.6364 1.0000
vt 0.3636 1.0000
vt 0.4545 0.9833
vt 0.8182 0.9833
vt 0.8182 1.0000
vt 0.4545 1.0000
vt 0.5455 0.9833
vt 0.8182 0.9833
vt 0.8182 1.0000
vt 0.5455 1.0000
vt 0.7273 0.9833
vt 1.0000 0.9833
vt 1.0000 1.0000
vt 0.7273 1.0000
vt 0.0909 0.9833
vt 0.2727 0.9833
vt 0.2727 1.0000
vt 0.0909 1.0000
vt 0.4545 0.9833
vt 0.7273 0.9833
vt 0.7273 1.0000
vt 0.4545 1.0000
vt 0.1818 0.9833
vt 0.3636 0.9833
vt 0.3636 1.0000
vt 0.1818 1.0000
vt 0.6364 0.8333
vt 1.6364 0.8333
vt 1.6364 1.0000
vt 0.6364 1.0000
vt 0.3636 0.8333
vt 2.0000 0.8333
vt 2.0000 1.0000
vt 0.3636 1.0000
vt 0.3636 0.8333
vt 1.3636 0.8333
vt 1.3636 1.0000
vt 0.3636 1.0000
vt 0.3636 0.8333
vt 2.0000 0.8333
vt 2.0000 1.0000
vt 0.3636 1.0000
vt 0.3636 0.1667
vt 1.1818 0.1667
vt 1.1818 1.0000
vt 0.3636 1.0000
vt 0.9091 0.1667
vt 2.3636 0.1667
vt 2.3636 1.0000
vt 0.9091 1.0000
vt 0.3636 0.1667
vt 1.1818 0.1667
vt 1.1818 1.0000
vt 0.3636 1.0000
vt 0.1818 0.1667
vt 1.6364 0.1667
vt 1.6364 1.0000
vt 0.1818 1.0000
vt 0.9091 0.9833
vt 2.0000 0.9833
vt 2.0000 1.0000
vt 0.9091 1.0000
vt 0.2727 0.9833
vt 0.7273 0.9833
vt 0.7273 1.0000
vt 0.2727 1.0000
vt 0.1818 0.9833
vt 1.2727 0.9833
vt 1.2727 1.0000
vt 0.1818 1.0000
vt 0.2727 0.9833
vt 0.7273 0.9833
vt 0.7273 1.0000
vt 0.2727 1.0000
vt 0.7273 0.9833
vt 1.0909 0.9833
vt 1.0909 1.0000
vt 0.7273 1.0000
vt 0.9091 0.9833
vt 1.2727 0.9833
vt 1.2727 1.0000
vt 0.9091 1.0000
vt 0.2727 0.9833
vt 0.6364 0.9833
vt 0.6364 1.0000
vt 0.2727 1.0000
vt 0.8182 0.9833
vt 1.1818 0.9833
vt 1.1818 1.0000
vt 0.8182 1.0000
vn -0.8870 0.0000 0.4618
vn 0.4601 0.0000 0.8879
vn 0.8831 0.0000 -0.4692
vn -0.4689 0.0000 -0.8832
vn -0.8867 0.0000 0.4623
vn -0.4601 0.0000 -0.8879
vn 0.8867 0.0000 -0.4623
vn 0.1106 0.0000 0.9939
vn 0.9955 0.0000 -0.0948
vn -0.0947 0.0000 -0.9955
vn -0.9955 0.0000 0.0948
vn 0.0947 0.0000 0.9955
vn -0.0948 0.0000 -0.9955
vn 0.0948 0.0000 0.9955
vn -0.1643 0.0000 -0.9864
vn 0.9849 0.0000 -0.1732
vn -0.9849 0.0000 0.1733
vn 0.1643 0.0000 0.9864
vn 0.9804 0.0000 -0.1972
vn 0.9864 0.0000 -0.1643
vn -0.9864 0.0000 0.1643
vn -0.4491 0.0000 -0.8935
vn -0.8832 0.0000 0.4690
vn 0.4695 0.0000 0.8829
vn 0.8834 0.0000 -0.4686
vn 0.4491 0.0000 0.8935
vn 0.8935 0.0000 -0.4491
vn -0.8834 0.0000 0.4686
vn 0.4690 0.0000 0.8832
vn 0.8832 0.0000 -0.4690
vn -0.4690 0.0000 -0.8832
vn 0.4691 0.0000 0.8832
vn -0.8906 0.0000 0.4547
vn 0.4646 0.0000 0.8855
vn 0.8814 0.0000 -0.4723
vn -0.4639 0.0000 -0.8859
vn 0.8855 0.0000 -0.4646
vn -0.4646 0.0000 -0.8855
vn -0.8855 0.0000 0.4646
g CityEngineMaterial_761_CityEngineMaterial_761_CityEngineMaterial_761_mat
usemtl CityEngineMaterial_761_mat
s 1
f 1/1/1 2/2/1 3/3/1 4/4/1
f 2/5/2 5/6/2 6/7/2 3/8/2
f 5/9/3 7/10/3 8/11/3 6/12/3
f 7/13/4 1/14/4 4/15/4 8/16/4
f 9/17/5 10/18/5 11/19/5 12/20/5
f 10/21/2 13/22/2 14/23/2 11/24/2
f 13/25/3 15/26/3 16/27/3 14/28/3
f 15/29/4 9/30/4 12/31/4 16/32/4
f 17/33/3 18/34/3 19/35/3 20/36/3
f 18/37/6 21/38/6 22/39/6 19/40/6
f 21/41/7 23/42/7 24/43/7 22/44/7
f 23/45/4 25/46/4 26/47/4 24/48/4
f 25/49/5 27/50/5 28/51/5 26/52/5
f 27/53/2 17/54/2 20/55/2 28/56/2
f 29/57/8 30/58/8 31/59/8 32/60/8
f 30/61/9 33/62/9 34/63/9 31/64/9
f 33/65/10 35/66/10 36/67/10 34/68/10
f 35/69/11 37/70/11 38/71/11 36/72/11
f 37/73/12 39/74/12 40/75/12 38/76/12
f 39/77/11 29/78/11 32/79/11 40/80/11
f 41/81/9 42/82/9 43/83/9 44/84/9
f 42/85/10 45/86/10 46/87/10 43/88/10
f 45/89/11 47/90/11 48/91/11 46/92/11
f 47/93/12 41/94/12 44/95/12 48/96/12
f 49/97/9 50/98/9 51/99/9 52/100/9
f 50/101/13 53/102/13 54/103/13 51/104/13
f 53/105/11 55/106/11 56/107/11 54/108/11
f 55/109/14 49/110/14 52/111/14 56/112/14
f 57/113/15 58/114/15 59/115/15 60/116/15
f 58/117/16 61/118/16 62/119/16 59/120/16
f 61/121/15 63/122/15 64/123/15 62/124/15
f 63/125/17 65/126/17 66/127/17 64/128/17
f 65/129/18 67/130/18 68/131/18 66/132/18
f 67/133/19 57/134/19 60/135/19 68/136/19
f 69/137/18 70/138/18 71/139/18 72/140/18
f 70/141/20 73/142/20 74/143/20 71/144/20
f 73/145/15 75/146/15 76/147/15 74/148/15
f 75/149/21 69/150/21 72/151/21 76/152/21
f 77/153/18 78/154/18 79/155/18 80/156/18
f 78/157/20 81/158/20 82/159/20 79/160/20
f 81/161/15 83/162/15 84/163/15 82/164/15
f 83/165/21 77/166/21 80/167/21 84/168/21
f 85/169/22 86/170/22 87/171/22 88/172/22
f 86/173/23 89/174/23 90/175/23 87/176/23
f 89/177/24 91/178/24 92/179/24 90/180/24
f 91/181/25 85/182/25 88/183/25 92/184/25
f 93/185/22 94/186/22 95/187/22 96/188/22
f 94/189/23 97/190/23 98/191/23 95/192/23
f 97/193/26 99/194/26 100/195/26 98/196/26
f 99/197/25 93/198/25 96/199/25 100/200/25
f 101/201/22 97/202/22 98/203/22 102/204/22
f 97/205/23 103/206/23 104/207/23 98/208/23
f 103/209/24 105/210/24 106/211/24 104/212/24
f 105/213/27 101/214/27 102/215/27 106/216/27
f 107/217/26 108/218/26 109/219/26 110/220/26
f 108/218/28 111/221/28 112/222/28 109/219/28
f 111/223/26 113/224/26 114/225/26 112/226/26
f 113/227/25 115/228/25 116/229/25 114/230/25
f 115/231/22 117/232/22 118/233/22 116/234/22
f 117/235/23 107/236/23 110/237/23 118/238/23
f 119/239/23 120/240/23 121/241/23 122/242/23
f 120/243/29 123/244/29 124/245/29 121/246/29
f 123/247/30 125/248/30 126/249/30 124/250/30
f 125/248/31 119/251/31 122/252/31 126/249/31
f 121/253/29 124/254/29 127/255/29
f 126/256/31 122/257/31 128/258/31
f 129/259/23 130/260/23 131/261/23 132/262/23
f 130/263/29 133/264/29 134/265/29 131/266/29
f 133/267/30 135/268/30 136/269/30 134/270/30
f 135/271/31 129/272/31 132/273/31 136/274/31
f 135/275/23 137/276/23 138/277/23 136/278/23
f 137/279/32 139/280/32 140/281/32 138/282/32
f 139/283/30 141/284/30 142/285/30 140/286/30
f 141/287/31 135/288/31 136/289/31 142/290/31
f 143/291/33 144/292/33 145/293/33 146/294/33
f 144/295/34 147/296/34 148/297/34 145/298/34
f 147/299/35 149/300/35 150/301/35 148/302/35
f 149/303/36 143/304/36 146/305/36 150/306/36
f 151/307/33 152/308/33 153/309/33 154/310/33
f 152/311/34 155/312/34 156/313/34 153/314/34
f 155/315/35 157/316/35 158/317/35 156/318/35
f 157/319/36 151/320/36 154/321/36 158/322/36
f 159/323/34 160/324/34 161/325/34 162/326/34
f 160/327/37 163/328/37 164/329/37 161/330/37
f 163/331/38 165/332/38 166/333/38 164/334/38
f 165/335/39 159/336/39 162/337/39 166/338/39
f 167/339/34 168/340/34 169/341/34 170/342/34
f 168/343/37 171/344/37 172/345/37 169/346/37
f 171/347/38 173/348/38 174/349/38 172/350/38
f 173/351/39 167/352/39 170/353/39 174/354/39
