# Blender v2.78 (sub 0) OBJ File: ''
# www.blender.org
mtllib CityEngineMaterial_543.mtl
o CityEngineMaterial_543
v -1516.666382 17.355644 339.065186
v -1519.806396 17.355642 345.902588
v -1519.806396 19.482042 345.902588
v -1516.666382 19.482044 339.065186
v -1506.277222 17.355642 352.110992
v -1506.277222 19.482042 352.110992
v -1503.870361 17.355642 346.829315
v -1503.870361 19.482042 346.829315
v -1513.444092 17.355644 342.436096
v -1513.444092 19.482044 342.436096
v -1512.726562 17.355644 340.873199
v -1512.726562 19.482044 340.873199
v 532.888672 40.928780 122.237007
v 532.544495 40.928780 113.421608
v 532.544495 43.062080 113.421608
v 532.888672 43.062080 122.237007
v 521.669617 40.928780 113.794708
v 521.669617 43.062080 113.794708
v 522.068604 40.928780 125.709511
v 522.068604 43.062080 125.709511
v 530.199219 40.928780 125.439911
v 530.199219 43.062080 125.439911
v 530.095093 40.928780 122.332909
v 530.095093 43.062080 122.332909
v 227.574097 43.343647 -910.403076
v 229.368607 43.343643 -896.859497
v 229.368607 45.342445 -896.859497
v 227.574097 45.342449 -910.403076
v 240.763702 43.343643 -898.375305
v 240.763702 45.342445 -898.375305
v 237.696198 43.343647 -910.898621
v 237.696198 45.342449 -910.898621
v 231.391907 43.343647 -910.059998
v 231.391907 45.342449 -910.059998
v 231.280899 43.343647 -910.896729
v 231.280899 45.342449 -910.896729
v 16.866501 4.406081 115.572403
v 15.808900 4.406183 105.056099
v 15.808900 6.307183 105.056099
v 16.866501 6.307181 115.572403
v 9.036900 4.406183 104.734100
v 9.036900 6.307183 104.734100
v 8.571000 4.406081 114.652496
v 8.571000 6.307181 114.652496
v 14.420500 4.406081 114.930702
v 14.420500 6.307181 114.930702
v 14.473600 4.406081 115.458397
v 14.473600 6.307181 115.458397
v -397.639191 1.313905 -33.352798
v -401.280487 1.313911 -67.795403
v -401.280487 3.195011 -67.795502
v -397.639191 3.195005 -33.352798
v -406.211212 1.313911 -67.921204
v -406.211212 3.195011 -67.921204
v -407.086609 1.313905 -33.593700
v -407.086609 3.195005 -33.593700
v -403.506500 1.313905 -33.502399
v -403.506500 3.195005 -33.502399
v -403.420990 1.313906 -36.851101
v -403.420990 3.195006 -36.851101
v -400.108398 1.313906 -36.766602
v -400.108398 3.195006 -36.766602
v -399.753204 1.313905 -33.406700
v -399.753204 3.195005 -33.406700
v 455.776611 21.240833 415.449890
v 468.183289 21.240833 412.849792
v 468.183289 23.287233 412.849792
v 455.776611 23.287233 415.449890
v 463.752197 21.240936 391.794403
v 463.752197 23.287237 391.794403
v 451.047089 21.240934 394.456390
v 451.047089 23.287235 394.456390
v 2.021000 38.517063 -1003.626221
v -8.422100 38.517063 -1001.978882
v -8.422100 39.831165 -1001.978882
v 2.021000 39.831165 -1003.626221
v -7.729100 38.517063 -997.554504
v -7.729100 39.831165 -997.554504
v -2.406100 38.517063 -998.394104
v -2.406100 39.831165 -998.394104
v -1.804900 38.517059 -994.555176
v -1.804900 39.831161 -994.555176
v -7.128300 38.517059 -993.718323
v -7.128300 39.831161 -993.718323
v -6.493200 38.517059 -989.663208
v -6.493200 39.831161 -989.663208
v 3.950500 38.517059 -991.305420
v 3.950500 39.831161 -991.305420
v 383.175201 50.966526 -165.536179
v 398.260010 50.966526 -170.784790
v 398.260010 53.276726 -170.784790
v 383.175201 53.276726 -165.536179
v 395.906586 50.966530 -186.126678
v 395.906586 53.276730 -186.126678
v 379.235413 50.966530 -182.189484
v 379.235413 53.276730 -182.189484
v 992.826782 113.774574 -448.162781
v 984.647583 113.774567 -440.990082
v 984.647583 115.511467 -440.990082
v 992.826782 115.511475 -448.162781
v 993.942505 113.774567 -430.410065
v 993.942505 115.511467 -430.410065
v 996.151794 113.774567 -432.347565
v 996.151794 115.511467 -432.347565
v 994.860901 113.774567 -433.816956
v 994.860901 115.511467 -433.816956
v 998.619507 113.774567 -437.113068
v 998.619507 115.511467 -437.113068
v 999.820496 113.774567 -435.564880
v 999.820496 115.511467 -435.564880
v 1001.474426 113.774567 -437.015167
v 1001.474426 115.511467 -437.015167
v -103.567596 39.299458 -960.763489
v -98.941399 39.299458 -961.492188
v -98.941399 40.825855 -961.492188
v -103.567596 40.825855 -960.763489
v -97.758003 39.299458 -953.935120
v -97.758003 40.825855 -953.935120
v -102.384598 39.299458 -953.208984
v -102.384598 40.825855 -953.208984
v -101.862701 39.299458 -949.876526
v -101.862701 40.825855 -949.876526
v -91.739799 39.299458 -951.465027
v -91.739799 40.825855 -951.465027
v -93.904198 39.299458 -965.285889
v -93.904198 40.825855 -965.285889
v -104.026199 39.299458 -963.691711
v -104.026199 40.825855 -963.691711
v -361.281494 4.499772 787.071411
v -369.821198 4.499772 786.484375
v -369.821198 6.049472 786.484375
v -361.281494 6.049472 787.071411
v -370.540802 4.499771 792.086121
v -370.540802 6.049471 792.086121
v -365.823486 4.499771 792.410217
v -365.823486 6.049471 792.410217
v -366.647705 4.499770 798.823914
v -366.647705 6.049470 798.823914
v -371.364807 4.499770 798.499878
v -371.364807 6.049470 798.499878
v -371.909485 4.499769 802.739502
v -371.909485 6.049469 802.739502
v -363.370300 4.499769 803.325684
v -363.370300 6.049469 803.325684
v 30.654499 5.019284 96.559799
v 41.680199 5.019284 97.030098
v 41.680199 7.225284 97.030098
v 30.654499 7.225284 96.559799
v 42.250599 5.019288 74.109596
v 42.250599 7.225288 74.109596
v 25.526100 5.019288 73.698799
v 25.526100 7.225288 73.698799
v 24.982599 5.019284 96.280502
v 24.982599 7.225284 96.280502
v -946.233704 5.038265 215.837601
v -948.140320 5.038267 204.958298
v -948.140320 6.364966 204.958298
v -946.233704 6.364964 215.837601
v -953.327881 5.038267 205.867401
v -953.327881 6.364966 205.867401
v -952.263428 5.038266 211.941696
v -952.263428 6.364965 211.941696
v -959.109375 5.038265 213.141205
v -959.109375 6.364965 213.141205
v -960.174622 5.038266 207.067200
v -960.174622 6.364966 207.067200
v -963.213379 5.038266 207.599792
v -963.213379 6.364966 207.599792
v -961.305725 5.038264 218.478302
v -961.305725 6.364964 218.478302
vt 0.5000 0.0000
vt 4.0000 0.0000
vt 4.0000 1.0000
vt 0.5000 1.0000
vt 0.0000 0.0000
vt 6.5000 0.0000
vt 6.5000 1.0000
vt 0.0000 1.0000
vt 0.0000 0.0000
vt 2.5000 0.0000
vt 2.5000 1.0000
vt 0.0000 1.0000
vt 0.0000 0.0000
vt 4.5000 -0.0000
vt 4.5000 1.0000
vt 0.0000 1.0000
vt 0.5000 0.0000
vt 1.5000 -0.0000
vt 1.5000 1.0000
vt 0.5000 1.0000
vt 0.5000 0.0000
vt 2.5000 0.0000
vt 2.5000 1.0000
vt 0.5000 1.0000
vt 0.0000 0.0000
vt 3.5000 0.0000
vt 3.5000 1.0000
vt 0.0000 1.0000
vt 0.5000 0.0000
vt 5.0000 -0.0000
vt 5.0000 1.0000
vt 0.5000 1.0000
vt 0.5000 0.0000
vt 5.0000 -0.0000
vt 5.0000 1.0000
vt 0.5000 1.0000
vt 0.5000 0.0000
vt 3.5000 0.0000
vt 3.5000 1.0000
vt 0.5000 1.0000
vt 0.5000 0.0000
vt 1.5000 -0.0000
vt 1.5000 1.0000
vt 0.5000 1.0000
vt 0.5000 0.0000
vt 1.5000 -0.0000
vt 1.5000 1.0000
vt 0.5000 1.0000
vt 0.0000 0.0000
vt 6.5000 0.0000
vt 6.5000 1.0000
vt 0.0000 1.0000
vt 0.5000 0.0000
vt 6.0000 0.0000
vt 6.0000 1.0000
vt 0.5000 1.0000
vt 0.5000 0.0000
vt 6.5000 0.0000
vt 6.5000 1.0000
vt 0.5000 1.0000
vt 0.5000 0.0000
vt 3.5000 0.0000
vt 3.5000 1.0000
vt 0.5000 1.0000
vt 0.5000 0.0000
vt 1.0000 0.0000
vt 1.0000 1.0000
vt 0.5000 1.0000
vt 0.0000 0.0000
vt 1.5000 -0.0000
vt 1.5000 1.0000
vt 0.0000 1.0000
vt 0.0000 0.0000
vt 5.5000 -0.0000
vt 5.5000 1.0000
vt 0.0000 1.0000
vt 0.0000 0.0000
vt 3.5000 0.0000
vt 3.5000 1.0000
vt 0.0000 1.0000
vt 0.0000 0.0000
vt 5.0000 -0.0000
vt 5.0000 1.0000
vt 0.0000 1.0000
vt 0.5000 0.0000
vt 3.5000 0.0000
vt 3.5000 1.0000
vt 0.5000 1.0000
vt 0.5000 0.0000
vt 1.0000 0.0000
vt 1.0000 1.0000
vt 0.5000 1.0000
vt 0.0000 0.0000
vt 1.0000 0.0000
vt 1.0000 1.0000
vt 0.0000 1.0000
vt 0.5000 0.0000
vt 14.5000 0.0000
vt 14.5000 1.0000
vt 0.5000 1.0000
vt 0.0000 0.0000
vt 2.0000 0.0000
vt 2.0000 1.0000
vt 0.0000 1.0000
vt 0.0000 0.0000
vt 14.0000 0.0000
vt 14.0000 1.0000
vt 0.0000 1.0000
vt 0.0000 0.0000
vt 1.5000 -0.0000
vt 1.5000 1.0000
vt 0.0000 1.0000
vt 0.0000 0.0000
vt 1.5000 -0.0000
vt 1.5000 1.0000
vt 0.0000 1.0000
vt 0.5000 0.0000
vt 2.0000 0.0000
vt 2.0000 1.0000
vt 0.5000 1.0000
vt 0.0000 0.0000
vt 1.5000 -0.0000
vt 1.5000 1.0000
vt 0.0000 1.0000
vt 0.0000 0.0000
vt 1.0000 0.0000
vt 1.0000 1.0000
vt 0.0000 1.0000
vt 0.0000 0.0000
vt 7.5000 0.0000
vt 7.5000 1.0000
vt 0.0000 1.0000
vt 0.0000 0.0000
vt 12.5000 -0.0000
vt 12.5000 1.0000
vt 0.0000 1.0000
vt 0.0000 0.0000
vt 7.5000 0.0000
vt 7.5000 1.0000
vt 0.0000 1.0000
vt 0.0000 0.0000
vt 12.5000 -0.0000
vt 12.5000 1.0000
vt 0.0000 1.0000
vt 0.0000 0.0000
vt 4.5000 -0.0000
vt 4.5000 1.0000
vt 0.0000 1.0000
vt 0.5000 0.0000
vt 2.5000 0.0000
vt 2.5000 1.0000
vt 0.5000 1.0000
vt 0.5000 0.0000
vt 3.0000 0.0000
vt 3.0000 1.0000
vt 0.5000 1.0000
vt 0.5000 0.0000
vt 2.0000 0.0000
vt 2.0000 1.0000
vt 0.5000 1.0000
vt 0.5000 0.0000
vt 3.0000 0.0000
vt 3.0000 1.0000
vt 0.5000 1.0000
vt 0.5000 0.0000
vt 2.5000 0.0000
vt 2.5000 1.0000
vt 0.5000 1.0000
vt 0.5000 0.0000
vt 5.0000 -0.0000
vt 5.0000 1.0000
vt 0.5000 1.0000
vt 0.5000 0.0000
vt 6.0000 0.0000
vt 6.0000 1.0000
vt 0.5000 1.0000
vt 0.0000 0.0000
vt 6.0000 0.0000
vt 6.0000 1.0000
vt 0.0000 1.0000
vt 0.0000 0.0000
vt 5.5000 -0.0000
vt 5.5000 1.0000
vt 0.0000 1.0000
vt 0.0000 0.0000
vt 6.5000 0.0000
vt 6.5000 1.0000
vt 0.0000 1.0000
vt 0.5000 0.0000
vt 7.0000 0.0000
vt 7.0000 1.0000
vt 0.5000 1.0000
vt 0.0000 0.0000
vt 6.0000 0.0000
vt 6.0000 1.0000
vt 0.0000 1.0000
vt 0.5000 0.0000
vt 8.5000 0.0000
vt 8.5000 1.0000
vt 0.5000 1.0000
vt 0.5000 0.0000
vt 2.0000 0.0000
vt 2.0000 1.0000
vt 0.5000 1.0000
vt 0.0000 0.0000
vt 1.0000 0.0000
vt 1.0000 1.0000
vt 0.0000 1.0000
vt 0.5000 0.0000
vt 3.5000 0.0000
vt 3.5000 1.0000
vt 0.5000 1.0000
vt 0.0000 0.0000
vt 1.0000 0.0000
vt 1.0000 1.0000
vt 0.0000 1.0000
vt 0.5000 0.0000
vt 1.5000 -0.0000
vt 1.5000 1.0000
vt 0.5000 1.0000
vt 0.5000 0.0000
vt 8.5000 0.0000
vt 8.5000 1.0000
vt 0.5000 1.0000
vt 0.0000 0.0000
vt 2.0000 0.0000
vt 2.0000 1.0000
vt 0.0000 1.0000
vt 0.0000 0.0000
vt 3.5000 0.0000
vt 3.5000 1.0000
vt 0.0000 1.0000
vt 0.0000 0.0000
vt 2.0000 0.0000
vt 2.0000 1.0000
vt 0.0000 1.0000
vt 0.5000 0.0000
vt 2.0000 0.0000
vt 2.0000 1.0000
vt 0.5000 1.0000
vt 0.5000 0.0000
vt 5.0000 -0.0000
vt 5.0000 1.0000
vt 0.5000 1.0000
vt 0.5000 0.0000
vt 6.5000 0.0000
vt 6.5000 1.0000
vt 0.5000 1.0000
vt 0.0000 0.0000
vt 4.5000 -0.0000
vt 4.5000 1.0000
vt 0.0000 1.0000
vt 0.0000 0.0000
vt 1.5000 -0.0000
vt 1.5000 1.0000
vt 0.0000 1.0000
vt 0.5000 0.0000
vt 4.5000 -0.0000
vt 4.5000 1.0000
vt 0.5000 1.0000
vt 0.5000 0.0000
vt 3.0000 0.0000
vt 3.0000 1.0000
vt 0.5000 1.0000
vt 0.0000 0.0000
vt 2.0000 0.0000
vt 2.0000 1.0000
vt 0.0000 1.0000
vt 0.5000 0.0000
vt 3.5000 0.0000
vt 3.5000 1.0000
vt 0.5000 1.0000
vt 0.5000 0.0000
vt 2.5000 0.0000
vt 2.5000 1.0000
vt 0.5000 1.0000
vt 0.0000 0.0000
vt 2.0000 0.0000
vt 2.0000 1.0000
vt 0.0000 1.0000
vt 0.5000 0.0000
vt 4.5000 -0.0000
vt 4.5000 1.0000
vt 0.5000 1.0000
vt 0.5000 0.0000
vt 8.0000 0.0000
vt 8.0000 1.0000
vt 0.5000 1.0000
vt 0.0000 0.0000
vt 6.0000 0.0000
vt 6.0000 1.0000
vt 0.0000 1.0000
vt 0.5000 0.0000
vt 13.5000 0.0000
vt 13.5000 1.0000
vt 0.5000 1.0000
vt 0.0000 0.0000
vt 9.5000 0.0000
vt 9.5000 1.0000
vt 0.0000 1.0000
vt 0.0000 0.0000
vt 12.5000 -0.0000
vt 12.5000 1.0000
vt 0.0000 1.0000
vt 0.5000 0.0000
vt 3.5000 0.0000
vt 3.5000 1.0000
vt 0.5000 1.0000
vt 0.5000 0.0000
vt 5.5000 -0.0000
vt 5.5000 1.0000
vt 0.5000 1.0000
vt 0.0000 0.0000
vt 2.5000 0.0000
vt 2.5000 1.0000
vt 0.0000 1.0000
vt 0.0000 0.0000
vt 3.0000 0.0000
vt 3.0000 1.0000
vt 0.0000 1.0000
vt 0.5000 0.0000
vt 3.5000 0.0000
vt 3.5000 1.0000
vt 0.5000 1.0000
vt 0.5000 0.0000
vt 3.5000 0.0000
vt 3.5000 1.0000
vt 0.5000 1.0000
vt 0.0000 0.0000
vt 1.5000 -0.0000
vt 1.5000 1.0000
vt 0.0000 1.0000
vt 0.5000 0.0000
vt 5.5000 -0.0000
vt 5.5000 1.0000
vt 0.5000 1.0000
vt 0.5000 0.0000
vt 7.5000 0.0000
vt 7.5000 1.0000
vt 0.5000 1.0000
vn -0.9088 0.0000 -0.4173
vn -0.4171 0.0000 0.9089
vn 0.9100 0.0000 0.4147
vn 0.4171 0.0000 -0.9089
vn 0.9088 0.0000 0.4172
vn 0.9992 0.0000 -0.0390
vn -0.0343 0.0000 -0.9994
vn -0.9994 0.0000 0.0335
vn 0.0331 0.0000 0.9995
vn 0.9994 0.0000 -0.0335
vn 0.0343 0.0000 0.9994
vn -0.9913 0.0000 0.1314
vn 0.1319 0.0000 0.9913
vn 0.9713 0.0000 -0.2379
vn -0.1319 0.0000 -0.9913
vn 0.9913 0.0000 -0.1315
vn -0.1320 0.0000 -0.9912
vn 0.9950 0.0000 -0.1001
vn 0.0475 0.0000 -0.9989
vn -0.9989 0.0000 -0.0469
vn -0.0475 0.0000 0.9989
vn -0.9950 0.0000 0.1001
vn -0.0476 0.0000 0.9989
vn 0.9945 -0.0000 -0.1051
vn 0.0255 -0.0000 -0.9997
vn -0.9997 0.0000 -0.0255
vn -0.0255 0.0000 0.9997
vn 0.9997 0.0000 0.0255
vn -0.9945 0.0000 0.1051
vn 0.2051 0.0000 0.9787
vn 0.9786 0.0000 -0.2059
vn -0.2051 0.0000 -0.9787
vn -0.9756 0.0000 0.2198
vn -0.1558 0.0000 -0.9878
vn -0.9880 0.0000 0.1547
vn 0.1558 0.0000 0.9878
vn -0.1553 0.0000 -0.9879
vn 0.1553 0.0000 0.9879
vn 0.9880 0.0000 -0.1547
vn 0.3286 0.0000 0.9445
vn 0.9884 0.0000 -0.1516
vn -0.2298 0.0000 -0.9732
vn -0.9731 0.0000 0.2302
vn -0.6593 0.0000 -0.7519
vn -0.7513 0.0000 0.6600
vn 0.6593 0.0000 0.7518
vn 0.7513 0.0000 -0.6600
vn 0.6593 0.0000 0.7519
vn -0.7901 0.0000 0.6129
vn 0.7901 0.0000 -0.6129
vn 0.1556 0.0000 0.9878
vn -0.1551 0.0000 -0.9879
vn 0.1550 0.0000 0.9879
vn -0.1556 0.0000 -0.9878
vn 0.0686 0.0000 -0.9976
vn -0.9918 0.0000 -0.1274
vn -0.0685 0.0000 0.9976
vn -0.9918 0.0000 -0.1275
vn 0.0685 0.0000 -0.9976
vn -0.0685 0.0000 0.9977
vn 0.9918 0.0000 0.1275
vn -0.0459 0.0000 0.9989
vn -0.0426 0.0000 0.9991
vn 0.9997 0.0000 0.0249
vn 0.0246 0.0000 -0.9997
vn -0.9997 0.0000 -0.0241
vn -0.0492 0.0000 0.9988
vn 0.9850 0.0000 -0.1726
vn -0.1726 0.0000 -0.9850
vn -0.9850 0.0000 0.1726
vn 0.9850 0.0000 -0.1727
vn -0.9850 0.0000 0.1727
vn 0.1726 0.0000 0.9850
g CityEngineMaterial_543_CityEngineMaterial_543_CityEngineMaterial_543_mat
usemtl CityEngineMaterial_543_mat
s 1
f 1/1/1 2/2/1 3/3/1 4/4/1
f 2/5/2 5/6/2 6/7/2 3/8/2
f 5/9/3 7/10/3 8/11/3 6/12/3
f 7/13/4 9/14/4 10/15/4 8/16/4
f 9/17/5 11/18/5 12/19/5 10/20/5
f 11/21/4 1/22/4 4/23/4 12/24/4
f 13/25/6 14/26/6 15/27/6 16/28/6
f 14/29/7 17/30/7 18/31/7 15/32/7
f 17/33/8 19/34/8 20/35/8 18/36/8
f 19/37/9 21/38/9 22/39/9 20/40/9
f 21/41/10 23/42/10 24/43/10 22/44/10
f 23/45/11 13/46/11 16/47/11 24/48/11
f 25/49/12 26/50/12 27/51/12 28/52/12
f 26/53/13 29/54/13 30/55/13 27/56/13
f 29/57/14 31/58/14 32/59/14 30/60/14
f 31/61/15 33/62/15 34/63/15 32/64/15
f 33/65/16 35/66/16 36/67/16 34/68/16
f 35/69/17 25/70/17 28/71/17 36/72/17
f 37/73/18 38/74/18 39/75/18 40/76/18
f 38/77/19 41/78/19 42/79/19 39/80/19
f 41/81/20 43/82/20 44/83/20 42/84/20
f 43/85/21 45/86/21 46/87/21 44/88/21
f 45/89/22 47/90/22 48/91/22 46/92/22
f 47/93/23 37/94/23 40/95/23 48/96/23
f 49/97/24 50/98/24 51/99/24 52/100/24
f 50/101/25 53/102/25 54/103/25 51/104/25
f 53/105/26 55/106/26 56/107/26 54/108/26
f 55/109/27 57/110/27 58/111/27 56/112/27
f 57/113/28 59/114/28 60/115/28 58/116/28
f 59/117/27 61/118/27 62/119/27 60/120/27
f 61/121/29 63/122/29 64/123/29 62/124/29
f 63/125/27 49/126/27 52/127/27 64/128/27
f 65/129/30 66/130/30 67/131/30 68/132/30
f 66/133/31 69/134/31 70/135/31 67/136/31
f 69/137/32 71/138/32 72/139/32 70/140/32
f 71/141/33 65/142/33 68/143/33 72/144/33
f 73/145/34 74/146/34 75/147/34 76/148/34
f 74/149/35 77/150/35 78/151/35 75/152/35
f 77/153/36 79/154/36 80/155/36 78/156/36
f 79/157/35 81/158/35 82/159/35 80/160/35
f 81/161/37 83/162/37 84/163/37 82/164/37
f 83/165/35 85/166/35 86/167/35 84/168/35
f 85/169/38 87/170/38 88/171/38 86/172/38
f 87/173/39 73/174/39 76/175/39 88/176/39
f 89/177/40 90/178/40 91/179/40 92/180/40
f 90/181/41 93/182/41 94/183/41 91/184/41
f 93/185/42 95/186/42 96/187/42 94/188/42
f 95/189/43 89/190/43 92/191/43 96/192/43
f 97/193/44 98/194/44 99/195/44 100/196/44
f 98/197/45 101/198/45 102/199/45 99/200/45
f 101/201/46 103/202/46 104/203/46 102/204/46
f 103/205/47 105/206/47 106/207/47 104/208/47
f 105/209/48 107/210/48 108/211/48 106/212/48
f 107/213/49 109/214/49 110/215/49 108/216/49
f 109/217/48 111/218/48 112/219/48 110/220/48
f 111/221/50 97/222/50 100/223/50 112/224/50
f 113/225/51 114/226/51 115/227/51 116/228/51
f 114/229/35 117/230/35 118/231/35 115/232/35
f 117/233/52 119/234/52 120/235/52 118/236/52
f 119/237/35 121/238/35 122/239/35 120/240/35
f 121/241/53 123/242/53 124/243/53 122/244/53
f 123/245/39 125/246/39 126/247/39 124/248/39
f 125/249/54 127/250/54 128/251/54 126/252/54
f 127/253/35 113/254/35 116/255/35 128/256/35
f 129/257/55 130/258/55 131/259/55 132/260/55
f 130/261/56 133/262/56 134/263/56 131/264/56
f 133/265/57 135/266/57 136/267/57 134/268/57
f 135/269/58 137/270/58 138/271/58 136/272/58
f 137/273/59 139/274/59 140/275/59 138/276/59
f 139/277/56 141/278/56 142/279/56 140/280/56
f 141/281/60 143/282/60 144/283/60 142/284/60
f 143/285/61 129/286/61 132/287/61 144/288/61
f 145/289/62 146/290/63 147/291/63 148/292/62
f 146/293/64 149/294/64 150/295/64 147/296/64
f 149/297/65 151/298/65 152/299/65 150/300/65
f 151/301/66 153/302/66 154/303/66 152/304/66
f 153/305/67 145/306/62 148/307/62 154/308/67
f 155/309/68 156/310/68 157/311/68 158/312/68
f 156/313/69 159/314/69 160/315/69 157/316/69
f 159/317/70 161/318/70 162/319/70 160/320/70
f 161/321/69 163/322/69 164/323/69 162/324/69
f 163/325/71 165/326/71 166/327/71 164/328/71
f 165/329/69 167/330/69 168/331/69 166/332/69
f 167/333/72 169/334/72 170/335/72 168/336/72
f 169/337/73 155/338/73 158/339/73 170/340/73
