# Blender v2.78 (sub 0) OBJ File: ''
# www.blender.org
mtllib CityEngineMaterial_74.mtl
o CityEngineMaterial_74
v 626.791626 58.411709 -50.315392
v 611.621216 58.411709 -46.755291
v 611.621216 60.297508 -46.755287
v 626.791626 60.297508 -50.315388
v 616.526428 58.411705 -25.888790
v 616.526428 60.297504 -25.888790
v 627.841980 58.411705 -28.535591
v 627.841980 60.297504 -28.535591
v -9.198200 11.852031 -186.367004
v -23.935801 11.852030 -183.785904
v -23.935801 13.789430 -183.785904
v -9.198200 13.789431 -186.367004
v -19.860399 11.852026 -160.632996
v -19.860399 13.789426 -160.632996
v -4.369100 11.852027 -163.355103
v -4.369100 13.789427 -163.355103
v -369.529388 3.464544 -270.551605
v -357.060608 3.464545 -274.849487
v -357.060608 5.676545 -274.849487
v -369.529388 5.676544 -270.551605
v -358.153687 3.464545 -278.151001
v -358.153687 5.676545 -278.151001
v -358.320892 3.464545 -278.717102
v -358.320892 5.676545 -278.717102
v -362.411896 3.464547 -288.691803
v -362.411896 5.676547 -288.691803
v -374.381714 3.464546 -284.557007
v -374.381714 5.676546 -284.557007
v -0.500900 39.055256 -964.927917
v -1.390000 39.055256 -970.598572
v -1.390000 41.126255 -970.598572
v -0.500900 41.126255 -964.927917
v -3.253600 39.055256 -970.306702
v -3.253600 41.126255 -970.306702
v -3.089200 39.055256 -969.257812
v -3.089200 41.126255 -969.257812
v -5.887700 39.055256 -968.819580
v -5.887700 41.126255 -968.819580
v -6.052300 39.055256 -969.868408
v -6.052300 41.126255 -969.868408
v -9.768900 39.055256 -969.286377
v -9.768900 41.126255 -969.286377
v -8.879200 39.055256 -963.615906
v -8.879200 41.126255 -963.615906
v 81.545601 6.071073 170.387604
v 82.327499 6.071075 155.908096
v 82.327499 8.073474 155.908096
v 81.545601 8.073472 170.387604
v 81.642799 6.071075 156.076004
v 81.642799 8.073474 156.076004
v 80.218498 6.071071 181.931000
v 80.218498 8.073470 181.931000
v 80.732201 6.071071 181.960205
v 80.732201 8.073470 181.960205
v 81.367302 6.071073 170.431305
v 81.367302 8.073472 170.431305
v -184.011902 1.567678 134.232803
v -184.435303 1.567678 132.657303
v -184.435303 3.598278 132.657303
v -184.011902 3.598278 134.232803
v -180.951294 1.567679 131.721603
v -180.951294 3.598279 131.721603
v -184.531693 1.567681 118.402397
v -184.531693 3.598281 118.402397
v -190.423599 1.567680 119.984802
v -190.423599 3.598280 119.984802
v -186.420700 1.567678 134.879898
v -186.420700 3.598278 134.879898
v -170.276901 8.741451 -317.471985
v -173.081299 8.741452 -321.905914
v -173.081299 10.840153 -321.905914
v -170.276901 10.840152 -317.471985
v -177.168304 8.741452 -319.333191
v -177.168304 10.840153 -319.333191
v -177.592194 8.741452 -320.125885
v -177.592194 10.840153 -320.125885
v -188.594406 8.741451 -313.204712
v -188.594406 10.840152 -313.204712
v -185.688202 8.741450 -307.770905
v -185.688202 10.840151 -307.770905
v 591.531982 21.713905 579.655518
v 590.144714 21.713905 580.137085
v 590.144714 23.701904 580.137085
v 591.531982 23.701904 579.655518
v 589.894409 21.713907 578.942871
v 589.894409 23.701906 578.942871
v 579.718323 21.713905 581.075317
v 579.718323 23.701904 581.075317
v 581.092712 21.713905 587.633423
v 581.092712 23.701904 587.633423
v 592.382874 21.713905 583.713989
v 592.382874 23.701904 583.713989
v 5.389800 34.055706 -1262.248535
v 6.130800 34.055706 -1262.893066
v 6.130800 35.768505 -1262.893066
v 5.389800 35.768505 -1262.248535
v 4.611300 34.055706 -1264.641602
v 4.611300 35.768505 -1264.641602
v -9.567500 34.055702 -1252.310425
v -9.567500 35.768501 -1252.310425
v -3.826900 34.055702 -1245.705933
v -3.826900 35.768501 -1245.705933
v 10.316000 34.055706 -1258.077148
v 10.316000 35.768505 -1258.077148
v 9.053400 34.055706 -1259.530029
v 9.053400 35.768505 -1259.530029
v 8.314500 34.055706 -1258.883667
v 8.314500 35.768505 -1258.883667
v -501.496185 4.683421 483.714294
v -501.728210 4.683418 503.009888
v -501.728210 6.875518 503.009888
v -501.496185 6.875521 483.714294
v -491.066986 4.683418 504.698486
v -491.066986 6.875518 504.698486
v -488.109711 4.683421 485.831299
v -488.109711 6.875521 485.831299
v -667.926514 3.559576 147.597900
v -670.775513 3.559579 131.396500
v -670.775513 5.240879 131.396500
v -667.926514 5.240876 147.597900
v -674.478821 3.559579 132.044205
v -674.478821 5.240879 132.044205
v -673.972778 3.559578 134.921204
v -673.972778 5.240878 134.921204
v -676.408203 3.559578 135.347198
v -676.408203 5.240878 135.347198
v -676.809875 3.559578 132.451996
v -676.809875 5.240879 132.451996
v -680.951782 3.559578 133.176498
v -680.951782 5.240878 133.176498
v -678.689575 3.559576 149.480606
v -678.689575 5.240876 149.480606
v -320.930115 4.401848 -292.121307
v -331.643707 4.401851 -312.109100
v -331.643707 6.264551 -312.109100
v -320.930115 6.264548 -292.121307
v -351.053986 4.401849 -301.731415
v -351.053986 6.264549 -301.731415
v -340.362396 4.401846 -281.732605
v -340.362396 6.264546 -281.732605
v -117.660896 32.192806 -1274.371704
v -132.159195 32.192806 -1276.020142
v -132.159195 33.811707 -1276.020142
v -117.660896 33.811707 -1274.371704
v -131.988495 32.192806 -1275.039429
v -131.988495 33.811707 -1275.039429
v -131.317703 32.192806 -1273.060181
v -131.317703 33.811707 -1273.060181
v -130.505707 32.192806 -1271.770630
v -130.505707 33.811707 -1271.770630
v -129.881195 32.192806 -1269.657104
v -129.881195 33.811707 -1269.657104
v -117.223801 32.192806 -1271.859619
v -117.223801 33.811707 -1271.859619
v -272.789612 7.830060 -366.692810
v -264.907013 7.830057 -351.533691
v -264.907013 10.096257 -351.533691
v -272.789612 10.096260 -366.692810
v -254.810593 7.830058 -356.955200
v -254.810593 10.096258 -356.955200
v -262.873993 7.830060 -371.993805
v -262.873993 10.096261 -371.993805
v 757.851929 92.152138 -240.286087
v 761.858704 92.152138 -248.267883
v 761.858704 93.840439 -248.267883
v 757.851929 93.840439 -240.286087
v 759.711670 92.152138 -249.352982
v 759.711670 93.840439 -249.352982
v 759.229614 92.152138 -248.392685
v 759.229614 93.840439 -248.392685
v 758.150879 92.152138 -248.938583
v 758.150879 93.840439 -248.938583
v 758.632690 92.152138 -249.898392
v 758.632690 93.840439 -249.898392
v 756.031921 92.152138 -251.212891
v 756.031921 93.840439 -251.212891
v 752.026672 92.152138 -243.233688
v 752.026672 93.840439 -243.233688
v 51.240002 27.868158 -360.920685
v 34.760700 27.868158 -358.067413
v 34.760700 29.646158 -358.067413
v 51.240002 29.646158 -360.920685
v 36.222599 27.868156 -349.714111
v 36.222599 29.646156 -349.714111
v 46.175499 27.868156 -351.460785
v 46.175499 29.646156 -351.460785
v 46.006901 27.868156 -352.424011
v 46.006901 29.646156 -352.424011
v 52.289001 27.868156 -353.511688
v 52.289001 29.646156 -353.511688
v 606.759521 64.347923 -141.729385
v 605.159790 64.347923 -141.449478
v 605.159790 66.493423 -141.449478
v 606.759521 66.493423 -141.729385
v 605.906372 64.347923 -136.716278
v 605.906372 66.493423 -136.716278
v 605.460815 64.347923 -136.638489
v 605.460815 66.493423 -136.638489
v 606.310974 64.347923 -131.238190
v 606.310974 66.493423 -131.238190
v 608.358093 64.347923 -131.596085
v 608.358093 66.493423 -131.596085
v -194.796997 8.930154 -327.575409
v -189.238007 8.930152 -317.177094
v -189.238007 11.200252 -317.177094
v -194.796997 11.200253 -327.575409
v -171.123093 8.930154 -326.877808
v -171.123093 11.200253 -326.877808
v -176.693695 8.930156 -337.273010
v -176.693695 11.200255 -337.273010
v 89.308502 38.688179 -498.663605
v 108.482903 38.688179 -501.760712
v 108.482903 40.896679 -501.760712
v 89.308502 40.896679 -498.663605
v 104.816101 38.688183 -524.585388
v 104.816101 40.896683 -524.585388
v 85.717598 38.688183 -521.594604
v 85.717598 40.896683 -521.594604
vt 0.1667 -0.0000
vt 2.3333 0.0000
vt 2.3333 1.0000
vt 0.1667 1.0000
vt 0.5000 -0.0000
vt 3.5000 0.0000
vt 3.5000 1.0000
vt 0.5000 1.0000
vt 0.3333 0.0000
vt 2.0000 -0.0000
vt 2.0000 1.0000
vt 0.3333 1.0000
vt 0.3333 0.0000
vt 3.3333 -0.0000
vt 3.3333 1.0000
vt 0.3333 1.0000
vt 0.3333 0.0000
vt 3.1667 0.0000
vt 3.1667 1.0000
vt 0.3333 1.0000
vt 0.3333 0.0000
vt 4.6667 -0.0000
vt 4.6667 1.0000
vt 0.3333 1.0000
vt 0.6667 -0.0000
vt 3.6667 0.0000
vt 3.6667 1.0000
vt 0.6667 1.0000
vt 0.3333 0.0000
vt 4.6667 -0.0000
vt 4.6667 1.0000
vt 0.3333 1.0000
vt 0.3333 0.0000
vt 2.1667 -0.0000
vt 2.1667 1.0000
vt 0.3333 1.0000
vt 0.3333 0.0000
vt 0.8333 -0.0000
vt 0.8333 1.0000
vt 0.3333 1.0000
vt 0.3333 0.0000
vt 0.5000 -0.0000
vt 0.5000 1.0000
vt 0.3333 1.0000
vt 0.1667 -0.0000
vt 1.6667 0.0000
vt 1.6667 1.0000
vt 0.1667 1.0000
vt 0.6667 -0.0000
vt 2.5000 0.0000
vt 2.5000 1.0000
vt 0.6667 1.0000
vt 0.3333 0.0000
vt 2.5000 0.0000
vt 2.5000 1.0000
vt 0.3333 1.0000
vt 0.8333 -0.0000
vt 1.5000 -0.0000
vt 1.5000 1.0000
vt 0.8333 1.0000
vt 0.6667 -0.0000
vt 0.8333 -0.0000
vt 0.8333 1.0000
vt 0.6667 1.0000
vt 0.6667 -0.0000
vt 0.8333 -0.0000
vt 0.8333 1.0000
vt 0.6667 1.0000
vt 0.6667 -0.0000
vt 1.0000 0.0000
vt 1.0000 1.0000
vt 0.6667 1.0000
vt 0.1667 -0.0000
vt 0.3333 0.0000
vt 0.3333 1.0000
vt 0.1667 1.0000
vt 0.0000 0.0000
vt 0.5000 -0.0000
vt 0.5000 1.0000
vt 0.0000 1.0000
vt 0.1667 -0.0000
vt 0.8333 -0.0000
vt 0.8333 1.0000
vt 0.1667 1.0000
vt 0.1667 -0.0000
vt 1.1667 0.0000
vt 1.1667 1.0000
vt 0.1667 1.0000
vt 0.1667 -0.0000
vt 2.3333 0.0000
vt 2.3333 1.0000
vt 0.1667 1.0000
vt 0.5000 -0.0000
vt 0.6667 -0.0000
vt 0.6667 1.0000
vt 0.5000 1.0000
vt 0.5000 -0.0000
vt 4.5000 0.0000
vt 4.5000 1.0000
vt 0.5000 1.0000
vt 0.3333 0.0000
vt 0.3667 0.0000
vt 0.3667 1.0000
vt 0.3333 1.0000
vt 0.5000 -0.0000
vt 2.3333 0.0000
vt 2.3333 1.0000
vt 0.5000 1.0000
vt 0.3333 0.0000
vt 0.3667 0.0000
vt 0.3667 1.0000
vt 0.3333 1.0000
vt 0.5000 -0.0000
vt 0.6667 -0.0000
vt 0.6667 1.0000
vt 0.5000 1.0000
vt 0.8333 -0.0000
vt 1.3333 0.0000
vt 1.3333 1.0000
vt 0.8333 1.0000
vt 0.1667 -0.0000
vt 1.8333 0.0000
vt 1.8333 1.0000
vt 0.1667 1.0000
vt 0.5000 -0.0000
vt 1.1667 0.0000
vt 1.1667 1.0000
vt 0.5000 1.0000
vt 0.0000 0.0000
vt 1.8333 0.0000
vt 1.8333 1.0000
vt 0.0000 1.0000
vt 0.1667 -0.0000
vt 0.1667 1.0000
vt 0.1667 -0.0000
vt 0.8333 -0.0000
vt 0.8333 1.0000
vt 0.1667 1.0000
vt 0.0000 0.0000
vt 0.6667 -0.0000
vt 0.6667 1.0000
vt 0.0000 1.0000
vt 0.1667 -0.0000
vt 0.3333 0.0000
vt 0.3333 1.0000
vt 0.1667 1.0000
vt 2.1667 -0.0000
vt 2.1667 1.0000
vt 0.5000 -0.0000
vt 1.3333 0.0000
vt 1.3333 1.0000
vt 0.5000 1.0000
vt 0.6667 -0.0000
vt 3.1667 0.0000
vt 3.1667 1.0000
vt 0.6667 1.0000
vt 0.6667 -0.0000
vt 0.8333 -0.0000
vt 0.8333 1.0000
vt 0.6667 1.0000
vt 0.5000 -0.0000
vt 0.6667 -0.0000
vt 0.6667 1.0000
vt 0.5000 1.0000
vt 0.1667 -0.0000
vt 1.3333 0.0000
vt 1.3333 1.0000
vt 0.1667 1.0000
vt 0.8333 -0.0000
vt 1.6667 0.0000
vt 1.6667 1.0000
vt 0.8333 1.0000
vt 0.3333 0.0000
vt 1.6667 0.0000
vt 1.6667 1.0000
vt 0.3333 1.0000
vt 0.5000 -0.0000
vt 1.0000 0.0000
vt 1.0000 1.0000
vt 0.5000 1.0000
vt 0.8333 -0.0000
vt 1.0000 0.0000
vt 1.0000 1.0000
vt 0.8333 1.0000
vt 0.3333 0.0000
vt 0.6667 -0.0000
vt 0.6667 1.0000
vt 0.3333 1.0000
vt 3.0000 0.0000
vt 3.0000 1.0000
vt 0.1667 -0.0000
vt 1.1667 0.0000
vt 1.1667 1.0000
vt 0.1667 1.0000
vt 0.5000 -0.0000
vt 2.8333 0.0000
vt 2.8333 1.0000
vt 0.5000 1.0000
vt 0.1667 -0.0000
vt 0.3333 0.0000
vt 0.3333 1.0000
vt 0.1667 1.0000
vt 0.5000 -0.0000
vt 0.6667 -0.0000
vt 0.6667 1.0000
vt 0.5000 1.0000
vt 0.1667 -0.0000
vt 0.6667 -0.0000
vt 0.6667 1.0000
vt 0.1667 1.0000
vt 0.0000 0.0000
vt 2.1667 -0.0000
vt 2.1667 1.0000
vt 0.0000 1.0000
vt 0.1667 -0.0000
vt 1.3333 0.0000
vt 1.3333 1.0000
vt 0.1667 1.0000
vt 0.1667 -0.0000
vt 2.3333 0.0000
vt 2.3333 1.0000
vt 0.1667 1.0000
vt 0.3333 0.0000
vt 1.8333 0.0000
vt 1.8333 1.0000
vt 0.3333 1.0000
vt 0.6667 -0.0000
vt 2.8333 0.0000
vt 2.8333 1.0000
vt 0.6667 1.0000
vt 0.8333 -0.0000
vt 1.3333 0.0000
vt 1.3333 1.0000
vt 0.8333 1.0000
vt 0.1667 -0.0000
vt 0.5000 -0.0000
vt 0.5000 1.0000
vt 0.1667 1.0000
vt 0.1667 -0.0000
vt 0.5000 -0.0000
vt 0.5000 1.0000
vt 0.1667 1.0000
vt 0.8333 -0.0000
vt 1.1667 0.0000
vt 1.1667 1.0000
vt 0.8333 1.0000
vt 0.3333 0.0000
vt 0.8333 -0.0000
vt 0.8333 1.0000
vt 0.3333 1.0000
vt 0.1667 -0.0000
vt 2.3333 0.0000
vt 2.3333 1.0000
vt 0.1667 1.0000
vt 0.5000 -0.0000
vt 2.0000 -0.0000
vt 2.0000 1.0000
vt 0.5000 1.0000
vt 0.0000 0.0000
vt 3.8333 0.0000
vt 3.8333 1.0000
vt 0.0000 1.0000
vt 0.8333 -0.0000
vt 4.5000 0.0000
vt 4.5000 1.0000
vt 0.8333 1.0000
vt 0.8333 -0.0000
vt 4.6667 -0.0000
vt 4.6667 1.0000
vt 0.8333 1.0000
vt 0.6667 -0.0000
vt 4.3333 0.0000
vt 4.3333 1.0000
vt 0.6667 1.0000
vt 0.6667 -0.0000
vt 2.8333 0.0000
vt 2.8333 1.0000
vt 0.6667 1.0000
vt 0.6667 -0.0000
vt 0.8333 -0.0000
vt 0.8333 1.0000
vt 0.6667 1.0000
vt 0.5000 -0.0000
vt 0.8333 -0.0000
vt 0.8333 1.0000
vt 0.5000 1.0000
vt 0.0000 0.0000
vt 0.1667 -0.0000
vt 0.1667 1.0000
vt 0.0000 1.0000
vt 0.0000 0.0000
vt 0.3333 0.0000
vt 0.3333 1.0000
vt 0.0000 1.0000
vt 0.8333 -0.0000
vt 2.6667 0.0000
vt 2.6667 1.0000
vt 0.8333 1.0000
vt 0.0000 0.0000
vt 0.3333 0.0000
vt 0.3333 1.0000
vt 0.0000 1.0000
vt 0.3333 0.0000
vt 3.5000 0.0000
vt 3.5000 1.0000
vt 0.3333 1.0000
vt 0.8333 -0.0000
vt 3.0000 0.0000
vt 3.0000 1.0000
vt 0.8333 1.0000
vt 0.6667 -0.0000
vt 3.8333 0.0000
vt 3.8333 1.0000
vt 0.6667 1.0000
vt 0.6667 -0.0000
vt 2.8333 0.0000
vt 2.8333 1.0000
vt 0.6667 1.0000
vt 0.0000 0.0000
vt 1.1667 0.0000
vt 1.1667 1.0000
vt 0.0000 1.0000
vt 0.6667 -0.0000
vt 1.0000 0.0000
vt 1.0000 1.0000
vt 0.6667 1.0000
vt 0.5000 -0.0000
vt 0.6667 -0.0000
vt 0.6667 1.0000
vt 0.5000 1.0000
vt 0.5000 -0.0000
vt 0.6667 -0.0000
vt 0.6667 1.0000
vt 0.5000 1.0000
vt 0.3333 0.0000
vt 0.5000 -0.0000
vt 0.5000 1.0000
vt 0.3333 1.0000
vt 0.0000 0.0000
vt 0.3333 0.0000
vt 0.3333 1.0000
vt 0.0000 1.0000
vt 0.8333 -0.0000
vt 2.0000 -0.0000
vt 2.0000 1.0000
vt 0.8333 1.0000
vt 0.3333 0.0000
vt 1.1667 0.0000
vt 1.1667 1.0000
vt 0.3333 1.0000
vt 0.6667 -0.0000
vt 3.6667 0.0000
vt 3.6667 1.0000
vt 0.6667 1.0000
vt 0.8333 -0.0000
vt 2.3333 0.0000
vt 2.3333 1.0000
vt 0.8333 1.0000
vt 0.3333 0.0000
vt 2.1667 -0.0000
vt 2.1667 1.0000
vt 0.3333 1.0000
vt 0.0000 0.0000
vt 0.1667 -0.0000
vt 0.1667 1.0000
vt 0.0000 1.0000
vt 0.0000 0.0000
vt 1.1667 0.0000
vt 1.1667 1.0000
vt 0.0000 1.0000
vt 0.5000 -0.0000
vt 1.8333 0.0000
vt 1.8333 1.0000
vt 0.5000 1.0000
vt 0.0000 0.0000
vt 0.1667 -0.0000
vt 0.1667 1.0000
vt 0.0000 1.0000
vt 0.3333 0.0000
vt 0.8333 -0.0000
vt 0.8333 1.0000
vt 0.3333 1.0000
vt 0.8667 0.0000
vt 0.8667 1.0000
vt 0.3333 0.0000
vt 1.0000 0.0000
vt 1.0000 1.0000
vt 0.3333 1.0000
vt 0.1667 -0.0000
vt 0.3333 0.0000
vt 0.3333 1.0000
vt 0.1667 1.0000
vt 0.8333 -0.0000
vt 2.0000 -0.0000
vt 2.0000 1.0000
vt 0.8333 1.0000
vt 0.1667 -0.0000
vt 1.5000 -0.0000
vt 1.5000 1.0000
vt 0.1667 1.0000
vt 0.6667 -0.0000
vt 3.1667 0.0000
vt 3.1667 1.0000
vt 0.6667 1.0000
vt 0.8333 -0.0000
vt 2.1667 -0.0000
vt 2.1667 1.0000
vt 0.8333 1.0000
vt 0.8333 -0.0000
vt 3.3333 -0.0000
vt 3.3333 1.0000
vt 0.8333 1.0000
vt 0.3333 0.0000
vt 2.8333 0.0000
vt 2.8333 1.0000
vt 0.3333 1.0000
vt 0.5000 -0.0000
vt 3.5000 0.0000
vt 3.5000 1.0000
vt 0.5000 1.0000
vt 0.5000 -0.0000
vt 3.0000 0.0000
vt 3.0000 1.0000
vt 0.5000 1.0000
vt 0.3333 0.0000
vt 3.3333 -0.0000
vt 3.3333 1.0000
vt 0.3333 1.0000
vn -0.2285 0.0000 -0.9736
vn -0.9735 0.0000 0.2288
vn 0.2278 0.0000 0.9737
vn 0.9988 0.0000 -0.0482
vn -0.1725 0.0000 -0.9850
vn -0.9849 0.0000 0.1734
vn 0.1731 0.0000 0.9849
vn 0.9787 0.0000 -0.2054
vn 0.3259 0.0000 0.9454
vn 0.9493 0.0000 -0.3143
vn 0.9590 0.0000 -0.2833
vn 0.9252 0.0000 -0.3795
vn -0.3265 0.0000 -0.9452
vn -0.9449 0.0000 0.3274
vn 0.9879 0.0000 -0.1549
vn -0.1547 0.0000 -0.9880
vn -0.9879 0.0000 0.1548
vn 0.9879 0.0000 -0.1550
vn -0.9879 0.0000 0.1550
vn 0.1547 0.0000 0.9880
vn 0.9985 0.0000 0.0539
vn -0.2382 0.0000 -0.9712
vn -0.9985 0.0000 -0.0550
vn -0.0568 0.0000 0.9984
vn 0.9985 0.0000 0.0550
vn 0.2380 0.0000 0.9713
vn 0.9657 0.0000 -0.2595
vn 0.2594 0.0000 0.9658
vn 0.9657 0.0000 -0.2596
vn -0.2594 0.0000 -0.9658
vn -0.9657 0.0000 0.2595
vn 0.8451 0.0000 -0.5345
vn -0.5327 0.0000 -0.8463
vn 0.8818 0.0000 -0.4716
vn -0.5325 0.0000 -0.8464
vn -0.8818 0.0000 0.4716
vn 0.5327 0.0000 0.8463
vn -0.3279 0.0000 -0.9447
vn 0.9787 0.0000 -0.2051
vn -0.2051 0.0000 -0.9787
vn -0.9787 0.0000 0.2051
vn 0.3280 0.0000 0.9447
vn 0.9787 0.0000 -0.2052
vn 0.6563 0.0000 0.7545
vn 0.7548 0.0000 -0.6559
vn -0.6562 0.0000 -0.7546
vn -0.7547 0.0000 0.6560
vn 0.6584 0.0000 0.7527
vn -0.6584 0.0000 -0.7527
vn 0.7547 0.0000 -0.6560
vn -0.9999 0.0000 -0.0120
vn -0.1564 0.0000 0.9877
vn 0.9879 0.0000 0.1549
vn 0.1562 0.0000 -0.9877
vn 0.9849 0.0000 -0.1732
vn -0.1723 0.0000 -0.9850
vn -0.9849 0.0000 0.1732
vn 0.9905 0.0000 -0.1374
vn -0.9905 0.0000 0.1374
vn 0.1723 0.0000 0.9850
vn 0.8814 0.0000 -0.4724
vn -0.4715 0.0000 -0.8819
vn -0.8819 0.0000 0.4715
vn 0.4715 0.0000 0.8819
vn 0.1130 0.0000 -0.9936
vn -0.9852 0.0000 0.1715
vn -0.9471 0.0000 0.3210
vn -0.8462 0.0000 0.5328
vn -0.9590 0.0000 0.2834
vn 0.1714 0.0000 0.9852
vn 0.9852 0.0000 -0.1714
vn -0.8872 0.0000 0.4613
vn 0.4731 0.0000 0.8810
vn 0.8813 0.0000 -0.4725
vn 0.8937 0.0000 0.4486
vn 0.4511 0.0000 -0.8925
vn -0.8937 0.0000 -0.4486
vn 0.4515 0.0000 -0.8923
vn -0.4515 0.0000 0.8923
vn -0.1706 0.0000 -0.9853
vn -0.9850 0.0000 0.1724
vn 0.1729 0.0000 0.9849
vn 0.9850 0.0000 -0.1724
vn 0.1706 0.0000 0.9853
vn 0.9901 0.0000 -0.1402
vn -0.9878 0.0000 0.1558
vn -0.1720 0.0000 -0.9851
vn -0.9878 0.0000 0.1555
vn 0.1722 0.0000 0.9851
vn 0.9878 0.0000 -0.1558
vn 0.4721 0.0000 0.8816
vn 0.8814 0.0000 -0.4723
vn -0.4722 0.0000 -0.8815
vn 0.1595 0.0000 0.9872
vn 0.9873 0.0000 -0.1586
vn -0.9880 0.0000 0.1547
g CityEngineMaterial_74_CityEngineMaterial_74_CityEngineMaterial_74_mat
usemtl CityEngineMaterial_74_mat
s 1
f 1/1/1 2/2/1 3/3/1 4/4/1
f 2/5/2 5/6/2 6/7/2 3/8/2
f 5/9/3 7/10/3 8/11/3 6/12/3
f 7/13/4 1/14/4 4/15/4 8/16/4
f 9/17/5 10/18/5 11/19/5 12/20/5
f 10/21/6 13/22/6 14/23/6 11/24/6
f 13/25/7 15/26/7 16/27/7 14/28/7
f 15/29/8 9/30/8 12/31/8 16/32/8
f 17/33/9 18/34/9 19/35/9 20/36/9
f 18/37/10 21/38/10 22/39/10 19/40/10
f 21/41/11 23/42/11 24/43/11 22/44/11
f 23/45/12 25/46/12 26/47/12 24/48/12
f 25/49/13 27/50/13 28/51/13 26/52/13
f 27/53/14 17/54/14 20/55/14 28/56/14
f 29/57/15 30/58/15 31/59/15 32/60/15
f 30/61/16 33/62/16 34/63/16 31/64/16
f 33/65/17 35/66/17 36/67/17 34/68/17
f 35/69/16 37/70/16 38/71/16 36/72/16
f 37/73/18 39/74/18 40/75/18 38/76/18
f 39/77/16 41/78/16 42/79/16 40/80/16
f 41/81/19 43/82/19 44/83/19 42/84/19
f 43/85/20 29/86/20 32/87/20 44/88/20
f 45/89/21 46/90/21 47/91/21 48/92/21
f 46/93/22 49/94/22 50/95/22 47/96/22
f 49/97/23 51/98/23 52/99/23 50/100/23
f 51/101/24 53/102/24 54/103/24 52/104/24
f 53/105/25 55/106/25 56/107/25 54/108/25
f 55/109/26 45/110/26 48/111/26 56/112/26
f 57/113/27 58/114/27 59/115/27 60/116/27
f 58/117/28 61/118/28 62/119/28 59/120/28
f 61/121/29 63/122/29 64/123/29 62/124/29
f 63/125/30 65/126/30 66/127/30 64/128/30
f 65/129/31 67/130/31 68/131/31 66/132/31
f 67/133/28 57/113/28 60/116/28 68/134/28
f 69/135/32 70/136/32 71/137/32 72/138/32
f 70/139/33 73/140/33 74/141/33 71/142/33
f 73/143/34 75/144/34 76/145/34 74/146/34
f 75/144/35 77/147/35 78/148/35 76/145/35
f 77/149/36 79/150/36 80/151/36 78/152/36
f 79/153/37 69/154/37 72/155/37 80/156/37
f 81/157/38 82/158/38 83/159/38 84/160/38
f 82/161/39 85/162/39 86/163/39 83/164/39
f 85/165/40 87/166/40 88/167/40 86/168/40
f 87/169/41 89/170/41 90/171/41 88/172/41
f 89/173/42 91/174/42 92/175/42 90/176/42
f 91/177/43 81/178/43 84/179/43 92/180/43
f 93/181/44 94/182/44 95/183/44 96/184/44
f 94/185/45 97/186/45 98/187/45 95/188/45
f 97/186/46 99/189/46 100/190/46 98/187/46
f 99/191/47 101/192/47 102/193/47 100/194/47
f 101/195/48 103/196/48 104/197/48 102/198/48
f 103/199/45 105/200/45 106/201/45 104/202/45
f 105/203/49 107/204/49 108/205/49 106/206/49
f 107/207/50 93/208/50 96/209/50 108/210/50
f 109/211/51 110/212/51 111/213/51 112/214/51
f 110/215/52 113/216/52 114/217/52 111/218/52
f 113/219/53 115/220/53 116/221/53 114/222/53
f 115/223/54 109/224/54 112/225/54 116/226/54
f 117/227/55 118/228/55 119/229/55 120/230/55
f 118/231/56 121/232/56 122/233/56 119/234/56
f 121/235/57 123/236/57 124/237/57 122/238/57
f 123/239/56 125/240/56 126/241/56 124/242/56
f 125/243/58 127/244/58 128/245/58 126/246/58
f 127/247/56 129/248/56 130/249/56 128/250/56
f 129/251/59 131/252/59 132/253/59 130/254/59
f 131/255/60 117/256/60 120/257/60 132/258/60
f 133/259/61 134/260/61 135/261/61 136/262/61
f 134/263/62 137/264/62 138/265/62 135/266/62
f 137/267/63 139/268/63 140/269/63 138/270/63
f 139/271/64 133/272/64 136/273/64 140/274/64
f 141/275/65 142/276/65 143/277/65 144/278/65
f 142/279/66 145/280/66 146/281/66 143/282/66
f 145/283/67 147/284/67 148/285/67 146/286/67
f 147/287/68 149/288/68 150/289/68 148/290/68
f 149/291/69 151/292/69 152/293/69 150/294/69
f 151/295/70 153/296/70 154/297/70 152/298/70
f 153/299/71 141/300/71 144/301/71 154/302/71
f 155/303/72 156/304/72 157/305/72 158/306/72
f 156/307/73 159/308/73 160/309/73 157/310/73
f 159/311/74 161/312/74 162/313/74 160/314/74
f 161/315/62 155/316/62 158/317/62 162/318/62
f 163/319/75 164/320/75 165/321/75 166/322/75
f 164/323/76 167/324/76 168/325/76 165/326/76
f 167/327/77 169/328/77 170/329/77 168/330/77
f 169/331/78 171/332/78 172/333/78 170/334/78
f 171/335/75 173/336/75 174/337/75 172/338/75
f 173/339/76 175/340/76 176/341/76 174/342/76
f 175/343/77 177/344/77 178/345/77 176/346/77
f 177/347/79 163/348/79 166/349/79 178/350/79
f 179/351/80 180/352/80 181/353/80 182/354/80
f 180/355/81 183/356/81 184/357/81 181/358/81
f 183/359/82 185/360/82 186/361/82 184/362/82
f 185/363/83 187/364/83 188/365/83 186/366/83
f 187/367/84 189/368/84 190/369/84 188/370/84
f 189/371/85 179/372/85 182/373/85 190/374/85
f 191/375/56 192/376/56 193/377/56 194/378/56
f 192/379/86 195/380/86 196/381/86 193/382/86
f 195/380/87 197/383/87 198/384/87 196/381/87
f 197/385/88 199/386/88 200/387/88 198/388/88
f 199/389/89 201/390/89 202/391/89 200/392/89
f 201/393/90 191/394/90 194/395/90 202/396/90
f 203/397/63 204/398/63 205/399/63 206/400/63
f 204/401/91 207/402/91 208/403/91 205/404/91
f 207/405/92 209/406/92 210/407/92 208/408/92
f 209/409/93 203/410/93 206/411/93 210/412/93
f 211/413/94 212/414/94 213/415/94 214/416/94
f 212/417/95 215/418/95 216/419/95 213/420/95
f 215/421/16 217/422/16 218/423/16 216/424/16
f 217/425/96 211/426/96 214/427/96 218/428/96
