# Blender v2.78 (sub 0) OBJ File: ''
# www.blender.org
mtllib CityEngineMaterial_398.mtl
o CityEngineMaterial_398
v -684.405212 4.538143 348.080414
v -688.880981 4.538143 347.684204
v -688.880981 6.443843 347.684204
v -684.405212 6.443843 348.080414
v -688.710571 4.538144 345.759613
v -688.710571 6.443844 345.759613
v -691.802429 4.538144 345.485901
v -691.802429 6.443844 345.485901
v -692.607422 4.538142 354.583496
v -692.607422 6.443842 354.583496
v -685.035522 4.538142 355.253693
v -685.035522 6.443842 355.253693
v -386.972198 1.313884 95.114799
v -386.356995 1.313882 112.096001
v -386.356995 3.655982 112.096001
v -386.972198 3.655984 95.114799
v -368.830414 1.313882 111.466797
v -368.830414 3.655982 111.466797
v -369.307709 1.313884 97.221298
v -369.307709 3.655984 97.221298
v -1169.256958 13.041426 456.608795
v -1168.551392 13.041426 456.769012
v -1168.551392 14.948126 456.769012
v -1169.256958 14.948126 456.608795
v -1169.933838 13.041425 462.837097
v -1169.933838 14.948125 462.837097
v -1161.165039 13.041425 464.623413
v -1161.165039 14.948125 464.623413
v -1158.888672 13.041426 454.631897
v -1158.888672 14.948126 454.631897
v -1168.318726 13.041427 452.490387
v -1168.318726 14.948127 452.490387
v 722.601624 31.262529 431.648590
v 726.679321 31.262529 430.692688
v 726.679321 33.066830 430.692688
v 722.601624 33.066830 431.648590
v 725.001526 31.262531 423.578186
v 725.001526 33.066830 423.578186
v 719.195923 31.262531 424.937988
v 719.195923 33.066830 424.937988
v 720.729126 31.262529 431.488312
v 720.729126 33.066830 431.488312
v 722.467773 31.262529 431.081085
v 722.467773 33.066830 431.081085
v 279.656494 21.039268 196.042999
v 280.340698 21.039268 201.573502
v 280.340698 22.800268 201.573502
v 279.656494 22.800268 196.042999
v 279.861511 21.039268 201.596497
v 279.861511 22.800268 201.596497
v 281.734100 21.039265 216.626099
v 281.734100 22.800264 216.626099
v 289.418701 21.039267 216.256897
v 289.418701 22.800266 216.256897
v 286.811707 21.039268 195.184998
v 286.811707 22.800268 195.184998
v 518.880615 20.020306 575.859375
v 510.096100 20.020306 578.259888
v 510.096100 22.054306 578.259888
v 518.880615 22.054306 575.859375
v 511.027893 20.020304 582.703796
v 511.027893 22.054304 582.703796
v 511.691315 20.020304 582.522522
v 511.691315 22.054304 582.522522
v 512.151611 20.020304 584.718628
v 512.151611 22.054304 584.718628
v 511.479797 20.020304 584.859497
v 511.479797 22.054304 584.859497
v 512.344299 20.020304 588.982483
v 512.344299 22.054304 588.982483
v 521.240112 20.020304 587.118286
v 521.240112 22.054304 587.118286
v 120.167999 39.196865 -996.257690
v 121.772003 39.196861 -982.922485
v 121.772003 40.682259 -982.922485
v 120.167999 40.682262 -996.257690
v 129.686295 39.196861 -983.872375
v 129.686295 40.682259 -983.872375
v 129.441803 39.196861 -988.145203
v 129.441803 40.682259 -988.145203
v 126.204597 39.196861 -987.756714
v 126.204597 40.682259 -987.756714
v 125.634003 39.196861 -992.500488
v 125.634003 40.682259 -992.500488
v 129.170303 39.196861 -992.892517
v 129.170303 40.682259 -992.892517
v 128.922302 39.196865 -997.227905
v 128.922302 40.682262 -997.227905
v 610.583618 32.527954 279.447693
v 612.361816 32.527954 287.953705
v 612.361816 34.635456 287.953705
v 610.583618 34.635456 279.447693
v 619.855286 32.527954 286.728607
v 619.855286 34.635456 286.728607
v 620.135315 32.527954 286.333710
v 620.135315 34.635456 286.333710
v 617.880798 32.527954 275.642609
v 617.880798 34.635456 275.642609
v 612.360718 32.527954 276.792999
v 612.360718 34.635456 276.792999
v 612.842712 32.527954 279.078400
v 612.842712 34.635456 279.078400
v 137.845993 6.980762 232.264206
v 113.252502 6.980762 233.689804
v 113.252502 8.918662 233.689804
v 137.845993 8.918662 232.264206
v 114.129997 6.980760 248.979507
v 114.129997 8.918659 248.979507
v 138.715805 6.980760 247.583801
v 138.715805 8.918660 247.583801
v 2.011600 33.524113 -1313.429321
v -3.042800 33.524113 -1318.242920
v -3.042800 35.271114 -1318.242920
v 2.011600 35.271114 -1313.429321
v -12.137500 33.524113 -1308.694214
v -12.137500 35.271114 -1308.694214
v -11.008200 33.524113 -1307.618652
v -11.008200 35.271114 -1307.618652
v -9.491300 33.524113 -1309.211304
v -9.491300 35.271114 -1309.211304
v -8.241000 33.524113 -1308.020508
v -8.241000 35.271114 -1308.020508
v -9.907300 33.524113 -1306.570190
v -9.907300 35.271114 -1306.570190
v -7.979500 33.524113 -1304.734253
v -7.979500 35.271114 -1304.734253
v -123.120697 27.265188 -541.372070
v -103.644096 27.265188 -540.318176
v -103.644096 28.979788 -540.318176
v -123.120697 28.979788 -541.372070
v -103.424500 27.265188 -542.629883
v -103.424500 28.979788 -542.629883
v -105.212502 27.265188 -542.726685
v -105.212502 28.979788 -542.726685
v -104.997597 27.265190 -545.086792
v -104.997597 28.979790 -545.086792
v -103.207901 27.265190 -544.909973
v -103.207901 28.979790 -544.909973
v -102.944099 27.265190 -547.686890
v -102.944099 28.979790 -547.686890
v -122.370903 27.265190 -549.606018
v -122.370903 28.979790 -549.606018
v -802.450623 10.819699 622.835205
v -794.293091 10.819698 625.015381
v -794.293091 12.443498 625.015381
v -802.450623 12.443499 622.835205
v -793.295410 10.819699 621.286377
v -793.295410 12.443499 621.286377
v -795.715515 10.819699 620.639526
v -795.715515 12.443499 620.639526
v -794.779785 10.819700 617.141418
v -794.779785 12.443500 617.141418
v -800.516724 10.819700 615.604980
v -800.516724 12.443500 615.604980
v 27.354401 38.114090 -558.219604
v 29.961100 38.114086 -548.549500
v 29.961100 39.744888 -548.549500
v 27.354401 39.744892 -558.219604
v 34.008598 38.114086 -549.182678
v 34.008598 39.744888 -549.182678
v 33.483299 38.114090 -551.131226
v 33.483299 39.744892 -551.131226
v 35.636902 38.114090 -551.468628
v 35.636902 39.744892 -551.468628
v 34.401699 38.114090 -559.323181
v 34.401699 39.744892 -559.323181
v 741.424011 35.280140 372.214203
v 732.446228 35.280140 381.433197
v 732.446228 37.019939 381.433197
v 741.424011 37.019939 372.214203
v 737.541870 35.280140 386.107208
v 737.541870 37.019939 386.107208
v 745.429199 35.280140 377.508392
v 745.429199 37.019939 377.508392
v 742.228516 35.280140 374.572510
v 742.228516 37.019939 374.572510
v 743.061523 35.280140 373.717102
v 743.061523 37.019939 373.717102
v -117.569801 32.842995 -1188.254028
v -98.163002 32.842995 -1191.293823
v -98.163002 34.082794 -1191.293823
v -117.569801 34.082794 -1188.254028
v -99.401299 32.842995 -1199.167847
v -99.401299 34.082794 -1199.167847
v -103.737396 32.842995 -1198.488892
v -103.737396 34.082794 -1198.488892
v -103.329002 32.842995 -1195.891846
v -103.329002 34.082794 -1195.891846
v -111.235497 32.842995 -1194.653442
v -111.235497 34.082794 -1194.653442
v -111.642303 32.842995 -1197.250854
v -111.642303 34.082794 -1197.250854
v -118.803101 32.842995 -1196.129517
v -118.803101 34.082794 -1196.129517
v -485.691803 5.996394 652.158325
v -478.258911 5.996394 652.679077
v -478.258911 8.003193 652.679077
v -485.691803 8.003194 652.158325
v -478.071411 5.996394 650.044373
v -478.071411 8.003194 650.044373
v -479.890411 5.996394 649.916992
v -479.890411 8.003194 649.916992
v -479.780792 5.996394 648.377502
v -479.780792 8.003194 648.377502
v -485.394104 5.996395 647.977112
v -485.394104 8.003194 647.977112
v -521.856995 5.636702 602.702271
v -506.474304 5.636702 602.884888
v -506.474304 7.869502 602.884888
v -521.856995 7.869502 602.702271
v -506.115295 5.636704 588.898193
v -506.115295 7.869504 588.898193
v -521.695374 5.636704 588.719177
v -521.695374 7.869504 588.719177
v -380.045502 4.430068 814.335022
v -362.411499 4.430067 816.601379
v -362.411499 6.427267 816.601379
v -380.045502 6.427268 814.335022
v -360.924591 4.430069 805.031372
v -360.924591 6.427269 805.031311
v -362.788605 4.430069 804.791687
v -362.788605 6.427269 804.791687
v -375.697998 4.430069 803.905518
v -375.697998 6.427269 803.905518
v -375.942200 4.430069 805.806274
v -375.942200 6.427269 805.806274
v -378.901489 4.430069 805.426025
v -378.901489 6.427269 805.426025
vt 0.4000 0.0000
vt 1.0000 0.0000
vt 1.0000 1.0000
vt 0.4000 1.0000
vt 0.8000 -0.0000
vt 1.0000 0.0000
vt 1.0000 1.0000
vt 0.8000 1.0000
vt 0.4000 0.0000
vt 0.8000 -0.0000
vt 0.8000 1.0000
vt 0.4000 1.0000
vt 0.6000 0.0000
vt 1.8000 -0.0000
vt 1.8000 1.0000
vt 0.6000 1.0000
vt 0.4000 0.0000
vt 1.4000 -0.0000
vt 1.4000 1.0000
vt 0.4000 1.0000
vt 0.2000 0.0000
vt 1.2000 0.0000
vt 1.2000 1.0000
vt 0.2000 1.0000
vt 0.6000 0.0000
vt 2.8000 0.0000
vt 2.8000 1.0000
vt 0.6000 1.0000
vt 0.2000 0.0000
vt 2.6000 0.0000
vt 2.6000 1.0000
vt 0.2000 1.0000
vt 0.2000 0.0000
vt 2.2000 0.0000
vt 2.2000 1.0000
vt 0.2000 1.0000
vt 0.2000 0.0000
vt 2.6000 0.0000
vt 2.6000 1.0000
vt 0.2000 1.0000
vt 0.4000 0.0000
vt 0.6000 0.0000
vt 0.6000 1.0000
vt 0.4000 1.0000
vt 0.0000 0.0000
vt 1.0000 0.0000
vt 1.0000 1.0000
vt 0.0000 1.0000
vt 0.6000 0.0000
vt 2.0000 0.0000
vt 2.0000 1.0000
vt 0.6000 1.0000
vt 0.0000 0.0000
vt 1.6000 -0.0000
vt 1.6000 1.0000
vt 0.0000 1.0000
vt 0.0000 0.0000
vt 1.6000 -0.0000
vt 1.6000 1.0000
vt 0.0000 1.0000
vt 0.4000 0.0000
vt 1.0000 0.0000
vt 1.0000 1.0000
vt 0.4000 1.0000
vt 0.0000 0.0000
vt 0.6000 0.0000
vt 0.6000 1.0000
vt 0.0000 1.0000
vt 0.4000 0.0000
vt 1.4000 -0.0000
vt 1.4000 1.0000
vt 0.4000 1.0000
vt 0.2000 0.0000
vt 1.0000 0.0000
vt 1.0000 1.0000
vt 0.2000 1.0000
vt 0.6000 0.0000
vt 1.6000 -0.0000
vt 1.6000 1.0000
vt 0.6000 1.0000
vt 0.4000 0.0000
vt 0.6000 0.0000
vt 0.6000 1.0000
vt 0.4000 1.0000
vt 0.2000 0.0000
vt 0.2400 -0.0000
vt 0.2400 1.0000
vt 0.2000 1.0000
vt 0.0000 0.0000
vt 1.2000 0.0000
vt 1.2000 1.0000
vt 0.0000 1.0000
vt 0.6000 0.0000
vt 0.8000 -0.0000
vt 0.8000 1.0000
vt 0.6000 1.0000
vt 0.6000 0.0000
vt 4.0000 0.0000
vt 4.0000 1.0000
vt 0.6000 1.0000
vt 0.6000 0.0000
vt 2.4000 -0.0000
vt 2.4000 1.0000
vt 0.6000 1.0000
vt 0.4000 0.0000
vt 5.2000 0.0000
vt 5.2000 1.0000
vt 0.4000 1.0000
vt 0.0000 0.0000
vt 1.6000 -0.0000
vt 1.6000 1.0000
vt 0.0000 1.0000
vt 0.6000 0.0000
vt 2.6000 0.0000
vt 2.6000 1.0000
vt 0.6000 1.0000
vt 0.4000 0.0000
vt 1.4000 -0.0000
vt 1.4000 1.0000
vt 0.4000 1.0000
vt 0.6000 0.0000
vt 0.8000 -0.0000
vt 0.8000 1.0000
vt 0.6000 1.0000
vt 0.2000 0.0000
vt 0.8000 -0.0000
vt 0.8000 1.0000
vt 0.2000 1.0000
vt 0.2000 0.0000
vt 0.4000 0.0000
vt 0.4000 1.0000
vt 0.2000 1.0000
vt 0.6000 0.0000
vt 1.6000 -0.0000
vt 1.6000 1.0000
vt 0.6000 1.0000
vt 0.4000 0.0000
vt 2.4000 -0.0000
vt 2.4000 1.0000
vt 0.4000 1.0000
vt 0.4000 0.0000
vt 3.0000 0.0000
vt 3.0000 1.0000
vt 0.4000 1.0000
vt 0.4000 0.0000
vt 2.6000 0.0000
vt 2.6000 1.0000
vt 0.4000 1.0000
vt 0.6000 0.0000
vt 2.0000 0.0000
vt 2.0000 1.0000
vt 0.6000 1.0000
vt 0.2000 0.0000
vt 1.0000 0.0000
vt 1.0000 1.0000
vt 0.2000 1.0000
vt 0.6000 0.0000
vt 1.2000 0.0000
vt 1.2000 1.0000
vt 0.6000 1.0000
vt 0.4000 0.0000
vt 1.2000 0.0000
vt 1.2000 1.0000
vt 0.4000 1.0000
vt 0.0000 0.0000
vt 0.6000 0.0000
vt 0.6000 1.0000
vt 0.0000 1.0000
vt 0.0000 0.0000
vt 0.8000 -0.0000
vt 0.8000 1.0000
vt 0.0000 1.0000
vt 0.0000 0.0000
vt 1.4000 -0.0000
vt 1.4000 1.0000
vt 0.0000 1.0000
vt 0.4000 0.0000
vt 1.8000 -0.0000
vt 1.8000 1.0000
vt 0.4000 1.0000
vt 0.2000 0.0000
vt 1.4000 -0.0000
vt 1.4000 1.0000
vt 0.2000 1.0000
vt 0.2000 0.0000
vt 0.2400 -0.0000
vt 0.2400 1.0000
vt 0.2000 1.0000
vt 0.2000 0.0000
vt 2.0000 0.0000
vt 2.0000 1.0000
vt 0.2000 1.0000
vt 0.6000 0.0000
vt 1.6000 -0.0000
vt 1.6000 1.0000
vt 0.6000 1.0000
vt 0.2000 0.0000
vt 0.6000 0.0000
vt 0.6000 1.0000
vt 0.2000 1.0000
vt 0.4000 0.0000
vt 0.8000 -0.0000
vt 0.8000 1.0000
vt 0.4000 1.0000
vt 0.0000 0.0000
vt 4.2000 -0.0000
vt 4.2000 1.0000
vt 0.0000 1.0000
vt 0.8000 -0.0000
vt 3.4000 0.0000
vt 3.4000 1.0000
vt 0.8000 1.0000
vt 0.0000 0.0000
vt 4.2000 -0.0000
vt 4.2000 1.0000
vt 0.0000 1.0000
vt 0.6000 0.0000
vt 3.2000 -0.0000
vt 3.2000 1.0000
vt 0.6000 1.0000
vt 0.4000 0.0000
vt 1.4000 -0.0000
vt 1.4000 1.0000
vt 0.4000 1.0000
vt 0.6000 0.0000
vt 2.4000 -0.0000
vt 2.4000 1.0000
vt 0.6000 1.0000
vt 0.6000 0.0000
vt 0.8000 -0.0000
vt 0.8000 1.0000
vt 0.6000 1.0000
vt 0.6000 0.0000
vt 1.0000 0.0000
vt 1.0000 1.0000
vt 0.6000 1.0000
vt 0.6000 0.0000
vt 0.8000 -0.0000
vt 0.8000 1.0000
vt 0.6000 1.0000
vt 0.4000 0.0000
vt 0.8000 -0.0000
vt 0.8000 1.0000
vt 0.4000 1.0000
vt 0.2000 0.0000
vt 0.6000 0.0000
vt 0.6000 1.0000
vt 0.2000 1.0000
vt 0.4000 0.0000
vt 2.2000 0.0000
vt 2.2000 1.0000
vt 0.4000 1.0000
vt 0.6000 0.0000
vt 3.8000 -0.0000
vt 3.8000 1.0000
vt 0.6000 1.0000
vt 0.2000 0.0000
vt 0.6000 0.0000
vt 0.6000 1.0000
vt 0.2000 1.0000
vt 0.8000 -0.0000
vt 0.8000 1.0000
vt 0.2000 0.0000
vt 0.6000 0.0000
vt 0.6000 1.0000
vt 0.2000 1.0000
vt 0.8000 -0.0000
vt 1.0000 0.0000
vt 1.0000 1.0000
vt 0.8000 1.0000
vt 0.6000 0.0000
vt 1.0000 0.0000
vt 1.0000 1.0000
vt 0.6000 1.0000
vt 0.2000 0.0000
vt 3.4000 0.0000
vt 3.4000 1.0000
vt 0.2000 1.0000
vt 0.0000 0.0000
vt 1.4000 -0.0000
vt 1.4000 1.0000
vt 0.0000 1.0000
vt 0.8000 -0.0000
vt 2.2000 0.0000
vt 2.2000 1.0000
vt 0.8000 1.0000
vt 0.6000 0.0000
vt 1.2000 0.0000
vt 1.2000 1.0000
vt 0.6000 1.0000
vt 0.6000 0.0000
vt 1.0000 0.0000
vt 1.0000 1.0000
vt 0.6000 1.0000
vt 0.2000 0.0000
vt 0.8000 -0.0000
vt 0.8000 1.0000
vt 0.2000 1.0000
vt 0.6000 0.0000
vt 1.6000 -0.0000
vt 1.6000 1.0000
vt 0.6000 1.0000
vt 0.4000 0.0000
vt 1.6000 -0.0000
vt 1.6000 1.0000
vt 0.4000 1.0000
vt 0.2000 0.0000
vt 1.6000 -0.0000
vt 1.6000 1.0000
vt 0.2000 1.0000
vt 0.8000 -0.0000
vt 1.4000 -0.0000
vt 1.4000 1.0000
vt 0.8000 1.0000
vt 0.6000 0.0000
vt 0.8000 -0.0000
vt 0.8000 1.0000
vt 0.6000 1.0000
vt 0.4000 0.0000
vt 0.8000 -0.0000
vt 0.8000 1.0000
vt 0.4000 1.0000
vt 0.2000 0.0000
vt 1.4000 -0.0000
vt 1.4000 1.0000
vt 0.2000 1.0000
vt 0.0000 0.0000
vt 1.0000 0.0000
vt 1.0000 1.0000
vt 0.0000 1.0000
vt 0.6000 0.0000
vt 3.4000 0.0000
vt 3.4000 1.0000
vt 0.6000 1.0000
vt 0.2000 0.0000
vt 1.8000 -0.0000
vt 1.8000 1.0000
vt 0.2000 1.0000
vt 0.2000 0.0000
vt 2.8000 0.0000
vt 2.8000 1.0000
vt 0.2000 1.0000
vt 0.2000 0.0000
vt 1.2000 0.0000
vt 1.2000 1.0000
vt 0.2000 1.0000
vt 0.4000 0.0000
vt 0.6000 0.0000
vt 0.6000 1.0000
vt 0.4000 1.0000
vt 0.2000 0.0000
vt 0.2000 1.0000
vt 0.6000 0.0000
vt 4.2000 -0.0000
vt 4.2000 1.0000
vt 0.6000 1.0000
vt 0.8000 -0.0000
vt 2.2000 0.0000
vt 2.2000 1.0000
vt 0.8000 1.0000
vt 0.4000 0.0000
vt 1.2000 0.0000
vt 1.2000 1.0000
vt 0.4000 1.0000
vt 0.8000 -0.0000
vt 1.2000 0.0000
vt 1.2000 1.0000
vt 0.8000 1.0000
vt 0.2000 0.0000
vt 1.6000 -0.0000
vt 1.6000 1.0000
vt 0.2000 1.0000
vt 0.0000 0.0000
vt 0.4000 0.0000
vt 0.4000 1.0000
vt 0.0000 1.0000
vt 0.6000 0.0000
vt 1.8000 -0.0000
vt 1.8000 1.0000
vt 0.6000 1.0000
vt 0.2000 0.0000
vt 1.6000 -0.0000
vt 1.6000 1.0000
vt 0.2000 1.0000
vt 0.4000 0.0000
vt 2.0000 0.0000
vt 2.0000 1.0000
vt 0.4000 1.0000
vt 0.8000 -0.0000
vt 1.4000 -0.0000
vt 1.4000 1.0000
vt 0.8000 1.0000
vt 0.0000 0.0000
vt 0.4000 0.0000
vt 0.4000 1.0000
vt 0.0000 1.0000
vt 0.2000 0.0000
vt 0.6000 0.0000
vt 0.6000 1.0000
vt 0.2000 1.0000
vt 0.2000 0.0000
vt 1.4000 -0.0000
vt 1.4000 1.0000
vt 0.2000 1.0000
vt 0.2000 0.0000
vt 1.0000 0.0000
vt 1.0000 1.0000
vt 0.2000 1.0000
vt 0.6000 0.0000
vt 3.2000 -0.0000
vt 3.2000 1.0000
vt 0.6000 1.0000
vt 0.4000 0.0000
vt 2.8000 0.0000
vt 2.8000 1.0000
vt 0.4000 1.0000
vt 0.2000 0.0000
vt 3.0000 0.0000
vt 3.0000 1.0000
vt 0.2000 1.0000
vt 0.2000 0.0000
vt 2.6000 0.0000
vt 2.6000 1.0000
vt 0.2000 1.0000
vt 0.6000 0.0000
vt 3.2000 -0.0000
vt 3.2000 1.0000
vt 0.6000 1.0000
vt 0.2000 0.0000
vt 1.8000 -0.0000
vt 1.8000 1.0000
vt 0.2000 1.0000
vt 0.8000 -0.0000
vt 1.0000 0.0000
vt 1.0000 1.0000
vt 0.8000 1.0000
vt 0.4000 0.0000
vt 2.2000 0.0000
vt 2.2000 1.0000
vt 0.4000 1.0000
vt 0.4000 0.0000
vt 0.6000 0.0000
vt 0.6000 1.0000
vt 0.4000 1.0000
vt 0.4000 0.0000
vt 0.8000 -0.0000
vt 0.8000 1.0000
vt 0.4000 1.0000
vt 2.0000 0.0000
vt 2.0000 1.0000
vn 0.0882 0.0000 -0.9961
vn 0.9961 0.0000 0.0882
vn -0.9961 0.0000 -0.0881
vn -0.0882 0.0000 0.9961
vn 0.9962 0.0000 0.0875
vn -0.9993 0.0000 0.0362
vn 0.0359 0.0000 0.9994
vn 0.9994 0.0000 -0.0335
vn 0.1184 0.0000 -0.9930
vn -0.2214 0.0000 0.9752
vn -0.9750 0.0000 -0.2221
vn -0.1996 0.0000 0.9799
vn 0.9750 0.0000 0.2221
vn 0.2215 0.0000 -0.9752
vn 0.2282 0.0000 0.9736
vn 0.9733 0.0000 -0.2295
vn -0.2281 0.0000 -0.9736
vn -0.9737 0.0000 0.2279
vn 0.2280 0.0000 0.9737
vn -0.9733 0.0000 0.2296
vn -0.9924 0.0000 0.1228
vn -0.0479 0.0000 -0.9989
vn -0.9923 0.0000 0.1236
vn 0.0480 0.0000 0.9988
vn 0.9924 0.0000 -0.1228
vn -0.1191 0.0000 -0.9929
vn -0.2636 0.0000 -0.9646
vn -0.9787 0.0000 0.2052
vn 0.2635 0.0000 0.9646
vn -0.9787 0.0000 0.2051
vn -0.2053 0.0000 -0.9787
vn 0.2051 0.0000 0.9787
vn 0.9787 0.0000 -0.2051
vn -0.9928 0.0000 0.1194
vn 0.1192 0.0000 0.9929
vn 0.9984 0.0000 -0.0571
vn 0.9928 0.0000 -0.1194
vn 0.1102 0.0000 0.9939
vn -0.1102 0.0000 -0.9939
vn -0.9788 0.0000 0.2046
vn 0.1613 0.0000 0.9869
vn 0.8157 0.0000 0.5784
vn 0.9785 0.0000 -0.2063
vn -0.2040 0.0000 -0.9790
vn -0.9785 0.0000 0.2064
vn -0.1613 0.0000 -0.9869
vn -0.0579 0.0000 -0.9983
vn -0.9984 0.0000 0.0573
vn 0.0567 0.0000 0.9984
vn 0.9984 0.0000 -0.0567
vn 0.6896 0.0000 -0.7241
vn -0.7241 0.0000 -0.6897
vn -0.6893 0.0000 0.7244
vn 0.7241 0.0000 0.6897
vn -0.6897 0.0000 0.7241
vn -0.6565 0.0000 -0.7543
vn 0.6565 0.0000 0.7543
vn -0.0540 0.0000 0.9985
vn 0.9955 0.0000 0.0946
vn 0.0541 0.0000 -0.9985
vn 0.9959 0.0000 0.0907
vn -0.0983 0.0000 0.9952
vn 0.0983 0.0000 -0.9952
vn -0.9959 0.0000 -0.0907
vn -0.2582 0.0000 0.9661
vn 0.9660 0.0000 0.2585
vn 0.2582 0.0000 -0.9661
vn 0.9660 0.0000 0.2584
vn 0.2587 0.0000 -0.9660
vn -0.9660 0.0000 -0.2584
vn -0.9655 0.0000 0.2603
vn 0.1546 0.0000 0.9880
vn 0.9655 0.0000 -0.2603
vn 0.1548 0.0000 0.9879
vn 0.9879 0.0000 -0.1554
vn -0.1547 0.0000 -0.9880
vn -0.7164 0.0000 -0.6977
vn -0.6760 0.0000 0.7369
vn 0.7369 0.0000 0.6760
vn 0.6760 0.0000 -0.7369
vn 0.7164 0.0000 0.6977
vn 0.6762 0.0000 -0.7367
vn 0.1547 0.0000 0.9880
vn -0.9879 0.0000 0.1553
vn 0.9880 0.0000 -0.1547
vn -0.9880 0.0000 0.1547
vn -0.0699 0.0000 0.9976
vn 0.9975 0.0000 0.0710
vn 0.0699 0.0000 -0.9976
vn 0.0711 0.0000 -0.9975
vn -0.9975 0.0000 -0.0710
vn -0.0119 0.0000 0.9999
vn 0.9997 0.0000 0.0257
vn 0.0115 0.0000 -0.9999
vn -0.9999 0.0000 -0.0116
vn -0.1275 0.0000 0.9918
vn 0.9918 0.0000 0.1275
vn 0.1276 -0.0000 -0.9918
vn 0.0685 0.0000 -0.9977
vn -0.9918 0.0000 -0.1274
vn 0.1274 0.0000 -0.9918
vn -0.9919 0.0000 -0.1274
g CityEngineMaterial_398_CityEngineMaterial_398_CityEngineMaterial_398_mat
usemtl CityEngineMaterial_398_mat
s 1
f 1/1/1 2/2/1 3/3/1 4/4/1
f 2/5/2 5/6/2 6/7/2 3/8/2
f 5/9/1 7/10/1 8/11/1 6/12/1
f 7/13/3 9/14/3 10/15/3 8/16/3
f 9/17/4 11/18/4 12/19/4 10/20/4
f 11/21/5 1/22/5 4/23/5 12/24/5
f 13/25/6 14/26/6 15/27/6 16/28/6
f 14/29/7 17/30/7 18/31/7 15/32/7
f 17/33/8 19/34/8 20/35/8 18/36/8
f 19/37/9 13/38/9 16/39/9 20/40/9
f 21/41/10 22/42/10 23/43/10 24/44/10
f 22/45/11 25/46/11 26/47/11 23/48/11
f 25/49/12 27/50/12 28/51/12 26/52/12
f 27/53/13 29/54/13 30/55/13 28/56/13
f 29/57/14 31/58/14 32/59/14 30/60/14
f 31/61/11 21/62/11 24/63/11 32/64/11
f 33/65/15 34/66/15 35/67/15 36/68/15
f 34/69/16 37/70/16 38/71/16 35/72/16
f 37/73/17 39/74/17 40/75/17 38/76/17
f 39/77/18 41/78/18 42/79/18 40/80/18
f 41/81/19 43/82/19 44/83/19 42/84/19
f 43/85/20 33/86/20 36/87/20 44/88/20
f 45/89/21 46/90/21 47/91/21 48/92/21
f 46/93/22 49/94/22 50/95/22 47/96/22
f 49/97/23 51/98/23 52/99/23 50/100/23
f 51/101/24 53/102/24 54/103/24 52/104/24
f 53/105/25 55/106/25 56/107/25 54/108/25
f 55/109/26 45/110/26 48/111/26 56/112/26
f 57/113/27 58/114/27 59/115/27 60/116/27
f 58/117/28 61/118/28 62/119/28 59/120/28
f 61/121/29 63/122/29 64/123/29 62/124/29
f 63/125/30 65/126/30 66/127/30 64/128/30
f 65/129/31 67/130/31 68/131/31 66/132/31
f 67/133/28 69/134/28 70/135/28 68/136/28
f 69/137/32 71/138/32 72/139/32 70/140/32
f 71/141/33 57/142/33 60/143/33 72/144/33
f 73/145/34 74/146/34 75/147/34 76/148/34
f 74/149/35 77/150/35 78/151/35 75/152/35
f 77/153/36 79/154/36 80/155/36 78/156/36
f 79/157/26 81/158/26 82/159/26 80/160/26
f 81/161/37 83/162/37 84/163/37 82/164/37
f 83/165/38 85/166/38 86/167/38 84/168/38
f 85/169/36 87/170/36 88/171/36 86/172/36
f 87/173/39 73/174/39 76/175/39 88/176/39
f 89/177/40 90/178/40 91/179/40 92/180/40
f 90/181/41 93/182/41 94/183/41 91/184/41
f 93/185/42 95/186/42 96/187/42 94/188/42
f 95/189/43 97/190/43 98/191/43 96/192/43
f 97/193/44 99/194/44 100/195/44 98/196/44
f 99/197/45 101/198/45 102/199/45 100/200/45
f 101/201/46 89/202/46 92/203/46 102/204/46
f 103/205/47 104/206/47 105/207/47 106/208/47
f 104/209/48 107/210/48 108/211/48 105/212/48
f 107/213/49 109/214/49 110/215/49 108/216/49
f 109/217/50 103/218/50 106/219/50 110/220/50
f 111/221/51 112/222/51 113/223/51 114/224/51
f 112/225/52 115/226/52 116/227/52 113/228/52
f 115/229/53 117/230/53 118/231/53 116/232/53
f 117/233/54 119/234/54 120/235/54 118/236/54
f 119/237/55 121/238/55 122/239/55 120/240/55
f 121/241/56 123/242/56 124/243/56 122/244/56
f 123/245/55 125/246/55 126/247/55 124/248/55
f 125/249/57 111/250/57 114/251/57 126/252/57
f 127/253/58 128/254/58 129/255/58 130/256/58
f 128/257/59 131/258/59 132/259/59 129/260/59
f 131/258/60 133/261/60 134/262/60 132/259/60
f 133/263/61 135/264/61 136/265/61 134/266/61
f 135/267/62 137/268/62 138/269/62 136/270/62
f 137/271/59 139/272/59 140/273/59 138/274/59
f 139/275/63 141/276/63 142/277/63 140/278/63
f 141/279/64 127/280/64 130/281/64 142/282/64
f 143/283/65 144/284/65 145/285/65 146/286/65
f 144/287/66 147/288/66 148/289/66 145/290/66
f 147/291/67 149/292/67 150/293/67 148/294/67
f 149/295/68 151/296/68 152/297/68 150/298/68
f 151/299/69 153/300/69 154/301/69 152/302/69
f 153/303/70 143/304/70 146/305/70 154/306/70
f 155/307/71 156/308/71 157/309/71 158/310/71
f 156/311/72 159/312/72 160/313/72 157/314/72
f 159/315/73 161/316/73 162/317/73 160/318/73
f 161/319/74 163/320/74 164/321/74 162/322/74
f 163/323/75 165/324/75 166/325/75 164/326/75
f 165/327/76 155/328/76 158/329/76 166/330/76
f 167/331/77 168/332/77 169/333/77 170/334/77
f 168/335/78 171/336/78 172/337/78 169/338/78
f 171/339/79 173/340/79 174/341/79 172/342/79
f 173/343/80 175/344/80 176/345/80 174/346/80
f 175/347/81 177/348/81 178/349/81 176/350/81
f 177/351/82 167/331/82 170/334/82 178/352/82
f 179/353/83 180/354/83 181/355/83 182/356/83
f 180/357/75 183/358/75 184/359/75 181/360/75
f 183/361/76 185/362/76 186/363/76 184/364/76
f 185/365/84 187/366/84 188/367/84 186/368/84
f 187/369/76 189/370/76 190/371/76 188/372/76
f 189/373/85 191/374/85 192/375/85 190/376/85
f 191/377/76 193/378/76 194/379/76 192/380/76
f 193/381/86 179/382/86 182/383/86 194/384/86
f 195/385/87 196/386/87 197/387/87 198/388/87
f 196/389/88 199/390/88 200/391/88 197/392/88
f 199/393/89 201/394/89 202/395/89 200/396/89
f 201/397/88 203/398/88 204/399/88 202/400/88
f 203/401/90 205/402/90 206/403/90 204/404/90
f 205/405/91 195/406/91 198/407/91 206/408/91
f 207/409/92 208/410/92 209/411/92 210/412/92
f 208/413/93 211/414/93 212/415/93 209/416/93
f 211/417/94 213/418/94 214/419/94 212/420/94
f 213/421/95 207/422/95 210/423/95 214/424/95
f 215/425/96 216/426/96 217/427/96 218/428/96
f 216/429/97 219/430/97 220/431/97 217/432/97
f 219/433/98 221/434/98 222/435/98 220/436/98
f 221/437/99 223/438/99 224/439/99 222/440/99
f 223/441/100 225/442/100 226/443/100 224/444/100
f 225/445/101 227/446/101 228/447/101 226/448/101
f 227/446/102 215/449/102 218/450/102 228/447/102
