# Blender v2.78 (sub 0) OBJ File: ''
# www.blender.org
mtllib CityEngineMaterial_719.mtl
o CityEngineMaterial_719
v -953.340820 12.881636 394.395813
v -948.349670 12.881636 394.788605
v -948.349670 19.002035 394.788605
v -953.340820 19.002035 394.395813
v -948.422180 12.881635 395.725891
v -948.422180 19.002035 395.725891
v -935.836914 12.881635 396.716400
v -935.836914 19.002035 396.716400
v -935.532227 12.881636 392.773590
v -935.532227 19.002035 392.773590
v -953.107117 12.881636 391.390289
v -953.107117 19.002037 391.390289
v -945.806274 19.002035 394.470703
v -938.228821 19.002035 395.067108
v -938.228821 20.446335 395.067108
v -945.806274 20.446335 394.470703
v -938.034912 19.002035 392.576599
v -938.034912 20.446335 392.576599
v -945.612488 19.002037 391.980194
v -945.612488 20.446337 391.980194
v -941.469482 19.002035 396.273102
v -938.341797 19.002035 396.519287
v -938.341797 20.446335 396.519287
v -941.469482 20.446335 396.273102
v -941.355286 19.002035 394.821014
v -941.355286 20.446335 394.821014
v -945.919495 19.002035 395.922913
v -942.663574 19.002035 396.179108
v -942.663574 20.446335 396.179108
v -945.919495 20.446335 395.922913
v -942.549316 19.002035 394.726990
v -942.549316 20.446335 394.726990
v 558.823975 53.886295 27.866610
v 548.827026 53.886295 28.479710
v 548.827026 60.568398 28.479710
v 558.823975 60.568398 27.866610
v 549.590210 53.886292 40.778606
v 549.590210 60.568291 40.778610
v 561.715027 53.886292 40.032509
v 561.715027 60.568291 40.032513
v 550.499084 60.568291 35.786713
v 550.728882 60.568291 39.489910
v 550.728882 61.605793 39.489910
v 550.499084 61.605793 35.786713
v 560.197388 60.568291 38.907310
v 560.197388 61.605793 38.907310
v 557.877197 60.568295 29.143209
v 557.877197 61.605797 29.143209
v 553.610413 60.568398 29.404909
v 553.610413 61.605797 29.404909
v 555.060181 60.568291 35.506012
v 555.060181 61.605793 35.506012
v -574.379395 5.130574 157.378601
v -573.844116 5.130572 172.427200
v -573.844116 13.888272 172.427200
v -574.379395 13.888274 157.378601
v -565.622070 5.130572 172.157303
v -565.622070 13.888272 172.157303
v -565.970825 5.130574 162.355896
v -565.970825 13.888273 162.355896
v -567.509705 5.130574 162.406403
v -567.509705 13.888273 162.406403
v -567.696411 5.130574 157.157806
v -567.696411 13.888274 157.157806
v -574.158630 13.888273 163.587204
v -573.877502 13.888272 171.488297
v -573.877502 14.352472 171.488297
v -574.158630 14.352473 163.587204
v -568.873474 13.888272 171.310303
v -568.873474 14.352472 171.310303
v -569.154480 13.888273 163.409195
v -569.154480 14.352473 163.409195
v -568.968384 13.888272 168.638397
v -568.968384 14.352472 168.638397
v -565.656311 13.888272 171.195908
v -565.656311 14.352472 171.195908
v -565.751404 13.888272 168.524002
v -565.751404 14.352472 168.524002
v -321.223999 4.493932 -198.392395
v -316.292511 4.493930 -186.298996
v -316.292511 6.571031 -186.298996
v -321.223999 6.571033 -198.392395
v -301.064514 4.493931 -191.300400
v -301.064514 6.571031 -191.300400
v -305.206085 4.493933 -203.715393
v -305.206085 6.571033 -203.715393
v -310.782501 6.571033 -201.862198
v -305.835205 6.571031 -189.733597
v -305.835205 16.537231 -189.733597
v -310.782501 16.537233 -201.862198
v -301.064514 16.537231 -191.300400
v -305.206085 16.537233 -203.715393
v -303.433685 16.537231 -192.488693
v -304.323792 16.537233 -194.670700
v -304.323792 17.186132 -194.670700
v -303.433685 17.186131 -192.488693
v -304.174713 16.537233 -194.720200
v -304.174713 17.186132 -194.720200
v -306.387787 16.537233 -201.354004
v -306.387787 17.186132 -201.354004
v -308.298615 16.537233 -200.719101
v -308.298615 17.186132 -200.719101
v -304.763306 16.537231 -192.052002
v -304.763306 17.186131 -192.052002
v -51.003399 39.923420 -720.523621
v -62.378101 39.923420 -718.763123
v -62.378101 41.954418 -718.763123
v -51.003399 41.954418 -720.523621
v -63.746899 39.923416 -694.582825
v -63.746899 41.954414 -694.582825
v -46.799702 39.923416 -693.623596
v -46.799702 41.954414 -693.623596
v -58.402000 41.954418 -719.378479
v -58.402000 52.017220 -719.378479
v -51.003399 52.017220 -720.523621
v -54.436501 41.954414 -694.055908
v -54.436501 52.017216 -694.055908
v -46.799702 52.017216 -693.623596
v -56.800598 41.954414 -709.152283
v -62.976898 41.954414 -708.185120
v -62.976898 52.017216 -708.185120
v -56.800598 52.017216 -709.152283
v -63.746899 52.017216 -694.582825
v -47.558102 52.017216 -698.476196
v -50.493099 52.017220 -717.257874
v -50.493099 53.583019 -717.257874
v -47.558102 53.583015 -698.476196
v -55.488300 52.017220 -716.477295
v -55.488300 53.583019 -716.477295
v -52.553299 52.017216 -697.695618
v -52.553299 53.583015 -697.695618
v -54.088200 52.017216 -707.517273
v -54.088200 53.583015 -707.517273
v -57.881901 52.017220 -716.103210
v -57.881901 53.583019 -716.103210
v -56.481701 52.017216 -707.143188
v -56.481701 53.583015 -707.143188
v -54.983002 52.017216 -697.297180
v -56.527000 52.017216 -707.156982
v -56.527000 53.384815 -707.156982
v -54.983002 53.384815 -697.297180
v -60.381500 52.017216 -706.553406
v -60.381500 53.384815 -706.553406
v -58.837399 52.017216 -696.693604
v -58.837399 53.384815 -696.693604
v -59.716000 52.017216 -702.303711
v -59.716000 53.384815 -702.303711
v -61.999901 52.017216 -701.945984
v -61.999901 53.384815 -701.945984
v -61.121300 52.017216 -696.335876
v -61.121300 53.384815 -696.335876
v -544.546997 6.670235 402.146698
v -544.472107 6.670236 395.845001
v -544.472107 15.713235 395.845001
v -544.546997 15.713234 402.146698
v -543.485229 6.670236 395.856689
v -543.485229 15.713235 395.856689
v -543.368286 6.670237 386.013000
v -543.368286 15.713237 386.013000
v -550.658997 6.670237 385.926514
v -550.658997 15.713237 385.926514
v -550.850830 6.670235 402.071808
v -550.850830 15.713234 402.071808
v -546.477417 15.713236 394.234894
v -546.398071 15.713237 387.563293
v -546.398071 16.955837 387.563293
v -546.477417 16.955835 394.234894
v -550.677795 15.713237 387.512512
v -550.677795 16.955837 387.512512
v -550.757080 15.713236 394.183990
v -550.757080 16.955835 394.183990
v -543.446777 15.713236 392.623596
v -543.408386 15.713236 389.388092
v -543.408386 16.955837 389.388092
v -543.446777 16.955835 392.623596
v -546.419373 15.713236 389.352295
v -546.419373 16.955837 389.352295
v -546.457886 15.713236 392.587891
v -546.457886 16.955835 392.587891
v -104.519096 26.792276 -471.958496
v -94.076500 26.792276 -472.570312
v -94.076500 35.604378 -472.570312
v -104.519096 35.604378 -471.958496
v -94.211700 26.792276 -467.949799
v -94.211700 35.604378 -467.949799
v -89.428703 26.792276 -468.240997
v -89.428703 35.604378 -468.240997
v -88.882103 26.792280 -486.932312
v -88.882103 35.604382 -486.932312
v -104.094002 26.792280 -486.041107
v -104.094002 35.604382 -486.041107
v -99.513298 35.604378 -477.108185
v -94.010201 35.604378 -477.430603
v -94.010201 36.136578 -477.430603
v -99.513298 36.136578 -477.108185
v -93.882896 35.604382 -481.782806
v -93.882896 36.136581 -481.782806
v -97.028900 35.604382 -481.598511
v -97.028900 36.136581 -481.598511
v -97.122101 35.604378 -478.414215
v -97.122101 36.136578 -478.414215
v -99.477997 35.604378 -478.276093
v -99.477997 36.136578 -478.276093
v 433.075195 63.438148 -301.687103
v 431.521088 63.438148 -301.501099
v 431.521088 72.656349 -301.501099
v 433.075195 72.656349 -301.687103
v 427.909210 63.438148 -299.643890
v 427.909210 72.656349 -299.643890
v 433.207306 63.438148 -300.334595
v 433.207306 72.656349 -300.334595
vt 0.2727 0.1667
vt 0.7273 0.1667
vt 0.7273 1.0000
vt 0.2727 1.0000
vt 0.8182 0.1667
vt 0.8182 1.0000
vt 0.5455 0.1667
vt 1.6364 0.1667
vt 1.6364 1.0000
vt 0.5455 1.0000
vt 0.9091 0.1667
vt 1.2727 0.1667
vt 1.2727 1.0000
vt 0.9091 1.0000
vt 0.6364 0.1667
vt 2.1818 0.1667
vt 2.1818 1.0000
vt 0.6364 1.0000
vt 0.5455 0.1667
vt 0.8182 0.1667
vt 0.8182 1.0000
vt 0.5455 1.0000
vt 0.8182 0.8333
vt 1.4545 0.8333
vt 1.4545 1.0000
vt 0.8182 1.0000
vt 0.6364 0.8333
vt 0.8182 0.8333
vt 0.8182 1.0000
vt 0.6364 1.0000
vt 0.2727 0.8333
vt 0.9091 0.8333
vt 0.9091 1.0000
vt 0.2727 1.0000
vt 0.5455 0.8333
vt 0.7273 0.8333
vt 0.7273 1.0000
vt 0.5455 1.0000
vt 0.9091 0.8333
vt 1.1818 0.8333
vt 1.1818 1.0000
vt 0.9091 1.0000
vt 0.3636 0.8333
vt 0.4545 0.8333
vt 0.4545 1.0000
vt 0.3636 1.0000
vt 0.2727 0.8333
vt 0.5455 0.8333
vt 0.5455 1.0000
vt 0.2727 1.0000
vt 0.9091 0.8333
vt 1.0000 0.8333
vt 1.0000 1.0000
vt 0.9091 1.0000
vt 0.6364 0.8333
vt 0.9091 0.8333
vt 0.9091 1.0000
vt 0.6364 1.0000
vt 0.0909 0.8333
vt 0.1818 0.8333
vt 0.1818 1.0000
vt 0.0909 1.0000
vt 0.5455 0.8333
vt 0.5455 1.0000
vt 0.1818 0.8333
vt 0.2727 0.8333
vt 0.2727 1.0000
vt 0.1818 1.0000
vt 0.3636 -0.0000
vt 1.3636 -0.0000
vt 1.3636 1.0000
vt 0.3636 1.0000
vt 0.4545 0.0000
vt 1.7273 0.0000
vt 1.7273 1.0000
vt 0.4545 1.0000
vt 0.0909 0.0000
vt 1.2727 0.0000
vt 1.2727 1.0000
vt 0.0909 1.0000
vt 0.4545 0.0000
vt 1.7273 0.0000
vt 1.7273 1.0000
vt 0.4545 1.0000
vt 0.9091 0.8333
vt 1.2727 0.8333
vt 1.2727 1.0000
vt 0.9091 1.0000
vt 0.9091 0.8333
vt 1.9091 0.8333
vt 1.9091 1.0000
vt 0.9091 1.0000
vt 0.9091 0.8333
vt 1.9091 0.8333
vt 1.9091 1.0000
vt 0.9091 1.0000
vt 0.8182 0.8333
vt 1.2727 0.8333
vt 1.2727 1.0000
vt 0.8182 1.0000
vt 0.7273 0.8333
vt 1.3636 0.8333
vt 1.3636 1.0000
vt 0.7273 1.0000
vt 0.0000 0.8333
vt 0.4545 0.8333
vt 0.4545 1.0000
vt 0.0000 1.0000
vt 0.0909 -0.1667
vt 1.0909 -0.1667
vt 1.0909 1.0000
vt 0.0909 1.0000
vt 0.5455 -0.1667
vt 1.0909 -0.1667
vt 1.0909 1.0000
vt 0.5455 1.0000
vt 0.1818 -0.1667
vt 0.8182 -0.1667
vt 0.8182 1.0000
vt 0.1818 1.0000
vt 0.9091 -0.1667
vt 1.0000 -0.1667
vt 1.0000 1.0000
vt 0.9091 1.0000
vt 0.8182 -0.1667
vt 1.1818 -0.1667
vt 1.1818 1.0000
vt 0.8182 1.0000
vt 0.1818 -0.1667
vt 0.6364 -0.1667
vt 0.6364 1.0000
vt 0.1818 1.0000
vt 0.2727 0.9833
vt 0.8182 0.9833
vt 0.8182 1.0000
vt 0.2727 1.0000
vt 0.4545 0.9833
vt 0.8182 0.9833
vt 0.8182 1.0000
vt 0.4545 1.0000
vt 0.6364 0.9833
vt 1.1818 0.9833
vt 1.1818 1.0000
vt 0.6364 1.0000
vt 0.2727 0.9833
vt 0.6364 0.9833
vt 0.6364 1.0000
vt 0.2727 1.0000
vt 0.9091 0.9833
vt 1.0909 0.9833
vt 1.0909 1.0000
vt 0.9091 1.0000
vt 0.8182 0.9833
vt 0.8182 1.0000
vt 0.3636 0.9833
vt 0.5455 0.9833
vt 0.5455 1.0000
vt 0.3636 1.0000
vt 0.8182 0.9833
vt 1.0000 0.9833
vt 1.0000 1.0000
vt 0.8182 1.0000
vt 0.5455 0.6667
vt 1.3636 0.6667
vt 1.3636 1.0000
vt 0.5455 1.0000
vt 0.0909 0.6667
vt 1.0909 0.6667
vt 1.0909 1.0000
vt 0.0909 1.0000
vt 0.7273 0.6667
vt 1.5455 0.6667
vt 1.5455 1.0000
vt 0.7273 1.0000
vt 0.2727 0.6667
vt 1.3636 0.6667
vt 1.3636 1.0000
vt 0.2727 1.0000
vt 0.9091 -0.3333
vt 1.7273 -0.3333
vt 1.7273 1.0000
vt 0.9091 1.0000
vt 0.9091 -0.3333
vt 1.2727 -0.3333
vt 1.2727 1.0000
vt 0.9091 1.0000
vt 0.7273 -0.3333
vt 1.5455 -0.3333
vt 1.5455 1.0000
vt 0.7273 1.0000
vt 0.5455 -0.3333
vt 0.5455 1.0000
vt 0.8182 0.9833
vt 1.0000 0.9833
vt 1.0000 1.0000
vt 0.8182 1.0000
vt 0.3636 0.9833
vt 0.3818 0.9833
vt 0.3818 1.0000
vt 0.3636 1.0000
vt 0.1818 0.9833
vt 0.6364 0.9833
vt 0.6364 1.0000
vt 0.1818 1.0000
vt 0.0000 0.9833
vt 0.0909 0.9833
vt 0.0909 1.0000
vt 0.0000 1.0000
vt 0.9091 0.9833
vt 1.5455 0.9833
vt 1.5455 1.0000
vt 0.9091 1.0000
vt 0.2727 0.9833
vt 0.3636 0.9833
vt 0.3636 1.0000
vt 0.2727 1.0000
vt 0.7273 0.6667
vt 1.7273 0.6667
vt 1.7273 1.0000
vt 0.7273 1.0000
vt 0.5455 0.6667
vt 2.5455 0.6667
vt 2.5455 1.0000
vt 0.5455 1.0000
vt 0.1818 0.6667
vt 1.6364 0.6667
vt 1.6364 1.0000
vt 0.1818 1.0000
vt 0.1818 0.6667
vt 2.4545 0.6667
vt 2.4545 1.0000
vt 0.1818 1.0000
vt 0.3636 -0.3333
vt 1.0000 -0.3333
vt 1.0000 1.0000
vt 0.3636 1.0000
vt 0.2727 -0.3333
vt 2.4545 -0.3333
vt 2.4545 1.0000
vt 0.2727 1.0000
vt -0.0000 -0.3333
vt 0.6364 -0.3333
vt 0.6364 1.0000
vt 0.0000 1.0000
vt 0.2727 -0.3333
vt 2.5455 -0.3333
vt 2.5455 1.0000
vt 0.2727 1.0000
vt 0.3636 -0.3333
vt 0.9091 -0.3333
vt 0.9091 1.0000
vt 0.3636 1.0000
vt 0.2727 -0.3333
vt 1.4545 -0.3333
vt 1.4545 1.0000
vt 0.2727 1.0000
vt -0.0000 -0.3333
vt 0.8182 -0.3333
vt 0.8182 1.0000
vt 0.0000 1.0000
vt 0.2727 -0.3333
vt 1.5455 -0.3333
vt 1.5455 1.0000
vt 0.2727 1.0000
vt 0.2727 0.8333
vt 1.8182 0.8333
vt 1.8182 1.0000
vt 0.2727 1.0000
vt 0.5455 0.8333
vt 1.0000 0.8333
vt 1.0000 1.0000
vt 0.5455 1.0000
vt 0.0909 0.8333
vt 1.6364 0.8333
vt 1.6364 1.0000
vt 0.0909 1.0000
vt 0.3636 0.8333
vt 0.8182 0.8333
vt 0.8182 1.0000
vt 0.3636 1.0000
vt 0.0909 0.8333
vt 0.8182 0.8333
vt 0.8182 1.0000
vt 0.0909 1.0000
vt 0.7273 0.8333
vt 0.9091 0.8333
vt 0.9091 1.0000
vt 0.7273 1.0000
vt 0.1818 0.8333
vt 0.9091 0.8333
vt 0.9091 1.0000
vt 0.1818 1.0000
vt 0.1818 0.8333
vt 0.3636 0.8333
vt 0.3636 1.0000
vt 0.1818 1.0000
vt 0.0909 0.8333
vt 0.9091 0.8333
vt 0.9091 1.0000
vt 0.0909 1.0000
vt 0.0000 0.8333
vt 0.3636 0.8333
vt 0.3636 1.0000
vt 0.0000 1.0000
vt 0.0909 0.8333
vt 0.9091 0.8333
vt 0.9091 1.0000
vt 0.0909 1.0000
vt 0.8182 0.8333
vt 1.1818 0.8333
vt 1.1818 1.0000
vt 0.8182 1.0000
vt 0.6364 0.8333
vt 1.0909 0.8333
vt 1.0909 1.0000
vt 0.6364 1.0000
vt 0.9091 0.8333
vt 1.0909 0.8333
vt 1.0909 1.0000
vt 0.9091 1.0000
vt 0.8182 0.8333
vt 1.2727 0.8333
vt 1.2727 1.0000
vt 0.8182 1.0000
vt 0.0909 0.8333
vt 0.2727 0.8333
vt 0.2727 1.0000
vt 0.0909 1.0000
vt 0.4545 -0.1667
vt 0.9091 -0.1667
vt 0.9091 1.0000
vt 0.4545 1.0000
vt 0.6364 -0.1667
vt 0.7273 -0.1667
vt 0.7273 1.0000
vt 0.6364 1.0000
vt 0.0000 -0.1667
vt 0.7273 -0.1667
vt 0.7273 1.0000
vt 0.0000 1.0000
vt 1.2727 -0.1667
vt 1.2727 1.0000
vt 0.4545 -0.1667
vt 1.6364 -0.1667
vt 1.6364 1.0000
vt 0.4545 1.0000
vt 0.5455 -0.1667
vt 1.0000 -0.1667
vt 1.0000 1.0000
vt 0.5455 1.0000
vt 0.0909 0.8333
vt 0.5455 0.8333
vt 0.5455 1.0000
vt 0.0909 1.0000
vt 0.6364 0.8333
vt 0.9091 0.8333
vt 0.9091 1.0000
vt 0.6364 1.0000
vt 0.4545 0.8333
vt 0.9091 0.8333
vt 0.9091 1.0000
vt 0.4545 1.0000
vt 1.1818 0.8333
vt 1.1818 1.0000
vt 0.1818 0.8333
vt 0.4545 0.8333
vt 0.4545 1.0000
vt 0.1818 1.0000
vt 0.5455 0.8333
vt 0.7273 0.8333
vt 0.7273 1.0000
vt 0.5455 1.0000
vt 0.0909 0.8333
vt 0.3636 0.8333
vt 0.3636 1.0000
vt 0.0909 1.0000
vt 0.8182 0.8333
vt 1.0000 0.8333
vt 1.0000 1.0000
vt 0.8182 1.0000
vt 0.7273 -0.3333
vt 1.4545 -0.3333
vt 1.4545 1.0000
vt 0.7273 1.0000
vt 0.7273 -0.3333
vt 1.0909 -0.3333
vt 1.0909 1.0000
vt 0.7273 1.0000
vt 0.1818 -0.3333
vt 0.5455 -0.3333
vt 0.5455 1.0000
vt 0.1818 1.0000
vt 0.3636 -0.3333
vt 1.6364 -0.3333
vt 1.6364 1.0000
vt 0.3636 1.0000
vt 0.0909 -0.3333
vt 1.1818 -0.3333
vt 1.1818 1.0000
vt 0.0909 1.0000
vt 0.9091 -0.3333
vt 1.9091 -0.3333
vt 1.9091 1.0000
vt 0.9091 1.0000
vt 0.6364 0.9833
vt 1.0000 0.9833
vt 1.0000 1.0000
vt 0.6364 1.0000
vt 0.2727 0.9833
vt 0.5455 0.9833
vt 0.5455 1.0000
vt 0.2727 1.0000
vt 0.7273 0.9833
vt 0.7273 1.0000
vt 0.2727 0.9833
vt 0.4545 0.9833
vt 0.4545 1.0000
vt 0.2727 1.0000
vt 0.3636 0.9833
vt 0.5455 0.9833
vt 0.5455 1.0000
vt 0.3636 1.0000
vt 0.7273 0.9833
vt 0.8182 0.9833
vt 0.8182 1.0000
vt 0.7273 1.0000
vt 0.6364 -0.1667
vt 0.7273 -0.1667
vt 0.7273 1.0000
vt 0.6364 1.0000
vt 0.8182 -0.1667
vt 1.0909 -0.1667
vt 1.0909 1.0000
vt 0.8182 1.0000
vt 0.1818 -0.1667
vt 0.6364 -0.1667
vt 0.6364 1.0000
vt 0.1818 1.0000
vt 0.7273 -0.1667
vt 0.7273 1.0000
vn -0.0785 0.0000 0.9969
vn -0.9970 0.0000 -0.0771
vn 0.9970 0.0000 0.0770
vn 0.0785 0.0000 -0.9969
vn -0.9970 0.0000 -0.0775
vn 0.9970 0.0000 0.0776
vn -0.9970 0.0000 -0.0776
vn -0.9969 0.0000 -0.0784
vn -0.0784 0.0000 0.9969
vn 0.9969 0.0000 0.0784
vn 0.0784 0.0000 -0.9969
vn -0.9970 0.0000 -0.0777
vn -0.0612 0.0000 -0.9981
vn -0.9981 0.0000 0.0619
vn 0.0614 -0.0000 0.9981
vn 0.9729 -0.0000 -0.2312
vn -0.9729 0.0000 0.2312
vn -0.0614 0.0000 -0.9981
vn -0.9994 0.0000 0.0355
vn 0.0328 0.0000 0.9995
vn 0.9994 0.0000 -0.0356
vn -0.0328 0.0000 -0.9995
vn -0.0330 0.0000 -0.9995
vn -0.9994 0.0000 0.0356
vn 0.0355 0.0000 0.9994
vn 0.9994 0.0000 -0.0355
vn -0.0355 0.0000 -0.9994
vn -0.9260 0.0000 0.3776
vn 0.3120 0.0000 0.9501
vn 0.9486 0.0000 -0.3165
vn -0.3154 0.0000 -0.9490
vn -0.9259 0.0000 0.3777
vn 0.9259 0.0000 -0.3777
vn 0.3154 0.0000 0.9489
vn -0.3153 0.0000 -0.9490
vn -0.1530 0.0000 -0.9882
vn -0.9984 0.0000 -0.0565
vn -0.0565 0.0000 0.9984
vn 0.9880 0.0000 -0.1544
vn -0.9880 0.0000 0.1547
vn -0.1547 0.0000 -0.9880
vn 0.9880 0.0000 -0.1547
vn -0.1544 0.0000 -0.9880
vn -0.9880 0.0000 0.1544
vn 0.1544 0.0000 0.9880
vn 0.1547 0.0000 0.9880
vn -0.1548 0.0000 -0.9880
vn 0.9999 0.0000 0.0119
vn -0.0118 0.0000 0.9999
vn 0.0119 0.0000 -0.9999
vn -0.9999 0.0000 -0.0119
vn -0.0119 0.0000 0.9999
vn 0.0585 0.0000 0.9983
vn -0.9996 0.0000 -0.0292
vn 0.0608 0.0000 0.9982
vn 0.9996 0.0000 0.0292
vn -0.0585 0.0000 -0.9983
vn -0.9995 0.0000 -0.0302
vn -0.9996 0.0000 -0.0293
vn -0.1188 0.0000 -0.9929
vn -0.4573 0.0000 -0.8893
vn 0.1293 0.0000 0.9916
vn 0.9953 0.0000 -0.0972
g CityEngineMaterial_719_CityEngineMaterial_719_CityEngineMaterial_719_mat
usemtl CityEngineMaterial_719_mat
s 1
f 1/1/1 2/2/1 3/3/1 4/4/1
f 2/2/2 5/5/2 6/6/2 3/3/2
f 5/7/1 7/8/1 8/9/1 6/10/1
f 7/11/3 9/12/3 10/13/3 8/14/3
f 9/15/4 11/16/4 12/17/4 10/18/4
f 11/19/5 1/20/5 4/21/5 12/22/5
f 13/23/1 14/24/1 15/25/1 16/26/1
f 14/27/6 17/28/6 18/29/6 15/30/6
f 17/31/4 19/32/4 20/33/4 18/34/4
f 19/35/7 13/36/7 16/37/7 20/38/7
f 21/39/1 22/40/1 23/41/1 24/42/1
f 22/43/6 14/44/6 15/45/6 23/46/6
f 14/47/4 25/48/4 26/49/4 15/50/4
f 25/51/8 21/52/8 24/53/8 26/54/8
f 27/55/9 28/56/9 29/57/9 30/58/9
f 28/59/10 31/60/10 32/61/10 29/62/10
f 31/63/11 13/23/11 16/26/11 32/64/11
f 13/65/12 27/66/12 30/67/12 16/68/12
f 33/69/13 34/70/13 35/71/13 36/72/13
f 34/73/14 37/74/14 38/75/14 35/76/14
f 37/77/15 39/78/15 40/79/15 38/80/15
f 39/81/16 33/82/16 36/83/16 40/84/16
f 41/85/14 42/86/14 43/87/14 44/88/14
f 42/89/15 45/90/15 46/91/15 43/92/15
f 45/93/16 47/94/16 48/95/16 46/96/16
f 47/97/13 49/98/13 50/99/13 48/100/13
f 49/101/17 51/102/17 52/103/17 50/104/17
f 51/105/18 41/106/18 44/107/18 52/108/18
f 53/109/19 54/110/19 55/111/19 56/112/19
f 54/113/20 57/114/20 58/115/20 55/116/20
f 57/117/21 59/118/21 60/119/21 58/120/21
f 59/121/22 61/122/22 62/123/22 60/124/22
f 61/125/21 63/126/21 64/127/21 62/128/21
f 63/129/23 53/130/23 56/131/23 64/132/23
f 65/133/24 66/134/24 67/135/24 68/136/24
f 66/137/25 69/138/25 70/139/25 67/140/25
f 69/141/26 71/142/26 72/143/26 70/144/26
f 71/145/27 65/146/27 68/147/27 72/148/27
f 73/149/19 69/150/19 70/151/19 74/152/19
f 69/141/25 75/153/25 76/154/25 70/144/25
f 75/155/21 77/156/21 78/157/21 76/158/21
f 77/159/27 73/160/27 74/161/27 78/162/27
f 79/163/28 80/164/28 81/165/28 82/166/28
f 80/167/29 83/168/29 84/169/29 81/170/29
f 83/171/30 85/172/30 86/173/30 84/174/30
f 85/175/31 79/176/31 82/177/31 86/178/31
f 87/179/32 88/180/32 89/181/32 90/182/32
f 88/183/29 84/184/29 91/185/29 89/186/29
f 84/187/30 86/188/30 92/189/30 91/190/30
f 86/191/31 87/179/31 90/182/31 92/192/31
f 93/193/33 94/194/33 95/195/33 96/196/33
f 94/197/34 97/198/34 98/199/34 95/200/34
f 97/201/30 99/202/30 100/203/30 98/204/30
f 99/205/35 101/206/35 102/207/35 100/208/35
f 101/209/32 103/210/32 104/211/32 102/212/32
f 103/213/29 93/214/29 96/215/29 104/216/29
f 105/217/36 106/218/36 107/219/36 108/220/36
f 106/221/37 109/222/37 110/223/37 107/224/37
f 109/225/38 111/226/38 112/227/38 110/228/38
f 111/229/39 105/230/39 108/231/39 112/232/39
f 108/233/36 113/234/36 114/235/36 115/236/36
f 113/237/40 116/238/40 117/239/40 114/240/40
f 116/241/38 112/242/38 118/243/38 117/244/38
f 112/245/39 108/246/39 115/247/39 118/248/39
f 119/249/41 120/250/41 121/251/41 122/252/41
f 120/253/37 110/254/37 123/255/37 121/256/37
f 110/257/38 116/258/38 117/259/38 123/260/38
f 116/261/42 119/262/42 122/263/42 117/264/42
f 124/265/39 125/266/39 126/267/39 127/268/39
f 125/269/43 128/270/43 129/271/43 126/272/43
f 128/273/44 130/274/44 131/275/44 129/276/44
f 130/277/45 124/278/45 127/279/45 131/280/45
f 132/281/39 128/282/39 129/283/39 133/284/39
f 128/285/43 134/286/43 135/287/43 129/288/43
f 134/289/44 136/290/44 137/291/44 135/292/44
f 136/293/45 132/294/45 133/295/45 137/296/45
f 138/297/42 139/298/42 140/299/42 141/300/42
f 139/301/41 142/302/41 143/303/41 140/304/41
f 142/305/40 144/306/40 145/307/40 143/308/40
f 144/309/46 138/310/46 141/311/46 145/312/46
f 144/313/42 146/314/42 147/315/42 145/316/42
f 146/317/47 148/318/47 149/319/47 147/320/47
f 148/321/40 150/322/40 151/323/40 149/324/40
f 150/325/46 144/326/46 145/327/46 151/328/46
f 152/329/48 153/330/48 154/331/48 155/332/48
f 153/333/49 156/334/49 157/335/49 154/336/49
f 156/337/48 158/338/48 159/339/48 157/340/48
f 158/338/50 160/341/50 161/342/50 159/339/50
f 160/343/51 162/344/51 163/345/51 161/346/51
f 162/347/52 152/348/52 155/349/52 163/350/52
f 164/351/48 165/352/48 166/353/48 167/354/48
f 165/355/50 168/356/50 169/357/50 166/358/50
f 168/359/51 170/360/51 171/361/51 169/362/51
f 170/360/52 164/363/52 167/364/52 171/361/52
f 172/365/48 173/366/48 174/367/48 175/368/48
f 173/369/50 176/370/50 177/371/50 174/372/50
f 176/373/51 178/374/51 179/375/51 177/376/51
f 178/377/52 172/378/52 175/379/52 179/380/52
f 180/381/53 181/382/53 182/383/53 183/384/53
f 181/385/54 184/386/54 185/387/54 182/388/54
f 184/389/55 186/390/55 187/391/55 185/392/55
f 186/393/56 188/394/56 189/395/56 187/396/56
f 188/397/57 190/398/57 191/399/57 189/400/57
f 190/401/58 180/402/58 183/403/58 191/404/58
f 192/405/53 193/406/53 194/407/53 195/408/53
f 193/409/56 196/410/56 197/411/56 194/412/56
f 196/410/57 198/413/57 199/414/57 197/411/57
f 198/415/59 200/416/59 201/417/59 199/418/59
f 200/419/57 202/420/57 203/421/57 201/422/57
f 202/423/58 192/424/58 195/425/58 203/426/58
f 204/427/60 205/428/60 206/429/60 207/430/60
f 205/431/61 208/432/61 209/433/61 206/434/61
f 208/435/62 210/436/62 211/437/62 209/438/62
f 210/436/63 204/439/63 207/440/63 211/437/63
