# Blender v2.78 (sub 0) OBJ File: ''
# www.blender.org
mtllib CityEngineMaterial_681.mtl
o CityEngineMaterial_681
v -583.247681 8.948436 390.021301
v -583.146912 8.948439 372.590515
v -598.058289 8.948439 372.506592
v -598.142883 8.948436 390.158813
v -584.384827 22.023739 380.303711
v -584.346985 22.023739 373.777008
v -596.870728 22.023739 373.706604
v -596.901978 22.023739 380.233307
v -589.861877 17.454638 388.889008
v -589.813477 17.454639 380.273102
v -596.901978 17.454639 380.233307
v -596.943787 17.454638 388.954407
v -584.595581 23.122740 374.022705
v -596.624817 23.122740 373.955109
v -596.635010 23.122740 376.095398
v -588.748413 23.122740 376.139709
v -588.770874 23.122740 380.031891
v -584.630493 23.122740 380.055206
v -594.974792 18.045137 382.180695
v -594.997925 18.045137 386.999786
v -593.877686 18.045137 386.989502
v -593.869629 18.045137 385.285004
v -591.778320 18.045137 385.296814
v -591.760925 18.045137 382.198792
v 298.681702 59.308510 -670.174805
v 290.681396 59.308510 -668.922119
v 293.126007 59.308506 -659.874878
v 304.707214 59.308506 -661.688293
v 297.772186 59.308510 -673.547180
v 301.358612 59.308510 -674.105225
v 300.316803 60.348206 -664.539795
v 299.708191 60.348206 -666.796509
v 296.625793 60.348206 -666.313782
v 296.982605 60.348206 -664.990417
v 295.431213 60.348206 -664.747375
v 295.683411 60.348206 -663.814270
v 254.162506 52.221031 -797.573303
v 244.860703 52.221031 -796.116577
v 244.853699 52.221031 -795.539673
v 248.606995 52.221027 -783.939209
v 248.730301 52.221027 -782.532471
v 245.341904 52.221031 -786.094482
v 244.977402 52.221031 -790.860596
v 245.695694 52.221027 -782.054626
v 256.122498 52.221031 -785.116089
v 255.770798 52.965729 -787.351318
v 254.502594 52.965729 -795.411804
v 248.074997 52.965729 -794.400513
v 249.343201 52.965729 -786.340027
v 248.976501 52.965729 -788.670715
v 245.228302 52.965729 -793.952576
v 246.129807 52.965729 -788.222778
v -1322.219727 20.907526 461.824585
v -1337.340088 20.907526 457.938690
v -1340.690552 20.907524 470.892303
v -1326.341919 20.907524 467.112793
v -1327.517456 20.907524 471.657898
v -1325.023193 20.907524 472.663208
v -1326.087524 20.907522 476.778015
v -1323.759277 20.907524 467.776489
v -1339.723755 22.194124 471.205902
v -1331.185425 22.194122 474.647186
v -1327.788208 22.194124 466.218506
v -1336.326538 22.194124 462.777191
v -1333.582886 22.194124 463.882996
v -1329.223633 22.194124 465.640015
v -1327.601807 22.194126 461.616089
v -1331.961060 22.194126 459.859100
v -458.615814 5.458313 -74.782600
v -433.047485 5.458312 -74.130600
v -433.704010 5.458314 -86.254700
v -458.358185 5.458314 -84.883904
v -438.416809 12.989212 -74.267601
v -439.049896 12.989214 -85.957497
v -452.994812 12.989214 -85.182098
v -453.263397 12.989212 -74.646202
v -433.113312 12.318413 -75.346901
v -433.638397 12.318415 -85.042297
v -458.389313 12.318414 -83.666100
v -458.584808 12.318413 -75.996399
v -439.896088 18.260813 -85.209198
v -452.125702 18.260813 -84.529099
v -452.360291 18.260811 -75.323502
v -439.342712 18.260811 -74.991501
v -435.123688 23.523314 -84.378090
v -456.882385 23.523314 -83.168190
v -457.051514 23.523314 -76.538193
v -434.668213 23.523312 -75.967392
v -451.567902 26.871111 -75.915390
v -440.155212 26.871111 -75.624489
v -440.638885 26.871113 -84.554893
v -451.362915 26.871113 -83.958595
v -455.703613 26.884813 -77.007690
v -436.034790 26.884813 -76.506096
v -436.429810 26.884813 -83.800896
v -455.557495 26.884813 -82.737389
v -440.868896 28.839613 -76.175995
v -441.291687 28.839613 -83.984589
v -450.692505 28.839613 -83.461792
v -450.871704 28.839613 -76.431091
v -437.238495 28.853313 -76.972496
v -437.581207 28.853313 -83.300690
v -454.389893 28.853313 -82.365990
v -454.516205 28.853313 -77.413094
v -450.258087 29.266912 -83.040291
v -450.415497 29.266912 -76.864594
v -441.339294 29.266912 -76.633194
v -443.281189 29.266912 -79.149391
v -441.473114 29.266912 -79.103294
v -443.172089 29.266912 -83.434296
v -452.786011 29.820713 -80.809593
v -452.831787 29.820713 -79.013695
v -438.975311 29.820713 -78.660393
v -445.549286 29.820713 -80.753792
v -439.079803 29.820713 -80.588791
v -445.537689 29.820713 -81.212692
v -57.315300 10.045717 -107.231598
v -58.788101 10.045719 -119.778702
v -79.659302 10.045719 -117.538597
v -78.478699 10.045717 -106.499199
v -79.378098 59.243717 -114.909492
v -78.760597 59.243717 -109.134995
v -57.624500 59.243717 -109.866493
v -58.479801 59.243717 -117.152596
v -77.474403 30.462118 -117.772995
v -76.276802 30.462116 -106.575394
v -59.518799 30.462116 -107.155396
v -60.973099 30.462118 -119.544090
v -58.940601 74.003113 -110.259789
v -59.682701 74.003113 -116.582283
v -78.077499 74.003014 -114.607986
v -77.543701 74.003014 -109.615982
v -60.608799 44.753521 -107.863892
v -61.880402 44.753521 -118.696793
v -76.400902 44.753521 -117.138191
v -75.354401 44.753521 -107.353493
v -76.932999 78.430916 -114.336983
v -76.473999 78.430916 -110.044785
v -60.098598 78.430916 -110.611488
v -60.739899 78.430916 -116.074982
v -75.456497 68.096313 -116.574989
v -74.543900 68.096313 -108.042694
v -61.567699 68.096313 -108.491791
v -62.677601 68.096321 -117.946594
v -61.116901 80.399414 -110.905388
v -61.673100 80.399414 -115.644081
v -75.926498 80.399414 -114.114182
v -75.529999 80.399414 -110.406487
v -62.410801 75.099113 -109.032188
v -63.381199 75.099121 -117.298683
v -74.626099 75.099113 -116.091682
v -73.828796 75.099113 -108.636887
v -73.895599 77.067612 -115.662888
v -73.200302 77.067612 -109.163185
v -63.152401 77.067612 -109.511086
v -63.999199 77.067612 -116.725082
v -74.648499 81.415314 -113.083588
v -74.490303 81.415314 -111.604385
v -62.417198 81.415314 -112.022285
v -70.751999 81.415314 -113.348587
v -62.605999 81.415314 -113.630585
v -70.768303 81.415314 -113.499985
v -71.747299 78.608513 -109.247986
v -65.195198 78.608513 -109.474785
v -65.335297 78.608513 -113.521088
v -71.887398 78.608513 -113.294182
v -70.159897 78.608612 -113.353981
v -66.948898 78.608612 -113.465187
v -67.034401 78.608612 -115.934486
v -70.245399 78.608612 -115.823288
v 641.993103 36.600750 308.457794
v 639.782288 36.600750 298.961395
v 638.663574 36.600750 299.218994
v 626.088196 36.600750 298.525391
v 637.864014 36.600750 295.804413
v 629.109314 36.600750 311.424286
v 635.546997 37.130051 304.220886
v 635.866272 37.130051 305.584106
v 636.977783 37.130051 305.328186
v 636.660278 37.130051 303.964600
v 631.108276 37.346649 301.650604
v 632.225830 37.346649 306.422302
v 633.901123 37.346649 306.036591
v 633.437500 37.346649 304.057098
v 635.402283 37.346649 303.602997
v 634.747986 37.346649 300.809509
v 512.655823 63.603821 -123.964989
v 510.092987 63.603825 -138.885284
v 502.180603 63.603825 -137.530182
v 510.479492 63.603821 -126.441193
v 507.462402 63.603821 -125.924492
v 507.940887 63.603821 -123.155594
v 504.758606 63.603821 -122.609291
v 510.954987 63.603821 -123.672989
v -811.861877 11.595059 249.496902
v -811.967224 11.595059 250.684402
v -807.812927 11.595059 251.056793
v -807.299011 11.595060 245.262695
v -816.934387 11.595059 249.042297
v -816.521484 11.595060 244.436203
v -815.869080 12.033460 247.063599
v -808.405518 12.033460 247.732498
v -808.179016 12.033460 245.183807
v -815.640686 12.033460 244.515106
v -1125.288818 21.452513 542.214783
v -1124.126465 21.452513 538.761414
v -1127.844360 21.452513 537.509216
v -1131.929565 21.452511 549.646118
v -1124.123901 21.452511 552.274780
v -1122.087524 21.452513 543.292786
v -1129.558228 21.862112 542.722778
v -1131.319336 21.862110 547.955078
v -1127.300293 21.862110 549.307983
v -1125.539062 21.862112 544.075684
v -1126.164307 21.862110 545.933105
v -1123.300659 21.862110 546.896973
v -1122.675415 21.862110 545.039612
v -1126.761108 21.862110 547.706421
v -1124.436646 21.862110 550.271912
v -1123.897583 21.862110 548.670227
v 41.803699 25.624935 -211.602798
v 42.066502 25.624935 -211.272095
v 53.020401 25.624935 -213.593307
v 50.856098 25.624939 -234.856506
v 37.167999 25.624838 -233.479004
v 51.001900 59.618134 -213.165588
v 48.814999 59.618137 -234.651077
v 39.221199 59.618137 -233.685577
v 43.710400 59.618134 -212.500778
v 44.309101 59.618134 -211.747391
v 52.534000 62.334534 -218.371582
v 51.339699 62.334538 -230.105682
v 38.163799 62.334538 -228.779678
v 40.892101 62.334534 -215.904678
v 40.540298 69.816139 -231.748581
v 44.331501 69.816139 -213.857086
v 49.917599 69.816139 -215.040787
v 48.139198 69.816139 -232.513382
v 39.637001 67.054337 -227.715683
v 41.836201 67.054337 -217.337585
v 51.210201 67.054337 -219.323990
v 50.247299 67.054337 -228.783478
v 49.057301 72.875542 -216.581680
v 47.613499 72.875542 -230.766190
v 41.592201 72.875542 -230.160187
v 44.666698 72.875542 -215.651291
v 50.149101 70.358139 -220.098679
v 49.374100 70.358139 -227.712784
v 40.818901 70.358139 -226.851883
v 42.589401 70.358139 -218.496689
v 42.433998 74.844040 -228.878891
v 44.930698 74.844040 -217.096588
v 48.369999 74.844040 -217.825378
v 47.196098 74.844040 -229.358185
v 41.775398 72.670937 -226.161484
v 43.202499 72.670937 -219.426682
v 49.289501 72.670937 -220.716583
v 48.664700 72.670937 -226.854782
v 48.600601 74.289742 -221.219284
v 48.097599 74.289742 -226.159988
v 42.542801 74.289742 -225.600891
v 43.691601 74.289742 -220.178986
v 43.009399 75.359436 -226.263290
v 44.487099 75.359436 -219.289581
v 46.228500 75.359436 -219.658585
v 44.750801 75.359436 -226.632278
v 43.163799 76.258240 -225.152786
v 44.089802 76.258240 -220.782578
v 48.042500 76.258240 -221.620087
v 47.637100 76.258240 -225.603088
v 45.184799 75.359436 -224.584381
v 45.588100 75.359436 -222.680786
v 47.265800 75.359436 -223.036285
v 46.862400 75.359436 -224.939880
v 43.439800 76.734840 -223.952881
v 43.950600 76.734840 -221.542191
v 46.406300 76.734840 -222.062592
v 45.895500 76.734840 -224.473190
v 574.392395 25.801809 558.009888
v 583.112793 25.801809 556.177917
v 582.620605 25.801811 553.831787
v 580.647400 25.801811 554.246277
v 579.346924 25.801811 548.040588
v 572.599487 25.801811 549.454712
v 580.349792 26.886711 554.702026
v 580.132812 26.886711 553.666199
v 576.088623 26.886711 554.515808
v 574.689880 26.886608 557.554321
v 573.054871 26.886711 549.752319
v 575.004578 26.886711 549.343689
v 582.323120 26.886711 554.287415
v 582.657288 26.886711 555.880371
v -303.929108 6.952641 -250.615295
v -313.035889 6.952643 -267.624207
v -326.946991 6.952642 -260.186890
v -318.183594 6.952640 -243.794907
v -306.090088 29.497540 -251.322998
v -309.329803 29.497541 -257.373688
v -320.742188 29.497541 -251.913101
v -317.506409 29.497540 -245.860596
v -309.329803 26.612741 -257.373688
v -313.679901 26.612743 -265.498413
v -318.914398 26.612741 -262.699890
v -315.055206 26.612741 -254.634201
v -311.119507 30.328842 -252.475296
v -312.641510 30.328842 -255.321899
v -320.162811 30.328842 -251.723206
v -317.324799 30.328840 -246.414703
v -306.669800 30.328840 -251.512894
v -307.987488 30.328842 -253.973907
v -314.910309 27.700043 -259.650299
v -316.080994 27.700043 -259.090210
v -314.585785 27.700043 -255.964996
v -310.702301 27.700043 -257.823212
v -316.599915 27.699942 -262.805786
v -314.088898 27.700045 -264.148285
v -59.517899 45.893761 -990.301270
v -64.091599 45.893761 -990.035889
v -63.266499 45.893761 -982.274109
v -60.321701 45.893761 -986.424927
v -59.901501 45.893761 -982.471924
v -59.296799 45.893761 -986.484314
v -64.010597 46.680260 -989.486084
v -63.699100 46.680260 -986.556091
v -60.859501 46.680260 -986.857910
v -61.171001 46.680260 -989.788025
v -61.014702 46.680260 -988.317322
v -60.867802 46.680260 -986.935791
v -59.351700 46.680260 -987.096924
v -59.498600 46.680260 -988.478516
v -1215.515015 21.895317 506.969604
v -1214.610840 21.895317 504.146301
v -1217.076782 21.895317 503.356293
v -1221.544312 21.895315 517.306580
v -1214.801392 21.895315 519.466125
v -1212.507935 21.895317 507.932587
v -1215.876709 22.701616 511.166992
v -1214.962158 22.701616 511.459900
v -1214.493164 22.701618 509.101898
v -1216.868164 22.701618 508.341400
v -1217.662964 22.701616 516.744629
v -1219.382935 22.701616 516.193787
v 50.781502 27.536530 -179.276306
v 50.848499 27.536530 -180.269302
v 48.960602 27.536531 -189.257095
v 48.696400 27.536531 -189.203094
v -395.266113 8.156447 319.781097
v -404.092194 8.156447 320.481110
v -402.302612 8.156445 339.683502
v -393.501007 8.156445 338.865906
v -396.316895 39.398548 321.029388
v -402.826691 39.398548 321.545685
v -402.112305 39.398548 329.210205
v -395.608002 39.398548 328.694305
v -398.289795 15.352047 328.907104
v -402.112305 15.352047 329.210205
v -401.253998 15.352045 338.419800
v -397.562592 15.352045 338.076904
v -402.729309 40.382545 321.627502
v -402.031586 40.382545 329.114288
v -400.052704 40.382545 328.957306
v -400.549713 40.382545 323.623810
v -396.198486 40.382545 323.278687
v -396.397705 40.382545 321.125397
v -402.021301 16.706547 330.186615
v -401.340210 16.706444 337.494293
v -399.246185 16.706444 337.299103
v -399.927307 16.706547 329.991486
v -399.703888 16.706547 332.389099
v -399.510193 16.706444 334.466888
v -397.912811 16.706444 334.318115
v -398.106506 16.706547 332.240204
vt 0.6897 0.0021
vt 0.0005 -0.0000
vt 0.0000 1.7778
vt 0.6980 1.7778
vt 0.0001 -0.0000
vt 0.0000 1.0000
vt 1.0035 1.0000
vt 1.0030 -0.0000
vt 0.8708 0.0010
vt 0.0006 0.0000
vt 0.0000 1.0000
vt 0.8809 1.0000
vt 0.0000 1.0000
vt 1.4419 1.0000
vt 1.4417 0.6452
vt 0.4963 0.6452
vt 0.4964 0.0000
vt 0.0001 -0.0000
vt 0.0000 1.0000
vt 1.0000 1.0000
vt 0.9967 0.6515
vt 0.6431 0.6515
vt 0.6434 0.0008
vt 0.0005 -0.0000
vt 0.8082 1.0155
vt 0.8805 -0.0000
vt 0.1047 0.0006
vt 0.0000 1.4706
vt 1.0973 1.0155
vt 1.0646 1.4706
vt 1.0000 1.0000
vt 0.9474 0.0000
vt 0.2967 0.0000
vt 0.3275 0.5865
vt -0.0000 0.5865
vt 0.0218 1.0000
vt 1.0077 0.7338
vt 1.0081 0.0927
vt 0.9672 0.0861
vt 0.1013 0.2158
vt 0.0000 0.2092
vt 0.2909 0.0190
vt 0.6335 0.0449
vt 0.0001 -0.0000
vt 0.1009 0.7338
vt 0.0000 1.0000
vt 1.0274 1.0000
vt 1.0274 -0.0000
vt 0.0001 -0.0000
vt 0.0000 1.0000
vt 1.0000 1.0000
vt 1.0000 0.0000
vt 0.0001 -0.0000
vt 0.6713 0.0000
vt 0.0000 0.2067
vt 0.0753 1.5455
vt 0.5912 0.6504
vt 0.6177 1.1202
vt 0.7343 1.1202
vt 0.7582 1.5455
vt 0.7059 0.6151
vt 0.0000 0.8776
vt 0.7575 0.8776
vt 0.7575 0.0000
vt 0.0001 -0.0000
vt 0.0000 1.0000
vt 1.0000 1.0000
vt 1.0000 0.0000
vt 0.0001 -0.0000
vt 0.0000 1.2234
vt 1.0662 1.2234
vt 1.0260 0.0000
vt 0.0000 0.2021
vt 1.7560 0.8431
vt 1.6459 0.0000
vt 0.0000 0.0817
vt 0.0000 0.8431
vt 1.1172 1.0554
vt 1.0833 0.0000
vt 0.0000 0.2188
vt 0.0000 1.0554
vt 1.0482 -0.0000
vt 0.0000 0.1212
vt 0.0000 1.2471
vt 1.1180 1.2471
vt 0.9985 0.0000
vt 0.0000 0.2030
vt 0.0000 0.9661
vt 1.0293 0.9661
vt 0.0000 0.7359
vt 0.9266 0.7359
vt 0.8689 0.0000
vt 0.0000 0.0718
vt 0.0000 1.0000
vt 0.7106 1.0000
vt 0.6896 0.0000
vt 0.0000 0.2130
vt 0.7749 1.0000
vt 0.7267 0.0000
vt -0.0000 0.0978
vt 0.0000 1.0000
vt 0.6589 1.0000
vt 0.6397 -0.0000
vt 0.0000 0.2157
vt 0.0000 1.0000
vt 0.0000 0.0851
vt 0.0000 1.0000
vt 0.5999 1.0000
vt 0.4674 0.6348
vt 0.5869 0.6348
vt 0.4674 0.0000
vt 0.0000 0.2465
vt 0.0000 1.0000
vt 0.8911 1.0000
vt 0.4652 0.1925
vt 0.8812 0.1925
vt 0.4652 0.0000
vt 0.9994 1.2802
vt 0.9522 0.0000
vt 0.0000 0.1542
vt 0.0363 1.2802
vt -0.0000 0.2077
vt 0.0144 1.0000
vt 0.7430 1.0000
vt 0.7223 0.0000
vt 0.0000 0.1179
vt 0.0258 1.2218
vt 0.5596 1.2218
vt 0.5270 0.0000
vt 0.7544 1.0000
vt 0.7336 0.0000
vt 0.0000 0.2107
vt 0.0144 1.0000
vt 1.3025 0.9678
vt 1.2270 -0.0000
vt 0.0000 0.0940
vt 0.0596 0.9678
vt 0.0000 0.2147
vt 0.0166 1.0000
vt 0.8941 1.0000
vt 0.8699 0.0000
vt 0.0000 0.0805
vt 0.0484 0.8219
vt 1.0674 0.8219
vt 1.0060 -0.0000
vt 1.5884 1.0000
vt 1.5460 0.0000
vt -0.0000 0.2179
vt 0.0290 1.0000
vt 1.0827 0.7080
vt 1.0208 -0.0000
vt -0.0000 0.0698
vt 0.0488 0.7080
vt 0.0000 0.0993
vt 0.0502 1.0000
vt 1.1241 1.0000
vt 1.0604 0.0000
vt -0.0000 0.1597
vt 0.0120 1.0000
vt 1.3695 1.0000
vt 0.4386 0.0860
vt 1.3546 0.0860
vt 0.4374 0.0000
vt 0.0000 1.0000
vt 1.0000 1.0000
vt 1.0000 0.0000
vt 0.0001 -0.0000
vt 0.0000 1.0000
vt 1.0000 1.0000
vt 1.0000 0.0000
vt 0.0001 -0.0000
vt 1.2253 0.0011
vt 0.3269 0.0000
vt 0.3265 0.1002
vt -0.0000 1.1553
vt 0.0033 0.1002
vt 1.2208 1.1553
vt 0.0000 1.0000
vt 0.9970 1.0000
vt 1.0000 0.0016
vt 0.0031 0.0000
vt 0.0000 1.0000
vt 0.9987 1.0000
vt 1.0000 0.5398
vt 0.5857 0.5398
vt 0.5869 0.0000
vt 0.0023 0.0000
vt -0.0000 0.6226
vt 1.0233 0.6226
vt 1.0236 0.0000
vt 0.1899 0.4888
vt 0.1900 0.2514
vt 0.0000 0.2516
vt 0.0001 0.0012
vt 0.0000 0.4888
vt 0.5008 0.2050
vt 0.5007 0.0000
vt 0.0001 -0.0000
vt 0.0006 1.0000
vt 1.1122 0.2050
vt 1.1122 1.0000
vt 0.0000 1.0000
vt 1.0000 1.0000
vt 0.9997 0.0000
vt 0.0001 -0.0000
vt 0.3897 0.5390
vt 0.0001 0.5391
vt -0.0000 1.0293
vt 1.3693 1.0293
vt 1.3695 0.0000
vt 0.3898 0.1169
vt 0.0000 1.0000
vt 1.0000 1.0000
vt 1.0000 0.0000
vt 0.0001 -0.0000
vt 0.0000 1.0000
vt 1.0000 1.0000
vt 1.0000 0.0000
vt 0.0001 -0.0000
vt 0.0000 1.0000
vt 1.0000 1.0000
vt 1.0000 0.0000
vt 1.1244 1.4569
vt 1.1434 1.4369
vt 1.1434 0.2440
vt 0.0749 0.0000
vt 0.0000 1.4569
vt 0.9840 0.1664
vt 0.0456 0.0000
vt -0.0000 0.6892
vt 0.9464 0.6892
vt 0.9840 0.6583
vt -0.0000 0.1074
vt 0.0009 1.0900
vt 0.8425 1.0900
vt 0.7519 0.0000
vt 0.0000 1.0000
vt 0.6890 1.0000
vt 0.6890 0.2479
vt 0.0312 -0.0000
vt 1.1232 1.0580
vt 1.0023 0.0000
vt -0.0000 0.1041
vt 0.0011 1.0580
vt 1.7283 0.2540
vt 0.0764 -0.0000
vt 0.0000 1.0000
vt 1.7283 1.0000
vt -0.0000 0.0648
vt 0.0008 0.6573
vt 0.8056 0.6573
vt 0.7191 -0.0000
vt 0.0000 1.0000
vt 1.3084 1.0000
vt 1.3084 0.2611
vt 0.0563 0.0000
vt 1.0000 1.0000
vt 0.8924 -0.0000
vt -0.0000 0.0985
vt 0.0010 1.0000
vt 0.0000 0.0986
vt 0.0010 1.0000
vt 1.0000 1.0000
vt 0.8926 -0.0000
vt 0.0000 1.0000
vt 1.0000 1.0000
vt 1.0000 0.0000
vt 0.0001 -0.0000
vt 1.0000 1.0000
vt 0.8926 -0.0000
vt -0.0000 0.0985
vt 0.0010 1.0000
vt 0.0000 1.0000
vt 1.0000 1.0000
vt 1.0000 0.0000
vt 0.0001 -0.0000
vt 0.0001 -0.0000
vt 0.0000 1.0000
vt 1.0000 1.0000
vt 1.0000 0.0000
vt 0.0000 0.7797
vt 0.7062 0.7797
vt 0.7062 0.5659
vt 0.5464 0.5659
vt 0.5467 0.0003
vt 0.0003 0.0000
vt 0.5842 0.6778
vt 0.5843 0.5648
vt 0.1901 0.5648
vt 0.0000 0.8518
vt 0.0003 0.0000
vt 0.1904 0.0001
vt 0.7765 0.6778
vt 0.7765 0.8518
vt -0.0000 0.7906
vt 0.7286 0.7906
vt 0.7290 0.0006
vt 0.0270 0.0000
vt 0.0001 -0.0000
vt 0.0248 1.0000
vt 1.0340 1.0000
vt 1.0096 0.0000
vt 0.0000 1.0000
vt 0.6075 1.0000
vt 0.6078 0.0639
vt 0.0189 0.0000
vt 0.9976 0.5363
vt 0.9806 0.0000
vt 0.0001 -0.0000
vt 0.0316 1.0000
vt 1.4208 1.0000
vt 1.4060 0.5363
vt 0.5012 0.3379
vt 0.5094 0.0365
vt 0.0272 -0.0000
vt 0.0000 1.0000
vt 1.0000 0.3379
vt 0.9998 1.0000
vt 0.0206 0.0000
vt 0.0000 1.0000
vt 0.7331 1.0000
vt 0.3747 0.2642
vt 0.7481 0.2642
vt 0.3793 0.0401
vt 0.0000 1.0000
vt 1.0000 1.0000
vt 1.0000 0.0000
vt 0.0001 -0.0000
vt 0.0001 -0.0000
vt 0.0000 1.0000
vt 1.0000 1.0000
vt 1.0000 0.0000
vt 0.2399 0.6343
vt 0.0000 0.6343
vt 0.0000 1.0000
vt 1.1855 1.0000
vt 1.1855 0.0000
vt 0.2399 0.1883
vt 0.3018 0.3472
vt 0.3018 0.0000
vt -0.0000 0.0985
vt 0.0000 1.0000
vt 1.0418 0.3472
vt 1.0418 1.0000
vt 0.6991 1.0000
vt 0.6331 -0.0000
vt 0.0001 -0.0000
vt 0.0000 1.0000
vt 0.0040 -0.0000
vt -0.0000 0.5728
vt 0.6361 0.5728
vt 0.6362 0.0009
vt 0.0116 0.0000
vt 0.0000 1.0000
vt 0.9884 1.0000
vt 1.0000 0.0008
vt 0.0065 -0.0000
vt 0.0000 1.0000
vt 1.1356 1.0000
vt 1.1357 0.0331
vt 0.0000 1.0000
vt 0.9964 1.0000
vt 1.0000 0.6875
vt 0.2902 0.6875
vt 0.2982 0.0002
vt 0.0116 0.0000
vt 0.0000 1.0000
vt 1.0000 1.0000
vt 1.0000 0.0000
vt 0.0001 -0.0000
vt 0.0000 1.0000
vt 1.0000 1.0000
vt 1.0000 0.0000
vt 0.0001 -0.0000
vn 0.0000 1.0000 0.0000
g CityEngineMaterial_681_CityEngineMaterial_681_CityEngineMaterial_681_mat
usemtl CityEngineMaterial_681_mat
s 1
f 1/1/1 2/2/1 3/3/1 4/4/1
f 5/5/1 6/6/1 7/7/1 8/8/1
f 9/9/1 10/10/1 11/11/1 12/12/1
f 13/13/1 14/14/1 15/15/1 16/16/1
f 13/13/1 16/16/1 17/17/1 18/18/1
f 19/19/1 20/20/1 21/21/1 22/22/1
f 19/19/1 22/22/1 23/23/1 24/24/1
f 25/25/1 26/26/1 27/27/1 28/28/1
f 29/29/1 25/25/1 28/28/1 30/30/1
f 31/31/1 32/32/1 33/33/1 34/34/1
f 31/31/1 34/34/1 35/35/1 36/36/1
f 37/37/1 38/38/1 39/39/1 40/40/1
f 41/41/1 40/40/1 39/39/1 42/42/1
f 39/39/1 43/43/1 42/42/1
f 42/42/1 44/44/1 41/41/1
f 37/37/1 40/40/1 45/45/1
f 46/46/1 47/47/1 48/48/1 49/49/1
f 50/50/1 48/51/1 51/52/1 52/53/1
f 53/54/1 54/55/1 55/56/1 56/57/1
f 57/58/1 56/57/1 55/56/1 58/59/1
f 55/56/1 59/60/1 58/59/1
f 60/61/1 53/54/1 56/57/1
f 61/62/1 62/63/1 63/64/1 64/65/1
f 65/66/1 66/67/1 67/68/1 68/69/1
f 69/70/1 70/71/1 71/72/1 72/73/1
f 73/74/1 74/75/1 75/76/1 76/77/1
f 77/78/1 78/79/1 79/80/1 80/81/1
f 81/82/1 82/83/1 83/84/1 84/85/1
f 85/86/1 86/87/1 87/88/1 88/89/1
f 89/90/1 90/91/1 91/92/1 92/93/1
f 93/94/1 94/95/1 95/96/1 96/97/1
f 97/98/1 98/99/1 99/100/1 100/101/1
f 101/102/1 102/103/1 103/104/1 104/105/1
f 105/106/1 106/107/1 107/108/1 108/109/1
f 107/108/1 109/110/1 108/109/1
f 110/111/1 105/106/1 108/109/1
f 111/112/1 112/113/1 113/114/1 114/115/1
f 113/114/1 115/116/1 114/115/1
f 116/117/1 111/112/1 114/115/1
f 117/118/1 118/119/1 119/120/1 120/121/1
f 121/122/1 122/123/1 123/124/1 124/125/1
f 125/126/1 126/127/1 127/128/1 128/129/1
f 129/130/1 130/131/1 131/132/1 132/133/1
f 133/134/1 134/135/1 135/136/1 136/137/1
f 137/138/1 138/139/1 139/140/1 140/141/1
f 141/142/1 142/143/1 143/144/1 144/145/1
f 145/146/1 146/147/1 147/148/1 148/149/1
f 149/150/1 150/151/1 151/152/1 152/153/1
f 153/154/1 154/155/1 155/156/1 156/157/1
f 157/158/1 158/159/1 159/160/1 160/161/1
f 159/160/1 161/162/1 160/161/1
f 157/158/1 160/161/1 162/163/1
f 163/164/1 164/165/1 165/166/1 166/167/1
f 167/168/1 168/169/1 169/170/1 170/171/1
f 171/172/1 172/173/1 173/174/1 174/175/1
f 173/174/1 175/176/1 174/175/1
f 171/172/1 174/175/1 176/177/1
f 177/178/1 178/179/1 179/180/1 180/181/1
f 181/182/1 182/183/1 183/184/1 184/185/1
f 181/182/1 184/185/1 185/186/1 186/187/1
f 187/188/1 188/189/1 189/190/1 190/191/1
f 191/192/1 190/191/1 189/190/1 192/193/1
f 189/190/1 193/194/1 192/193/1
f 187/188/1 190/191/1 194/195/1
f 195/196/1 196/197/1 197/198/1 198/199/1
f 199/200/1 195/196/1 198/199/1 200/201/1
f 201/202/1 202/203/1 203/204/1 204/205/1
f 205/206/1 206/207/1 207/208/1 208/209/1
f 205/206/1 208/209/1 209/210/1 210/211/1
f 211/212/1 212/213/1 213/214/1 214/215/1
f 214/215/1 215/216/1 216/217/1 217/218/1
f 218/219/1 213/220/1 219/221/1 220/222/1
f 221/223/1 222/224/1 223/225/1 224/226/1
f 221/223/1 224/226/1 225/227/1
f 226/228/1 227/229/1 228/230/1 229/231/1
f 226/228/1 229/231/1 230/232/1
f 231/233/1 232/234/1 233/235/1 234/236/1
f 235/237/1 236/238/1 237/239/1 238/240/1
f 239/241/1 240/242/1 241/243/1 242/244/1
f 243/245/1 244/246/1 245/247/1 246/248/1
f 247/249/1 248/250/1 249/251/1 250/252/1
f 251/253/1 252/254/1 253/255/1 254/256/1
f 255/257/1 256/258/1 257/259/1 258/260/1
f 259/261/1 260/262/1 261/263/1 262/264/1
f 263/265/1 264/266/1 265/267/1 266/268/1
f 267/269/1 268/270/1 269/271/1 270/272/1
f 271/273/1 272/274/1 273/275/1 274/276/1
f 275/277/1 276/278/1 277/279/1 278/280/1
f 279/281/1 280/282/1 281/283/1 282/284/1
f 279/281/1 282/284/1 283/285/1 284/286/1
f 285/287/1 286/288/1 287/289/1 288/290/1
f 289/291/1 288/290/1 287/289/1 290/292/1
f 291/293/1 285/287/1 288/290/1 292/294/1
f 293/295/1 294/296/1 295/297/1 296/298/1
f 297/299/1 298/300/1 299/301/1 300/302/1
f 301/303/1 302/304/1 303/305/1 304/306/1
f 305/307/1 306/308/1 307/309/1 308/310/1
f 305/307/1 308/310/1 309/311/1 310/312/1
f 311/313/1 312/314/1 313/315/1 314/316/1
f 315/317/1 311/313/1 314/316/1 316/318/1
f 317/319/1 318/320/1 319/321/1 320/322/1
f 319/321/1 321/323/1 320/322/1
f 317/319/1 320/322/1 322/324/1
f 323/325/1 324/326/1 325/327/1 326/328/1
f 327/329/1 328/330/1 329/331/1 330/332/1
f 331/333/1 332/334/1 333/335/1 334/336/1
f 331/333/1 334/336/1 335/337/1 336/338/1
f 337/339/1 338/340/1 339/341/1 340/342/1
f 341/343/1 337/339/1 340/342/1 342/344/1
f 343/345/1 344/346/1 345/347/1 346/348/1
f 347/349/1 348/350/1 349/351/1 350/352/1
f 351/353/1 352/354/1 353/355/1 354/356/1
f 355/357/1 356/358/1 357/359/1 358/360/1
f 359/361/1 360/362/1 361/363/1 362/364/1
f 359/361/1 362/364/1 363/365/1 364/366/1
f 365/367/1 366/368/1 367/369/1 368/370/1
f 369/371/1 370/372/1 371/373/1 372/374/1
