# Blender v2.78 (sub 0) OBJ File: ''
# www.blender.org
mtllib CityEngineMaterial_554.mtl
o CityEngineMaterial_554
v -1040.614502 17.883331 417.883087
v -1040.896362 17.883331 421.463501
v -1040.012451 18.336330 421.532013
v -1039.731567 18.335831 417.951508
v -1039.128418 17.883331 421.600403
v -1038.848633 17.883331 418.019897
v -1041.395020 17.883331 421.424286
v -1040.012329 17.883331 421.530914
v -1039.959595 18.228432 420.857605
v -1041.341919 18.228931 420.749908
v -1039.906860 17.883331 420.184387
v -1041.288818 17.883331 420.075592
v -692.149475 21.237127 440.824707
v -696.401428 21.237127 440.346985
v -696.532104 21.661327 441.502014
v -692.280273 21.661827 441.981110
v -696.662781 21.237127 442.657104
v -692.411072 21.237127 443.137390
v -692.124023 21.237127 440.597198
v -693.733826 21.237127 440.416290
v -693.811584 21.491127 441.108002
v -692.202576 21.491228 441.289093
v -693.889282 21.237127 441.799713
v -692.281189 21.237127 441.980988
v -3.590500 53.417439 -851.417908
v -9.053000 53.417439 -850.562378
v -8.757900 54.467838 -848.677979
v -3.295400 54.467838 -849.533325
v -8.462800 53.417439 -846.793518
v -3.000300 53.417439 -847.648804
v 88.056000 43.561085 -1120.653198
v 87.716400 43.561085 -1123.858521
v 87.021797 43.949184 -1123.784790
v 87.361298 43.949184 -1120.579590
v 86.327103 43.561085 -1123.711304
v 86.666702 43.561085 -1120.506104
v 88.297302 43.561085 -1121.840820
v 87.239601 43.561085 -1121.728760
v 87.300499 43.882084 -1121.154175
v 88.358200 43.882084 -1121.266235
v 87.361298 43.561085 -1120.579590
v 88.418999 43.561085 -1120.691650
v 88.079498 43.561085 -1123.896973
v 87.021797 43.561085 -1123.784790
v 87.074303 43.838284 -1123.288696
v 88.132004 43.838284 -1123.400635
v 87.126900 43.561085 -1122.792480
v 88.184601 43.561085 -1122.904541
v 546.784180 32.947010 573.273987
v 547.211121 32.947006 575.303406
v 547.717529 33.213703 574.527222
v 547.560486 33.213703 573.780518
v 548.493713 32.947006 575.033630
v 548.066772 32.947010 573.004272
v 546.549011 32.947010 573.323486
v 546.722778 32.947006 574.149902
v 547.049072 33.118809 573.649780
v 548.080383 32.947006 573.864380
v 547.580322 33.118809 573.538086
v 547.906616 32.947010 573.038025
v -387.973602 14.863531 -194.724594
v -389.683197 14.863532 -200.356506
v -390.547791 15.347033 -200.093994
v -388.838196 15.347032 -194.462097
v -391.412415 14.863532 -199.831604
v -389.702789 14.863531 -194.199707
v 581.401123 36.682514 525.492004
v 582.677429 36.682510 528.489685
v 583.293823 37.003414 528.227295
v 582.017517 37.003418 525.229614
v 583.910217 36.682510 527.964783
v 582.633911 36.682514 524.967102
v 581.753479 36.682510 527.238892
v 582.701172 36.682510 526.835388
v 582.359314 37.100517 526.032471
v 581.411682 37.100517 526.435974
v 582.017517 36.682514 525.229614
v 581.069824 36.682514 525.632996
v 825.802979 88.449112 -95.242188
v 828.475281 88.449112 -95.585388
v 828.372314 88.769112 -96.388084
v 825.699890 88.769112 -96.044884
v 828.269226 88.449112 -97.190681
v 825.596802 88.449112 -96.847588
v 828.524170 88.449112 -95.204681
v 828.372314 88.449112 -96.388084
v 827.841125 88.660912 -96.319885
v 827.992981 88.660912 -95.136482
v 827.309814 88.449112 -96.251587
v 827.461792 88.449112 -95.068283
v -262.256104 7.613855 278.247894
v -262.451599 7.613855 276.193115
v -263.377502 8.010955 276.281097
v -263.182007 8.010954 278.335999
v -264.303406 7.613855 276.369202
v -264.108002 7.613855 278.424011
v -263.217194 7.613855 277.302612
v -263.340912 7.613855 276.002502
v -263.835114 7.825755 276.049500
v -263.711395 7.825855 277.349609
v -264.329407 7.613855 276.096497
v -264.205688 7.613855 277.396606
v 534.226624 43.966637 392.704010
v 532.715088 43.966637 388.176514
v 531.748108 44.476734 388.499390
v 533.259705 44.476734 393.026886
v 530.781128 43.966637 388.822205
v 532.292725 43.966637 393.349701
v 534.046875 43.966637 390.940704
v 532.711975 43.966637 391.386414
v 532.985779 44.399334 392.206604
v 534.320679 44.399334 391.760986
v 533.259705 43.966637 393.026886
v 534.594482 43.966637 392.581207
v -110.533203 45.125736 -205.132004
v -113.115898 45.125736 -204.676895
v -113.031700 45.339634 -204.199005
v -110.448997 45.339634 -204.654099
v -112.947502 45.125736 -203.721100
v -110.364799 45.125736 -204.176193
v -113.134300 45.125736 -204.781204
v -113.031700 45.125736 -204.199005
v -112.410004 45.404034 -204.308502
v -112.512604 45.404034 -204.890701
v -111.788200 45.125736 -204.418106
v -111.890800 45.125736 -205.000305
v 330.236511 58.678764 -398.387085
v 328.407715 58.678864 -401.609589
v 327.521912 59.099865 -401.106995
v 329.350708 59.099865 -397.884491
v 326.636200 58.678764 -400.604309
v 328.464905 58.678764 -397.381805
v 330.467987 58.678764 -397.979095
v 329.322113 58.678764 -399.998413
v 328.979095 58.841866 -399.803711
v 330.125092 58.841866 -397.784485
v 328.636108 58.678764 -399.609100
v 329.782104 58.678764 -397.589813
v 173.643707 45.856071 -1051.244385
v 174.603897 45.856071 -1051.372437
v 174.059998 46.074970 -1051.788574
v 174.201599 45.856071 -1054.396973
v 173.785400 46.074970 -1053.852539
v 173.241394 45.856071 -1054.268555
v 173.313995 45.856071 -1052.472290
v 174.317703 45.856071 -1052.605835
v 173.749100 46.084873 -1053.041016
v 174.081604 45.856071 -1054.381104
v 173.646500 46.084873 -1053.812012
v 173.077896 45.856071 -1054.246826
v 290.553192 53.839542 -269.131897
v 290.316010 53.839546 -271.977692
v 289.963013 54.001045 -271.560486
v 290.135986 54.001045 -269.484894
v 289.545807 53.839546 -271.913513
v 289.782990 53.839542 -269.067688
v 780.732971 105.406548 -273.771057
v 782.734314 105.406548 -269.261871
v 783.377991 105.984642 -270.932678
v 782.403870 105.984642 -273.127472
v 785.048828 105.406548 -270.289062
v 783.047485 105.406548 -274.798279
v 780.206726 105.406548 -273.537384
v 781.183777 105.406548 -271.335663
v 781.796082 105.956444 -272.925079
v 783.735413 105.406548 -272.468079
v 782.145874 105.956444 -273.080383
v 782.758179 105.406548 -274.669861
v 751.677612 50.650841 370.600098
v 753.322388 50.650841 368.806885
v 752.840515 50.978840 368.364807
v 751.195679 50.978840 370.158112
v 752.358521 50.650841 367.922791
v 750.713684 50.650841 369.716003
v 752.787720 50.650841 369.933197
v 752.035217 50.650841 369.242889
v 751.615417 50.962238 369.700500
v 752.367981 50.962238 370.390686
v 751.195679 50.650841 370.158112
v 751.948181 50.650841 370.848389
v 364.142395 58.736820 -126.293091
v 366.959015 58.736820 -126.595894
v 365.399292 59.412121 -127.852791
v 366.555511 58.736824 -130.349289
v 365.298615 59.412125 -128.789688
v 363.738892 58.736824 -130.046585
v 364.232910 58.736820 -125.450790
v 365.322388 58.736820 -125.567894
v 364.719086 58.998020 -126.054092
v 364.878815 58.736824 -129.694489
v 364.392609 58.998024 -129.091187
v 363.789307 58.736824 -129.577377
vt -0.0556 -0.0433
vt 0.6232 -0.0433
vt 0.6230 0.1449
vt -0.0558 0.1447
vt -0.0249 -0.0012
vt 0.6539 -0.0012
vt 0.6538 0.1868
vt -0.0250 0.1870
vt -0.0211 -0.0589
vt 0.2410 -0.0589
vt 0.2411 0.0844
vt -0.0209 0.0846
vt -0.0406 -0.0495
vt 0.2214 -0.0495
vt 0.2214 0.0940
vt -0.0407 0.0938
vt -0.0735 -0.0156
vt 0.7469 -0.0156
vt 0.7471 0.2217
vt -0.0733 0.2219
vt -0.0725 -0.0670
vt 0.7478 -0.0670
vt 0.7479 0.1705
vt -0.0725 0.1702
vt -0.0618 -0.0571
vt 0.2488 -0.0571
vt 0.2488 0.0850
vt -0.0616 0.0851
vt -0.0385 -0.0545
vt 0.2718 -0.0545
vt 0.2719 0.0877
vt -0.0385 0.0876
vt -0.0750 -0.0744
vt 1.2726 -0.0744
vt 1.2726 0.4563
vt -0.0750 0.4563
vt -0.0508 -0.0282
vt 1.2967 -0.0282
vt 1.2967 0.5025
vt -0.0508 0.5025
vt -0.0751 -0.0108
vt 0.5406 -0.0108
vt 0.5406 0.1418
vt -0.0751 0.1418
vt -0.0676 -0.0475
vt 0.5482 -0.0475
vt 0.5482 0.1052
vt -0.0676 0.1052
vt -0.0178 -0.0034
vt 0.1854 -0.0034
vt 0.1854 0.1228
vt -0.0178 0.1228
vt -0.0602 -0.0375
vt 0.1430 -0.0375
vt 0.1430 0.0887
vt -0.0602 0.0887
vt -0.0110 -0.0121
vt 0.1922 -0.0121
vt 0.1922 0.0970
vt -0.0110 0.0970
vt -0.0688 -0.0255
vt 0.1344 -0.0255
vt 0.1344 0.0836
vt -0.0688 0.0836
vt -0.0403 -0.0515
vt 0.3663 -0.0515
vt 0.2378 0.0872
vt 0.0882 0.0872
vt -0.0325 -0.0119
vt 0.2245 -0.0119
vt 0.0960 0.1268
vt -0.0701 -0.0318
vt 0.3365 -0.0318
vt 0.2080 0.1069
vt 0.0584 0.1069
vt -0.0128 -0.0600
vt 0.2442 -0.0600
vt 0.1157 0.0787
vt -0.0080 -0.0764
vt 0.1575 -0.0764
vt 0.0747 0.0130
vt -0.0574 -0.0139
vt 0.2146 -0.0139
vt 0.1318 0.0754
vt 0.0254 0.0754
vt -0.0722 -0.0558
vt 0.0934 -0.0558
vt 0.0106 0.0336
vt -0.0368 -0.0438
vt 0.2352 -0.0438
vt 0.1524 0.0456
vt 0.0460 0.0456
vt -0.0154 -0.0081
vt 1.1243 -0.0081
vt 1.1243 0.1904
vt -0.0154 0.1904
vt -0.0656 -0.0458
vt 1.0741 -0.0458
vt 1.0741 0.1527
vt -0.0656 0.1527
vt -0.0105 -0.0152
vt 0.6223 -0.0152
vt 0.6223 0.1291
vt -0.0105 0.1291
vt -0.0729 -0.0686
vt 0.5600 -0.0686
vt 0.5600 0.0757
vt -0.0729 0.0757
vt -0.0741 -0.0612
vt 0.1259 -0.0612
vt 0.1259 0.1268
vt -0.0741 0.1268
vt -0.0424 -0.0296
vt 0.1577 -0.0296
vt 0.1577 0.1584
vt -0.0424 0.1584
vt -0.0400 -0.0583
vt 0.6157 -0.0583
vt 0.6157 0.1535
vt -0.0400 0.1535
vt -0.0347 -0.0395
vt 0.6209 -0.0395
vt 0.6209 0.1723
vt -0.0347 0.1723
vt -0.0458 -0.0018
vt 0.2446 -0.0018
vt 0.2446 0.1383
vt -0.0458 0.1383
vt -0.0741 -0.0235
vt 0.2162 -0.0235
vt 0.2162 0.1166
vt -0.0741 0.1166
vt -0.0244 -0.0700
vt 0.4080 -0.0700
vt 0.4080 0.1418
vt -0.0244 0.1418
vt -0.0497 -0.0760
vt 0.3826 -0.0760
vt 0.3826 0.1359
vt -0.0497 0.1359
vt -0.0247 -0.0666
vt 0.2488 -0.0666
vt 0.2488 0.0465
vt -0.0247 0.0465
vt -0.0463 -0.0366
vt 0.2272 -0.0366
vt 0.2272 0.0765
vt -0.0463 0.0765
vt -0.0849 -0.0338
vt 1.1150 -0.0338
vt 1.1150 0.2528
vt -0.0849 0.2528
vt -0.0095 -0.0165
vt 1.1904 -0.0165
vt 1.1904 0.2701
vt -0.0095 0.2701
vt -0.0446 -0.0287
vt 0.3092 -0.0287
vt 0.3092 0.2144
vt -0.0446 0.2144
vt -0.0044 -0.0430
vt 0.3494 -0.0430
vt 0.3494 0.2001
vt -0.0044 0.2001
vt -0.0379 -0.0297
vt 0.4499 -0.0297
vt 0.4499 0.0689
vt -0.0379 0.0689
vt -0.0118 -0.0474
vt 0.4760 -0.0474
vt 0.4760 0.0512
vt -0.0118 0.0512
vt -0.0678 -0.0237
vt 0.0422 -0.0237
vt 0.0422 0.1046
vt -0.0678 0.1046
vt -0.0058 -0.0277
vt 0.1042 -0.0277
vt 0.1042 0.1006
vt -0.0058 0.1006
vt -0.0625 -0.0703
vt 0.6864 -0.0703
vt 0.6864 0.1525
vt -0.0625 0.1525
vt -0.0508 -0.0582
vt 0.6982 -0.0582
vt 0.6982 0.1646
vt -0.0508 0.1646
vt -0.0653 -0.0021
vt 0.4041 -0.0021
vt 0.4041 0.0842
vt -0.0653 0.0842
vt -0.0621 -0.0471
vt 0.4072 -0.0471
vt 0.4072 0.0392
vt -0.0621 0.0392
vt -0.0653 -0.0022
vt 0.1192 -0.0022
vt 0.0270 0.0991
vt -0.0588 -0.0437
vt 0.5225 -0.0437
vt 0.4302 0.0576
vt 0.0335 0.0576
vt -0.0253 -0.0028
vt 0.1593 -0.0028
vt 0.0671 0.0985
vt -0.0594 -0.0605
vt 0.5219 -0.0605
vt 0.4296 0.0408
vt 0.0329 0.0408
vt -0.0100 -0.0530
vt 0.1829 -0.0530
vt 0.0865 0.0529
vt -0.0345 -0.0710
vt 0.3067 -0.0710
vt 0.2101 0.0349
vt 0.0619 0.0349
vt -0.0525 -0.0731
vt 0.1404 -0.0731
vt 0.0440 0.0328
vt -0.0547 -0.0616
vt 0.2864 -0.0616
vt 0.1899 0.0443
vt 0.0417 0.0443
vt -0.0625 -0.0032
vt 0.5430 -0.0032
vt 0.4611 0.0856
vt 0.0194 0.0856
vt -0.0662 -0.0539
vt 0.0977 -0.0539
vt 0.0158 0.0349
vt -0.0334 -0.0065
vt 0.5721 -0.0065
vt 0.4902 0.0823
vt 0.0485 0.0823
vt -0.0695 -0.0625
vt 0.0944 -0.0625
vt 0.0125 0.0264
vt -0.0606 -0.0024
vt 0.9478 -0.0024
vt 0.6890 0.2821
vt 0.1982 0.2821
vt -0.0631 -0.0651
vt 0.4545 -0.0651
vt 0.1957 0.2194
vt -0.0453 -0.0602
vt 0.9631 -0.0602
vt 0.7043 0.2243
vt 0.2135 0.2243
vt -0.0405 -0.0336
vt 0.4771 -0.0336
vt 0.2183 0.2509
vt -0.0599 -0.0632
vt 0.4325 -0.0632
vt 0.1863 0.2075
vt -0.0434 -0.0173
vt 0.5272 -0.0173
vt 0.2810 0.2534
vt 0.2028 0.2534
vt -0.0780 -0.0248
vt 0.4144 -0.0248
vt 0.1682 0.2458
vt -0.0051 -0.0201
vt 0.5655 -0.0201
vt 0.3194 0.2505
vt 0.2411 0.2505
vt -0.0704 -0.0502
vt 0.4056 -0.0502
vt 0.4056 0.0929
vt -0.0704 0.0929
vt -0.0313 -0.0309
vt 0.4446 -0.0309
vt 0.4446 0.1122
vt -0.0313 0.1122
vt -0.0650 -0.0057
vt 0.1347 -0.0057
vt 0.1347 0.1301
vt -0.0650 0.1301
vt -0.0638 -0.0452
vt 0.1359 -0.0452
vt 0.1359 0.0907
vt -0.0638 0.0907
vt -0.0536 -0.0376
vt 0.5258 -0.0376
vt 0.2361 0.2834
vt -0.0178 -0.0796
vt 0.7543 -0.0796
vt 0.4646 0.2413
vt 0.2719 0.2413
vt -0.0598 -0.0345
vt 0.5195 -0.0345
vt 0.2299 0.2864
vt -0.0148 -0.0720
vt 0.7573 -0.0720
vt 0.4676 0.2489
vt 0.2749 0.2489
vt -0.0178 -0.0719
vt 0.2063 -0.0719
vt 0.0942 0.0522
vt -0.0521 -0.0263
vt 0.7967 -0.0263
vt 0.6846 0.0979
vt 0.0599 0.0979
vt -0.0065 -0.0270
vt 0.2176 -0.0270
vt 0.1056 0.0971
vt -0.0072 -0.0516
vt 0.8416 -0.0516
vt 0.7296 0.0725
vt 0.1048 0.0725
vn -0.4536 0.8905 -0.0357
vn 0.4536 0.8905 0.0354
vn -0.0350 0.8905 0.4536
vn 0.0357 0.8905 -0.4536
vn 0.0383 0.9394 -0.3407
vn -0.0385 0.9394 0.3407
vn -0.0384 0.9394 0.3406
vn -0.0746 0.8760 -0.4766
vn 0.0746 0.8760 0.4766
vn 0.4829 0.8742 -0.0512
vn -0.4830 0.8741 0.0512
vn -0.0512 0.8742 -0.4829
vn 0.0512 0.8742 0.4829
vn 0.0512 0.8741 0.4830
vn -0.3688 0.9263 0.0776
vn 0.0776 0.9262 0.3689
vn 0.3689 0.9262 -0.0776
vn -0.0776 0.9262 -0.3689
vn -0.3688 0.9263 0.0775
vn 0.0776 0.9263 0.3688
vn 0.3687 0.9263 -0.0775
vn -0.0775 0.9263 -0.3688
vn 0.4515 0.8817 -0.1370
vn -0.4514 0.8817 0.1370
vn -0.3975 0.9019 0.1692
vn 0.3974 0.9019 -0.1692
vn 0.1692 0.9019 0.3975
vn -0.1692 0.9019 -0.3975
vn 0.0468 0.9299 0.3647
vn -0.0468 0.9299 -0.3647
vn 0.3648 0.9299 -0.0468
vn -0.3647 0.9299 0.0468
vn 0.3909 0.9197 -0.0372
vn -0.3909 0.9197 0.0372
vn -0.3908 0.9197 0.0372
vn 0.4245 0.8943 -0.1417
vn -0.4245 0.8943 0.1417
vn -0.1417 0.8943 -0.4245
vn 0.1417 0.8943 0.4244
vn -0.0700 0.9150 -0.3972
vn 0.0700 0.9150 0.3972
vn -0.3973 0.9150 0.0700
vn 0.3972 0.9151 -0.0700
vn 0.3323 0.9241 -0.1886
vn -0.3323 0.9241 0.1886
vn 0.3324 0.9241 -0.1886
vn -0.3324 0.9241 0.1886
vn 0.0545 0.9113 0.4082
vn 0.4083 0.9112 -0.0543
vn -0.0546 0.9113 -0.4081
vn -0.4082 0.9113 0.0543
vn 0.0544 0.9113 0.4082
vn 0.4082 0.9113 -0.0543
vn 0.3843 0.9227 -0.0320
vn -0.0320 0.9227 -0.3842
vn -0.3843 0.9227 0.0320
vn 0.0320 0.9227 0.3843
vn -0.3796 0.9097 0.1685
vn 0.1685 0.9097 0.3796
vn 0.3797 0.9097 -0.1685
vn -0.1685 0.9097 -0.3796
vn 0.3796 0.9097 -0.1685
vn 0.3304 0.8939 0.3030
vn -0.3304 0.8939 -0.3030
vn 0.3030 0.8939 -0.3303
vn -0.3030 0.8939 0.3303
vn 0.0460 0.9027 0.4279
vn 0.4279 0.9027 -0.0460
vn -0.0460 0.9027 -0.4279
vn -0.4279 0.9027 0.0460
g CityEngineMaterial_554_CityEngineMaterial_554_CityEngineMaterial_554_mat
usemtl CityEngineMaterial_554_mat
s 1
f 1/1/1 2/2/1 3/3/1 4/4/1
f 5/5/2 6/6/2 4/7/2 3/8/2
f 7/9/3 8/10/3 9/11/3 10/12/3
f 11/13/4 12/14/4 10/15/4 9/16/4
f 13/17/5 14/18/5 15/19/5 16/20/5
f 17/21/6 18/22/6 16/23/6 15/24/6
f 19/25/5 20/26/5 21/27/5 22/28/5
f 23/29/7 24/30/7 22/31/7 21/32/7
f 25/33/8 26/34/8 27/35/8 28/36/8
f 29/37/9 30/38/9 28/39/9 27/40/9
f 31/41/10 32/42/10 33/43/10 34/44/10
f 35/45/11 36/46/11 34/47/11 33/48/11
f 37/49/12 38/50/12 39/51/12 40/52/12
f 41/53/13 42/54/13 40/55/13 39/56/13
f 43/57/12 44/58/12 45/59/12 46/60/12
f 47/61/14 48/62/14 46/63/14 45/64/14
f 49/65/15 50/66/15 51/67/15 52/68/15
f 50/69/16 53/70/16 51/71/16
f 53/72/17 54/73/17 52/74/17 51/75/17
f 54/76/18 49/77/18 52/78/18
f 55/79/19 56/80/19 57/81/19
f 56/82/20 58/83/20 59/84/20 57/85/20
f 58/86/21 60/87/21 59/88/21
f 60/89/22 55/90/22 57/91/22 59/92/22
f 61/93/23 62/94/23 63/95/23 64/96/23
f 65/97/24 66/98/24 64/99/24 63/100/24
f 67/101/25 68/102/25 69/103/25 70/104/25
f 71/105/26 72/106/26 70/107/26 69/108/26
f 73/109/27 74/110/27 75/111/27 76/112/27
f 77/113/28 78/114/28 76/115/28 75/116/28
f 79/117/29 80/118/29 81/119/29 82/120/29
f 83/121/30 84/122/30 82/123/30 81/124/30
f 85/125/31 86/126/31 87/127/31 88/128/31
f 89/129/32 90/130/32 88/131/32 87/132/32
f 91/133/33 92/134/33 93/135/33 94/136/33
f 95/137/34 96/138/34 94/139/34 93/140/34
f 97/141/33 98/142/33 99/143/33 100/144/33
f 101/145/35 102/146/35 100/147/35 99/148/35
f 103/149/36 104/150/36 105/151/36 106/152/36
f 107/153/37 108/154/37 106/155/37 105/156/37
f 109/157/38 110/158/38 111/159/38 112/160/38
f 113/161/39 114/162/39 112/163/39 111/164/39
f 115/165/40 116/166/40 117/167/40 118/168/40
f 119/169/41 120/170/41 118/171/41 117/172/41
f 121/173/42 122/174/42 123/175/42 124/176/42
f 125/177/43 126/178/43 124/179/43 123/180/43
f 127/181/44 128/182/44 129/183/44 130/184/44
f 131/185/45 132/186/45 130/187/45 129/188/45
f 133/189/46 134/190/46 135/191/46 136/192/46
f 137/193/47 138/194/47 136/195/47 135/196/47
f 139/197/48 140/198/48 141/199/48
f 140/200/49 142/201/49 143/202/49 141/203/49
f 142/204/50 144/205/50 143/206/50
f 144/207/51 139/208/51 141/209/51 143/210/51
f 145/211/52 146/212/52 147/213/52
f 146/214/53 148/215/53 149/216/53 147/217/53
f 148/218/50 150/219/50 149/220/50
f 150/221/51 145/222/51 147/223/51 149/224/51
f 151/225/54 152/226/54 153/227/54 154/228/54
f 152/229/55 155/230/55 153/231/55
f 155/232/56 156/233/56 154/234/56 153/235/56
f 156/236/57 151/237/57 154/238/57
f 157/239/58 158/240/58 159/241/58 160/242/58
f 158/243/59 161/244/59 159/245/59
f 161/246/60 162/247/60 160/248/60 159/249/60
f 162/250/61 157/251/61 160/252/61
f 163/253/58 164/254/58 165/255/58
f 164/256/59 166/257/59 167/258/59 165/259/59
f 166/260/62 168/261/62 167/262/62
f 168/263/61 163/264/61 165/265/61 167/266/61
f 169/267/63 170/268/63 171/269/63 172/270/63
f 173/271/64 174/272/64 172/273/64 171/274/64
f 175/275/65 176/276/65 177/277/65 178/278/65
f 179/279/66 180/280/66 178/281/66 177/282/66
f 181/283/67 182/284/67 183/285/67
f 182/286/68 184/287/68 185/288/68 183/289/68
f 184/290/69 186/291/69 185/292/69
f 186/293/70 181/294/70 183/295/70 185/296/70
f 187/297/67 188/298/67 189/299/67
f 188/300/68 190/301/68 191/302/68 189/303/68
f 190/304/69 192/305/69 191/306/69
f 192/307/70 187/308/70 189/309/70 191/310/70
