# Blender v2.78 (sub 0) OBJ File: ''
# www.blender.org
mtllib CityEngineMaterial_764.mtl
o CityEngineMaterial_764
v -1402.638428 13.069038 382.185486
v -1396.736328 13.069038 382.131714
v -1396.736328 16.076838 382.131714
v -1402.638428 16.076838 382.185486
v -1397.515381 13.069037 384.803314
v -1397.515381 16.076838 384.803314
v -1393.350464 13.069037 384.765411
v -1393.350464 16.076838 384.765411
v -1390.589355 13.069039 375.296112
v -1390.589355 16.076839 375.296112
v -1400.641113 13.069039 375.387604
v -1400.641113 16.076839 375.387604
v -440.141113 1.931385 89.767502
v -439.573486 1.931383 105.882896
v -439.573486 4.941583 105.882896
v -440.141113 4.941585 89.767502
v -426.278809 1.931383 106.763496
v -426.278809 4.941583 106.763496
v -426.836212 1.931385 90.648399
v -426.836212 4.941585 90.648399
v -561.681580 2.738383 105.473900
v -561.207214 2.738382 110.564903
v -561.207214 6.233182 110.564903
v -561.681580 6.233183 105.473900
v -551.845093 2.738382 109.701897
v -551.845093 6.233182 109.701897
v -551.987976 2.738383 103.932404
v -551.987976 6.233183 103.932404
v -556.057190 2.738383 104.307404
v -556.057190 6.233183 104.307404
v -556.041077 2.738383 104.953903
v -556.041077 6.233183 104.953903
v -813.213684 4.205963 228.631897
v -815.043274 4.205964 218.247894
v -815.043274 7.416164 218.247894
v -813.213684 7.416163 228.631897
v -819.071411 4.205964 218.953796
v -819.071411 7.416164 218.953796
v -818.754822 4.205964 220.751099
v -818.754822 7.416164 220.751099
v -821.427429 4.205964 221.219498
v -821.427429 7.416164 221.219498
v -819.922424 4.205962 229.807602
v -819.922424 7.416162 229.807602
v -1105.040283 12.635819 491.725586
v -1100.204712 12.635819 492.821289
v -1100.204712 15.574019 492.821289
v -1105.040283 15.574019 491.725708
v -1100.623291 12.635818 496.015686
v -1100.623291 15.574018 496.015686
v -1105.564087 12.635818 495.365906
v -1105.564087 15.574018 495.365906
v -1105.805420 12.635818 497.207703
v -1105.805420 15.574018 497.207703
v -1096.249878 12.635818 498.464386
v -1096.249878 15.574018 498.464386
v -1095.289551 12.635819 491.136688
v -1095.289551 15.574019 491.136688
v -1104.438354 12.635819 489.063904
v -1104.438354 15.574019 489.063904
v -160.592804 1.313760 246.171005
v -166.856506 1.313760 246.766800
v -166.856506 4.833160 246.766800
v -160.592804 4.833160 246.171005
v -166.960999 1.313760 245.670105
v -166.960999 4.833160 245.670105
v -168.930496 1.313760 245.857498
v -168.930496 4.833160 245.857498
v -167.712402 1.313758 258.642487
v -167.712402 4.833158 258.642487
v -159.036194 1.313758 257.817200
v -159.036194 4.833158 257.817200
v 809.687927 97.116638 -253.439285
v 800.789612 97.116638 -254.842285
v 800.789612 100.703438 -254.842285
v 809.687927 100.703438 -253.439285
v 800.002075 97.116638 -249.427887
v 800.002075 100.703438 -249.427887
v 802.343872 97.116638 -249.057678
v 802.343872 100.703438 -249.057678
v 809.203613 97.116638 -250.115479
v 809.203613 100.703438 -250.115479
v 42.535000 35.077507 -1252.994507
v 44.283901 35.077503 -1251.034668
v 44.283901 38.691204 -1251.034668
v 42.535000 38.691208 -1252.994507
v 46.932098 35.077507 -1253.397217
v 46.932098 38.691208 -1253.397217
v 50.374802 35.077503 -1249.539185
v 50.374802 38.691204 -1249.539185
v 57.450401 35.077507 -1255.851318
v 57.450401 38.691208 -1255.851318
v 52.258801 35.077507 -1261.669067
v 52.258801 38.691208 -1261.669067
v -159.318604 1.572091 671.832397
v -159.465302 1.572092 662.043579
v -159.465302 5.283992 662.043579
v -159.318604 5.283990 671.832397
v -162.076797 1.572092 662.118713
v -162.076797 5.283992 662.118713
v -161.857498 1.572090 676.758972
v -161.857498 5.283990 676.758972
v -159.511200 1.572090 676.724426
v -159.511200 5.283990 676.724426
v -159.584305 1.572091 671.840088
v -159.584305 5.283990 671.840088
v -737.967285 3.581480 121.361801
v -736.077271 3.581479 132.146698
v -736.077271 7.675478 132.146698
v -737.967285 7.675480 121.361801
v -715.022217 3.581479 128.453506
v -715.022217 7.675479 128.453506
v -716.929016 3.581481 117.638397
v -716.929016 7.675481 117.638397
v -16.741400 3.784085 94.285004
v -2.835200 3.784085 94.950104
v -2.835200 7.329385 94.950104
v -16.741400 7.329385 94.285004
v -1.788700 3.784188 73.027802
v -1.788700 7.329388 73.027802
v -19.016300 3.784188 72.604698
v -19.016300 7.329388 72.604698
v -17.926500 3.784085 93.856598
v -17.926500 7.329385 93.856598
v -256.392395 5.957945 -274.046387
v -247.488495 5.957945 -278.806488
v -247.488495 9.181645 -278.806488
v -256.392395 9.181644 -274.046387
v -255.190308 5.957948 -293.211914
v -255.190308 9.181647 -293.211914
v -264.079895 5.957947 -288.457611
v -264.079895 9.181646 -288.457611
v 131.604004 39.464672 -446.183807
v 131.945206 39.464672 -444.011505
v 131.945206 42.870274 -444.011505
v 131.604004 42.870274 -446.183807
v 127.154602 39.464672 -443.261292
v 127.154602 42.870274 -443.261292
v 129.010696 39.464668 -431.472412
v 129.010696 42.870270 -431.472412
v 139.262802 39.464668 -433.077911
v 139.262802 42.870270 -433.077911
v 137.070007 39.464672 -447.040192
v 137.070007 42.870274 -447.040192
v 41.944599 38.368366 -1020.851501
v 32.685799 38.368366 -1019.401611
v 32.685799 42.402267 -1019.401611
v 41.944599 42.402267 -1020.851501
v 34.039200 38.368362 -1006.726624
v 34.039200 42.402264 -1006.726624
v 36.945999 38.368362 -1007.181824
v 36.945999 42.402264 -1007.181824
v 36.741199 38.368362 -1009.100220
v 36.741199 42.402264 -1009.100220
v 40.363899 38.368362 -1009.667480
v 40.363899 42.402264 -1009.667480
v 40.569199 38.368362 -1007.749084
v 40.569199 42.402264 -1007.749084
v 43.300499 38.368362 -1008.176880
v 43.300499 42.402264 -1008.176880
v 515.459412 26.016552 292.596893
v 518.122925 26.016550 304.738312
v 518.122925 29.201151 304.738312
v 515.459412 29.201153 292.596893
v 533.590210 26.016550 301.344788
v 533.590210 29.201151 301.344788
v 530.906372 26.016552 289.200287
v 530.906372 29.201153 289.200287
v 331.779510 57.485291 -556.171570
v 332.195190 57.485291 -559.163818
v 332.195190 61.662392 -559.163818
v 331.779510 61.662392 -556.171570
v 332.037292 57.485291 -560.172791
v 332.037292 61.662392 -560.172791
v 323.203613 57.485291 -558.789490
v 323.203613 61.662392 -558.789490
v 321.901093 57.485287 -550.179688
v 321.901093 61.662388 -550.179688
v 324.554108 57.485287 -549.767029
v 324.554108 61.662388 -549.767029
v 613.800598 24.965029 431.908813
v 613.070312 24.965029 428.583405
v 613.070312 28.174730 428.583405
v 613.800598 28.174730 431.908813
v 612.094299 24.965029 428.796814
v 612.094299 28.174730 428.796814
v 611.546326 24.965031 426.299500
v 611.546326 28.174732 426.299500
v 612.521912 24.965031 426.086212
v 612.521912 28.174732 426.086212
v 612.083374 24.965031 424.089691
v 612.083374 28.174732 424.089691
v 598.051880 24.965031 427.157410
v 598.051880 28.174732 427.157410
v 599.767700 24.965029 434.977203
v 599.767700 28.174730 434.977203
v 545.462219 77.918152 -321.220306
v 550.785400 77.918144 -304.092896
v 550.785400 81.116447 -304.092896
v 545.462219 81.116455 -321.220306
v 565.389221 77.918152 -308.620911
v 565.389221 81.116455 -308.620911
v 560.071289 77.918152 -325.741791
v 560.071289 81.116455 -325.741791
v 549.582214 81.116455 -310.829987
v 551.345276 81.116455 -305.157104
v 551.345276 85.316452 -305.157104
v 549.582214 85.316452 -310.829987
v 564.324402 81.116455 -309.181305
v 564.324402 85.316452 -309.181305
v 562.564514 81.116455 -314.847504
v 562.564514 85.316452 -314.847504
v 1174.458008 99.218292 -564.967712
v 1173.783813 99.218292 -567.957703
v 1173.783813 102.658592 -567.957703
v 1174.458008 102.658592 -564.967712
v 1178.015503 99.218292 -568.902527
v 1178.015503 102.658592 -568.902527
v 1174.640015 99.218292 -576.902222
v 1174.640015 102.658592 -576.902222
v 1168.957520 99.218292 -575.633484
v 1168.957520 102.658592 -575.633484
v 1171.511353 99.218292 -564.307800
v 1171.511353 102.658592 -564.307800
vt 0.0000 0.0000
vt 1.6667 0.0000
vt 1.6667 1.0000
vt -0.0000 1.0000
vt 0.3333 0.0000
vt 1.0000 -0.0000
vt 1.0000 1.0000
vt 0.3333 1.0000
vt 0.0000 0.0000
vt 1.0000 -0.0000
vt 1.0000 1.0000
vt -0.0000 1.0000
vt 0.0000 0.0000
vt 2.6667 0.0000
vt 2.6667 1.0000
vt -0.0000 1.0000
vt 0.3333 0.0000
vt 3.0000 -0.0000
vt 3.0000 1.0000
vt 0.3333 1.0000
vt 0.3333 0.0000
vt 2.0000 -0.0000
vt 2.0000 1.0000
vt 0.3333 1.0000
vt 0.3333 0.0000
vt 4.0000 0.0000
vt 4.0000 1.0000
vt 0.3333 1.0000
vt 0.0000 0.0000
vt 3.0000 -0.0000
vt 3.0000 1.0000
vt -0.0000 1.0000
vt 0.3333 0.0000
vt 4.0000 0.0000
vt 4.0000 1.0000
vt 0.3333 1.0000
vt 0.6667 0.0000
vt 3.6667 -0.0000
vt 3.6667 1.0000
vt 0.6667 1.0000
vt 0.3333 0.0000
vt 1.6667 0.0000
vt 1.6667 1.0000
vt 0.3333 1.0000
vt 0.6667 0.0000
vt 3.0000 -0.0000
vt 3.0000 1.0000
vt 0.6667 1.0000
vt 0.3333 0.0000
vt 1.6667 0.0000
vt 1.6667 1.0000
vt 0.3333 1.0000
vt 0.3333 0.0000
vt 1.3333 0.0000
vt 1.3333 1.0000
vt 0.3333 1.0000
vt 0.3333 0.0000
vt 0.4000 0.0000
vt 0.4000 1.0000
vt 0.3333 1.0000
vt 0.0000 0.0000
vt 1.3333 0.0000
vt 1.3333 1.0000
vt -0.0000 1.0000
vt 0.3333 0.0000
vt 3.6667 -0.0000
vt 3.6667 1.0000
vt 0.3333 1.0000
vt 0.3333 0.0000
vt 1.6667 0.0000
vt 1.6667 1.0000
vt 0.3333 1.0000
vt 0.3333 0.0000
vt 1.0000 -0.0000
vt 1.0000 1.0000
vt 0.3333 1.0000
vt 0.3333 0.0000
vt 1.3333 0.0000
vt 1.3333 1.0000
vt 0.3333 1.0000
vt 0.3333 0.0000
vt 3.3333 0.0000
vt 3.3333 1.0000
vt 0.3333 1.0000
vt 0.6667 0.0000
vt 3.0000 -0.0000
vt 3.0000 1.0000
vt 0.6667 1.0000
vt 0.3333 0.0000
vt 1.6667 0.0000
vt 1.6667 1.0000
vt 0.3333 1.0000
vt 0.3333 0.0000
vt 1.0000 -0.0000
vt 1.0000 1.0000
vt 0.3333 1.0000
vt 0.0000 0.0000
vt 1.3333 0.0000
vt 1.3333 1.0000
vt -0.0000 1.0000
vt 0.3333 0.0000
vt 0.6667 0.0000
vt 0.6667 1.0000
vt 0.3333 1.0000
vt 0.3333 0.0000
vt 2.6667 0.0000
vt 2.6667 1.0000
vt 0.3333 1.0000
vt 0.6667 0.0000
vt 2.6667 0.0000
vt 2.6667 1.0000
vt 0.6667 1.0000
vt 0.0000 0.0000
vt 2.3333 0.0000
vt 2.3333 1.0000
vt -0.0000 1.0000
vt 0.3333 0.0000
vt 1.0000 -0.0000
vt 1.0000 1.0000
vt 0.3333 1.0000
vt 0.0000 0.0000
vt 2.0000 -0.0000
vt 2.0000 1.0000
vt -0.0000 1.0000
vt 0.3333 0.0000
vt 0.6667 0.0000
vt 0.6667 1.0000
vt 0.3333 1.0000
vt 1.3333 0.0000
vt 1.3333 1.0000
vt 0.3333 0.0000
vt 4.0000 0.0000
vt 4.0000 1.0000
vt 0.3333 1.0000
vt 0.6667 0.0000
vt 3.3333 0.0000
vt 3.3333 1.0000
vt 0.6667 1.0000
vt 0.0000 0.0000
vt 3.3333 0.0000
vt 3.3333 1.0000
vt -0.0000 1.0000
vt 0.3333 0.0000
vt 2.6667 0.0000
vt 2.6667 1.0000
vt 0.3333 1.0000
vt 0.3333 0.0000
vt 1.6667 0.0000
vt 1.6667 1.0000
vt 0.3333 1.0000
vt 0.0000 0.0000
vt 0.6667 0.0000
vt 0.6667 1.0000
vt -0.0000 1.0000
vt 0.0000 0.0000
vt 1.6667 0.0000
vt 1.6667 1.0000
vt -0.0000 1.0000
vt 0.3333 0.0000
vt 1.3333 0.0000
vt 1.3333 1.0000
vt 0.3333 1.0000
vt 0.6667 0.0000
vt 1.3333 0.0000
vt 1.3333 1.0000
vt 0.6667 1.0000
vt 0.3333 0.0000
vt 1.3333 0.0000
vt 1.3333 1.0000
vt 0.3333 1.0000
vt 0.3333 0.0000
vt 1.6667 0.0000
vt 1.6667 1.0000
vt 0.3333 1.0000
vt 0.0000 0.0000
vt 2.3333 0.0000
vt 2.3333 1.0000
vt -0.0000 1.0000
vt 0.3333 0.0000
vt 2.3333 0.0000
vt 2.3333 1.0000
vt 0.3333 1.0000
vt 0.6667 0.0000
vt 4.0000 0.0000
vt 4.0000 1.0000
vt 0.6667 1.0000
vt 0.3333 0.0000
vt 3.0000 -0.0000
vt 3.0000 1.0000
vt 0.3333 1.0000
vt 0.3333 0.0000
vt 1.0000 -0.0000
vt 1.0000 1.0000
vt 0.3333 1.0000
vt 0.3333 0.0000
vt 4.3333 0.0000
vt 4.3333 1.0000
vt 0.3333 1.0000
vt 0.3333 0.0000
vt 1.0000 -0.0000
vt 1.0000 1.0000
vt 0.3333 1.0000
vt 0.3333 0.0000
vt 1.6667 0.0000
vt 1.6667 1.0000
vt 0.3333 1.0000
vt 0.3333 0.0000
vt 0.4000 0.0000
vt 0.4000 1.0000
vt 0.3333 1.0000
vt 0.6667 0.0000
vt 3.6667 -0.0000
vt 3.6667 1.0000
vt 0.6667 1.0000
vt 0.0000 0.0000
vt 5.6667 0.0000
vt 5.6667 1.0000
vt -0.0000 1.0000
vt 0.6667 0.0000
vt 3.6667 -0.0000
vt 3.6667 1.0000
vt 0.6667 1.0000
vt 0.3333 0.0000
vt 6.0000 0.0000
vt 6.0000 1.0000
vt 0.3333 1.0000
vt 0.0000 0.0000
vt 3.3333 0.0000
vt 3.3333 1.0000
vt -0.0000 1.0000
vt 0.0000 0.0000
vt 5.3333 -0.0000
vt 5.3333 1.0000
vt -0.0000 1.0000
vt 0.3333 0.0000
vt 4.3333 0.0000
vt 4.3333 1.0000
vt 0.3333 1.0000
vt 0.3333 0.0000
vt 5.3333 -0.0000
vt 5.3333 1.0000
vt 0.3333 1.0000
vt 0.6667 0.0000
vt 1.0000 -0.0000
vt 1.0000 1.0000
vt 0.6667 1.0000
vt 0.0000 0.0000
vt 2.3333 0.0000
vt 2.3333 0.5000
vt -0.0000 0.5000
vt 0.6667 0.0000
vt 4.6667 -0.0000
vt 4.6667 0.5000
vt 0.6667 0.5000
vt 0.0000 0.0000
vt 2.3333 0.0000
vt 2.3333 0.5000
vt -0.0000 0.5000
vt 0.3333 0.0000
vt 4.3333 0.0000
vt 4.3333 0.5000
vt 0.3333 0.5000
vt 0.0000 0.0000
vt 0.6667 0.0000
vt 0.6667 1.0000
vt -0.0000 1.0000
vt 0.0000 0.0000
vt 1.3333 0.0000
vt 1.3333 1.0000
vt -0.0000 1.0000
vt 0.0000 0.0000
vt 3.6667 -0.0000
vt 3.6667 1.0000
vt -0.0000 1.0000
vt 0.6667 0.0000
vt 3.6667 -0.0000
vt 3.6667 1.0000
vt 0.6667 1.0000
vt 0.3333 0.0000
vt 4.6667 -0.0000
vt 4.6667 1.0000
vt 0.3333 1.0000
vt 0.6667 0.0000
vt 2.3333 0.0000
vt 2.3333 1.0000
vt 0.6667 1.0000
vt 0.0000 0.0000
vt 3.3333 0.0000
vt 3.3333 1.0000
vt -0.0000 1.0000
vt 0.3333 0.0000
vt 4.6667 -0.0000
vt 4.6667 1.0000
vt 0.3333 1.0000
vt 0.3333 0.0000
vt 1.3333 0.0000
vt 1.3333 1.0000
vt 0.3333 1.0000
vt 0.3333 0.0000
vt 1.0000 -0.0000
vt 1.0000 1.0000
vt 0.3333 1.0000
vt 0.0000 0.0000
vt 1.3333 0.0000
vt 1.3333 1.0000
vt -0.0000 1.0000
vt 0.3333 0.0000
vt 1.0000 -0.0000
vt 1.0000 1.0000
vt 0.3333 1.0000
vt 0.3333 0.0000
vt 1.3333 0.0000
vt 1.3333 1.0000
vt 0.3333 1.0000
vt 0.3333 0.0000
vt 4.6667 -0.0000
vt 4.6667 1.0000
vt 0.3333 1.0000
vt 0.6667 0.0000
vt 3.3333 0.0000
vt 3.3333 1.0000
vt 0.6667 1.0000
vt 0.6667 0.0000
vt 4.0000 0.0000
vt 4.0000 1.0000
vt 0.6667 1.0000
vt 0.3333 0.0000
vt 3.0000 -0.0000
vt 3.0000 1.0000
vt 0.3333 1.0000
vt 0.0000 0.0000
vt 3.3333 0.0000
vt 3.3333 1.0000
vt -0.0000 1.0000
vt 0.3333 0.0000
vt 1.3333 0.0000
vt 1.3333 1.0000
vt 0.3333 1.0000
vt 0.3333 0.0000
vt 0.6667 0.0000
vt 0.6667 1.0000
vt 0.3333 1.0000
vt 0.3333 0.0000
vt 3.0000 -0.0000
vt 3.0000 1.0000
vt 0.3333 1.0000
vt 0.3333 0.0000
vt 3.0000 -0.0000
vt 3.0000 1.0000
vt 0.3333 1.0000
vt 0.3333 0.0000
vt 1.0000 -0.0000
vt 1.0000 1.0000
vt 0.3333 1.0000
vt 0.0000 0.0000
vt 3.0000 -0.0000
vt 3.0000 1.0000
vt -0.0000 1.0000
vt 0.0000 0.0000
vt 1.0000 -0.0000
vt 1.0000 1.0000
vt -0.0000 1.0000
vt 0.3333 0.0000
vt 0.6667 0.0000
vt 0.6667 1.0000
vt 0.3333 1.0000
vt 0.3333 0.0000
vt 1.0000 -0.0000
vt 1.0000 1.0000
vt 0.3333 1.0000
vt 0.6667 0.0000
vt 1.0000 -0.0000
vt 1.0000 1.0000
vt 0.6667 1.0000
vt 0.6667 0.0000
vt 1.3333 0.0000
vt 1.3333 1.0000
vt 0.6667 1.0000
vt 0.0000 0.0000
vt 4.0000 0.0000
vt 4.0000 1.0000
vt -0.0000 1.0000
vt 0.3333 0.0000
vt 2.6667 0.0000
vt 2.6667 1.0000
vt 0.3333 1.0000
vt 0.3333 0.0000
vt 4.3333 0.0000
vt 4.3333 1.0000
vt 0.3333 1.0000
vt 0.6667 0.0000
vt 4.6667 -0.0000
vt 4.6667 1.0000
vt 0.6667 1.0000
vt 0.3333 0.0000
vt 3.6667 -0.0000
vt 3.6667 1.0000
vt 0.3333 1.0000
vt 0.6667 0.0000
vt 4.6667 -0.0000
vt 4.6667 1.0000
vt 0.6667 1.0000
vt 0.0000 0.0000
vt 3.3333 0.0000
vt 3.3333 1.0000
vt -0.0000 1.0000
vt 0.0000 0.0000
vt 1.3333 0.0000
vt 1.3333 1.0000
vt -0.0000 1.0000
vt 0.0000 0.0000
vt 3.0000 -0.0000
vt 3.0000 1.0000
vt -0.0000 1.0000
vt 0.6667 0.0000
vt 2.0000 -0.0000
vt 2.0000 1.0000
vt 0.6667 1.0000
vt 0.3333 0.0000
vt 3.3333 0.0000
vt 3.3333 1.0000
vt 0.3333 1.0000
vt 0.0000 0.0000
vt 0.6667 0.0000
vt 0.6667 1.0000
vt -0.0000 1.0000
vt 0.0000 0.0000
vt 1.0000 -0.0000
vt 1.0000 1.0000
vt -0.0000 1.0000
vt 0.6667 0.0000
vt 2.6667 0.0000
vt 2.6667 1.0000
vt 0.6667 1.0000
vt 0.3333 0.0000
vt 1.6667 0.0000
vt 1.6667 1.0000
vt 0.3333 1.0000
vt 0.0000 0.0000
vt 2.6667 0.0000
vt 2.6667 1.0000
vt -0.0000 1.0000
vt 0.0000 0.0000
vt 0.6667 0.0000
vt 0.6667 1.0000
vt -0.0000 1.0000
vn 0.0091 0.0000 1.0000
vn -0.9600 0.0000 -0.2799
vn 0.9600 0.0000 0.2799
vn -0.0091 0.0000 -1.0000
vn -0.9594 0.0000 -0.2819
vn -0.9994 0.0000 0.0352
vn -0.0661 0.0000 0.9978
vn 0.9994 0.0000 -0.0346
vn 0.0661 0.0000 -0.9978
vn -0.9957 0.0000 0.0928
vn 0.0918 0.0000 0.9958
vn 0.9997 0.0000 -0.0248
vn -0.0918 0.0000 -0.9958
vn -0.9997 0.0000 0.0249
vn 0.9848 0.0000 -0.1735
vn -0.1726 0.0000 -0.9850
vn -0.9848 0.0000 0.1735
vn -0.9850 0.0000 0.1726
vn 0.1726 0.0000 0.9850
vn -0.2210 -0.0000 0.9753
vn -0.9915 0.0000 -0.1299
vn 0.1304 0.0000 -0.9915
vn -0.1304 0.0000 0.9915
vn 0.9915 0.0000 0.1299
vn 0.2210 0.0000 -0.9753
vn -0.9754 0.0000 -0.2206
vn -0.0947 0.0000 -0.9955
vn 0.9955 0.0000 -0.0948
vn -0.9955 0.0000 0.0948
vn 0.0947 0.0000 0.9955
vn 0.9912 0.0000 -0.1325
vn 0.1557 0.0000 -0.9878
vn -0.9896 0.0000 -0.1439
vn -0.1561 0.0000 0.9877
vn 0.1524 0.0000 0.9883
vn 0.9896 0.0000 0.1442
vn -0.7461 0.0000 0.6658
vn 0.6657 0.0000 0.7462
vn 0.7461 0.0000 -0.6658
vn -0.6657 0.0000 -0.7462
vn 0.9999 0.0000 -0.0150
vn -0.0288 0.0000 -0.9996
vn -0.9999 0.0000 0.0150
vn 0.0147 0.0000 0.9999
vn 0.0290 0.0000 0.9996
vn 0.1728 0.0000 0.9850
vn 0.9848 0.0000 -0.1736
vn -0.1743 0.0000 -0.9847
vn -0.0478 0.0000 0.9989
vn 0.9989 0.0000 0.0477
vn 0.0246 0.0000 -0.9997
vn -0.9987 0.0000 0.0512
vn -0.3400 0.0000 0.9404
vn 0.4715 0.0000 0.8819
vn 0.8819 0.0000 -0.4715
vn -0.4716 0.0000 -0.8818
vn -0.8823 0.0000 0.4707
vn -0.9879 0.0000 0.1552
vn -0.1547 0.0000 -0.9880
vn -0.9878 0.0000 0.1555
vn 0.1547 0.0000 0.9880
vn 0.9879 0.0000 -0.1551
vn -0.1548 0.0000 -0.9879
vn -0.9943 0.0000 0.1062
vn 0.9943 0.0000 -0.1062
vn -0.9943 0.0000 0.1064
vn 0.1548 0.0000 0.9880
vn 0.9943 0.0000 -0.1064
vn -0.9768 0.0000 0.2143
vn 0.2143 0.0000 0.9768
vn 0.9764 0.0000 -0.2158
vn -0.2148 0.0000 -0.9767
vn 0.9905 0.0000 0.1376
vn 0.9880 0.0000 -0.1546
vn -0.9887 0.0000 -0.1496
vn -0.1537 0.0000 0.9881
vn 0.6633 0.0000 0.7483
vn 0.9767 0.0000 -0.2145
vn -0.2136 0.0000 -0.9769
vn 0.9768 0.0000 -0.2143
vn 0.2136 0.0000 0.9769
vn -0.9549 0.0000 0.2968
vn 0.2961 0.0000 0.9551
vn 0.9550 0.0000 -0.2966
vn -0.2957 0.0000 -0.9553
vn -0.2956 0.0000 -0.9553
vn 0.9755 0.0000 -0.2200
vn 0.2179 0.0000 0.9760
vn 0.9213 0.0000 -0.3888
vn -0.2179 0.0000 -0.9760
vn -0.9755 0.0000 0.2200
vn 0.2185 0.0000 0.9758
g CityEngineMaterial_764_CityEngineMaterial_764_CityEngineMaterial_764_mat
usemtl CityEngineMaterial_764_mat
s 1
f 1/1/1 2/2/1 3/3/1 4/4/1
f 2/5/2 5/6/2 6/7/2 3/8/2
f 5/9/1 7/10/1 8/11/1 6/12/1
f 7/13/3 9/14/3 10/15/3 8/16/3
f 9/17/4 11/18/4 12/19/4 10/20/4
f 11/21/5 1/22/5 4/23/5 12/24/5
f 13/25/6 14/26/6 15/27/6 16/28/6
f 14/29/7 17/30/7 18/31/7 15/32/7
f 17/33/8 19/34/8 20/35/8 18/36/8
f 19/37/9 13/38/9 16/39/9 20/40/9
f 21/41/10 22/42/10 23/43/10 24/44/10
f 22/45/11 25/46/11 26/47/11 23/48/11
f 25/49/12 27/50/12 28/51/12 26/52/12
f 27/53/13 29/54/13 30/55/13 28/56/13
f 29/57/14 31/58/14 32/59/14 30/60/14
f 31/61/13 21/62/13 24/63/13 32/64/13
f 33/65/15 34/66/15 35/67/15 36/68/15
f 34/69/16 37/70/16 38/71/16 35/72/16
f 37/73/17 39/74/17 40/75/17 38/76/17
f 39/77/16 41/78/16 42/79/16 40/80/16
f 41/81/18 43/82/18 44/83/18 42/84/18
f 43/85/19 33/86/19 36/87/19 44/88/19
f 45/89/20 46/90/20 47/91/20 48/92/20
f 46/93/21 49/94/21 50/95/21 47/96/21
f 49/97/22 51/98/22 52/99/22 50/100/22
f 51/101/21 53/102/21 54/103/21 52/104/21
f 53/105/23 55/106/23 56/107/23 54/108/23
f 55/109/24 57/110/24 58/111/24 56/112/24
f 57/113/25 59/114/25 60/115/25 58/116/25
f 59/117/26 45/118/26 48/119/26 60/120/26
f 61/121/27 62/122/27 63/123/27 64/124/27
f 62/125/28 65/126/28 66/127/28 63/128/28
f 65/126/27 67/129/27 68/130/27 66/127/27
f 67/131/29 69/132/29 70/133/29 68/134/29
f 69/135/30 71/136/30 72/137/30 70/138/30
f 71/139/31 61/140/31 64/141/31 72/142/31
f 73/143/32 74/144/32 75/145/32 76/146/32
f 74/147/33 77/148/33 78/149/33 75/150/33
f 77/151/34 79/152/34 80/153/34 78/154/34
f 79/155/35 81/156/35 82/157/35 80/158/35
f 81/159/36 73/160/36 76/161/36 82/162/36
f 83/163/37 84/164/37 85/165/37 86/166/37
f 84/167/38 87/168/38 88/169/38 85/170/38
f 87/171/37 89/172/37 90/173/37 88/174/37
f 89/175/38 91/176/38 92/177/38 90/178/38
f 91/179/39 93/180/39 94/181/39 92/182/39
f 93/183/40 83/184/40 86/185/40 94/186/40
f 95/187/41 96/188/41 97/189/41 98/190/41
f 96/191/42 99/192/42 100/193/42 97/194/42
f 99/195/43 101/196/43 102/197/43 100/198/43
f 101/199/44 103/200/44 104/201/44 102/202/44
f 103/203/41 105/204/41 106/205/41 104/206/41
f 105/207/45 95/208/45 98/209/45 106/210/45
f 107/211/18 108/212/18 109/213/18 110/214/18
f 108/215/46 111/216/46 112/217/46 109/218/46
f 111/219/47 113/220/47 114/221/47 112/222/47
f 113/223/48 107/224/48 110/225/48 114/226/48
f 115/227/49 116/228/49 117/229/49 118/230/49
f 116/231/50 119/232/50 120/233/50 117/234/50
f 119/235/51 121/236/51 122/237/51 120/238/51
f 121/239/52 123/240/52 124/241/52 122/242/52
f 123/243/53 115/244/53 118/245/53 124/246/53
f 125/247/54 126/248/54 127/249/54 128/250/54
f 126/251/55 129/252/55 130/253/55 127/254/55
f 129/255/56 131/256/56 132/257/56 130/258/56
f 131/259/57 125/260/57 128/261/57 132/262/57
f 133/263/58 134/264/58 135/265/58 136/266/58
f 134/267/59 137/268/59 138/269/59 135/270/59
f 137/271/60 139/272/60 140/273/60 138/274/60
f 139/275/61 141/276/61 142/277/61 140/278/61
f 141/279/62 143/280/62 144/281/62 142/282/62
f 143/283/63 133/284/63 136/285/63 144/286/63
f 145/287/59 146/288/59 147/289/59 148/290/59
f 146/291/64 149/292/64 150/293/64 147/294/64
f 149/295/61 151/296/61 152/297/61 150/298/61
f 151/299/65 153/300/65 154/301/65 152/302/65
f 153/303/61 155/304/61 156/305/61 154/306/61
f 155/307/66 157/308/66 158/309/66 156/310/66
f 157/311/67 159/312/67 160/313/67 158/314/67
f 159/315/68 145/316/68 148/317/68 160/318/68
f 161/319/69 162/320/69 163/321/69 164/322/69
f 162/323/70 165/324/70 166/325/70 163/326/70
f 165/327/71 167/328/71 168/329/71 166/330/71
f 167/331/72 161/332/72 164/333/72 168/334/72
f 169/335/73 170/336/73 171/337/73 172/338/73
f 170/339/74 173/340/74 174/341/74 171/342/74
f 173/343/59 175/344/59 176/345/59 174/346/59
f 175/347/75 177/348/75 178/349/75 176/350/75
f 177/351/76 179/352/76 180/353/76 178/354/76
f 179/355/77 169/356/77 172/357/77 180/358/77
f 181/359/78 182/360/78 183/361/78 184/362/78
f 182/363/79 185/364/79 186/365/79 183/366/79
f 185/367/80 187/368/80 188/369/80 186/370/80
f 187/371/81 189/372/81 190/373/81 188/374/81
f 189/375/78 191/376/78 192/377/78 190/378/78
f 191/379/79 193/380/79 194/381/79 192/382/79
f 193/383/69 195/384/69 196/385/69 194/386/69
f 195/387/81 181/388/81 184/389/81 196/390/81
f 197/391/82 198/392/82 199/393/82 200/394/82
f 198/395/83 201/396/83 202/397/83 199/398/83
f 201/399/84 203/400/84 204/401/84 202/402/84
f 203/403/85 197/404/85 200/405/85 204/406/85
f 205/407/82 206/408/82 207/409/82 208/410/82
f 206/411/83 209/412/83 210/413/83 207/414/83
f 209/415/84 211/416/84 212/417/84 210/418/84
f 211/419/86 205/420/86 208/421/86 212/422/86
f 213/423/87 214/424/87 215/425/87 216/426/87
f 214/427/88 217/428/88 218/429/88 215/430/88
f 217/431/89 219/432/89 220/433/89 218/434/89
f 219/435/90 221/436/90 222/437/90 220/438/90
f 221/439/91 223/440/91 224/441/91 222/442/91
f 223/443/92 213/444/92 216/445/92 224/446/92
