# Blender v2.78 (sub 0) OBJ File: ''
# www.blender.org
mtllib CityEngineMaterial_718.mtl
o CityEngineMaterial_718
v -786.344604 19.540752 293.482788
v -789.274170 19.540752 293.251312
v -789.329712 19.805653 293.949310
v -786.400024 19.805853 294.181091
v -789.385010 19.540752 294.647400
v -786.455627 19.540752 294.879486
v -787.528320 19.540752 293.150085
v -789.255371 19.540752 293.013611
v -789.292725 19.718252 293.481415
v -787.565308 19.718351 293.618011
v -789.329773 19.540752 293.949188
v -787.602173 19.540752 294.085907
v -169.098297 9.901198 10.522202
v -171.642899 9.901198 10.643002
v -171.598999 10.299998 11.567402
v -169.054398 10.299998 11.446602
v -171.555099 9.901198 12.491802
v -169.010498 9.901198 12.371002
v -171.664902 9.901198 10.179502
v -171.598999 9.901198 11.567402
v -170.956802 10.178198 11.536901
v -171.022705 10.178198 10.149002
v -170.314697 9.901198 11.506402
v -170.380493 9.901198 10.118502
v -251.218399 53.278034 -205.499191
v -251.082794 53.278034 -208.533783
v -251.964096 53.601536 -207.727982
v -252.024307 53.601536 -206.380478
v -252.769897 53.278034 -208.609283
v -252.905594 53.278034 -205.574585
v -250.803802 53.278034 -205.480591
v -250.740097 53.278034 -206.904984
v -251.484207 53.551136 -206.224686
v -252.630997 53.278034 -206.989578
v -251.950699 53.551136 -206.245590
v -252.694702 53.278034 -205.565186
v -160.807999 37.159363 227.761795
v -161.308105 37.159363 225.210007
v -162.033707 37.437660 225.352203
v -161.533600 37.437660 227.903900
v -162.759293 37.159363 225.494293
v -162.259201 37.159363 228.046097
v -160.863495 37.159363 226.487900
v -161.776093 37.159363 226.666702
v -161.654800 37.396664 227.285294
v -160.742294 37.396664 227.106506
v -161.533600 37.159363 227.903900
v -160.621094 37.159363 227.725098
v 443.864594 88.239914 -84.970085
v 443.267487 88.239914 -90.524681
v 441.780396 89.019417 -90.364883
v 442.377502 89.019417 -84.810287
v 440.293304 88.239914 -90.204987
v 440.890411 88.239914 -84.650383
v 444.151489 88.239914 -87.299583
v 442.133209 88.239914 -87.082588
v 442.255310 88.835419 -85.946388
v 444.273712 88.835419 -86.163383
v 442.377502 88.239914 -84.810287
v 444.395813 88.239914 -85.027184
v -212.440704 19.499256 -336.088409
v -209.214096 19.499155 -337.816406
v -210.591705 19.907755 -338.233795
v -212.022995 19.907755 -337.467194
v -210.173996 19.499256 -339.612701
v -213.400604 19.499256 -337.884491
v -211.202698 19.499155 -337.040192
v -209.334198 19.499256 -338.040894
v -210.768600 19.924555 -338.475311
v -210.388794 19.499256 -340.013794
v -210.823593 19.924656 -338.578094
v -212.258896 19.499155 -339.012085
v -406.825104 10.208050 -302.399200
v -410.386414 10.208049 -301.318207
v -408.980713 10.787249 -300.567108
v -407.576294 10.787349 -300.993195
v -409.731812 10.208049 -299.161591
v -406.170288 10.208049 -300.241699
v -406.915588 10.208050 -302.697693
v -408.516388 10.208050 -302.211792
v -407.473114 10.637950 -301.654388
v -407.852905 10.208049 -300.025909
v -407.295410 10.637949 -301.069000
v -406.252106 10.208049 -300.511414
v 362.707794 49.718178 150.266022
v 364.608490 49.718174 157.334015
v 365.420105 50.135475 157.115814
v 363.519501 50.135479 150.047714
v 366.231689 49.718174 156.897614
v 364.331085 49.718178 149.829514
v -870.267273 9.611570 179.795807
v -870.624023 9.611571 177.760193
v -871.463501 10.100770 178.956406
v -872.663879 9.611571 178.117706
v -871.467773 10.100770 178.957108
v -872.307312 9.611570 180.153305
v 185.975494 59.268032 -827.582397
v 185.763199 59.268032 -828.937988
v 185.199905 59.544132 -828.849792
v 185.412201 59.544132 -827.494080
v 184.636597 59.268032 -828.761719
v 184.848907 59.268032 -827.405884
v 186.130600 59.268032 -828.373718
v 185.294907 59.268032 -828.242676
v 185.353607 59.451534 -827.868530
v 186.189301 59.451534 -827.999329
v 185.412201 59.268032 -827.494080
v 186.247894 59.268032 -827.625000
v -626.019287 18.926762 237.798203
v -626.182800 18.926762 235.996796
v -626.493713 19.059761 236.369705
v -626.392273 19.059761 237.487396
v -626.866516 18.926762 236.058807
v -626.703125 18.926762 237.860306
v -625.885681 18.926762 237.326904
v -625.966492 18.926762 236.436401
v -626.318115 19.077162 236.858093
v -626.307373 19.077162 236.975296
v -626.739685 18.926762 236.506607
v -626.658875 18.926762 237.397003
v -20.041700 41.755703 -1241.091431
v -18.029400 41.755703 -1242.841553
v -18.533501 42.196003 -1243.421143
v -20.545799 42.196003 -1241.671143
v -19.037701 41.755703 -1244.000854
v -21.049999 41.755703 -1242.250732
v -18.887199 41.755703 -1241.847168
v -19.514200 41.755703 -1242.568237
v -20.030001 42.147503 -1242.119751
v -19.403000 42.147503 -1241.398682
v -20.545799 41.755703 -1241.671143
v -19.918800 41.755703 -1240.950073
v 172.180099 54.185322 -749.944275
v 171.606995 54.185322 -753.411377
v 170.475006 54.807922 -753.224182
v 171.048096 54.807922 -749.757202
v 169.343002 54.185322 -753.037170
v 169.916107 54.185322 -749.570129
v 172.156097 54.185322 -753.502197
v 170.475006 54.185322 -753.224182
v 170.614197 54.648323 -752.382385
v 172.295303 54.648323 -752.660278
v 170.753296 54.185322 -751.540588
v 172.434402 54.185322 -751.818481
v 253.487503 81.191177 -459.853302
v 251.509903 81.191177 -467.189301
v 250.528595 81.574776 -466.924805
v 252.506195 81.574776 -459.588715
v 249.547302 81.191177 -466.660309
v 251.524902 81.191177 -459.324188
v 412.767914 67.590446 -301.688812
v 413.047913 67.590446 -299.696411
v 413.904114 68.170746 -300.832611
v 415.376007 67.590446 -300.023499
v 414.239807 68.170746 -300.879791
v 415.096008 67.590446 -302.015991
v 412.595795 67.590446 -300.468414
v 412.710907 67.590446 -299.648987
v 413.062988 67.829147 -300.116302
v 415.085114 67.590446 -299.982605
v 414.617798 67.829147 -300.334808
v 414.969910 67.590446 -300.802002
v 498.199188 97.360451 -317.037567
v 502.881714 97.360451 -318.316681
v 502.596008 97.841057 -319.362274
v 497.912598 97.841057 -318.082855
v 502.310303 97.360451 -320.407776
v 497.626007 97.360451 -319.128265
v 500.304901 97.360451 -318.736359
v 499.969604 97.360451 -319.963867
v 498.772888 97.910454 -319.637054
v 499.109192 97.910057 -318.409760
v 497.576294 97.360451 -319.310181
v 497.913513 97.360451 -318.083160
v -24.320299 53.119534 -221.650482
v -23.067101 53.119534 -221.870483
v -23.803699 53.381836 -222.387085
v -23.322701 53.119537 -223.326279
v -23.839300 53.381840 -222.589691
v -24.575899 53.119537 -223.106277
v -23.964800 53.119534 -221.411484
v -23.319901 53.119534 -221.524689
v -23.698999 53.254536 -221.790588
v -23.594900 53.119537 -223.090881
v -23.860701 53.254539 -222.711792
v -24.239799 53.119537 -222.977692
vt -0.0703 -0.0726
vt 0.4806 -0.0726
vt 0.4806 0.0678
vt -0.0703 0.0678
vt -0.0544 -0.0481
vt 0.4964 -0.0481
vt 0.4965 0.0923
vt -0.0544 0.0923
vt -0.0502 -0.0303
vt 0.2745 -0.0303
vt 0.2746 0.0637
vt -0.0502 0.0637
vt -0.0122 -0.0344
vt 0.3127 -0.0344
vt 0.3126 0.0597
vt -0.0122 0.0597
vt -0.0422 -0.0617
vt 0.5098 -0.0617
vt 0.5098 0.1566
vt -0.0422 0.1566
vt -0.0408 -0.0331
vt 0.5113 -0.0331
vt 0.5113 0.1852
vt -0.0408 0.1852
vt -0.0631 -0.0171
vt 0.2380 -0.0171
vt 0.2380 0.1346
vt -0.0631 0.1346
vt -0.0815 -0.0472
vt 0.2196 -0.0472
vt 0.2196 0.1045
vt -0.0815 0.1045
vt -0.0623 -0.0347
vt 0.4873 -0.0347
vt 0.3345 0.1289
vt 0.0905 0.1289
vt -0.0172 -0.0563
vt 0.2883 -0.0563
vt 0.1356 0.1073
vt -0.0388 -0.0591
vt 0.5107 -0.0591
vt 0.3580 0.1045
vt 0.1139 0.1045
vt -0.0416 -0.0397
vt 0.2639 -0.0397
vt 0.1112 0.1239
vt -0.0629 -0.0232
vt 0.1950 -0.0232
vt 0.0660 0.1150
vt -0.0057 -0.0629
vt 0.3368 -0.0629
vt 0.2078 0.0752
vt 0.1233 0.0752
vt -0.0454 -0.0156
vt 0.2125 -0.0156
vt 0.0835 0.1225
vt -0.0693 -0.0640
vt 0.2731 -0.0640
vt 0.1442 0.0741
vt 0.0597 0.0741
vt -0.0358 -0.0278
vt 0.4703 -0.0278
vt 0.4703 0.1260
vt -0.0358 0.1260
vt -0.0090 -0.0723
vt 0.4972 -0.0723
vt 0.4972 0.0815
vt -0.0090 0.0815
vt -0.0233 -0.0180
vt 0.1577 -0.0180
vt 0.1577 0.1131
vt -0.0233 0.1131
vt -0.0758 -0.0271
vt 0.1052 -0.0271
vt 0.1052 0.1040
vt -0.0758 0.1040
vt -0.0709 -0.0425
vt 1.0413 -0.0425
vt 1.0413 0.2932
vt -0.0709 0.2932
vt -0.0233 -0.0489
vt 1.0889 -0.0489
vt 1.0889 0.2869
vt -0.0233 0.2869
vt -0.0323 -0.0272
vt 0.3718 -0.0272
vt 0.3718 0.2294
vt -0.0323 0.2294
vt -0.0079 -0.0298
vt 0.3962 -0.0298
vt 0.3962 0.2267
vt -0.0079 0.2267
vt -0.0702 -0.0173
vt 0.7538 -0.0173
vt 0.5247 0.2297
vt 0.1593 0.2297
vt -0.0841 -0.0581
vt 0.3744 -0.0581
vt 0.1449 0.1889
vt -0.0363 -0.0466
vt 0.7876 -0.0466
vt 0.5586 0.2004
vt 0.1931 0.2004
vt -0.0248 -0.0059
vt 0.4336 -0.0059
vt 0.2042 0.2411
vt -0.0349 -0.0832
vt 0.4423 -0.0832
vt 0.2038 0.1740
vt -0.0614 -0.0176
vt 0.4422 -0.0176
vt 0.2033 0.2396
vt 0.1771 0.2396
vt -0.0844 -0.0124
vt 0.3931 -0.0124
vt 0.1544 0.2448
vt -0.0793 -0.0567
vt 0.4243 -0.0567
vt 0.1856 0.2005
vt 0.1594 0.2005
vt -0.0561 -0.0119
vt 0.7510 -0.0119
vt 0.5066 0.2629
vt 0.1883 0.2629
vt -0.0763 -0.0535
vt 0.4124 -0.0535
vt 0.1681 0.2213
vt -0.0325 -0.0335
vt 0.7746 -0.0335
vt 0.5301 0.2414
vt 0.2119 0.2413
vt -0.0125 -0.0531
vt 0.4764 -0.0531
vt 0.2320 0.2218
vt -0.0810 -0.0767
vt 0.2818 -0.0767
vt 0.1004 0.1273
vt -0.0557 -0.0172
vt 0.4397 -0.0172
vt 0.2584 0.1868
vt 0.1257 0.1868
vt -0.0816 -0.0639
vt 0.2812 -0.0639
vt 0.0997 0.1400
vt -0.0430 -0.0290
vt 0.4525 -0.0290
vt 0.2711 0.1750
vt 0.1385 0.1750
vt -0.0539 -0.0891
vt 1.7626 -0.0891
vt 1.7626 0.1438
vt -0.0539 0.1438
vt -0.0651 -0.0368
vt 1.7514 -0.0368
vt 1.7514 0.1961
vt -0.0651 0.1961
vt -0.0631 -0.0719
vt 0.3378 -0.0719
vt 0.1374 0.1499
vt -0.0531 -0.0187
vt 0.3486 -0.0187
vt 0.1482 0.2031
vt 0.1473 0.2031
vt -0.0763 -0.0126
vt 0.3246 -0.0126
vt 0.1241 0.2092
vt -0.0702 -0.0030
vt 0.3315 -0.0030
vt 0.1311 0.2188
vt 0.1302 0.2188
vt -0.0065 -0.0549
vt 0.2397 -0.0549
vt 0.2397 0.0587
vt -0.0065 0.0587
vt -0.0376 -0.0531
vt 0.2086 -0.0531
vt 0.2086 0.0605
vt -0.0376 0.0605
vt -0.0612 -0.0164
vt 0.0906 -0.0164
vt 0.0906 0.0591
vt -0.0612 0.0591
vt -0.0697 -0.0385
vt 0.0820 -0.0385
vt 0.0820 0.0371
vt -0.0697 0.0371
vt -0.0354 -0.0051
vt 0.3016 -0.0051
vt 0.2377 0.0634
vt 0.0286 0.0634
vt -0.0605 -0.0525
vt 0.0674 -0.0525
vt 0.0035 0.0161
vt -0.0345 -0.0565
vt 0.3026 -0.0565
vt 0.2386 0.0121
vt 0.0295 0.0121
vt -0.0385 -0.0364
vt 0.0894 -0.0364
vt 0.0254 0.0322
vt -0.0444 -0.0560
vt 0.1222 -0.0560
vt 0.0498 0.0216
vt 0.0279 0.0216
vt -0.0380 -0.0431
vt 0.1067 -0.0431
vt 0.0344 0.0345
vt -0.0251 -0.0147
vt 0.1415 -0.0147
vt 0.0692 0.0628
vt 0.0472 0.0628
vt -0.0701 -0.0464
vt 0.0746 -0.0464
vt 0.0023 0.0312
vt -0.0322 -0.0923
vt 0.6165 -0.0923
vt 0.6165 0.1231
vt -0.0322 0.1231
vt -0.0688 -0.0158
vt 0.5799 -0.0158
vt 0.5799 0.1996
vt -0.0688 0.1996
vt -0.0853 -0.0764
vt 0.1471 -0.0764
vt 0.1471 0.1153
vt -0.0853 0.1153
vt -0.0528 -0.0231
vt 0.1796 -0.0231
vt 0.1796 0.1686
vt -0.0528 0.1686
vt -0.0095 -0.0302
vt 0.6037 -0.0302
vt 0.6037 0.1976
vt -0.0095 0.1976
vt -0.0133 -0.0358
vt 0.5998 -0.0358
vt 0.5998 0.1920
vt -0.0133 0.1920
vt -0.0018 -0.0084
vt 0.2955 -0.0084
vt 0.2955 0.1610
vt -0.0018 0.1610
vt -0.0602 -0.0259
vt 0.2371 -0.0259
vt 0.2371 0.1435
vt -0.0602 0.1435
vt -0.0687 -0.0098
vt 1.6689 -0.0098
vt 1.6689 0.2386
vt -0.0687 0.2386
vt -0.0777 -0.0472
vt 1.6598 -0.0472
vt 1.6598 0.2012
vt -0.0777 0.2012
vt -0.0688 -0.0360
vt 0.3660 -0.0360
vt 0.1486 0.2150
vt -0.0151 -0.0488
vt 0.4929 -0.0488
vt 0.2756 0.2021
vt 0.2023 0.2021
vt -0.0279 -0.0261
vt 0.4068 -0.0261
vt 0.1895 0.2249
vt -0.0052 -0.0487
vt 0.5028 -0.0487
vt 0.2855 0.2022
vt 0.2122 0.2022
vt -0.0664 -0.0241
vt 0.1124 -0.0241
vt 0.0230 0.0791
vt -0.0032 -0.0336
vt 0.5148 -0.0336
vt 0.4254 0.0696
vt 0.0862 0.0696
vt -0.0127 -0.0789
vt 0.1661 -0.0789
vt 0.0767 0.0242
vt -0.0581 -0.0514
vt 0.4600 -0.0514
vt 0.3706 0.0518
vt 0.0313 0.0518
vt -0.0134 -0.0213
vt 1.0553 -0.0213
vt 1.0553 0.2398
vt -0.0137 0.2398
vt 0.0000 -0.0273
vt 1.0691 -0.0273
vt 1.0689 0.2338
vt -0.0000 0.2338
vt -0.0392 -0.0696
vt 0.2410 -0.0696
vt 0.2410 0.2292
vt -0.0392 0.2290
vt -0.0483 -0.0644
vt 0.2319 -0.0644
vt 0.2323 0.2341
vt -0.0478 0.2343
vt -0.0436 -0.0113
vt 0.2347 -0.0113
vt 0.0956 0.1392
vt -0.0763 -0.0447
vt 0.2470 -0.0447
vt 0.1079 0.1058
vt 0.0629 0.1058
vt -0.0235 -0.0415
vt 0.2548 -0.0415
vt 0.1156 0.1090
vt -0.0203 -0.0639
vt 0.3030 -0.0639
vt 0.1639 0.0866
vt 0.1188 0.0866
vt -0.0409 -0.0694
vt 0.1023 -0.0694
vt 0.0307 0.0080
vt -0.0483 -0.0703
vt 0.2996 -0.0703
vt 0.2279 0.0071
vt 0.0233 0.0071
vt -0.0492 -0.0077
vt 0.0941 -0.0077
vt 0.0224 0.0698
vt -0.0726 -0.0098
vt 0.2752 -0.0098
vt 0.2036 0.0676
vt -0.0010 0.0676
vn 0.0279 0.9353 -0.3528
vn -0.0280 0.9353 0.3528
vn 0.0279 0.9353 -0.3527
vn -0.0279 0.9353 0.3528
vn -0.0188 0.9184 -0.3953
vn 0.0188 0.9184 0.3953
vn -0.3952 0.9184 0.0188
vn 0.3953 0.9184 -0.0188
vn 0.3574 0.9338 0.0160
vn 0.0160 0.9338 -0.3574
vn -0.3574 0.9338 -0.0160
vn -0.0160 0.9338 0.3574
vn 0.3573 0.9338 0.0160
vn 0.3457 0.9359 -0.0677
vn -0.3457 0.9359 0.0677
vn -0.0677 0.9359 -0.3457
vn 0.0677 0.9359 0.3457
vn 0.4595 0.8868 -0.0494
vn -0.4595 0.8868 0.0494
vn -0.0494 0.8868 -0.4595
vn 0.0494 0.8868 0.4595
vn 0.1758 0.9281 0.3282
vn 0.3284 0.9281 -0.1755
vn -0.1758 0.9281 -0.3282
vn -0.3284 0.9281 0.1755
vn 0.1758 0.9281 0.3283
vn -0.1759 0.9281 -0.3283
vn -0.3283 0.9281 0.1759
vn -0.1328 0.8894 -0.4374
vn -0.4374 0.8894 0.1328
vn 0.1327 0.8894 0.4374
vn 0.4374 0.8894 -0.1328
vn 0.1327 0.8894 0.4375
vn -0.4295 0.8957 0.1155
vn 0.4295 0.8957 -0.1155
vn 0.4215 0.9038 -0.0739
vn -0.0739 0.9038 -0.4215
vn -0.4214 0.9039 0.0738
vn 0.0739 0.9038 0.4215
vn 0.4306 0.9000 -0.0674
vn -0.4306 0.9000 0.0674
vn -0.0674 0.9000 -0.4307
vn 0.0674 0.9000 0.4306
vn 0.3598 0.9325 -0.0327
vn -0.0326 0.9325 -0.3598
vn -0.3599 0.9324 0.0326
vn 0.0327 0.9325 0.3598
vn 0.3597 0.9325 -0.0327
vn -0.0327 0.9324 -0.3598
vn -0.3596 0.9325 0.0325
vn 0.0326 0.9325 0.3598
vn 0.3263 0.8676 0.3752
vn -0.3263 0.8676 -0.3752
vn 0.3753 0.8676 -0.3263
vn -0.3753 0.8676 0.3263
vn 0.4706 0.8789 -0.0778
vn -0.4706 0.8789 0.0778
vn -0.0778 0.8789 -0.4705
vn 0.0778 0.8789 0.4706
vn 0.3409 0.9356 -0.0919
vn -0.3409 0.9356 0.0919
vn -0.4948 0.8662 0.0695
vn 0.0695 0.8662 0.4948
vn 0.4948 0.8662 -0.0695
vn -0.0695 0.8662 -0.4948
vn -0.4949 0.8661 0.0695
vn 0.4949 0.8662 -0.0696
vn -0.0695 0.8662 -0.4949
vn 0.1068 0.9142 0.3910
vn -0.1068 0.9142 -0.3910
vn 0.3910 0.9142 -0.1068
vn -0.3909 0.9142 0.1074
vn 0.0659 0.9245 0.3754
vn 0.3754 0.9245 -0.0659
vn -0.0659 0.9245 -0.3754
vn -0.3754 0.9245 0.0659
vn 0.3755 0.9245 -0.0659
vn -0.3755 0.9245 0.0659
g CityEngineMaterial_718_CityEngineMaterial_718_CityEngineMaterial_718_mat
usemtl CityEngineMaterial_718_mat
s 1
f 1/1/1 2/2/1 3/3/1 4/4/1
f 5/5/2 6/6/2 4/7/2 3/8/2
f 7/9/3 8/10/3 9/11/3 10/12/3
f 11/13/4 12/14/4 10/15/4 9/16/4
f 13/17/5 14/18/5 15/19/5 16/20/5
f 17/21/6 18/22/6 16/23/6 15/24/6
f 19/25/7 20/26/7 21/27/7 22/28/7
f 23/29/8 24/30/8 22/31/8 21/32/8
f 25/33/9 26/34/9 27/35/9 28/36/9
f 26/37/10 29/38/10 27/39/10
f 29/40/11 30/41/11 28/42/11 27/43/11
f 30/44/12 25/45/12 28/46/12
f 31/47/13 32/48/13 33/49/13
f 32/50/10 34/51/10 35/52/10 33/53/10
f 34/54/11 36/55/11 35/56/11
f 36/57/12 31/58/12 33/59/12 35/60/12
f 37/61/14 38/62/14 39/63/14 40/64/14
f 41/65/15 42/66/15 40/67/15 39/68/15
f 43/69/16 44/70/16 45/71/16 46/72/16
f 47/73/17 48/74/17 46/75/17 45/76/17
f 49/77/18 50/78/18 51/79/18 52/80/18
f 53/81/19 54/82/19 52/83/19 51/84/19
f 55/85/20 56/86/20 57/87/20 58/88/20
f 59/89/21 60/90/21 58/91/21 57/92/21
f 61/93/22 62/94/22 63/95/22 64/96/22
f 62/97/23 65/98/23 63/99/23
f 65/100/24 66/101/24 64/102/24 63/103/24
f 66/104/25 61/105/25 64/106/25
f 67/107/26 68/108/26 69/109/26
f 68/110/23 70/111/23 71/112/23 69/113/23
f 70/114/27 72/115/27 71/116/27
f 72/117/28 67/118/28 69/119/28 71/120/28
f 73/121/29 74/122/29 75/123/29 76/124/29
f 74/125/30 77/126/30 75/127/30
f 77/128/31 78/129/31 76/130/31 75/131/31
f 78/132/32 73/133/32 76/134/32
f 79/135/29 80/136/29 81/137/29
f 80/138/30 82/139/30 83/140/30 81/141/30
f 82/142/33 84/143/33 83/144/33
f 84/145/32 79/146/32 81/147/32 83/148/32
f 85/149/34 86/150/34 87/151/34 88/152/34
f 89/153/35 90/154/35 88/155/35 87/156/35
f 91/157/36 92/158/36 93/159/36
f 92/160/37 94/161/37 95/162/37 93/163/37
f 94/164/38 96/165/38 95/166/38
f 96/167/39 91/168/39 93/169/39 95/170/39
f 97/171/40 98/172/40 99/173/40 100/174/40
f 101/175/41 102/176/41 100/177/41 99/178/41
f 103/179/42 104/180/42 105/181/42 106/182/42
f 107/183/43 108/184/43 106/185/43 105/186/43
f 109/187/44 110/188/44 111/189/44 112/190/44
f 110/191/45 113/192/45 111/193/45
f 113/194/46 114/195/46 112/196/46 111/197/46
f 114/198/47 109/199/47 112/200/47
f 115/201/48 116/202/48 117/203/48 118/204/48
f 116/205/49 119/206/49 117/207/49
f 119/208/50 120/209/50 118/210/50 117/211/50
f 120/212/51 115/213/51 118/214/51
f 121/215/52 122/216/52 123/217/52 124/218/52
f 125/219/53 126/220/53 124/221/53 123/222/53
f 127/223/54 128/224/54 129/225/54 130/226/54
f 131/227/55 132/228/55 130/229/55 129/230/55
f 133/231/56 134/232/56 135/233/56 136/234/56
f 137/235/57 138/236/57 136/237/57 135/238/57
f 139/239/58 140/240/58 141/241/58 142/242/58
f 143/243/59 144/244/59 142/245/59 141/246/59
f 145/247/60 146/248/60 147/249/60 148/250/60
f 149/251/61 150/252/61 148/253/61 147/254/61
f 151/255/62 152/256/62 153/257/62
f 152/258/63 154/259/63 155/260/63 153/261/63
f 154/262/64 156/263/64 155/264/64
f 156/265/65 151/266/65 153/267/65 155/268/65
f 157/269/66 158/270/66 159/271/66
f 158/272/63 160/273/63 161/274/63 159/275/63
f 160/276/67 162/277/67 161/278/67
f 162/279/68 157/280/68 159/281/68 161/282/68
f 163/283/69 164/284/69 165/285/69 166/286/69
f 167/287/70 168/288/70 166/289/70 165/290/70
f 169/291/71 170/292/71 171/293/71 172/294/71
f 173/295/72 174/296/72 172/297/72 171/298/72
f 175/299/73 176/300/73 177/301/73
f 176/302/74 178/303/74 179/304/74 177/305/74
f 178/306/75 180/307/75 179/308/75
f 180/309/76 175/310/76 177/311/76 179/312/76
f 181/313/73 182/314/73 183/315/73
f 182/316/77 184/317/77 185/318/77 183/319/77
f 184/320/75 186/321/75 185/322/75
f 186/323/78 181/324/78 183/325/78 185/326/78
