# Blender v2.78 (sub 0) OBJ File: ''
# www.blender.org
mtllib CityEngineMaterial_716.mtl
o CityEngineMaterial_716
v -80.766899 14.914235 -215.259903
v -91.159302 14.914234 -213.469299
v -90.112099 14.914233 -207.510406
v -82.025299 14.914234 -212.903900
v -81.343300 14.914234 -209.022903
v -80.400200 14.914234 -213.184006
v -83.785004 15.553736 -214.739899
v -89.744598 15.553736 -213.712997
v -89.137901 15.553735 -210.191498
v -83.178200 15.553735 -211.218307
v -84.095901 15.553735 -211.060196
v -86.482101 15.553735 -210.649002
v -86.061897 15.553735 -208.209793
v -83.675598 15.553735 -208.621002
v 643.022217 88.752449 -260.662903
v 644.593384 88.752441 -250.419785
v 652.835571 88.752441 -251.857590
v 648.207520 88.752449 -258.969513
v 651.376526 88.752449 -259.522308
v 647.828125 88.752449 -261.442200
v 645.932190 89.666641 -252.283585
v 646.953125 89.666641 -252.461685
v 646.374329 89.666641 -256.234894
v 646.486389 89.666649 -259.597687
v 646.868713 89.666641 -257.105713
v 646.987122 89.666641 -256.334290
v 650.711975 89.666641 -254.424789
v 647.369507 89.666641 -253.841690
v 650.094482 89.666649 -257.668488
v 644.851013 89.666649 -259.332489
v -50.504398 45.552650 -920.857971
v -52.755299 45.552650 -920.505493
v -51.021301 45.552650 -909.452576
v -41.486401 45.552650 -910.945679
v -50.802601 45.552650 -922.756470
v -43.520802 45.552650 -923.897522
v -47.925301 46.065147 -920.508118
v -46.420300 46.065147 -910.926697
v -41.602001 46.065147 -911.681519
v -43.106998 46.065147 -921.262878
v -52.639702 46.065147 -919.769592
v -51.942001 46.065147 -915.321228
v -47.226898 46.065147 -916.061829
v -739.129883 11.784728 439.423096
v -740.404419 11.784728 439.317810
v -740.615295 11.784728 441.881897
v -732.826721 11.784730 429.769501
v -733.867981 11.784727 442.439209
v -738.754395 11.784729 434.854797
v -739.575195 11.784730 429.231201
v -740.029175 11.784729 434.753113
v -738.214783 12.231730 433.210602
v -736.940186 12.231730 433.312286
v -736.761780 12.231730 431.142792
v -738.036377 12.231730 431.041107
v -735.406372 12.694928 440.624512
v -734.640930 12.694929 431.312012
v -736.033997 12.694929 431.200897
v -736.383972 12.694929 435.458405
v -737.111572 12.694929 435.398407
v -737.526794 12.694928 440.449402
v 656.035583 99.996262 -351.473083
v 645.146912 99.996254 -348.740356
v 648.385071 99.996254 -335.915955
v 657.067017 99.996254 -339.108765
v 657.294373 99.996254 -338.207977
v 659.283325 99.996254 -339.664978
v 645.658020 101.251656 -346.716156
v 647.637207 101.251656 -338.877869
v 653.231812 101.251656 -340.290466
v 651.252502 101.251656 -348.128784
v 651.338684 101.251656 -347.787384
v 653.026184 101.251656 -341.104462
v 658.316406 101.251656 -342.440277
v 656.629028 101.251656 -349.123169
v 86.906601 21.678909 -61.280697
v 86.064301 21.678911 -66.899399
v 84.162201 21.678911 -66.637604
v 79.024002 21.678911 -67.814598
v 83.996803 21.678911 -68.496399
v 79.693703 21.678909 -60.287895
v -409.765411 7.122407 -46.319801
v -420.769806 7.122407 -45.830200
v -420.058411 7.122405 -29.930098
v -413.346191 7.122406 -34.853100
v -413.139709 7.122405 -30.237898
v -410.054108 7.122406 -34.999599
v -419.105591 8.118507 -44.308201
v -418.536713 8.118505 -31.593899
v -415.902496 8.118505 -31.711098
v -416.203308 8.118506 -38.435501
v -411.556213 8.118506 -38.642200
v -411.403015 8.118507 -44.650799
v 836.036682 85.718109 -60.774986
v 835.845825 85.718109 -60.272484
v 837.583984 85.718109 -59.499485
v 837.114075 85.718109 -64.020584
v 839.016174 85.718109 -63.268684
v 835.927124 85.718109 -60.818283
v 833.340088 85.718109 -61.714386
v 831.520630 85.718109 -62.196186
v 832.767517 85.718208 -65.526283
v 833.235107 85.718109 -61.433685
v 837.941284 87.208305 -60.526184
v 838.808472 87.208305 -62.808285
v 835.477783 87.208305 -64.073883
v 834.610718 87.208305 -61.791885
v 560.716370 29.613323 473.978210
v 559.176819 29.613321 474.566315
v 560.069885 29.613321 476.907013
v 568.516785 29.613323 473.680206
v 557.406128 29.613323 465.311890
v 564.721008 29.613323 463.742798
v -106.708801 38.515995 -1183.200195
v -102.171204 38.515995 -1183.911011
v -102.785103 38.515995 -1187.831543
v -112.250000 38.515995 -1186.348999
v -110.671204 38.515991 -1176.265991
v -105.741501 38.515991 -1177.022461
v 598.960571 29.158230 435.153687
v 601.037292 29.158228 444.616089
v 615.402222 29.158228 441.464508
v 611.088623 29.158230 437.098694
v 614.283813 29.158230 436.397614
v 610.125916 29.158230 432.712311
v 602.546570 29.911728 442.258209
v 613.041687 29.911728 439.955597
v 612.776672 29.911730 438.755005
v 609.579407 29.911728 439.456604
v 604.999817 29.911730 438.500488
v 609.168823 29.911730 437.585785
v 601.318970 29.911730 436.664398
v 604.446716 29.911730 435.980499
v 493.709290 76.673653 -312.157288
v 507.343109 76.673653 -315.881500
v 500.883301 76.673653 -339.525604
v 488.028290 76.673653 -332.915588
v 493.709290 96.431755 -312.157166
v 507.343109 96.431755 -315.881378
v 504.144806 96.431755 -327.587860
v 490.506012 96.431755 -323.862274
v 498.443604 90.043755 -326.030609
v 504.144806 90.043755 -327.587891
v 501.931091 90.043755 -335.690613
v 496.230286 90.043755 -334.133392
v 494.824188 97.143555 -317.944977
v 503.436890 97.143555 -320.297577
v 501.632690 97.143555 -326.901672
v 493.018188 97.143555 -324.548584
v 501.110596 90.599854 -334.253296
v 497.667511 90.599854 -333.312805
v 499.264191 90.599854 -327.467896
v 500.142212 90.599854 -330.404297
v 500.827698 90.599854 -327.894989
v 502.021912 90.599854 -330.917786
v 502.340698 97.143555 -314.514984
v 504.830811 97.143555 -315.195160
v 500.946991 97.143555 -319.617462
vt 0.0009 1.0000
vt 1.1104 1.0000
vt 1.1082 -0.0000
vt 0.1735 0.6516
vt 0.1721 0.0002
vt 0.0000 0.6516
vt 0.0000 1.0000
vt 1.0000 1.0000
vt 1.0000 -0.0000
vt 0.0000 -0.0000
vt 0.0000 -0.0000
vt 0.0000 1.0000
vt 1.0000 1.0000
vt 1.0000 -0.0000
vt 0.0035 0.6255
vt 0.8753 0.6255
vt 0.8609 0.0000
vt 0.2105 0.2614
vt 0.2049 0.0209
vt 0.0000 0.2614
vt 1.0000 1.0000
vt 0.9970 0.7948
vt 0.4628 0.7948
vt 0.0000 0.6719
vt 0.3528 0.6719
vt 0.4621 0.6719
vt 0.8052 -0.0000
vt 0.8150 0.6718
vt 0.3434 0.0235
vt 0.0020 1.0000
vt 1.0656 0.1681
vt 1.0657 0.0002
vt 0.0004 -0.0000
vt 0.0000 0.7115
vt 1.2486 0.1681
vt 1.2483 0.7115
vt 0.0000 1.0000
vt 1.0454 1.0000
vt 1.0456 0.0000
vt 0.0002 0.0000
vt 0.0002 0.0000
vt 0.0000 1.0000
vt 1.0000 1.0000
vt 1.0000 0.0004
vt 0.2756 0.1889
vt 0.2756 0.0000
vt 0.0002 0.0000
vt 1.3606 1.0000
vt 0.0000 1.0000
vt 0.7662 0.1889
vt 1.3588 0.0000
vt 0.7658 0.0000
vt 0.0000 -0.0000
vt 0.0014 1.0000
vt 1.0000 1.0000
vt 0.9986 0.0000
vt 0.0000 1.0000
vt 0.6048 1.0000
vt 0.6046 0.3432
vt 0.3281 0.3432
vt 0.3281 0.0000
vt 0.0000 -0.0000
vt 0.0014 0.0233
vt 0.0000 1.0368
vt 1.1444 1.0368
vt 1.0605 0.2063
vt 1.1409 0.2063
vt 1.0608 0.0000
vt 0.0000 1.0000
vt 0.8309 1.0000
vt 0.8309 0.0000
vt 0.0000 -0.0000
vt 0.0000 1.0000
vt 1.0000 1.0000
vt 1.0000 -0.0000
vt 0.0000 -0.0000
vt 0.9551 0.0000
vt 0.2276 0.0469
vt 0.2394 0.3106
vt 0.0306 1.0000
vt 0.0000 0.3106
vt 1.0000 1.0000
vt 0.0000 -0.0000
vt 0.0000 0.9756
vt 0.5346 0.9756
vt 0.3795 0.3622
vt 0.5347 0.3622
vt 0.3795 0.0704
vt 0.0000 1.0000
vt 1.1356 1.0000
vt 1.1357 0.6580
vt 0.5351 0.6580
vt 0.5352 0.0547
vt 0.0002 0.0000
vt 0.2970 0.1697
vt 0.2993 0.0392
vt 0.0178 -0.0000
vt 0.3036 1.0000
vt 0.0000 0.9787
vt 0.3145 0.1709
vt 0.7211 0.1709
vt 1.0000 0.1368
vt 0.9869 1.0000
vt 0.7223 0.0981
vt 0.0000 -0.0000
vt 0.0000 1.0000
vt 1.0000 1.0000
vt 1.0000 -0.0000
vt 0.2288 0.1674
vt 0.2288 0.0001
vt 0.0000 -0.0000
vt 0.0000 0.9177
vt 1.0760 0.1674
vt 0.9715 0.9177
vt 0.4769 0.3627
vt 0.4769 0.0000
vt 0.0000 -0.0000
vt 0.0001 0.7566
vt 1.2266 0.7566
vt 1.2284 0.3627
vt 0.0000 -0.0000
vt 0.0001 0.6657
vt 1.7609 0.6657
vt 1.3685 0.3091
vt 1.7601 0.3091
vt 1.3684 0.0005
vt 0.0000 1.0000
vt 0.7355 1.0000
vt 0.7354 0.7853
vt 0.5114 0.7853
vt 0.2192 0.4509
vt 0.5113 0.4509
vt 0.0000 -0.0000
vt 0.2192 0.0004
vt 0.0000 0.0011
vt -0.0000 1.6352
vt 1.1970 1.6352
vt 1.0511 -0.0000
vt 0.0006 1.4960
vt 1.5378 1.4960
vt 1.5377 0.0000
vt 0.0000 -0.0000
vt 0.0000 -0.0000
vt 0.0000 1.0000
vt 0.6575 1.0000
vt 0.6575 0.0001
vt 0.0001 1.0000
vt 0.6416 1.0000
vt 0.6416 0.0000
vt 0.0000 -0.0000
vt 0.0000 -0.0000
vt 0.0000 1.0000
vt 1.0000 1.0000
vt 0.5707 0.5459
vt 1.0000 0.5459
vt 0.5707 0.0000
vt 0.0000 -0.0000
vt 0.0000 1.0000
vt 1.0000 1.0000
vt 1.0000 -0.0000
vn 0.0000 1.0000 0.0000
g CityEngineMaterial_716_CityEngineMaterial_716_CityEngineMaterial_716_mat
usemtl CityEngineMaterial_716_mat
s 1
f 1/1/1 2/2/1 3/3/1 4/4/1
f 3/3/1 5/5/1 4/4/1
f 6/6/1 1/1/1 4/4/1
f 7/7/1 8/8/1 9/9/1 10/10/1
f 11/11/1 12/12/1 13/13/1 14/14/1
f 15/15/1 16/16/1 17/17/1 18/18/1
f 17/17/1 19/19/1 18/18/1
f 15/15/1 18/18/1 20/20/1
f 21/21/1 22/22/1 23/23/1 24/24/1
f 25/25/1 24/24/1 23/23/1 26/26/1
f 27/27/1 25/25/1 26/26/1 28/28/1
f 27/27/1 29/29/1 25/25/1
f 21/21/1 24/24/1 30/30/1
f 31/31/1 32/32/1 33/33/1 34/34/1
f 35/35/1 31/31/1 34/34/1 36/36/1
f 37/37/1 38/38/1 39/39/1 40/40/1
f 41/41/1 42/42/1 43/43/1 37/44/1
f 44/45/1 45/46/1 46/47/1 47/48/1
f 46/47/1 48/49/1 47/48/1
f 49/50/1 44/45/1 47/48/1 50/51/1
f 49/50/1 50/51/1 51/52/1
f 52/53/1 53/54/1 54/55/1 55/56/1
f 56/57/1 57/58/1 58/59/1 59/60/1
f 56/57/1 59/60/1 60/61/1 61/62/1
f 62/63/1 63/64/1 64/65/1 65/66/1
f 64/65/1 66/67/1 65/66/1
f 67/68/1 62/63/1 65/66/1
f 68/69/1 69/70/1 70/71/1 71/72/1
f 72/73/1 73/74/1 74/75/1 75/76/1
f 76/77/1 77/78/1 78/79/1 79/80/1
f 78/79/1 80/81/1 79/80/1
f 76/77/1 79/80/1 81/82/1
f 82/83/1 83/84/1 84/85/1 85/86/1
f 84/85/1 86/87/1 85/86/1
f 82/83/1 85/86/1 87/88/1
f 88/89/1 89/90/1 90/91/1 91/92/1
f 88/89/1 91/92/1 92/93/1 93/94/1
f 94/95/1 95/96/1 96/97/1 97/98/1
f 96/97/1 98/99/1 97/98/1
f 99/100/1 94/95/1 97/98/1 100/101/1
f 101/102/1 100/101/1 97/98/1 102/103/1
f 101/102/1 103/104/1 100/101/1
f 104/105/1 105/106/1 106/107/1 107/108/1
f 108/109/1 109/110/1 110/111/1 111/112/1
f 112/113/1 108/109/1 111/112/1 113/114/1
f 114/115/1 115/116/1 116/117/1 117/118/1
f 114/115/1 117/118/1 118/119/1 119/120/1
f 120/121/1 121/122/1 122/123/1 123/124/1
f 122/123/1 124/125/1 123/124/1
f 120/121/1 123/124/1 125/126/1
f 126/127/1 127/128/1 128/129/1 129/130/1
f 130/131/1 126/127/1 129/130/1 131/132/1
f 132/133/1 126/127/1 130/131/1 133/134/1
f 134/135/1 135/136/1 136/137/1 137/138/1
f 138/139/1 139/140/1 140/141/1 141/142/1
f 142/143/1 143/144/1 144/145/1 145/146/1
f 146/147/1 147/148/1 148/149/1 149/150/1
f 150/151/1 151/152/1 152/153/1 153/154/1
f 152/153/1 154/155/1 153/154/1
f 155/156/1 150/151/1 153/154/1
f 156/157/1 157/158/1 147/159/1 158/160/1
