# Blender v2.78 (sub 0) OBJ File: ''
# www.blender.org
mtllib CityEngineMaterial_840.mtl
o CityEngineMaterial_840
v -569.866821 20.309626 -772.023315
v -563.131775 20.309626 -774.593811
v -563.131775 27.002426 -774.593811
v -569.866821 27.002426 -772.023315
v -566.626221 20.309628 -786.105713
v -566.626221 27.002428 -786.105713
v -573.073608 20.309628 -784.144226
v -573.073608 27.002428 -784.144226
v -571.259827 20.309626 -778.169128
v -571.259827 27.002426 -778.169128
v -571.684326 20.309626 -778.007019
v -571.684326 27.002426 -778.007019
v -563.489807 27.002426 -775.773193
v -566.250427 27.002428 -784.867615
v -566.250427 27.514427 -784.867615
v -563.489807 27.514425 -775.773193
v -570.192993 27.002428 -783.670898
v -570.192993 27.514427 -783.670898
v -567.432373 27.002426 -774.576477
v -567.432373 27.514425 -774.576477
v -568.703186 27.002428 -778.762817
v -568.703186 27.514427 -778.762817
v -571.176819 27.002426 -778.012024
v -571.176819 27.514425 -778.012024
v -569.906128 27.002426 -773.825623
v -569.906128 27.514425 -773.825623
v 133.954697 48.172516 -698.358215
v 130.669800 48.172516 -697.469727
v 130.669800 55.010513 -697.469727
v 133.954697 55.010513 -698.358215
v 134.851303 48.172512 -681.973328
v 134.851303 55.010509 -681.973328
v 138.787994 48.172512 -682.589783
v 138.787994 55.010509 -682.589783
v 136.981400 48.172512 -689.297913
v 136.981400 55.010509 -689.297913
v 136.423096 48.172512 -689.210388
v 136.423096 55.010509 -689.210388
v 133.730804 55.010513 -697.968628
v 131.059204 55.010513 -697.245972
v 131.059204 55.405014 -697.245972
v 133.730804 55.405014 -697.968628
v 135.083801 55.010509 -682.331177
v 135.083801 55.404911 -682.331177
v 137.004303 55.010509 -682.632019
v 137.004303 55.405010 -682.632019
v 136.128998 55.010509 -685.875916
v 136.128998 55.405010 -685.875916
v 136.786499 55.010509 -686.053711
v 136.786499 55.405010 -686.053711
v 136.190796 55.010509 -688.852478
v 136.190796 55.405010 -688.852478
v 137.834305 55.010509 -682.762024
v 137.834305 55.405010 -682.762024
v 138.389297 55.010509 -682.848816
v 138.389297 55.405010 -682.848816
v 136.748901 55.010509 -688.940002
v 136.748901 55.405010 -688.940002
vt 0.0000 0.0000
vt 1.6667 0.0000
vt 1.6667 1.0000
vt 0.0000 1.0000
vt 0.3333 0.0000
vt 3.0000 0.0000
vt 3.0000 1.0000
vt 0.3333 1.0000
vt 0.0000 0.0000
vt 1.6667 0.0000
vt 1.6667 1.0000
vt 0.0000 1.0000
vt 0.0000 0.0000
vt 1.3333 -0.0000
vt 1.3333 1.0000
vt 0.0000 1.0000
vt 0.0000 0.0000
vt 0.0667 0.0000
vt 0.0667 1.0000
vt 0.0000 1.0000
vt 0.0000 0.0000
vt 1.3333 -0.0000
vt 1.3333 1.0000
vt 0.0000 1.0000
vt 0.0000 0.9800
vt 2.3333 0.9800
vt 2.3333 1.0000
vt 0.0000 1.0000
vt 0.0000 0.9800
vt 1.0000 0.9800
vt 1.0000 1.0000
vt 0.0000 1.0000
vt 0.6667 0.9800
vt 3.0000 0.9800
vt 3.0000 1.0000
vt 0.6667 1.0000
vt 0.3333 0.9800
vt 1.3333 0.9800
vt 1.3333 1.0000
vt 0.3333 1.0000
vt 1.3333 0.9800
vt 1.3333 1.0000
vt 0.0000 0.9800
vt 0.6667 0.9800
vt 0.6667 1.0000
vt 0.0000 1.0000
vt 0.0000 0.9800
vt 1.0000 0.9800
vt 1.0000 1.0000
vt 0.0000 1.0000
vt 0.0000 0.9800
vt 0.6667 0.9800
vt 0.6667 1.0000
vt 0.0000 1.0000
vt 0.3333 -0.2000
vt 1.6667 -0.2000
vt 1.6667 1.0000
vt 0.3333 1.0000
vt 0.3333 -0.2000
vt 6.3333 -0.2000
vt 6.3333 1.0000
vt 0.3333 1.0000
vt -0.0000 -0.2000
vt 1.6667 -0.2000
vt 1.6667 1.0000
vt 0.0000 1.0000
vt 0.3333 -0.2000
vt 3.0000 -0.2000
vt 3.0000 1.0000
vt 0.3333 1.0000
vt 0.6667 -0.2000
vt 1.0000 -0.2000
vt 1.0000 1.0000
vt 0.6667 1.0000
vt -0.0000 -0.2000
vt 3.6667 -0.2000
vt 3.6667 1.0000
vt 0.0000 1.0000
vt 0.0000 0.9800
vt 1.0000 0.9800
vt 1.0000 1.0000
vt 0.0000 1.0000
vt 0.6667 0.9800
vt 6.6667 0.9800
vt 6.6667 1.0000
vt 0.6667 1.0000
vt 0.3333 0.9800
vt 1.0000 0.9800
vt 1.0000 1.0000
vt 0.3333 1.0000
vt 0.3333 0.9800
vt 1.6667 0.9800
vt 1.6667 1.0000
vt 0.3333 1.0000
vt 0.3333 0.9800
vt 0.6667 0.9800
vt 0.6667 1.0000
vt 0.3333 1.0000
vt 0.0000 0.9800
vt 1.0000 0.9800
vt 1.0000 1.0000
vt 0.0000 1.0000
vt 0.0000 0.9800
vt 2.3333 0.9800
vt 2.3333 1.0000
vt 0.0000 1.0000
vt 0.3333 0.9800
vt 0.6667 0.9800
vt 0.6667 1.0000
vt 0.3333 1.0000
vt 0.0000 0.9800
vt 2.3333 0.9800
vt 2.3333 1.0000
vt 0.0000 1.0000
vt 0.0000 0.9800
vt 0.3333 0.9800
vt 0.3333 1.0000
vt 0.0000 1.0000
vt 4.0000 0.9800
vt 4.0000 1.0000
vn 0.3566 0.0000 0.9343
vn 0.9569 0.0000 -0.2905
vn -0.2911 0.0000 -0.9567
vn -0.9569 0.0000 0.2905
vn -0.3568 0.0000 -0.9342
vn -0.9568 0.0000 0.2906
vn -0.2904 0.0000 -0.9569
vn 0.2904 0.0000 0.9569
vn -0.9569 0.0000 0.2904
vn -0.2611 0.0000 -0.9653
vn -0.9655 0.0000 0.2605
vn 0.1547 0.0000 0.9880
vn 0.9656 0.0000 -0.2600
vn -0.1549 0.0000 -0.9879
vn 0.9655 0.0000 -0.2605
vn 0.2610 0.0000 0.9653
vn 0.9781 0.0000 -0.2082
vn 0.1545 0.0000 0.9880
g CityEngineMaterial_840_CityEngineMaterial_840_CityEngineMaterial_840_mat
usemtl CityEngineMaterial_840_mat
s 1
f 1/1/1 2/2/1 3/3/1 4/4/1
f 2/5/2 5/6/2 6/7/2 3/8/2
f 5/9/3 7/10/3 8/11/3 6/12/3
f 7/13/4 9/14/4 10/15/4 8/16/4
f 9/17/5 11/18/5 12/19/5 10/20/5
f 11/21/6 1/22/6 4/23/6 12/24/6
f 13/25/2 14/26/2 15/27/2 16/28/2
f 14/29/7 17/30/7 18/31/7 15/32/7
f 17/33/4 19/34/4 20/35/4 18/36/4
f 19/37/8 13/38/8 16/39/8 20/40/8
f 19/37/2 21/41/2 22/42/2 20/40/2
f 21/43/7 23/44/7 24/45/7 22/46/7
f 23/47/9 25/48/9 26/49/9 24/50/9
f 25/51/8 19/52/8 20/53/8 26/54/8
f 27/55/10 28/56/10 29/57/10 30/58/10
f 28/59/11 31/60/11 32/61/11 29/62/11
f 31/63/12 33/64/12 34/65/12 32/66/12
f 33/67/13 35/68/13 36/69/13 34/70/13
f 35/71/14 37/72/14 38/73/14 36/74/14
f 37/75/15 27/76/15 30/77/15 38/78/15
f 39/79/10 40/80/10 41/81/10 42/82/10
f 40/83/11 43/84/11 44/85/11 41/86/11
f 43/87/12 45/88/12 46/89/12 44/90/12
f 45/91/15 47/92/15 48/93/15 46/94/15
f 47/95/16 49/96/16 50/97/16 48/98/16
f 49/99/17 51/100/17 52/101/17 50/102/17
f 51/103/11 53/104/11 54/105/11 52/106/11
f 53/107/18 55/108/18 56/109/18 54/110/18
f 55/111/13 57/112/13 58/113/13 56/114/13
f 57/115/14 51/116/14 52/117/14 58/118/14
f 51/116/15 39/119/15 42/120/15 52/117/15
