# Blender v2.78 (sub 0) OBJ File: ''
# www.blender.org
mtllib CityEngineMaterial_526.mtl
o CityEngineMaterial_526
v -1206.060669 23.413025 461.843201
v -1210.533569 23.413025 460.945496
v -1209.769775 23.936426 462.093506
v -1207.209106 23.936424 462.607391
v -1210.918213 23.412924 462.857697
v -1206.445312 23.412924 463.755402
v -1207.047607 23.413025 461.893799
v -1209.643433 23.413025 461.372894
v -1208.857300 23.951424 462.553894
v -1208.228638 23.951424 462.679993
v -1210.038330 23.412924 463.340088
v -1207.442383 23.412924 463.861115
v -741.505676 17.590460 242.090500
v -738.442017 17.590460 241.553604
v -738.537415 17.896959 241.009094
v -741.601196 17.896959 241.546005
v -738.632812 17.590460 240.464600
v -741.696594 17.590460 241.001404
v -738.396729 17.590460 241.811798
v -738.537415 17.590460 241.009094
v -739.315491 18.028460 241.145401
v -739.174805 18.028460 241.948196
v -740.093628 17.590460 241.281799
v -739.952881 17.590460 242.084503
v -146.639297 37.081863 -400.888214
v -149.647903 37.081863 -400.764099
v -149.599701 37.583866 -399.596497
v -146.591095 37.583866 -399.720612
v -149.551498 37.081863 -398.428802
v -146.542892 37.081863 -398.553009
v 486.217285 50.235477 144.648911
v 486.420197 50.235477 148.065613
v 487.831787 50.812977 147.981812
v 487.628906 50.812977 144.565109
v 489.243286 50.235477 147.897919
v 489.040405 50.235477 144.481216
v -300.838409 8.384542 358.710602
v -300.567993 8.384541 361.519989
v -299.392487 8.846641 361.407593
v -299.661285 8.847241 358.598114
v -298.217010 8.384541 361.295197
v -298.484314 8.384542 358.485504
v -299.661285 8.384542 358.598602
v -299.509888 8.384541 360.175690
v -298.622894 8.733241 360.091400
v -298.773712 8.733441 358.513611
v -297.735901 8.384541 360.006989
v -297.885986 8.384542 358.428589
v 187.335602 81.056198 -593.510803
v 194.029007 81.056198 -594.559021
v 192.664200 81.658096 -595.554199
v 188.330795 81.658096 -594.875610
v 193.659393 81.056198 -596.918884
v 186.966003 81.056198 -595.870789
v 187.418198 81.056198 -592.983398
v 190.187805 81.056198 -593.417114
v 188.688599 81.717400 -594.510315
v 188.511398 81.717400 -594.482483
v 189.781799 81.056198 -596.009521
v 187.012207 81.056198 -595.575806
v -120.380997 39.418682 -510.308807
v -120.688499 39.418682 -504.626190
v -119.892097 39.752083 -504.583099
v -119.584602 39.752083 -510.265686
v -119.095703 39.418682 -504.540009
v -118.788300 39.418682 -510.222595
v -120.814201 39.418682 -504.632996
v -119.892097 39.418682 -504.583099
v -119.818703 39.986282 -505.939087
v -120.740799 39.986282 -505.989014
v -119.745399 39.418682 -507.295105
v -120.667397 39.418682 -507.345001
v -636.912781 25.725132 -802.521973
v -635.293030 25.725132 -803.013794
v -635.382812 25.839531 -803.309326
v -637.002502 25.839531 -802.817505
v -635.472412 25.725132 -803.604614
v -637.092224 25.725132 -803.112976
v -636.161194 25.725132 -802.561218
v -636.303406 25.725132 -803.029724
v -636.653015 25.860432 -802.923584
v -636.510681 25.860432 -802.455078
v -637.002502 25.725132 -802.817505
v -636.860291 25.725132 -802.348999
v -38.747299 59.461296 -596.542419
v -41.513699 59.461296 -596.109192
v -41.357899 59.956497 -595.119080
v -38.592300 59.956497 -595.552185
v -41.202099 59.461296 -594.129028
v -38.437199 59.461296 -594.562012
v 413.564911 36.342567 207.568405
v 412.151886 36.342567 208.164001
v 412.448090 36.731964 208.866898
v 413.861206 36.731964 208.271301
v 412.744385 36.342567 209.569702
v 414.157501 36.342567 208.974106
v 412.106415 36.342567 208.056107
v 412.448090 36.342567 208.866898
v 412.796997 36.535866 208.719803
v 412.455292 36.535866 207.909103
v 413.145813 36.342567 208.572800
v 412.804108 36.342567 207.761993
v 997.776611 117.232239 -212.222183
v 994.505188 117.232239 -211.802383
v 996.067383 117.917427 -210.595490
v 996.569702 117.917427 -210.659882
v 994.860474 117.232132 -209.033279
v 998.131897 117.232132 -209.453079
v 996.370911 117.232239 -212.749985
v 994.415771 117.232239 -212.499084
v 995.518921 117.716042 -211.646988
v 994.816101 117.232132 -209.379379
v 995.668274 117.716034 -210.482483
v 996.771423 117.232132 -209.630280
v 607.510620 104.872849 -282.779755
v 608.882874 104.872849 -283.063965
v 608.054382 105.160149 -283.607666
v 608.560974 104.872849 -284.612183
v 608.017822 105.160149 -283.784576
v 607.190002 104.872849 -284.328369
v 607.052429 104.872849 -283.474976
v 608.553772 104.872849 -283.785858
v 608.075989 105.038544 -284.099365
v 607.366028 105.038544 -283.952362
v 608.389282 104.872849 -284.576660
v 606.888611 104.872849 -284.265961
v -420.245087 15.353191 666.437500
v -420.291412 15.353191 668.540527
v -419.647614 15.618892 667.924927
v -419.628998 15.618892 667.081787
v -419.031403 15.353191 668.569275
v -418.985199 15.353191 666.466187
v -420.098297 15.353191 666.925415
v -420.123199 15.353191 668.060608
v -419.543213 15.592591 667.505493
v -418.862091 15.353191 668.088318
v -419.417206 15.592591 667.508179
v -418.837189 15.353191 666.953125
v 117.969200 46.991459 -974.560120
v 118.089600 46.991459 -972.548889
v 118.966698 47.452259 -972.601318
v 118.846298 47.452259 -974.612610
v 119.843803 46.991459 -972.653809
v 119.723396 46.991459 -974.665100
v 117.673203 46.991459 -972.523987
v 118.966698 46.991459 -972.601318
v 118.933800 47.280262 -973.150879
v 117.640297 47.280262 -973.073486
v 118.900902 46.991459 -973.700623
v 117.607399 46.991459 -973.623291
v -294.084106 15.517580 739.944092
v -295.486511 15.517580 738.386230
v -295.520386 15.534780 738.416687
v -294.118011 15.534780 739.974670
v -295.554291 15.517580 738.447327
v -294.151886 15.517580 740.005188
v -295.468414 15.517580 738.369873
v -295.520386 15.517580 738.416687
v -295.237793 15.676579 738.730713
v -295.185699 15.676579 738.683777
v -294.955200 15.517580 739.044617
v -294.903107 15.517580 738.997681
v -362.112305 9.960275 769.088013
v -359.870911 9.960275 769.242676
v -360.807800 10.420375 768.166809
v -361.036499 10.420375 768.151123
v -359.731995 9.960275 767.229919
v -361.973389 9.960275 767.075195
v -360.922485 9.960275 769.590271
v -359.899689 9.960275 769.660828
v -360.375793 10.194075 769.114075
v -359.749298 9.960275 767.481506
v -360.295990 10.194075 767.957581
v -360.772186 9.960275 767.410889
v -480.300415 9.899858 265.763214
v -479.915802 9.899857 268.553986
v -479.190094 10.256656 268.454102
v -479.574707 10.256657 265.663208
v -478.464508 9.899857 268.354095
v -478.849091 9.899858 265.563202
v -480.160706 9.899857 268.587799
v -479.190094 9.899857 268.454102
v -479.288788 10.251856 267.738312
v -480.259308 10.251856 267.872009
v -479.387390 9.899857 267.022491
v -480.358002 9.899857 267.156189
v -348.394104 18.084805 583.715393
v -350.372711 18.084805 581.577881
v -351.126801 18.525705 582.275879
v -349.148193 18.525705 584.413513
v -351.880890 18.084805 582.973999
v -349.902313 18.084805 585.111511
v -350.168915 18.084805 581.389282
v -351.126801 18.084805 582.275879
v -350.714905 18.344904 582.720825
v -349.757111 18.344904 581.834229
v -350.303101 18.084805 583.165771
v -349.345215 18.084805 582.279114
vt -0.0008 -0.0066
vt 0.9094 -0.0066
vt 0.7149 0.2142
vt 0.1939 0.2142
vt -0.0658 -0.0481
vt 0.3233 -0.0481
vt 0.1287 0.1728
vt -0.0288 -0.0320
vt 0.8815 -0.0320
vt 0.6870 0.1888
vt 0.1659 0.1888
vt -0.0127 -0.0152
vt 0.3764 -0.0152
vt 0.1818 0.2057
vt -0.0113 -0.0303
vt 0.5169 -0.0303
vt 0.3167 0.1969
vt 0.1888 0.1969
vt -0.0110 -0.0784
vt 0.3893 -0.0784
vt 0.1892 0.1487
vt -0.0591 -0.0444
vt 0.4691 -0.0444
vt 0.2690 0.1828
vt 0.1410 0.1828
vt -0.0251 -0.0454
vt 0.3752 -0.0454
vt 0.1751 0.1818
vt -0.0281 -0.0166
vt 0.5791 -0.0166
vt 0.5791 0.1068
vt -0.0281 0.1068
vt -0.0746 -0.0355
vt 0.5326 -0.0355
vt 0.5326 0.0879
vt -0.0746 0.0879
vt -0.0118 -0.0673
vt 0.1473 -0.0673
vt 0.1473 0.1091
vt -0.0118 0.1091
vt -0.0484 -0.0286
vt 0.1107 -0.0286
vt 0.1107 0.1478
vt -0.0484 0.1478
vt -0.0491 -0.0279
vt 0.6152 -0.0279
vt 0.6152 0.2527
vt -0.0491 0.2527
vt -0.0065 -0.0692
vt 0.6578 -0.0692
vt 0.6578 0.2114
vt -0.0065 0.2114
vt -0.0424 -0.0583
vt 0.5527 -0.0583
vt 0.5527 0.2072
vt -0.0424 0.2072
vt -0.0415 -0.0528
vt 0.5535 -0.0528
vt 0.5535 0.2128
vt -0.0415 0.2128
vt -0.0643 -0.0034
vt 0.4514 -0.0034
vt 0.4515 0.2283
vt -0.0642 0.2286
vt -0.0575 -0.0164
vt 0.4581 -0.0164
vt 0.4580 0.2156
vt -0.0576 0.2153
vt -0.0321 -0.0403
vt 0.2573 -0.0403
vt 0.2574 0.1345
vt -0.0321 0.1347
vt -0.0226 -0.0390
vt 0.2670 -0.0390
vt 0.2669 0.1360
vt -0.0226 0.1358
vt -0.0703 -0.0051
vt 1.6084 -0.0051
vt 1.3124 0.3263
vt 0.2257 0.3263
vt -0.0787 -0.0292
vt 0.5132 -0.0292
vt 0.2172 0.3022
vt -0.0053 -0.0270
vt 1.6733 -0.0270
vt 1.3774 0.3044
vt 0.2906 0.3044
vt -0.0030 -0.0688
vt 0.5888 -0.0688
vt 0.2929 0.2626
vt -0.0031 -0.0690
vt 0.6915 -0.0690
vt 0.3664 0.2951
vt 0.3220 0.2951
vt -0.0450 -0.0781
vt 0.6052 -0.0781
vt 0.2801 0.2859
vt -0.0542 -0.0724
vt 0.6404 -0.0724
vt 0.3153 0.2916
vt 0.2709 0.2916
vt -0.0485 -0.0848
vt 0.6017 -0.0848
vt 0.2766 0.2792
vt -0.0576 -0.0323
vt 0.9620 -0.0323
vt 0.9620 0.1226
vt -0.0576 0.1226
vt -0.0149 -0.0260
vt 1.0047 -0.0260
vt 1.0047 0.1289
vt -0.0149 0.1289
vt -0.0599 -0.0196
vt 0.1056 -0.0196
vt 0.1056 0.2441
vt -0.0599 0.2441
vt -0.0023 -0.0089
vt 0.1632 -0.0089
vt 0.1632 0.2548
vt -0.0023 0.2548
vt -0.0070 -0.0227
vt 0.3074 -0.0227
vt 0.3074 0.0385
vt -0.0070 0.0385
vt -0.0047 -0.0132
vt 0.3097 -0.0132
vt 0.3097 0.0480
vt -0.0047 0.0480
vt -0.0304 -0.0457
vt 0.0605 -0.0457
vt 0.0605 0.0267
vt -0.0304 0.0267
vt -0.0277 -0.0275
vt 0.0632 -0.0275
vt 0.0632 0.0448
vt -0.0277 0.0448
vt -0.0448 -0.0182
vt 0.6466 -0.0182
vt 0.6464 0.2579
vt -0.0448 0.2579
vt -0.0913 -0.0581
vt 0.5997 -0.0581
vt 0.5997 0.2179
vt -0.0915 0.2179
vt -0.0787 -0.0098
vt 0.2585 -0.0098
vt 0.2585 0.1785
vt -0.0787 0.1785
vt -0.0752 -0.0617
vt 0.2621 -0.0617
vt 0.2621 0.1266
vt -0.0752 0.1266
vt -0.0403 -0.0469
vt 0.1532 -0.0469
vt 0.1532 0.0466
vt -0.0403 0.0466
vt -0.0257 -0.0339
vt 0.1678 -0.0339
vt 0.1678 0.0596
vt -0.0257 0.0596
vt -0.0632 -0.0141
vt 0.5736 -0.0141
vt 0.3041 0.2861
vt 0.2063 0.2861
vt -0.0715 -0.0598
vt 0.4676 -0.0598
vt 0.1981 0.2404
vt -0.0411 -0.0283
vt 0.5957 -0.0283
vt 0.3262 0.2720
vt 0.2284 0.2720
vt -0.0096 -0.0445
vt 0.5294 -0.0445
vt 0.2599 0.2557
vt -0.0401 -0.0186
vt 0.3405 -0.0186
vt 0.1502 0.1935
vt -0.0759 -0.0563
vt 0.5314 -0.0563
vt 0.3411 0.1557
vt 0.1144 0.1557
vt -0.0376 -0.0397
vt 0.3430 -0.0397
vt 0.1527 0.1723
vt -0.0211 -0.0003
vt 0.5862 -0.0003
vt 0.3959 0.2117
vt 0.1692 0.2117
vt -0.0552 -0.0594
vt 0.2873 -0.0594
vt 0.1160 0.1256
vt -0.0358 -0.0094
vt 0.3507 -0.0094
vt 0.1797 0.1756
vt 0.1356 0.1756
vt -0.0820 -0.0130
vt 0.2602 -0.0130
vt 0.0890 0.1720
vt -0.0856 -0.0732
vt 0.3009 -0.0732
vt 0.1297 0.1118
vt 0.0855 0.1118
vt -0.0084 -0.0388
vt 0.3663 -0.0388
vt 0.2675 0.0678
vt 0.0903 0.0678
vt -0.0152 -0.0857
vt 0.1822 -0.0857
vt 0.0836 0.0210
vt -0.0620 -0.0273
vt 0.3125 -0.0273
vt 0.2138 0.0794
vt 0.0366 0.0794
vt -0.0036 -0.0220
vt 0.1938 -0.0220
vt 0.0951 0.0847
vt -0.0260 -0.0667
vt 0.4712 -0.0667
vt 0.3224 0.0950
vt 0.1231 0.0950
vt -0.0438 -0.0587
vt 0.2541 -0.0587
vt 0.1050 0.1029
vt -0.0359 -0.0708
vt 0.4613 -0.0708
vt 0.3125 0.0909
vt 0.1132 0.0909
vt -0.0479 -0.0698
vt 0.2500 -0.0698
vt 0.1009 0.0919
vt -0.0649 -0.0605
vt 0.2035 -0.0605
vt 0.0693 0.0851
vt -0.0377 -0.0572
vt 0.2605 -0.0572
vt 0.1263 0.0885
vt 0.0965 0.0885
vt -0.0343 -0.0088
vt 0.2341 -0.0088
vt 0.0999 0.1368
vt -0.0790 -0.0471
vt 0.2191 -0.0471
vt 0.0849 0.0986
vt 0.0552 0.0986
vt -0.0356 -0.0265
vt 0.3406 -0.0265
vt 0.3406 0.1587
vt -0.0356 0.1587
vt -0.0085 -0.0170
vt 0.3677 -0.0170
vt 0.3677 0.1683
vt -0.0085 0.1683
vt -0.0337 -0.0200
vt 0.2082 -0.0200
vt 0.2082 0.0961
vt -0.0337 0.0961
vt -0.0020 -0.0732
vt 0.2400 -0.0732
vt 0.2400 0.0429
vt -0.0020 0.0429
vt -0.0131 -0.0186
vt 0.3711 -0.0186
vt 0.3711 -0.0096
vt -0.0131 -0.0096
vt -0.0009 -0.0713
vt 0.3834 -0.0713
vt 0.3833 -0.0624
vt -0.0009 -0.0624
vt -0.0171 -0.0018
vt -0.0043 -0.0018
vt -0.0042 0.0809
vt -0.0170 0.0809
vt -0.0562 -0.0445
vt -0.0434 -0.0445
vt -0.0434 0.0383
vt -0.0562 0.0383
vt -0.0545 -0.0324
vt 0.3371 -0.0324
vt 0.1613 0.1608
vt 0.1213 0.1608
vt -0.0156 -0.0086
vt 0.3361 -0.0086
vt 0.1603 0.1847
vt -0.0604 -0.0600
vt 0.3313 -0.0600
vt 0.1554 0.1332
vt 0.1155 0.1332
vt -0.0432 -0.0515
vt 0.3085 -0.0515
vt 0.1327 0.1418
vt -0.0161 -0.0522
vt 0.1627 -0.0522
vt 0.0733 0.0460
vt -0.0353 -0.0492
vt 0.3455 -0.0492
vt 0.2561 0.0490
vt 0.0540 0.0490
vt -0.0324 -0.0683
vt 0.1464 -0.0683
vt 0.0570 0.0300
vt -0.0514 -0.0269
vt 0.3294 -0.0269
vt 0.2400 0.0713
vt 0.0380 0.0713
vt -0.0069 -0.0327
vt 0.5625 -0.0327
vt 0.5625 0.1320
vt -0.0069 0.1320
vt -0.0132 -0.0161
vt 0.5562 -0.0161
vt 0.5562 0.1486
vt -0.0132 0.1486
vt -0.0514 -0.0708
vt 0.1466 -0.0708
vt 0.1466 0.0916
vt -0.0514 0.0916
vt -0.0513 -0.0656
vt 0.1467 -0.0656
vt 0.1467 0.0968
vt -0.0513 0.0968
vt -0.0249 -0.0874
vt 0.6590 -0.0874
vt 0.6590 0.1752
vt -0.0249 0.1752
vt -0.0647 -0.0365
vt 0.6192 -0.0365
vt 0.6192 0.2260
vt -0.0647 0.2260
vt -0.0613 -0.0737
vt 0.2452 -0.0737
vt 0.2452 0.0812
vt -0.0613 0.0812
vt -0.0510 -0.0859
vt 0.2555 -0.0859
vt 0.2555 0.0690
vt -0.0510 0.0690
vn 0.0930 0.8811 -0.4636
vn -0.4637 0.8811 -0.0932
vn -0.0931 0.8811 0.4637
vn 0.4636 0.8811 0.0933
vn -0.4637 0.8811 -0.0930
vn 0.4637 0.8811 0.0931
vn 0.0837 0.8746 0.4776
vn -0.0837 0.8746 -0.4776
vn 0.4776 0.8746 -0.0837
vn -0.4776 0.8746 0.0837
vn -0.0163 0.9188 -0.3944
vn 0.0163 0.9188 0.3944
vn -0.3774 0.9258 0.0224
vn 0.3774 0.9258 -0.0224
vn -0.3627 0.9312 0.0349
vn 0.3628 0.9312 -0.0345
vn -0.3628 0.9312 0.0348
vn 0.0696 0.8930 0.4446
vn 0.4446 0.8930 -0.0696
vn -0.0696 0.8930 -0.4446
vn -0.4446 0.8930 0.0696
vn 0.0697 0.8930 0.4446
vn -0.4447 0.8930 0.0696
vn -0.3851 0.9226 -0.0208
vn 0.3851 0.9226 0.0208
vn -0.0208 0.9227 0.3851
vn 0.0208 0.9227 -0.3851
vn 0.1009 0.9376 0.3327
vn -0.1009 0.9377 -0.3325
vn 0.3326 0.9376 -0.1009
vn -0.3324 0.9377 0.1009
vn -0.0685 0.8965 -0.4376
vn 0.0685 0.8965 0.4376
vn -0.1766 0.8907 -0.4190
vn 0.1766 0.8906 0.4190
vn -0.4190 0.8907 0.1766
vn 0.4191 0.8906 -0.1766
vn -0.0561 0.8977 -0.4370
vn -0.4371 0.8977 0.0561
vn 0.0561 0.8977 0.4371
vn 0.4371 0.8977 -0.0561
vn 0.4371 0.8976 -0.0561
vn 0.0770 0.9252 0.3716
vn 0.3716 0.9252 -0.0772
vn -0.0769 0.9252 -0.3716
vn -0.3717 0.9252 0.0769
vn 0.0770 0.9252 0.3717
vn 0.3716 0.9252 -0.0773
vn -0.0770 0.9252 -0.3717
vn -0.3716 0.9252 0.0770
vn -0.3884 0.9214 -0.0086
vn -0.0088 0.9214 0.3884
vn 0.3884 0.9214 0.0085
vn 0.0089 0.9214 -0.3884
vn -0.3884 0.9214 -0.0085
vn -0.0085 0.9214 0.3884
vn 0.3885 0.9214 0.0085
vn 0.0085 0.9214 -0.3885
vn -0.4636 0.8856 0.0278
vn 0.4636 0.8856 -0.0278
vn 0.0277 0.8855 0.4637
vn -0.0278 0.8856 -0.4636
vn 0.2618 0.9359 -0.2357
vn -0.2619 0.9358 0.2357
vn -0.2358 0.9359 -0.2617
vn 0.2356 0.9359 0.2618
vn -0.0285 0.9098 0.4140
vn 0.4140 0.9098 0.0286
vn 0.0285 0.9098 -0.4140
vn -0.4140 0.9098 -0.0286
vn -0.0286 0.9099 0.4140
vn 0.0286 0.9098 -0.4140
vn -0.4139 0.9099 -0.0286
vn -0.4338 0.8990 0.0598
vn 0.4338 0.8990 -0.0598
vn 0.0598 0.8990 0.4339
vn -0.0598 0.8990 -0.4338
vn 0.2894 0.9190 -0.2679
vn -0.2894 0.9190 0.2678
vn -0.2678 0.9190 -0.2893
vn 0.2678 0.9190 0.2893
g CityEngineMaterial_526_CityEngineMaterial_526_CityEngineMaterial_526_mat
usemtl CityEngineMaterial_526_mat
s 1
f 1/1/1 2/2/1 3/3/1 4/4/1
f 2/5/2 5/6/2 3/7/2
f 5/8/3 6/9/3 4/10/3 3/11/3
f 6/12/4 1/13/4 4/14/4
f 7/15/1 8/16/1 9/17/1 10/18/1
f 8/19/5 11/20/5 9/21/5
f 11/22/3 12/23/3 10/24/3 9/25/3
f 12/26/6 7/27/6 10/28/6
f 13/29/7 14/30/7 15/31/7 16/32/7
f 17/33/8 18/34/8 16/35/8 15/36/8
f 19/37/9 20/38/9 21/39/9 22/40/9
f 23/41/10 24/42/10 22/43/10 21/44/10
f 25/45/11 26/46/11 27/47/11 28/48/11
f 29/49/12 30/50/12 28/51/12 27/52/12
f 31/53/13 32/54/13 33/55/13 34/56/13
f 35/57/14 36/58/14 34/59/14 33/60/14
f 37/61/15 38/62/15 39/63/15 40/64/15
f 41/65/16 42/66/16 40/67/16 39/68/16
f 43/69/17 44/70/17 45/71/17 46/72/17
f 47/73/16 48/74/16 46/75/16 45/76/16
f 49/77/18 50/78/18 51/79/18 52/80/18
f 50/81/19 53/82/19 51/83/19
f 53/84/20 54/85/20 52/86/20 51/87/20
f 54/88/21 49/89/21 52/90/21
f 55/91/22 56/92/22 57/93/22 58/94/22
f 56/95/19 59/96/19 57/97/19
f 59/98/20 60/99/20 58/100/20 57/101/20
f 60/102/23 55/103/23 58/104/23
f 61/105/24 62/106/24 63/107/24 64/108/24
f 65/109/25 66/110/25 64/111/25 63/112/25
f 67/113/26 68/114/26 69/115/26 70/116/26
f 71/117/27 72/118/27 70/119/27 69/120/27
f 73/121/28 74/122/28 75/123/28 76/124/28
f 77/125/29 78/126/29 76/127/29 75/128/29
f 79/129/30 80/130/30 81/131/30 82/132/30
f 83/133/31 84/134/31 82/135/31 81/136/31
f 85/137/32 86/138/32 87/139/32 88/140/32
f 89/141/33 90/142/33 88/143/33 87/144/33
f 91/145/34 92/146/34 93/147/34 94/148/34
f 95/149/35 96/150/35 94/151/35 93/152/35
f 97/153/36 98/154/36 99/155/36 100/156/36
f 101/157/37 102/158/37 100/159/37 99/160/37
f 103/161/38 104/162/38 105/163/38 106/164/38
f 104/165/39 107/166/39 105/167/39
f 107/168/40 108/169/40 106/170/40 105/171/40
f 108/172/41 103/173/41 106/174/41
f 109/175/38 110/176/38 111/177/38
f 110/178/39 112/179/39 113/180/39 111/181/39
f 112/182/40 114/183/40 113/184/40
f 114/185/42 109/186/42 111/187/42 113/188/42
f 115/189/43 116/190/43 117/191/43
f 116/192/44 118/193/44 119/194/44 117/195/44
f 118/196/45 120/197/45 119/198/45
f 120/199/46 115/200/46 117/201/46 119/202/46
f 121/203/47 122/204/47 123/205/47 124/206/47
f 122/207/48 125/208/48 123/209/48
f 125/210/49 126/211/49 124/212/49 123/213/49
f 126/214/50 121/215/50 124/216/50
f 127/217/51 128/218/51 129/219/51 130/220/51
f 128/221/52 131/222/52 129/223/52
f 131/224/53 132/225/53 130/226/53 129/227/53
f 132/228/54 127/229/54 130/230/54
f 133/231/55 134/232/55 135/233/55
f 134/234/56 136/235/56 137/236/56 135/237/56
f 136/238/57 138/239/57 137/240/57
f 138/241/58 133/242/58 135/243/58 137/244/58
f 139/245/59 140/246/59 141/247/59 142/248/59
f 143/249/60 144/250/60 142/251/60 141/252/60
f 145/253/61 146/254/61 147/255/61 148/256/61
f 149/257/62 150/258/62 148/259/62 147/260/62
f 151/261/63 152/262/63 153/263/63 154/264/63
f 155/265/64 156/266/64 154/267/64 153/268/64
f 157/269/65 158/270/65 159/271/65 160/272/65
f 161/273/66 162/274/66 160/275/66 159/276/66
f 163/277/67 164/278/67 165/279/67 166/280/67
f 164/281/68 167/282/68 165/283/68
f 167/284/69 168/285/69 166/286/69 165/287/69
f 168/288/70 163/289/70 166/290/70
f 169/291/71 170/292/71 171/293/71
f 170/294/68 172/295/68 173/296/68 171/297/68
f 172/298/72 174/299/72 173/300/72
f 174/301/73 169/302/73 171/303/73 173/304/73
f 175/305/74 176/306/74 177/307/74 178/308/74
f 179/309/75 180/310/75 178/311/75 177/312/75
f 181/313/76 182/314/76 183/315/76 184/316/76
f 185/317/77 186/318/77 184/319/77 183/320/77
f 187/321/78 188/322/78 189/323/78 190/324/78
f 191/325/79 192/326/79 190/327/79 189/328/79
f 193/329/80 194/330/80 195/331/80 196/332/80
f 197/333/81 198/334/81 196/335/81 195/336/81
