# Blender v2.78 (sub 0) OBJ File: ''
# www.blender.org
mtllib CityEngineMaterial_817.mtl
o CityEngineMaterial_817
v 733.934204 90.304131 -185.906387
v 735.635071 90.304131 -176.553284
v 738.865173 90.304131 -177.061478
v 735.106079 90.304131 -185.134384
v 736.871582 90.304131 -185.412186
v 736.799316 90.304131 -186.361282
v 738.140015 90.304131 -186.574188
v 734.936829 90.304131 -186.065582
v 734.714417 91.408333 -184.582687
v 734.545227 91.408333 -185.513184
v 734.499084 91.408333 -185.505890
v 734.668274 91.408333 -184.575485
v 738.348511 90.904228 -177.470291
v 737.697083 90.904228 -186.013687
v 737.315918 90.904228 -185.953186
v 737.388428 90.904228 -185.003387
v 737.204285 90.904228 -181.150482
v 736.916321 90.904228 -184.929077
v 735.344421 90.904228 -180.857788
v 736.026917 90.904228 -177.104980
v 12.683600 48.288944 -880.900330
v 12.176600 48.288944 -884.117004
v 8.504000 48.288944 -883.541870
v 19.879101 48.288940 -867.857117
v 11.190200 48.288940 -866.496521
v 15.241800 48.288944 -881.300903
v 14.738000 48.288944 -884.518127
v 17.209499 48.288944 -884.905212
v 13.104000 48.755943 -880.063599
v 14.993900 48.755939 -867.994690
v 19.741199 48.755939 -868.738220
v 17.851200 48.755943 -880.806885
v 9.846900 48.755939 -875.018677
v 10.498000 48.755939 -870.891113
v 14.443600 48.755939 -871.508972
v 13.797100 48.755939 -875.637329
v 185.500504 53.077530 -797.551025
v 185.367096 53.077530 -798.395508
v 177.513596 53.077530 -797.159912
v 178.233704 53.077530 -792.601318
v 192.723404 53.077530 -798.685730
v 193.305405 53.077530 -794.968811
v 184.819595 54.452229 -796.729370
v 178.548203 54.452229 -795.744202
v 179.024506 54.452229 -792.725525
v 185.295898 54.452229 -793.710571
v 184.576294 54.452229 -798.271179
v 181.823105 54.452229 -797.837891
v 182.065201 54.452229 -796.296692
v 227.621902 40.829506 -58.066093
v 228.836899 40.829506 -58.229691
v 240.947693 40.829613 -60.320694
v 237.301804 40.829613 -61.593292
v 240.692398 40.829613 -62.178593
v 236.587402 40.829613 -66.804993
v 226.609207 40.829510 -65.453690
v 232.481903 41.876610 -62.989891
v 232.365906 41.876610 -63.836193
v 229.285706 41.876610 -63.419094
v 229.647507 41.876610 -60.780193
v 234.661194 41.876610 -63.366192
v 234.891602 41.876610 -61.685692
v 215.679504 32.930092 44.329105
v 215.992096 32.930092 49.648205
v 216.769104 32.930092 49.604103
v 229.209900 32.930092 50.801205
v 216.864395 32.930092 51.282104
v 228.813095 32.930092 43.812904
v 221.540100 32.930092 43.996304
v 218.308395 34.432091 51.225803
v 227.702606 34.432091 50.859905
v 227.563293 34.432091 47.283703
v 218.169098 34.432091 47.649605
v 222.413895 34.432091 47.484303
v 227.379196 34.432091 47.290905
v 227.247498 34.432091 43.908905
v 222.282104 34.432091 44.102303
v 66.168503 14.396861 238.709702
v 67.098999 14.396862 231.461700
v 67.041496 14.396862 231.252594
v 66.580597 14.396863 229.830399
v 63.295898 14.396862 232.373795
v 60.698799 14.396864 222.215393
v 64.496101 14.396864 221.288605
v 62.817600 14.396863 230.897705
v 64.667099 14.396861 237.360596
v 65.625099 14.396861 241.305893
v 60.982399 14.952964 222.810898
v 63.257801 14.952962 232.134705
v 65.358200 14.952962 231.622192
v 63.082802 14.952964 222.298294
v 63.866699 14.952963 225.510498
v 66.924599 14.952962 231.239899
v 65.433098 14.952964 225.128204
v -191.116592 6.478683 714.388428
v -188.380096 6.478687 694.209778
v -199.907394 6.478685 704.882385
v -190.621704 27.590185 704.017883
v -189.613297 27.590185 696.582520
v -198.631500 27.590185 704.931885
v -195.392197 27.590183 708.434570
v -191.123001 27.590185 707.714600
v -192.734497 27.590185 705.973999
v -194.231796 28.790386 700.890930
v -198.243393 28.790386 704.604980
v -196.025604 28.790386 707.000488
v -192.013901 28.790386 703.286377
v -191.545105 28.299686 706.025879
v -191.952103 28.299686 705.586426
v -192.385406 28.299686 705.987427
v -191.297394 28.299686 707.162598
v -190.959000 28.299686 704.666687
v -191.418503 28.299686 705.092224
v -193.327194 28.790386 704.502197
v -194.714096 28.790386 705.786377
v -193.706894 28.790386 706.874329
v -192.319901 28.790386 705.590210
v -462.941589 15.863990 -551.347290
v -449.549805 15.863991 -554.423828
v -452.697388 15.863993 -568.109680
v -462.493103 15.863993 -565.098877
v -462.584412 15.863993 -565.495728
v -463.852203 15.863993 -569.730713
v -454.022186 15.863994 -572.534912
v -465.941315 15.863992 -564.306702
v -458.621185 16.501890 -553.838318
v -449.877197 16.501890 -555.847473
v -452.204010 16.501892 -565.964600
v -460.947998 16.501892 -563.955200
v -464.189209 16.501892 -556.739075
v -459.534485 16.501892 -557.809570
v -460.697601 16.501892 -562.866577
v -465.361298 16.501892 -561.794006
v 106.078300 49.228813 -693.126099
v 109.869202 49.228809 -679.062988
v 120.431396 49.228809 -680.716980
v 116.344902 49.228813 -695.904724
v 106.078300 65.399612 -693.126099
v 109.097702 65.399612 -681.924988
v 119.661301 65.399612 -683.578979
v 116.344902 65.399612 -695.904724
v 115.986000 66.516014 -685.967712
v 114.278999 66.516014 -692.311707
v 112.355103 66.516014 -691.791016
v 113.472397 66.516014 -687.638672
v 110.707199 66.516014 -687.205627
v 111.241203 66.516014 -685.224792
v 632.986572 93.036652 -325.997711
v 634.404724 93.036652 -316.752106
v 655.139221 93.036652 -319.906799
v 653.415771 93.036652 -331.139191
v 632.986572 112.287552 -325.997559
v 634.404724 112.287552 -316.752075
v 642.378601 112.287552 -317.965271
v 640.843201 112.287552 -327.974884
v 640.843201 101.559853 -327.974884
v 641.574097 101.559853 -323.210083
v 649.853088 101.559853 -324.480072
v 649.002075 101.559853 -330.028381
v 642.049927 112.835457 -319.842163
v 641.198975 112.835457 -325.389069
v 636.103027 112.835457 -324.607483
v 636.953918 112.835457 -319.060577
v 647.112122 103.130653 -329.552582
v 642.288879 103.130653 -328.338776
v 643.110291 103.130653 -325.075073
v 647.933411 103.130653 -326.288971
v 646.795715 103.130653 -326.002563
v 644.675171 103.130653 -325.468872
v 645.035583 103.130653 -324.036957
v 647.156006 103.130653 -324.570557
v 1063.053711 124.883049 -295.008881
v 1060.347168 124.883049 -296.167175
v 1055.127930 124.883049 -293.270264
v 1055.961792 124.883049 -292.913269
v 1058.872681 124.883049 -286.422760
v 1054.727905 124.883049 -290.414581
v 1053.695801 124.883049 -288.642578
v 1059.655518 124.883049 -287.767059
v 1061.609619 124.883049 -291.724274
v 1058.455933 126.363945 -292.514069
v 1055.335327 126.363945 -290.781860
v 1056.249146 126.363945 -289.135681
v 1059.369751 126.363945 -290.867767
v 1057.398438 126.363945 -289.773560
v 1056.985229 126.363945 -287.809662
v 1058.134399 126.363945 -288.447571
v 176.063095 53.034321 -755.981018
v 172.904099 53.034321 -755.453918
v 173.043503 53.034321 -754.610291
v 168.856293 53.034321 -744.900818
v 167.734406 53.034321 -753.725586
v 172.781906 53.034321 -754.570190
v 167.475693 53.034321 -753.673279
v 169.345993 53.034321 -744.999817
v 174.186905 53.034321 -745.809875
v 177.656403 53.034321 -746.342224
v 177.497101 53.627922 -747.306030
v 176.363297 53.627922 -754.165283
v 170.452301 53.627922 -753.188416
v 171.586197 53.627922 -746.328918
v 171.412292 53.627922 -747.380920
v 170.998596 53.627922 -749.883423
v 168.179199 53.627922 -749.417419
v 168.592896 53.627922 -746.914917
vt 0.6964 0.0000
vt 0.0000 0.2320
vt 0.0192 1.0000
vt 0.6331 0.2615
vt 0.6436 0.6812
vt 0.7137 0.6812
vt 0.7219 1.0000
vt 0.7024 0.2384
vt 0.0000 0.9998
vt 0.9989 1.0000
vt 1.0000 0.0012
vt 0.0012 0.0000
vt 0.0187 1.0000
vt 0.8722 1.0000
vt 0.8690 0.8595
vt 0.7741 0.8595
vt 0.3929 0.6855
vt 0.7703 0.6855
vt 0.3779 0.0000
vt 0.0000 0.1443
vt 0.1038 0.3440
vt 0.0001 0.3440
vt -0.0000 0.5950
vt 0.5499 0.0011
vt 0.5496 0.5950
vt 0.1039 0.1691
vt 0.0002 0.1689
vt 0.0003 0.0000
vt 0.0000 1.0000
vt 1.3583 1.0000
vt 1.3583 0.0000
vt 0.0000 0.0000
vt 0.0000 1.0000
vt 0.9989 1.0000
vt 1.0000 0.0012
vt 0.0011 -0.0000
vt 0.7732 0.1852
vt 0.7731 0.0000
vt 0.0000 0.0004
vt 0.0004 1.0000
vt 1.4842 0.1852
vt 1.4840 1.0000
vt 0.0004 1.0000
vt 1.0000 1.0000
vt 0.9997 0.0000
vt 0.0000 0.0000
vt 0.0002 1.0000
vt 0.9998 1.0000
vt 1.0000 0.0005
vt 0.0000 0.0000
vt 0.0000 0.9939
vt 0.1126 1.0000
vt 1.2420 1.0000
vt 0.9317 0.7500
vt 1.2479 0.7500
vt 0.9485 0.0488
vt 0.0238 0.0000
vt 0.5890 0.3632
vt 0.5945 0.0425
vt 0.0172 0.0000
vt 0.0000 1.0000
vt 1.0000 0.3632
vt 0.9891 1.0000
vt -0.0000 0.0147
vt 0.0067 0.7652
vt 0.0565 0.7633
vt 0.8485 1.0000
vt 0.0584 1.0000
vt 0.8406 0.0141
vt 0.3753 0.0000
vt 0.0000 1.0000
vt 0.6334 1.0000
vt 0.6334 0.0000
vt 0.0000 0.0000
vt 0.0000 1.0000
vt 1.0000 1.0000
vt 1.0000 0.0000
vt 0.0000 0.0000
vt 0.9604 0.6514
vt 0.5822 0.0000
vt 0.5702 0.0016
vt 0.4875 0.0290
vt 0.5814 0.9715
vt 0.0000 1.0000
vt 0.0000 0.0290
vt 0.4956 1.0000
vt 0.8680 0.9343
vt 1.0931 0.9354
vt 0.0000 1.0000
vt 0.6712 1.0000
vt 0.6712 -0.0000
vt 0.0000 0.0000
vt 0.0000 1.0000
vt 1.0000 1.0000
vt 1.0000 0.0000
vt 0.0000 0.0000
vt 0.0000 0.9078
vt 0.6925 0.9078
vt 0.2802 0.0000
vt 0.5299 0.0000
vt 0.0000 1.0000
vt 1.1245 1.0000
vt 1.1248 0.0000
vt 0.0000 1.0000
vt 1.0000 1.0000
vt 0.4043 0.0000
vt 0.0000 1.0000
vt 1.0000 1.0000
vt 1.0000 0.0000
vt 0.0000 0.0000
vt 0.4340 0.6778
vt 0.5852 0.3037
vt 0.4043 0.0000
vt 0.0000 1.0000
vt 1.0000 1.0000
vt 0.8081 0.6778
vt 0.0000 1.0000
vt 1.0000 1.0000
vt 1.0000 0.0000
vt 0.0000 0.0000
vt 0.0001 0.0023
vt 0.0000 1.6746
vt 0.4665 1.6746
vt 0.4420 0.4306
vt 0.4555 0.4306
vt 0.6020 0.3957
vt 0.6196 1.6381
vt 0.4420 0.0000
vt 0.0002 0.0000
vt 0.0000 0.5753
vt 0.9729 0.5753
vt 0.9730 0.0000
vt 0.0000 0.0020
vt 0.0000 1.0000
vt 1.0000 1.0000
vt 1.0000 0.0000
vt 1.4544 0.0000
vt 0.1062 0.0005
vt 0.0000 0.7359
vt 1.4559 0.7359
vt 1.0047 0.0000
vt 0.0904 0.0004
vt 0.0000 0.6975
vt 1.0059 0.6975
vt 0.0000 1.0000
vt 1.0000 1.0000
vt 0.9996 0.5827
vt 0.3450 0.5827
vt 0.3907 0.0000
vt 0.0785 0.0002
vt 0.8523 1.1144
vt 0.8879 0.1971
vt 0.0433 0.0000
vt 0.0000 1.1144
vt 0.6338 0.0000
vt 0.0007 0.0000
vt -0.0000 0.6019
vt 0.6854 0.6019
vt 0.8464 1.0000
vt 0.8920 0.1412
vt 0.0532 0.0000
vt 0.0000 1.0000
vt 0.0000 1.0000
vt 1.0000 1.0000
vt 1.0000 0.0000
vt 0.0000 0.0000
vt 0.0000 1.0000
vt 1.0000 1.0000
vt 1.0000 0.0000
vt 0.0000 0.0000
vt 0.0000 1.0000
vt 1.0000 1.0000
vt 1.0000 0.0000
vt 0.0000 0.0000
vt 0.0000 0.7019
vt 0.1875 1.0000
vt 0.8078 1.0000
vt 0.7500 0.9082
vt 0.8129 0.0000
vt 0.9881 0.7050
vt 1.1712 0.5706
vt 0.6739 0.1019
vt 0.2968 0.4237
vt 0.0000 1.0000
vt 1.0000 1.0000
vt 1.0000 0.0000
vt 0.0000 0.0000
vt 0.0000 0.0000
vt 0.0000 1.0000
vt 1.0000 1.0000
vt 1.0000 0.0000
vt 0.9111 0.5714
vt 0.9107 0.3662
vt 0.8309 0.3662
vt 0.0012 0.0000
vt 0.8303 0.0213
vt 0.8312 0.3492
vt 0.8294 0.0044
vt 0.0029 0.0320
vt 0.0038 0.3465
vt -0.0000 0.5714
vt 0.0000 1.0000
vt 1.0000 1.0000
vt 1.0000 0.0000
vt 0.0000 0.0000
vt 0.0000 0.0000
vt 0.0000 1.0000
vt 1.0000 1.0000
vt 1.0000 0.0000
vn 0.0000 1.0000 0.0000
g CityEngineMaterial_817_CityEngineMaterial_817_CityEngineMaterial_817_mat
usemtl CityEngineMaterial_817_mat
s 1
f 1/1/1 2/2/1 3/3/1 4/4/1
f 5/5/1 4/4/1 3/3/1 6/6/1
f 3/3/1 7/7/1 6/6/1
f 1/1/1 4/4/1 8/8/1
f 9/9/1 10/10/1 11/11/1 12/12/1
f 13/13/1 14/14/1 15/15/1 16/16/1
f 17/17/1 13/13/1 16/16/1 18/18/1
f 13/13/1 17/17/1 19/19/1 20/20/1
f 21/21/1 22/22/1 23/23/1 24/24/1
f 23/23/1 25/25/1 24/24/1
f 26/26/1 21/21/1 24/24/1 27/27/1
f 24/24/1 28/28/1 27/27/1
f 29/29/1 30/30/1 31/31/1 32/32/1
f 33/33/1 34/34/1 35/35/1 36/36/1
f 37/37/1 38/38/1 39/39/1 40/40/1
f 41/41/1 37/37/1 40/40/1 42/42/1
f 43/43/1 44/44/1 45/45/1 46/46/1
f 47/47/1 48/48/1 49/49/1 43/50/1
f 50/51/1 51/52/1 52/53/1 53/54/1
f 52/53/1 54/55/1 53/54/1
f 50/51/1 53/54/1 55/56/1 56/57/1
f 57/58/1 58/59/1 59/60/1 60/61/1
f 61/62/1 57/58/1 60/61/1 62/63/1
f 63/64/1 64/65/1 65/66/1 66/67/1
f 65/66/1 67/68/1 66/67/1
f 63/64/1 66/67/1 68/69/1 69/70/1
f 70/71/1 71/72/1 72/73/1 73/74/1
f 74/75/1 75/76/1 76/77/1 77/78/1
f 78/79/1 79/80/1 80/81/1 81/82/1
f 82/83/1 78/79/1 81/82/1 83/84/1
f 81/82/1 84/85/1 83/84/1
f 83/84/1 85/86/1 82/83/1
f 78/79/1 82/83/1 86/87/1 87/88/1
f 88/89/1 89/90/1 90/91/1 91/92/1
f 92/93/1 90/94/1 93/95/1 94/96/1
f 95/97/1 96/98/1 97/99/1
f 98/100/1 99/101/1 100/102/1 101/103/1
f 102/104/1 98/105/1 103/106/1
f 104/107/1 105/108/1 106/109/1 107/110/1
f 108/111/1 109/112/1 110/113/1 111/114/1
f 108/111/1 111/114/1 112/115/1 113/116/1
f 114/117/1 115/118/1 116/119/1 117/120/1
f 118/121/1 119/122/1 120/123/1 121/124/1
f 122/125/1 121/124/1 120/123/1 123/126/1
f 120/123/1 124/127/1 123/126/1
f 118/121/1 121/124/1 125/128/1
f 126/129/1 127/130/1 128/131/1 129/132/1
f 130/133/1 131/134/1 132/135/1 133/136/1
f 134/137/1 135/138/1 136/139/1 137/140/1
f 138/141/1 139/142/1 140/143/1 141/144/1
f 142/145/1 143/146/1 144/147/1 145/148/1
f 142/145/1 145/148/1 146/149/1 147/150/1
f 148/151/1 149/152/1 150/153/1 151/154/1
f 152/155/1 153/156/1 154/157/1 155/158/1
f 156/159/1 157/160/1 158/161/1 159/162/1
f 160/163/1 161/164/1 162/165/1 163/166/1
f 164/167/1 165/168/1 166/169/1 167/170/1
f 168/171/1 169/172/1 170/173/1 171/174/1
f 172/175/1 173/176/1 174/177/1 175/178/1
f 176/179/1 172/175/1 175/178/1 177/180/1
f 177/180/1 178/181/1 176/179/1
f 172/175/1 176/179/1 179/182/1 180/183/1
f 181/184/1 182/185/1 183/186/1 184/187/1
f 185/188/1 183/189/1 186/190/1 187/191/1
f 188/192/1 189/193/1 190/194/1 191/195/1
f 192/196/1 191/195/1 190/194/1 193/197/1
f 192/196/1 194/198/1 191/195/1
f 188/192/1 191/195/1 195/199/1 196/200/1
f 188/192/1 196/200/1 197/201/1
f 198/202/1 199/203/1 200/204/1 201/205/1
f 202/206/1 203/207/1 204/208/1 205/209/1
