# Blender v2.78 (sub 0) OBJ File: ''
# www.blender.org
mtllib CityEngineMaterial_794.mtl
o CityEngineMaterial_794
v 537.887878 38.415070 179.110001
v 541.348206 38.415070 192.325394
v 563.619995 38.415070 186.599396
v 560.241272 38.415073 173.418396
v 539.552795 61.107971 185.468323
v 541.348206 61.107971 192.325409
v 563.619995 61.107971 186.599411
v 561.873291 61.107971 179.785110
v 560.583618 62.509769 180.149918
v 541.017517 62.509769 185.131821
v 541.992371 62.509769 188.961121
v 561.558472 62.509769 183.979309
v 561.130981 62.509769 184.088120
v 557.491699 62.509769 185.014816
v 558.243713 62.509769 187.968414
v 561.882996 62.509769 187.041718
v 866.100403 84.686508 -55.468185
v 866.402222 84.686508 -55.601383
v 866.753479 84.686508 -55.828484
v 868.939697 84.686508 -58.401085
v 868.109375 84.686508 -57.073284
v 877.780212 84.686516 -77.165787
v 870.718872 84.686508 -60.034485
v 886.529480 84.686516 -71.422081
v 881.240417 84.686508 -67.088982
v 876.830200 84.686508 -63.984184
v 885.497314 84.686516 -70.515182
v 887.469177 84.686516 -73.677986
v 873.519775 84.686516 -78.201683
v 856.430786 84.686508 -59.583885
v 865.950012 104.168106 -57.304386
v 866.843872 104.168106 -58.125084
v 867.674316 104.168106 -59.452885
v 863.986328 104.168106 -65.403885
v 869.717712 104.168106 -61.328983
v 871.243408 104.168106 -62.314983
v 859.192078 104.168106 -60.180786
v 863.986328 95.330208 -65.403885
v 871.243408 95.330208 -62.314983
v 871.309326 95.330208 -62.357586
v 874.806091 95.330215 -70.573082
v 870.437683 95.330215 -72.432388
v 864.477722 105.025909 -63.130386
v 863.938293 105.025909 -62.542583
v 864.314514 105.025909 -62.382484
v 866.200317 105.025909 -60.678085
v 863.143494 105.025909 -60.563286
v 864.236084 105.025909 -62.310585
v 865.500916 105.025909 -59.559784
v 867.479614 105.025909 -61.852684
v 871.814575 96.176010 -69.367882
v 871.027710 96.176010 -69.702782
v 867.848083 96.176010 -66.238686
v 869.897583 96.176010 -67.395882
v 868.558105 96.176010 -65.936386
v 870.809998 96.176010 -67.007484
v -240.085999 5.053220 -124.157997
v -252.484207 5.053220 -121.661903
v -247.393097 5.053216 -96.564301
v -239.684601 5.053216 -98.122597
v -249.185196 39.178719 -121.297691
v -244.495407 39.178715 -98.178696
v -242.851807 39.178715 -98.510895
v -243.221603 39.178719 -122.498291
v -250.796600 38.748421 -118.413895
v -247.104095 38.748417 -100.211090
v -240.744904 38.748417 -101.496590
v -241.036102 38.748421 -120.378990
v -243.412201 43.566216 -100.493492
v -243.717606 43.566219 -120.303192
v -248.257507 43.566219 -119.389091
v -244.384598 43.566216 -100.296890
v -241.634705 43.080616 -102.967194
v -241.875198 43.080620 -118.559891
v -249.625198 43.080620 -116.999695
v -246.576004 43.080616 -101.968193
v -244.085602 45.534821 -118.453194
v -247.522705 45.534821 -117.761093
v -244.342102 45.534817 -102.081589
v -243.834702 45.534817 -102.184189
v -242.527405 46.113220 -116.961494
v -248.675705 46.113220 -115.723694
v -246.198395 46.113216 -103.511795
v -242.332108 46.113216 -104.293495
v -247.924606 48.236019 -114.768196
v -245.878799 48.236015 -104.683495
v -242.893494 48.236015 -105.286995
v -243.054901 48.236019 -115.748589
v -245.524796 46.135521 -113.228989
v -245.024094 46.135521 -110.760689
v -245.122894 46.135521 -117.166092
v -245.584106 46.135521 -117.073189
v -243.338898 50.204517 -106.111389
v -243.472107 50.204517 -114.750496
v -247.322403 50.204517 -113.975189
v -245.633102 50.204517 -105.647491
v -243.363998 50.838219 -106.740692
v -243.470398 50.838219 -113.637794
v -244.877304 50.838219 -113.616089
v -244.770905 50.838219 -106.718994
v -244.809494 50.838219 -109.222992
v -244.828598 50.838219 -110.457794
v -245.787094 50.838219 -110.442993
v -245.768097 50.838219 -109.208290
v 7.413900 5.982961 237.772705
v 2.139900 5.982964 221.161896
v -11.238800 5.982963 225.421707
v -5.924300 5.982960 242.035294
v 2.931700 27.170263 223.655701
v -10.441700 27.170263 227.913696
v -6.721500 27.170261 239.543198
v 6.622200 27.170261 235.278900
v -0.669600 60.093464 222.056519
v -8.429200 60.093460 224.527222
v -3.115700 60.093460 241.137711
v 4.605400 60.093460 238.670319
v -8.949800 42.001461 228.557007
v -5.879400 42.001362 238.155304
v 5.133000 42.001362 234.636200
v 2.087100 42.001461 225.042892
v -7.288300 76.326561 225.761215
v -2.902500 76.326660 239.471710
v 3.467900 76.326660 237.435913
v -0.886200 76.326561 223.722809
v 3.903800 52.383163 234.105316
v 1.390100 52.383163 226.188110
v -7.718600 52.383163 229.088318
v -5.184600 52.383163 237.009720
v 2.529000 81.196564 236.416809
v -1.064800 81.196564 225.098114
v -6.346800 81.196564 226.780014
v -2.726700 81.196564 238.096512
v 0.815000 59.650463 227.133713
v -6.702200 59.650463 229.527222
v -4.611300 59.650463 236.063812
v 2.889300 59.650463 233.666809
v -1.211800 83.165062 226.233612
v -5.569700 83.165062 227.621216
v -2.581900 83.165062 236.961212
v 1.754300 83.165062 235.575409
v -5.863700 71.520264 229.888718
v -4.137900 71.520264 235.283615
v 2.052200 71.520264 233.305511
v 0.340200 71.520264 227.913513
v 1.361300 73.046364 233.007019
v -0.051600 73.046364 228.557114
v -5.171700 73.046364 230.187317
v -3.747400 73.046364 234.639709
v -4.985900 83.838165 229.446320
v -3.178800 83.838165 235.095322
v -0.392400 83.838165 234.204010
v -2.199500 83.838165 228.555008
v -1.620700 83.838165 230.364212
v -1.199300 83.838165 231.681610
v 0.348500 83.838165 231.186417
v -0.072900 83.838165 229.869110
v -0.374900 75.014961 229.088608
v -4.600300 75.014961 230.434021
v -3.425100 75.014961 234.108017
v 0.791000 75.014961 232.760712
v -4.360900 75.655563 230.557617
v -3.645400 75.655563 232.793915
v -2.381500 75.655563 232.391510
v 0.552000 75.655563 232.637115
v -2.040500 75.655563 233.465515
v -0.498700 75.655563 229.327911
v 248.179398 20.018858 258.556885
v 268.098511 20.018858 257.423615
v 266.579010 20.018860 245.055603
v 247.474396 20.018860 246.140198
v 263.906586 69.779655 257.662109
v 262.386993 69.779663 245.293610
v 251.657394 69.779663 245.902817
v 252.362396 69.779655 258.318909
v 267.946503 64.840965 256.186493
v 266.730988 64.840965 246.292618
v 247.544907 64.840965 247.381912
v 248.108902 64.840965 257.315308
v 252.768402 76.177460 247.034119
v 253.338303 76.177460 257.069092
v 262.715302 76.177460 256.535614
v 261.487091 76.177460 246.539108
v 249.395493 70.603760 248.295319
v 249.844193 70.603760 256.198090
v 266.025513 70.603760 255.277420
v 265.058411 70.603760 247.406113
v 254.136002 86.627258 256.111786
v 261.752899 86.627258 255.678421
v 260.747101 86.627258 247.492920
v 253.669403 86.627258 247.894821
v 251.269196 74.637764 255.398911
v 264.469086 74.637764 254.647812
v 263.677307 74.637764 248.202621
v 250.901794 74.637764 248.927917
v 260.970398 89.762260 254.976318
v 260.146912 89.762260 248.273712
v 254.401505 89.762260 248.599915
v 254.783600 89.762260 255.328308
v 263.199188 77.461563 254.132111
v 262.550903 77.461563 248.854614
v 252.130600 77.461563 249.446213
v 252.431396 77.461563 254.744812
v 254.997299 91.730759 249.212921
v 255.306107 91.730759 254.651810
v 260.331085 91.730759 254.365921
v 259.665405 91.730759 248.947815
v 253.134598 82.073761 249.933609
v 253.373795 82.073761 254.146912
v 262.157593 82.073761 253.647018
v 261.641998 82.073761 249.450516
v 254.147705 84.042259 253.720016
v 261.313599 84.042259 253.312119
v 260.891388 84.042259 249.875916
v 253.951797 84.042259 250.270020
v 260.243988 92.159065 253.657211
v 259.715088 92.159065 249.351913
v 257.082214 92.159065 249.675308
v 257.611206 92.158958 253.980621
v 256.733612 85.126663 252.152115
v 256.645508 85.126663 250.601822
v 254.462402 85.126663 250.725815
v 254.603500 85.126663 253.209213
v 260.655914 85.126663 251.928909
v 260.770111 85.126663 252.858322
v 37.583401 34.107967 -410.361511
v 39.703400 34.107964 -396.831512
v 52.754101 34.107964 -398.835602
v 50.232201 34.107967 -412.342194
v 40.132599 67.308365 -401.889099
v 40.709499 67.308365 -398.207001
v 51.339001 67.308365 -399.839294
v 50.648701 67.308365 -403.535797
v 38.962601 67.308365 -409.355896
v 39.630299 67.308365 -405.094910
v 50.052898 67.308365 -406.726898
v 49.260899 67.308365 -410.968506
v 46.609402 67.308365 -402.903290
v 46.107399 67.308365 -406.109100
v 44.259998 68.284172 -400.046814
v 43.950001 68.284172 -402.025604
v 40.653301 68.284172 -401.509399
v 41.089401 68.284172 -398.726410
v 50.653301 68.284172 -401.028503
v 50.804600 68.284172 -400.218292
v 40.379601 67.881470 -405.212189
v 49.178799 67.881470 -406.589996
v 48.835201 67.881470 -408.783905
v 40.036098 67.881470 -407.406006
v 40.506901 67.749870 -405.232086
v 40.847599 67.749870 -403.057709
v 45.571201 67.749870 -403.797394
v 45.230801 67.749870 -405.971802
v 737.934387 40.693737 390.522400
v 733.634705 40.693737 386.578094
v 721.765686 40.693737 398.758789
v 725.593628 40.693737 397.109802
v 722.938416 40.693737 399.834595
v 729.013977 40.693737 400.247498
v 731.914612 41.438534 388.386597
v 726.352295 41.438534 394.094910
v 728.665771 41.438534 396.349213
v 734.228088 41.438534 390.640808
v 731.962708 41.438534 392.965698
v 729.517822 41.438534 395.474701
v 731.363586 41.438534 397.273285
v 733.808472 41.438534 394.764191
v -620.963501 40.279251 -944.893494
v -619.657715 40.279251 -940.595825
v -612.589294 40.279251 -942.750183
v -615.042725 40.279255 -950.814209
v -613.094971 40.279251 -944.421387
v -626.406982 40.279251 -943.239075
v -636.083923 40.279251 -947.038391
v -615.773010 40.279255 -953.211304
v -625.099976 40.279251 -938.936829
v -632.900085 40.279251 -936.559326
v 429.542511 58.448032 -177.918381
v 426.783905 58.448032 -195.464279
v 416.759888 58.448032 -192.962982
v 419.549591 58.448029 -175.432281
v 428.889587 79.045433 -182.070984
v 426.783905 79.045433 -195.464279
v 416.759888 79.045433 -192.962982
v 418.890686 79.045433 -179.572784
v 417.105286 80.361427 -190.792084
v 418.404510 80.361427 -182.628387
v 424.692810 80.361427 -183.628983
v 423.393585 80.361427 -191.792786
v 423.963715 80.361427 -188.210281
v 424.569489 80.361427 -184.403885
v 428.420898 80.361427 -185.016785
v 427.815186 80.361427 -188.823181
v 230.742493 53.541107 -651.130615
v 241.129196 53.541107 -652.757019
v 236.835205 53.541210 -668.659912
v 226.732498 53.541206 -665.932800
v 230.687103 72.888603 -655.761230
v 238.777206 72.888603 -657.027893
v 236.019501 72.888603 -667.241028
v 228.152496 72.888603 -665.117310
v 238.005005 73.668610 -659.731812
v 236.470093 73.668610 -665.416016
v 231.280502 73.668610 -664.014587
v 232.815399 73.668610 -658.330383
v 232.687805 73.668610 -658.802979
v 231.650299 73.668610 -662.645081
v 229.020096 73.668610 -661.934875
v 230.057602 73.668610 -658.092773
v -32.687199 35.220577 -466.104797
v -33.262299 35.220577 -469.775391
v -35.374100 35.220577 -469.441010
v -33.021999 35.220573 -454.429901
v -28.690300 35.220577 -466.730499
v -26.924000 35.220573 -455.384613
v -30.883699 35.625378 -464.706512
v -34.542500 35.625378 -464.133514
v -33.278999 35.625374 -456.070312
v -29.620199 35.625378 -456.643188
v -28.433300 35.625378 -465.090210
v -30.559799 35.625378 -462.639587
v -28.112301 35.625378 -463.023193
v 557.983826 29.412029 436.572815
v 560.978699 29.412027 443.865204
v 575.497803 29.412029 437.906311
v 570.945923 29.412029 435.182098
v 573.883484 29.412029 433.976410
v 569.914917 29.412029 432.671600
v 563.494019 28.895927 449.993896
v 565.048279 28.895926 453.781006
v 579.920410 28.895927 449.965088
v 574.902527 28.895927 448.913513
v 579.049927 28.895927 447.849304
v 573.637390 28.895927 445.830902
v 561.926086 30.331427 441.597900
v 573.229919 30.331429 436.958588
v 572.936218 30.331429 436.243713
v 569.998474 30.331429 437.449402
v 567.726624 30.331429 436.144592
v 569.212219 30.331429 435.534912
v 560.301880 30.331429 437.643188
v 567.390076 30.331429 435.325409
v 578.956726 29.928328 449.481995
v 578.629822 29.928328 448.687408
v 574.481873 29.928328 449.751801
v 564.417175 29.928328 450.379791
v 567.904480 29.928328 450.009399
v 573.950928 29.928328 448.458008
v 567.531921 29.928328 449.101410
v 565.468994 29.928326 452.942688
vt 1.3720 1.5006
vt 1.3665 -0.0000
vt 0.0000 0.0059
vt 0.0013 1.5006
vt 1.1089 1.0000
vt 1.1066 0.0000
vt 0.0000 0.0075
vt 0.0005 1.0000
vt 0.0000 1.0000
vt 0.8360 1.0000
vt 0.8360 0.0000
vt 0.0000 0.0000
vt 0.0000 1.0000
vt 1.0000 1.0000
vt 1.0000 -0.0000
vt 0.0000 0.0000
vt 1.4207 0.2986
vt 1.4052 0.2893
vt 1.3846 0.2819
vt 1.2126 0.2910
vt 1.2911 0.2709
vt 0.2030 0.7236
vt 1.0899 0.2765
vt 0.1171 -0.0000
vt 0.4622 0.0677
vt 0.7309 0.1482
vt 0.1868 0.0103
vt 0.0000 0.0584
vt 0.3110 0.9925
vt 1.5994 0.9925
vt 0.2866 0.0000
vt 0.2372 0.1654
vt 0.2131 0.3968
vt 0.7772 1.0000
vt 0.1003 0.7749
vt 0.0000 1.0000
vt 1.0103 0.0000
vt 0.8169 1.0000
vt 0.6237 0.0027
vt 0.6181 -0.0000
vt 0.0000 0.3996
vt 0.1163 1.0000
vt 0.9246 1.0000
vt 1.0000 0.7393
vt 0.8841 0.7393
vt 0.2032 0.4516
vt 0.9876 -0.0000
vt 0.8966 0.7057
vt 0.2615 0.0000
vt 0.0000 1.0000
vt -0.0000 0.5150
vt 0.0572 1.0000
vt 1.0000 1.0000
vt 0.5512 0.5624
vt 0.9484 0.5623
vt 0.4849 0.0000
vt 0.9544 0.9896
vt 0.8743 0.0000
vt 0.0000 0.3743
vt 0.0500 0.9896
vt 0.7481 0.0000
vt 0.0000 0.7244
vt 0.0099 1.0000
vt 0.7838 1.0000
vt 1.0530 0.0000
vt 0.0000 0.4276
vt 0.0685 1.2270
vt 1.1576 1.2270
vt 0.0078 1.0000
vt 0.8581 1.0000
vt 0.8219 0.0000
vt -0.0000 0.7858
vt 0.0570 1.0000
vt 1.0205 1.0000
vt 0.9315 -0.0000
vt 0.0000 0.3624
vt 0.7014 1.0000
vt 0.6740 0.0000
vt 0.0000 0.8524
vt 0.0041 1.0000
vt 1.3106 1.0000
vt 1.1988 0.0000
vt 0.0000 0.3711
vt 0.0707 1.0000
vt 0.7312 0.0000
vt -0.0000 0.3869
vt 0.0403 1.0000
vt 0.7966 1.0000
vt 0.3865 0.0001
vt 0.0000 1.0000
vt 1.0000 1.0000
vt 0.9866 0.0000
vt 0.0449 1.0000
vt 0.9498 1.0000
vt 0.8748 -0.0000
vt 0.0000 0.4041
vt 0.0000 1.0000
vt 1.0000 1.0000
vt 1.0000 -0.0000
vt 0.0000 0.0000
vt 0.0000 1.0000
vt 1.0000 1.0000
vt 1.0000 -0.0000
vt 0.0000 0.0000
vt 0.5935 0.0045
vt 0.0006 0.0000
vt -0.0000 1.6689
vt 0.5934 1.6689
vt 0.0000 0.8257
vt 0.9344 0.8257
vt 0.9333 0.0000
vt 0.0007 0.0010
vt 0.0005 0.0000
vt 0.0000 0.6321
vt 0.7623 0.6321
vt 0.7624 0.0029
vt 0.7481 0.9270
vt 0.7472 0.0000
vt 0.0005 0.0011
vt 0.0000 0.9270
vt 0.0000 1.0000
vt 1.2288 1.0000
vt 1.2289 0.0046
vt 0.0008 0.0000
vt 0.0007 0.0010
vt 0.0000 0.8490
vt 0.9274 0.8490
vt 0.9263 0.0000
vt 0.0008 1.0000
vt 0.9578 1.0000
vt 0.9574 -0.0000
vt -0.0000 0.0046
vt 0.0000 1.0000
vt 0.5876 1.0000
vt 0.5869 0.0000
vt 0.0004 0.0012
vt 0.0006 0.0000
vt 0.0000 1.0000
vt 1.1878 1.0000
vt 1.1880 0.0046
vt 1.0000 1.0000
vt 0.9988 0.0000
vt 0.0007 0.0012
vt 0.0000 1.0000
vt 0.0007 0.0012
vt 0.0000 1.0000
vt 1.0000 1.0000
vt 0.9988 0.0000
vt 0.0000 1.0000
vt 1.0000 1.0000
vt 1.0000 -0.0000
vt 0.0000 0.0000
vt 0.0000 0.0000
vt 0.0000 1.0000
vt 1.0000 1.0000
vt 1.0000 -0.0000
vt 0.0000 1.0000
vt 1.0000 1.0000
vt 0.9988 0.0000
vt 0.0007 0.0012
vt 1.0000 1.0000
vt 0.9992 0.3243
vt 0.6720 0.3243
vt 0.0007 0.0008
vt 0.6722 0.0000
vt 0.0000 1.0000
vt 0.0000 1.0893
vt 0.7700 1.0893
vt 0.7386 0.0002
vt 0.0000 0.0000
vt 0.0000 1.2276
vt 1.3781 1.2276
vt 1.4559 0.0866
vt 0.0836 0.0000
vt 1.0637 0.6875
vt 1.0288 0.0002
vt 0.0000 0.0000
vt 0.0000 0.6875
vt 0.8546 0.0785
vt 0.0493 0.0000
vt 0.0000 1.1178
vt 0.8087 1.1178
vt 0.0000 0.0000
vt -0.0000 0.7973
vt 0.8614 0.7973
vt 0.8338 0.0002
vt 0.0341 -0.0000
vt 0.0000 1.0000
vt 0.5645 1.0000
vt 0.5963 0.0708
vt 0.0000 1.0000
vt 1.3236 1.0000
vt 1.2811 0.0003
vt 0.0000 0.0000
vt 0.0000 1.0000
vt 0.9471 1.0000
vt 1.0000 0.0714
vt 0.0568 0.0000
vt 0.7643 1.0000
vt 0.7397 0.0002
vt 0.0000 0.0000
vt 0.0000 1.0000
vt 1.0000 0.0710
vt 0.0571 0.0000
vt 0.0000 1.0000
vt 0.9469 1.0000
vt 0.0000 0.0000
vt 0.0000 1.0000
vt 0.9718 1.0000
vt 0.9413 0.0003
vt 0.0000 1.0000
vt 1.0000 1.0000
vt 0.9685 0.0002
vt 0.0000 0.0000
vt 0.0000 1.0000
vt 1.0000 1.0000
vt 1.0000 -0.0000
vt 0.0000 0.0000
vt 0.3540 0.6243
vt 0.3541 0.0001
vt 0.0000 0.0000
vt 0.0000 1.0000
vt 0.9901 0.6243
vt 1.0000 1.0000
vt 0.9200 0.0266
vt 0.0277 0.0000
vt 0.0000 0.8786
vt 0.8956 0.8786
vt -0.0000 0.0084
vt 0.0010 1.0000
vt 0.9180 1.0000
vt 0.9077 0.0000
vt 0.0000 0.0000
vt 0.0000 1.0000
vt 0.9832 1.0000
vt 0.9714 0.0000
vt 0.0000 0.0000
vt 0.0000 1.0000
vt 1.0000 1.0000
vt 1.0000 -0.0000
vt 0.2325 0.7086
vt 0.2321 -0.0000
vt -0.0000 0.0035
vt 0.0005 1.0000
vt 0.6824 0.7086
vt 0.6842 1.0000
vt 0.0000 1.0000
vt 0.6199 1.0000
vt 0.6199 0.0000
vt 0.0000 0.0000
vt 0.0000 0.0000
vt 0.0000 1.0000
vt 1.0000 1.0000
vt 1.0000 -0.0000
vt -0.0000 0.0639
vt 0.0104 1.0000
vt 1.0211 1.0000
vt 0.7922 0.7447
vt 1.0183 0.7447
vt 0.7839 -0.0000
vt 0.0000 1.0000
vt 0.8155 1.0000
vt 0.8155 0.0000
vt 0.0000 0.0000
vt 0.0000 1.0000
vt 1.0000 1.0000
vt 1.0000 -0.0000
vt 0.0000 0.0000
vt 0.2856 0.2909
vt 0.2856 0.0007
vt 0.0001 0.0011
vt 0.0002 0.5457
vt 0.0000 0.1139
vt 0.5055 0.2909
vt 0.8206 0.7076
vt 0.0002 0.7076
vt 0.5055 0.0004
vt 0.8206 -0.0000
vt 0.0333 0.7303
vt 0.6872 0.7303
vt 0.6535 0.0000
vt -0.0000 0.0023
vt 0.0793 1.1251
vt 1.2537 1.1251
vt 1.1746 0.0000
vt 0.0000 0.0028
vt 0.0000 1.0000
vt 0.9974 1.0000
vt 0.9974 0.0000
vt 0.0000 0.0000
vt 0.0000 0.0000
vt 0.0000 1.0000
vt 1.0000 1.0000
vt 1.0000 -0.0000
vt 0.0409 0.0011
vt 0.0000 0.8759
vt 0.5921 0.8759
vt 0.5921 -0.0000
vt 0.0626 0.0006
vt -0.0000 0.5823
vt 0.7477 0.5823
vt 0.7478 -0.0000
vt 0.0000 1.0000
vt 1.0000 1.0000
vt 1.0000 -0.0000
vt 0.0000 0.0000
vt 0.0000 1.0000
vt 1.0000 1.0000
vt 1.0000 -0.0000
vt 0.0000 0.0000
vt 0.3616 0.6542
vt 0.0000 0.6542
vt 0.0003 1.0000
vt 1.4791 1.0000
vt 0.3617 0.0000
vt 1.4792 0.0018
vt 0.0000 0.0000
vt 0.0000 1.0000
vt 0.6416 1.0000
vt 0.6416 0.0000
vt 0.0000 1.0000
vt 1.0000 1.0000
vt 1.0000 -0.0000
vt 0.0011 0.0001
vt 0.0000 0.0000
vt 0.0002 0.5625
vt 1.2978 0.5625
vt 1.0351 0.2594
vt 1.2977 0.2594
vt 1.0351 0.0657
vt 0.0000 0.2716
vt 0.0195 1.0000
vt 0.5493 1.0000
vt 0.3906 0.5929
vt 0.5384 0.5929
vt 0.3748 -0.0000
vt 0.0000 1.0000
vt 0.9384 1.0000
vt 0.9384 0.8192
vt 0.6945 0.8192
vt 0.5712 0.3351
vt 0.6945 0.3351
vt 0.0000 0.0000
vt 0.5712 0.1280
vt 1.1253 1.0000
vt 1.1159 0.7348
vt 0.7791 0.7348
vt 0.0000 0.1447
vt 0.2729 0.3030
vt 0.7639 0.3030
vt 0.2623 0.0000
vt 0.0300 1.0000
vn -0.0000 1.0000 0.0000
vn 0.0003 1.0000 0.0001
g CityEngineMaterial_794_CityEngineMaterial_794_CityEngineMaterial_794_mat
usemtl CityEngineMaterial_794_mat
s 1
f 1/1/1 2/2/1 3/3/1 4/4/1
f 5/5/1 6/6/1 7/7/1 8/8/1
f 9/9/1 10/10/1 11/11/1 12/12/1
f 13/13/1 14/14/1 15/15/1 16/16/1
f 17/17/1 18/18/1 19/19/1 20/20/1
f 19/19/1 21/21/1 20/20/1
f 22/22/1 17/17/1 20/20/1 23/23/1
f 24/24/1 22/22/1 23/23/1 25/25/1
f 23/23/1 26/26/1 25/25/1
f 25/25/1 27/27/1 24/24/1
f 24/24/1 28/28/1 22/22/1
f 17/17/1 22/22/1 29/29/1 30/30/1
f 31/31/1 32/32/1 33/33/1 34/34/1
f 34/34/1 33/33/1 35/35/1 36/36/1
f 31/31/1 34/34/1 37/37/1
f 38/38/1 39/39/1 40/40/1 41/41/1
f 38/38/1 41/41/1 42/42/1
f 43/43/1 44/44/1 45/45/1 46/46/1
f 47/47/1 46/46/1 45/45/1 48/48/1
f 47/47/1 49/49/1 46/46/1
f 50/50/1 43/43/1 46/46/1
f 51/51/1 52/52/1 53/53/1 54/54/1
f 53/53/1 55/55/1 54/54/1
f 51/51/1 54/54/1 56/56/1
f 57/57/1 58/58/1 59/59/1 60/60/1
f 61/61/1 62/62/1 63/63/1 64/64/1
f 65/65/1 66/66/1 67/67/1 68/68/1
f 69/69/1 70/70/1 71/71/1 72/72/1
f 73/73/1 74/74/1 75/75/1 76/76/1
f 77/77/1 78/78/1 79/79/1 80/80/1
f 81/81/1 82/82/1 83/83/1 84/84/1
f 85/85/1 86/86/1 87/87/1 88/88/1
f 89/89/1 90/90/1 91/91/1 92/92/1
f 93/93/1 94/94/1 95/95/1 96/96/1
f 97/97/1 98/98/1 99/99/1 100/100/1
f 101/101/1 102/102/1 103/103/1 104/104/1
f 105/105/1 106/106/1 107/107/1 108/108/1
f 109/109/1 110/110/1 111/111/1 112/112/1
f 113/113/1 114/114/1 115/115/1 116/116/1
f 117/117/1 118/118/1 119/119/1 120/120/1
f 121/121/1 122/122/1 123/123/1 124/124/1
f 125/125/1 126/126/1 127/127/1 128/128/1
f 129/129/1 130/130/1 131/131/1 132/132/1
f 133/133/1 134/134/1 135/135/1 136/136/1
f 137/137/1 138/138/1 139/139/1 140/140/1
f 141/141/1 142/142/1 143/143/1 144/144/1
f 145/145/1 146/146/1 147/147/1 148/148/1
f 149/149/1 150/150/1 151/151/1 152/152/1
f 153/153/1 154/154/1 155/155/1 156/156/1
f 157/157/1 158/158/1 159/159/1 160/160/1
f 161/161/1 162/162/1 163/163/1 164/164/1
f 163/163/1 165/165/1 164/164/1
f 161/161/1 164/164/1 166/166/1
f 167/167/1 168/168/1 169/169/1 170/170/1
f 171/171/1 172/172/1 173/173/1 174/174/1
f 175/175/1 176/176/1 177/177/1 178/178/1
f 179/179/1 180/180/1 181/181/1 182/182/1
f 183/183/1 184/184/1 185/185/1 186/186/1
f 187/187/1 188/188/1 189/189/1 190/190/1
f 191/191/1 192/192/1 193/193/1 194/194/1
f 195/195/1 196/196/1 197/197/1 198/198/1
f 199/199/1 200/200/1 201/201/1 202/202/1
f 203/203/1 204/204/1 205/205/1 206/206/1
f 207/207/1 208/208/1 209/209/1 210/210/1
f 211/211/1 212/212/1 213/213/1 214/214/1
f 215/215/1 216/216/1 217/217/1 218/218/1
f 219/219/1 220/220/1 221/221/1 222/222/1
f 223/223/1 219/219/1 222/222/1 224/224/1
f 225/225/1 226/226/1 227/227/1 228/228/1
f 229/229/1 230/230/1 231/231/1 232/232/1
f 233/233/1 234/234/1 235/235/1 236/236/1
f 234/237/1 229/238/1 237/239/1 238/240/1
f 239/241/1 240/242/1 241/243/1 242/244/1
f 243/245/1 239/241/1 242/244/1 244/246/1
f 245/247/1 246/248/1 247/249/1 248/250/1
f 249/251/1 250/252/1 251/253/1 252/254/1
f 253/255/1 254/256/1 255/257/1 256/258/1
f 255/257/1 257/259/1 256/258/1
f 258/260/1 253/255/1 256/258/1
f 259/261/1 260/262/1 261/263/1 262/264/1
f 263/265/1 264/266/1 265/267/1 266/268/1
f 267/269/1 268/270/1 269/271/1 270/272/1
f 269/271/1 271/273/2 270/272/1
f 272/274/1 267/269/1 270/272/1 273/275/1
f 270/272/1 274/276/1 273/275/1
f 275/277/1 272/274/1 273/275/1 276/278/1
f 277/279/1 278/280/1 279/281/1 280/282/1
f 281/283/1 282/284/1 283/285/1 284/286/1
f 285/287/1 286/288/1 287/289/1 288/290/1
f 289/291/1 290/292/1 291/293/1 292/294/1
f 293/295/1 294/296/1 295/297/1 296/298/1
f 297/299/1 298/300/1 299/301/1 300/302/1
f 301/303/1 302/304/1 303/305/1 304/306/1
f 305/307/1 306/308/1 307/309/1 308/310/1
f 309/311/1 310/312/1 311/313/1 312/314/1
f 313/315/1 309/311/1 312/314/1 314/316/1
f 315/317/1 316/318/1 317/319/1 318/320/1
f 319/321/1 315/322/1 320/323/1 321/324/1
f 322/325/1 323/326/1 324/327/1 325/328/1
f 324/327/1 326/329/1 325/328/1
f 322/325/1 325/328/1 327/330/1
f 328/331/1 329/332/1 330/333/1 331/334/1
f 330/333/1 332/335/1 331/334/1
f 328/331/1 331/334/1 333/336/1
f 334/337/1 335/338/1 336/339/1 337/340/1
f 338/341/1 334/337/1 337/340/1 339/342/1
f 340/343/1 334/337/1 338/341/1 341/344/1
f 342/345/1 343/346/1 344/347/1 345/348/1
f 346/349/1 345/348/1 344/347/1 347/350/1
f 346/349/1 348/351/1 345/348/1
f 342/345/1 345/348/1 349/352/1
