# Blender v2.78 (sub 0) OBJ File: ''
# www.blender.org
mtllib CityEngineMaterial_345.mtl
o CityEngineMaterial_345
v 488.298309 48.753506 -13.652192
v 470.457214 48.753506 -12.624593
v 470.457214 50.997005 -12.624592
v 488.298309 50.997005 -13.652191
v 471.423615 48.753502 4.462008
v 471.423615 50.997002 4.462008
v 489.276001 48.753502 3.414708
v 489.276001 50.997002 3.414708
v -454.250702 4.401634 406.153107
v -454.018707 4.401636 395.070892
v -454.018707 6.484636 395.070892
v -454.250702 6.484534 406.153107
v -456.805389 4.401636 394.785492
v -456.805389 6.484636 394.785492
v -456.840515 4.401636 396.462799
v -456.840515 6.484636 396.462799
v -458.480713 4.401636 396.294800
v -458.480713 6.484636 396.294800
v -459.435699 4.401634 405.622101
v -459.435699 6.484534 405.622101
v -205.185699 2.040391 668.773804
v -206.483902 2.040391 669.974182
v -206.483902 3.880791 669.974182
v -205.185699 3.880791 668.773804
v -204.574600 2.040390 672.039917
v -204.574600 3.880790 672.039917
v -189.963593 2.040493 658.530579
v -189.963593 3.880793 658.530579
v -193.675003 2.040493 654.515320
v -193.675003 3.880793 654.515320
v -206.970795 2.040391 666.842529
v -206.970795 3.880791 666.842529
v -453.115509 4.057144 346.325500
v -452.917297 4.057146 329.640015
v -452.917297 6.326846 329.640015
v -453.115509 6.326844 346.325500
v -470.617798 4.057146 329.447113
v -470.617798 6.326846 329.447113
v -470.815399 4.057144 346.119598
v -470.815399 6.326844 346.119598
v 288.169403 19.157764 218.002396
v 274.292114 19.157764 218.669205
v 274.292114 20.987463 218.669205
v 288.169403 20.987463 218.002396
v 275.409485 19.157763 238.030594
v 275.409485 20.987461 238.030594
v 290.506195 19.157763 237.173492
v 290.506195 20.987461 237.173492
v 101.911598 18.654812 -65.636597
v 100.996101 18.654812 -65.552101
v 100.996101 20.347311 -65.552101
v 101.911598 20.347311 -65.636597
v 101.251999 18.654810 -61.820396
v 101.251999 20.347309 -61.820396
v 106.557899 18.654810 -62.310295
v 106.557899 20.347309 -62.310295
v 111.525803 18.654810 -63.113297
v 111.525803 20.347309 -63.113297
v 110.849297 18.654812 -72.313103
v 110.849297 20.347311 -72.313103
v 100.580597 18.654812 -71.607399
v 100.580597 20.347311 -71.607399
v 100.839302 18.654812 -67.837402
v 100.839302 20.347311 -67.837402
v 101.745102 18.654812 -67.899597
v 101.745102 20.347311 -67.899597
v 278.073212 47.885231 -789.025818
v 282.467102 47.885231 -789.717224
v 282.467102 49.593128 -789.717224
v 278.073212 49.593128 -789.025818
v 282.058685 47.885231 -792.351379
v 282.058685 49.593128 -792.351379
v 286.091187 47.885231 -792.982788
v 286.091187 49.593128 -792.982788
v 284.640289 47.885231 -802.346130
v 284.640289 49.593128 -802.346130
v 276.212189 47.885231 -801.026306
v 276.212189 49.593128 -801.026306
v 685.617188 31.587740 357.649506
v 673.094971 31.587740 360.959290
v 673.094971 33.923943 360.959290
v 685.617188 33.923943 357.649506
v 679.329285 31.587736 384.472107
v 679.329285 33.923939 384.472107
v 691.166870 31.587736 381.345398
v 691.166870 33.923939 381.345398
v 716.142883 80.972229 -191.161087
v 716.017517 80.972229 -192.343781
v 716.017517 82.680832 -192.343781
v 716.142883 82.680832 -191.161087
v 716.965271 80.972229 -192.210587
v 716.965271 82.680832 -192.210587
v 716.822693 80.972229 -191.063385
v 716.822693 82.680832 -191.063385
v 719.011780 80.972229 -190.748886
v 719.011780 82.680832 -190.748886
v 719.870972 80.972229 -197.660492
v 719.870972 82.680832 -197.660492
v 719.504578 80.972229 -197.689987
v 719.504578 82.680832 -197.689987
v 714.388916 80.972229 -198.408783
v 714.388916 82.680832 -198.408783
v 712.629822 80.972229 -198.801285
v 712.629822 82.680832 -198.801285
v 713.398071 80.972229 -191.555283
v 713.398071 82.680832 -191.555283
v -215.867096 1.313772 173.276901
v -217.534805 1.313873 166.754593
v -217.534805 2.955073 166.754593
v -215.867096 2.955072 173.276901
v -228.543198 1.313872 169.574905
v -228.543198 2.955072 169.574905
v -227.400299 1.313872 174.035797
v -227.400299 2.955072 174.035797
v -226.694504 1.313772 173.854996
v -226.694504 2.955072 173.854996
v -226.167496 1.313771 175.915802
v -226.167496 2.955071 175.915802
v 185.122101 10.369960 248.124298
v 167.552597 10.369959 249.694397
v 167.552597 12.453359 249.694397
v 185.122101 12.453360 248.124298
v 169.162903 10.369956 266.444214
v 169.162903 12.453356 266.444214
v 185.079697 10.369958 258.856293
v 185.079697 12.453358 258.856293
v -70.570801 7.808928 -169.208405
v -71.123100 7.808928 -173.114807
v -71.123100 9.550729 -173.114807
v -70.570801 9.550728 -169.208405
v -72.906998 7.808928 -172.867493
v -72.906998 9.550729 -172.867493
v -73.373398 7.808928 -176.170303
v -73.373398 9.550729 -176.170303
v -71.599197 7.808928 -176.482697
v -71.599197 9.550729 -176.482697
v -72.022598 7.808929 -179.478302
v -72.022598 9.550730 -179.478302
v -86.938904 7.808928 -176.853195
v -86.938904 9.550729 -176.853195
v -85.566002 7.808927 -167.129898
v -85.566002 9.550728 -167.129898
v 340.839508 56.397579 -490.937286
v 347.422913 56.397579 -491.391510
v 347.422913 58.536480 -491.391510
v 340.839508 58.536480 -490.937286
v 346.420898 56.397583 -505.935211
v 346.420898 58.536385 -505.935211
v 344.949188 56.397583 -505.830597
v 344.949188 58.536385 -505.830597
v 345.072693 56.397583 -504.038086
v 345.072693 58.536385 -504.038086
v 344.364410 56.397583 -503.989288
v 344.364410 58.536385 -503.989288
v 344.567413 56.397583 -505.803497
v 344.567413 58.536385 -505.803497
v 342.486298 56.397583 -505.655701
v 342.486298 58.536385 -505.655701
v 987.249084 102.778534 -168.134491
v 985.150879 102.778534 -173.564789
v 985.150879 104.794830 -173.564789
v 987.249084 104.794830 -168.134491
v 984.989624 102.778534 -173.503586
v 984.989624 104.794830 -173.503586
v 983.771729 102.778534 -171.055588
v 983.771729 104.794830 -171.055588
v 981.742798 102.778534 -170.339081
v 981.742798 104.794830 -170.339081
v 981.103088 102.778534 -172.029785
v 981.103088 104.794830 -172.029785
v 968.571716 102.778534 -167.277588
v 968.571716 104.794830 -167.277588
v 970.664917 102.778526 -161.744690
v 970.664917 104.794823 -161.744690
v 986.927673 102.778534 -167.488480
v 986.927673 104.794830 -167.488480
v 45.274399 35.623280 -1103.416748
v 46.039299 35.623280 -1098.554688
v 46.039299 36.850479 -1098.554688
v 45.274399 36.850479 -1103.416748
v 51.624500 35.623280 -1099.405273
v 51.624500 36.850479 -1099.405273
v 50.900101 35.623280 -1111.912598
v 50.900101 36.850479 -1111.912598
v 47.164799 35.623280 -1111.697144
v 47.164799 36.850479 -1111.697144
v 47.623699 35.623280 -1103.774414
v 47.623699 36.850479 -1103.774414
v -570.301697 12.173709 -669.917908
v -562.020020 12.173710 -672.438416
v -562.020020 13.576110 -672.438416
v -570.301697 13.576109 -669.917908
v -562.710083 12.173710 -674.707275
v -562.710083 13.576110 -674.707275
v -567.257202 12.173710 -673.323425
v -567.257202 13.576110 -673.323425
v -568.867981 12.173711 -678.627197
v -568.867981 13.576111 -678.627197
v -564.325989 12.173711 -680.019470
v -564.325989 13.576111 -680.019470
v -564.957275 12.173712 -682.094788
v -564.957275 13.576112 -682.094788
v -573.229797 12.173711 -679.559021
v -573.229797 13.576111 -679.559021
vt 0.6667 0.0000
vt 2.8333 -0.0000
vt 2.8333 1.0000
vt 0.6667 1.0000
vt 0.6667 0.0000
vt 2.6667 -0.0000
vt 2.6667 1.0000
vt 0.6667 1.0000
vt 0.5000 0.0000
vt 2.6667 -0.0000
vt 2.6667 1.0000
vt 0.5000 1.0000
vt 0.6667 0.0000
vt 2.6667 -0.0000
vt 2.6667 1.0000
vt 0.6667 1.0000
vt -0.0000 0.0000
vt 1.6667 -0.0000
vt 1.6667 1.0000
vt -0.0000 1.0000
vt -0.0000 0.0000
vt 0.3333 0.0000
vt 0.3333 1.0000
vt -0.0000 1.0000
vt 0.6667 0.0000
vt 0.8333 0.0000
vt 0.8333 1.0000
vt 0.6667 1.0000
vt 0.3333 0.0000
vt 0.5000 0.0000
vt 0.5000 1.0000
vt 0.3333 1.0000
vt 0.8333 0.0000
vt 2.1667 0.0000
vt 2.1667 1.0000
vt 0.8333 1.0000
vt 0.6667 0.0000
vt 1.5000 0.0000
vt 1.5000 1.0000
vt 0.6667 1.0000
vt -0.0000 0.0000
vt 0.3333 0.0000
vt 0.3333 1.0000
vt -0.0000 1.0000
vt 0.8333 0.0000
vt 1.3333 0.0000
vt 1.3333 1.0000
vt 0.8333 1.0000
vt 0.6667 0.0000
vt 4.3333 0.0000
vt 4.3333 1.0000
vt 0.6667 1.0000
vt 0.6667 0.0000
vt 1.6667 -0.0000
vt 1.6667 1.0000
vt 0.6667 1.0000
vt 0.3333 0.0000
vt 3.6667 0.0000
vt 3.6667 1.0000
vt 0.3333 1.0000
vt 0.1667 0.0000
vt 0.6667 0.0000
vt 0.6667 1.0000
vt 0.1667 1.0000
vt 0.3333 0.0000
vt 2.3333 -0.0000
vt 2.3333 1.0000
vt 0.3333 1.0000
vt 0.5000 0.0000
vt 2.5000 0.0000
vt 2.5000 1.0000
vt 0.5000 1.0000
vt -0.0000 0.0000
vt 2.0000 0.0000
vt 2.0000 1.0000
vt -0.0000 1.0000
vt 0.3333 0.0000
vt 2.3333 -0.0000
vt 2.3333 1.0000
vt 0.3333 1.0000
vt 0.6667 0.0000
vt 2.5000 0.0000
vt 2.5000 1.0000
vt 0.6667 1.0000
vt -0.0000 0.0000
vt 2.5000 0.0000
vt 2.5000 1.0000
vt -0.0000 1.0000
vt 0.3333 0.0000
vt 2.3333 -0.0000
vt 2.3333 1.0000
vt 0.3333 1.0000
vt 0.6667 0.0000
vt 3.1667 0.0000
vt 3.1667 1.0000
vt 0.6667 1.0000
vt 0.3333 0.0000
vt 0.5000 0.0000
vt 0.5000 1.0000
vt 0.3333 1.0000
vt 1.0000 0.0000
vt 1.0000 1.0000
vt -0.0000 0.0000
vt 0.8333 0.0000
vt 0.8333 1.0000
vt -0.0000 1.0000
vt 0.3333 0.0000
vt 1.1667 0.0000
vt 1.1667 1.0000
vt 0.3333 1.0000
vt 0.3333 0.0000
vt 1.8333 0.0000
vt 1.8333 1.0000
vt 0.3333 1.0000
vt 0.8333 0.0000
vt 2.3333 -0.0000
vt 2.3333 1.0000
vt 0.8333 1.0000
vt 0.6667 0.0000
vt 1.1667 0.0000
vt 1.1667 1.0000
vt 0.6667 1.0000
vt 0.5000 0.0000
vt 0.6667 0.0000
vt 0.6667 1.0000
vt 0.5000 1.0000
vt 0.1667 0.0000
vt 0.5000 0.0000
vt 0.5000 1.0000
vt 0.1667 1.0000
vt 0.3333 0.0000
vt 0.8333 0.0000
vt 0.8333 1.0000
vt 0.3333 1.0000
vt 0.6667 0.0000
vt 1.0000 0.0000
vt 1.0000 1.0000
vt 0.6667 1.0000
vt 0.6667 0.0000
vt 1.1667 0.0000
vt 1.1667 1.0000
vt 0.6667 1.0000
vt 0.5000 0.0000
vt 1.6667 -0.0000
vt 1.6667 1.0000
vt 0.5000 1.0000
vt 0.6667 0.0000
vt 1.6667 -0.0000
vt 1.6667 1.0000
vt 0.6667 1.0000
vt 0.8333 0.0000
vt 2.3333 -0.0000
vt 2.3333 1.0000
vt 0.8333 1.0000
vt 0.8333 0.0000
vt 3.0000 0.0000
vt 3.0000 1.0000
vt 0.8333 1.0000
vt 0.1667 0.0000
vt 4.3333 0.0000
vt 4.3333 1.0000
vt 0.1667 1.0000
vt 0.1667 0.0000
vt 2.3333 -0.0000
vt 2.3333 1.0000
vt 0.1667 1.0000
vt 0.5000 0.0000
vt 4.6667 -0.0000
vt 4.6667 1.0000
vt 0.5000 1.0000
vt 0.1667 0.0000
vt 0.3333 0.0000
vt 0.3333 1.0000
vt 0.1667 1.0000
vt 0.6667 0.0000
vt 0.8333 0.0000
vt 0.8333 1.0000
vt 0.6667 1.0000
vt 1.0000 0.0000
vt 1.0000 1.0000
vt 0.1667 0.0000
vt 0.5000 0.0000
vt 0.5000 1.0000
vt 0.1667 1.0000
vt 0.3333 0.0000
vt 1.3333 0.0000
vt 1.3333 1.0000
vt 0.3333 1.0000
vt 0.1667 0.0000
vt 0.2000 -0.0000
vt 0.2000 1.0000
vt 0.1667 1.0000
vt 0.6667 0.0000
vt 1.3333 0.0000
vt 1.3333 1.0000
vt 0.6667 1.0000
vt 0.3333 0.0000
vt 0.6667 0.0000
vt 0.6667 1.0000
vt 0.3333 1.0000
vt -0.0000 0.0000
vt 1.0000 0.0000
vt 1.0000 1.0000
vt -0.0000 1.0000
vt 0.5000 0.0000
vt 0.8333 0.0000
vt 0.8333 1.0000
vt 0.5000 1.0000
vt 0.8333 0.0000
vt 1.6667 -0.0000
vt 1.6667 1.0000
vt 0.8333 1.0000
vt 0.6667 0.0000
vt 2.0000 0.0000
vt 2.0000 1.0000
vt 0.6667 1.0000
vt 0.3333 0.0000
vt 0.8333 0.0000
vt 0.8333 1.0000
vt 0.3333 1.0000
vt 0.6667 0.0000
vt 0.8333 0.0000
vt 0.8333 1.0000
vt 0.6667 1.0000
vt 0.1667 0.0000
vt 0.5000 0.0000
vt 0.5000 1.0000
vt 0.1667 1.0000
vt 0.3333 0.0000
vt 1.6667 -0.0000
vt 1.6667 1.0000
vt 0.3333 1.0000
vt 0.1667 0.0000
vt 2.3333 -0.0000
vt 2.3333 1.0000
vt 0.1667 1.0000
vt 0.1667 0.0000
vt 2.1667 0.0000
vt 2.1667 1.0000
vt 0.1667 1.0000
vt -0.0000 0.0000
vt 2.1667 0.0000
vt 2.1667 1.0000
vt -0.0000 1.0000
vt 0.5000 0.0000
vt 1.8333 0.0000
vt 1.8333 1.0000
vt 0.5000 1.0000
vt 0.5000 0.0000
vt 1.0000 0.0000
vt 1.0000 1.0000
vt 0.5000 1.0000
vt 0.1667 0.0000
vt 0.3333 0.0000
vt 0.3333 1.0000
vt 0.1667 1.0000
vt 0.1667 0.0000
vt 0.5000 0.0000
vt 0.5000 1.0000
vt 0.1667 1.0000
vt 0.3333 0.0000
vt 0.5000 0.0000
vt 0.5000 1.0000
vt 0.3333 1.0000
vt 0.8333 0.0000
vt 0.8333 1.0000
vt 0.6667 0.0000
vt 2.5000 0.0000
vt 2.5000 1.0000
vt 0.6667 1.0000
vt 0.1667 0.0000
vt 1.3333 0.0000
vt 1.3333 1.0000
vt 0.1667 1.0000
vt 0.3333 0.0000
vt 2.1667 0.0000
vt 2.1667 1.0000
vt 0.3333 1.0000
vt 0.3333 0.0000
vt 1.1667 0.0000
vt 1.1667 1.0000
vt 0.3333 1.0000
vt 0.1667 0.0000
vt 2.0000 0.0000
vt 2.0000 1.0000
vt 0.1667 1.0000
vt 0.6667 0.0000
vt 0.8333 0.0000
vt 0.8333 1.0000
vt 0.6667 1.0000
vt 0.5000 0.0000
vt 0.6667 0.0000
vt 0.6667 1.0000
vt 0.5000 1.0000
vt 0.3333 0.0000
vt 0.5000 0.0000
vt 0.5000 1.0000
vt 0.3333 1.0000
vt 0.8333 0.0000
vt 1.0000 0.0000
vt 1.0000 1.0000
vt 0.8333 1.0000
vt 0.1667 0.0000
vt 0.5000 0.0000
vt 0.5000 1.0000
vt 0.1667 1.0000
vt 0.1667 0.0000
vt 2.0000 0.0000
vt 2.0000 1.0000
vt 0.1667 1.0000
vt 0.5000 0.0000
vt 1.3333 0.0000
vt 1.3333 1.0000
vt 0.5000 1.0000
vt 0.6667 0.0000
vt 0.7000 -0.0000
vt 0.7000 1.0000
vt 0.6667 1.0000
vt 0.3333 0.0000
vt 0.6667 0.0000
vt 0.6667 1.0000
vt 0.3333 1.0000
vt 0.5000 0.0000
vt 0.8333 0.0000
vt 0.8333 1.0000
vt 0.5000 1.0000
vt 0.3333 0.0000
vt 0.6667 0.0000
vt 0.6667 1.0000
vt 0.3333 1.0000
vt 0.3333 0.0000
vt 2.1667 0.0000
vt 2.1667 1.0000
vt 0.3333 1.0000
vt 0.6667 0.0000
vt 1.5000 0.0000
vt 1.5000 1.0000
vt 0.6667 1.0000
vt 0.5000 0.0000
vt 3.0000 0.0000
vt 3.0000 1.0000
vt 0.5000 1.0000
vt 0.3333 0.0000
vt 0.3333 1.0000
vt 0.5000 0.0000
vt 1.1667 0.0000
vt 1.1667 1.0000
vt 0.5000 1.0000
vt 0.3333 0.0000
vt 1.0000 0.0000
vt 1.0000 1.0000
vt 0.3333 1.0000
vt 0.6667 0.0000
vt 2.1667 0.0000
vt 2.1667 1.0000
vt 0.6667 1.0000
vt 0.3333 0.0000
vt 0.8333 0.0000
vt 0.8333 1.0000
vt 0.3333 1.0000
vt 0.3333 0.0000
vt 1.3333 0.0000
vt 1.3333 1.0000
vt 0.3333 1.0000
vt 0.6667 0.0000
vt 1.0000 0.0000
vt 1.0000 1.0000
vt 0.6667 1.0000
vt 0.1667 0.0000
vt 1.3333 0.0000
vt 1.3333 1.0000
vt 0.1667 1.0000
vt 0.1667 0.0000
vt 0.5000 0.0000
vt 0.5000 1.0000
vt 0.1667 1.0000
vt 0.1667 0.0000
vt 0.8333 0.0000
vt 0.8333 1.0000
vt 0.1667 1.0000
vt 0.1667 0.0000
vt 0.8333 0.0000
vt 0.8333 1.0000
vt 0.1667 1.0000
vt 0.5000 0.0000
vt 1.1667 0.0000
vt 1.1667 1.0000
vt 0.5000 1.0000
vt 0.3333 0.0000
vt 0.6667 0.0000
vt 0.6667 1.0000
vt 0.3333 1.0000
vt 0.5000 0.0000
vt 1.6667 -0.0000
vt 1.6667 1.0000
vt 0.5000 1.0000
vt 0.5000 0.0000
vt 1.8333 0.0000
vt 1.8333 1.0000
vt 0.5000 1.0000
vn -0.0575 0.0000 -0.9983
vn -0.9984 -0.0000 0.0565
vn 0.0586 -0.0000 0.9983
vn 0.9984 0.0000 -0.0572
vn 0.9998 0.0000 0.0209
vn 0.1019 0.0000 -0.9948
vn -0.9998 0.0000 -0.0209
vn -0.9948 0.0000 -0.1019
vn -0.1019 0.0000 0.9948
vn -0.6789 0.0000 -0.7342
vn -0.7344 0.0000 0.6788
vn 0.6789 0.0000 0.7342
vn 0.7343 0.0000 -0.6788
vn -0.6799 0.0000 -0.7333
vn 0.9999 0.0000 0.0119
vn 0.0109 0.0000 -0.9999
vn -0.9999 0.0000 -0.0119
vn -0.0116 0.0000 0.9999
vn -0.0480 0.0000 -0.9988
vn -0.9983 0.0000 0.0576
vn 0.0567 0.0000 0.9984
vn 0.9927 0.0000 -0.1210
vn -0.0919 0.0000 -0.9958
vn -0.9977 0.0000 0.0684
vn 0.0919 0.0000 0.9958
vn 0.1596 0.0000 0.9872
vn 0.9973 0.0000 -0.0733
vn -0.0686 0.0000 -0.9976
vn -0.9977 0.0000 0.0685
vn 0.0685 0.0000 0.9977
vn -0.9973 0.0000 0.0734
vn 0.1555 0.0000 0.9878
vn 0.9882 0.0000 -0.1532
vn 0.1547 0.0000 0.9880
vn 0.9882 0.0000 -0.1531
vn -0.1547 0.0000 -0.9880
vn -0.9882 0.0000 0.1532
vn -0.2555 0.0000 -0.9668
vn -0.9666 0.0000 0.2563
vn 0.2554 0.0000 0.9668
vn 0.9737 0.0000 -0.2280
vn 0.9944 0.0000 -0.1054
vn -0.1392 0.0000 0.9903
vn -0.9924 0.0000 -0.1233
vn -0.1422 0.0000 0.9898
vn 0.9924 0.0000 0.1234
vn 0.0802 0.0000 -0.9968
vn 0.1391 0.0000 -0.9903
vn 0.2178 0.0000 -0.9760
vn -0.9944 0.0000 0.1054
vn 0.9688 0.0000 -0.2477
vn -0.2482 0.0000 -0.9687
vn -0.9687 0.0000 0.2482
vn 0.2482 0.0000 0.9687
vn -0.9688 0.0000 0.2478
vn -0.0890 0.0000 -0.9960
vn -0.9954 0.0000 0.0957
vn 0.4303 0.0000 0.9027
vn 1.0000 0.0000 0.0040
vn 0.9902 0.0000 -0.1400
vn -0.1373 0.0000 -0.9905
vn 0.9902 0.0000 -0.1398
vn 0.1734 0.0000 0.9848
vn 0.9902 0.0000 -0.1399
vn -0.1733 0.0000 -0.9849
vn -0.9902 0.0000 0.1398
vn 0.1373 0.0000 0.9905
vn 0.0688 0.0000 0.9976
vn 0.9976 0.0000 -0.0687
vn -0.0709 0.0000 -0.9975
vn -0.9976 0.0000 0.0687
vn -0.0687 0.0000 -0.9976
vn 0.9938 0.0000 0.1112
vn -0.9938 0.0000 -0.1112
vn 0.9328 0.0000 -0.3604
vn -0.3549 0.0000 -0.9349
vn -0.8953 0.0000 -0.4454
vn -0.3330 0.0000 -0.9429
vn 0.9353 0.0000 -0.3539
vn -0.3546 0.0000 -0.9350
vn -0.9353 0.0000 0.3538
vn 0.3330 0.0000 0.9429
vn 0.8953 0.0000 0.4454
vn -0.9879 0.0000 0.1554
vn 0.1506 0.0000 0.9886
vn 0.9983 0.0000 -0.0578
vn -0.0576 0.0000 -0.9983
vn -0.9983 0.0000 0.0578
vn -0.1505 0.0000 -0.9886
vn 0.2912 0.0000 0.9567
vn 0.9567 0.0000 -0.2910
vn -0.2911 0.0000 -0.9567
vn 0.9568 0.0000 -0.2906
vn 0.2931 0.0000 0.9561
vn -0.2931 0.0000 -0.9561
vn -0.9568 0.0000 0.2906
g CityEngineMaterial_345_CityEngineMaterial_345_CityEngineMaterial_345_mat
usemtl CityEngineMaterial_345_mat
s 1
f 1/1/1 2/2/1 3/3/1 4/4/1
f 2/5/2 5/6/2 6/7/2 3/8/2
f 5/9/3 7/10/3 8/11/3 6/12/3
f 7/13/4 1/14/4 4/15/4 8/16/4
f 9/17/5 10/18/5 11/19/5 12/20/5
f 10/21/6 13/22/6 14/23/6 11/24/6
f 13/25/7 15/26/7 16/27/7 14/28/7
f 15/29/6 17/30/6 18/31/6 16/32/6
f 17/33/8 19/34/8 20/35/8 18/36/8
f 19/37/9 9/38/9 12/39/9 20/40/9
f 21/41/10 22/42/10 23/43/10 24/44/10
f 22/45/11 25/46/11 26/47/11 23/48/11
f 25/49/12 27/50/12 28/51/12 26/52/12
f 27/53/13 29/54/13 30/55/13 28/56/13
f 29/57/14 31/58/14 32/59/14 30/60/14
f 31/61/11 21/62/11 24/63/11 32/64/11
f 33/65/15 34/66/15 35/67/15 36/68/15
f 34/69/16 37/70/16 38/71/16 35/72/16
f 37/73/17 39/74/17 40/75/17 38/76/17
f 39/77/18 33/78/18 36/79/18 40/80/18
f 41/81/19 42/82/19 43/83/19 44/84/19
f 42/85/20 45/86/20 46/87/20 43/88/20
f 45/89/21 47/90/21 48/91/21 46/92/21
f 47/93/22 41/94/22 44/95/22 48/96/22
f 49/97/23 50/98/23 51/99/23 52/100/23
f 50/98/24 53/101/24 54/102/24 51/99/24
f 53/103/25 55/104/25 56/105/25 54/106/25
f 55/107/26 57/108/26 58/109/26 56/110/26
f 57/111/27 59/112/27 60/113/27 58/114/27
f 59/115/28 61/116/28 62/117/28 60/118/28
f 61/119/29 63/120/29 64/121/29 62/122/29
f 63/123/30 65/124/30 66/125/30 64/126/30
f 65/127/31 49/128/31 52/129/31 66/130/31
f 67/131/32 68/132/32 69/133/32 70/134/32
f 68/135/33 71/136/33 72/137/33 69/138/33
f 71/139/34 73/140/34 74/141/34 72/142/34
f 73/143/35 75/144/35 76/145/35 74/146/35
f 75/147/36 77/148/36 78/149/36 76/150/36
f 77/151/37 67/152/37 70/153/37 78/154/37
f 79/155/38 80/156/38 81/157/38 82/158/38
f 80/159/39 83/160/39 84/161/39 81/162/39
f 83/163/40 85/164/40 86/165/40 84/166/40
f 85/167/41 79/168/41 82/169/41 86/170/41
f 87/171/42 88/172/42 89/173/42 90/174/42
f 88/175/43 91/176/43 92/177/43 89/178/43
f 91/176/44 93/179/44 94/180/44 92/177/44
f 93/181/45 95/182/45 96/183/45 94/184/45
f 95/185/46 97/186/46 98/187/46 96/188/46
f 97/189/47 99/190/47 100/191/47 98/192/47
f 99/193/48 101/194/48 102/195/48 100/196/48
f 101/197/49 103/198/49 104/199/49 102/200/49
f 103/201/50 105/202/50 106/203/50 104/204/50
f 105/205/45 87/206/45 90/207/45 106/208/45
f 107/209/51 108/210/51 109/211/51 110/212/51
f 108/213/52 111/214/52 112/215/52 109/216/52
f 111/217/53 113/218/53 114/219/53 112/220/53
f 113/221/54 115/222/54 116/223/54 114/224/54
f 115/225/55 117/226/55 118/227/55 116/228/55
f 117/229/54 107/230/54 110/231/54 118/232/54
f 119/233/56 120/234/56 121/235/56 122/236/56
f 120/237/57 123/238/57 124/239/57 121/240/57
f 123/241/58 125/242/58 126/243/58 124/244/58
f 125/245/59 119/246/59 122/247/59 126/248/59
f 127/249/60 128/250/60 129/251/60 130/252/60
f 128/253/61 131/254/61 132/255/61 129/256/61
f 131/257/62 133/258/62 134/259/62 132/260/62
f 133/261/63 135/262/63 136/263/63 134/264/63
f 135/262/64 137/265/64 138/266/64 136/263/64
f 137/267/65 139/268/65 140/269/65 138/270/65
f 139/271/66 141/272/66 142/273/66 140/274/66
f 141/275/67 127/276/67 130/277/67 142/278/67
f 143/279/68 144/280/68 145/281/68 146/282/68
f 144/283/69 147/284/69 148/285/69 145/286/69
f 147/287/70 149/288/70 150/289/70 148/290/70
f 149/291/71 151/292/71 152/293/71 150/294/71
f 151/295/72 153/296/72 154/297/72 152/298/72
f 153/299/73 155/300/73 156/301/73 154/302/73
f 155/303/70 157/304/70 158/305/70 156/306/70
f 157/307/74 143/308/74 146/309/74 158/310/74
f 159/311/75 160/312/75 161/313/75 162/314/75
f 160/315/76 163/316/76 164/317/76 161/318/76
f 163/319/77 165/320/77 166/321/77 164/322/77
f 165/323/78 167/324/78 168/325/78 166/326/78
f 167/327/79 169/328/79 170/329/79 168/330/79
f 169/331/80 171/332/80 172/333/80 170/334/80
f 171/335/81 173/336/81 174/337/81 172/338/81
f 173/339/82 175/340/82 176/341/82 174/342/82
f 175/343/83 159/311/83 162/314/83 176/344/83
f 177/345/84 178/346/84 179/347/84 180/348/84
f 178/349/85 181/350/85 182/351/85 179/352/85
f 181/353/86 183/354/86 184/355/86 182/356/86
f 183/357/87 185/358/87 186/359/87 184/360/87
f 185/361/88 187/362/88 188/363/88 186/364/88
f 187/365/89 177/366/89 180/367/89 188/368/89
f 189/369/90 190/370/90 191/371/90 192/372/90
f 190/373/91 193/374/91 194/375/91 191/376/91
f 193/377/92 195/378/92 196/379/92 194/380/92
f 195/381/93 197/382/93 198/383/93 196/384/93
f 197/385/94 199/386/94 200/387/94 198/388/94
f 199/389/91 201/390/91 202/391/91 200/392/91
f 201/393/95 203/394/95 204/395/95 202/396/95
f 203/397/96 189/398/96 192/399/96 204/400/96
