# Blender v2.78 (sub 0) OBJ File: ''
# www.blender.org
mtllib CityEngineMaterial_383.mtl
o CityEngineMaterial_383
v -1228.439453 18.862949 317.245209
v -1229.610718 18.862949 317.010010
v -1230.095703 18.862949 319.423004
v -1214.439941 18.862949 314.854492
v -1215.929810 18.862947 322.268188
v -1228.012085 18.862949 315.118286
v -1229.183350 18.862949 314.882996
v -1228.605713 18.862949 312.008514
v -1225.934204 19.389248 316.495087
v -1217.466064 19.389248 318.196503
v -1216.703125 19.389248 314.399811
v -1225.171265 19.389248 312.698486
v -1226.661133 19.389248 320.112915
v -1221.528198 19.389248 321.143799
v -1220.801270 19.389248 317.526398
v 590.211792 59.380398 17.812210
v 598.048584 59.380398 15.945709
v 595.420410 59.380402 4.938910
v 591.273071 59.380402 5.926710
v 590.853027 59.380402 4.131810
v 587.213684 59.380402 5.000909
v 590.002319 60.149399 7.983010
v 589.582520 60.149399 6.189010
v 589.261719 60.149399 6.265610
v 593.117676 60.149395 15.366509
v 591.482483 60.149395 15.756009
v 592.437988 60.149395 12.462110
v 594.157227 60.149399 6.993410
v 595.300171 60.149395 11.780410
v -554.685425 13.864701 608.421326
v -552.581421 13.864701 608.446411
v -552.181885 13.864701 606.223816
v -562.471985 13.864700 614.731995
v -554.730591 13.864701 606.193420
v -560.835693 13.864702 605.621277
v -556.026978 13.864700 615.891418
v -560.938477 15.183801 606.193298
v -562.369202 15.183800 614.159973
v -558.930603 15.183800 614.777588
v -557.499817 15.183801 606.810913
v -558.182373 15.183801 610.611328
v -555.924011 15.183800 615.317627
v -555.175720 15.183801 611.151184
v 237.666504 50.797939 -229.775787
v 239.917801 50.797939 -230.132492
v 239.459106 50.797939 -243.439484
v 239.975998 50.797943 -248.278488
v 240.140396 50.797939 -243.503479
v 237.038193 50.797943 -248.002579
v 756.576172 82.926628 -174.631989
v 749.613586 82.926628 -173.722382
v 742.914673 82.926628 -172.686890
v 745.457581 82.926620 -154.290787
v 759.113586 82.926620 -156.176788
v 751.797607 99.296227 -155.166382
v 749.254028 99.296234 -173.666779
v 742.914673 99.296234 -172.686890
v 745.457581 99.296227 -154.290787
v 751.393005 99.718521 -158.109589
v 749.660583 99.718529 -170.709488
v 746.109375 99.718529 -170.221283
v 747.841797 99.718521 -157.621292
v 747.125488 99.718521 -162.830780
v 746.590210 99.718529 -166.724487
v 743.819275 99.718529 -166.343582
v 744.354614 99.718521 -162.449890
v 615.310913 26.200800 606.374329
v 604.444519 26.200800 610.146912
v 606.143921 26.200798 615.789978
v 610.671326 26.200800 614.218323
v 613.449585 26.200798 623.443970
v 619.790588 26.200798 621.249329
v 320.449188 33.425385 102.520508
v 320.528412 33.425385 104.295204
v 325.185211 33.425385 104.026108
v 324.677612 33.425385 92.670609
v 313.968811 33.425385 102.889305
v 313.532104 33.425385 93.304909
v 323.012085 34.315483 94.514404
v 315.355103 34.315483 94.950211
v 315.528900 34.315483 98.764709
v 320.934509 34.315483 98.457008
v 322.114807 34.315483 100.676605
v 321.036499 34.315483 100.738007
v 322.194000 34.315483 102.449806
v 323.363708 34.315483 102.382210
v 923.532227 104.162834 -163.998184
v 921.495911 104.162834 -177.209579
v 919.691772 104.162834 -176.711380
v 911.892822 104.162834 -174.212982
v 915.145813 104.162834 -175.342880
v 916.363525 104.162834 -170.144089
v 912.714783 104.162834 -168.876785
v 917.106384 104.162834 -165.325089
v 913.877625 104.162827 -161.329086
v 913.418884 104.162834 -164.305679
v 350.416901 56.351353 -326.980194
v 339.860687 56.351353 -321.362000
v 341.365387 56.351353 -318.530487
v 347.914398 56.351353 -322.440796
v 348.089294 56.351353 -322.111786
v 351.743805 56.351353 -324.479004
v -283.002991 5.490326 450.773712
v -280.736298 5.490323 474.604309
v -261.429199 5.490323 472.767792
v -263.720001 5.490327 448.942596
v -281.455994 32.065125 467.038605
v -280.736298 32.065125 474.604309
v -261.429199 32.065125 472.767792
v -262.156708 32.065125 465.201996
v -282.375092 14.375926 457.375793
v -281.455994 14.375924 467.038605
v -271.766815 14.375924 466.116608
v -272.686310 14.375926 456.453796
v -279.963806 32.975422 473.669403
v -262.365112 32.975525 471.995300
v -262.665314 32.975525 468.872314
v -268.622406 32.975525 469.438995
v -268.882599 32.975525 466.703613
v -280.520996 32.975422 467.811188
v -279.631012 15.091525 464.829895
v -273.975494 15.091525 464.291687
v -274.304291 15.091525 460.836487
v -278.623505 15.091525 461.247498
v -278.830292 15.091526 459.073486
v -280.166412 15.091526 459.200714
v 202.647202 43.072746 -274.321289
v 200.760101 43.072750 -294.994110
v 187.785202 43.072750 -294.556213
v 189.674194 43.072746 -273.893005
v 202.647202 81.592743 -274.321289
v 201.886703 81.592743 -282.651886
v 188.912598 81.592743 -282.223602
v 189.674194 81.592743 -273.893005
v 201.886703 74.289246 -282.651886
v 200.760101 74.289246 -294.994110
v 193.714401 74.289246 -294.756287
v 194.122406 74.289246 -282.395599
v 202.123901 82.291946 -274.783386
v 201.450699 82.291946 -282.158112
v 189.436005 82.291946 -281.761505
v 195.199295 82.291946 -278.150513
v 189.782501 82.291946 -277.971588
v 195.526505 82.291946 -274.565613
v 201.646500 74.985245 -284.876190
v 200.883896 74.985245 -293.231415
v 197.240204 74.985245 -292.898804
v 198.002899 74.985245 -284.543488
v 197.455002 74.985245 -290.545288
v 194.103104 74.985245 -290.239288
v 194.651001 74.985245 -284.237610
v -513.695801 10.512406 571.948425
v -514.570618 10.512406 571.937988
v -514.601013 10.512406 574.492798
v -506.465912 10.512406 574.588928
v -513.628296 10.512407 566.262573
v -506.367889 10.512407 566.348877
v -508.888611 11.649507 572.107971
v -508.848907 11.649508 568.771729
v -509.761993 11.649508 568.760803
v -509.778687 11.649508 570.169128
v -511.245209 11.649507 572.080078
v -511.222198 11.649508 570.151978
vt 0.0803 0.6746
vt 0.0000 0.6746
vt -0.0000 1.0000
vt 0.9713 0.0001
vt 0.9712 1.0000
vt 0.0803 0.3877
vt 0.0000 0.3877
vt 0.0001 -0.0000
vt -0.0000 1.0000
vt 0.5577 1.0000
vt 0.5577 0.0000
vt 0.0001 -0.0000
vt -0.0000 1.0000
vt 0.9999 1.0000
vt 1.0000 0.0001
vt 0.0001 -0.0000
vt 1.0193 0.5830
vt 1.0168 -0.0000
vt 0.1413 0.0037
vt 0.1426 0.3122
vt 0.0000 0.3122
vt 0.0013 0.5830
vt 0.1475 0.9287
vt 0.0000 0.9287
vt 0.0001 1.0000
vt 0.7800 0.6364
vt 0.7805 1.0000
vt 0.5411 0.6364
vt 0.1462 0.0048
vt 0.5402 0.0000
vt 0.2944 0.2019
vt 0.2552 0.0000
vt 0.0001 -0.0000
vt 1.1519 0.8387
vt 0.0475 0.2445
vt 0.1059 0.8387
vt 1.1521 0.2018
vt -0.0000 1.0000
vt 0.6748 1.0000
vt 0.6748 -0.0000
vt 0.0001 -0.0000
vt -0.0000 1.0000
vt 0.9999 1.0000
vt 1.0000 -0.0000
vt 0.0001 -0.0000
vt 0.8831 1.0000
vt 0.8697 0.2320
vt 0.2311 0.2320
vt 0.0001 -0.0000
vt 0.2292 0.0000
vt 0.0084 1.0000
vt 0.6849 1.0728
vt 0.6867 0.5269
vt 0.6825 0.0000
vt 0.0000 0.0010
vt 0.0003 1.0728
vt 0.0001 1.0000
vt 0.6347 1.0000
vt 0.6311 -0.0000
vt 0.0000 0.0021
vt -0.0000 1.0000
vt 0.9007 1.0000
vt 0.9007 -0.0000
vt 0.0001 -0.0000
vt -0.0000 1.0000
vt 0.9999 1.0000
vt 1.0000 -0.0000
vt 0.0001 -0.0000
vt 0.6802 1.1380
vt 0.6595 -0.0000
vt 0.4060 -0.0000
vt 0.4146 0.4741
vt -0.0000 0.4741
vt 0.0117 1.1380
vt 0.1178 0.4800
vt 0.0000 0.4800
vt 0.0040 0.8245
vt 0.7576 0.8245
vt 0.1125 0.0006
vt 0.7486 -0.0000
vt 0.9165 1.0000
vt 0.9056 0.0000
vt 0.4621 0.0004
vt 0.4698 0.7064
vt 0.2061 0.8472
vt 0.2046 0.7064
vt 0.0000 0.8472
vt 0.0018 1.0000
vt 0.0838 0.6418
vt 1.0442 0.6418
vt 1.0286 0.5219
vt 0.9365 0.0001
vt 0.9811 0.2186
vt 0.5987 0.2451
vt 0.5486 0.0000
vt 0.2484 0.2451
vt 0.0001 -0.0000
vt 0.2164 0.0000
vt -0.0000 1.0000
vt 1.3216 1.0000
vt 1.3218 -0.0000
vt 0.4798 0.1170
vt 0.4799 0.0008
vt 0.0004 0.1170
vt 0.0000 0.6236
vt 0.8109 0.6236
vt 0.8109 0.0000
vt 0.0001 0.0008
vt 0.0000 0.0001
vt -0.0000 1.0000
vt 0.6845 1.0000
vt 0.6842 -0.0000
vt 0.0001 -0.0000
vt -0.0000 0.6234
vt 1.1518 0.6234
vt 1.1518 -0.0000
vt -0.0000 1.0000
vt 0.5729 1.0000
vt 0.5728 0.4669
vt 0.3789 0.4669
vt 0.3789 0.0000
vt 0.0001 -0.0000
vt -0.0000 1.0000
vt 0.9999 1.0000
vt 1.0000 0.3862
vt 0.2363 0.3862
vt 0.2363 0.0000
vt 0.0001 -0.0000
vt 0.0000 1.1493
vt 1.0222 1.1493
vt 1.0588 -0.0000
vt 0.0371 0.0002
vt 0.0001 -0.0000
vt 0.0376 0.5966
vt 1.0423 0.5966
vt 1.0047 0.0000
vt -0.0000 1.0000
vt 0.8541 1.0000
vt 0.8819 0.0925
vt 0.0310 0.0000
vt 0.0001 -0.0000
vt 0.0535 1.0000
vt 1.5497 1.0000
vt 0.8476 0.4861
vt 1.5222 0.4861
vt 0.8216 0.0000
vt -0.0000 1.0000
vt 0.5570 1.0000
vt 0.5570 0.0000
vt 0.0001 -0.0000
vt -0.0000 1.0000
vt 0.9999 1.0000
vt 1.0000 -0.0000
vt 0.0001 -0.0000
vt 0.2425 0.0729
vt 0.2425 0.0000
vt 0.0001 -0.0000
vt 0.0001 0.6776
vt 0.7822 0.0729
vt 0.7822 0.6776
vt -0.0000 1.0000
vt 0.9999 1.0000
vt 1.0000 0.6126
vt 0.5779 0.6126
vt 0.0001 -0.0000
vt 0.5779 0.0000
vn 0.0000 1.0000 0.0000
vn 0.0000 1.0000 -0.0001
g CityEngineMaterial_383_CityEngineMaterial_383_CityEngineMaterial_383_mat
usemtl CityEngineMaterial_383_mat
s 1
f 1/1/1 2/2/1 3/3/1 4/4/1
f 3/3/1 5/5/1 4/4/1
f 6/6/1 1/1/1 4/4/1 7/7/1
f 7/7/1 4/4/1 8/8/1
f 9/9/1 10/10/1 11/11/1 12/12/1
f 13/13/1 14/14/1 15/15/1 9/16/1
f 16/17/1 17/18/1 18/19/1 19/20/1
f 16/17/1 19/20/1 20/21/1 21/22/1
f 22/23/1 23/24/1 24/25/1 25/26/1
f 24/25/1 26/27/1 25/26/1
f 22/23/1 25/26/1 27/28/1 28/29/1
f 29/30/1 28/29/1 27/28/1
f 30/31/1 31/32/1 32/33/1 33/34/1
f 33/34/1 32/33/1 34/35/1 35/36/1
f 30/31/1 33/34/1 36/37/1
f 37/38/1 38/39/1 39/40/1 40/41/1
f 41/42/1 39/43/1 42/44/1 43/45/1
f 44/46/1 45/47/1 46/48/1 47/49/1
f 46/48/1 48/50/1 47/49/1
f 44/46/1 47/49/1 49/51/1
f 50/52/1 51/53/1 52/54/1 53/55/1
f 50/52/1 53/55/1 54/56/1
f 55/57/1 56/58/1 57/59/1 58/60/1
f 59/61/1 60/62/1 61/63/1 62/64/1
f 63/65/1 64/66/1 65/67/1 66/68/1
f 67/69/1 68/70/1 69/71/1 70/72/1
f 67/69/1 70/72/1 71/73/1 72/74/1
f 73/75/1 74/76/1 75/77/1 76/78/1
f 77/79/1 73/75/1 76/78/1 78/80/1
f 79/81/1 80/82/1 81/83/1 82/84/1
f 83/85/1 79/81/1 82/84/1 84/86/1
f 79/81/1 83/85/1 85/87/1 86/88/1
f 87/89/1 88/90/1 89/91/1 90/92/1
f 89/91/1 91/93/2 90/92/1
f 92/94/1 87/89/1 90/92/1 93/95/1
f 87/89/1 92/94/1 94/96/1 95/97/1
f 95/97/1 94/96/1 96/98/1
f 97/99/1 98/100/1 99/101/1 100/102/1
f 99/101/1 101/103/1 100/102/1
f 97/99/1 100/102/1 102/104/1
f 103/105/1 104/106/1 105/107/1 106/108/1
f 107/109/1 108/110/1 109/111/1 110/112/1
f 111/113/1 112/114/1 113/115/1 114/116/1
f 115/117/1 116/118/1 117/119/1 118/120/1
f 115/117/1 118/120/1 119/121/1 120/122/1
f 121/123/1 122/124/1 123/125/1 124/126/1
f 121/123/1 124/126/1 125/127/1 126/128/1
f 127/129/1 128/130/1 129/131/1 130/132/1
f 131/133/1 132/134/1 133/135/1 134/136/1
f 135/137/1 136/138/1 137/139/1 138/140/1
f 139/141/1 140/142/1 141/143/1 142/144/1
f 141/143/1 143/145/1 142/144/1
f 139/141/1 142/144/1 144/146/1
f 145/147/1 146/148/1 147/149/1 148/150/1
f 148/151/1 149/152/1 150/153/1 151/154/1
f 152/155/1 153/156/1 154/157/1 155/158/1
f 156/159/1 152/155/1 155/158/1 157/160/1
f 158/161/1 159/162/1 160/163/1 161/164/1
f 162/165/1 158/161/1 161/164/1 163/166/1
