# Blender v2.78 (sub 0) OBJ File: ''
# www.blender.org
mtllib CityEngineMaterial_651.mtl
o CityEngineMaterial_651
v -687.914429 5.162839 373.978088
v -684.750488 5.162839 374.253906
v -684.750488 7.035439 374.253906
v -687.914429 7.035439 373.978088
v -685.005127 5.162838 376.505096
v -685.005127 7.035439 376.505096
v -688.159729 5.162838 376.148407
v -688.159729 7.035439 376.148407
v -688.367188 5.162838 377.984589
v -688.367188 7.035439 377.984589
v -667.875427 5.162838 380.301788
v -667.875427 7.035438 380.301788
v -667.031372 5.162839 372.835693
v -667.031372 7.035439 372.835693
v -687.582825 5.162839 371.044403
v -687.582825 7.035439 371.044403
v 391.458710 25.428766 215.407104
v 394.351196 25.428762 228.622192
v 394.351196 27.590462 228.622101
v 391.458710 27.590466 215.407104
v 400.884888 25.428764 225.868103
v 400.884888 27.590464 225.868103
v 399.996887 25.428764 221.810806
v 399.996887 27.590464 221.810806
v 400.787415 25.428764 221.639603
v 400.787415 27.590464 221.639603
v 399.051910 25.428766 213.762299
v 399.051910 27.590466 213.762299
v 254.499893 48.885582 -500.790405
v 252.878403 48.885586 -510.848907
v 252.878403 50.877285 -510.848907
v 254.499893 50.877281 -500.790405
v 239.463196 48.885586 -508.721985
v 239.463196 50.877285 -508.721985
v 241.060898 48.885582 -498.685913
v 241.060898 50.877281 -498.685913
v -95.769402 32.192810 -1278.722290
v -96.782501 32.192810 -1278.752930
v -96.782501 33.862209 -1278.752930
v -95.769402 33.862209 -1278.722290
v -96.475700 32.192810 -1281.401489
v -96.475700 33.862209 -1281.401489
v -107.777603 32.192810 -1282.710815
v -107.777603 33.862209 -1282.710815
v -108.733002 32.192806 -1274.464233
v -108.733002 33.862106 -1274.464233
v -96.306396 32.192806 -1274.087891
v -96.306396 33.862106 -1274.087891
v -43.611198 1.669162 235.728897
v -25.072300 1.669163 229.826202
v -25.072300 3.847663 229.826202
v -43.611198 3.847662 235.728897
v -31.045799 1.669166 209.960495
v -31.045799 3.847666 209.960495
v -49.618999 1.669165 215.755096
v -49.618999 3.847665 215.755096
v 873.031921 101.503937 -249.239990
v 867.325012 101.503937 -248.358490
v 867.325012 102.908340 -248.358490
v 873.031921 102.908340 -249.239990
v 868.045898 101.503937 -243.682388
v 868.045898 102.908340 -243.682388
v 858.057678 101.503937 -242.139679
v 858.057678 102.908340 -242.139679
v 858.619629 101.503937 -238.492279
v 858.619629 102.908340 -238.492279
v 874.315125 101.503937 -240.916580
v 874.315125 102.908340 -240.916580
v -559.026794 7.518391 -558.379517
v -561.280029 7.518392 -562.734680
v -561.280029 9.347892 -562.734680
v -559.026794 9.347891 -558.379517
v -561.850281 7.518392 -562.441528
v -561.850281 9.347892 -562.441528
v -562.856995 7.518392 -564.382019
v -562.856995 9.347892 -564.382019
v -572.755493 7.518392 -561.377319
v -572.755493 9.347892 -561.377319
v -568.636902 7.518390 -553.438416
v -568.636902 9.347891 -553.438416
v -516.107971 11.236602 -627.713684
v -524.835388 11.236602 -625.369019
v -524.835388 13.295302 -625.369019
v -516.107971 13.295302 -627.713684
v -523.483093 11.236601 -620.918579
v -523.483215 13.295301 -620.918579
v -522.348877 11.236601 -621.223328
v -522.348877 13.295301 -621.223328
v -521.674927 11.236601 -619.002808
v -521.674927 13.295301 -619.002808
v -514.153687 11.236601 -621.275085
v -514.153687 13.295301 -621.275085
v -91.470497 40.550529 -803.611572
v -80.570503 40.550529 -805.673279
v -80.570503 42.532631 -805.673279
v -91.470497 42.532631 -803.611572
v -81.715698 40.550533 -812.648621
v -81.715698 42.532635 -812.648621
v -85.546501 40.550533 -811.924011
v -85.546501 42.532635 -811.924011
v -85.362701 40.550533 -810.804016
v -85.362701 42.532635 -810.804016
v -88.591202 40.550533 -810.193420
v -88.591202 42.532635 -810.193420
v -88.775002 40.550533 -811.313171
v -88.775002 42.532635 -811.313171
v -92.615097 40.550533 -810.586914
v -92.615097 42.532635 -810.586914
v 590.954285 24.132626 454.666290
v 591.656128 24.132626 457.862305
v 591.656128 25.876125 457.862305
v 590.954285 25.876125 454.666290
v 592.120728 24.132626 457.760895
v 592.120728 25.876125 457.760895
v 592.634094 24.132626 460.101196
v 592.634094 25.876125 460.101196
v 592.169922 24.132626 460.202515
v 592.169922 25.876125 460.202515
v 592.552124 24.132626 461.943207
v 592.552124 25.876125 461.943207
v 599.870178 24.132626 460.345215
v 599.870178 25.876125 460.345215
v 598.273315 24.132626 453.067505
v 598.273315 25.876125 453.067505
v -345.609192 2.040067 205.580200
v -344.731293 2.040064 221.526306
v -344.731293 4.366564 221.526306
v -345.609192 4.366567 205.580200
v -329.708099 2.040064 220.580704
v -329.708099 4.366564 220.580704
v -330.698486 2.040067 204.762207
v -330.698486 4.366567 204.762207
v 1026.854370 117.417160 -376.853973
v 1018.900208 117.417160 -371.734467
v 1018.900208 119.131760 -371.734467
v 1026.854370 119.131760 -376.853973
v 1024.268555 117.417160 -363.393372
v 1024.268555 119.131760 -363.393372
v 1029.252197 117.417160 -366.600861
v 1029.252197 119.131760 -366.600861
v 1028.936157 117.417160 -367.091858
v 1028.936157 119.131760 -367.091858
v 1031.681030 117.417160 -368.858459
v 1031.681030 119.131760 -368.858459
v 827.877686 95.123535 -223.207977
v 816.797119 95.123535 -221.508286
v 816.797119 96.774139 -221.508286
v 827.877686 96.774139 -223.207977
v 818.974426 95.123528 -207.325882
v 818.974426 96.774132 -207.325882
v 822.401489 95.123528 -207.865189
v 822.401489 96.774132 -207.865189
v 822.166687 95.123528 -209.393890
v 822.166687 96.774132 -209.393890
v 826.671082 95.123528 -210.084885
v 826.671082 96.774132 -210.084885
v 826.903992 95.123528 -208.573685
v 826.903992 96.774132 -208.573685
v 830.056519 95.123528 -209.069778
v 830.056519 96.774132 -209.069778
v -577.474121 14.253016 -716.738281
v -567.015381 14.253017 -719.914429
v -567.015381 15.921417 -719.914429
v -577.474121 15.921416 -716.738281
v -569.672974 14.253018 -728.646301
v -569.672974 15.921418 -728.646301
v -575.198914 14.253018 -726.968323
v -575.198914 15.921418 -726.968323
v -576.044678 14.253019 -729.744080
v -576.044678 15.921419 -729.744080
v -580.978821 14.253018 -728.240295
v -580.978821 15.921418 -728.240295
v -804.035278 13.670583 718.566284
v -800.723877 13.670585 706.179321
v -800.723877 15.785085 706.179321
v -804.035278 15.785083 718.566284
v -805.003784 13.670586 705.035217
v -805.003784 15.785086 705.035217
v -808.303528 13.670583 717.426880
v -808.303528 15.785083 717.426880
v -807.120789 13.670583 717.742615
v -807.120789 15.785083 717.742615
v -806.755371 13.670584 716.370117
v -806.755371 15.785084 716.370117
v -804.885193 13.670584 716.870117
v -804.885193 15.785084 716.870117
v -805.251770 13.670583 718.241577
v -805.251770 15.785083 718.241577
v -802.094482 10.321207 569.369629
v -808.189575 10.321207 568.888428
v -808.189575 11.777707 568.888428
v -802.094482 11.777707 569.369629
v -808.629883 10.321206 574.439087
v -808.629883 11.777706 574.439087
v -811.051575 10.321206 574.247986
v -811.051575 11.777706 574.247986
v -811.277771 10.321205 577.100098
v -811.277771 11.777705 577.100098
v -802.760986 10.321205 577.772095
v -802.760986 11.777705 577.772095
v 579.663818 24.862534 404.418488
v 580.540771 24.862534 408.411591
v 580.540771 26.795334 408.411591
v 579.663818 26.795334 404.418488
v 581.363770 24.862534 408.231506
v 581.363770 26.795334 408.231506
v 581.858826 24.862534 410.487915
v 581.858826 26.795334 410.487915
v 581.036377 24.862534 410.667786
v 581.036377 26.795334 410.667786
v 581.674316 24.862534 413.572113
v 581.674316 26.795334 413.572113
v 588.974792 24.862534 411.974701
v 588.974792 26.795334 411.974701
v 586.965881 24.862535 402.819885
v 586.965881 26.795336 402.819885
v -682.825378 3.590166 208.841400
v -698.760925 3.590165 211.634094
v -698.760925 5.930366 211.634094
v -682.825378 5.930366 208.841400
v -696.503174 3.590163 224.473404
v -696.503174 5.930363 224.473404
v -680.564087 3.590164 221.655594
v -680.564087 5.930364 221.655594
v -378.958496 4.861061 855.732971
v -380.944397 4.861059 866.993774
v -380.944397 6.464959 866.993774
v -378.958496 6.464961 855.732971
v -379.832214 4.861059 867.190430
v -379.832214 6.464959 867.190430
v -380.054596 4.861058 868.459778
v -380.054596 6.464958 868.459778
v -380.705597 4.861057 873.802429
v -380.705597 6.464957 873.802429
v -371.221588 4.861057 874.929871
v -371.221588 6.464957 874.929871
v -370.604095 4.861058 869.862427
v -370.604095 6.464958 869.862427
v -368.454407 4.861060 857.590088
v -368.454407 6.464960 857.590088
vt 0.6000 -0.0000
vt 1.2000 -0.0000
vt 1.2000 1.0000
vt 0.6000 1.0000
vt 0.4000 0.0000
vt 0.8000 -0.0000
vt 0.8000 1.0000
vt 0.4000 1.0000
vt 0.6000 -0.0000
vt 1.2000 -0.0000
vt 1.2000 1.0000
vt 0.6000 1.0000
vt 0.2000 0.0000
vt 0.4000 0.0000
vt 0.4000 1.0000
vt 0.2000 1.0000
vt 0.6000 -0.0000
vt 3.8000 0.0000
vt 3.8000 1.0000
vt 0.6000 1.0000
vt 0.4000 0.0000
vt 1.6000 -0.0000
vt 1.6000 1.0000
vt 0.4000 1.0000
vt 0.0000 -0.0000
vt 3.2000 -0.0000
vt 3.2000 1.0000
vt 0.0000 1.0000
vt 0.2000 0.0000
vt 0.2000 1.0000
vt 0.0000 -0.0000
vt 2.0000 -0.0000
vt 2.0000 1.0000
vt 0.0000 1.0000
vt 0.6000 -0.0000
vt 1.6000 -0.0000
vt 1.6000 1.0000
vt 0.6000 1.0000
vt 0.4000 0.0000
vt 1.0000 -0.0000
vt 1.0000 1.0000
vt 0.4000 1.0000
vt 0.0000 -0.0000
vt 0.2000 0.0000
vt 0.2000 1.0000
vt 0.0000 1.0000
vt 1.4000 0.0000
vt 1.4000 1.0000
vt 0.6000 -0.0000
vt 1.8000 0.0000
vt 1.8000 1.0000
vt 0.6000 1.0000
vt 0.6000 -0.0000
vt 2.4000 -0.0000
vt 2.4000 1.0000
vt 0.6000 1.0000
vt 0.4000 0.0000
vt 2.8000 -0.0000
vt 2.8000 1.0000
vt 0.4000 1.0000
vt 0.4000 0.0000
vt 2.2000 -0.0000
vt 2.2000 1.0000
vt 0.4000 1.0000
vt 0.2000 0.0000
vt 2.6000 0.0000
vt 2.6000 1.0000
vt 0.2000 1.0000
vt 0.2000 0.0000
vt 0.4000 0.0000
vt 0.4000 1.0000
vt 0.2000 1.0000
vt 1.0000 -0.0000
vt 1.0000 1.0000
vt 0.4000 0.0000
vt 3.0000 0.0000
vt 3.0000 1.0000
vt 0.4000 1.0000
vt 0.2000 0.0000
vt 2.2000 -0.0000
vt 2.2000 1.0000
vt 0.2000 1.0000
vt 0.4000 0.0000
vt 3.2000 -0.0000
vt 3.2000 1.0000
vt 0.4000 1.0000
vt 0.2000 0.0000
vt 1.2000 -0.0000
vt 1.2000 1.0000
vt 0.2000 1.0000
vt 0.6000 -0.0000
vt 3.2000 -0.0000
vt 3.2000 1.0000
vt 0.6000 1.0000
vt 0.0000 -0.0000
vt 2.8000 -0.0000
vt 2.8000 1.0000
vt 0.0000 1.0000
vt 0.4000 0.0000
vt 3.0000 0.0000
vt 3.0000 1.0000
vt 0.4000 1.0000
vt 0.4000 0.0000
vt 3.2000 -0.0000
vt 3.2000 1.0000
vt 0.4000 1.0000
vt 0.2000 0.0000
vt 1.2000 -0.0000
vt 1.2000 1.0000
vt 0.2000 1.0000
vt 0.6000 -0.0000
vt 1.4000 0.0000
vt 1.4000 1.0000
vt 0.6000 1.0000
vt 0.2000 0.0000
vt 1.8000 0.0000
vt 1.8000 1.0000
vt 0.2000 1.0000
vt 0.4000 0.0000
vt 1.0000 -0.0000
vt 1.0000 1.0000
vt 0.4000 1.0000
vt 0.2000 0.0000
vt 2.8000 -0.0000
vt 2.8000 1.0000
vt 0.2000 1.0000
vt 0.8000 -0.0000
vt 2.2000 -0.0000
vt 2.2000 1.0000
vt 0.8000 1.0000
vt 0.4000 0.0000
vt 1.2000 -0.0000
vt 1.2000 1.0000
vt 0.4000 1.0000
vt 0.6000 -0.0000
vt 0.8000 -0.0000
vt 0.8000 1.0000
vt 0.6000 1.0000
vt 0.2000 0.0000
vt 0.6000 -0.0000
vt 0.6000 1.0000
vt 0.2000 1.0000
vt 0.2000 0.0000
vt 2.0000 -0.0000
vt 2.0000 1.0000
vt 0.2000 1.0000
vt 0.4000 0.0000
vt 2.0000 -0.0000
vt 2.0000 1.0000
vt 0.4000 1.0000
vt 0.8000 -0.0000
vt 2.8000 -0.0000
vt 2.8000 1.0000
vt 0.8000 1.0000
vt 0.4000 0.0000
vt 2.4000 -0.0000
vt 2.4000 1.0000
vt 0.4000 1.0000
vt 0.6000 -0.0000
vt 1.6000 -0.0000
vt 1.6000 1.0000
vt 0.6000 1.0000
vt 0.2000 0.0000
vt 0.4000 0.0000
vt 0.4000 1.0000
vt 0.2000 1.0000
vt 0.6000 -0.0000
vt 1.0000 -0.0000
vt 1.0000 1.0000
vt 0.6000 1.0000
vt 0.4000 0.0000
vt 2.0000 -0.0000
vt 2.0000 1.0000
vt 0.4000 1.0000
vt 0.2000 0.0000
vt 1.6000 -0.0000
vt 1.6000 1.0000
vt 0.2000 1.0000
vt 0.4000 0.0000
vt 2.6000 0.0000
vt 2.6000 1.0000
vt 0.4000 1.0000
vt 0.2000 0.0000
vt 1.6000 -0.0000
vt 1.6000 1.0000
vt 0.2000 1.0000
vt 0.6000 -0.0000
vt 1.4000 0.0000
vt 1.4000 1.0000
vt 0.6000 1.0000
vt 0.2000 0.0000
vt 0.4000 0.0000
vt 0.4000 1.0000
vt 0.2000 1.0000
vt 0.2000 0.0000
vt 0.8000 -0.0000
vt 0.8000 1.0000
vt 0.2000 1.0000
vt 0.4000 0.0000
vt 0.6000 -0.0000
vt 0.6000 1.0000
vt 0.4000 1.0000
vt 0.2000 0.0000
vt 1.0000 -0.0000
vt 1.0000 1.0000
vt 0.2000 1.0000
vt 0.6000 -0.0000
vt 2.0000 -0.0000
vt 2.0000 1.0000
vt 0.6000 1.0000
vt 0.6000 -0.0000
vt 1.2000 -0.0000
vt 1.2000 1.0000
vt 0.6000 1.0000
vt 0.8000 -0.0000
vt 0.8400 -0.0000
vt 0.8400 1.0000
vt 0.8000 1.0000
vt 0.2000 0.0000
vt 0.6000 -0.0000
vt 0.6000 1.0000
vt 0.2000 1.0000
vt 0.4000 0.0000
vt 0.4400 0.0000
vt 0.4400 1.0000
vt 0.4000 1.0000
vt 0.4000 0.0000
vt 0.8000 -0.0000
vt 0.8000 1.0000
vt 0.4000 1.0000
vt 0.0000 -0.0000
vt 1.2000 -0.0000
vt 1.2000 1.0000
vt 0.0000 1.0000
vt 0.6000 -0.0000
vt 1.8000 0.0000
vt 1.8000 1.0000
vt 0.6000 1.0000
vt 0.4000 0.0000
vt 1.6000 -0.0000
vt 1.6000 1.0000
vt 0.4000 1.0000
vt 0.6000 -0.0000
vt 2.8000 -0.0000
vt 2.8000 1.0000
vt 0.6000 1.0000
vt 0.2000 0.0000
vt 2.2000 -0.0000
vt 2.2000 1.0000
vt 0.2000 1.0000
vt 0.6000 -0.0000
vt 2.8000 -0.0000
vt 2.8000 1.0000
vt 0.6000 1.0000
vt 0.8000 -0.0000
vt 2.8000 -0.0000
vt 2.8000 1.0000
vt 0.8000 1.0000
vt 0.6000 -0.0000
vt 2.4000 -0.0000
vt 2.4000 1.0000
vt 0.6000 1.0000
vt 0.6000 -0.0000
vt 2.4000 -0.0000
vt 2.4000 1.0000
vt 0.6000 1.0000
vt 0.8000 -0.0000
vt 2.0000 -0.0000
vt 2.0000 1.0000
vt 0.8000 1.0000
vt 0.0000 -0.0000
vt 0.2000 0.0000
vt 0.2000 1.0000
vt 0.0000 1.0000
vt 0.8000 -0.0000
vt 1.4000 0.0000
vt 1.4000 1.0000
vt 0.8000 1.0000
vt 0.6000 -0.0000
vt 2.4000 -0.0000
vt 2.4000 1.0000
vt 0.6000 1.0000
vt 0.4000 0.0000
vt 2.0000 -0.0000
vt 2.0000 1.0000
vt 0.4000 1.0000
vt 0.6000 -0.0000
vt 2.8000 -0.0000
vt 2.8000 1.0000
vt 0.6000 1.0000
vt 0.2000 0.0000
vt 0.8000 -0.0000
vt 0.8000 1.0000
vt 0.2000 1.0000
vt 0.0000 -0.0000
vt 0.2000 0.0000
vt 0.2000 1.0000
vt 0.0000 1.0000
vt 0.8000 -0.0000
vt 0.8000 1.0000
vt 0.4000 0.0000
vt 0.6000 -0.0000
vt 0.6000 1.0000
vt 0.4000 1.0000
vt 1.0000 -0.0000
vt 1.0000 1.0000
vt 0.0000 -0.0000
vt 2.2000 -0.0000
vt 2.2000 1.0000
vt 0.0000 1.0000
vt 0.6000 -0.0000
vt 2.4000 -0.0000
vt 2.4000 1.0000
vt 0.6000 1.0000
vt 0.8000 -0.0000
vt 2.2000 -0.0000
vt 2.2000 1.0000
vt 0.8000 1.0000
vt 0.8000 -0.0000
vt 1.8000 0.0000
vt 1.8000 1.0000
vt 0.8000 1.0000
vt 0.2000 0.0000
vt 0.6000 -0.0000
vt 0.6000 1.0000
vt 0.2000 1.0000
vt 0.0000 -0.0000
vt 0.8000 -0.0000
vt 0.8000 1.0000
vt 0.0000 1.0000
vt 0.2000 0.0000
vt 2.2000 -0.0000
vt 2.2000 1.0000
vt 0.2000 1.0000
vt 0.0000 -0.0000
vt 2.2000 -0.0000
vt 2.2000 1.0000
vt 0.0000 1.0000
vt 0.4000 0.0000
vt 1.2000 -0.0000
vt 1.2000 1.0000
vt 0.4000 1.0000
vt 0.2000 0.0000
vt 2.4000 -0.0000
vt 2.4000 1.0000
vt 0.2000 1.0000
vt 0.2000 0.0000
vt 0.4000 0.0000
vt 0.4000 1.0000
vt 0.2000 1.0000
vt 0.6000 -0.0000
vt 0.8000 -0.0000
vt 0.8000 1.0000
vt 0.6000 1.0000
vt 0.4000 0.0000
vt 0.8000 -0.0000
vt 0.8000 1.0000
vt 0.4000 1.0000
vt 1.0000 -0.0000
vt 1.0000 1.0000
vt 0.0000 -0.0000
vt 0.2000 0.0000
vt 0.2000 1.0000
vt 0.0000 1.0000
vt 0.4000 0.0000
vt 1.4000 0.0000
vt 1.4000 1.0000
vt 0.4000 1.0000
vt 0.6000 -0.0000
vt 1.6000 -0.0000
vt 1.6000 1.0000
vt 0.6000 1.0000
vt 0.2000 0.0000
vt 0.6000 -0.0000
vt 0.6000 1.0000
vt 0.2000 1.0000
vt 0.0000 -0.0000
vt 0.6000 -0.0000
vt 0.6000 1.0000
vt 0.0000 1.0000
vt 2.2000 -0.0000
vt 2.2000 1.0000
vt 0.4000 0.0000
vt 1.8000 0.0000
vt 1.8000 1.0000
vt 0.4000 1.0000
vt 0.4000 0.0000
vt 1.0000 -0.0000
vt 1.0000 1.0000
vt 0.4000 1.0000
vt 0.4000 0.0000
vt 0.6000 -0.0000
vt 0.6000 1.0000
vt 0.4000 1.0000
vt 1.0000 -0.0000
vt 1.0000 1.0000
vt 0.6000 -0.0000
vt 0.8000 -0.0000
vt 0.8000 1.0000
vt 0.6000 1.0000
vt 1.2000 -0.0000
vt 1.2000 1.0000
vt 0.4000 0.0000
vt 1.6000 -0.0000
vt 1.6000 1.0000
vt 0.4000 1.0000
vt 0.6000 -0.0000
vt 2.0000 -0.0000
vt 2.0000 1.0000
vt 0.6000 1.0000
vt 0.4000 0.0000
vt 1.6000 -0.0000
vt 1.6000 1.0000
vt 0.4000 1.0000
vt 0.6000 -0.0000
vt 3.2000 -0.0000
vt 3.2000 1.0000
vt 0.6000 1.0000
vt 0.2000 0.0000
vt 2.2000 -0.0000
vt 2.2000 1.0000
vt 0.2000 1.0000
vt 0.4000 0.0000
vt 3.0000 0.0000
vt 3.0000 1.0000
vt 0.4000 1.0000
vt 0.6000 -0.0000
vt 2.6000 0.0000
vt 2.6000 1.0000
vt 0.6000 1.0000
vt 0.2000 0.0000
vt 2.2000 -0.0000
vt 2.2000 1.0000
vt 0.2000 1.0000
vt 0.4000 0.0000
vt 0.6000 -0.0000
vt 0.6000 1.0000
vt 0.4000 1.0000
vt 0.8000 -0.0000
vt 0.8000 1.0000
vt 0.2000 0.0000
vt 1.2000 -0.0000
vt 1.2000 1.0000
vt 0.2000 1.0000
vt 0.6000 -0.0000
vt 2.4000 -0.0000
vt 2.4000 1.0000
vt 0.6000 1.0000
vt 0.0000 -0.0000
vt 1.0000 -0.0000
vt 1.0000 1.0000
vt 0.0000 1.0000
vt 0.6000 -0.0000
vt 2.8000 -0.0000
vt 2.8000 1.0000
vt 0.6000 1.0000
vt 0.4000 0.0000
vt 2.4000 -0.0000
vt 2.4000 1.0000
vt 0.4000 1.0000
vn -0.0868 0.0000 0.9962
vn -0.9937 0.0000 -0.1124
vn 0.1123 0.0000 -0.9937
vn -0.9937 0.0000 -0.1123
vn -0.1124 0.0000 0.9937
vn 0.9937 0.0000 0.1123
vn 0.0868 0.0000 -0.9962
vn -0.9769 0.0000 0.2138
vn 0.3884 0.0000 0.9215
vn 0.9769 0.0000 -0.2138
vn 0.2117 0.0000 0.9773
vn 0.9766 0.0000 -0.2152
vn -0.2117 0.0000 -0.9773
vn 0.9873 0.0000 -0.1592
vn -0.1566 0.0000 -0.9877
vn -0.9876 0.0000 0.1572
vn 0.1547 0.0000 0.9880
vn 0.0303 0.0000 -0.9995
vn 0.9934 0.0000 0.1151
vn 0.1151 0.0000 -0.9934
vn -0.9934 0.0000 -0.1151
vn -0.0303 0.0000 0.9995
vn 0.3034 0.0000 0.9529
vn 0.9576 0.0000 -0.2880
vn -0.2978 0.0000 -0.9546
vn -0.9576 0.0000 0.2880
vn -0.1527 0.0000 -0.9883
vn -0.9883 0.0000 0.1524
vn -0.1526 0.0000 -0.9883
vn -0.9883 0.0000 0.1523
vn 0.1526 0.0000 0.9883
vn 0.9883 0.0000 -0.1524
vn 0.8882 0.0000 -0.4595
vn -0.4572 0.0000 -0.8894
vn 0.8877 0.0000 -0.4605
vn -0.2905 0.0000 -0.9569
vn -0.8877 0.0000 0.4605
vn 0.4573 0.0000 0.8893
vn -0.2595 0.0000 -0.9658
vn -0.9568 -0.0000 0.2907
vn 0.2595 0.0000 0.9657
vn -0.9569 0.0000 0.2904
vn 0.2892 0.0000 0.9573
vn 0.9569 0.0000 -0.2904
vn 0.1859 0.0000 0.9826
vn 0.9868 0.0000 -0.1620
vn -0.1858 0.0000 -0.9826
vn -0.9868 0.0000 0.1619
vn -0.9767 0.0000 0.2145
vn 0.2133 0.0000 0.9770
vn -0.9768 0.0000 0.2143
vn -0.2132 0.0000 -0.9770
vn 0.9768 0.0000 -0.2143
vn -0.2134 0.0000 -0.9770
vn -0.9985 0.0000 0.0550
vn 0.0628 0.0000 0.9980
vn 0.9980 0.0000 -0.0625
vn -0.0548 0.0000 -0.9985
vn -0.5412 0.0000 -0.8409
vn -0.8409 0.0000 0.5412
vn 0.5412 0.0000 0.8409
vn 0.8409 0.0000 -0.5412
vn 0.8561 0.0000 -0.5168
vn -0.1516 0.0000 -0.9884
vn -0.9884 0.0000 0.1517
vn 0.1555 0.0000 0.9878
vn 0.9884 0.0000 -0.1518
vn 0.1516 0.0000 0.9884
vn 0.9883 0.0000 -0.1523
vn 0.2906 0.0000 0.9569
vn 0.9567 0.0000 -0.2912
vn -0.2906 0.0000 -0.9569
vn 0.9566 0.0000 -0.2915
vn -0.2915 0.0000 -0.9566
vn -0.9566 0.0000 0.2915
vn 0.9661 0.0000 0.2583
vn 0.2582 0.0000 -0.9661
vn -0.9663 0.0000 -0.2573
vn -0.2579 0.0000 0.9662
vn 0.9663 0.0000 0.2573
vn -0.2583 0.0000 0.9661
vn -0.9661 0.0000 -0.2582
vn 0.0787 0.0000 -0.9969
vn -0.9969 0.0000 -0.0791
vn -0.0787 0.0000 0.9969
vn 0.9969 0.0000 0.0791
vn 0.2138 0.0000 0.9769
vn -0.2137 0.0000 -0.9769
vn -0.2139 0.0000 -0.9769
vn -0.1726 0.0000 -0.9850
vn -0.9849 0.0000 0.1732
vn 0.1741 0.0000 0.9847
vn 0.9848 0.0000 -0.1738
vn -0.9848 0.0000 -0.1737
vn -0.1741 0.0000 0.9847
vn -0.9850 0.0000 -0.1726
vn -0.9927 0.0000 -0.1210
vn -0.1180 0.0000 0.9930
vn 0.9927 0.0000 0.1210
vn 0.9850 0.0000 0.1725
vn 0.1741 0.0000 -0.9847
g CityEngineMaterial_651_CityEngineMaterial_651_CityEngineMaterial_651_mat
usemtl CityEngineMaterial_651_mat
s 1
f 1/1/1 2/2/1 3/3/1 4/4/1
f 2/5/2 5/6/2 6/7/2 3/8/2
f 5/9/3 7/10/3 8/11/3 6/12/3
f 7/13/4 9/14/4 10/15/4 8/16/4
f 9/17/5 11/18/5 12/19/5 10/20/5
f 11/21/6 13/22/6 14/23/6 12/24/6
f 13/25/7 15/26/7 16/27/7 14/28/7
f 15/29/4 1/1/4 4/4/4 16/30/4
f 17/31/8 18/32/8 19/33/8 20/34/8
f 18/35/9 21/36/9 22/37/9 19/38/9
f 21/39/10 23/40/10 24/41/10 22/42/10
f 23/43/11 25/44/11 26/45/11 24/46/11
f 25/44/12 27/47/12 28/48/12 26/45/12
f 27/49/13 17/50/13 20/51/13 28/52/13
f 29/53/14 30/54/14 31/55/14 32/56/14
f 30/57/15 33/58/15 34/59/15 31/60/15
f 33/61/16 35/62/16 36/63/16 34/64/16
f 35/65/17 29/66/17 32/67/17 36/68/17
f 37/69/18 38/70/18 39/71/18 40/72/18
f 38/70/19 41/73/19 42/74/19 39/71/19
f 41/75/20 43/76/20 44/77/20 42/78/20
f 43/79/21 45/80/21 46/81/21 44/82/21
f 45/83/22 47/84/22 48/85/22 46/86/22
f 47/87/19 37/88/19 40/89/19 48/90/19
f 49/91/23 50/92/23 51/93/23 52/94/23
f 50/95/24 53/96/24 54/97/24 51/98/24
f 53/99/25 55/100/25 56/101/25 54/102/25
f 55/103/26 49/104/26 52/105/26 56/106/26
f 57/107/27 58/108/27 59/109/27 60/110/27
f 58/111/28 61/112/28 62/113/28 59/114/28
f 61/115/29 63/116/29 64/117/29 62/118/29
f 63/119/30 65/120/30 66/121/30 64/122/30
f 65/123/31 67/124/31 68/125/31 66/126/31
f 67/127/32 57/128/32 60/129/32 68/130/32
f 69/131/33 70/132/33 71/133/33 72/134/33
f 70/135/34 73/136/34 74/137/34 71/138/34
f 73/139/35 75/140/35 76/141/35 74/142/35
f 75/143/36 77/144/36 78/145/36 76/146/36
f 77/147/37 79/148/37 80/149/37 78/150/37
f 79/151/38 69/152/38 72/153/38 80/154/38
f 81/155/39 82/156/39 83/157/39 84/158/39
f 82/159/40 85/160/40 86/161/40 83/162/40
f 85/163/41 87/164/41 88/165/41 86/166/41
f 87/167/42 89/168/42 90/169/42 88/170/42
f 89/171/43 91/172/43 92/173/43 90/174/43
f 91/175/44 81/176/44 84/177/44 92/178/44
f 93/179/45 94/180/45 95/181/45 96/182/45
f 94/183/46 97/184/46 98/185/46 95/186/46
f 97/187/47 99/188/47 100/189/47 98/190/47
f 99/191/48 101/192/48 102/193/48 100/194/48
f 101/195/47 103/196/47 104/197/47 102/198/47
f 103/199/46 105/200/46 106/201/46 104/202/46
f 105/203/47 107/204/47 108/205/47 106/206/47
f 107/207/48 93/208/48 96/209/48 108/210/48
f 109/211/49 110/212/49 111/213/49 112/214/49
f 110/215/50 113/216/50 114/217/50 111/218/50
f 113/219/51 115/220/51 116/221/51 114/222/51
f 115/223/52 117/224/52 118/225/52 116/226/52
f 117/227/49 119/228/49 120/229/49 118/230/49
f 119/231/50 121/232/50 122/233/50 120/234/50
f 121/235/53 123/236/53 124/237/53 122/238/53
f 123/239/54 109/240/54 112/241/54 124/242/54
f 125/243/55 126/244/55 127/245/55 128/246/55
f 126/247/56 129/248/56 130/249/56 127/250/56
f 129/251/57 131/252/57 132/253/57 130/254/57
f 131/255/58 125/256/58 128/257/58 132/258/58
f 133/259/59 134/260/59 135/261/59 136/262/59
f 134/263/60 137/264/60 138/265/60 135/266/60
f 137/267/61 139/268/61 140/269/61 138/270/61
f 139/271/62 141/272/62 142/273/62 140/274/62
f 141/275/61 143/276/61 144/277/61 142/278/61
f 143/279/63 133/280/63 136/281/63 144/282/63
f 145/283/64 146/284/64 147/285/64 148/286/64
f 146/287/65 149/288/65 150/289/65 147/290/65
f 149/291/66 151/292/66 152/293/66 150/294/66
f 151/295/67 153/296/67 154/297/67 152/298/67
f 153/296/68 155/299/68 156/300/68 154/297/68
f 155/301/30 157/302/30 158/303/30 156/304/30
f 157/302/66 159/305/66 160/306/66 158/303/66
f 159/307/69 145/308/69 148/309/69 160/310/69
f 161/311/70 162/312/70 163/313/70 164/314/70
f 162/315/71 165/316/71 166/317/71 163/318/71
f 165/319/72 167/320/72 168/321/72 166/322/72
f 167/323/73 169/324/73 170/325/73 168/326/73
f 169/327/74 171/328/74 172/329/74 170/330/74
f 171/331/75 161/332/75 164/333/75 172/334/75
f 173/335/76 174/336/76 175/337/76 176/338/76
f 174/339/77 177/340/77 178/341/77 175/342/77
f 177/343/78 179/344/78 180/345/78 178/346/78
f 179/347/79 181/348/79 182/349/79 180/350/79
f 181/351/80 183/352/80 184/353/80 182/354/80
f 183/355/81 185/356/81 186/357/81 184/358/81
f 185/356/82 187/359/82 188/360/82 186/357/82
f 187/361/79 173/362/79 176/363/79 188/364/79
f 189/365/83 190/366/83 191/367/83 192/368/83
f 190/369/84 193/370/84 194/371/84 191/372/84
f 193/373/83 195/374/83 196/375/83 194/376/83
f 195/377/84 197/378/84 198/379/84 196/380/84
f 197/378/85 199/381/85 200/382/85 198/379/85
f 199/383/86 189/384/86 192/385/86 200/386/86
f 201/387/49 202/388/49 203/389/49 204/390/49
f 202/391/87 205/392/87 206/393/87 203/394/87
f 205/392/51 207/395/51 208/396/51 206/393/51
f 207/397/88 209/398/88 210/399/88 208/400/88
f 209/398/49 211/401/49 212/402/49 210/399/49
f 211/403/87 213/404/87 214/405/87 212/406/87
f 213/407/53 215/408/53 216/409/53 214/410/53
f 215/411/89 201/412/89 204/413/89 216/414/89
f 217/415/90 218/416/90 219/417/90 220/418/90
f 218/419/91 221/420/91 222/421/91 219/422/91
f 221/423/92 223/424/92 224/425/92 222/426/92
f 223/427/93 217/428/93 220/429/93 224/430/93
f 225/431/94 226/432/94 227/433/94 228/434/94
f 226/435/95 229/436/95 230/437/95 227/438/95
f 229/436/96 231/439/96 232/440/96 230/437/96
f 231/441/97 233/442/97 234/443/97 232/444/97
f 233/445/98 235/446/98 236/447/98 234/448/98
f 235/449/99 237/450/99 238/451/99 236/452/99
f 237/453/100 239/454/100 240/455/100 238/456/100
f 239/457/101 225/458/101 228/459/101 240/460/101
