# Blender v2.78 (sub 0) OBJ File: ''
# www.blender.org
mtllib CityEngineMaterial_689.mtl
o CityEngineMaterial_689
v -803.018188 12.608814 524.127014
v -807.279785 12.608815 523.887573
v -807.591003 12.608814 527.809509
v -799.700623 12.608814 528.252625
v -802.635620 12.608815 519.302612
v -798.786987 12.608816 516.737427
v -806.889526 12.608815 518.968323
v -806.663513 12.608816 516.118591
v -517.964478 15.616799 -608.343201
v -513.098206 15.616799 -609.827393
v -515.697388 15.616801 -618.390076
v -518.836426 15.616800 -614.336426
v -519.699890 15.616800 -617.180908
v -519.706177 15.616800 -614.071106
v -517.939209 16.884298 -614.173828
v -516.442688 16.884298 -609.244019
v -513.219421 16.884298 -610.226379
v -514.715820 16.884300 -615.156311
v 249.953400 59.321522 -743.884399
v 254.746094 59.321522 -745.184509
v 254.476593 59.321522 -746.184387
v 266.532013 59.321522 -752.777283
v 267.374390 59.321522 -749.671509
v 248.845200 59.321522 -747.995422
v 254.832901 60.554722 -747.524414
v 266.391388 60.554722 -750.649414
v 265.863403 60.554722 -752.596497
v 254.307800 60.554722 -749.472229
v 255.145401 60.554722 -746.365173
v 260.632111 60.554722 -747.848572
v 260.318787 60.554722 -749.007629
v 385.346985 25.938763 235.735397
v 364.821014 25.938763 238.205200
v 369.446014 25.938759 255.095398
v 389.259308 25.938761 249.555801
v 372.503296 35.994862 238.479904
v 366.333710 35.994862 239.222198
v 370.278015 35.994858 253.626602
v 376.313507 35.994858 251.939194
v 367.134399 36.473164 242.146103
v 369.709991 36.473160 251.552002
v 373.553986 36.473160 250.499405
v 370.978394 36.473164 241.093506
v 371.124908 36.473164 241.628403
v 371.645599 36.473164 243.529999
v 373.729889 36.473164 242.959305
v 373.209106 36.473164 241.057693
v -350.312714 8.003390 671.239807
v -324.627991 8.003390 671.598022
v -336.690491 8.003392 658.547424
v -350.312714 24.610491 671.239807
v -324.627991 24.610491 671.598022
v -330.156311 24.610491 665.616882
v -344.072815 24.610491 665.425903
v -337.973206 18.386391 665.509583
v -330.156311 18.386391 665.616882
v -336.690491 18.386393 658.547424
v -337.893005 18.386393 659.668030
v -343.102386 25.798491 671.310913
v -331.219299 25.798491 671.476624
v -331.166687 25.798491 667.700073
v -343.049713 25.798491 667.534424
v -338.186493 25.798491 667.602173
v -336.242096 25.798491 667.629272
v -336.212891 25.798491 665.535522
v -338.157288 25.798491 665.508423
v -332.720703 18.917492 662.869324
v -335.148987 18.917494 660.242126
v -336.352112 18.917494 661.353882
v -333.923706 18.917492 663.981079
v -334.851013 18.917492 662.978027
v -335.623199 18.917492 662.142517
v -336.487793 18.917492 662.941711
v -335.715515 18.917492 663.777222
v -139.923004 4.115395 646.744080
v -139.682297 4.115398 623.972717
v -145.416306 4.115399 619.420288
v -156.594406 4.115397 633.533203
v -139.933105 4.115395 646.744324
v -139.789902 24.702297 634.147888
v -139.682297 24.702299 623.972717
v -145.416306 24.702299 619.420288
v -150.405701 24.702299 625.719604
v -149.430405 17.943895 639.213684
v -143.236206 17.943897 631.411682
v -150.405701 17.943899 625.719604
v -156.594406 17.943897 633.533203
v -149.406601 25.247498 626.512878
v -145.678101 25.247498 629.473022
v -143.045700 25.247499 626.157288
v -146.774094 25.247499 623.197327
v -140.681503 25.247499 623.179382
v -144.409897 25.247499 620.219421
v -152.190796 19.264597 636.200378
v -146.805893 19.264597 629.401794
v -150.806900 19.264599 626.226318
v -156.193497 19.264597 633.027100
v -147.325699 19.264597 636.562317
v -143.897903 19.264597 632.246277
v -147.069397 19.264597 629.734375
v -150.491394 19.264597 634.054871
v -124.691704 28.189283 -517.289917
v -125.828903 28.189280 -496.273895
v -120.619797 28.189281 -497.726715
v -115.448097 28.189281 -498.615204
v -110.191200 28.189281 -499.095398
v -110.846298 28.189283 -517.300476
v -123.504097 38.444183 -516.037170
v -124.482803 38.444180 -497.950714
v -120.894997 38.444180 -498.951294
v -117.732903 38.444180 -499.494598
v -116.837700 38.444183 -516.042419
v -117.302498 34.500385 -507.450989
v -117.732903 34.500278 -499.494598
v -115.611504 34.500278 -499.859009
v -111.486603 34.500278 -500.235901
v -111.735397 34.500385 -507.149811
v -123.578300 38.876385 -514.050903
v -124.216499 38.876381 -502.255188
v -120.331703 38.876381 -502.045013
v -119.693398 38.876385 -513.840698
v -115.680000 35.418179 -500.380493
v -114.387001 35.418179 -500.498688
v -114.158401 35.418182 -504.723785
v -116.806099 35.418182 -506.897888
v -112.243401 35.418182 -506.651001
v -112.170197 35.418182 -504.616211
v -117.172501 35.418179 -500.124115
v -119.926201 38.876385 -509.539703
v -120.053802 38.876385 -507.181702
v -117.325104 38.876484 -507.034088
v -117.197502 38.876484 -509.392090
v -79.696198 36.910000 -601.558105
v -72.551201 36.910000 -602.677185
v -72.235397 36.910000 -603.420898
v -70.262001 36.910004 -638.284180
v -85.583199 36.910004 -639.151611
v -84.320801 66.099701 -631.090027
v -70.547096 66.099709 -633.247620
v -70.262001 66.099709 -638.284180
v -85.583199 66.099709 -639.151611
v -72.483101 67.561310 -638.409973
v -82.278603 67.561310 -638.964478
v -82.459602 67.561310 -635.768005
v -72.664101 67.561310 -635.213501
v -74.654999 67.561310 -635.326172
v -76.367500 67.561310 -635.423096
v -76.471603 67.561310 -633.582886
v -74.759201 67.561310 -633.486023
v -660.085999 12.606227 451.880798
v -672.831421 12.606227 450.434296
v -674.140625 12.606225 462.015289
v -661.817627 12.606225 460.846313
v -661.935608 12.606225 461.890198
v -661.110229 12.606225 460.926514
v -672.741577 13.002127 450.547089
v -673.366821 13.002126 456.077911
v -667.245422 13.002126 456.772705
v -661.907410 13.002125 460.733490
v -667.620422 13.002125 460.085205
v -668.537109 13.002125 461.855896
v -668.327881 13.002125 460.004913
v -662.026672 13.002125 461.789215
v -661.200012 13.002125 460.813812
v -660.198792 13.002127 451.970612
v -192.967896 5.377001 -4.633799
v -188.245605 5.377000 -4.366799
v -189.300095 5.377003 -21.284500
v -197.563400 5.377000 -4.345499
v -201.955994 5.377000 -3.663399
v -203.018295 5.377003 -20.411900
v -202.800903 75.959702 -16.985088
v -188.917801 75.959702 -15.151587
v -189.300095 75.959702 -21.284489
v -203.018295 75.959702 -20.411888
v -201.625198 76.398598 -16.853487
v -190.834702 76.398598 -15.428388
v -190.557800 76.398598 -17.524887
v -201.348404 76.398598 -18.949987
v -194.600800 76.398598 -18.058786
v -190.379501 76.398598 -18.874887
v -194.422501 76.398598 -19.408886
v 327.087311 62.461197 -592.021790
v 330.367401 62.461197 -579.352478
v 337.783691 62.461197 -581.424927
v 341.172791 62.461197 -592.883728
v 340.182190 62.461197 -593.671875
v 323.882202 62.461201 -604.312622
v 327.979889 87.853401 -592.253723
v 331.024506 87.853394 -580.493713
v 336.046509 87.853394 -581.896973
v 331.506287 87.853401 -598.234314
v 325.376892 87.853401 -602.235474
v 330.816406 88.523499 -597.729370
v 326.673187 88.523499 -600.434204
v 327.071106 88.523499 -598.908386
v 329.902008 88.523499 -597.060181
v 335.062103 88.523392 -582.452271
v 332.898499 88.523499 -586.278015
v 331.594513 88.523392 -581.483276
v 330.524811 88.523499 -585.614685
v -753.170715 59.831772 -1042.459839
v -751.462708 59.831772 -1042.835571
v -755.345215 59.831772 -1058.842163
v -765.891174 59.831772 -1056.521729
v -752.470886 59.831768 -1040.938477
v -758.142029 59.831768 -1039.677734
v -764.727783 61.222271 -1054.100342
v -759.195190 61.222271 -1042.074219
v -754.503784 61.222271 -1044.232544
v -760.036499 61.222271 -1056.258545
v -758.289673 61.222271 -1052.461670
v -756.023987 61.222271 -1053.504028
v -757.770691 61.222271 -1057.300903
v 623.880798 32.241234 395.936096
v 621.262207 32.241234 396.506012
v 622.015015 32.241234 399.944092
v 639.695496 32.241234 396.095306
v 623.457825 32.241234 394.004700
v 638.658386 32.241234 391.360107
v 626.424194 33.796837 398.984314
v 637.898987 33.796837 396.486389
v 637.193481 33.796837 393.245789
v 625.718811 33.796837 395.743713
v 629.709717 33.796837 394.874908
v 631.262878 33.796837 394.536804
v 630.937317 33.796837 393.040894
v 629.383972 33.796837 393.378998
v -238.630798 5.786732 417.675415
v -240.314407 5.786735 398.195496
v -261.511902 5.786735 400.260498
v -259.621887 5.786732 419.671814
v -240.295700 14.215332 416.287415
v -240.867004 14.215333 409.678009
v -258.881592 14.215333 411.391388
v -258.238708 14.215332 417.993988
v -240.867004 17.065933 409.678101
v -241.714005 17.065935 399.878387
v -250.602402 17.065935 400.744293
v -249.673096 17.065933 410.515594
v -240.971298 15.190633 409.803192
v -258.756287 15.190633 411.494598
v -258.490295 15.190632 414.226593
v -251.644104 15.190632 413.575409
v -251.328995 15.190632 417.221710
v -240.419800 15.190632 416.184113
v -244.402802 17.929834 403.111603
v -246.057602 17.929834 403.272797
v -245.880203 17.929832 405.324707
v -247.009094 17.929832 407.291687
v -247.184402 17.929832 405.448700
v -244.065704 17.929832 407.011688
v -451.654114 8.612230 427.636597
v -452.827789 8.612228 438.895691
v -434.808014 8.612228 437.418488
v -433.635590 8.612230 426.170288
v -440.516998 42.941631 426.730286
v -441.689911 42.941628 437.982605
v -434.808014 42.941628 437.418488
v -433.635590 42.941631 426.170288
v -451.654114 42.941631 427.636597
v -452.827789 42.941628 438.895691
v -447.051605 42.941628 438.422211
v -445.878296 42.941631 427.166595
v -446.429108 42.941631 432.450287
v -441.170410 42.941631 432.998505
v -449.476196 43.982826 434.081909
v -447.599304 43.982929 433.929199
v -447.009613 43.982933 428.272614
v -450.735901 43.982933 428.575806
v -449.846802 43.982826 437.637299
v -451.696289 43.982826 437.789001
v -440.714905 43.431530 428.629303
v -441.365112 43.431526 434.865906
v -437.141998 43.431526 435.306091
v -436.491913 43.431530 429.069489
v -436.673309 43.431530 430.810303
v -436.949493 43.431526 433.459290
v -434.456512 43.431526 433.719208
v -434.180389 43.431530 431.070190
v -441.115387 44.425632 432.216309
v -440.729706 44.425632 428.515503
v -443.873291 44.425632 428.187714
v -444.259003 44.425632 431.888489
v -444.141113 44.425632 430.757202
v -446.229889 44.425632 430.539490
v -446.347809 44.425632 431.670807
vt 0.2960 0.2745
vt 0.2888 0.0000
vt 0.0000 -0.0000
vt 0.0134 0.5082
vt 0.6513 0.2745
vt 0.8614 0.5082
vt 0.6511 0.0000
vt 0.8610 0.0000
vt 0.0000 0.0006
vt 0.0007 1.0000
vt 0.9729 1.0000
vt 0.6506 0.1786
vt 0.9735 0.1786
vt 0.6504 0.0000
vt 0.0007 1.0000
vt 1.0000 1.0000
vt 0.9993 0.0000
vt 0.0000 -0.0000
vt 1.0324 -0.0000
vt 0.7527 0.0010
vt 0.7526 0.2442
vt 0.0001 1.0000
vt -0.0000 0.2442
vt 1.0322 1.0000
vt -0.0000 1.0000
vt 1.2459 1.0000
vt 1.2457 0.0000
vt 0.0001 0.0000
vt -0.0000 1.0000
vt 1.0000 1.0000
vt 1.0000 0.0000
vt 0.0001 0.0000
vt 0.1235 0.7234
vt 1.2665 0.7234
vt 1.1242 0.0000
vt -0.0000 0.1308
vt 0.0638 0.0192
vt -0.0000 1.0000
vt 1.0430 1.0000
vt 1.0407 -0.0000
vt -0.0000 1.0000
vt 1.1410 1.0000
vt 1.1410 0.0000
vt 0.0000 -0.0000
vt 0.0000 -0.0000
vt -0.0000 1.0000
vt 1.0000 1.0000
vt 1.0000 0.0000
vt -0.0000 1.0914
vt 1.1044 1.0914
vt 0.5780 0.0000
vt -0.0000 1.0000
vt 0.9187 1.0000
vt 0.7181 -0.0000
vt 0.2203 0.0005
vt 0.4841 0.0000
vt -0.0000 1.0000
vt 0.8654 1.0000
vt 0.8648 0.7100
vt -0.0000 1.0000
vt 0.9644 1.0000
vt 0.9644 0.0000
vt 0.0000 -0.0000
vt 0.0000 -0.0000
vt -0.0000 1.0000
vt 1.0000 1.0000
vt 1.0000 0.0000
vt -0.0000 1.0000
vt 1.0000 1.0000
vt 1.0000 0.0000
vt 0.0000 -0.0000
vt 0.0000 -0.0000
vt -0.0000 1.0000
vt 1.0000 1.0000
vt 1.0000 0.0000
vt 0.0000 0.6473
vt 0.8328 0.6473
vt 0.9970 0.4247
vt 0.4767 -0.0000
vt -0.0000 0.6469
vt 1.4648 0.9688
vt 0.7907 0.0000
vt 0.0000 -0.0000
vt 0.0010 0.9688
vt 0.6813 0.0010
vt 0.0007 0.0000
vt 0.0000 0.7603
vt 0.6810 0.7603
vt -0.0000 1.0000
vt 1.0000 1.0000
vt 1.0000 0.0000
vt 0.0000 -0.0000
vt -0.0000 1.0000
vt 1.0000 1.0000
vt 1.0000 0.0000
vt 0.0000 -0.0000
vt -0.0000 1.0000
vt 0.5947 1.0000
vt 0.5950 0.0000
vt 0.0001 0.0000
vt 0.0010 1.0000
vt 1.0000 1.0000
vt 0.9990 -0.0000
vt 0.0000 0.0018
vt 0.0268 1.7077
vt 0.7709 1.7077
vt 0.7097 1.1419
vt 0.6684 0.5769
vt 0.6414 0.0000
vt -0.0000 0.1809
vt 0.0133 1.0000
vt 0.6704 1.0000
vt 0.6272 0.4699
vt 0.6013 -0.0000
vt 0.0000 -0.0000
vt -0.0000 1.0000
vt 0.5886 1.0000
vt 0.5533 0.6613
vt 0.5090 0.0000
vt 0.0000 0.1004
vt -0.0000 1.0000
vt 0.8645 1.0000
vt 0.8645 0.0000
vt 0.0000 -0.0000
vt 0.9504 0.6893
vt 0.9227 0.4190
vt 0.2989 0.4190
vt -0.0000 1.0000
vt 0.0000 0.0385
vt 0.2989 0.0000
vt 1.0000 1.0000
vt 0.0000 -0.0000
vt -0.0000 1.0000
vt 1.0000 1.0000
vt 1.0000 0.0000
vt 1.9456 1.7997
vt 1.9456 0.9321
vt 1.9105 0.8809
vt 0.1650 -0.0000
vt -0.0000 1.7997
vt 1.3146 -0.0000
vt -0.0000 0.2662
vt 0.0000 0.7242
vt 1.4802 0.7242
vt -0.0000 1.0000
vt 1.1421 1.0000
vt 1.1421 0.0000
vt 0.0000 -0.0000
vt 0.0000 -0.0000
vt -0.0000 1.0000
vt 1.0000 1.0000
vt 1.0000 0.0000
vt 0.0002 1.2598
vt 0.9548 1.2598
vt 0.9544 0.0000
vt 0.0530 0.2758
vt 0.0529 0.1622
vt 0.0000 0.2758
vt 0.9547 0.9944
vt 0.9546 0.4801
vt 0.4887 0.4801
vt 0.0538 0.1721
vt 0.4886 0.1721
vt 0.5424 -0.0000
vt 0.5425 0.1721
vt 0.0538 0.0740
vt 0.0000 0.1721
vt 0.0002 0.9944
vt 0.0209 0.8881
vt 0.0000 1.3490
vt 0.6326 1.3490
vt 0.0208 0.4362
vt 0.0056 0.0018
vt 0.6320 -0.0000
vt 0.0662 1.0000
vt 1.4623 1.0000
vt 1.3445 0.0000
vt -0.0000 0.4413
vt -0.0000 1.0000
vt 1.1411 1.0000
vt 1.1411 0.0000
vt 0.0000 -0.0000
vt -0.0000 1.0000
vt 1.0000 1.0000
vt 1.0000 0.0000
vt 0.0000 -0.0000
vt 0.7663 0.3246
vt 0.2638 0.0000
vt -0.0000 0.2131
vt 0.1780 0.6346
vt 0.2435 0.6390
vt 1.2547 0.6390
vt 0.4027 0.0413
vt 0.0000 -0.0000
vt 0.0001 1.0000
vt 0.5625 1.0000
vt 0.7447 0.0729
vt 0.5230 1.0000
vt 0.6455 0.0924
vt 0.5935 0.0854
vt 0.5098 0.7055
vt 0.0001 1.0000
vt 0.1408 0.7055
vt 0.0000 -0.0000
vt 0.1407 0.0210
vt 0.9504 0.4915
vt 0.9700 0.3191
vt 0.1208 0.0000
vt -0.0000 1.0645
vt 1.0384 0.4915
vt 0.9740 1.0645
vt -0.0000 1.0000
vt 1.0393 1.0000
vt 1.0393 0.0000
vt 0.0000 -0.0000
vt -0.0000 1.0000
vt 1.0000 1.0000
vt 1.0000 0.0000
vt 0.0000 -0.0000
vt 0.1278 0.3597
vt 0.0000 0.3597
vt 0.0001 1.0000
vt 0.8633 1.0000
vt 0.1277 0.0000
vt 0.8630 0.1181
vt -0.0000 1.0000
vt 1.1433 1.0000
vt 1.1433 0.0000
vt 0.0000 -0.0000
vt -0.0000 1.0000
vt 1.0000 1.0000
vt 1.0000 0.0000
vt 0.0000 -0.0000
vt 0.0075 0.0000
vt 0.0000 0.9011
vt 0.7494 0.9011
vt 0.7494 0.0022
vt 0.0024 0.0000
vt -0.0000 1.0000
vt 0.7529 1.0000
vt 0.7523 0.0000
vt 0.0060 1.0347
vt 0.7870 1.0347
vt 0.7793 0.0000
vt 0.0000 0.0098
vt -0.0000 1.0000
vt 0.7536 1.0000
vt 0.7534 0.5714
vt 0.4633 0.5714
vt 0.4646 0.0000
vt 0.0024 0.0000
vt 1.0000 1.0000
vt 0.9954 0.4407
vt 0.4727 0.4407
vt -0.0000 0.0054
vt 0.4698 -0.0000
vt 0.0065 1.0000
vt 0.0681 0.0000
vt 0.0000 1.1591
vt 0.5895 1.1591
vt 0.6576 0.0011
vt 0.1283 1.0000
vt 1.2704 1.0000
vt 1.1417 0.0000
vt 0.0000 -0.0000
vt 0.0683 1.0000
vt 0.7930 1.0000
vt 0.7245 0.0000
vt 0.0000 -0.0000
vt 0.8429 0.0000
vt 0.0000 -0.0000
vt -0.0000 1.0000
vt 1.0000 1.0000
vt 0.4766 0.5037
vt 0.4493 0.0000
vt 0.0000 -0.0000
vt 0.0543 1.0000
vt 0.7590 0.5037
vt 0.7861 1.0000
vt -0.0000 1.0000
vt 1.0000 1.0000
vt 1.0000 0.0000
vt 0.0000 -0.0000
vt -0.0000 1.0000
vt 1.0000 1.0000
vt 1.0000 0.0000
vt 0.0000 -0.0000
vt -0.0000 1.0000
vt 1.0000 1.0000
vt 1.0000 0.0000
vt 0.0000 -0.0000
vt -0.0000 1.0000
vt 1.0000 1.0000
vt 1.0000 0.0000
vn -0.0000 1.0000 0.0000
g CityEngineMaterial_689_CityEngineMaterial_689_CityEngineMaterial_689_mat
usemtl CityEngineMaterial_689_mat
s 1
f 1/1/1 2/2/1 3/3/1 4/4/1
f 5/5/1 1/1/1 4/4/1 6/6/1
f 7/7/1 5/5/1 6/6/1 8/8/1
f 9/9/1 10/10/1 11/11/1 12/12/1
f 11/11/1 13/13/1 12/12/1
f 14/14/1 9/9/1 12/12/1
f 15/15/1 16/16/1 17/17/1 18/18/1
f 19/19/1 20/20/1 21/21/1 22/22/1
f 21/21/1 23/23/1 22/22/1
f 19/19/1 22/22/1 24/24/1
f 25/25/1 26/26/1 27/27/1 28/28/1
f 29/29/1 30/30/1 31/31/1 25/32/1
f 32/33/1 33/34/1 34/35/1 35/36/1
f 36/37/1 37/38/1 38/39/1 39/40/1
f 40/41/1 41/42/1 42/43/1 43/44/1
f 44/45/1 45/46/1 46/47/1 47/48/1
f 48/49/1 49/50/1 50/51/1
f 51/52/1 52/53/1 53/54/1 54/55/1
f 55/56/1 56/57/1 57/58/1 58/59/1
f 59/60/1 60/61/1 61/62/1 62/63/1
f 63/64/1 64/65/1 65/66/1 66/67/1
f 67/68/1 68/69/1 69/70/1 70/71/1
f 71/72/1 72/73/1 73/74/1 74/75/1
f 75/76/1 76/77/1 77/78/1 78/79/1
f 75/76/1 78/79/1 79/80/1
f 80/81/1 81/82/1 82/83/1 83/84/1
f 84/85/1 85/86/1 86/87/1 87/88/1
f 88/89/1 89/90/1 90/91/1 91/92/1
f 91/93/1 90/94/1 92/95/1 93/96/1
f 94/97/1 95/98/1 96/99/1 97/100/1
f 98/101/1 99/102/1 100/103/1 101/104/1
f 102/105/1 103/106/1 104/107/1 105/108/1
f 102/105/1 105/108/1 106/109/1 107/110/1
f 108/111/1 109/112/1 110/113/1 111/114/1
f 108/111/1 111/114/1 112/115/1
f 113/116/1 114/117/1 115/118/1 116/119/1
f 113/116/1 116/119/1 117/120/1
f 118/121/1 119/122/1 120/123/1 121/124/1
f 122/125/1 123/126/1 124/127/1 125/128/1
f 126/129/1 125/128/1 124/127/1 127/130/1
f 128/131/1 122/125/1 125/128/1
f 129/132/1 130/133/1 131/134/1 132/135/1
f 133/136/1 134/137/1 135/138/1 136/139/1
f 133/136/1 136/139/1 137/140/1
f 138/141/1 139/142/1 140/143/1 141/144/1
f 142/145/1 143/146/1 144/147/1 145/148/1
f 146/149/1 147/150/1 148/151/1 149/152/1
f 150/153/1 151/154/1 152/155/1 153/156/1
f 152/155/1 154/157/1 153/156/1
f 150/153/1 153/156/1 155/158/1
f 156/159/1 157/160/1 158/161/1 159/162/1
f 159/162/1 158/161/1 160/163/1 161/164/1
f 160/163/1 162/165/1 161/164/1
f 161/164/1 163/166/1 159/162/1
f 156/159/1 159/162/1 164/167/1 165/168/1
f 166/169/1 167/170/1 168/171/1 169/172/1
f 170/173/1 169/172/1 168/171/1 171/174/1
f 172/175/1 173/176/1 174/177/1 175/178/1
f 176/179/1 177/180/1 178/181/1 179/182/1
f 180/183/1 178/184/1 181/185/1 182/186/1
f 183/187/1 184/188/1 185/189/1 186/190/1
f 183/187/1 186/190/1 187/191/1 188/192/1
f 189/193/1 190/194/1 191/195/1 192/196/1
f 189/193/1 192/196/1 193/197/1
f 194/198/1 195/199/1 196/200/1 197/201/1
f 198/202/1 194/198/1 197/201/1 199/203/1
f 200/204/1 198/202/1 199/203/1 201/205/1
f 202/206/1 203/207/1 204/208/1 205/209/1
f 206/210/1 202/206/1 205/209/1 207/211/1
f 208/212/1 209/213/1 210/214/1 211/215/1
f 211/216/1 212/217/1 213/218/1 214/219/1
f 215/220/1 216/221/1 217/222/1 218/223/1
f 219/224/1 215/220/1 218/223/1 220/225/1
f 221/226/1 222/227/1 223/228/1 224/229/1
f 225/230/1 226/231/1 227/232/1 228/233/1
f 229/234/1 230/235/1 231/236/1 232/237/1
f 233/238/1 234/239/1 235/240/1 236/241/1
f 237/242/1 238/243/1 239/244/1 240/245/1
f 241/246/1 242/247/1 243/248/1 244/249/1
f 241/246/1 244/249/1 245/250/1 246/251/1
f 247/252/1 248/253/1 249/254/1 250/255/1
f 249/254/1 251/256/1 250/255/1
f 247/252/1 250/255/1 252/257/1
f 253/258/1 254/259/1 255/260/1 256/261/1
f 257/262/1 258/263/1 259/264/1 260/265/1
f 261/266/1 262/267/1 263/268/1 264/269/1
f 264/270/1 265/271/1 266/272/1 257/273/1
f 267/274/1 268/275/1 269/276/1 270/277/1
f 271/278/1 267/274/1 270/277/1 272/279/1
f 273/280/1 274/281/1 275/282/1 276/283/1
f 277/284/1 278/285/1 279/286/1 280/287/1
f 281/288/1 282/289/1 283/290/1 284/291/1
f 284/291/1 285/292/1 286/293/1 287/294/1
