# Blender v2.78 (sub 0) OBJ File: ''
# www.blender.org
mtllib CityEngineMaterial_532.mtl
o CityEngineMaterial_532
v -1231.004028 17.110046 327.795013
v -1218.147583 17.110046 330.413605
v -1216.488159 17.110046 322.156097
v -1229.106445 17.110046 326.007599
v -1228.423706 17.110046 322.609985
v -1229.902344 17.110046 322.313110
v -1229.351685 17.110048 319.572388
v -1230.584351 17.110046 325.706604
v -1218.500122 18.598549 321.752014
v -1225.861816 18.598549 320.273407
v -1226.965820 18.598547 325.769714
v -1219.604126 18.598547 327.248291
v 752.199890 89.359428 -195.889481
v 749.586609 89.359428 -196.180984
v 751.041870 89.359428 -177.401077
v 758.887024 89.359428 -195.621979
v 765.286682 89.359428 -195.570480
v 766.463379 89.359428 -179.782684
v 766.130676 98.378128 -184.245880
v 750.535095 98.378128 -183.939987
v 751.041870 98.378128 -177.401077
v 766.463379 98.378128 -179.782684
v 752.654419 99.915131 -177.650085
v 765.189697 99.915131 -179.585983
v 764.841675 99.915131 -181.839478
v 752.306396 99.915131 -179.903687
v 759.605286 99.915131 -181.030792
v 764.501526 99.915131 -184.042191
v 759.265198 99.915131 -183.233582
v 36.548199 10.169692 44.730400
v 54.072399 10.169692 44.021702
v 53.563499 10.169695 31.554401
v 36.891602 10.169694 32.821201
v 48.287800 61.430592 44.255611
v 54.072399 61.430592 44.021713
v 53.563499 61.430695 31.554409
v 48.643200 61.430695 31.928310
v 52.472801 61.857292 42.546913
v 52.091599 61.857296 33.208912
v 50.819099 61.857296 33.305611
v 51.116600 61.857292 40.594810
v 49.930801 61.857292 40.642811
v 49.872799 61.857292 42.652111
v -186.620407 7.534089 682.744385
v -194.385300 7.534089 681.691284
v -194.721207 7.534089 684.168274
v -187.823700 7.534088 691.617188
v -194.123993 8.904388 684.813171
v -190.175598 8.904387 689.077209
v -188.550797 8.904388 687.572815
v -192.499207 8.904388 683.308716
v -191.602203 8.904388 684.277283
v -190.691498 8.904388 683.434021
v -191.588394 8.904388 682.465271
v 280.632812 35.825592 38.712608
v 280.027496 35.825596 17.082806
v 266.058289 35.825695 16.952906
v 265.878815 35.825691 38.217808
v 278.866089 112.851593 24.345119
v 278.700806 112.851601 18.434519
v 267.410797 112.851601 18.329618
v 267.363312 112.851593 23.959318
v 277.558105 113.461502 18.423920
v 268.558197 113.461502 18.340219
v 268.522186 113.461502 22.213219
v 277.522095 113.461601 22.296919
v 273.393799 113.461601 22.258518
v 271.811707 113.461502 22.243818
v 271.795288 113.461494 24.000519
v 273.377502 113.461494 24.015320
v -169.951996 5.788167 814.048828
v -170.434494 5.788167 812.353271
v -170.775604 5.788168 811.820374
v -173.197906 5.788168 807.171387
v -170.470596 5.788168 811.432373
v -176.921402 5.788167 813.924316
v -177.516403 5.788167 813.660889
v -177.089905 5.788168 812.122803
v -176.427704 5.788167 814.347778
v -176.076797 5.788167 814.895813
v -175.898804 5.788167 815.521484
v -175.908600 5.788167 816.172119
v -175.328293 5.788167 817.490723
v -171.893402 6.337668 810.012817
v -172.198593 6.337668 810.400879
v -171.306198 6.337668 811.794678
v -171.001099 6.337668 811.406677
v -174.661804 6.884068 809.734680
v -176.695801 6.884068 812.322083
v -176.999207 6.884068 813.416321
v -176.687897 6.884068 813.554077
v -171.760300 6.884068 812.836487
v -176.097397 6.884068 814.060730
v -175.677795 6.884068 814.716125
v -170.833496 6.884068 812.533020
v -175.464798 6.883967 815.464417
v -175.135696 6.883967 816.853394
v -175.474197 6.883967 816.084229
v -170.456497 6.884068 813.857727
v -170.965195 6.884068 812.327271
v -172.807495 6.884068 811.200684
v -174.361694 6.884068 809.867493
v -1217.951660 18.424732 418.384399
v -1217.400513 18.424732 415.642395
v -1218.732056 18.424734 415.374298
v -1227.874878 18.424734 407.794708
v -1218.047485 18.424734 411.967804
v -1216.296509 18.424734 410.148895
v -1216.716553 18.424734 412.238312
v -1229.534546 18.424732 416.052490
v -1219.476685 19.913233 409.502289
v -1226.058350 19.913233 408.164093
v -1227.173950 19.913233 413.651001
v -1220.592285 19.913233 414.989197
v -119.752899 38.079929 -1411.083008
v -134.860794 38.079929 -1414.340210
v -135.311600 38.079929 -1412.913208
v -135.441498 38.079929 -1412.312012
v -136.046600 38.079929 -1410.683472
v -139.734207 38.079929 -1403.718018
v -136.866394 38.079929 -1409.685303
v -138.577896 38.079929 -1407.899048
v -137.757904 38.079929 -1408.897217
v -139.182999 38.079929 -1406.270508
v -123.229599 38.079929 -1400.153931
v -121.716003 38.079929 -1401.996826
v -133.755600 38.804928 -1402.472656
v -125.140900 38.804928 -1400.612549
v -123.922302 38.804928 -1406.255737
v -132.537003 38.804928 -1408.115967
v -131.739197 38.804928 -1407.943726
v -124.423897 38.804928 -1406.364014
v -123.243103 38.804928 -1411.832031
v -130.558395 38.804928 -1413.411621
v -275.379486 5.837599 6.917301
v -256.047791 5.837599 4.904901
v -258.360291 5.837603 -16.673500
v -278.914307 5.837603 -14.471899
v -275.379486 42.065102 6.917307
v -256.047791 42.065102 4.904907
v -257.393585 42.065102 -7.653193
v -277.442505 42.065102 -5.566193
v -277.442505 42.504398 -5.566193
v -267.205292 42.504398 -6.631893
v -268.141510 42.504402 -15.625793
v -278.914307 42.504402 -14.471893
v -261.243988 43.136902 -2.893293
v -272.414215 43.136902 -1.730493
v -272.091400 43.136902 0.222707
v -265.285400 43.136902 -0.485793
v -260.822205 43.136902 1.042807
v -265.074097 43.136902 1.485407
v -269.167999 43.287205 -15.470493
v -277.445404 43.287205 -14.583794
v -276.918915 43.287201 -9.668293
v -268.641388 43.287201 -10.554994
v -272.507812 43.287201 -10.140794
v -276.490387 43.287201 -5.668193
v -272.079407 43.287201 -6.140693
v -907.989319 8.959564 220.096802
v -906.286316 8.959563 229.673203
v -904.035400 8.959563 229.760193
v -904.858887 8.959564 225.129700
v -901.017395 8.959564 220.366104
v -902.972229 8.959564 225.202606
v -899.330322 8.959563 229.942001
v -902.156372 8.959563 229.832794
v 13.470700 14.679716 -100.278297
v 15.780700 14.679714 -85.351997
v 34.031101 14.679714 -87.196800
v 32.861698 14.679716 -101.811996
v 31.135500 29.067913 -86.904091
v 29.961100 29.067917 -101.582596
v 16.379400 29.067917 -100.508392
v 18.679600 29.067913 -85.644989
v 33.761799 51.543915 -90.561592
v 33.130798 51.543915 -98.447990
v 13.988300 51.543915 -96.933891
v 15.263900 51.543915 -88.691696
v 17.811701 39.139717 -99.267990
v 19.694099 39.139717 -87.103790
v 29.808201 39.139717 -88.126190
v 28.846901 39.139717 -100.140892
v 15.830000 62.603214 -96.328995
v 16.870399 62.603214 -89.606194
v 31.983000 62.603214 -91.133789
v 31.468399 62.603214 -97.565895
v 28.727699 46.189915 -89.178490
v 27.948999 46.189915 -98.910690
v 18.981600 46.189915 -98.201294
v 20.506500 46.189915 -88.347496
v 30.527901 65.921013 -91.674393
v 30.119900 65.921013 -96.772995
v 17.341801 65.921013 -95.762291
v 18.167801 65.921013 -90.424889
v 19.927900 57.705315 -97.378693
v 21.175800 57.705315 -89.314293
v 27.851000 57.705315 -89.988991
v 27.213600 57.705315 -97.955093
v 18.568899 67.889519 -95.373291
v 19.242500 67.889519 -91.020592
v 29.341700 67.889519 -92.041489
v 29.009001 67.889519 -96.198990
v 27.137400 59.185917 -90.686790
v 26.621000 59.185917 -97.139893
v 20.700800 59.185917 -96.671494
v 21.711800 59.185917 -90.138390
v 28.431801 68.324013 -92.800293
v 28.232700 68.324013 -95.288490
v 19.545000 68.324013 -94.601295
v 24.410999 68.324013 -93.548592
v 19.764700 68.324013 -93.181091
v 24.502701 68.324013 -92.403091
v 21.325899 61.154415 -96.125992
v 22.153299 61.154415 -90.779091
v 26.558500 61.154415 -91.224396
v 26.135700 61.154415 -96.506493
v 24.513800 61.817715 -93.504990
v 25.031401 61.817715 -93.545891
v 24.909599 61.817715 -95.068390
v 22.867399 61.817715 -94.906792
v 24.688000 61.817715 -92.379089
v 23.280600 61.817715 -92.236794
v 131.303696 46.758034 -815.217529
v 108.590698 46.758034 -811.648376
v 110.625999 46.758030 -798.656128
v 133.300201 46.758030 -802.220825
v 131.303696 65.511932 -815.217529
v 123.983704 65.511932 -814.067200
v 126.018799 65.511932 -801.075989
v 133.300201 65.511932 -802.220825
v 117.537697 65.511932 -813.054321
v 108.590698 65.511932 -811.648376
v 110.625999 65.511932 -798.656128
v 119.572899 65.511932 -800.062683
v 124.361504 65.511932 -811.655579
v 117.915001 65.511932 -810.645691
v 119.195099 65.511932 -802.474426
v 125.641602 65.511932 -803.484314
v 124.703400 66.210930 -813.542725
v 126.543602 66.210930 -801.796204
v 127.861801 66.210930 -802.003479
v 127.276802 66.210930 -805.737976
v 130.777100 66.210930 -814.497070
v 132.008408 66.210930 -806.481506
v 118.360397 65.999931 -810.320984
v 119.519798 65.999931 -802.919678
v 121.329201 65.999931 -803.203186
v 120.445702 65.999931 -808.843079
v 124.036797 65.999931 -811.210083
v 124.312698 65.999931 -809.448792
v 113.391502 65.946930 -811.077087
v 108.793404 65.946930 -810.354980
v 110.423302 65.946930 -799.950317
v 115.021400 65.946930 -800.672607
v 117.740402 65.946930 -811.760071
v 114.296799 65.946930 -805.298096
v 118.646004 65.946930 -805.979370
v -43.640900 41.278774 -1082.536011
v -51.157299 41.278774 -1082.095337
v -51.003700 41.278774 -1079.444824
v -46.787800 41.278774 -1079.692017
v -42.943802 41.278774 -1070.626587
v -46.423401 41.278774 -1073.465942
v -50.467499 41.278774 -1070.186523
v -50.643200 41.278774 -1073.219238
v 45.915100 49.888737 -839.430298
v 48.334202 49.888634 -823.959412
v 54.535198 49.888634 -824.930481
v 51.162800 49.888737 -835.973694
v 52.754200 49.888737 -836.223022
v 50.509800 49.888737 -840.149414
v 46.771599 50.386238 -833.953003
v 48.130699 50.386135 -825.260925
v 51.275600 50.386135 -825.753174
v 49.916500 50.386238 -834.445374
v 50.280102 50.386238 -832.120117
v 53.325401 50.386238 -832.596313
v 52.957699 50.386238 -834.921509
v -421.469086 5.101803 -19.451099
v -434.297485 5.101803 -18.000099
v -432.085388 5.101800 0.654001
v -419.278809 5.101800 -0.794599
v -422.200409 21.653103 -18.529196
v -433.370697 21.653101 -17.265696
v -432.234894 21.653101 -7.687997
v -421.075897 21.653101 -8.950296
v -427.246887 12.314601 -8.252298
v -432.234894 12.314601 -7.687998
v -431.355011 12.314600 -0.267798
v -426.407104 12.314600 -0.827498
v -425.715210 22.758202 -12.174796
v -425.406403 22.758202 -9.544196
v -422.271515 22.758202 -9.898796
v -423.144989 22.758202 -17.338596
v -431.603607 22.758202 -11.508796
v -432.173798 22.758202 -16.317396
v -432.139893 12.935001 -7.098798
v -431.392914 12.935000 -0.799298
v -428.202911 12.935000 -1.177598
v -428.949799 12.935001 -7.476998
v -428.757812 12.935001 -5.857698
v -426.472809 12.935000 -1.382798
v -427.027710 12.935001 -6.062898
v -1251.545898 19.052332 426.791809
v -1253.297852 19.052332 426.442413
v -1253.717407 19.052330 428.529785
v -1236.822754 19.052332 423.338409
v -1238.477051 19.052330 431.569794
v -1250.857910 19.052332 423.368500
v -1252.609375 19.052332 423.016693
v -1252.058960 19.052332 420.277313
v -1249.032959 20.540831 426.619690
v -1240.312744 20.540829 428.371704
v -1239.205078 20.540831 422.859802
v -1247.925293 20.540831 421.107788
v -545.380798 15.179954 287.884705
v -544.689087 15.179954 287.865295
v -545.099915 15.179955 283.381195
v -549.723328 15.179951 301.949585
v -551.417175 15.179955 283.558289
v -544.735779 15.179953 294.888306
v -543.392273 15.179951 302.024811
v -544.045227 15.179953 294.896515
v -551.261475 15.931153 284.942291
v -550.441528 15.931152 293.844299
v -547.448120 15.931152 293.568604
v -548.268005 15.931153 284.666595
v -547.929016 15.931153 288.347900
v -547.602722 15.931152 291.889801
v -545.033813 15.931152 291.653198
v -545.359985 15.931153 288.111298
vt 0.0021 0.8512
vt 1.2421 0.8512
vt 1.2400 0.0000
vt 0.1441 0.6359
vt 0.1432 0.2857
vt 0.0007 0.2861
vt 0.0000 0.0036
vt 0.0015 0.6359
vt 0.0000 1.0000
vt 1.0000 1.0000
vt 1.0000 -0.0000
vt 0.0000 0.0000
vt 0.0199 1.4434
vt 0.0000 1.7297
vt 0.7621 1.7297
vt 0.0516 0.7068
vt 0.0737 -0.0000
vt 0.7142 0.0052
vt 0.0085 1.0000
vt 0.5483 1.0000
vt 0.5352 0.0000
vt 0.0000 0.3175
vt 0.0000 1.0000
vt 1.3635 1.0000
vt 1.3635 0.0000
vt 0.0000 0.0000
vt 0.0000 1.0000
vt 1.0000 1.0000
vt 1.0000 -0.0000
vt 0.0000 0.0000
vt 0.0000 0.8311
vt 1.0310 0.8311
vt 1.0307 0.0000
vt 0.0485 0.0394
vt 0.0002 0.0000
vt 0.0000 1.0000
vt 1.2821 1.0000
vt 1.2644 0.1482
vt 0.0000 1.0000
vt 0.7004 1.0000
vt 0.6970 0.5099
vt 0.1503 0.5099
vt 0.1503 0.0537
vt 0.0000 0.0000
vt 0.5922 0.0000
vt -0.0000 0.7208
vt 0.1556 1.0000
vt 1.1496 1.0000
vt 0.0000 1.0000
vt 1.0000 1.0000
vt 1.0000 -0.0000
vt 0.0000 0.0000
vt 0.0000 1.0000
vt 1.0000 1.0000
vt 1.0000 -0.0000
vt 0.0000 0.0000
vt 0.0000 1.6061
vt 1.0050 1.6061
vt 1.0292 0.0844
vt 0.0421 0.0000
vt 1.2259 1.0000
vt 1.1877 0.0000
vt 0.0000 0.0463
vt 0.0149 1.0000
vt 0.0000 1.0000
vt 0.9984 1.0000
vt 0.9984 0.0000
vt 0.0000 0.0000
vt 0.0000 0.0000
vt 0.0000 1.0000
vt 1.0000 1.0000
vt 1.0000 -0.0000
vt 0.8676 1.0000
vt 0.9366 0.7762
vt 0.9366 0.6923
vt 1.0000 -0.0000
vt 0.9999 0.6708
vt 0.0790 0.4879
vt 0.0302 0.4159
vt 0.1917 0.2747
vt 0.1045 0.5705
vt 0.1045 0.6567
vt 0.0790 0.7393
vt 0.0302 0.8113
vt 0.0000 1.0000
vt 0.0000 0.0000
vt 0.0893 1.0000
vt 1.0000 1.0000
vt 0.9107 0.0004
vt 0.7118 0.0000
vt 0.1897 0.1886
vt 0.0477 0.3206
vt 0.0792 0.3701
vt 0.8414 0.7277
vt 0.1169 0.4999
vt 0.1169 0.6355
vt 1.0000 0.7702
vt 0.0792 0.7653
vt 0.0000 1.0000
vt 0.0218 0.8553
vt 0.9334 1.0000
vt 1.0000 0.7277
vt 0.8414 0.3893
vt 0.7423 0.0477
vt 0.0000 0.0023
vt 0.0006 0.2850
vt 0.1290 0.2847
vt 1.1185 0.8512
vt 0.1297 0.6358
vt 0.0018 0.8512
vt 0.0013 0.6358
vt 1.1167 0.0000
vt 0.0000 1.0000
vt 1.0000 1.0000
vt 1.0000 -0.0000
vt 0.0000 0.0000
vt 0.9848 0.0000
vt 0.1381 0.0004
vt 0.1305 0.1047
vt 0.1305 0.1477
vt 0.1169 0.2681
vt 0.0000 0.7993
vt 0.0846 0.3486
vt 0.0136 0.4961
vt 0.0459 0.4157
vt 0.0000 0.6165
vt 0.9250 0.7993
vt 0.9848 0.6508
vt 0.0000 1.0000
vt 1.1003 1.0000
vt 1.1003 0.0000
vt 0.0000 0.0000
vt 0.0000 1.0000
vt 1.0000 1.0000
vt 1.0000 -0.0000
vt 0.0000 0.0000
vt 0.0028 0.0591
vt 0.0000 0.9890
vt 1.0205 0.9890
vt 1.0206 0.0000
vt 0.8467 -0.0000
vt 0.0000 0.0000
vt 0.0017 0.9174
vt 0.8798 0.9174
vt 1.2296 0.0036
vt 0.0032 0.0000
vt 0.0000 1.0477
vt 1.2909 1.0477
vt 0.0014 1.0000
vt 1.3385 1.0000
vt 1.3244 0.5008
vt 0.5097 0.5008
vt 0.0000 0.0000
vt 0.5090 0.0000
vt 0.0000 1.0000
vt 0.6953 1.0000
vt 0.6953 -0.0000
vt 0.0000 0.0000
vt 0.0000 1.0000
vt 1.0000 1.0000
vt 1.0000 -0.0000
vt 0.0000 0.0000
vt 1.2156 -0.0000
vt 0.1598 0.0023
vt 0.1081 0.3251
vt 0.6186 0.3240
vt 1.0555 1.0000
vt 0.5753 0.5946
vt 0.0000 1.0000
vt 0.0649 0.5946
vt 0.6251 1.8407
vt 0.5890 -0.0000
vt -0.0000 0.0489
vt 0.0004 1.8407
vt 1.9052 0.1162
vt 0.1232 -0.0000
vt -0.0000 1.4561
vt 1.8250 1.4561
vt 0.0000 0.0265
vt 0.0003 0.5436
vt 0.7663 0.5436
vt 0.7415 0.0000
vt 0.0000 1.2413
vt 0.8116 1.2413
vt 0.8470 0.0998
vt 0.0544 0.0000
vt 1.3769 1.0000
vt 1.3324 0.0000
vt -0.0000 0.0489
vt 0.0005 1.0000
vt 0.7835 0.0681
vt 0.0505 0.0000
vt 0.0000 0.8501
vt 0.7506 0.8501
vt 0.0000 0.0503
vt 0.0003 1.0000
vt 0.8334 1.0000
vt 0.8072 -0.0000
vt 0.0000 1.0000
vt 0.8814 1.0000
vt 0.9196 0.0807
vt 0.0588 0.0000
vt 1.2949 1.0000
vt 1.2544 0.0000
vt 0.0000 0.0503
vt 0.0005 1.0000
vt 1.0000 0.0805
vt 0.0641 0.0000
vt 0.0000 1.0000
vt 0.9583 1.0000
vt -0.0000 0.0334
vt 0.0002 1.0000
vt 0.6435 1.0000
vt 0.2915 0.4450
vt 0.6356 0.4450
vt 0.2914 -0.0000
vt 0.0000 1.0000
vt 0.9586 1.0000
vt 1.0000 0.0811
vt 0.0637 0.0000
vt 0.5897 0.3085
vt 0.6036 0.0550
vt 0.0550 0.0000
vt 0.0000 1.0000
vt 1.0000 0.3085
vt 0.9731 1.0000
vt 0.0000 1.0857
vt 0.7584 1.0857
vt 0.7586 0.0000
vt 0.0015 0.0001
vt 0.0000 0.0000
vt 0.0003 1.0000
vt 0.9713 1.0000
vt 0.9710 0.0053
vt 0.0000 0.0000
vt 0.0003 0.6255
vt 0.8408 0.6255
vt 0.8405 0.0000
vt 0.0000 0.0000
vt 0.0000 1.0000
vt 0.6376 1.0000
vt 0.6376 0.0000
vt 0.0003 1.0000
vt 1.4157 1.0000
vt 1.4156 0.7830
vt 0.9656 0.7830
vt 0.0000 0.0000
vt 0.9654 0.0039
vt 0.0000 1.0000
vt 1.0000 1.0000
vt 1.0000 0.6812
vt 0.2380 0.6812
vt 0.0000 0.0000
vt 0.2380 0.0000
vt 0.0000 0.0000
vt 0.0002 1.0000
vt 0.8512 1.0000
vt 0.8510 0.0000
vt 0.0000 0.0000
vt 0.0003 1.0000
vt 1.0000 1.0000
vt 1.0000 -0.0000
vt 1.1181 1.0000
vt 1.1180 0.0010
vt 0.8692 0.0008
vt 0.8692 0.5611
vt 0.0000 1.0000
vt 0.2847 0.5611
vt 0.0000 0.0000
vt 0.2847 0.0002
vt 0.0000 1.0000
vt 1.7388 1.0000
vt 1.7387 -0.0000
vt 0.4693 0.2590
vt 0.4693 0.0024
vt 0.0000 0.2591
vt 0.0000 1.0000
vt 0.6731 1.0000
vt 0.6730 0.0000
vt 0.0000 0.0000
vt -0.0000 0.0002
vt 0.0000 1.0000
vt 1.0000 1.0000
vt 0.9987 0.0000
vt 0.0041 0.0000
vt -0.0000 0.8546
vt 1.1027 0.8546
vt 1.1068 0.0015
vt 0.0029 1.1746
vt 0.7979 1.1746
vt 0.7942 0.0000
vt 0.0000 0.0000
vt 0.0036 0.0000
vt 0.0000 1.0000
vt 0.9964 1.0000
vt 1.0000 0.0080
vt 0.2244 0.3536
vt 0.2236 0.0000
vt 0.0000 0.0000
vt 0.0022 1.0000
vt 0.6444 0.3536
vt 0.6462 1.0000
vt 0.0000 1.0000
vt 1.0000 1.0000
vt 1.0000 -0.0000
vt 0.0000 0.0000
vt 0.0000 1.0000
vt 1.0000 1.0000
vt 1.0000 -0.0000
vt 0.0000 0.0000
vt 0.1691 0.6355
vt 0.0003 0.6355
vt 0.0000 0.8507
vt 1.4699 0.0022
vt 1.4688 0.8507
vt 0.1696 0.2826
vt 0.0008 0.2824
vt 0.0012 0.0000
vt 0.0000 1.0000
vt 0.8149 1.0000
vt 0.8150 0.0000
vt 0.0000 0.0000
vt 0.2217 0.1099
vt 0.2237 0.0004
vt 0.0184 0.0000
vt 0.8421 1.0000
vt 0.0000 1.0000
vt 0.5423 0.1099
vt 0.8720 0.0015
vt 0.5456 0.0009
vt 0.0000 1.0000
vt 0.6676 1.0000
vt 0.6676 -0.0000
vt 0.0000 0.0000
vt 0.0000 1.0000
vt 1.0000 1.0000
vt 1.0000 -0.0000
vt 0.0000 0.0000
vn 0.0000 1.0000 0.0000
g CityEngineMaterial_532_CityEngineMaterial_532_CityEngineMaterial_532_mat
usemtl CityEngineMaterial_532_mat
s 1
f 1/1/1 2/2/1 3/3/1 4/4/1
f 5/5/1 4/4/1 3/3/1 6/6/1
f 3/3/1 7/7/1 6/6/1
f 1/1/1 4/4/1 8/8/1
f 9/9/1 10/10/1 11/11/1 12/12/1
f 13/13/1 14/14/1 15/15/1 16/16/1
f 17/17/1 16/16/1 15/15/1 18/18/1
f 19/19/1 20/20/1 21/21/1 22/22/1
f 23/23/1 24/24/1 25/25/1 26/26/1
f 27/27/1 25/28/1 28/29/1 29/30/1
f 30/31/1 31/32/1 32/33/1 33/34/1
f 34/35/1 35/36/1 36/37/1 37/38/1
f 38/39/1 39/40/1 40/41/1 41/42/1
f 38/39/1 41/42/1 42/43/1 43/44/1
f 44/45/1 45/46/1 46/47/1 47/48/1
f 48/49/1 49/50/1 50/51/1 51/52/1
f 51/53/1 52/54/1 53/55/1 54/56/1
f 55/57/1 56/58/1 57/59/1 58/60/1
f 59/61/1 60/62/1 61/63/1 62/64/1
f 63/65/1 64/66/1 65/67/1 66/68/1
f 67/69/1 68/70/1 69/71/1 70/72/1
f 71/73/1 72/74/1 73/75/1 74/76/1
f 73/75/1 75/77/1 74/76/1
f 76/78/1 71/73/1 74/76/1 77/79/1
f 74/76/1 78/80/1 77/79/1
f 71/73/1 76/78/1 79/81/1 80/82/1
f 71/73/1 80/82/1 81/83/1 82/84/1
f 71/73/1 82/84/1 83/85/1
f 84/86/1 85/87/1 86/88/1 87/89/1
f 88/90/1 89/91/1 90/92/1 91/93/1
f 92/94/1 88/90/1 91/93/1 93/95/1
f 92/94/1 93/95/1 94/96/1 95/97/1
f 95/97/1 94/96/1 96/98/1 97/99/1
f 96/98/1 98/100/1 97/99/1
f 97/99/1 99/101/1 95/97/1
f 95/97/1 100/102/1 92/94/1
f 88/90/1 92/94/1 101/103/1 102/104/1
f 103/105/1 104/106/1 105/107/1 106/108/1
f 106/108/1 105/107/1 107/109/1 108/110/1
f 107/109/1 109/111/1 108/110/1
f 103/105/1 106/108/1 110/112/1
f 111/113/1 112/114/1 113/115/1 114/116/1
f 115/117/1 116/118/1 117/119/1 118/120/1
f 115/117/1 118/120/1 119/121/1 120/122/1
f 120/122/1 119/121/1 121/123/1 122/124/1
f 121/123/1 123/125/1 122/124/1
f 122/124/1 124/126/1 120/122/1
f 115/117/1 120/122/1 125/127/1 126/128/1
f 127/129/1 128/130/1 129/131/1 130/132/1
f 131/133/1 132/134/1 133/135/1 134/136/1
f 135/137/1 136/138/1 137/139/1 138/140/1
f 139/141/1 140/142/1 141/143/1 142/144/1
f 143/145/1 144/146/1 145/147/1 146/148/1
f 147/149/1 148/150/1 149/151/1 150/152/1
f 151/153/1 147/149/1 150/152/1 152/154/1
f 153/155/1 154/156/1 155/157/1 156/158/1
f 157/159/1 155/160/1 158/161/1 159/162/1
f 160/163/1 161/164/1 162/165/1 163/166/1
f 164/167/1 160/163/1 163/166/1 165/168/1
f 166/169/1 164/167/1 165/168/1 167/170/1
f 168/171/1 169/172/1 170/173/1 171/174/1
f 172/175/1 173/176/1 174/177/1 175/178/1
f 176/179/1 177/180/1 178/181/1 179/182/1
f 180/183/1 181/184/1 182/185/1 183/186/1
f 184/187/1 185/188/1 186/189/1 187/190/1
f 188/191/1 189/192/1 190/193/1 191/194/1
f 192/195/1 193/196/1 194/197/1 195/198/1
f 196/199/1 197/200/1 198/201/1 199/202/1
f 200/203/1 201/204/1 202/205/1 203/206/1
f 204/207/1 205/208/1 206/209/1 207/210/1
f 208/211/1 209/212/1 210/213/1 211/214/1
f 210/213/1 212/215/1 211/214/1
f 208/211/1 211/214/1 213/216/1
f 214/217/1 215/218/1 216/219/1 217/220/1
f 218/221/1 219/222/1 220/223/1 221/224/1
f 222/225/1 218/221/1 221/224/1 223/226/1
f 224/227/1 225/228/1 226/229/1 227/230/1
f 228/231/1 229/232/1 230/233/1 231/234/1
f 232/235/1 233/236/1 234/237/1 235/238/1
f 236/239/1 237/240/1 238/241/1 239/242/1
f 240/243/1 241/244/1 242/245/1 243/246/1
f 244/247/1 240/243/1 243/246/1 245/248/1
f 246/249/1 247/250/1 248/251/1 249/252/1
f 250/253/1 246/249/1 249/252/1 251/254/1
f 252/255/1 253/256/1 254/257/1 255/258/1
f 256/259/1 252/260/1 257/261/1 258/262/1
f 259/263/1 260/264/1 261/265/1 262/266/1
f 263/267/1 259/263/1 262/266/1 264/268/1
f 265/269/1 263/267/1 264/268/1 266/270/1
f 267/271/1 268/272/1 269/273/1 270/274/1
f 269/273/1 271/275/1 270/274/1
f 267/271/1 270/274/1 272/276/1
f 273/277/1 274/278/1 275/279/1 276/280/1
f 276/281/1 277/282/1 278/283/1 279/284/1
f 280/285/1 281/286/1 282/287/1 283/288/1
f 284/289/1 285/290/1 286/291/1 287/292/1
f 288/293/1 289/294/1 290/295/1 291/296/1
f 292/297/1 293/298/1 294/299/1 295/300/1
f 296/301/1 292/297/1 295/300/1 297/302/1
f 298/303/1 299/304/1 300/305/1 301/306/1
f 302/307/1 300/308/1 303/309/1 304/310/1
f 305/311/1 306/312/1 307/313/1 308/314/1
f 307/313/1 309/315/1 308/314/1
f 310/316/1 305/311/1 308/314/1 311/317/1
f 311/317/1 308/314/1 312/318/1
f 313/319/1 314/320/1 315/321/1 316/322/1
f 317/323/1 318/324/1 319/325/1 320/326/1
f 319/325/1 321/327/1 320/326/1
f 322/328/1 317/323/1 320/326/1 323/329/1
f 322/328/1 323/329/1 324/330/1
f 325/331/1 326/332/1 327/333/1 328/334/1
f 329/335/1 330/336/1 331/337/1 332/338/1
