# Blender v2.78 (sub 0) OBJ File: ''
# www.blender.org
mtllib CityEngineMaterial_497.mtl
o CityEngineMaterial_497
v -1142.914917 12.448433 407.406403
v -1131.472656 12.448433 410.021393
v -1131.472656 14.795933 410.021393
v -1142.914917 14.795933 407.406403
v -1130.100830 12.448434 403.999603
v -1130.100830 14.795934 403.999603
v -1133.361206 12.448434 403.254486
v -1133.361206 14.795934 403.254486
v -1130.627563 12.448436 391.255188
v -1130.627563 14.795936 391.255188
v -1138.811401 12.448436 389.394409
v -1138.811401 14.795936 389.394409
v -868.744019 11.081120 487.675690
v -877.284424 11.081120 489.813995
v -877.284424 13.279520 489.813995
v -868.744019 13.279521 487.675690
v -877.164124 11.081120 487.044891
v -877.164124 13.279521 487.044891
v -883.800171 11.081120 488.706512
v -883.800171 13.279521 488.706512
v -884.184875 11.081119 497.555511
v -884.184875 13.279519 497.555511
v -869.025879 11.081120 493.760193
v -869.025879 13.279520 493.760193
v -736.390015 10.732002 597.399170
v -742.028687 10.732002 595.891724
v -742.028687 12.395002 595.891724
v -736.390015 12.395002 597.399170
v -742.902405 10.732000 606.523071
v -742.902405 12.395000 606.523071
v -727.211975 10.732000 610.717529
v -727.211975 12.395000 610.717529
v -726.352783 10.732001 600.082275
v -726.352783 12.395001 600.082275
v -732.040283 10.732002 598.561890
v -732.040283 12.395002 598.561890
v -732.440979 10.732001 603.522705
v -732.440979 12.395001 603.522705
v -736.797424 10.732001 602.358093
v -736.797424 12.395001 602.358093
v -739.209412 13.529802 596.645386
v -729.196472 13.539403 599.322083
v 932.857727 109.253235 -245.329880
v 933.397217 109.253235 -245.412781
v 933.397217 111.294540 -245.412781
v 932.857727 111.294540 -245.329880
v 940.035217 109.253235 -246.428879
v 940.035217 111.294640 -246.428879
v 943.500671 109.253235 -246.959381
v 943.500671 111.294540 -246.959381
v 941.570679 109.253349 -259.645782
v 941.570679 111.294548 -259.645782
v 934.117676 109.253349 -258.492676
v 934.117676 111.294548 -258.492676
v 935.397583 109.253235 -250.079590
v 935.397583 111.294540 -250.079590
v 932.198792 109.253235 -249.589584
v 932.198792 111.294540 -249.589584
v 84.079002 38.998672 -1045.481689
v 95.000999 38.998672 -1046.695068
v 95.000999 40.707272 -1046.695068
v 84.079002 40.707272 -1045.481689
v 94.713699 38.998672 -1051.645996
v 94.713699 40.707272 -1051.645996
v 88.626503 38.998672 -1050.969849
v 88.626503 40.707272 -1050.969849
v 88.422798 38.998672 -1054.483276
v 88.422798 40.707272 -1054.483276
v 94.510101 38.998672 -1055.153687
v 94.510101 40.707272 -1055.153687
v 94.287598 38.998672 -1058.988159
v 94.287598 40.707272 -1058.988159
v 83.365997 38.998672 -1057.785278
v 83.365997 40.707272 -1057.785278
v 94.857399 41.802872 -1049.170532
v 94.398804 41.555870 -1057.070923
v -1079.191162 12.252629 432.581207
v -1079.795654 12.252628 437.192993
v -1079.795654 14.388028 437.192993
v -1079.191162 14.388029 432.581207
v -1068.182739 12.252628 437.683411
v -1068.182739 14.388028 437.683411
v -1066.698364 12.252630 426.356903
v -1066.698364 14.388030 426.356903
v -1078.256836 12.252630 425.450714
v -1078.256836 14.388030 425.450714
v -1078.638306 12.252630 428.362213
v -1078.638306 14.388030 428.362213
v -1072.240845 12.252630 428.863800
v -1072.240845 14.388030 428.863800
v -1072.763550 12.252629 432.852600
v -1072.763550 14.388029 432.852600
v 116.367699 41.546551 -944.154175
v 112.959702 41.546551 -943.789429
v 112.959702 43.647453 -943.789429
v 116.367699 43.647453 -944.154175
v 113.077400 41.546551 -941.819519
v 113.077400 43.647453 -941.819519
v 105.902901 41.546551 -941.052124
v 105.902901 43.647453 -941.052124
v 106.294098 41.546551 -934.448608
v 106.294098 43.647453 -934.448608
v 116.879700 41.546551 -935.581116
v 116.879700 43.647453 -935.581116
v 26.742100 38.603870 -1065.317627
v 28.218901 38.603870 -1056.821533
v 28.218901 40.586372 -1056.821533
v 26.742100 40.586372 -1065.317627
v 45.642399 38.603870 -1060.153809
v 45.642399 40.586372 -1060.153809
v 44.961899 38.603870 -1063.820312
v 44.961899 40.586372 -1063.820312
v 43.959900 38.603977 -1068.013794
v 43.959900 40.586376 -1068.013794
v 39.219799 38.603977 -1067.271484
v 39.219799 40.586376 -1067.271484
v 40.038399 38.603870 -1063.845459
v 40.038399 40.586372 -1063.845459
v 32.463200 38.603870 -1062.396606
v 32.463200 40.586372 -1062.396606
v 31.817301 38.603977 -1066.112427
v 31.817301 40.586376 -1066.112427
v 41.589802 41.241276 -1067.642578
v 29.279699 41.289677 -1065.714966
v -716.633179 10.803598 625.484619
v -718.635925 10.803597 633.143127
v -718.635925 13.114897 633.143127
v -716.633179 13.114898 625.484619
v -699.504211 10.803596 638.259277
v -699.504211 13.114896 638.259277
v -697.864075 10.803597 630.502930
v -697.864075 13.114897 630.502930
v -704.289795 10.803598 628.784912
v -704.289795 13.114898 628.784912
v -705.130798 10.803597 632.762207
v -705.130798 13.114897 632.762207
v -711.133728 10.803597 631.156921
v -711.133728 13.114897 631.156921
v -710.106812 10.803598 627.229614
v -710.106812 13.114898 627.229614
v -701.077026 14.294197 629.643921
v -713.369995 14.314398 626.357117
v -659.069519 28.292143 -877.261230
v -655.518372 28.292143 -878.346619
v -655.518372 30.089643 -878.346619
v -659.069519 30.089643 -877.261230
v -658.303101 28.292145 -887.511292
v -658.303101 30.089645 -887.511292
v -668.950073 28.292145 -884.273987
v -668.950073 30.089645 -884.273987
v -667.572998 28.292143 -879.672913
v -667.572998 30.089643 -879.672913
v -660.459473 28.292143 -881.835815
v -660.459473 30.089643 -881.835815
v -657.293884 30.698544 -877.803772
v -668.261475 30.877144 -881.973389
vt -0.0000 -1.0000
vt 5.0000 -1.0000
vt 5.0000 1.0000
vt -0.0000 1.0000
vt -0.0000 -1.0000
vt 2.5000 -1.0000
vt 2.5000 1.0000
vt -0.0000 1.0000
vt 0.5000 -1.0000
vt 2.0000 -1.0000
vt 2.0000 1.0000
vt 0.5000 1.0000
vt -0.0000 -1.0000
vt 5.0000 -1.0000
vt 5.0000 1.0000
vt -0.0000 1.0000
vt 0.5000 -1.0000
vt 4.0000 -1.0000
vt 4.0000 1.0000
vt 0.5000 1.0000
vt 0.5000 -1.0000
vt 8.0000 -1.0000
vt 8.0000 1.0000
vt 0.5000 1.0000
vt -0.0000 -1.0000
vt 3.5000 -1.0000
vt 3.5000 1.0000
vt -0.0000 1.0000
vt 0.5000 -1.0000
vt 1.5000 -1.0000
vt 1.5000 1.0000
vt 0.5000 1.0000
vt -0.0000 -1.0000
vt 2.5000 -1.0000
vt 2.5000 1.0000
vt -0.0000 1.0000
vt 0.5000 -1.0000
vt 4.0000 -1.0000
vt 4.0000 1.0000
vt 0.5000 1.0000
vt 0.5000 -1.0000
vt 6.5000 -1.0000
vt 6.5000 1.0000
vt 0.5000 1.0000
vt 0.5000 -1.0000
vt 3.0000 -1.0000
vt 3.0000 1.0000
vt 0.5000 1.0000
vt 0.5000 0.0000
vt 3.0000 0.0000
vt 3.0000 1.0000
vt 0.5000 1.0000
vt 0.5000 0.0000
vt 5.5000 -0.0000
vt 5.5000 1.0000
vt 0.5000 1.0000
vt 0.0000 0.0000
vt 7.5000 0.0000
vt 7.5000 1.0000
vt -0.0000 1.0000
vt 0.0000 0.0000
vt 5.0000 -0.0000
vt 5.0000 1.0000
vt -0.0000 1.0000
vt 0.0000 0.0000
vt 2.5000 0.0000
vt 2.5000 1.0000
vt -0.0000 1.0000
vt 0.0000 0.0000
vt 2.0000 0.0000
vt 2.0000 1.0000
vt -0.0000 1.0000
vt 0.0000 0.0000
vt 2.0000 0.0000
vt 2.0000 1.0000
vt -0.0000 1.0000
vt 0.5000 0.0000
vt 2.5000 0.0000
vt 2.5000 1.0000
vt 0.5000 1.0000
vt 0.0000 0.0000
vt 2.5000 0.0000
vt 1.2500 1.0000
vt 0.5000 0.0000
vt 3.0000 0.0000
vt 1.7500 1.0000
vt -0.0000 -1.0000
vt 0.1000 -1.0000
vt 0.1000 1.0000
vt -0.0000 1.0000
vt 0.5000 -1.0000
vt 3.5000 -1.0000
vt 3.5000 1.0000
vt 0.5000 1.0000
vt 0.5000 -1.0000
vt 2.0000 -1.0000
vt 2.0000 1.0000
vt 0.5000 1.0000
vt -0.0000 -1.0000
vt 6.0000 -1.0000
vt 6.0000 1.0000
vt -0.0000 1.0000
vt -0.0000 -1.0000
vt 3.5000 -1.0000
vt 3.5000 1.0000
vt -0.0000 1.0000
vt 0.5000 -1.0000
vt 4.5000 -1.0000
vt 4.5000 1.0000
vt 0.5000 1.0000
vt -0.0000 -1.0000
vt 1.5000 -1.0000
vt 1.5000 1.0000
vt -0.0000 1.0000
vt 0.5000 -1.0000
vt 2.5000 -1.0000
vt 2.5000 1.0000
vt 0.5000 1.0000
vt -0.0000 -1.0000
vt 5.0000 -1.0000
vt 5.0000 1.0000
vt -0.0000 1.0000
vt -0.0000 -1.0000
vt 2.0000 -1.0000
vt 2.0000 1.0000
vt -0.0000 1.0000
vt 0.5000 -1.0000
vt 3.0000 -1.0000
vt 3.0000 1.0000
vt 0.5000 1.0000
vt 0.5000 -1.0000
vt 2.0000 -1.0000
vt 2.0000 1.0000
vt 0.5000 1.0000
vt 0.5000 -1.0000
vt 3.0000 -1.0000
vt 3.0000 1.0000
vt 0.5000 1.0000
vt 0.5000 -1.0000
vt 2.0000 -1.0000
vt 2.0000 1.0000
vt 0.5000 1.0000
vt -0.0000 -1.0000
vt 5.0000 -1.0000
vt 5.0000 1.0000
vt -0.0000 1.0000
vt 0.5000 -1.0000
vt 6.0000 -1.0000
vt 6.0000 1.0000
vt 0.5000 1.0000
vt 0.5000 0.0000
vt 2.5000 0.0000
vt 1.5000 1.0000
vt 0.0000 0.0000
vt 1.5000 0.0000
vt 0.7500 1.0000
vt -0.0000 -1.0000
vt 2.0000 -1.0000
vt 2.0000 1.0000
vt -0.0000 1.0000
vt 0.5000 -1.0000
vt 5.5000 -1.0000
vt 5.5000 1.0000
vt 0.5000 1.0000
vt 0.5000 -1.0000
vt 5.0000 -1.0000
vt 5.0000 1.0000
vt 0.5000 1.0000
vt 0.5000 -1.0000
vt 5.0000 -1.0000
vt 5.0000 1.0000
vt 0.5000 1.0000
vt 0.5000 -1.0000
vt 1.5000 -1.0000
vt 1.5000 1.0000
vt 0.5000 1.0000
vt 0.5000 -1.0000
vt 3.0000 -1.0000
vt 3.0000 1.0000
vt 0.5000 1.0000
vt -0.0000 -1.0000
vt 1.5000 -1.0000
vt 1.5000 1.0000
vt -0.0000 1.0000
vt 0.5000 -1.0000
vt 3.0000 -1.0000
vt 3.0000 1.0000
vt 0.5000 1.0000
vt 0.5000 -1.0000
vt 2.0000 -1.0000
vt 2.0000 1.0000
vt 0.5000 1.0000
vt -0.0000 -1.0000
vt 1.0000 -1.0000
vt 1.0000 1.0000
vt -0.0000 1.0000
vt 0.5000 -1.0000
vt 3.5000 -1.0000
vt 3.5000 1.0000
vt 0.5000 1.0000
vt 0.5000 -1.0000
vt 3.0000 -1.0000
vt 3.0000 1.0000
vt 0.5000 1.0000
vt 0.5000 -1.0000
vt 4.5000 -1.0000
vt 4.5000 1.0000
vt 0.5000 1.0000
vt 0.5000 -1.0000
vt 4.0000 -1.0000
vt 4.0000 1.0000
vt 0.5000 1.0000
vt -0.0000 -1.0000
vt 3.5000 -1.0000
vt 3.5000 1.0000
vt -0.0000 1.0000
vt -0.0000 -1.0000
vt 7.5000 -1.0000
vt 7.5000 1.0000
vt -0.0000 1.0000
vt 0.5000 -1.0000
vt 2.0000 -1.0000
vt 2.0000 1.0000
vt 0.5000 1.0000
vt -0.0000 -1.0000
vt 2.0000 -1.0000
vt 2.0000 1.0000
vt -0.0000 1.0000
vt -0.0000 -1.0000
vt 2.0000 -1.0000
vt 2.0000 1.0000
vt -0.0000 1.0000
vt -0.0000 -1.0000
vt 1.5000 -1.0000
vt 1.5000 1.0000
vt -0.0000 1.0000
vt 0.5000 -1.0000
vt 4.0000 -1.0000
vt 4.0000 1.0000
vt 0.5000 1.0000
vt 0.5000 -1.0000
vt 2.0000 -1.0000
vt 2.0000 1.0000
vt 0.5000 1.0000
vt 0.5000 -1.0000
vt 2.5000 -1.0000
vt 2.5000 1.0000
vt 0.5000 1.0000
vt 0.5000 0.9000
vt 2.5000 0.9000
vt 1.5000 1.0000
vt 0.5000 0.9000
vt 2.5000 0.9000
vt 1.5000 1.0000
vt -0.0000 -1.0000
vt 3.0000 -1.0000
vt 3.0000 1.0000
vt -0.0000 1.0000
vt -0.0000 -1.0000
vt 7.5000 -1.0000
vt 7.5000 1.0000
vt -0.0000 1.0000
vt 0.5000 -1.0000
vt 3.5000 -1.0000
vt 3.5000 1.0000
vt 0.5000 1.0000
vt -0.0000 -1.0000
vt 2.5000 -1.0000
vt 2.5000 1.0000
vt -0.0000 1.0000
vt 0.5000 -1.0000
vt 2.0000 -1.0000
vt 2.0000 1.0000
vt 0.5000 1.0000
vt -0.0000 -1.0000
vt 2.5000 -1.0000
vt 2.5000 1.0000
vt -0.0000 1.0000
vt 0.5000 -1.0000
vt 2.0000 -1.0000
vt 2.0000 1.0000
vt 0.5000 1.0000
vt -0.0000 -1.0000
vt 2.5000 -1.0000
vt 2.5000 1.0000
vt -0.0000 1.0000
vt 0.0000 0.0000
vt 2.5000 0.0000
vt 1.2500 1.0000
vt 0.0000 0.0000
vt 2.5000 0.0000
vt 1.2500 1.0000
vt 0.0000 0.0000
vt 1.5000 0.0000
vt 1.5000 1.0000
vt -0.0000 1.0000
vt 0.5000 0.0000
vt 4.0000 -0.0000
vt 4.0000 1.0000
vt 0.5000 1.0000
vt 0.0000 0.0000
vt 4.0000 -0.0000
vt 4.0000 1.0000
vt -0.0000 1.0000
vt 0.0000 0.0000
vt 2.0000 0.0000
vt 2.0000 1.0000
vt -0.0000 1.0000
vt 0.5000 0.0000
vt 3.5000 0.0000
vt 3.5000 1.0000
vt 0.5000 1.0000
vt 0.5000 0.0000
vt 2.5000 0.0000
vt 2.5000 1.0000
vt 0.5000 1.0000
vt 0.0000 0.9000
vt 1.5000 0.9000
vt 0.7500 1.0000
vt 0.5000 0.9000
vt 2.5000 0.9000
vt 1.5000 1.0000
vn -0.2228 0.0000 0.9749
vn 0.9750 0.0000 0.2221
vn 0.2228 0.0000 -0.9749
vn 0.2217 0.0000 -0.9751
vn -0.9750 0.0000 -0.2221
vn -0.2429 0.0000 -0.9701
vn 0.9991 0.0000 0.0434
vn -0.9991 0.0000 -0.0434
vn 0.2429 0.0000 0.9701
vn 0.9989 0.0000 0.0463
vn 0.2583 0.0000 -0.9661
vn -0.9966 0.0000 -0.0819
vn -0.2583 0.0000 0.9661
vn 0.9968 0.0000 0.0805
vn -0.9968 0.0000 -0.0805
vn 0.9966 0.0000 0.0819
vn 0.2582 -0.0000 -0.9661
vn 0.1519 0.0000 0.9884
vn 0.1516 0.0000 0.9884
vn 0.1513 0.0000 0.9885
vn 0.9886 0.0000 -0.1504
vn -0.1529 0.0000 -0.9882
vn -0.9886 0.0000 0.1504
vn -0.1514 0.0000 -0.9885
vn -0.9882 0.0000 0.1529
vn 0.1104 0.0000 0.9939
vn 0.9983 0.0000 -0.0579
vn -0.1104 0.0000 -0.9939
vn 0.1095 0.0000 0.9940
vn -0.1095 0.0000 -0.9940
vn -0.9983 0.0000 0.0579
vn 0.9983 -0.0001 -0.0579
vn 0.9983 0.0001 -0.0579
vn -0.9915 0.0000 -0.1300
vn -0.0422 0.0000 0.9991
vn 0.9915 0.0000 0.1299
vn 0.0782 0.0000 -0.9969
vn -0.9915 0.0000 -0.1299
vn -0.0782 0.0000 0.9969
vn 0.0422 0.0000 -0.9991
vn -0.1064 0.0000 -0.9943
vn -0.9982 0.0000 0.0596
vn -0.9982 0.0000 0.0591
vn 0.1064 0.0000 0.9943
vn 0.9982 0.0000 -0.0596
vn -0.9852 0.0000 0.1713
vn 0.1878 0.0000 0.9822
vn 0.9832 0.0000 -0.1825
vn 0.9726 0.0000 -0.2324
vn -0.1547 0.0000 -0.9880
vn -0.9726 0.0000 0.2324
vn -0.1879 0.0000 -0.9822
vn 0.9852 0.0000 -0.1713
vn -0.1547 0.0001 -0.9880
vn -0.9675 0.0000 -0.2530
vn 0.9784 0.0000 0.2069
vn -0.9784 0.0000 -0.2069
vn 0.9675 0.0000 0.2530
vn 0.2923 0.0000 0.9563
vn 0.9568 0.0000 -0.2907
vn -0.2909 0.0000 -0.9568
vn -0.9580 0.0000 0.2867
vn 0.2909 0.0000 0.9568
vn -0.9568 0.0000 0.2907
vn 0.2923 0.0001 0.9563
vn -0.9580 0.0001 0.2867
g CityEngineMaterial_497_CityEngineMaterial_497_CityEngineMaterial_497_mat
usemtl CityEngineMaterial_497_mat
s 1
f 1/1/1 2/2/1 3/3/1 4/4/1
f 2/5/2 5/6/2 6/7/2 3/8/2
f 5/9/3 7/10/3 8/11/3 6/12/3
f 7/13/2 9/14/2 10/15/2 8/16/2
f 9/17/4 11/18/4 12/19/4 10/20/4
f 11/21/5 1/22/5 4/23/5 12/24/5
f 13/25/6 14/26/6 15/27/6 16/28/6
f 14/29/7 17/30/7 18/31/7 15/32/7
f 17/33/6 19/34/6 20/35/6 18/36/6
f 19/37/8 21/38/8 22/39/8 20/40/8
f 21/41/9 23/42/9 24/43/9 22/44/9
f 23/45/10 13/46/10 16/47/10 24/48/10
f 25/49/11 26/50/11 27/51/11 28/52/11
f 26/53/12 29/54/12 30/55/12 27/56/12
f 29/57/13 31/58/13 32/59/13 30/60/13
f 31/61/14 33/62/14 34/63/14 32/64/14
f 33/65/11 35/66/11 36/67/11 34/68/11
f 35/69/15 37/70/15 38/71/15 36/72/15
f 37/73/11 39/74/11 40/75/11 38/76/11
f 39/77/16 25/78/16 28/79/16 40/80/16
f 28/81/11 27/82/11 41/83/11
f 34/84/17 36/85/17 42/86/17
f 43/87/18 44/88/19 45/89/19 46/90/18
f 44/91/19 47/92/20 48/93/20 45/94/19
f 47/95/20 49/96/20 50/97/20 48/98/20
f 49/99/21 51/100/21 52/101/21 50/102/21
f 51/103/22 53/104/22 54/105/22 52/106/22
f 53/107/23 55/108/23 56/109/23 54/110/23
f 55/111/24 57/112/24 58/113/24 56/114/24
f 57/115/25 43/116/25 46/117/25 58/118/25
f 59/119/26 60/120/26 61/121/26 62/122/26
f 60/123/27 63/124/27 64/125/27 61/126/27
f 63/127/28 65/128/28 66/129/28 64/130/28
f 65/131/27 67/132/27 68/133/27 66/134/27
f 67/135/29 69/136/29 70/137/29 68/138/29
f 69/139/27 71/140/27 72/141/27 70/142/27
f 71/143/30 73/144/30 74/145/30 72/146/30
f 73/147/31 59/148/31 62/149/31 74/150/31
f 61/151/32 64/152/32 75/153/32
f 70/154/33 72/155/33 76/156/33
f 77/157/34 78/158/34 79/159/34 80/160/34
f 78/161/35 81/162/35 82/163/35 79/164/35
f 81/165/36 83/166/36 84/167/36 82/168/36
f 83/169/37 85/170/37 86/171/37 84/172/37
f 85/173/38 87/174/38 88/175/38 86/176/38
f 87/177/39 89/178/39 90/179/39 88/180/39
f 89/181/38 91/182/38 92/183/38 90/184/38
f 91/185/40 77/186/40 80/187/40 92/188/40
f 93/189/41 94/190/41 95/191/41 96/192/41
f 94/193/42 97/194/42 98/195/42 95/196/42
f 97/197/41 99/198/41 100/199/41 98/200/41
f 99/201/43 101/202/43 102/203/43 100/204/43
f 101/205/44 103/206/44 104/207/44 102/208/44
f 103/209/45 93/210/45 96/211/45 104/212/45
f 105/213/46 106/214/46 107/215/46 108/216/46
f 106/217/47 109/218/47 110/219/47 107/220/47
f 109/221/48 111/222/48 112/223/48 110/224/48
f 111/225/49 113/226/49 114/227/49 112/228/49
f 113/229/50 115/230/50 116/231/50 114/232/50
f 115/233/51 117/234/51 118/235/51 116/236/51
f 117/237/52 119/238/52 120/239/52 118/240/52
f 119/241/53 121/242/53 122/243/53 120/244/53
f 121/245/50 105/246/50 108/247/50 122/248/50
f 114/249/54 116/250/54 123/251/54
f 122/252/54 108/253/54 124/254/54
f 125/255/55 126/256/55 127/257/55 128/258/55
f 126/259/13 129/260/13 130/261/13 127/262/13
f 129/263/56 131/264/56 132/265/56 130/266/56
f 131/267/11 133/268/11 134/269/11 132/270/11
f 133/271/57 135/272/57 136/273/57 134/274/57
f 135/275/11 137/276/11 138/277/11 136/278/11
f 137/279/58 139/280/58 140/281/58 138/282/58
f 139/283/11 125/284/11 128/285/11 140/286/11
f 132/287/11 134/288/11 141/289/11
f 140/290/11 128/291/11 142/292/11
f 143/293/59 144/294/59 145/295/59 146/296/59
f 144/297/60 147/298/60 148/299/60 145/300/60
f 147/301/61 149/302/61 150/303/61 148/304/61
f 149/305/62 151/306/62 152/307/62 150/308/62
f 151/309/63 153/310/63 154/311/63 152/312/63
f 153/313/64 143/314/64 146/315/64 154/316/64
f 146/317/65 145/318/65 155/319/65
f 150/320/66 152/321/66 156/322/66
