# Blender v2.78 (sub 0) OBJ File: ''
# www.blender.org
mtllib CityEngineMaterial_797.mtl
o CityEngineMaterial_797
v -1159.191528 18.855719 503.946991
v -1158.228271 18.855719 499.718689
v -1165.742798 18.855719 498.010712
v -1167.128174 18.855719 504.091705
v -1158.475342 18.855719 504.110413
v -1158.898682 18.855719 505.969208
v -1165.536987 19.421318 503.091400
v -1160.615723 19.421318 504.214111
v -1160.080933 19.421318 501.867004
v -1162.176880 19.421318 501.388885
v -1161.916016 19.421318 500.243713
v -1164.741943 19.421318 499.601288
v -1409.063843 21.218830 437.120911
v -1410.175293 21.218830 436.604309
v -1410.896729 21.218830 438.154114
v -1417.220459 21.218828 443.807892
v -1415.003662 21.218830 436.246613
v -1413.073853 21.218828 445.733795
v -1412.518188 22.661928 444.540314
v -1410.357300 22.661928 439.899292
v -1412.759766 22.661930 438.780701
v -1414.920532 22.661928 443.421814
v -1414.049927 22.661928 441.551697
v -1413.236572 22.661928 439.804688
v -1414.961426 22.661930 439.001587
v -1415.774780 22.661928 440.748596
v -190.960007 5.787073 167.714005
v -185.619904 5.787069 188.517700
v -176.705902 5.787070 185.274399
v -181.776093 5.787073 164.374298
v -189.855301 42.764973 168.296707
v -187.477905 42.764969 177.558304
v -180.174393 42.764973 174.901001
v -182.431396 42.764973 165.597107
v -183.931396 25.201872 176.267899
v -180.509293 25.201870 185.673798
v -177.800095 25.201870 184.688095
v -180.174393 25.201872 174.901001
v -182.419098 43.486774 173.698196
v -183.775803 43.486774 168.105392
v -184.816895 43.486774 168.483994
v -184.098007 43.486774 171.447800
v -186.160004 43.486774 175.059204
v -186.831802 43.486774 172.442398
v -177.934799 26.670870 184.205399
v -179.985199 26.670872 175.753494
v -181.477493 26.670872 176.115494
v -179.427094 26.670870 184.567398
v -180.794296 26.670872 178.931702
v -182.787598 26.670872 176.433304
v -182.104401 26.670872 179.249496
v 727.146179 39.611736 389.434113
v 725.621887 39.611736 390.998291
v 727.583496 39.611736 392.788086
v 733.557983 39.611736 386.656799
v 722.427185 39.611740 385.105988
v 726.740417 39.611740 380.403687
v 730.655273 40.701534 386.738312
v 726.863770 40.701538 383.260712
v 726.127686 40.701538 384.063202
v 728.273376 40.701538 386.031189
v 727.402283 40.701534 386.925293
v 729.023926 40.701534 388.412506
v -570.150391 12.724126 456.497314
v -569.488892 12.724126 456.505188
v -569.482910 12.724126 454.931091
v -576.584473 12.724126 454.846588
v -570.170898 12.724125 461.771393
v -576.611328 12.724125 461.746399
v -571.421021 14.226126 454.908112
v -575.252991 14.226226 454.862488
v -575.297913 14.226126 458.634705
v -571.465820 14.226126 458.680206
v -573.010193 14.226226 458.661896
v -573.046814 14.226125 461.737610
v -571.502380 14.226125 461.756012
v 109.656303 50.941017 -731.957520
v 111.717598 50.941017 -732.514526
v 111.119904 50.941017 -734.734680
v 97.852203 50.941017 -719.838928
v 95.008904 50.941017 -730.381714
v 111.212402 50.941017 -726.187927
v 113.270103 50.941017 -726.747375
v 113.951500 50.941017 -724.216187
v 108.163200 51.621418 -733.935913
v 95.898399 51.621418 -730.622009
v 97.634598 51.621418 -724.196411
v 109.899399 51.621418 -727.510193
v 106.114601 51.621418 -726.487488
v 107.220596 51.621418 -722.393982
v 111.005402 51.621418 -723.416687
v 101.232498 51.621418 -725.168518
v 98.740601 51.621418 -720.102783
v 102.338501 51.621418 -721.075012
v 590.969910 33.715641 345.435303
v 579.833374 33.715641 347.878601
v 579.600830 33.715641 348.381897
v 590.033875 33.715641 349.517700
v 590.280273 33.715641 350.640991
v 592.806519 33.715641 353.856995
v 581.349182 33.715641 356.351013
v 592.022400 33.715641 350.261688
v 590.136780 33.715641 349.295013
v 591.735107 33.715641 348.944214
v 584.498718 34.556843 351.482208
v 584.039612 34.556843 349.390106
v 582.338318 34.556843 349.763397
v 583.163086 34.556843 353.522705
v 587.869507 34.556843 350.748413
v 588.235901 34.556843 352.418488
vt 0.9020 0.6946
vt 0.9019 0.0000
vt -0.0000 0.0010
vt 0.0002 1.0000
vt 0.9880 0.6946
vt 0.9881 1.0000
vt 0.0002 1.0000
vt 1.0000 1.0000
vt 0.9999 0.3279
vt 0.5741 0.3279
vt 0.5740 -0.0000
vt 0.0000 0.0006
vt 1.1051 1.0000
vt 1.1050 0.7870
vt 0.9063 0.7870
vt 0.0000 0.2054
vt 0.9058 0.0000
vt 0.0005 1.0000
vt 0.0000 1.0000
vt 1.0000 1.0000
vt 1.0000 0.0000
vt 0.0000 0.0000
vt 0.0000 1.0000
vt 1.0000 1.0000
vt 1.0000 0.0000
vt 0.0000 0.0000
vt 0.6903 0.0000
vt 0.0000 0.0266
vt 0.0338 0.9057
vt 0.7250 0.9057
vt 0.7473 0.0000
vt 0.0000 0.0162
vt 0.0673 1.0000
vt 0.8155 1.0000
vt 0.9605 0.0000
vt -0.0000 0.2789
vt 0.0308 1.0000
vt 1.0033 1.0000
vt 0.0711 1.0000
vt 1.0000 1.0000
vt 0.9802 0.7242
vt 0.4880 0.7242
vt 0.0000 0.0090
vt 0.4360 0.0000
vt 0.0000 1.0000
vt 0.6634 1.0000
vt 0.6634 0.0000
vt 0.0000 0.0000
vt 0.0000 1.0000
vt 1.0000 1.0000
vt 1.0000 0.0000
vt 0.0000 0.0000
vt 0.3141 0.1648
vt 0.3214 0.0000
vt 0.0285 0.0005
vt -0.0000 0.6466
vt 1.0203 0.1648
vt 1.0203 0.6466
vt 0.0000 1.0000
vt 1.0000 1.0000
vt 1.0000 0.5340
vt 0.4341 0.5340
vt 0.4414 0.0000
vt 0.0137 0.0000
vt 0.0930 0.7719
vt 0.0000 0.7719
vt 0.0018 1.0000
vt 1.0000 1.0000
vt 0.0870 0.0075
vt 0.9922 0.0000
vt 0.0000 1.0000
vt 1.0000 1.0000
vt 1.0000 0.0000
vt 0.0000 0.0000
vt 0.0000 1.0000
vt 1.0000 1.0000
vt 1.0000 0.0000
vt 0.0995 0.5831
vt 0.0001 0.5831
vt 0.0000 0.7386
vt 0.7771 0.0000
vt 0.7768 0.7386
vt 0.0996 0.1789
vt 0.0004 0.1791
vt 0.0005 0.0018
vt 0.0000 1.0000
vt 0.8832 1.0000
vt 0.8832 0.0000
vt 0.0000 0.0000
vt 0.0000 1.0000
vt 1.0000 1.0000
vt 1.0000 0.0000
vt 0.0000 0.0000
vt 0.0000 1.0000
vt 1.0000 1.0000
vt 1.0000 0.0000
vt 1.1782 -0.0000
vt 0.0336 0.0015
vt -0.0000 0.0358
vt 0.9992 0.2942
vt 0.9994 0.3834
vt 1.1785 0.6690
vt 0.0013 0.6690
vt 1.1784 0.3834
vt 1.0141 0.2790
vt 1.1783 0.2788
vt 0.3358 0.5561
vt 0.3351 0.0000
vt 0.0000 0.0006
vt 0.0012 1.0000
vt 0.9995 0.5561
vt 1.0000 1.0000
vn 0.0000 1.0000 -0.0000
g CityEngineMaterial_797_CityEngineMaterial_797_CityEngineMaterial_797_mat
usemtl CityEngineMaterial_797_mat
s 1
f 1/1/1 2/2/1 3/3/1 4/4/1
f 5/5/1 1/1/1 4/4/1 6/6/1
f 7/7/1 8/8/1 9/9/1 10/10/1
f 7/7/1 10/10/1 11/11/1 12/12/1
f 13/13/1 14/14/1 15/15/1 16/16/1
f 15/15/1 17/17/1 16/16/1
f 13/13/1 16/16/1 18/18/1
f 19/19/1 20/20/1 21/21/1 22/22/1
f 23/23/1 24/24/1 25/25/1 26/26/1
f 27/27/1 28/28/1 29/29/1 30/30/1
f 31/31/1 32/32/1 33/33/1 34/34/1
f 35/35/1 36/36/1 37/37/1 38/38/1
f 39/39/1 40/40/1 41/41/1 42/42/1
f 43/43/1 39/39/1 42/42/1 44/44/1
f 45/45/1 46/46/1 47/47/1 48/48/1
f 49/49/1 47/50/1 50/51/1 51/52/1
f 52/53/1 53/54/1 54/55/1 55/56/1
f 56/57/1 52/53/1 55/56/1 57/58/1
f 58/59/1 59/60/1 60/61/1 61/62/1
f 58/59/1 61/62/1 62/63/1 63/64/1
f 64/65/1 65/66/1 66/67/1 67/68/1
f 68/69/1 64/65/1 67/68/1 69/70/1
f 70/71/1 71/72/1 72/73/1 73/74/1
f 73/74/1 74/75/1 75/76/1 76/77/1
f 77/78/1 78/79/1 79/80/1 80/81/1
f 79/80/1 81/82/1 80/81/1
f 82/83/1 77/78/1 80/81/1 83/84/1
f 80/81/1 84/85/1 83/84/1
f 85/86/1 86/87/1 87/88/1 88/89/1
f 88/89/1 89/90/1 90/91/1 91/92/1
f 92/93/1 87/94/1 93/95/1 94/96/1
f 95/97/1 96/98/1 97/99/1 98/100/1
f 99/101/1 98/100/1 97/99/1 100/102/1
f 97/99/1 101/103/1 100/102/1
f 100/102/1 102/104/1 99/101/1
f 95/97/1 98/100/1 103/105/1 104/106/1
f 105/107/1 106/108/1 107/109/1 108/110/1
f 109/111/1 105/107/1 108/110/1 110/112/1
