# Blender v2.78 (sub 0) OBJ File: ''
# www.blender.org
mtllib CityEngineMaterial_657.mtl
o CityEngineMaterial_657
v -341.360199 1.456877 138.207703
v -342.218689 1.456981 116.660400
v -342.218689 3.436781 116.660400
v -341.360199 3.436778 138.207703
v -354.174408 1.456981 117.147499
v -354.174408 3.436781 117.147499
v -353.296112 1.456977 138.675598
v -353.296112 3.436777 138.675598
v -425.988312 1.934981 115.160698
v -413.257294 1.934981 114.709503
v -413.257294 3.855881 114.709503
v -425.988312 3.855881 115.160698
v -413.426086 1.934982 109.999901
v -413.426086 3.855882 109.999901
v -422.795807 1.934982 110.332001
v -422.795807 3.855882 110.332001
v -422.751404 1.934982 111.570801
v -422.751404 3.855882 111.570801
v -426.108398 1.934982 111.689796
v -426.108398 3.855882 111.689796
v -58.442200 40.699043 -888.159424
v -60.514702 40.699043 -901.390015
v -60.514702 42.229046 -901.390015
v -58.442200 42.229046 -888.159424
v -70.770500 40.699043 -899.784119
v -70.770500 42.229046 -899.784119
v -70.168098 40.699043 -895.937683
v -70.168098 42.229046 -895.937683
v -66.159599 40.699043 -896.565430
v -66.159599 42.229046 -896.565430
v -65.428497 40.699043 -891.897888
v -65.428497 42.229046 -891.897888
v -69.437202 40.699043 -891.270203
v -69.437202 42.229046 -891.270203
v -68.698601 40.699043 -886.553894
v -68.698601 42.229046 -886.553894
v 204.013504 48.750397 -585.550171
v 206.095993 48.750393 -572.337097
v 206.095993 50.894390 -572.337097
v 204.013504 50.894394 -585.550171
v 223.694504 48.750397 -575.110901
v 223.694504 50.894394 -575.110901
v 220.197205 48.750397 -588.084595
v 220.197205 50.894394 -588.084595
v -308.325989 1.313898 13.286700
v -296.030792 1.313898 10.833600
v -296.030792 3.398098 10.833601
v -308.325989 3.398098 13.286701
v -299.154388 1.313901 -7.939000
v -299.154388 3.398101 -7.939000
v -310.613892 1.313901 -6.039900
v -310.613892 3.398101 -6.039899
v -191.360992 1.931190 672.303284
v -191.695496 1.931190 674.769592
v -191.695496 4.074290 674.769592
v -191.360992 4.074390 672.303284
v -185.103607 1.931190 675.663513
v -185.103607 4.074290 675.663513
v -183.699203 1.931192 665.307922
v -183.699203 4.074392 665.307922
v 585.155029 22.420612 537.863770
v 585.869080 22.420612 539.742981
v 585.869080 24.478712 539.742981
v 585.155029 24.478712 537.863770
v 583.842285 22.420612 540.513184
v 583.842285 24.478712 540.513184
v 587.018494 22.420610 548.870911
v 587.018494 24.478710 548.870911
v 596.529785 22.420610 545.256470
v 596.529785 24.478710 545.256470
v 593.145020 22.420612 536.349304
v 593.145020 24.478712 536.349304
v 592.160400 22.420612 536.395691
v 592.160400 24.478712 536.395691
v -222.009796 2.468175 769.588806
v -218.826996 2.468175 766.642212
v -218.826996 4.580275 766.642212
v -222.009796 4.580275 769.588806
v -224.521301 2.468176 760.481018
v -224.521301 4.580276 760.481018
v -225.337799 2.468176 761.236816
v -225.337799 4.580276 761.236816
v -231.347900 2.468177 754.733887
v -231.347900 4.580277 754.733887
v -233.714600 2.468177 756.924377
v -233.714600 4.580276 756.924377
v -588.419189 3.166564 223.707199
v -589.077820 3.166564 223.781601
v -589.077820 5.222464 223.781601
v -588.419189 5.222464 223.707199
v -588.812683 3.166563 226.783600
v -588.812683 5.222463 226.783600
v -579.322876 3.166563 225.711899
v -579.322876 5.222463 225.711899
v -580.417114 3.166565 213.322906
v -580.417114 5.222465 213.322906
v -589.927185 3.166565 214.162796
v -589.927185 5.222465 214.162796
v -589.648682 3.166564 217.316299
v -589.648682 5.222465 217.316299
v -588.988708 3.166565 217.257996
v -588.988708 5.222465 217.257996
v 162.813995 26.069818 -120.759689
v 159.484802 26.069822 -136.577301
v 159.484802 28.391523 -136.577301
v 162.813995 28.391520 -120.759689
v 140.946198 26.069820 -134.540405
v 140.946198 28.391521 -134.540405
v 140.826004 26.069818 -118.353493
v 140.826004 28.391520 -118.353493
v 4.680100 2.548966 208.446503
v 9.599800 2.548964 223.938904
v 9.599800 4.668363 223.938904
v 4.680100 4.668366 208.446503
v 30.571301 2.548965 218.058807
v 30.571301 4.668364 218.058807
v 26.195000 2.548967 202.395004
v 26.195000 4.668367 202.395004
v 936.050415 105.813339 -217.446991
v 939.627197 105.813339 -218.000580
v 939.627197 107.422440 -218.000580
v 936.050415 107.422440 -217.446991
v 939.980103 105.813339 -215.695984
v 939.980103 107.422440 -215.695984
v 950.514771 105.813339 -217.193283
v 950.514771 107.422440 -217.193283
v 949.615479 105.813339 -223.065491
v 949.615479 107.422440 -223.065491
v 935.533081 105.813339 -220.885681
v 935.533081 107.422440 -220.885681
v -499.601105 4.791517 508.669098
v -499.764587 4.791515 522.421875
v -499.764587 6.814315 522.421875
v -499.601105 6.814317 508.669098
v -495.407806 4.791515 523.001770
v -495.407806 6.814315 523.001770
v -492.403198 4.791515 523.038574
v -492.403198 6.814315 523.038574
v -492.322113 4.791516 516.234009
v -492.322113 6.814316 516.234009
v -492.711792 4.791516 516.229187
v -492.711792 6.814316 516.229187
v -492.635010 4.791517 509.772400
v -492.635010 6.814317 509.772400
v -108.456001 37.350567 -1032.879883
v -107.763901 37.350567 -1028.458374
v -107.763901 38.642269 -1028.458374
v -108.456001 38.642269 -1032.879883
v -113.703903 37.350567 -1027.527466
v -113.703903 38.642269 -1027.527466
v -113.013397 37.350567 -1023.115479
v -113.013397 38.642269 -1023.115479
v -102.102600 37.350567 -1024.825562
v -102.102600 38.642269 -1024.825562
v -104.108803 37.350567 -1037.642578
v -104.108803 38.642269 -1037.642578
v -115.018402 37.350567 -1035.926880
v -115.018402 38.642269 -1035.926880
v -114.395302 37.350567 -1031.945923
v -114.395302 38.642269 -1031.945923
v 5.083100 34.311893 -1199.058350
v 7.758900 34.311893 -1199.499634
v 7.758900 35.843693 -1199.499634
v 5.083100 35.843693 -1199.058350
v 7.103200 34.311893 -1203.913208
v 7.103200 35.843693 -1203.913208
v 10.618500 34.311893 -1204.493164
v 10.618500 35.843693 -1204.493164
v 11.272800 34.311893 -1200.079224
v 11.272800 35.843693 -1200.079224
v 14.703300 34.311893 -1200.645264
v 14.703300 35.843693 -1200.645264
v 13.407800 34.311897 -1209.385620
v 13.407800 35.843697 -1209.385620
v 3.784600 34.311897 -1207.798340
v 3.784600 35.843697 -1207.798340
v -364.609589 1.313886 87.787201
v -358.638611 1.313886 85.301697
v -358.638611 3.479986 85.301697
v -364.609589 3.479986 87.787201
v -353.738403 1.313886 83.583099
v -353.738403 3.479986 83.583099
v -348.740204 1.313887 82.361000
v -348.740204 3.479987 82.361000
v -347.948914 1.313887 82.226196
v -347.948914 3.479987 82.226196
v -355.884705 1.313890 63.162201
v -355.884705 3.479990 63.162201
v -361.483612 1.313890 63.633099
v -361.483612 3.479990 63.633099
v -362.817810 1.313890 64.188499
v -362.817810 3.479990 64.188499
v -362.696014 1.313889 69.407097
v -362.696014 3.479989 69.407097
v -362.811798 1.313888 75.130898
v -362.811798 3.479988 75.130898
v -363.308105 1.313887 80.851898
v -363.308105 3.479987 80.851898
v -364.318298 1.313886 86.532997
v -364.318298 3.479986 86.532997
v -392.660400 7.277535 1011.054016
v -393.169800 7.277534 1017.820374
v -393.169800 9.311334 1017.820374
v -392.660400 9.311335 1011.054016
v -394.641205 7.277534 1017.708984
v -394.641205 9.311334 1017.708984
v -394.787415 7.277534 1019.651001
v -394.787415 9.311334 1019.651001
v -386.559509 7.277534 1020.274170
v -386.559509 9.311334 1020.274170
v -385.903900 7.277535 1011.565674
v -385.903900 9.311335 1011.565674
v -576.228210 6.884005 584.039185
v -576.151672 6.884005 581.518982
v -576.151672 8.939006 581.518982
v -576.228210 8.939005 584.039185
v -575.558716 6.884005 581.537720
v -575.558716 8.939006 581.537720
v -575.505188 6.884006 579.780518
v -575.505188 8.939006 579.780518
v -581.634277 6.884006 579.588928
v -581.634277 8.939006 579.588928
v -581.814819 6.884005 585.532471
v -581.814819 8.939005 585.532471
v -575.696899 6.884005 586.080200
v -575.696899 8.939005 586.080200
v -575.636414 6.884005 584.092224
v -575.636414 8.939005 584.092224
vt 0.7500 0.0000
vt 4.5000 0.0000
vt 4.5000 1.0000
vt 0.7500 1.0000
vt 0.5000 0.0000
vt 2.5000 -0.0000
vt 2.5000 1.0000
vt 0.5000 1.0000
vt 0.7500 0.0000
vt 4.5000 0.0000
vt 4.5000 1.0000
vt 0.7500 1.0000
vt 0.7500 0.0000
vt 2.7500 0.0000
vt 2.7500 1.0000
vt 0.7500 1.0000
vt 0.7500 0.0000
vt 3.7500 0.0000
vt 3.7500 1.0000
vt 0.7500 1.0000
vt 0.5000 0.0000
vt 1.7500 -0.0000
vt 1.7500 1.0000
vt 0.5000 1.0000
vt 0.2500 0.0000
vt 2.5000 -0.0000
vt 2.5000 1.0000
vt 0.2500 1.0000
vt 0.5000 0.0000
vt 0.7500 0.0000
vt 0.7500 1.0000
vt 0.5000 1.0000
vt 0.5000 0.0000
vt 1.2500 0.0000
vt 1.2500 1.0000
vt 0.5000 1.0000
vt -0.0000 0.0000
vt -0.0000 1.0000
vt 0.5000 0.0000
vt 3.0000 -0.0000
vt 3.0000 1.0000
vt 0.5000 1.0000
vt 0.2500 0.0000
vt 2.2500 -0.0000
vt 2.2500 1.0000
vt 0.2500 1.0000
vt 0.5000 0.0000
vt 1.2500 0.0000
vt 1.2500 1.0000
vt 0.5000 1.0000
vt 0.7500 0.0000
vt 1.5000 0.0000
vt 1.5000 1.0000
vt 0.7500 1.0000
vt 0.5000 0.0000
vt 1.2500 0.0000
vt 1.2500 1.0000
vt 0.5000 1.0000
vt 0.5000 0.0000
vt 1.2500 0.0000
vt 1.2500 1.0000
vt 0.5000 1.0000
vt -0.0000 0.0000
vt 1.0000 -0.0000
vt 1.0000 1.0000
vt -0.0000 1.0000
vt 0.2500 0.0000
vt 2.2500 -0.0000
vt 2.2500 1.0000
vt 0.2500 1.0000
vt 0.2500 0.0000
vt 4.0000 0.0000
vt 4.0000 1.0000
vt 0.2500 1.0000
vt 0.7500 0.0000
vt 5.7500 -0.0000
vt 5.7500 1.0000
vt 0.7500 1.0000
vt 0.2500 0.0000
vt 4.0000 0.0000
vt 4.0000 1.0000
vt 0.2500 1.0000
vt 0.2500 0.0000
vt 5.0000 -0.0000
vt 5.0000 1.0000
vt 0.2500 1.0000
vt 0.2500 0.0000
vt 3.2500 -0.0000
vt 3.2500 1.0000
vt 0.2500 1.0000
vt 0.5000 0.0000
vt 5.0000 -0.0000
vt 5.0000 1.0000
vt 0.5000 1.0000
vt -0.0000 0.0000
vt 2.7500 0.0000
vt 2.7500 1.0000
vt -0.0000 1.0000
vt 0.5000 0.0000
vt 5.2500 0.0000
vt 5.2500 1.0000
vt 0.5000 1.0000
vt -0.0000 0.0000
vt 0.5000 0.0000
vt 0.5000 1.0000
vt -0.0000 1.0000
vt -0.0000 0.0000
vt 1.2500 0.0000
vt 1.2500 1.0000
vt -0.0000 1.0000
vt 0.2500 0.0000
vt 2.2500 -0.0000
vt 2.2500 1.0000
vt 0.2500 1.0000
vt 0.5000 0.0000
vt 2.5000 -0.0000
vt 2.5000 1.0000
vt 0.5000 1.0000
vt 0.5000 0.0000
vt 1.0000 -0.0000
vt 1.0000 1.0000
vt 0.5000 1.0000
vt 0.5000 0.0000
vt 1.0000 -0.0000
vt 1.0000 1.0000
vt 0.5000 1.0000
vt 0.5000 0.0000
vt 2.2500 -0.0000
vt 2.2500 1.0000
vt 0.5000 1.0000
vt 0.2500 0.0000
vt 2.2500 -0.0000
vt 2.2500 1.0000
vt 0.2500 1.0000
vt 0.7500 0.0000
vt 2.7500 0.0000
vt 2.7500 1.0000
vt 0.7500 1.0000
vt 0.7500 0.0000
vt 1.0000 -0.0000
vt 1.0000 1.0000
vt 0.7500 1.0000
vt 0.5000 0.0000
vt 2.0000 0.0000
vt 2.0000 1.0000
vt 0.5000 1.0000
vt 0.2500 0.0000
vt 1.2500 0.0000
vt 1.2500 1.0000
vt 0.2500 1.0000
vt 0.2500 0.0000
vt 2.0000 0.0000
vt 2.0000 1.0000
vt 0.2500 1.0000
vt 0.7500 0.0000
vt 1.0000 -0.0000
vt 1.0000 1.0000
vt 0.7500 1.0000
vt 0.7500 0.0000
vt 2.5000 -0.0000
vt 2.5000 1.0000
vt 0.7500 1.0000
vt 0.7500 0.0000
vt 1.5000 0.0000
vt 1.5000 1.0000
vt 0.7500 1.0000
vt 0.7500 0.0000
vt 4.5000 0.0000
vt 4.5000 1.0000
vt 0.7500 1.0000
vt -0.0000 0.0000
vt 0.2500 0.0000
vt 0.2500 1.0000
vt -0.0000 1.0000
vt 0.7500 0.0000
vt 1.5000 0.0000
vt 1.5000 1.0000
vt 0.7500 1.0000
vt 0.2500 0.0000
vt 2.2500 -0.0000
vt 2.2500 1.0000
vt 0.2500 1.0000
vt -0.0000 0.0000
vt 2.5000 -0.0000
vt 2.5000 1.0000
vt -0.0000 1.0000
vt 0.2500 0.0000
vt 2.2500 -0.0000
vt 2.2500 1.0000
vt 0.2500 1.0000
vt 0.5000 0.0000
vt 1.2500 0.0000
vt 1.2500 1.0000
vt 0.5000 1.0000
vt -0.0000 0.0000
vt 0.2500 0.0000
vt 0.2500 1.0000
vt -0.0000 1.0000
vt 1.5000 0.0000
vt 1.5000 1.0000
vt 0.5000 0.0000
vt 3.7500 0.0000
vt 3.7500 1.0000
vt 0.5000 1.0000
vt 0.2500 0.0000
vt 4.0000 0.0000
vt 4.0000 1.0000
vt 0.2500 1.0000
vt 0.5000 0.0000
vt 3.7500 0.0000
vt 3.7500 1.0000
vt 0.5000 1.0000
vt 0.5000 0.0000
vt 5.0000 -0.0000
vt 5.0000 1.0000
vt 0.5000 1.0000
vt -0.0000 0.0000
vt 3.2500 -0.0000
vt 3.2500 1.0000
vt -0.0000 1.0000
vt 0.5000 0.0000
vt 4.7500 0.0000
vt 4.7500 1.0000
vt 0.5000 1.0000
vt -0.0000 0.0000
vt 3.2500 -0.0000
vt 3.2500 1.0000
vt -0.0000 1.0000
vt -0.0000 0.0000
vt 4.2500 -0.0000
vt 4.2500 1.0000
vt -0.0000 1.0000
vt -0.0000 0.0000
vt 0.7500 0.0000
vt 0.7500 1.0000
vt -0.0000 1.0000
vt -0.0000 0.0000
vt 0.5000 0.0000
vt 0.5000 1.0000
vt -0.0000 1.0000
vt 2.5000 -0.0000
vt 2.5000 1.0000
vt 0.5000 0.0000
vt 1.7500 -0.0000
vt 1.7500 1.0000
vt 0.5000 1.0000
vt 0.7500 0.0000
vt 3.5000 0.0000
vt 3.5000 1.0000
vt 0.7500 1.0000
vt 0.5000 0.0000
vt 1.2500 0.0000
vt 1.2500 1.0000
vt 0.5000 1.0000
vt -0.0000 0.0000
vt 2.7500 0.0000
vt 2.7500 1.0000
vt -0.0000 1.0000
vt 0.2500 0.0000
vt 1.2500 0.0000
vt 1.2500 1.0000
vt 0.2500 1.0000
vt 0.2500 0.0000
vt 0.7500 0.0000
vt 0.7500 1.0000
vt 0.2500 1.0000
vt 0.2500 0.0000
vt 1.7500 -0.0000
vt 1.7500 1.0000
vt 0.2500 1.0000
vt -0.0000 0.0000
vt 0.0500 0.0000
vt 0.0500 1.0000
vt -0.0000 1.0000
vt -0.0000 0.0000
vt 1.2500 0.0000
vt 1.2500 1.0000
vt -0.0000 1.0000
vt 0.2500 0.0000
vt 1.7500 -0.0000
vt 1.7500 1.0000
vt 0.2500 1.0000
vt 0.5000 0.0000
vt 1.5000 0.0000
vt 1.5000 1.0000
vt 0.5000 1.0000
vt 0.2500 0.0000
vt 1.5000 0.0000
vt 1.5000 1.0000
vt 0.2500 1.0000
vt -0.0000 0.0000
vt 0.7500 0.0000
vt 0.7500 1.0000
vt -0.0000 1.0000
vt 0.2500 0.0000
vt 2.5000 -0.0000
vt 2.5000 1.0000
vt 0.2500 1.0000
vt 0.5000 0.0000
vt 3.0000 -0.0000
vt 3.0000 1.0000
vt 0.5000 1.0000
vt 0.2500 0.0000
vt 2.5000 -0.0000
vt 2.5000 1.0000
vt 0.2500 1.0000
vt -0.0000 0.0000
vt 0.7500 0.0000
vt 0.7500 1.0000
vt -0.0000 1.0000
vt 2.0000 0.0000
vt 2.0000 1.0000
vt 0.2500 0.0000
vt 0.7500 0.0000
vt 0.7500 1.0000
vt 0.2500 1.0000
vt 0.5000 0.0000
vt 1.5000 0.0000
vt 1.5000 1.0000
vt 0.5000 1.0000
vt 0.5000 0.0000
vt 1.2500 0.0000
vt 1.2500 1.0000
vt 0.5000 1.0000
vt 0.2500 0.0000
vt 1.2500 0.0000
vt 1.2500 1.0000
vt 0.2500 1.0000
vt 0.5000 0.0000
vt 1.2500 0.0000
vt 1.2500 1.0000
vt 0.5000 1.0000
vt -0.0000 0.0000
vt 2.0000 0.0000
vt 2.0000 1.0000
vt -0.0000 1.0000
vt 0.5000 0.0000
vt 2.5000 -0.0000
vt 2.5000 1.0000
vt 0.5000 1.0000
vt 0.2500 0.0000
vt 2.2500 -0.0000
vt 2.2500 1.0000
vt 0.2500 1.0000
vt 0.2500 0.0000
vt 2.0000 0.0000
vt 2.0000 1.0000
vt 0.2500 1.0000
vt 0.5000 0.0000
vt 2.0000 0.0000
vt 2.0000 1.0000
vt 0.5000 1.0000
vt 0.5000 0.0000
vt 2.0000 0.0000
vt 2.0000 1.0000
vt 0.5000 1.0000
vt 0.7500 0.0000
vt 1.0000 -0.0000
vt 1.0000 1.0000
vt 0.7500 1.0000
vt 0.7500 0.0000
vt 6.7500 0.0000
vt 6.7500 1.0000
vt 0.7500 1.0000
vt 0.7500 0.0000
vt 2.2500 -0.0000
vt 2.2500 1.0000
vt 0.7500 1.0000
vt 0.7500 0.0000
vt 1.2500 0.0000
vt 1.2500 1.0000
vt 0.7500 1.0000
vt 0.2500 0.0000
vt 1.7500 -0.0000
vt 1.7500 1.0000
vt 0.2500 1.0000
vt -0.0000 0.0000
vt 1.7500 -0.0000
vt 1.7500 1.0000
vt -0.0000 1.0000
vt 0.2500 0.0000
vt 2.0000 0.0000
vt 2.0000 1.0000
vt 0.2500 1.0000
vt 0.5000 0.0000
vt 2.2500 -0.0000
vt 2.2500 1.0000
vt 0.5000 1.0000
vt 0.5000 0.0000
vt 0.7500 0.0000
vt 0.7500 1.0000
vt 0.5000 1.0000
vt 0.5000 0.0000
vt 1.7500 -0.0000
vt 1.7500 1.0000
vt 0.5000 1.0000
vt 0.2500 0.0000
vt 0.5000 0.0000
vt 0.5000 1.0000
vt 0.2500 1.0000
vt 0.2500 0.0000
vt 0.5000 0.0000
vt 0.5000 1.0000
vt 0.2500 1.0000
vt 2.0000 0.0000
vt 2.0000 1.0000
vt 0.7500 0.0000
vt 2.2500 -0.0000
vt 2.2500 1.0000
vt 0.7500 1.0000
vt 0.5000 0.0000
vt 1.7500 -0.0000
vt 1.7500 1.0000
vt 0.5000 1.0000
vt -0.0000 0.0000
vt 0.5000 0.0000
vt 0.5000 1.0000
vt -0.0000 1.0000
vt 0.2500 0.0000
vt 0.3000 0.0000
vt 0.3000 1.0000
vt 0.2500 1.0000
vt 0.2500 0.0000
vt 0.5000 0.0000
vt 0.5000 1.0000
vt 0.2500 1.0000
vt 0.2500 0.0000
vt 1.2500 0.0000
vt 1.2500 1.0000
vt 0.2500 1.0000
vt 0.2500 0.0000
vt 1.2500 0.0000
vt 1.2500 1.0000
vt 0.2500 1.0000
vt 0.7500 0.0000
vt 1.7500 -0.0000
vt 1.7500 1.0000
vt 0.7500 1.0000
vt 0.7500 0.0000
vt 1.0000 -0.0000
vt 1.0000 1.0000
vt 0.7500 1.0000
vt 0.2500 0.0000
vt 0.3000 0.0000
vt 0.3000 1.0000
vt 0.2500 1.0000
vn 0.9992 0.0000 -0.0398
vn -0.0407 0.0000 -0.9992
vn -0.9992 0.0000 0.0408
vn 0.0392 0.0000 0.9992
vn 0.0354 0.0000 0.9994
vn 0.9994 0.0000 -0.0358
vn -0.0354 0.0000 -0.9994
vn -0.9994 0.0000 0.0358
vn -0.9994 0.0000 0.0346
vn 0.9880 0.0000 -0.1548
vn -0.1547 0.0000 -0.9880
vn -0.9880 0.0000 0.1547
vn 0.1547 0.0000 0.9880
vn -0.9878 0.0000 0.1557
vn 0.1557 0.0000 0.9878
vn 0.9655 0.0000 -0.2603
vn 0.1957 0.0000 0.9807
vn 0.9864 -0.0000 -0.1641
vn -0.1635 0.0000 -0.9865
vn -0.9931 0.0000 0.1176
vn -0.9909 0.0000 -0.1344
vn -0.1344 0.0000 0.9909
vn 0.9909 0.0000 0.1344
vn -0.6743 0.0000 -0.7385
vn -0.9348 0.0000 0.3552
vn -0.3552 0.0000 -0.9348
vn 0.3552 0.0000 0.9348
vn 0.9348 0.0000 -0.3552
vn -0.0471 0.0000 -0.9989
vn -0.2051 0.0000 -0.9787
vn 0.6794 0.0000 0.7338
vn 0.7344 0.0000 -0.6787
vn -0.6793 0.0000 -0.7339
vn -0.7344 0.0000 0.6787
vn -0.1122 0.0000 -0.9937
vn -0.9961 0.0000 0.0880
vn 0.1122 0.0000 0.9937
vn 0.9961 0.0000 -0.0880
vn -0.0880 0.0000 -0.9961
vn 0.0880 0.0000 0.9961
vn 0.9786 0.0000 -0.2060
vn -0.1092 0.0000 -0.9940
vn -1.0000 0.0000 -0.0074
vn 0.1088 0.0000 0.9941
vn -0.9531 0.0000 0.3027
vn 0.2700 0.0000 0.9629
vn 0.9631 0.0000 -0.2691
vn -0.2708 0.0000 -0.9626
vn 0.1530 0.0000 0.9882
vn -0.9885 0.0000 0.1514
vn 0.1407 0.0000 0.9901
vn 0.9885 0.0000 -0.1514
vn -0.1530 0.0000 -0.9882
vn -0.9889 0.0000 0.1488
vn -0.9999 0.0000 -0.0119
vn -0.1319 0.0000 0.9913
vn -0.0123 0.0000 0.9999
vn 0.9999 0.0000 0.0119
vn 0.0124 0.0000 -0.9999
vn 0.1564 0.0000 -0.9877
vn -0.9880 0.0000 0.1546
vn -0.1548 0.0000 -0.9879
vn 0.1548 0.0000 0.9879
vn 0.9880 0.0000 -0.1546
vn -0.1554 0.0000 -0.9879
vn 0.1553 0.0000 0.9879
vn 0.1627 0.0000 0.9867
vn 0.9891 0.0000 -0.1470
vn 0.1628 0.0000 0.9867
vn -0.9892 0.0000 0.1466
vn 0.9892 0.0000 -0.1466
vn -0.1627 0.0000 -0.9867
vn -0.9891 0.0000 0.1470
vn 0.3843 0.0000 0.9232
vn 0.3310 0.0000 0.9436
vn 0.2375 0.0000 0.9714
vn 0.1679 0.0000 0.9858
vn 0.9232 0.0000 -0.3843
vn -0.0838 0.0000 -0.9965
vn -0.3843 0.0000 -0.9232
vn -0.9997 0.0000 0.0233
vn -0.9998 0.0000 -0.0202
vn -0.9963 0.0000 -0.0864
vn -0.9846 0.0000 -0.1751
vn -0.9741 0.0000 -0.2262
vn -0.9972 0.0000 -0.0751
vn 0.0755 0.0000 -0.9971
vn -0.0755 0.0000 0.9971
vn 0.9972 0.0000 0.0751
vn 0.9995 0.0000 0.0304
vn -0.0315 0.0000 0.9995
vn 0.0312 0.0000 -0.9995
vn -0.9995 0.0000 -0.0304
vn -0.0892 0.0000 0.9960
vn 0.0893 0.0000 -0.9960
g CityEngineMaterial_657_CityEngineMaterial_657_CityEngineMaterial_657_mat
usemtl CityEngineMaterial_657_mat
s 1
f 1/1/1 2/2/1 3/3/1 4/4/1
f 2/5/2 5/6/2 6/7/2 3/8/2
f 5/9/3 7/10/3 8/11/3 6/12/3
f 7/13/4 1/14/4 4/15/4 8/16/4
f 9/17/5 10/18/5 11/19/5 12/20/5
f 10/21/6 13/22/6 14/23/6 11/24/6
f 13/25/7 15/26/7 16/27/7 14/28/7
f 15/29/8 17/30/8 18/31/8 16/32/8
f 17/33/7 19/34/7 20/35/7 18/36/7
f 19/37/9 9/17/9 12/20/9 20/38/9
f 21/39/10 22/40/10 23/41/10 24/42/10
f 22/43/11 25/44/11 26/45/11 23/46/11
f 25/47/12 27/48/12 28/49/12 26/50/12
f 27/51/13 29/52/13 30/53/13 28/54/13
f 29/55/12 31/56/12 32/57/12 30/58/12
f 31/59/11 33/60/11 34/61/11 32/62/11
f 33/63/12 35/64/12 36/65/12 34/66/12
f 35/67/13 21/68/13 24/69/13 36/70/13
f 37/71/14 38/72/14 39/73/14 40/74/14
f 38/75/15 41/76/15 42/77/15 39/78/15
f 41/79/16 43/80/16 44/81/16 42/82/16
f 43/83/11 37/84/11 40/85/11 44/86/11
f 45/87/17 46/88/17 47/89/17 48/90/17
f 46/91/18 49/92/18 50/93/18 47/94/18
f 49/95/19 51/96/19 52/97/19 50/98/19
f 51/99/20 45/100/20 48/101/20 52/102/20
f 53/103/21 54/104/21 55/105/21 56/106/21
f 54/107/22 57/108/22 58/109/22 55/110/22
f 57/111/23 59/112/23 60/113/23 58/114/23
f 59/115/24 53/116/24 56/117/24 60/118/24
f 61/119/25 62/120/25 63/121/25 64/122/25
f 62/123/26 65/124/26 66/125/26 63/126/26
f 65/127/25 67/128/25 68/129/25 66/130/25
f 67/131/27 69/132/27 70/133/27 68/134/27
f 69/135/28 71/136/28 72/137/28 70/138/28
f 71/139/29 73/140/29 74/141/29 72/142/29
f 73/143/30 61/144/30 64/145/30 74/146/30
f 75/147/31 76/148/31 77/149/31 78/150/31
f 76/151/32 79/152/32 80/153/32 77/154/32
f 79/155/33 81/156/33 82/157/33 80/158/33
f 81/159/32 83/160/32 84/161/32 82/162/32
f 83/163/33 85/164/33 86/165/33 84/166/33
f 85/167/34 75/168/34 78/169/34 86/170/34
f 87/171/35 88/172/35 89/173/35 90/174/35
f 88/175/36 91/176/36 92/177/36 89/178/36
f 91/179/37 93/180/37 94/181/37 92/182/37
f 93/183/38 95/184/38 96/185/38 94/186/38
f 95/187/39 97/188/39 98/189/39 96/190/39
f 97/191/36 99/192/36 100/193/36 98/194/36
f 99/195/40 101/196/40 102/197/40 100/198/40
f 101/196/36 87/199/36 90/200/36 102/197/36
f 103/201/41 104/202/41 105/203/41 106/204/41
f 104/205/42 107/206/42 108/207/42 105/208/42
f 107/209/43 109/210/43 110/211/43 108/212/43
f 109/213/44 103/214/44 106/215/44 110/216/44
f 111/217/45 112/218/45 113/219/45 114/220/45
f 112/221/46 115/222/46 116/223/46 113/224/46
f 115/225/47 117/226/47 118/227/47 116/228/47
f 117/229/48 111/230/48 114/231/48 118/232/48
f 119/233/49 120/234/49 121/235/49 122/236/49
f 120/237/50 123/238/50 124/239/50 121/240/50
f 123/238/51 125/241/51 126/242/51 124/239/51
f 125/243/52 127/244/52 128/245/52 126/246/52
f 127/247/53 129/248/53 130/249/53 128/250/53
f 129/251/54 119/252/54 122/253/54 130/254/54
f 131/255/55 132/256/55 133/257/55 134/258/55
f 132/259/56 135/260/56 136/261/56 133/262/56
f 135/263/57 137/264/57 138/265/57 136/266/57
f 137/267/58 139/268/58 140/269/58 138/270/58
f 139/271/59 141/272/59 142/273/59 140/274/59
f 141/275/58 143/276/58 144/277/58 142/278/58
f 143/279/60 131/280/60 134/281/60 144/282/60
f 145/283/61 146/284/61 147/285/61 148/286/61
f 146/287/62 149/288/62 150/289/62 147/290/62
f 149/291/61 151/292/61 152/293/61 150/294/61
f 151/295/63 153/296/63 154/297/63 152/298/63
f 153/299/64 155/300/64 156/301/64 154/302/64
f 155/303/65 157/304/65 158/305/65 156/306/65
f 157/307/61 159/308/61 160/309/61 158/310/61
f 159/308/66 145/311/66 148/312/66 160/309/66
f 161/313/67 162/314/67 163/315/67 164/316/67
f 162/317/68 165/318/68 166/319/68 163/320/68
f 165/321/69 167/322/69 168/323/69 166/324/69
f 167/325/70 169/326/70 170/327/70 168/328/70
f 169/329/69 171/330/69 172/331/69 170/332/69
f 171/333/71 173/334/71 174/335/71 172/336/71
f 173/337/72 175/338/72 176/339/72 174/340/72
f 175/341/73 161/342/73 164/343/73 176/344/73
f 177/345/74 178/346/74 179/347/74 180/348/74
f 178/349/75 181/350/75 182/351/75 179/352/75
f 181/353/76 183/354/76 184/355/76 182/356/76
f 183/357/77 185/358/77 186/359/77 184/360/77
f 185/361/78 187/362/78 188/363/78 186/364/78
f 187/365/79 189/366/79 190/367/79 188/368/79
f 189/369/80 191/370/80 192/371/80 190/372/80
f 191/373/81 193/374/81 194/375/81 192/376/81
f 193/377/82 195/378/82 196/379/82 194/380/82
f 195/381/83 197/382/83 198/383/83 196/384/83
f 197/385/84 199/386/84 200/387/84 198/388/84
f 199/389/85 177/390/85 180/391/85 200/392/85
f 201/393/86 202/394/86 203/395/86 204/396/86
f 202/397/87 205/398/87 206/399/87 203/400/87
f 205/401/86 207/402/86 208/403/86 206/404/86
f 207/402/88 209/405/88 210/406/88 208/403/88
f 209/407/89 211/408/89 212/409/89 210/410/89
f 211/411/87 201/412/87 204/413/87 212/414/87
f 213/415/90 214/416/90 215/417/90 216/418/90
f 214/419/91 217/420/91 218/421/91 215/422/91
f 217/423/90 219/424/90 220/425/90 218/426/90
f 219/427/92 221/428/92 222/429/92 220/430/92
f 221/431/93 223/432/93 224/433/93 222/434/93
f 223/435/94 225/436/94 226/437/94 224/438/94
f 225/439/90 227/440/90 228/441/90 226/442/90
f 227/443/95 213/444/95 216/445/95 228/446/95
