# Blender v2.78 (sub 0) OBJ File: ''
# www.blender.org
mtllib CityEngineMaterial_32.mtl
o CityEngineMaterial_32
v -237.313095 5.967363 224.335602
v -223.134003 5.967364 221.890106
v -225.651703 5.967366 208.228806
v -239.791306 5.967366 210.822098
v -226.111603 32.660965 222.403702
v -228.623505 32.660965 208.773895
v -236.819397 32.660965 210.276993
v -234.335495 32.660961 223.822098
v -223.386002 17.209164 220.522705
v -225.399704 17.209166 209.596100
v -239.540405 17.209166 212.189697
v -237.563995 17.209164 222.968002
v -235.843201 40.669067 211.383102
v -233.813904 40.669064 222.449493
v -227.090393 40.669067 221.289795
v -229.142593 40.669067 210.154205
v -238.067596 25.078466 212.950500
v -236.454300 25.078465 221.747803
v -224.862198 25.078465 219.748398
v -226.505798 25.078466 210.829803
v -227.890396 42.637566 220.380402
v -229.567200 42.637566 211.281403
v -235.045303 42.637566 212.286102
v -233.387100 42.637566 221.328506
v -226.068802 37.931667 219.117599
v -227.410706 37.931667 211.836197
v -236.863907 37.931667 213.570099
v -235.546799 37.931667 220.752304
v -235.879700 41.787567 214.076599
v -234.804596 41.787567 219.938705
v -227.055206 41.787567 218.602203
v -228.150497 41.787567 212.658905
v -230.714600 43.247665 217.992599
v -233.416199 43.247665 218.458603
v -232.993393 43.247665 220.764297
v -228.460999 43.247665 219.982498
v -231.784897 43.247665 212.185394
v -229.959702 43.247665 211.850693
v -227.861496 43.756065 218.182205
v -228.755707 43.756065 213.330002
v -235.075302 43.756065 214.488998
v -234.197601 43.756065 219.274994
v -233.492996 44.302364 215.580902
v -233.103104 44.302364 217.706802
v -229.447601 44.302364 217.076294
v -230.753998 44.302364 216.002808
v -229.679596 44.302364 215.817398
v -230.918106 44.302364 215.108597
v -34.455601 7.094956 266.191895
v -32.708900 7.094955 271.999207
v -28.353399 7.094956 270.689209
v -25.032700 7.094955 271.799591
v -27.771700 7.094955 272.623413
v -27.360800 7.094957 264.058014
v -31.386801 8.353457 266.064911
v -30.079399 8.353456 270.412292
v -25.833900 8.353456 269.135406
v -27.141199 8.353457 264.788086
v 90.089897 48.217617 -736.026428
v 86.810402 48.217621 -748.192017
v 67.836304 48.217621 -745.206482
v 69.794800 48.217617 -732.825073
v 90.089897 54.995018 -736.026428
v 86.810402 54.995022 -748.192017
v 75.917999 54.995022 -746.478088
v 79.198502 54.995018 -734.308472
v 77.228302 54.995022 -741.617371
v 68.764900 54.995022 -739.335999
v 69.794800 54.995018 -732.825073
v 76.458000 56.544323 -744.685608
v 79.086502 56.544319 -734.934814
v 86.185699 56.544319 -736.848511
v 83.557198 56.544323 -746.599426
v 83.845398 56.544323 -745.530273
v 85.147400 56.544323 -740.700195
v 88.580498 56.544323 -741.625671
v 87.278503 56.544323 -746.455688
v 70.444000 56.411716 -732.963318
v 77.797798 56.411716 -734.123230
v 77.172699 56.411720 -738.086304
v 69.818802 56.411716 -736.926270
v 71.647301 56.411716 -737.214722
v 75.361702 56.411720 -737.800720
v 74.965202 56.411720 -740.314270
v 71.250801 56.411720 -739.728516
v 372.841187 52.511528 -153.481079
v 372.578888 52.511528 -152.578491
v 374.291107 52.511524 -136.651077
v 387.910614 52.511524 -139.938782
v 383.711792 52.511528 -157.263382
v 386.500305 86.082825 -145.757782
v 373.787598 86.082825 -141.334686
v 374.291107 86.082825 -136.651077
v 387.910614 86.082825 -139.938782
v 376.208405 86.635422 -137.141388
v 386.632904 86.635422 -139.657791
v 385.954193 86.635422 -142.469284
v 375.529694 86.635422 -139.952881
v 378.346985 86.635422 -140.632980
v 377.935913 86.635422 -142.335983
v 375.118591 86.635422 -141.655884
v 492.110107 24.272930 433.106812
v 506.682800 24.272930 430.051208
v 501.428894 24.272934 405.092010
v 486.995514 24.272934 408.700989
v 489.567200 43.000332 415.724213
v 502.017395 43.000332 413.113708
v 500.605713 43.000336 406.407501
v 488.261505 43.000336 409.494110
v 499.337708 43.994133 411.364502
v 498.876099 43.994137 409.171600
v 490.921814 43.994133 411.160492
v 493.273193 43.994133 411.592590
v 491.124908 43.994133 412.129700
v 493.483612 43.994133 412.592010
v 567.536072 73.045235 -233.145782
v 570.019470 73.045235 -217.001678
v 582.919189 73.045235 -218.237778
v 580.310181 73.045235 -235.105286
v 569.237427 97.754341 -222.085983
v 570.019470 97.754341 -217.001678
v 582.919189 97.754341 -218.237778
v 582.020691 97.754341 -224.046783
v 582.411987 98.925339 -218.632080
v 582.078430 98.925339 -220.788879
v 577.732483 98.925339 -220.372482
v 569.740173 98.925339 -221.716980
v 577.346313 98.925339 -222.883789
v 570.391907 98.925339 -217.480286
v 267.352295 49.329639 -226.470779
v 270.366913 49.329636 -208.583084
v 281.331299 49.329636 -210.434387
v 278.469910 49.329639 -227.393982
v 270.128113 71.840439 -214.683182
v 271.004913 71.840431 -209.480087
v 280.434387 71.840439 -211.072281
v 279.691193 71.840439 -215.477585
v 268.260498 71.840439 -225.765182
v 269.303406 71.840439 -219.576691
v 278.865509 71.840439 -220.370987
v 277.821411 71.840439 -226.559189
v 274.133087 71.840439 -219.977890
v 274.542511 71.840439 -215.049881
v 278.279785 73.369942 -215.335983
v 271.966095 73.369942 -214.811478
v 272.222900 73.369942 -211.719284
v 278.536713 73.369942 -212.243790
v 269.799103 72.275040 -219.617889
v 277.843414 72.275040 -220.286087
v 277.565613 72.275040 -223.630783
v 269.521210 72.275040 -222.962479
v 275.210297 73.370041 -211.967484
v 273.583008 73.370041 -211.832291
v 273.695312 73.369934 -210.480591
v 275.322601 73.369934 -210.615784
v 275.420197 73.242340 -215.122787
v 278.421814 73.242340 -215.372086
v 278.210602 73.242340 -217.915878
v 275.208893 73.242340 -217.666580
v 272.072296 72.275040 -223.174484
v 276.179688 72.275040 -223.515686
v 275.939911 72.275040 -226.402878
v 271.832489 72.275040 -226.061691
v 275.918396 73.242340 -217.725479
v 278.056091 73.242340 -217.903091
v 277.859985 73.242340 -220.262680
v 275.722412 73.242340 -220.085083
v -62.684200 5.079051 299.195587
v -73.481400 5.079051 301.373413
v -70.161400 5.079048 317.726288
v -59.832298 5.079049 315.642914
v -62.707298 34.868252 303.326813
v -71.962402 34.868252 305.193695
v -69.592102 34.868248 316.868286
v -60.671299 34.868252 315.068909
v -64.204803 35.299950 312.651306
v -65.191902 35.299950 306.958405
v -66.072701 35.299950 307.135986
v -65.765800 35.299950 308.905396
v -67.194702 35.299950 313.254395
v -67.986702 35.299950 309.353302
v 573.835571 68.517525 -149.802185
v 574.079529 68.517525 -148.402679
v 575.123230 68.517525 -148.581390
v 581.083008 68.517525 -145.281784
v 576.012085 68.517525 -144.413589
v 579.897583 68.517525 -150.840286
v 578.376282 69.308922 -147.563690
v 578.567322 69.308922 -146.667984
v 578.942627 69.308922 -146.732178
v 578.504822 69.308922 -148.784882
v 576.966980 69.308922 -148.521591
v 577.213806 69.308922 -147.364578
vt 0.0109 0.8912
vt 1.0923 0.8912
vt 1.0803 -0.0000
vt 0.0000 0.0098
vt 0.0000 0.8080
vt 1.0116 0.8080
vt 1.0121 0.0012
vt 0.0070 -0.0000
vt 1.4728 0.8532
vt 1.4599 0.0000
vt -0.0000 0.0117
vt 0.0118 0.8532
vt 0.9617 0.0015
vt 0.0066 0.0000
vt 0.0000 1.0000
vt 0.9612 1.0000
vt -0.0000 0.0108
vt 0.0083 0.7865
vt 1.0416 0.7865
vt 1.0324 0.0000
vt 0.0000 1.0000
vt 0.7444 1.0000
vt 0.7448 0.0015
vt 0.0051 0.0000
vt 0.6860 1.0000
vt 0.6800 0.0000
vt -0.0000 0.0138
vt 0.0055 1.0000
vt -0.0000 0.0138
vt 0.0062 1.0000
vt 0.7756 1.0000
vt 0.7689 -0.0000
vt 0.1911 0.5965
vt 0.1936 0.0005
vt 0.0043 0.0000
vt 0.0000 1.0000
vt 0.6680 0.5965
vt 0.6679 1.0000
vt 1.0000 1.0000
vt 0.9913 0.0000
vt -0.0000 0.0138
vt 0.0080 1.0000
vt 0.0000 0.0127
vt 0.0062 1.0000
vt 1.0000 1.0000
vt 0.7040 0.4153
vt 0.9961 0.4153
vt 0.7013 -0.0000
vt 0.7552 -0.0000
vt 0.1887 0.0000
vt 0.1887 0.6139
vt 0.0000 1.0000
vt -0.0000 0.6139
vt 0.7553 1.0000
vt 0.0000 1.0000
vt 1.0000 1.0000
vt 1.0000 0.0000
vt 0.0000 0.0000
vt 0.7751 1.1654
vt 0.7244 0.0007
vt 0.0000 0.0000
vt 0.0002 1.1654
vt 0.0000 1.1964
vt 1.5866 1.1964
vt 1.7353 0.0000
vt 0.1481 0.0000
vt 0.6074 1.0000
vt 0.5559 0.0000
vt -0.0000 0.1242
vt 0.0002 1.0000
vt 0.0000 1.0000
vt 1.2405 1.0000
vt 1.2405 0.0000
vt 0.0000 0.0000
vt 0.0000 1.0000
vt 1.0000 1.0000
vt 1.0000 0.0000
vt 0.0000 0.0000
vt 0.0000 1.0000
vt 1.0000 1.0000
vt 1.0000 0.0000
vt 0.0000 0.0000
vt 0.0000 1.0000
vt 1.0000 1.0000
vt 1.0000 0.0000
vt 0.0000 0.0000
vt 1.0269 0.1718
vt 0.9768 0.1403
vt 0.0008 0.0000
vt 0.0000 0.9419
vt 1.0954 0.9419
vt 1.4532 0.0000
vt 0.0633 0.2199
vt 0.0000 1.0000
vt 1.4537 1.0000
vt 0.0000 1.0000
vt 0.7585 1.0000
vt 0.7585 0.0000
vt 0.0000 0.0000
vt 0.0000 1.0000
vt 1.0000 1.0000
vt 1.0000 0.0000
vt 0.0000 0.0000
vt 0.0004 -0.0000
vt 0.0000 0.9880
vt 0.9389 0.9880
vt 0.9183 0.0015
vt 0.0000 1.0000
vt 1.1373 1.0000
vt 1.1368 -0.0000
vt 0.0001 0.0712
vt 0.0076 0.0000
vt 0.0000 1.0000
vt 0.7403 1.0000
vt 0.5438 0.5581
vt 0.7438 0.5581
vt 0.5473 0.1024
vt 0.7058 0.0017
vt 0.0310 0.0000
vt -0.0000 1.6033
vt 0.7051 1.6033
vt 0.0000 0.1248
vt 0.0220 1.0000
vt 0.9950 1.0000
vt 0.9694 -0.0000
vt 0.9943 1.0000
vt 0.9841 0.5379
vt 0.6317 0.5379
vt 0.0000 0.0924
vt 0.6200 0.0000
vt 0.0197 1.0000
vt -0.0000 0.7673
vt 0.6152 0.7673
vt 0.6151 -0.0000
vt 0.0318 0.0002
vt 0.9567 1.0000
vt 0.9142 0.0000
vt 0.0000 0.1533
vt 0.0361 1.0000
vt 0.0000 0.0000
vt 0.0353 1.0000
vt 0.6782 1.0000
vt 0.6428 0.0000
vt 0.0000 0.0000
vt 0.0000 1.0000
vt 1.0000 1.0000
vt 0.9192 0.0000
vt 0.0000 1.0000
vt 1.0000 1.0000
vt 1.0000 0.0000
vt 0.0000 0.0000
vt 0.0000 1.0000
vt 0.7859 1.0000
vt 0.7859 0.0000
vt 0.0000 0.0000
vt 0.0000 1.0000
vt 1.0000 1.0000
vt 1.0000 0.0000
vt 0.0000 0.0000
vt 0.0000 1.0000
vt 1.0000 1.0000
vt 1.0000 0.0000
vt 0.0000 0.0000
vt 0.0000 1.0000
vt 1.0000 1.0000
vt 1.0000 0.0000
vt 0.0000 0.0000
vt 0.0000 0.0000
vt 0.0000 1.0000
vt 1.0000 1.0000
vt 1.0000 0.0000
vt 0.0006 -0.0000
vt 0.0000 0.7295
vt 0.7069 0.7295
vt 0.7075 0.0316
vt 0.0011 0.0000
vt 0.0000 0.9162
vt 1.0762 0.9162
vt 1.0773 0.0331
vt 0.0142 1.0000
vt 1.0000 1.0000
vt 0.9958 0.7160
vt 0.6894 0.7160
vt -0.0000 0.0360
vt 0.6789 0.0000
vt 1.0000 1.0000
vt 0.9993 0.7498
vt 0.8334 0.7498
vt 0.0000 0.0000
vt 0.8063 0.0000
vt 0.0361 1.0000
vt 0.4307 0.7560
vt 0.0072 0.7560
vt 0.0000 1.0000
vt 0.9708 1.0000
vt 1.0000 0.0000
vt 0.4528 0.0000
vn -0.0000 1.0000 0.0000
vn 0.0000 1.0000 0.0001
g CityEngineMaterial_32_CityEngineMaterial_32_CityEngineMaterial_32_mat
usemtl CityEngineMaterial_32_mat
s 1
f 1/1/1 2/2/1 3/3/1 4/4/1
f 5/5/1 6/6/1 7/7/1 8/8/1
f 9/9/1 10/10/1 11/11/1 12/12/1
f 13/13/1 14/14/1 15/15/1 16/16/1
f 17/17/1 18/18/1 19/19/1 20/20/1
f 21/21/1 22/22/1 23/23/1 24/24/1
f 25/25/1 26/26/1 27/27/1 28/28/1
f 29/29/1 30/30/1 31/31/1 32/32/1
f 33/33/1 34/34/1 35/35/1 36/36/1
f 37/37/1 33/33/1 36/36/1 38/38/1
f 39/39/1 40/40/1 41/41/1 42/42/1
f 43/43/1 44/44/1 45/45/1 46/46/1
f 45/45/1 47/47/1 46/46/1
f 43/43/1 46/46/1 48/48/1
f 49/49/1 50/50/1 51/51/1 52/52/1
f 51/51/1 53/53/1 52/52/1
f 49/49/1 52/52/1 54/54/1
f 55/55/1 56/56/1 57/57/1 58/58/1
f 59/59/1 60/60/1 61/61/1 62/62/1
f 63/63/1 64/64/1 65/65/1 66/66/1
f 66/67/1 67/68/1 68/69/1 69/70/1
f 70/71/1 71/72/1 72/73/1 73/74/1
f 74/75/1 75/76/1 76/77/1 77/78/1
f 78/79/1 79/80/1 80/81/1 81/82/1
f 82/83/1 83/84/1 84/85/1 85/86/1
f 86/87/1 87/88/1 88/89/1 89/90/1
f 86/87/1 89/90/1 90/91/1
f 91/92/1 92/93/1 93/94/1 94/95/1
f 95/96/1 96/97/1 97/98/1 98/99/1
f 98/100/1 99/101/1 100/102/1 101/103/1
f 102/104/1 103/105/1 104/106/1 105/107/1
f 106/108/1 107/109/1 108/110/1 109/111/1
f 110/112/1 111/113/1 112/114/1 113/115/1
f 112/114/1 114/116/1 113/115/1
f 110/112/1 113/115/1 115/117/1
f 116/118/1 117/119/1 118/120/1 119/121/1
f 120/122/1 121/123/1 122/124/1 123/125/1
f 124/126/1 125/127/1 126/128/1 127/129/1
f 126/128/1 128/130/1 127/129/1
f 124/126/1 127/129/1 129/131/1
f 130/132/1 131/133/1 132/134/1 133/135/1
f 134/136/1 135/137/1 136/138/1 137/139/1
f 138/140/1 139/141/1 140/142/1 141/143/1
f 142/144/1 143/145/1 137/146/1 140/147/1
f 144/148/1 145/149/1 146/150/1 147/151/1
f 148/152/1 149/153/1 150/154/1 151/155/1
f 152/156/2 153/157/2 154/158/2 155/159/2
f 156/160/1 157/161/1 158/162/1 159/163/1
f 160/164/1 161/165/1 162/166/1 163/167/1
f 164/168/1 165/169/1 166/170/1 167/171/1
f 168/172/1 169/173/1 170/174/1 171/175/1
f 172/176/1 173/177/1 174/178/1 175/179/1
f 176/180/1 177/181/1 178/182/1 179/183/1
f 180/184/1 176/180/1 179/183/1 181/185/1
f 182/186/1 183/187/1 184/188/1 185/189/1
f 184/188/1 186/190/1 185/189/1
f 182/186/1 185/189/1 187/191/1
f 188/192/1 189/193/1 190/194/1 191/195/1
f 188/192/1 191/195/1 192/196/1 193/197/1
