# Blender v2.78 (sub 0) OBJ File: ''
# www.blender.org
mtllib CityEngineMaterial_598.mtl
o CityEngineMaterial_598
v -1139.185181 21.348713 544.025391
v -1138.619385 21.348713 541.521118
v -1139.149902 21.603212 541.401184
v -1139.715698 21.603212 543.905579
v -1139.680542 21.348713 541.281311
v -1140.246216 21.348713 543.785706
v -1138.463379 21.348713 541.556274
v -1139.149902 21.348713 541.401184
v -1139.281860 21.628912 541.985291
v -1138.595337 21.628912 542.140381
v -1139.413818 21.348713 542.569397
v -1138.727295 21.348713 542.724487
v -1302.385498 17.507641 359.300293
v -1306.448242 17.507641 358.482300
v -1305.462769 18.036242 359.964813
v -1303.867920 18.036242 360.285797
v -1306.945190 17.507641 360.950287
v -1302.882446 17.507641 361.768311
v -1304.779419 17.507641 358.035309
v -1306.296753 17.507641 357.729797
v -1305.690796 17.832642 358.641205
v -1306.883057 17.507641 360.641815
v -1305.971558 17.832642 360.035797
v -1305.365723 17.507641 360.947296
v -596.896484 12.540231 429.007111
v -596.918823 12.540231 426.830811
v -597.751770 12.856831 426.839203
v -597.729492 12.856831 429.015503
v -598.584778 12.540231 426.847595
v -598.562500 12.540231 429.023804
v -596.547302 12.540231 427.650299
v -596.555786 12.540231 426.827087
v -597.153809 12.767530 426.833099
v -597.145386 12.767530 427.656403
v -597.751770 12.540231 426.838989
v -597.743286 12.540231 427.662598
v 28.368500 12.644375 154.502808
v 31.940399 12.644375 153.634003
v 31.663500 13.221275 152.499603
v 28.091600 13.221075 153.368896
v 31.386499 12.644375 151.365295
v 27.814800 12.644375 152.235107
v 31.664101 12.644375 152.499496
v 31.308901 12.644375 151.046799
v 30.422800 13.094975 151.262604
v 30.777300 13.095375 152.715302
v 29.536600 12.644375 151.478394
v 29.890400 12.644375 152.931107
v 544.559570 26.749191 664.859497
v 548.948608 26.749191 663.938782
v 548.768982 27.111691 663.083374
v 544.379822 27.112291 664.002380
v 548.589478 26.749191 662.227905
v 544.199829 26.749191 663.145386
v 547.138794 26.749191 663.424194
v 548.769714 26.749191 663.082520
v 548.650879 26.988392 662.517883
v 547.020691 26.988592 662.859070
v 548.532104 26.749191 661.953430
v 546.902588 26.749191 662.294006
v 464.346985 93.180962 -370.698700
v 465.060913 93.180962 -369.314087
v 465.396210 93.521362 -370.363403
v 466.970306 93.180962 -370.298615
v 465.920990 93.521362 -370.634003
v 466.256287 93.180962 -371.683197
v 464.275909 93.180962 -369.797485
v 464.637787 93.180962 -369.095886
v 464.807587 93.353462 -369.627594
v 466.731598 93.180962 -370.175598
v 466.199799 93.353462 -370.345490
v 466.369812 93.180962 -370.877197
v 307.586792 76.451897 -620.624512
v 306.869690 76.451897 -625.167419
v 305.714691 76.926201 -624.986694
v 306.430206 76.926796 -620.443909
v 304.559692 76.451897 -624.805908
v 305.273712 76.451897 -620.263428
v 308.217499 76.451897 -620.723999
v 307.894012 76.451897 -622.773315
v 307.001099 76.818703 -622.632324
v 307.323700 76.818901 -620.585022
v 306.108093 76.451897 -622.491394
v 306.429901 76.451897 -620.445923
v 299.266815 69.035431 -199.498291
v 298.574005 69.035431 -202.357483
v 298.086700 69.247231 -202.239380
v 298.779510 69.247231 -199.380188
v 297.599396 69.035431 -202.121292
v 298.292206 69.035431 -199.262085
v 298.671997 69.035431 -202.381180
v 298.086700 69.035431 -202.239380
v 298.234100 69.299927 -201.631088
v 298.819397 69.299927 -201.772888
v 298.381500 69.035431 -201.022781
v 298.966797 69.035431 -201.164581
v 256.817200 22.407063 234.438904
v 257.022095 22.407063 237.948395
v 257.908386 22.907362 237.896606
v 257.703613 22.907362 234.387100
v 258.794800 22.407063 237.844894
v 258.589905 22.407063 234.335403
v 256.700714 22.407063 237.967102
v 257.908386 22.407063 237.896606
v 257.850800 22.964262 236.909607
v 256.643097 22.964262 236.980103
v 257.793213 22.407063 235.922607
v 256.585388 22.407063 235.993103
v 40.495300 61.078102 -16.002590
v 41.338299 61.078102 -13.483090
v 41.785099 61.326405 -13.632490
v 40.942101 61.326405 -16.152090
v 42.231899 61.078102 -13.781990
v 41.388901 61.078102 -16.301590
v -308.520691 7.600317 -104.166702
v -304.589996 7.600317 -105.054802
v -304.729797 7.863617 -105.680000
v -308.660889 7.864217 -104.793404
v -304.869598 7.600317 -106.305298
v -308.800995 7.600317 -105.420097
v -305.699005 7.600317 -104.490799
v -305.907593 7.600317 -105.413803
v -306.695312 7.932117 -105.236298
v -306.486603 7.932117 -104.312897
v -307.482910 7.600317 -105.058800
v -307.274200 7.600317 -104.135002
v 753.181213 99.869446 -272.929260
v 755.660095 99.869446 -273.967468
v 755.462097 100.144348 -274.440155
v 752.983276 100.144348 -273.401978
v 755.264221 99.869446 -274.912964
v 752.785278 99.869446 -273.874756
v -614.492188 19.325914 -704.765686
v -615.212219 19.325914 -707.137512
v -616.004517 19.660814 -706.896973
v -615.284607 19.660814 -704.525330
v -616.796875 19.325914 -706.656494
v -616.076904 19.325914 -704.284729
v -363.277313 13.334229 431.797699
v -362.891693 13.334229 434.852814
v -362.245392 13.753730 434.019714
v -362.443298 13.754129 432.445404
v -361.412903 13.334229 434.666199
v -361.795502 13.334229 431.612000
v 203.712296 56.286503 -633.762024
v 203.585495 56.286503 -635.916992
v 202.731903 56.798702 -634.956726
v 202.751999 56.798702 -634.615723
v 201.771606 56.286503 -635.810303
v 201.898407 56.286503 -633.655396
v 204.011307 56.286503 -633.779602
v 203.946503 56.286503 -634.882324
v 203.427505 56.597904 -634.298584
v 202.060196 56.286503 -634.771423
v 202.643997 56.597904 -634.252502
v 202.125107 56.286503 -633.668701
v -325.551300 10.116080 739.897888
v -327.760712 10.116079 742.290283
v -326.464111 10.517479 742.238770
v -325.499786 10.517479 741.194702
v -326.412689 10.116079 743.535583
v -324.203186 10.116079 741.143188
v -326.932312 10.116079 740.885376
v -328.013794 10.116079 742.056519
v -326.887512 10.464779 742.011780
v -326.581207 10.116079 743.379883
v -326.625885 10.464779 742.253479
v -325.499512 10.116079 742.208679
v -240.877106 23.854160 -374.960693
v -236.604004 23.854160 -374.943298
v -236.601593 24.101261 -375.540100
v -240.874695 24.101261 -375.557495
v -236.599197 23.854160 -376.136902
v -240.872299 23.854160 -376.154297
v -236.605301 23.854160 -374.609985
v -236.601593 23.854160 -375.540100
v -237.516907 24.233061 -375.543793
v -237.520706 24.233061 -374.613708
v -238.432297 23.854160 -375.547485
v -238.436005 23.854160 -374.617401
v 495.707794 99.948158 -354.236664
v 496.564087 99.948158 -352.576782
v 496.914093 100.373459 -353.672760
v 496.803802 100.373459 -353.886566
v 498.010101 99.948158 -353.322662
v 497.153900 99.948158 -354.982574
v 495.651703 99.948158 -353.566772
v 495.985687 99.948158 -352.919281
v 496.142395 100.138557 -353.410065
v 497.568207 99.948158 -353.735657
v 497.077515 100.138557 -353.892365
v 497.234192 99.948158 -354.383179
v -22.380400 26.432150 -300.975708
v -24.840300 26.432150 -300.755493
v -24.798599 26.650749 -300.289886
v -22.338800 26.650749 -300.510101
v -24.757000 26.432150 -299.824402
v -22.297100 26.432150 -300.044495
v -23.724501 26.432150 -301.135803
v -23.658001 26.432150 -300.391998
v -22.998400 26.741850 -300.450989
v -23.064899 26.741850 -301.194885
v -22.338800 26.432150 -300.510101
v -22.405300 26.432150 -301.253906
vt -0.0427 -0.0134
vt 0.5999 -0.0134
vt 0.5999 0.1369
vt -0.0427 0.1369
vt -0.0877 -0.0207
vt 0.5548 -0.0207
vt 0.5548 0.1296
vt -0.0877 0.1296
vt -0.0014 -0.0236
vt 0.1747 -0.0236
vt 0.1747 0.1418
vt -0.0014 0.1418
vt -0.0980 -0.0591
vt 0.0782 -0.0591
vt 0.0782 0.1063
vt -0.0980 0.1063
vt -0.0690 -0.0613
vt 0.7296 -0.0613
vt 0.4870 0.2018
vt 0.1735 0.2018
vt -0.0427 -0.0436
vt 0.4425 -0.0436
vt 0.1999 0.2195
vt -0.0249 -0.0134
vt 0.7738 -0.0134
vt 0.5312 0.2497
vt 0.2177 0.2497
vt -0.0706 -0.0372
vt 0.4146 -0.0372
vt 0.1720 0.2259
vt -0.0641 -0.0394
vt 0.2342 -0.0394
vt 0.0850 0.1223
vt -0.0208 -0.0569
vt 0.5516 -0.0569
vt 0.4025 0.1049
vt 0.1283 0.1049
vt -0.0382 -0.0205
vt 0.2601 -0.0205
vt 0.1109 0.1412
vt -0.0019 -0.0553
vt 0.5706 -0.0553
vt 0.4214 0.1065
vt 0.1473 0.1065
vt -0.0314 -0.0489
vt 0.4773 -0.0489
vt 0.4774 0.1594
vt -0.0313 0.1594
vt -0.0263 -0.0309
vt 0.4824 -0.0309
vt 0.4825 0.1774
vt -0.0262 0.1774
vt -0.0369 -0.0867
vt 0.1555 -0.0867
vt 0.1556 0.0628
vt -0.0369 0.0628
vt -0.0641 -0.0155
vt 0.1284 -0.0155
vt 0.1284 0.1340
vt -0.0641 0.1340
vt -0.0417 -0.0333
vt 0.7198 -0.0333
vt 0.7196 0.2364
vt -0.0419 0.2363
vt -0.0132 -0.0807
vt 0.7483 -0.0807
vt 0.7482 0.1890
vt -0.0133 0.1891
vt -0.0286 -0.0229
vt 0.2812 -0.0229
vt 0.2814 0.1878
vt -0.0284 0.1879
vt -0.0029 -0.0326
vt 0.3068 -0.0326
vt 0.3068 0.1783
vt -0.0029 0.1781
vt -0.0277 -0.0276
vt 1.0620 -0.0276
vt 1.0620 0.2023
vt -0.0277 0.2027
vt -0.0039 -0.0059
vt 1.0857 -0.0059
vt 1.0855 0.2244
vt -0.0041 0.2240
vt -0.0881 -0.0077
vt 0.3167 -0.0077
vt 0.3166 0.1441
vt -0.0880 0.1442
vt -0.0797 -0.0347
vt 0.3248 -0.0347
vt 0.3248 0.1172
vt -0.0799 0.1171
vt -0.0687 -0.0392
vt 0.2711 -0.0392
vt 0.1012 0.1462
vt -0.0181 -0.0635
vt 0.4504 -0.0635
vt 0.2805 0.1219
vt 0.1518 0.1219
vt -0.0424 -0.0132
vt 0.2974 -0.0132
vt 0.1275 0.1722
vt -0.0779 -0.0097
vt 0.3906 -0.0097
vt 0.2207 0.1757
vt 0.0920 0.1757
vt -0.0418 -0.0079
vt 0.1304 -0.0079
vt 0.0443 0.0860
vt -0.0727 -0.0603
vt 0.4411 -0.0603
vt 0.3550 0.0337
vt 0.0134 0.0337
vt -0.0392 -0.0508
vt 0.1330 -0.0508
vt 0.0469 0.0432
vt -0.0297 -0.0810
vt 0.4842 -0.0810
vt 0.3981 0.0129
vt 0.0564 0.0129
vt -0.0474 -0.0479
vt 0.8439 -0.0479
vt 0.8442 0.1966
vt -0.0470 0.1969
vt -0.0291 -0.0085
vt 0.8620 -0.0085
vt 0.8622 0.2363
vt -0.0290 0.2360
vt -0.0268 -0.0079
vt 0.3752 -0.0079
vt 0.3752 0.1811
vt -0.0264 0.1812
vt -0.0654 -0.0404
vt 0.3359 -0.0404
vt 0.3362 0.1488
vt -0.0655 0.1487
vt -0.0154 -0.0067
vt 0.5108 -0.0067
vt 0.5108 0.0907
vt -0.0154 0.0907
vt -0.0598 -0.0166
vt 0.4664 -0.0166
vt 0.4664 0.0807
vt -0.0598 0.0807
vt -0.0045 -0.0276
vt 0.1032 -0.0276
vt 0.1032 0.0939
vt -0.0045 0.0939
vt -0.0103 -0.0689
vt 0.0974 -0.0689
vt 0.0974 0.0526
vt -0.0103 0.0526
vt -0.0695 -0.0698
vt 0.6351 -0.0698
vt 0.6351 0.1345
vt -0.0695 0.1345
vt -0.0504 -0.0733
vt 0.6542 -0.0733
vt 0.6542 0.1310
vt -0.0504 0.1310
vt -0.0333 -0.0048
vt 0.2092 -0.0048
vt 0.2092 0.2227
vt -0.0333 0.2227
vt -0.0643 -0.0700
vt 0.1782 -0.0700
vt 0.1782 0.1575
vt -0.0643 0.1575
vt -0.0498 -0.0885
vt 0.5885 -0.0885
vt 0.5885 0.0394
vt -0.0498 0.0394
vt -0.0653 -0.0695
vt 0.5730 -0.0695
vt 0.5730 0.0584
vt -0.0653 0.0584
vt -0.0717 -0.0739
vt 0.8040 -0.0739
vt 0.8043 0.0766
vt -0.0713 0.0769
vt -0.0529 -0.0427
vt 0.8227 -0.0427
vt 0.8229 0.1082
vt -0.0527 0.1079
vt -0.0609 -0.0643
vt 0.1447 -0.0643
vt 0.1448 0.1254
vt -0.0609 0.1254
vt -0.0433 -0.0271
vt 0.1625 -0.0271
vt 0.1625 0.1625
vt -0.0432 0.1625
vt -0.0710 -0.0315
vt 0.5934 -0.0315
vt 0.5934 0.1122
vt -0.0710 0.1122
vt -0.0076 -0.0778
vt 0.6567 -0.0778
vt 0.6567 0.0660
vt -0.0076 0.0660
vt -0.0325 -0.0167
vt 0.4358 -0.0167
vt 0.4358 0.1520
vt -0.0325 0.1520
vt -0.0729 -0.0607
vt 0.3955 -0.0607
vt 0.3955 0.1081
vt -0.0729 0.1081
vt -0.0620 -0.0019
vt 0.4810 -0.0019
vt 0.3495 0.1490
vt 0.0698 0.1491
vt -0.0543 -0.0440
vt 0.2086 -0.0440
vt 0.0772 0.1069
vt -0.0269 -0.0152
vt 0.5158 -0.0152
vt 0.3842 0.1358
vt 0.1044 0.1357
vt -0.0675 -0.0135
vt 0.1958 -0.0135
vt 0.0641 0.1375
vt -0.0671 -0.0760
vt 0.3681 -0.0760
vt 0.1850 0.1342
vt 0.1161 0.1342
vt -0.0565 -0.0060
vt 0.3098 -0.0060
vt 0.1266 0.2043
vt -0.0658 -0.0375
vt 0.3693 -0.0375
vt 0.1862 0.1728
vt 0.1173 0.1728
vt -0.0180 -0.0263
vt 0.3483 -0.0263
vt 0.1652 0.1839
vt -0.0523 -0.0190
vt 0.1704 -0.0190
vt 0.0591 0.1088
vt -0.0789 -0.0138
vt 0.3020 -0.0138
vt 0.1907 0.1141
vt 0.0325 0.1141
vt -0.0736 -0.0279
vt 0.1490 -0.0279
vt 0.0377 0.0999
vt -0.0084 -0.0455
vt 0.3725 -0.0455
vt 0.2612 0.0823
vt 0.1029 0.0823
vt -0.0154 -0.0625
vt 0.5556 -0.0625
vt 0.3947 0.1132
vt 0.1455 0.1132
vt -0.0455 -0.0584
vt 0.2763 -0.0584
vt 0.1154 0.1173
vt -0.0414 -0.0168
vt 0.5296 -0.0168
vt 0.3687 0.1588
vt 0.1195 0.1588
vt -0.0689 -0.0142
vt 0.2529 -0.0142
vt 0.0920 0.1615
vt -0.0201 -0.0007
vt 0.2594 -0.0007
vt 0.1197 0.1519
vt -0.0528 -0.0572
vt 0.2892 -0.0572
vt 0.1494 0.0954
vt 0.0870 0.0954
vt -0.0402 -0.0492
vt 0.2393 -0.0492
vt 0.0996 0.1033
vt -0.0323 -0.0373
vt 0.3097 -0.0373
vt 0.1699 0.1152
vt 0.1075 0.1152
vt -0.0618 -0.0067
vt 0.7346 -0.0067
vt 0.7346 0.1137
vt -0.0618 0.1137
vt -0.0620 -0.0019
vt 0.7343 -0.0018
vt 0.7343 0.1185
vt -0.0620 0.1185
vt -0.0438 -0.0180
vt 0.1295 -0.0180
vt 0.1295 0.1667
vt -0.0438 0.1667
vt -0.0733 -0.0362
vt 0.1000 -0.0362
vt 0.1000 0.1484
vt -0.0733 0.1484
vt -0.0623 -0.0726
vt 0.3821 -0.0726
vt 0.1885 0.1459
vt 0.1313 0.1459
vt -0.0495 -0.0216
vt 0.3377 -0.0216
vt 0.1441 0.1968
vt -0.0923 -0.0651
vt 0.3521 -0.0651
vt 0.1585 0.1533
vt 0.1013 0.1533
vt -0.0421 -0.0688
vt 0.3451 -0.0688
vt 0.1515 0.1496
vt -0.0348 -0.0541
vt 0.1385 -0.0541
vt 0.0518 0.0437
vt -0.0311 -0.0261
vt 0.3927 -0.0261
vt 0.3060 0.0717
vt 0.0556 0.0717
vt -0.0031 -0.0847
vt 0.1703 -0.0847
vt 0.0836 0.0131
vt -0.0617 -0.0742
vt 0.3620 -0.0742
vt 0.2754 0.0236
vt 0.0250 0.0236
vt -0.0761 -0.0451
vt 0.4361 -0.0451
vt 0.4361 0.0620
vt -0.0761 0.0620
vt -0.0250 -0.0781
vt 0.4873 -0.0781
vt 0.4873 0.0289
vt -0.0250 0.0289
vt -0.0785 -0.0455
vt 0.0764 -0.0455
vt 0.0764 0.1062
vt -0.0785 0.1062
vt -0.0254 -0.0109
vt 0.1295 -0.0109
vt 0.1295 0.1407
vt -0.0254 0.1407
vn 0.4134 0.9057 0.0934
vn -0.4134 0.9058 -0.0934
vn 0.0934 0.9057 -0.4134
vn -0.0934 0.9057 0.4134
vn 0.0764 0.9220 -0.3795
vn -0.3796 0.9220 -0.0764
vn -0.0764 0.9220 0.3796
vn 0.3796 0.9220 0.0764
vn 0.0764 0.9220 -0.3796
vn 0.3552 0.9348 -0.0036
vn -0.3552 0.9348 0.0036
vn -0.3553 0.9348 0.0036
vn 0.1047 0.8965 0.4304
vn -0.1048 0.8965 -0.4304
vn 0.4303 0.8965 -0.1052
vn -0.4304 0.8965 0.1048
vn 0.0786 0.9237 0.3749
vn -0.0784 0.9237 -0.3749
vn 0.0785 0.9237 0.3749
vn -0.0784 0.9237 -0.3750
vn -0.3559 0.9163 0.1835
vn 0.1835 0.9163 0.3559
vn 0.3559 0.9163 -0.1836
vn -0.1835 0.9163 -0.3560
vn -0.3559 0.9163 0.1836
vn 0.3558 0.9164 -0.1835
vn -0.1836 0.9163 -0.3560
vn 0.3713 0.9266 -0.0586
vn -0.3714 0.9266 0.0584
vn 0.3714 0.9266 -0.0586
vn 0.3782 0.9212 -0.0916
vn -0.3782 0.9212 0.0916
vn -0.0916 0.9211 -0.3783
vn 0.0917 0.9211 0.3783
vn -0.4901 0.8712 0.0286
vn 0.4901 0.8712 -0.0286
vn 0.0286 0.8712 0.4901
vn -0.0286 0.8712 -0.4901
vn -0.4422 0.8847 0.1479
vn 0.4421 0.8847 -0.1479
vn 0.0838 0.9249 0.3708
vn -0.0835 0.9249 -0.3708
vn 0.3707 0.9250 -0.0838
vn -0.3708 0.9249 0.0838
vn 0.1826 0.8812 0.4360
vn -0.1826 0.8812 -0.4360
vn 0.3588 0.9270 -0.1089
vn -0.3588 0.9270 0.1089
vn -0.4865 0.8715 0.0614
vn 0.0614 0.8715 0.4865
vn 0.4865 0.8715 -0.0609
vn -0.0610 0.8716 -0.4865
vn 0.4903 0.8711 -0.0289
vn -0.0288 0.8711 -0.4903
vn -0.4903 0.8711 0.0289
vn 0.0288 0.8711 0.4902
vn 0.4903 0.8711 -0.0288
vn 0.0288 0.8711 0.4903
vn -0.2944 0.9162 -0.2719
vn -0.2719 0.9162 0.2944
vn 0.2944 0.9162 0.2719
vn 0.2719 0.9162 -0.2944
vn -0.2945 0.9162 -0.2719
vn -0.0016 0.9239 0.3825
vn 0.0016 0.9239 -0.3825
vn 0.3825 0.9240 0.0015
vn -0.3825 0.9240 -0.0015
vn -0.4118 0.8862 0.2124
vn 0.2124 0.8862 0.4117
vn 0.4117 0.8862 -0.2124
vn -0.2124 0.8862 -0.4118
vn -0.4117 0.8862 0.2124
vn 0.2124 0.8863 0.4117
vn -0.2124 0.8861 -0.4119
vn -0.0378 0.9058 -0.4219
vn 0.0378 0.9058 0.4220
vn -0.4219 0.9058 0.0377
vn 0.4219 0.9058 -0.0377
g CityEngineMaterial_598_CityEngineMaterial_598_CityEngineMaterial_598_mat
usemtl CityEngineMaterial_598_mat
s 1
f 1/1/1 2/2/1 3/3/1 4/4/1
f 5/5/2 6/6/2 4/7/2 3/8/2
f 7/9/3 8/10/3 9/11/3 10/12/3
f 11/13/4 12/14/4 10/15/4 9/16/4
f 13/17/5 14/18/5 15/19/5 16/20/5
f 14/21/6 17/22/6 15/23/6
f 17/24/7 18/25/7 16/26/7 15/27/7
f 18/28/8 13/29/8 16/30/8
f 19/31/9 20/32/9 21/33/9
f 20/34/6 22/35/6 23/36/6 21/37/6
f 22/38/7 24/39/7 23/40/7
f 24/41/8 19/42/8 21/43/8 23/44/8
f 25/45/10 26/46/10 27/47/10 28/48/10
f 29/49/11 30/50/11 28/51/11 27/52/11
f 31/53/10 32/54/10 33/55/10 34/56/10
f 35/57/12 36/58/12 34/59/12 33/60/12
f 37/61/13 38/62/13 39/63/13 40/64/13
f 41/65/14 42/66/14 40/67/14 39/68/14
f 43/69/15 44/70/15 45/71/15 46/72/15
f 47/73/16 48/74/16 46/75/16 45/76/16
f 49/77/17 50/78/17 51/79/17 52/80/17
f 53/81/18 54/82/18 52/83/18 51/84/18
f 55/85/19 56/86/19 57/87/19 58/88/19
f 59/89/20 60/90/20 58/91/20 57/92/20
f 61/93/21 62/94/21 63/95/21
f 62/96/22 64/97/22 65/98/22 63/99/22
f 64/100/23 66/101/23 65/102/23
f 66/103/24 61/104/24 63/105/24 65/106/24
f 67/107/25 68/108/25 69/109/25
f 68/110/22 70/111/22 71/112/22 69/113/22
f 70/114/26 72/115/26 71/116/26
f 72/117/27 67/118/27 69/119/27 71/120/27
f 73/121/28 74/122/28 75/123/28 76/124/28
f 77/125/29 78/126/29 76/127/29 75/128/29
f 79/129/30 80/130/30 81/131/30 82/132/30
f 83/133/29 84/134/29 82/135/29 81/136/29
f 85/137/31 86/138/31 87/139/31 88/140/31
f 89/141/32 90/142/32 88/143/32 87/144/32
f 91/145/33 92/146/33 93/147/33 94/148/33
f 95/149/34 96/150/34 94/151/34 93/152/34
f 97/153/35 98/154/35 99/155/35 100/156/35
f 101/157/36 102/158/36 100/159/36 99/160/36
f 103/161/37 104/162/37 105/163/37 106/164/37
f 107/165/38 108/166/38 106/167/38 105/168/38
f 109/169/39 110/170/39 111/171/39 112/172/39
f 113/173/40 114/174/40 112/175/40 111/176/40
f 115/177/41 116/178/41 117/179/41 118/180/41
f 119/181/42 120/182/42 118/183/42 117/184/42
f 121/185/43 122/186/43 123/187/43 124/188/43
f 125/189/44 126/190/44 124/191/44 123/192/44
f 127/193/45 128/194/45 129/195/45 130/196/45
f 131/197/46 132/198/46 130/199/46 129/200/46
f 133/201/47 134/202/47 135/203/47 136/204/47
f 137/205/48 138/206/48 136/207/48 135/208/48
f 139/209/49 140/210/49 141/211/49 142/212/49
f 140/213/50 143/214/50 141/215/50
f 143/216/51 144/217/51 142/218/51 141/219/51
f 144/220/52 139/221/52 142/222/52
f 145/223/53 146/224/53 147/225/53 148/226/53
f 146/227/54 149/228/54 147/229/54
f 149/230/55 150/231/55 148/232/55 147/233/55
f 150/234/56 145/235/56 148/236/56
f 151/237/57 152/238/57 153/239/57
f 152/240/54 154/241/54 155/242/54 153/243/54
f 154/244/55 156/245/55 155/246/55
f 156/247/58 151/248/58 153/249/58 155/250/58
f 157/251/59 158/252/59 159/253/59 160/254/59
f 158/255/60 161/256/60 159/257/60
f 161/258/61 162/259/61 160/260/61 159/261/61
f 162/262/62 157/263/62 160/264/62
f 163/265/63 164/266/63 165/267/63
f 164/268/60 166/269/60 167/270/60 165/271/60
f 166/272/61 168/273/61 167/274/61
f 168/275/62 163/276/62 165/277/62 167/278/62
f 169/279/64 170/280/64 171/281/64 172/282/64
f 173/283/65 174/284/65 172/285/65 171/286/65
f 175/287/66 176/288/66 177/289/66 178/290/66
f 179/291/67 180/292/67 178/293/67 177/294/67
f 181/295/68 182/296/68 183/297/68 184/298/68
f 182/299/69 185/300/69 183/301/69
f 185/302/70 186/303/70 184/304/70 183/305/70
f 186/306/71 181/307/71 184/308/71
f 187/309/72 188/310/72 189/311/72
f 188/312/73 190/313/73 191/314/73 189/315/73
f 190/316/70 192/317/70 191/318/70
f 192/319/74 187/320/74 189/321/74 191/322/74
f 193/323/75 194/324/75 195/325/75 196/326/75
f 197/327/76 198/328/76 196/329/76 195/330/76
f 199/331/77 200/332/77 201/333/77 202/334/77
f 203/335/78 204/336/78 202/337/78 201/338/78
