# Blender v2.78 (sub 0) OBJ File: ''
# www.blender.org
mtllib CityEngineMaterial_182.mtl
o CityEngineMaterial_182
v -1226.302979 19.238735 398.748108
v -1228.111450 19.238733 407.746613
v -1216.065186 19.238733 410.195892
v -1216.548340 19.238733 406.443390
v -1215.359619 19.238733 406.685089
v -1216.036011 19.238735 403.894592
v -1214.846802 19.238733 404.133698
v -1214.251587 19.238735 401.171997
v -1226.543823 20.009132 408.065399
v -1218.787720 20.009132 409.642395
v -1217.614624 20.009134 403.872589
v -1225.370728 20.009134 402.295593
v -1221.859253 20.009134 403.009613
v -1219.097046 20.009134 403.571198
v -1218.445923 20.009134 400.368805
v -1221.208252 20.009134 399.807190
v -644.065002 12.608954 283.230286
v -642.101013 12.608954 283.341309
v -641.694519 12.608954 279.745087
v -651.957275 12.608954 279.165100
v -653.682617 12.608953 294.427094
v -645.384216 12.608953 294.901001
v -652.274292 14.087255 281.968994
v -653.313782 14.087253 291.164886
v -648.852417 14.087253 291.669312
v -647.812927 14.087255 282.473297
v -27.448500 4.374357 263.766388
v -23.590900 4.374355 276.593811
v -7.634100 4.374356 271.790100
v -11.321400 4.374358 258.915588
v -25.726801 41.257660 264.691986
v -22.665400 41.257656 274.871704
v -9.338400 41.257656 270.859589
v -12.264500 41.257660 260.642700
v -13.152900 42.243057 262.269409
v -24.105200 42.243057 265.563690
v -23.088100 42.243057 268.945709
v -17.341499 42.243057 267.217194
v -10.943600 42.243053 269.983307
v -16.104200 42.243053 271.536804
v 339.447205 29.334572 174.542801
v 338.566193 29.334574 159.023804
v 326.423706 29.334574 159.716797
v 327.999512 29.334570 187.277100
v 339.818909 29.334570 186.606003
v 338.349915 39.446774 174.590805
v 337.532013 39.446774 160.182800
v 327.582886 39.446774 160.750702
v 328.435913 39.446770 175.670898
v 338.365814 39.446774 175.104202
v 333.364197 36.194275 175.389603
v 328.435913 36.194271 175.670898
v 329.033295 36.194271 186.118393
v 333.960602 36.194271 185.838593
v 330.508789 40.059574 163.360397
v 331.045410 40.059574 172.745300
v 333.662689 40.059574 172.595901
v 333.514801 40.059574 170.009705
v 335.307404 40.059574 169.907394
v 334.921387 40.059574 163.108597
v 333.417999 36.616470 176.331894
v 330.525391 36.616470 176.496994
v 331.014099 36.616470 185.060806
v 333.906891 36.616470 184.896393
v 330.787415 36.616470 181.088898
v 328.752289 36.616470 181.205002
v 328.979492 36.616470 185.176407
v 288.169495 23.257263 218.002396
v 274.292114 23.257263 218.669205
v 275.409485 23.257261 238.030502
v 290.506195 23.257261 237.173492
v 286.885193 40.062466 219.524796
v 275.833588 40.062466 220.055801
v 276.393188 40.062462 229.752197
v 288.063507 40.062462 229.191498
v 282.556213 28.020361 229.456100
v 276.393188 28.020361 229.752197
v 276.782104 28.020361 236.491302
v 282.877594 28.020361 236.145203
v 278.139191 41.563362 229.668304
v 285.605286 41.563362 229.309601
v 285.286713 41.563362 222.677399
v 277.820496 41.563362 223.036102
v 277.148285 28.536463 230.431503
v 277.454590 28.536463 235.737198
v 280.715393 28.536463 235.552094
v 280.531494 28.536463 232.365494
v 281.976990 28.536463 232.296097
v 281.876495 28.536463 230.204300
v 281.759399 41.563362 222.846893
v 284.586700 41.563362 222.711105
v 284.439209 41.563366 219.642303
v 281.612000 41.563366 219.778198
v 308.115387 54.273666 -405.304504
v 304.770996 54.273670 -426.700989
v 292.435699 54.273670 -424.764496
v 295.697205 54.273666 -403.359894
v 308.115387 81.821365 -405.304504
v 306.900391 81.821365 -413.078094
v 294.511993 81.821365 -411.138092
v 295.697205 81.821365 -403.359894
v 297.785004 83.332672 -403.686798
v 306.059692 83.332672 -404.982605
v 305.210999 83.332672 -410.402191
v 296.936401 83.332672 -409.106506
v 300.287415 83.332672 -409.631195
v 303.745789 83.332672 -410.172791
v 303.377289 83.332672 -412.526398
v 299.918793 83.332672 -411.984802
v -201.466995 6.585076 758.858521
v -190.333694 6.585079 744.712280
v -208.064194 6.585081 730.748413
v -218.513000 6.585079 740.419800
v -201.568604 21.140177 756.300171
v -192.667297 21.140179 744.990112
v -202.121094 21.140181 737.544617
v -209.840195 21.140179 747.352722
v -205.751007 21.140181 742.156921
v -207.977203 21.140181 732.932617
v -212.340302 21.140181 736.971130
v -199.591705 22.325378 753.690979
v -193.518494 22.325378 745.974304
v -198.830994 22.325380 741.793274
v -204.904205 22.325378 749.509888
v -204.717499 22.325378 749.272827
v -200.625000 22.325378 744.072571
v -204.721405 22.325380 740.848572
v -208.813995 22.325378 746.048828
v -210.501907 21.562281 738.417786
v -206.858093 21.562281 741.285583
v -204.529800 21.562281 738.327209
v -208.173599 21.562281 735.459473
v -207.218201 21.562281 736.211426
v -205.251099 21.562281 737.759521
v -203.949493 21.562281 736.105713
v -205.916595 21.562281 734.557495
v -298.953888 11.196854 -329.325409
v -301.624603 11.196855 -334.321411
v -303.596313 11.196855 -333.282013
v -312.934998 11.196855 -332.234497
v -305.204712 11.196855 -336.290588
v -308.647797 11.196853 -324.215210
v -307.177887 11.678754 -324.990112
v -302.442108 11.678754 -327.486603
v -305.402496 11.678755 -333.102509
v -310.138397 11.678754 -330.605988
v -309.003693 11.678755 -331.204102
v -310.275787 11.678755 -333.617310
v -311.410492 11.678755 -333.019196
v -307.313110 11.678755 -332.095306
v -306.674713 11.678755 -335.515686
v -308.585297 11.678755 -334.508514
v -616.340088 14.952166 210.356094
v -609.866272 14.952166 209.592804
v -610.803101 14.952168 199.325302
v -612.635071 14.952168 199.541306
v -613.067688 14.952168 194.752899
v -617.698303 14.952168 195.326599
v -614.224182 15.430267 201.499802
v -614.655884 15.430267 196.722000
v -615.793274 15.430267 196.862900
v -614.223083 15.430266 204.711304
v -613.899109 15.430265 208.297104
v -614.750977 15.430265 208.397598
v -612.390625 15.430267 201.283600
v -613.937317 15.430266 204.675903
v -613.612976 15.430265 208.263397
v -611.773621 15.430265 208.046494
v -75.365097 5.102222 475.988098
v -65.341103 5.102225 458.153107
v -77.940498 5.102225 461.461212
v -74.917198 16.976423 473.351898
v -69.585899 16.976423 463.866302
v -70.486603 16.976425 460.435913
v -76.908203 16.976425 462.121887
v -76.728798 18.534424 463.133789
v -76.092102 18.534424 466.725006
v -73.460602 18.534424 466.258514
v -74.097298 18.534424 462.667297
v -73.888496 18.534424 463.845093
v -73.593201 18.534424 465.510803
v -71.613899 18.534424 465.159912
v -71.909203 18.534424 463.494202
vt 0.0000 0.0019
vt 0.0021 0.6654
vt 1.2216 0.6654
vt 1.1004 0.4065
vt 1.2208 0.4065
vt 1.0998 0.2186
vt 1.2202 0.2184
vt 1.2195 -0.0000
vt 0.0000 1.0000
vt 0.8102 1.0000
vt 0.8102 0.0000
vt 0.0000 0.0000
vt 0.0000 0.0000
vt 0.0000 1.0000
vt 1.0000 1.0000
vt 1.0000 0.0000
vt 0.1351 0.1561
vt 0.1311 0.0000
vt 0.0000 0.0000
vt 0.0209 0.8157
vt 0.5772 0.8157
vt 0.5605 0.1561
vt 0.0000 1.0000
vt 0.8182 1.0000
vt 0.8182 0.0000
vt 0.0000 0.0000
vt 0.5581 1.4341
vt 0.5581 0.0000
vt 0.0059 0.0004
vt 0.0000 1.4341
vt 1.1259 0.9001
vt 1.1259 -0.0000
vt 0.0113 0.0003
vt 0.0000 0.9001
vt 0.0000 0.9952
vt 0.9468 0.9952
vt 0.9468 0.5572
vt 0.4500 0.5572
vt 0.0088 0.0002
vt 0.4549 0.0000
vt 0.5516 0.0005
vt 0.0000 0.0000
vt -0.0000 0.9442
vt 0.9795 0.9442
vt 0.9796 0.0251
vt 1.4413 0.0004
vt 0.0000 0.0000
vt 0.0000 0.6536
vt 1.4925 0.6536
vt 1.4926 0.0013
vt 0.0000 0.0000
vt 0.0000 1.0000
vt 1.0409 1.0000
vt 1.0411 0.0002
vt 0.0000 1.0000
vt 1.0016 1.0000
vt 1.0017 0.4069
vt 0.7256 0.4068
vt 0.7257 0.0006
vt 0.0000 0.0000
vt 0.0000 0.0000
vt 0.0000 1.0000
vt 0.5746 1.0000
vt 0.5746 0.0000
vt 0.0000 0.0000
vt 0.0000 1.0000
vt 0.9998 1.0000
vt 1.0000 0.0002
vt 0.0049 0.0832
vt 0.0000 1.0243
vt 0.7059 1.0243
vt 0.7064 0.0000
vt 1.2572 0.0000
vt 0.0000 0.0000
vt 0.0106 0.8611
vt 1.3382 0.8611
vt 0.0088 0.0000
vt 0.0000 1.0000
vt 0.9992 1.0000
vt 1.0000 0.0105
vt 0.0000 1.0000
vt 1.0000 1.0000
vt 1.0000 0.0000
vt 0.0000 0.0000
vt 0.0000 1.0000
vt 0.9994 1.0000
vt 1.0000 0.3100
vt 0.3998 0.3100
vt 0.4024 0.0043
vt 0.0086 -0.0000
vt 0.0000 0.0000
vt 0.0000 1.0000
vt 1.0000 1.0000
vt 1.0000 0.0000
vt 0.0002 1.2466
vt 1.0151 1.2466
vt 1.0147 0.0083
vt 0.0000 0.0000
vt 1.3195 1.0000
vt 1.3197 0.0000
vt 0.0034 0.0000
vt 0.0000 1.0000
vt 0.0000 1.0000
vt 0.6846 1.0000
vt 0.6846 0.0000
vt 0.0000 0.0000
vt 0.0000 1.0000
vt 1.0000 1.0000
vt 1.0000 0.0000
vt 0.0000 0.0000
vt 1.1891 0.6163
vt 1.0551 -0.0000
vt 0.0000 0.1227
vt 0.0004 0.6163
vt 0.0000 1.2139
vt 1.7008 1.2139
vt 1.7013 -0.0000
vt 0.2264 -0.0000
vt 0.7872 1.0000
vt 0.7872 0.0004
vt 0.0874 0.0000
vt 0.0000 1.0000
vt 0.0000 1.0000
vt 0.6666 1.0000
vt 0.6666 0.0000
vt 0.0000 0.0000
vt 0.0000 1.0000
vt 1.0000 1.0000
vt 1.0000 0.0000
vt 0.0000 0.0000
vt 0.0000 1.0000
vt 1.0000 1.0000
vt 1.0000 0.0000
vt 0.0000 0.0000
vt 0.0000 1.0000
vt 1.0000 1.0000
vt 1.0000 0.0000
vt 0.0000 0.0000
vt 0.7329 1.0232
vt 0.7308 0.3858
vt 0.5824 0.3858
vt 0.0000 0.0000
vt 0.5811 0.0019
vt 0.0035 1.0232
vt 0.0000 0.0000
vt 0.0000 1.0000
vt 1.0000 1.0000
vt 1.0000 0.0000
vt 0.0000 0.0000
vt 0.0000 1.0000
vt 1.0000 1.0000
vt 1.0000 0.0000
vt 0.0000 0.0000
vt 0.0000 1.0000
vt 1.0000 1.0000
vt 1.0000 0.0000
vt 1.5513 1.0000
vt 1.5333 0.0000
vt 0.4841 0.0014
vt 0.4892 0.2844
vt 0.0000 0.2844
vt 0.0157 1.0000
vt 0.3338 0.6178
vt -0.0000 0.6178
vt 0.0026 1.0000
vt 0.5564 0.7139
vt 0.8069 0.7139
vt 0.8085 1.0000
vt 0.3303 0.0020
vt 0.5557 0.6178
vt 0.8063 0.6178
vt 0.8028 0.0000
vt 0.0000 1.0127
vt 0.7304 1.0127
vt 0.4071 -0.0000
vt 0.8411 1.0000
vt 0.2489 -0.0000
vt -0.0000 0.0417
vt 0.0380 1.0000
vt 0.0000 1.0000
vt 1.0000 1.0000
vt 1.0000 0.0000
vt 0.0000 0.0000
vt 0.0000 0.0000
vt 0.0000 1.0000
vt 1.0000 1.0000
vt 1.0000 0.0000
vn -0.0000 1.0000 0.0000
g CityEngineMaterial_182_CityEngineMaterial_182_CityEngineMaterial_182_mat
usemtl CityEngineMaterial_182_mat
s 1
f 1/1/1 2/2/1 3/3/1 4/4/1
f 3/3/1 5/5/1 4/4/1
f 1/1/1 4/4/1 6/6/1 7/7/1
f 1/1/1 7/7/1 8/8/1
f 9/9/1 10/10/1 11/11/1 12/12/1
f 13/13/1 14/14/1 15/15/1 16/16/1
f 17/17/1 18/18/1 19/19/1 20/20/1
f 17/17/1 20/20/1 21/21/1 22/22/1
f 23/23/1 24/24/1 25/25/1 26/26/1
f 27/27/1 28/28/1 29/29/1 30/30/1
f 31/31/1 32/32/1 33/33/1 34/34/1
f 35/35/1 36/36/1 37/37/1 38/38/1
f 39/39/1 35/35/1 38/38/1 40/40/1
f 41/41/1 42/42/1 43/43/1 44/44/1
f 41/41/1 44/44/1 45/45/1
f 46/46/1 47/47/1 48/48/1 49/49/1
f 46/46/1 49/49/1 50/50/1
f 51/51/1 52/52/1 53/53/1 54/54/1
f 55/55/1 56/56/1 57/57/1 58/58/1
f 55/55/1 58/58/1 59/59/1 60/60/1
f 61/61/1 62/62/1 63/63/1 64/64/1
f 65/65/1 66/66/1 67/67/1 63/68/1
f 68/69/1 69/70/1 70/71/1 71/72/1
f 72/73/1 73/74/1 74/75/1 75/76/1
f 76/77/1 77/78/1 78/79/1 79/80/1
f 80/81/1 81/82/1 82/83/1 83/84/1
f 84/85/1 85/86/1 86/87/1 87/88/1
f 84/85/1 87/88/1 88/89/1 89/90/1
f 90/91/1 91/92/1 92/93/1 93/94/1
f 94/95/1 95/96/1 96/97/1 97/98/1
f 98/99/1 99/100/1 100/101/1 101/102/1
f 102/103/1 103/104/1 104/105/1 105/106/1
f 106/107/1 107/108/1 108/109/1 109/110/1
f 110/111/1 111/112/1 112/113/1 113/114/1
f 114/115/1 115/116/1 116/117/1 117/118/1
f 118/119/1 116/120/1 119/121/1 120/122/1
f 121/123/1 122/124/1 123/125/1 124/126/1
f 125/127/1 126/128/1 127/129/1 128/130/1
f 129/131/1 130/132/1 131/133/1 132/134/1
f 133/135/1 134/136/1 135/137/1 136/138/1
f 137/139/1 138/140/1 139/141/1 140/142/1
f 139/141/1 141/143/1 140/142/1
f 137/139/1 140/142/1 142/144/1
f 143/145/1 144/146/1 145/147/1 146/148/1
f 146/149/1 147/150/1 148/151/1 149/152/1
f 150/153/1 145/154/1 151/155/1 152/156/1
f 153/157/1 154/158/1 155/159/1 156/160/1
f 153/157/1 156/160/1 157/161/1 158/162/1
f 159/163/1 160/164/1 161/165/1 162/166/1
f 163/167/1 162/166/1 161/165/1 164/168/1
f 165/169/1 159/163/1 162/166/1 166/170/1
f 165/169/1 166/170/1 167/171/1 168/172/1
f 169/173/1 170/174/1 171/175/1
f 172/176/1 173/177/1 174/178/1 175/179/1
f 176/180/1 177/181/1 178/182/1 179/183/1
f 180/184/1 181/185/1 182/186/1 183/187/1
