# Blender v2.78 (sub 0) OBJ File: ''
# www.blender.org
mtllib CityEngineMaterial_635.mtl
o CityEngineMaterial_635
v -1081.897095 8.724663 229.937805
v -1090.523682 8.724663 229.419998
v -1090.523682 10.353662 229.419998
v -1081.897095 10.353662 229.937805
v -1091.309692 8.724661 242.514999
v -1091.309692 10.353661 242.514999
v -1088.369019 8.724661 242.691498
v -1088.369019 10.353661 242.691498
v -1088.228027 8.724661 240.341293
v -1088.228027 10.353661 240.341293
v -1085.784912 8.724661 240.488007
v -1085.784912 10.353661 240.488007
v -1086.090088 8.724661 242.828293
v -1086.090088 10.353661 242.828293
v -1083.598022 8.724660 242.977905
v -1083.598022 10.353660 242.977905
v -5.712400 28.830271 -431.312286
v -9.008100 28.830275 -452.358704
v -9.008100 30.624374 -452.358704
v -5.712400 30.624371 -431.312286
v -26.000601 28.830273 -449.698212
v -26.000601 30.624372 -449.698212
v -22.619900 28.830271 -428.284912
v -22.619900 30.624371 -428.284912
v 172.803696 32.403927 -172.379898
v 185.188797 32.403927 -174.460403
v 185.188797 34.374027 -174.460403
v 172.803696 34.374027 -172.379898
v 181.212402 32.403931 -198.034195
v 181.212402 34.374031 -198.034195
v 168.843002 32.403931 -195.944595
v 168.843002 34.374031 -195.944595
v -294.417694 1.313914 -85.510201
v -295.122894 1.313914 -88.607399
v -295.122894 3.286215 -88.607399
v -294.417694 3.286214 -85.510201
v -299.407410 1.313914 -85.641502
v -299.407410 3.286214 -85.641502
v -305.207611 1.313914 -84.954803
v -305.207611 3.286214 -84.954803
v -304.174591 1.313912 -76.152298
v -304.174591 3.286212 -76.152298
v -293.468506 1.313913 -77.419899
v -293.468506 3.286213 -77.419899
v -304.506104 2.306858 259.914398
v -307.237701 2.306858 260.173492
v -307.237701 3.945558 260.173492
v -304.506104 3.945558 259.914398
v -307.083588 2.306857 262.134888
v -307.083588 3.945557 262.134888
v -314.641510 2.306857 262.853699
v -314.641510 3.945557 262.853699
v -313.698212 2.306856 272.769714
v -313.698212 3.945556 272.769714
v -303.572113 2.306856 271.806488
v -303.572113 3.945556 271.806488
v 353.670197 39.429203 -22.688293
v 362.120514 39.429203 -24.096994
v 362.120514 41.484604 -24.096992
v 353.670197 41.484604 -22.688292
v 360.516388 39.429203 -33.224792
v 360.516388 41.484604 -33.224792
v 356.699707 39.429203 -32.588593
v 356.699707 41.484604 -32.588593
v 356.503906 39.429203 -34.392891
v 356.503906 41.484604 -34.392891
v 352.473511 39.429203 -33.717693
v 352.473511 41.484604 -33.717693
v -1028.297241 10.464832 414.286285
v -1028.111084 10.464833 411.894012
v -1028.111084 12.584733 411.894012
v -1028.297241 12.584732 414.286285
v -1035.210449 10.464833 411.340698
v -1035.210449 12.584733 411.340698
v -1036.211182 10.464831 424.200714
v -1036.211182 12.584731 424.200714
v -1019.488281 10.464830 425.504089
v -1019.488281 12.584730 425.504089
v -1018.496704 10.464833 412.643311
v -1018.496704 12.584733 412.643311
v -1024.862793 10.464833 412.147095
v -1024.862793 12.584733 412.147095
v -1025.047241 10.464832 414.539612
v -1025.047241 12.584732 414.539612
v -58.184601 32.810406 -1275.340088
v -59.088799 32.810410 -1276.378662
v -59.088799 34.408310 -1276.378662
v -58.184601 34.408306 -1275.340088
v -64.176598 32.810406 -1271.956421
v -64.176598 34.408306 -1271.956421
v -63.900600 32.810406 -1269.108643
v -63.900600 34.408306 -1269.108643
v -57.639900 32.810406 -1269.715576
v -57.639900 34.408306 -1269.715576
v -57.836300 32.810406 -1271.743042
v -57.836300 34.408306 -1271.743042
v -58.668999 32.810406 -1271.662354
v -58.668999 34.408306 -1271.662354
v -58.802502 32.810406 -1273.039673
v -58.802502 34.408306 -1273.039673
v -58.027100 32.810406 -1273.713623
v -58.027100 34.408306 -1273.713623
v -937.203918 10.834816 515.143494
v -939.817200 10.834818 504.433807
v -939.817200 12.649718 504.433807
v -937.203918 12.649716 515.143494
v -944.153870 10.834818 505.490906
v -944.153870 12.649718 505.490906
v -944.636292 10.834816 516.955078
v -944.636292 12.649716 516.955078
v 597.193787 67.793228 -203.551392
v 596.505920 67.793228 -209.333389
v 596.505920 69.864731 -209.333389
v 597.193787 69.864731 -203.551392
v 595.122681 67.793236 -218.350784
v 595.122681 69.864738 -218.350784
v 579.251587 67.793236 -216.829987
v 579.251587 69.864738 -216.829987
v 580.615784 67.793228 -202.598984
v 580.615784 69.864731 -202.598984
v -37.492500 40.249821 -757.197205
v -37.956501 40.249821 -760.153625
v -37.956501 42.211521 -760.153625
v -37.492500 42.211521 -757.197205
v -40.183498 40.249821 -759.804871
v -40.183498 42.211521 -759.804871
v -40.556499 40.249825 -762.186523
v -40.556499 42.211525 -762.186523
v -38.330002 40.249825 -762.533875
v -38.330002 42.211525 -762.533875
v -38.587101 40.249825 -764.171875
v -38.587101 42.211525 -764.171875
v -50.750500 40.249825 -762.274414
v -50.750500 42.211525 -762.274414
v -49.656799 40.249821 -755.292175
v -49.656799 42.211521 -755.292175
v -358.716888 3.855906 575.248474
v -372.404694 3.855906 574.630127
v -372.404694 6.155807 574.630127
v -358.716888 6.155806 575.248474
v -373.314514 3.855903 594.671875
v -373.314514 6.155803 594.671875
v -357.371887 3.855903 595.400513
v -357.371887 6.155803 595.400513
v 827.076111 76.180107 -61.962490
v 827.560303 76.180107 -61.796089
v 827.560303 78.049904 -61.796089
v 827.076111 78.049904 -61.962490
v 827.545715 76.180107 -61.750290
v 827.545715 78.049904 -61.750290
v 830.802185 76.180107 -60.278290
v 830.802185 78.049904 -60.278290
v 832.502197 76.180107 -65.618187
v 832.502197 78.049904 -65.618187
v 827.834290 76.180107 -67.222687
v 827.834290 78.049904 -67.222687
v 823.223572 76.180107 -69.007385
v 823.223572 78.049904 -69.007385
v 822.568420 76.180107 -67.961182
v 822.568420 78.049904 -67.961182
v 821.541809 76.180107 -64.463882
v 821.541809 78.049904 -64.463882
v 223.031601 11.747751 297.161896
v 226.720703 11.747751 296.137909
v 226.720703 13.451951 296.137909
v 223.031601 13.451951 297.161896
v 229.613602 11.747752 295.589996
v 229.613602 13.451952 295.589996
v 227.234100 11.747751 295.625488
v 227.234100 13.451951 295.625488
v 221.535507 11.747751 296.062286
v 221.535507 13.451951 296.062286
v 215.740097 11.747751 296.711090
v 215.740097 13.451951 296.711090
v 211.462296 11.747751 297.229889
v 211.462296 13.451951 297.229889
v 205.064301 11.747751 299.719513
v 205.064301 13.451951 299.719513
v 206.565994 11.747750 303.555298
v 206.565994 13.451950 303.555298
v -731.430481 7.587323 475.535614
v -721.545105 7.587322 476.339905
v -721.545105 9.666722 476.339905
v -731.430481 9.666722 475.535614
v -721.152405 7.587323 471.562286
v -721.152405 9.666722 471.562286
v -721.987915 7.587323 471.494293
v -721.987915 9.666722 471.494293
v -721.745483 7.587324 468.545502
v -721.745483 9.666723 468.545502
v -720.910217 7.587324 468.614197
v -720.910217 9.666723 468.614197
v -720.663818 7.587324 465.616486
v -720.663818 9.666723 465.616486
v -730.548523 7.587324 464.803802
v -730.548523 9.666724 464.803802
v -397.992889 3.783238 380.010803
v -400.234985 3.783238 380.188995
v -400.234985 5.905038 380.188995
v -397.992889 5.905038 380.010803
v -400.009888 3.783237 383.031708
v -400.009888 5.905037 383.031708
v -388.194611 3.783238 382.092407
v -388.194611 5.905037 382.092407
v -388.897491 3.783239 373.217896
v -388.897491 5.905039 373.217896
v -400.713104 3.783239 374.153687
v -400.713104 5.905039 374.153687
v -400.453613 3.783238 377.429901
v -400.453613 5.905038 377.429901
v -398.211395 3.783238 377.252289
v -398.211395 5.905038 377.252289
v -499.356598 13.137422 1094.645752
v -499.052185 13.137321 1103.121826
v -499.052185 15.219921 1103.121826
v -499.356598 15.219922 1094.645752
v -483.580597 13.137321 1102.597412
v -483.580597 15.219921 1102.597412
v -483.707489 13.137421 1099.003296
v -483.707489 15.219921 1099.003296
v -484.624390 13.137421 1099.034424
v -484.624390 15.219921 1099.034424
v -484.681091 13.137422 1097.457397
v -484.681091 15.219922 1097.457397
v -483.764496 13.137422 1097.388184
v -483.764496 15.219922 1097.388184
v -483.902496 13.137422 1093.478394
v -483.902496 15.219922 1093.478394
vt 0.8571 0.0000
vt 1.4286 0.0000
vt 1.4286 1.0000
vt 0.8571 1.0000
vt 0.5000 0.0000
vt 1.3571 0.0000
vt 1.3571 1.0000
vt 0.5000 1.0000
vt 0.7143 0.0000
vt 0.9286 0.0000
vt 0.9286 1.0000
vt 0.7143 1.0000
vt 0.4286 0.0000
vt 0.5714 0.0000
vt 0.5714 1.0000
vt 0.4286 1.0000
vt 0.4286 0.0000
vt 0.5714 0.0000
vt 0.5714 1.0000
vt 0.4286 1.0000
vt 0.0000 0.0000
vt 0.1429 0.0000
vt 0.1429 1.0000
vt 0.0000 1.0000
vt 0.2857 0.0000
vt 0.4286 0.0000
vt 0.4286 1.0000
vt 0.2857 1.0000
vt 0.7143 0.0000
vt 1.5714 0.0000
vt 1.5714 1.0000
vt 0.7143 1.0000
vt 0.8571 0.0000
vt 2.1429 0.0000
vt 2.1429 1.0000
vt 0.8571 1.0000
vt 0.4286 0.0000
vt 1.4286 0.0000
vt 1.4286 1.0000
vt 0.4286 1.0000
vt 0.7857 0.0000
vt 2.0714 0.0000
vt 2.0714 1.0000
vt 0.7857 1.0000
vt 0.2857 0.0000
vt 1.2857 0.0000
vt 1.2857 1.0000
vt 0.2857 1.0000
vt 0.3571 0.0000
vt 0.9286 0.0000
vt 0.9286 1.0000
vt 0.3571 1.0000
vt 0.5714 0.0000
vt 1.7143 -0.0000
vt 1.7143 1.0000
vt 0.5714 1.0000
vt 0.0714 0.0000
vt 0.6429 0.0000
vt 0.6429 1.0000
vt 0.0714 1.0000
vt 0.0714 0.0000
vt 1.2143 0.0000
vt 1.2143 1.0000
vt 0.0714 1.0000
vt 0.0000 0.0000
vt 0.2143 -0.0000
vt 0.2143 1.0000
vt 0.0000 1.0000
vt 0.7143 0.0000
vt 1.0714 0.0000
vt 1.0714 1.0000
vt 0.7143 1.0000
vt 0.8571 0.0000
vt 1.2857 0.0000
vt 1.2857 1.0000
vt 0.8571 1.0000
vt 0.5714 0.0000
vt 1.2143 0.0000
vt 1.2143 1.0000
vt 0.5714 1.0000
vt 0.9286 0.0000
vt 1.7143 -0.0000
vt 1.7143 1.0000
vt 0.9286 1.0000
vt 0.5000 0.0000
vt 1.0714 0.0000
vt 1.0714 1.0000
vt 0.5000 1.0000
vt 0.5714 0.0000
vt 0.7857 0.0000
vt 0.7857 1.0000
vt 0.5714 1.0000
vt 0.3571 0.0000
vt 0.5000 0.0000
vt 0.5000 1.0000
vt 0.3571 1.0000
vt 0.4286 0.0000
vt 1.0000 -0.0000
vt 1.0000 1.0000
vt 0.4286 1.0000
vt 0.7143 0.0000
vt 1.5000 0.0000
vt 1.5000 1.0000
vt 0.7143 1.0000
vt 0.2143 -0.0000
vt 1.0000 -0.0000
vt 1.0000 1.0000
vt 0.2143 1.0000
vt 0.8571 0.0000
vt 1.7857 0.0000
vt 1.7857 1.0000
vt 0.8571 1.0000
vt 0.3571 0.0000
vt 0.9286 0.0000
vt 0.9286 1.0000
vt 0.3571 1.0000
vt 0.7857 0.0000
vt 1.4286 0.0000
vt 1.4286 1.0000
vt 0.7857 1.0000
vt 0.2857 0.0000
vt 0.5714 0.0000
vt 0.5714 1.0000
vt 0.2857 1.0000
vt 0.1429 0.0000
vt 0.2857 0.0000
vt 0.2857 1.0000
vt 0.1429 1.0000
vt 0.7143 0.0000
vt 1.0000 -0.0000
vt 1.0000 1.0000
vt 0.7143 1.0000
vt 0.8571 0.0000
vt 1.6429 -0.0000
vt 1.6429 1.0000
vt 0.8571 1.0000
vt 0.7857 0.0000
vt 0.9286 0.0000
vt 0.9286 1.0000
vt 0.7857 1.0000
vt 0.7143 0.0000
vt 1.2143 0.0000
vt 1.2143 1.0000
vt 0.7143 1.0000
vt 0.0000 0.0000
vt 0.9286 0.0000
vt 0.9286 1.0000
vt 0.0000 1.0000
vt 0.6429 0.0000
vt 1.8571 -0.0000
vt 1.8571 1.0000
vt 0.6429 1.0000
vt 0.7857 0.0000
vt 1.7143 -0.0000
vt 1.7143 1.0000
vt 0.7857 1.0000
vt 0.7143 0.0000
vt 1.2143 0.0000
vt 1.2143 1.0000
vt 0.7143 1.0000
vt 0.7143 0.0000
vt 0.8571 0.0000
vt 0.8571 1.0000
vt 0.7143 1.0000
vt 0.5714 0.0000
vt 0.5714 1.0000
vt 0.6429 0.0000
vt 0.7143 0.0000
vt 0.7143 1.0000
vt 0.6429 1.0000
vt 0.1429 0.0000
vt 0.6429 0.0000
vt 0.6429 1.0000
vt 0.1429 1.0000
vt 0.2857 0.0000
vt 0.5000 0.0000
vt 0.5000 1.0000
vt 0.2857 1.0000
vt 0.9286 0.0000
vt 1.3571 0.0000
vt 1.3571 1.0000
vt 0.9286 1.0000
vt 0.0714 0.0000
vt 0.2143 -0.0000
vt 0.2143 1.0000
vt 0.0714 1.0000
vt 0.7143 0.0000
vt 0.7857 0.0000
vt 0.7857 1.0000
vt 0.7143 1.0000
vt 0.2857 0.0000
vt 0.3571 0.0000
vt 0.3571 1.0000
vt 0.2857 1.0000
vt 0.0000 0.0000
vt 0.0714 0.0000
vt 0.0714 1.0000
vt 0.0000 1.0000
vt 0.5714 0.0000
vt 0.7143 0.0000
vt 0.7143 1.0000
vt 0.5714 1.0000
vt 0.0000 0.0000
vt 0.7857 0.0000
vt 0.7857 1.0000
vt 0.0000 1.0000
vt 0.3571 0.0000
vt 0.7143 0.0000
vt 0.7143 1.0000
vt 0.3571 1.0000
vt 0.8571 0.0000
vt 1.7143 -0.0000
vt 1.7143 1.0000
vt 0.8571 1.0000
vt 0.0714 0.0000
vt 0.6429 0.0000
vt 0.6429 1.0000
vt 0.0714 1.0000
vt 0.0714 0.0000
vt 0.4286 0.0000
vt 0.4286 1.0000
vt 0.0714 1.0000
vt 0.7143 0.0000
vt 1.2857 0.0000
vt 1.2857 1.0000
vt 0.7143 1.0000
vt 0.2857 0.0000
vt 1.3571 0.0000
vt 1.3571 1.0000
vt 0.2857 1.0000
vt 0.6429 0.0000
vt 1.5714 0.0000
vt 1.5714 1.0000
vt 0.6429 1.0000
vt 0.6429 0.0000
vt 1.7143 -0.0000
vt 1.7143 1.0000
vt 0.6429 1.0000
vt 0.2857 0.0000
vt 0.5000 0.0000
vt 0.5000 1.0000
vt 0.2857 1.0000
vt 0.6429 0.0000
vt 0.6429 1.0000
vt 0.1429 0.0000
vt 0.2857 0.0000
vt 0.2857 1.0000
vt 0.1429 1.0000
vt 0.8571 0.0000
vt 1.0000 -0.0000
vt 1.0000 1.0000
vt 0.8571 1.0000
vt 0.7143 0.0000
vt 0.8571 0.0000
vt 0.8571 1.0000
vt 0.7143 1.0000
vt 0.5714 0.0000
vt 1.5000 0.0000
vt 1.5000 1.0000
vt 0.5714 1.0000
vt 0.6429 0.0000
vt 1.1429 -0.0000
vt 1.1429 1.0000
vt 0.6429 1.0000
vt 0.2857 0.0000
vt 1.2143 0.0000
vt 1.2143 1.0000
vt 0.2857 1.0000
vt 0.0000 0.0000
vt 1.1429 -0.0000
vt 1.1429 1.0000
vt 0.0000 1.0000
vt 0.5714 0.0000
vt 2.2143 0.0000
vt 2.2143 1.0000
vt 0.5714 1.0000
vt 0.8571 0.0000
vt 2.1429 0.0000
vt 2.1429 1.0000
vt 0.8571 1.0000
vt 0.9286 0.0000
vt 2.5714 -0.0000
vt 2.5714 1.0000
vt 0.9286 1.0000
vt 0.9286 0.0000
vt 0.9429 0.0000
vt 0.9429 1.0000
vt 0.9286 1.0000
vt 0.0000 0.0000
vt 0.0143 0.0000
vt 0.0143 1.0000
vt 0.0000 1.0000
vt 0.3571 0.0000
vt 0.5714 0.0000
vt 0.5714 1.0000
vt 0.3571 1.0000
vt 0.7857 0.0000
vt 1.0714 0.0000
vt 1.0714 1.0000
vt 0.7857 1.0000
vt 0.2143 -0.0000
vt 0.5000 0.0000
vt 0.5000 1.0000
vt 0.2143 1.0000
vt 0.5714 0.0000
vt 0.8571 0.0000
vt 0.8571 1.0000
vt 0.5714 1.0000
vt 0.1429 0.0000
vt 0.2143 -0.0000
vt 0.2143 1.0000
vt 0.1429 1.0000
vt 0.1429 0.0000
vt 0.3571 0.0000
vt 0.3571 1.0000
vt 0.1429 1.0000
vt 0.1429 0.0000
vt 0.4286 0.0000
vt 0.4286 1.0000
vt 0.1429 1.0000
vt 0.4286 0.0000
vt 0.6429 0.0000
vt 0.6429 1.0000
vt 0.4286 1.0000
vt 0.5714 0.0000
vt 0.7143 0.0000
vt 0.7143 1.0000
vt 0.5714 1.0000
vt 0.6429 0.0000
vt 0.7857 0.0000
vt 0.7857 1.0000
vt 0.6429 1.0000
vt 0.5714 0.0000
vt 0.9286 0.0000
vt 0.9286 1.0000
vt 0.5714 1.0000
vt 0.4286 0.0000
vt 0.7857 0.0000
vt 0.7857 1.0000
vt 0.4286 1.0000
vt 0.4286 0.0000
vt 0.6429 0.0000
vt 0.6429 1.0000
vt 0.4286 1.0000
vt 0.1429 0.0000
vt 0.5714 0.0000
vt 0.5714 1.0000
vt 0.1429 1.0000
vt 0.0000 0.0000
vt 0.2143 -0.0000
vt 0.2143 1.0000
vt 0.0000 1.0000
vt 0.7143 0.0000
vt 1.7143 -0.0000
vt 1.7143 1.0000
vt 0.7143 1.0000
vt 0.7143 0.0000
vt 1.3571 0.0000
vt 1.3571 1.0000
vt 0.7143 1.0000
vt 0.7143 0.0000
vt 1.0714 0.0000
vt 1.0714 1.0000
vt 0.7143 1.0000
vt 0.2143 -0.0000
vt 0.2857 0.0000
vt 0.2857 1.0000
vt 0.2143 1.0000
vt 0.6429 0.0000
vt 0.8571 0.0000
vt 0.8571 1.0000
vt 0.6429 1.0000
vt 0.9286 0.0000
vt 1.0000 -0.0000
vt 1.0000 1.0000
vt 0.9286 1.0000
vt 0.7857 0.0000
vt 1.0000 -0.0000
vt 1.0000 1.0000
vt 0.7857 1.0000
vt 0.3571 0.0000
vt 1.0000 -0.0000
vt 1.0000 1.0000
vt 0.3571 1.0000
vt 0.7857 0.0000
vt 1.5000 0.0000
vt 1.5000 1.0000
vt 0.7857 1.0000
vt 0.5000 0.0000
vt 0.6429 0.0000
vt 0.6429 1.0000
vt 0.5000 1.0000
vt 0.7143 0.0000
vt 0.9286 0.0000
vt 0.9286 1.0000
vt 0.7143 1.0000
vt 0.5714 0.0000
vt 1.4286 0.0000
vt 1.4286 1.0000
vt 0.5714 1.0000
vt 0.3571 0.0000
vt 1.0000 -0.0000
vt 1.0000 1.0000
vt 0.3571 1.0000
vt 0.5714 0.0000
vt 1.4286 0.0000
vt 1.4286 1.0000
vt 0.5714 1.0000
vt 0.8571 0.0000
vt 1.0714 0.0000
vt 1.0714 1.0000
vt 0.8571 1.0000
vt 0.0714 0.0000
vt 0.2143 -0.0000
vt 0.2143 1.0000
vt 0.0714 1.0000
vt 0.1429 0.0000
vt 0.3571 0.0000
vt 0.3571 1.0000
vt 0.1429 1.0000
vt 0.6429 0.0000
vt 1.1429 -0.0000
vt 1.1429 1.0000
vt 0.6429 1.0000
vt 0.3571 0.0000
vt 1.2143 0.0000
vt 1.2143 1.0000
vt 0.3571 1.0000
vt 0.5000 0.0000
vt 0.7143 0.0000
vt 0.7143 1.0000
vt 0.5000 1.0000
vt 0.2857 0.0000
vt 0.3571 0.0000
vt 0.3571 1.0000
vt 0.2857 1.0000
vt 0.1429 0.0000
vt 0.2143 -0.0000
vt 0.2143 1.0000
vt 0.1429 1.0000
vt 0.5714 0.0000
vt 0.6429 0.0000
vt 0.6429 1.0000
vt 0.5714 1.0000
vt 0.5000 0.0000
vt 0.7143 0.0000
vt 0.7143 1.0000
vt 0.5000 1.0000
vt 0.6429 0.0000
vt 1.5000 0.0000
vt 1.5000 1.0000
vt 0.6429 1.0000
vn 0.0599 0.0000 -0.9982
vn -0.9982 0.0000 -0.0599
vn -0.0599 0.0000 0.9982
vn 0.9982 0.0000 0.0599
vn -0.9916 0.0000 -0.1293
vn 0.9916 0.0000 0.1293
vn 0.9880 0.0000 -0.1547
vn -0.1547 0.0000 -0.9880
vn -0.9878 0.0000 0.1559
vn 0.1763 0.0000 0.9843
vn 0.1657 0.0000 0.9862
vn 0.9861 0.0000 -0.1663
vn -0.1666 0.0000 -0.9860
vn -0.9862 0.0000 0.1658
vn 0.9750 0.0000 -0.2220
vn -0.5692 0.0000 -0.8222
vn -0.1176 0.0000 -0.9931
vn -0.9932 0.0000 0.1166
vn 0.1176 0.0000 0.9931
vn 0.9932 0.0000 -0.1165
vn -0.0944 0.0000 -0.9955
vn -0.9969 0.0000 0.0783
vn -0.0947 0.0000 -0.9955
vn -0.9955 0.0000 0.0947
vn 0.0947 0.0000 0.9955
vn 0.9969 0.0000 -0.0783
vn 0.1644 -0.0000 0.9864
vn 0.9849 0.0000 -0.1731
vn -0.1644 0.0000 -0.9864
vn 0.9942 0.0000 -0.1079
vn -0.1652 0.0000 -0.9863
vn -0.9942 0.0000 0.1079
vn 0.9970 0.0000 0.0776
vn 0.0777 0.0000 -0.9970
vn -0.9970 0.0000 -0.0776
vn -0.0777 0.0000 0.9970
vn 0.9970 0.0000 0.0769
vn -0.9970 0.0000 -0.0769
vn 0.7542 0.0000 -0.6566
vn -0.6560 0.0000 -0.7547
vn -0.9953 0.0000 0.0965
vn 0.0965 0.0000 0.9953
vn 0.9953 0.0000 -0.0964
vn -0.0964 0.0000 -0.9953
vn 0.9953 0.0000 -0.0965
vn 0.6560 0.0000 0.7548
vn 0.9715 0.0000 -0.2371
vn -0.2368 0.0000 -0.9716
vn -0.9991 0.0000 -0.0420
vn 0.2368 0.0000 0.9716
vn 0.9930 0.0000 -0.1181
vn 0.9884 0.0000 -0.1516
vn -0.0954 0.0000 -0.9954
vn -0.9954 0.0000 0.0954
vn 0.0574 0.0000 0.9984
vn 0.9879 0.0000 -0.1550
vn 0.1541 0.0000 0.9880
vn 0.9879 0.0000 -0.1551
vn -0.1541 0.0000 -0.9880
vn -0.9880 0.0000 0.1548
vn 0.1547 0.0000 0.9880
vn 0.0451 0.0000 -0.9990
vn -0.9990 0.0000 -0.0453
vn -0.0457 0.0000 0.9990
vn 0.9978 0.0000 -0.0666
vn -0.3250 0.0000 0.9457
vn -0.9528 0.0000 -0.3035
vn -0.4119 0.0000 0.9112
vn 0.9529 0.0000 0.3034
vn 0.3251 0.0000 -0.9457
vn 0.3610 0.0000 -0.9326
vn -0.8475 0.0000 -0.5307
vn -0.9595 0.0000 -0.2817
vn 0.2675 0.0000 0.9636
vn 0.1861 0.0000 0.9825
vn -0.0149 0.0000 -0.9999
vn -0.0764 0.0000 -0.9971
vn -0.1113 0.0000 -0.9938
vn -0.1158 0.0000 -0.9933
vn -0.1204 0.0000 -0.9927
vn -0.3626 0.0000 -0.9319
vn -0.9312 0.0000 0.3646
vn 0.3620 0.0000 0.9322
vn -0.0811 0.0000 0.9967
vn 0.9966 0.0000 0.0819
vn 0.0811 0.0000 -0.9967
vn -0.0820 0.0000 0.9966
vn 0.0819 0.0000 -0.9966
vn -0.9966 0.0000 -0.0819
vn -0.0792 0.0000 -0.9969
vn -0.9969 0.0000 0.0789
vn 0.0793 0.0000 0.9969
vn 0.9969 0.0000 -0.0790
vn -0.0790 0.0000 -0.9969
vn -0.9969 0.0000 0.0790
vn 0.0790 0.0000 0.9969
vn -0.9994 0.0000 0.0359
vn 0.0339 0.0000 0.9994
vn 0.9994 0.0000 -0.0353
vn -0.0340 0.0000 -0.9994
vn 0.9994 0.0000 -0.0359
vn 0.0754 0.0000 0.9972
vn -0.0753 0.0000 -0.9972
g CityEngineMaterial_635_CityEngineMaterial_635_CityEngineMaterial_635_mat
usemtl CityEngineMaterial_635_mat
s 1
f 1/1/1 2/2/1 3/3/1 4/4/1
f 2/5/2 5/6/2 6/7/2 3/8/2
f 5/9/3 7/10/3 8/11/3 6/12/3
f 7/13/4 9/14/4 10/15/4 8/16/4
f 9/17/3 11/18/3 12/19/3 10/20/3
f 11/21/5 13/22/5 14/23/5 12/24/5
f 13/25/3 15/26/3 16/27/3 14/28/3
f 15/29/6 1/30/6 4/31/6 16/32/6
f 17/33/7 18/34/7 19/35/7 20/36/7
f 18/37/8 21/38/8 22/39/8 19/40/8
f 21/41/9 23/42/9 24/43/9 22/44/9
f 23/45/10 17/46/10 20/47/10 24/48/10
f 25/49/11 26/50/11 27/51/11 28/52/11
f 26/53/12 29/54/12 30/55/12 27/56/12
f 29/57/13 31/58/13 32/59/13 30/60/13
f 31/61/14 25/62/14 28/63/14 32/64/14
f 33/65/15 34/66/15 35/67/15 36/68/15
f 34/69/16 37/70/16 38/71/16 35/72/16
f 37/73/17 39/74/17 40/75/17 38/76/17
f 39/77/18 41/78/18 42/79/18 40/80/18
f 41/81/19 43/82/19 44/83/19 42/84/19
f 43/85/20 33/86/20 36/87/20 44/88/20
f 45/89/21 46/90/21 47/91/21 48/92/21
f 46/93/22 49/94/22 50/95/22 47/96/22
f 49/97/23 51/98/23 52/99/23 50/100/23
f 51/101/24 53/102/24 54/103/24 52/104/24
f 53/105/25 55/106/25 56/107/25 54/108/25
f 55/109/26 45/110/26 48/111/26 56/112/26
f 57/113/27 58/114/27 59/115/27 60/116/27
f 58/117/28 61/118/28 62/119/28 59/120/28
f 61/121/29 63/122/29 64/123/29 62/124/29
f 63/125/30 65/126/30 66/127/30 64/128/30
f 65/129/31 67/130/31 68/131/31 66/132/31
f 67/133/32 57/134/32 60/135/32 68/136/32
f 69/137/33 70/138/33 71/139/33 72/140/33
f 70/141/34 73/142/34 74/143/34 71/144/34
f 73/145/35 75/146/35 76/147/35 74/148/35
f 75/149/36 77/150/36 78/151/36 76/152/36
f 77/153/37 79/154/37 80/155/37 78/156/37
f 79/157/34 81/158/34 82/159/34 80/160/34
f 81/161/38 83/162/38 84/163/38 82/164/38
f 83/165/34 69/137/34 72/140/34 84/166/34
f 85/167/39 86/168/39 87/169/39 88/170/39
f 86/171/40 89/172/40 90/173/40 87/174/40
f 89/175/41 91/176/41 92/177/41 90/178/41
f 91/179/42 93/180/42 94/181/42 92/182/42
f 93/183/43 95/184/43 96/185/43 94/186/43
f 95/187/44 97/188/44 98/189/44 96/190/44
f 97/191/45 99/192/45 100/193/45 98/194/45
f 99/195/46 101/196/46 102/197/46 100/198/46
f 101/199/43 85/200/43 88/201/43 102/202/43
f 103/203/47 104/204/47 105/205/47 106/206/47
f 104/207/48 107/208/48 108/209/48 105/210/48
f 107/211/49 109/212/49 110/213/49 108/214/49
f 109/215/50 103/216/50 106/217/50 110/218/50
f 111/219/51 112/220/51 113/221/51 114/222/51
f 112/223/52 115/224/52 116/225/52 113/226/52
f 115/227/53 117/228/53 118/229/53 116/230/53
f 117/231/54 119/232/54 120/233/54 118/234/54
f 119/235/55 111/236/55 114/237/55 120/238/55
f 121/239/56 122/240/56 123/241/56 124/242/56
f 122/240/8 125/243/8 126/244/8 123/241/8
f 125/245/7 127/246/7 128/247/7 126/248/7
f 127/249/57 129/250/57 130/251/57 128/252/57
f 129/253/58 131/254/58 132/255/58 130/256/58
f 131/257/59 133/258/59 134/259/59 132/260/59
f 133/261/60 135/262/60 136/263/60 134/264/60
f 135/265/61 121/266/61 124/267/61 136/268/61
f 137/269/62 138/270/62 139/271/62 140/272/62
f 138/273/63 141/274/63 142/275/63 139/276/63
f 141/277/64 143/278/64 144/279/64 142/280/64
f 143/281/65 137/282/65 140/283/65 144/284/65
f 145/285/66 146/286/66 147/287/66 148/288/66
f 146/289/67 149/290/67 150/291/67 147/292/67
f 149/293/68 151/294/68 152/295/68 150/296/68
f 151/297/69 153/298/69 154/299/69 152/300/69
f 153/301/70 155/302/70 156/303/70 154/304/70
f 155/305/71 157/306/71 158/307/71 156/308/71
f 157/309/72 159/310/72 160/311/72 158/312/72
f 159/313/73 161/314/73 162/315/73 160/316/73
f 161/317/68 145/318/68 148/319/68 162/320/68
f 163/321/74 164/322/74 165/323/74 166/324/74
f 164/325/75 167/326/75 168/327/75 165/328/75
f 167/329/76 169/330/76 170/331/76 168/332/76
f 169/333/77 171/334/77 172/335/77 170/336/77
f 171/337/78 173/338/79 174/339/79 172/340/78
f 173/341/79 175/342/80 176/343/80 174/344/79
f 175/345/81 177/346/81 178/347/81 176/348/81
f 177/349/82 179/350/82 180/351/82 178/352/82
f 179/353/83 163/354/83 166/355/83 180/356/83
f 181/357/84 182/358/84 183/359/84 184/360/84
f 182/361/85 185/362/85 186/363/85 183/364/85
f 185/365/86 187/366/86 188/367/86 186/368/86
f 187/369/85 189/370/85 190/371/85 188/372/85
f 189/373/87 191/374/87 192/375/87 190/376/87
f 191/377/85 193/378/85 194/379/85 192/380/85
f 193/381/88 195/382/88 196/383/88 194/384/88
f 195/385/89 181/386/89 184/387/89 196/388/89
f 197/389/90 198/390/90 199/391/90 200/392/90
f 198/393/91 201/394/91 202/395/91 199/396/91
f 201/397/92 203/398/92 204/399/92 202/400/92
f 203/401/93 205/402/93 206/403/93 204/404/93
f 205/405/94 207/406/94 208/407/94 206/408/94
f 207/409/95 209/410/95 210/411/95 208/412/95
f 209/413/96 211/414/96 212/415/96 210/416/96
f 211/417/95 197/418/95 200/419/95 212/420/95
f 213/421/97 214/422/97 215/423/97 216/424/97
f 214/425/98 217/426/98 218/427/98 215/428/98
f 217/429/99 219/430/99 220/431/99 218/432/99
f 219/433/100 221/434/100 222/435/100 220/436/100
f 221/437/101 223/438/101 224/439/101 222/440/101
f 223/441/102 225/442/102 226/443/102 224/444/102
f 225/445/99 227/446/99 228/447/99 226/448/99
f 227/449/103 213/450/103 216/451/103 228/452/103
