# Blender v2.78 (sub 0) OBJ File: ''
# www.blender.org
mtllib CityEngineMaterial_251.mtl
o CityEngineMaterial_251
v -1085.351196 12.150236 389.823792
v -1086.476074 12.150235 398.406189
v -1086.476074 13.800035 398.406311
v -1085.351196 13.800036 389.823792
v -1091.079102 12.150235 397.809814
v -1091.079102 13.800035 397.809814
v -1091.583862 12.150234 401.661194
v -1091.583862 13.800035 401.661194
v -1083.486450 12.150234 402.710205
v -1083.486450 13.800035 402.710205
v -1081.857788 12.150236 390.282013
v -1081.857788 13.800036 390.282013
v -898.816772 12.772715 526.299988
v -894.086182 12.772715 525.139771
v -894.086182 13.453014 525.139771
v -898.816772 13.453014 526.299988
v -893.935974 12.772716 521.544617
v -893.935974 13.453015 521.544617
v -889.905029 12.772716 520.556091
v -889.905029 13.453015 520.556091
v -889.570129 12.772717 512.645630
v -889.570129 13.453016 512.645630
v -898.336121 12.772717 514.795410
v -898.336121 13.453016 514.795410
v -766.755127 11.612197 634.564575
v -770.287415 11.612197 633.623230
v -770.287415 13.694897 633.623230
v -766.755127 13.694897 634.564575
v -771.301575 11.612196 637.412781
v -771.301575 13.694896 637.412781
v -762.445190 11.612196 639.772888
v -762.445190 13.694896 639.772888
v -758.925720 11.612198 626.613098
v -758.925720 13.694898 626.613098
v -767.779907 11.612198 624.252991
v -767.779907 13.694898 624.252991
v -768.787170 11.612198 628.017212
v -768.787170 13.694898 628.017212
v -765.255676 11.612198 628.958618
v -765.255676 13.694898 628.958618
v 1028.805542 118.322861 -385.459656
v 1023.702881 118.322861 -392.029572
v 1023.702881 120.020363 -392.029572
v 1028.805542 120.020363 -385.459656
v 1019.967407 118.322861 -389.628876
v 1019.967407 120.020363 -389.628876
v 1021.094727 118.322861 -388.177460
v 1021.094727 120.020363 -388.177460
v 1013.770813 118.322861 -383.468781
v 1013.770813 120.020363 -383.468781
v 1017.743408 118.322861 -378.347778
v 1017.743408 120.020363 -378.347778
v 1180.670166 102.713181 -522.871826
v 1176.535767 102.713181 -532.651978
v 1176.535767 104.515785 -532.651978
v 1180.670166 104.515785 -522.871826
v 1173.047119 102.713181 -531.182617
v 1173.047119 104.515785 -531.182617
v 1174.030273 102.713181 -528.856873
v 1174.030273 104.515785 -528.856873
v 1168.784790 102.713181 -526.644714
v 1168.784790 104.515785 -526.644714
v 1174.060425 102.713181 -520.084229
v 1174.060425 104.515785 -520.084229
v 1174.791504 105.141586 -531.917297
v 1171.422607 105.854187 -523.364380
v 13.697700 40.100170 -1060.180542
v 14.728300 40.100170 -1054.253540
v 14.728300 40.630672 -1054.253540
v 13.697700 40.630672 -1060.180542
v 21.530100 40.100170 -1055.318726
v 21.530100 40.630672 -1055.318726
v 21.940001 40.100170 -1052.960815
v 21.940001 40.630672 -1052.960815
v 26.021999 40.100170 -1053.600098
v 26.021999 40.630672 -1053.600098
v 24.581900 40.100170 -1061.885132
v 24.581900 40.630672 -1061.885132
v 14.213000 41.700573 -1057.217041
v 23.981001 41.365471 -1053.280396
v -11.302800 34.839493 -1201.448608
v -11.823500 34.839497 -1210.696655
v -11.823500 36.779797 -1210.696655
v -11.302800 36.779793 -1201.448608
v -30.279200 34.839497 -1208.722046
v -30.279200 36.779797 -1208.722046
v -29.171200 34.839493 -1199.521240
v -29.171200 36.779793 -1199.521240
v -22.425400 34.839493 -1200.248901
v -22.425400 36.779793 -1200.248901
v -22.966200 34.839493 -1204.740234
v -22.966200 36.779793 -1204.740234
v -15.391200 34.839493 -1205.550659
v -15.391200 36.779793 -1205.550659
v -15.136900 34.839493 -1201.035034
v -15.136900 36.779793 -1201.035034
v -25.798300 37.772095 -1199.885132
v -13.219900 37.343094 -1201.241821
v -594.033020 11.367302 -623.584412
v -597.470581 11.367303 -629.444519
v -597.470581 11.801903 -629.444519
v -594.033020 11.801902 -623.584412
v -600.119080 11.367302 -628.656616
v -600.119080 11.801902 -628.656616
v -604.388123 11.367304 -635.935181
v -604.388123 11.801904 -635.935181
v -610.266724 11.367303 -634.219116
v -610.266724 11.801903 -634.219116
v -602.544373 11.367301 -621.052185
v -602.544373 11.801901 -621.052185
v 161.606094 41.235275 -1067.952026
v 149.994995 41.235275 -1067.408203
v 149.994995 41.553474 -1067.408203
v 161.606094 41.553474 -1067.952026
v 150.375504 41.235271 -1064.547729
v 150.375504 41.553471 -1064.547729
v 155.534103 41.235271 -1064.789185
v 155.534103 41.553471 -1064.789185
v 155.980804 41.235271 -1061.431152
v 155.980804 41.553471 -1061.431152
v 150.820099 41.235271 -1061.205322
v 150.820099 41.553471 -1061.205322
v 151.392807 41.235271 -1056.899536
v 151.392807 41.553471 -1056.899536
v 163.008606 41.235271 -1057.407959
v 163.008606 41.553471 -1057.407959
v 150.185303 42.172474 -1065.977905
v 151.106400 42.484970 -1059.052368
v -765.921021 51.350269 -1041.062256
v -771.807373 51.350273 -1054.130615
v -771.807373 54.764874 -1054.130615
v -765.921021 54.764870 -1041.062256
v -778.297180 51.350273 -1052.640015
v -778.297180 54.764874 -1052.640015
v -780.858887 51.350273 -1052.052979
v -780.858887 54.764874 -1052.052979
v -779.025208 51.350273 -1047.948364
v -779.025208 54.764874 -1047.948242
v -775.539917 51.350273 -1048.747925
v -775.539917 54.764874 -1048.747925
v -773.674988 51.350273 -1044.607910
v -773.674988 54.764874 -1044.607910
v -776.909485 51.350273 -1043.212524
v -776.909485 54.764874 -1043.212524
v -774.328430 51.350269 -1037.435181
v -774.328430 54.764870 -1037.435181
v -775.619019 56.044067 -1040.323853
v -810.887024 12.714798 628.035095
v -816.073303 12.714798 626.648926
v -816.073303 15.037998 626.648926
v -810.887024 15.037998 628.035095
v -818.301514 12.714797 634.974304
v -818.301514 15.037997 634.974304
v -822.750488 12.714797 633.789673
v -822.750488 15.037997 633.789673
v -823.945374 12.714796 638.254028
v -823.945374 15.037996 638.254028
v -814.308777 12.714796 640.820129
v -814.308777 15.037996 640.820129
vt 0.0000 0.0000
vt 4.0000 0.0000
vt 4.0000 1.0000
vt -0.0000 1.0000
vt 0.5000 0.0000
vt 2.5000 -0.0000
vt 2.5000 1.0000
vt 0.5000 1.0000
vt 0.5000 0.0000
vt 2.5000 -0.0000
vt 2.5000 1.0000
vt 0.5000 1.0000
vt 0.0000 0.0000
vt 4.0000 0.0000
vt 4.0000 1.0000
vt -0.0000 1.0000
vt 0.5000 0.0000
vt 6.5000 0.0000
vt 6.5000 1.0000
vt 0.5000 1.0000
vt 0.0000 0.0000
vt 1.5000 0.0000
vt 1.5000 1.0000
vt -0.0000 1.0000
vt 0.5000 0.9000
vt 2.5000 0.9000
vt 2.5000 1.0000
vt 0.5000 1.0000
vt 0.5000 0.9000
vt 2.0000 0.9000
vt 2.0000 1.0000
vt 0.5000 1.0000
vt 0.5000 0.9000
vt 2.5000 0.9000
vt 2.5000 1.0000
vt 0.5000 1.0000
vt -0.0000 0.9000
vt 3.5000 0.9000
vt 3.5000 1.0000
vt -0.0000 1.0000
vt -0.0000 0.9000
vt 4.0000 0.9000
vt 4.0000 1.0000
vt -0.0000 1.0000
vt 0.5000 0.9000
vt 5.5000 0.9000
vt 5.5000 1.0000
vt 0.5000 1.0000
vt 0.0000 -1.0000
vt 1.5000 -1.0000
vt 1.5000 1.0000
vt -0.0000 1.0000
vt 0.0000 -1.0000
vt 1.5000 -1.0000
vt 1.5000 1.0000
vt -0.0000 1.0000
vt 0.5000 -1.0000
vt 4.0000 -1.0000
vt 4.0000 1.0000
vt 0.5000 1.0000
vt 0.5000 -1.0000
vt 5.5000 -1.0000
vt 5.5000 1.0000
vt 0.5000 1.0000
vt 0.5000 -1.0000
vt 4.0000 -1.0000
vt 4.0000 1.0000
vt 0.5000 1.0000
vt 0.0000 -1.0000
vt 1.5000 -1.0000
vt 1.5000 1.0000
vt -0.0000 1.0000
vt 0.5000 -1.0000
vt 2.0000 -1.0000
vt 2.0000 1.0000
vt 0.5000 1.0000
vt 0.5000 -1.0000
vt 2.5000 -1.0000
vt 2.5000 1.0000
vt 0.5000 1.0000
vt 0.5000 0.0000
vt 4.0000 0.0000
vt 4.0000 1.0000
vt 0.5000 1.0000
vt 0.5000 0.0000
vt 2.5000 -0.0000
vt 2.5000 1.0000
vt 0.5000 1.0000
vt 0.0000 0.0000
vt 1.0000 0.0000
vt 1.0000 1.0000
vt -0.0000 1.0000
vt 0.5000 0.0000
vt 4.0000 0.0000
vt 4.0000 1.0000
vt 0.5000 1.0000
vt 0.0000 0.0000
vt 2.5000 -0.0000
vt 2.5000 1.0000
vt -0.0000 1.0000
vt 0.5000 0.0000
vt 6.0000 0.0000
vt 6.0000 1.0000
vt 0.5000 1.0000
vt 0.5000 -1.0000
vt 4.5000 -1.0000
vt 4.5000 1.0000
vt 0.5000 1.0000
vt 0.5000 -1.0000
vt 2.0000 -1.0000
vt 2.0000 1.0000
vt 0.5000 1.0000
vt 0.5000 -1.0000
vt 1.5000 -1.0000
vt 1.5000 1.0000
vt 0.5000 1.0000
vt 0.0000 -1.0000
vt 2.0000 -1.0000
vt 2.0000 1.0000
vt -0.0000 1.0000
vt 0.5000 -1.0000
vt 3.5000 -1.0000
vt 3.5000 1.0000
vt 0.5000 1.0000
vt 0.0000 -1.0000
vt 2.5000 -1.0000
vt 2.5000 1.0000
vt -0.0000 1.0000
vt 0.5000 0.9000
vt 2.0000 0.9000
vt 1.2500 1.0000
vt 0.0000 0.0000
vt 3.0000 0.0000
vt 1.5000 1.0000
vt 0.5000 0.9000
vt 3.0000 0.9000
vt 3.0000 1.0000
vt 0.5000 1.0000
vt -0.0000 0.9000
vt 3.0000 0.9000
vt 3.0000 1.0000
vt -0.0000 1.0000
vt 0.5000 0.9000
vt 1.5000 0.9000
vt 1.5000 1.0000
vt 0.5000 1.0000
vt 0.5000 0.9000
vt 2.0000 0.9000
vt 2.0000 1.0000
vt 0.5000 1.0000
vt -0.0000 0.9000
vt 3.5000 0.9000
vt 3.5000 1.0000
vt -0.0000 1.0000
vt 0.5000 0.9000
vt 5.0000 0.9000
vt 5.0000 1.0000
vt 0.5000 1.0000
vt 0.0000 0.0000
vt 2.5000 -0.0000
vt 1.2500 1.0000
vt -0.0000 0.9000
vt 1.5000 0.9000
vt 0.7500 1.0000
vt 0.0000 -1.0000
vt 3.5000 -1.0000
vt 3.5000 1.0000
vt -0.0000 1.0000
vt 0.5000 -1.0000
vt 7.0000 -1.0000
vt 7.0000 1.0000
vt 0.5000 1.0000
vt 0.0000 -1.0000
vt 3.5000 -1.0000
vt 3.5000 1.0000
vt -0.0000 1.0000
vt 0.0000 -1.0000
vt 2.5000 -1.0000
vt 2.5000 1.0000
vt -0.0000 1.0000
vt 0.0000 -1.0000
vt 1.5000 -1.0000
vt 1.5000 1.0000
vt -0.0000 1.0000
vt 0.5000 -1.0000
vt 3.5000 -1.0000
vt 3.5000 1.0000
vt 0.5000 1.0000
vt 0.0000 -1.0000
vt 1.5000 -1.0000
vt 1.5000 1.0000
vt -0.0000 1.0000
vt 0.5000 -1.0000
vt 2.0000 -1.0000
vt 2.0000 1.0000
vt 0.5000 1.0000
vt 0.0000 0.0000
vt 2.5000 -0.0000
vt 1.2500 1.0000
vt 0.5000 0.9000
vt 2.0000 0.9000
vt 1.2500 1.0000
vt 0.5000 0.9000
vt 3.5000 0.9000
vt 3.5000 1.0000
vt 0.5000 1.0000
vt 0.5000 0.9000
vt 1.5000 0.9000
vt 1.5000 1.0000
vt 0.5000 1.0000
vt 0.5000 0.9000
vt 4.0000 0.9000
vt 4.0000 1.0000
vt 0.5000 1.0000
vt 0.5000 0.9000
vt 3.0000 0.9000
vt 3.0000 1.0000
vt 0.5000 1.0000
vt -0.0000 0.9000
vt 6.5000 0.9000
vt 6.5000 1.0000
vt -0.0000 1.0000
vt 0.5000 0.9000
vt 4.5000 0.9000
vt 4.5000 1.0000
vt 0.5000 1.0000
vt 0.5000 0.9000
vt 5.0000 0.9000
vt 5.0000 1.0000
vt 0.5000 1.0000
vt -0.0000 0.9000
vt 1.0000 0.9000
vt 1.0000 1.0000
vt -0.0000 1.0000
vt 0.5000 0.9000
vt 2.5000 0.9000
vt 2.5000 1.0000
vt 0.5000 1.0000
vt -0.0000 0.9000
vt 1.5000 0.9000
vt 1.5000 1.0000
vt -0.0000 1.0000
vt 0.5000 0.9000
vt 2.5000 0.9000
vt 2.5000 1.0000
vt 0.5000 1.0000
vt 0.5000 0.9000
vt 2.0000 0.9000
vt 2.0000 1.0000
vt 0.5000 1.0000
vt -0.0000 0.9000
vt 4.5000 0.9000
vt 4.5000 1.0000
vt -0.0000 1.0000
vt 0.5000 0.9000
vt 4.5000 0.9000
vt 4.5000 1.0000
vt 0.5000 1.0000
vt -0.0000 0.9000
vt 1.0000 0.9000
vt 0.5000 1.0000
vt 0.0000 0.0000
vt 1.5000 0.0000
vt 0.7500 1.0000
vt 0.0000 -2.0000
vt 5.5000 -2.0000
vt 5.5000 1.0000
vt -0.0000 1.0000
vt 0.5000 -2.0000
vt 3.0000 -2.0000
vt 3.0000 1.0000
vt 0.5000 1.0000
vt 0.0000 -2.0000
vt 1.0000 -2.0000
vt 1.0000 1.0000
vt -0.0000 1.0000
vt 0.0000 -2.0000
vt 1.5000 -2.0000
vt 1.5000 1.0000
vt -0.0000 1.0000
vt 0.5000 -2.0000
vt 2.0000 -2.0000
vt 2.0000 1.0000
vt 0.5000 1.0000
vt 0.0000 -2.0000
vt 1.5000 -2.0000
vt 1.5000 1.0000
vt -0.0000 1.0000
vt 0.0000 -2.0000
vt 1.5000 -2.0000
vt 1.5000 1.0000
vt -0.0000 1.0000
vt 0.0000 -2.0000
vt 2.5000 -2.0000
vt 2.5000 1.0000
vt -0.0000 1.0000
vt 0.0000 -2.0000
vt 3.5000 -2.0000
vt 3.5000 1.0000
vt -0.0000 1.0000
vt 0.0000 0.0000
vt 2.5000 -0.0000
vt 1.2500 1.0000
vt 0.0000 -1.0000
vt 2.0000 -1.0000
vt 2.0000 1.0000
vt -0.0000 1.0000
vt 0.5000 -1.0000
vt 4.0000 -1.0000
vt 4.0000 1.0000
vt 0.5000 1.0000
vt 0.0000 -1.0000
vt 2.0000 -1.0000
vt 2.0000 1.0000
vt -0.0000 1.0000
vt 0.0000 -1.0000
vt 2.0000 -1.0000
vt 2.0000 1.0000
vt -0.0000 1.0000
vt 0.5000 -1.0000
vt 4.5000 -1.0000
vt 4.5000 1.0000
vt 0.5000 1.0000
vt 0.0000 -1.0000
vt 5.5000 -1.0000
vt 5.5000 1.0000
vt -0.0000 1.0000
vn -0.9915 0.0001 -0.1300
vn 0.1285 0.0000 -0.9917
vn -0.9915 0.0000 -0.1299
vn -0.1285 0.0000 0.9917
vn 0.9915 0.0000 0.1299
vn 0.1301 0.0000 -0.9915
vn 0.2382 0.0000 0.9712
vn 0.9991 0.0000 0.0417
vn 0.9991 0.0000 0.0423
vn -0.2382 0.0000 -0.9712
vn -0.9991 0.0000 -0.0417
vn 0.2575 0.0000 -0.9663
vn -0.9660 0.0000 -0.2585
vn -0.2575 0.0000 0.9663
vn 0.9660 0.0000 0.2584
vn 0.2576 0.0000 -0.9663
vn -0.2576 0.0000 0.9663
vn -0.9660 0.0000 -0.2584
vn 0.7898 0.0000 -0.6134
vn -0.5406 0.0000 -0.8413
vn -0.7898 0.0000 0.6134
vn -0.5408 0.0000 -0.8412
vn -0.7901 0.0000 0.6129
vn 0.5408 0.0000 0.8412
vn 0.9211 0.0000 -0.3894
vn -0.3882 0.0000 -0.9216
vn -0.9211 0.0000 0.3894
vn -0.3886 0.0000 -0.9214
vn -0.7793 0.0000 0.6267
vn 0.3886 0.0000 0.9214
vn -0.3882 -0.0001 -0.9216
vn -0.9852 0.0000 0.1713
vn 0.1547 0.0000 0.9880
vn 0.9852 0.0000 -0.1713
vn -0.1547 0.0000 -0.9880
vn 0.1547 -0.0001 0.9880
vn 0.9984 0.0000 -0.0562
vn -0.1064 0.0000 -0.9943
vn -0.9928 0.0000 0.1196
vn 0.1072 0.0000 0.9942
vn 0.9928 0.0000 -0.1195
vn 0.1064 0.0000 0.9943
vn -0.9984 0.0000 0.0562
vn 0.1073 0.0001 0.9942
vn 0.8626 0.0000 -0.5060
vn -0.2852 0.0000 -0.9585
vn 0.8626 0.0000 -0.5059
vn -0.2802 0.0000 -0.9599
vn -0.8626 0.0000 0.5059
vn 0.2852 0.0000 0.9585
vn -0.0468 0.0000 -0.9989
vn -0.9913 0.0000 0.1319
vn 0.0468 0.0000 0.9989
vn -0.0437 0.0000 -0.9990
vn -0.9913 0.0000 0.1318
vn 0.0437 0.0000 0.9990
vn 0.9913 0.0000 -0.1319
vn -0.9913 0.0001 0.1319
vn 0.9118 0.0000 -0.4107
vn -0.2239 0.0000 -0.9746
vn -0.2236 0.0000 -0.9747
vn -0.2234 0.0000 -0.9747
vn -0.9130 0.0000 0.4079
vn 0.2236 -0.0000 0.9747
vn -0.9118 0.0000 0.4107
vn -0.3961 0.0000 -0.9182
vn 0.3961 0.0000 0.9182
vn 0.2582 0.0000 -0.9661
vn 0.2573 0.0000 -0.9663
vn -0.2573 0.0000 0.9663
vn 0.9660 0.0000 0.2585
g CityEngineMaterial_251_CityEngineMaterial_251_CityEngineMaterial_251_mat
usemtl CityEngineMaterial_251_mat
s 1
f 1/1/1 2/2/1 3/3/1 4/4/1
f 2/5/2 5/6/2 6/7/2 3/8/2
f 5/9/3 7/10/3 8/11/3 6/12/3
f 7/13/4 9/14/4 10/15/4 8/16/4
f 9/17/5 11/18/5 12/19/5 10/20/5
f 11/21/6 1/22/6 4/23/6 12/24/6
f 13/25/7 14/26/7 15/27/7 16/28/7
f 14/29/8 17/30/8 18/31/8 15/32/8
f 17/33/7 19/34/7 20/35/7 18/36/7
f 19/37/9 21/38/9 22/39/9 20/40/9
f 21/41/10 23/42/10 24/43/10 22/44/10
f 23/45/11 13/46/11 16/47/11 24/48/11
f 25/49/12 26/50/12 27/51/12 28/52/12
f 26/53/13 29/54/13 30/55/13 27/56/13
f 29/57/14 31/58/14 32/59/14 30/60/14
f 31/61/15 33/62/15 34/63/15 32/64/15
f 33/65/16 35/66/16 36/67/16 34/68/16
f 35/69/13 37/70/13 38/71/13 36/72/13
f 37/73/17 39/74/17 40/75/17 38/76/17
f 39/77/18 25/78/18 28/79/18 40/80/18
f 41/81/19 42/82/19 43/83/19 44/84/19
f 42/85/20 45/86/20 46/87/20 43/88/20
f 45/89/21 47/90/21 48/91/21 46/92/21
f 47/93/22 49/94/22 50/95/22 48/96/22
f 49/97/23 51/98/23 52/99/23 50/100/23
f 51/101/24 41/102/24 44/103/24 52/104/24
f 53/105/25 54/106/25 55/107/25 56/108/25
f 54/109/26 57/110/26 58/111/26 55/112/26
f 57/113/27 59/114/27 60/115/27 58/116/27
f 59/117/28 61/118/28 62/119/28 60/120/28
f 61/121/29 63/122/29 64/123/29 62/124/29
f 63/125/30 53/126/30 56/127/30 64/128/30
f 55/129/31 58/130/31 65/131/31
f 62/132/29 64/133/29 66/134/29
f 67/135/32 68/136/32 69/137/32 70/138/32
f 68/139/33 71/140/33 72/141/33 69/142/33
f 71/143/32 73/144/32 74/145/32 72/146/32
f 73/147/33 75/148/33 76/149/33 74/150/33
f 75/151/34 77/152/34 78/153/34 76/154/34
f 77/155/35 67/156/35 70/157/35 78/158/35
f 70/159/32 69/160/32 79/161/32
f 74/162/36 76/163/36 80/164/36
f 81/165/37 82/166/37 83/167/37 84/168/37
f 82/169/38 85/170/38 86/171/38 83/172/38
f 85/173/39 87/174/39 88/175/39 86/176/39
f 87/177/40 89/178/40 90/179/40 88/180/40
f 89/181/41 91/182/41 92/183/41 90/184/41
f 91/185/42 93/186/42 94/187/42 92/188/42
f 93/189/43 95/190/43 96/191/43 94/192/43
f 95/193/40 81/194/40 84/195/40 96/196/40
f 88/197/44 90/198/44 97/199/44
f 96/200/40 84/201/40 98/202/40
f 99/203/45 100/204/45 101/205/45 102/206/45
f 100/207/46 103/208/46 104/209/46 101/210/46
f 103/211/47 105/212/47 106/213/47 104/214/47
f 105/215/48 107/216/48 108/217/48 106/218/48
f 107/219/49 109/220/49 110/221/49 108/222/49
f 109/223/50 99/224/50 102/225/50 110/226/50
f 111/227/51 112/228/51 113/229/51 114/230/51
f 112/231/52 115/232/52 116/233/52 113/234/52
f 115/235/53 117/236/53 118/237/53 116/238/53
f 117/239/52 119/240/52 120/241/52 118/242/52
f 119/243/54 121/244/54 122/245/54 120/246/54
f 121/247/55 123/248/55 124/249/55 122/250/55
f 123/251/56 125/252/56 126/253/56 124/254/56
f 125/255/57 111/256/57 114/257/57 126/258/57
f 113/259/58 116/260/58 127/261/58
f 122/262/55 124/263/55 128/264/55
f 129/265/59 130/266/59 131/267/59 132/268/59
f 130/269/60 133/270/61 134/271/61 131/272/60
f 133/273/61 135/274/62 136/275/62 134/276/61
f 135/277/63 137/278/63 138/279/63 136/280/63
f 137/281/64 139/282/64 140/283/64 138/284/64
f 139/285/65 141/286/65 142/287/65 140/288/65
f 141/289/66 143/290/66 144/291/66 142/292/66
f 143/293/63 145/294/63 146/295/63 144/296/63
f 145/297/67 129/298/67 132/299/67 146/300/67
f 144/301/63 146/302/63 147/303/63
f 148/304/68 149/305/68 150/306/68 151/307/68
f 149/308/13 152/309/13 153/310/13 150/311/13
f 152/312/69 154/313/69 155/314/69 153/315/69
f 154/316/13 156/317/13 157/318/13 155/319/13
f 156/320/70 158/321/70 159/322/70 157/323/70
f 158/324/71 148/325/71 151/326/71 159/327/71
