# Blender v2.78 (sub 0) OBJ File: ''
# www.blender.org
mtllib CityEngineMaterial_655.mtl
o CityEngineMaterial_655
v -669.506287 10.248699 620.446777
v -673.053284 10.248699 619.779419
v -673.053284 12.322099 619.779419
v -669.506287 12.322099 620.446777
v -672.130188 10.248700 614.869385
v -672.130188 12.322100 614.869385
v -676.539001 10.248700 614.039673
v -676.539001 12.322100 614.039673
v -678.189087 10.248699 622.816772
v -678.189087 12.322099 622.816772
v -667.091980 10.248698 624.905090
v -667.091980 12.322098 624.905090
v -666.067200 10.248700 616.010376
v -666.067200 12.322100 616.010376
v -668.932983 10.248700 615.471130
v -668.932983 12.322100 615.471130
v -685.561523 11.679705 583.475220
v -675.179626 11.679705 584.668518
v -675.179626 11.917305 584.668518
v -685.561523 11.917305 583.475220
v -674.960083 11.679705 582.726929
v -674.960083 11.917305 582.726929
v -678.543030 11.679706 582.315002
v -678.543030 11.917306 582.315002
v -678.094116 11.679706 578.343628
v -678.094116 11.917306 578.343628
v -674.509888 11.679706 578.744324
v -674.509888 11.917306 578.744324
v -674.231628 11.679707 576.283081
v -674.231628 11.917307 576.283081
v -684.617188 11.679707 575.122070
v -684.617188 11.917307 575.122070
v -675.069885 12.196105 583.697693
v -674.370728 12.270705 577.513672
v 131.912094 41.810951 -947.319214
v 118.734001 41.810951 -945.908630
v 118.734001 43.609753 -945.908630
v 131.912094 43.609753 -947.319214
v 119.355598 41.810951 -935.499512
v 119.355598 43.609753 -935.499512
v 122.916603 41.810951 -935.880371
v 122.916603 43.609753 -935.880371
v 122.619698 41.810951 -940.853088
v 122.619698 43.609753 -940.853088
v 129.422394 41.810951 -941.581177
v 129.422394 43.609753 -941.581177
v 129.678604 41.810951 -936.603821
v 129.678604 43.609753 -936.603821
v 132.448593 41.810951 -936.900085
v 132.448593 43.609753 -936.900085
v 121.136101 44.208553 -935.690002
v 131.063599 44.075352 -936.751892
v -858.752319 13.357314 527.386230
v -858.904480 13.357313 530.856018
v -858.828430 13.968514 529.121094
v -854.341675 13.357312 538.198181
v -849.482117 13.357312 538.470825
v -851.911926 14.213812 538.334473
v -642.492126 12.213514 -700.447021
v -642.748474 12.213514 -700.397888
v -642.748474 12.804914 -700.397888
v -642.492126 12.804914 -700.447021
v -643.597778 12.213514 -702.716980
v -643.597778 12.804914 -702.716980
v -642.894470 12.213514 -702.965515
v -642.894470 12.804914 -702.965515
v -643.528320 12.213514 -705.110229
v -643.528320 12.804914 -705.110229
v -643.943604 12.213515 -706.498474
v -643.943604 12.804915 -706.498474
v -645.837402 12.213515 -705.829102
v -645.837402 12.804915 -705.829102
v -642.581787 12.213513 -696.939209
v -642.581787 12.804914 -696.939209
v -641.669800 12.213513 -697.113708
v -641.669800 12.804914 -697.113708
v -641.206726 12.213513 -697.254272
v -641.206726 12.804914 -697.254272
v -642.178284 12.213514 -700.542175
v -642.178284 12.804914 -700.542175
v -822.323730 12.227004 588.717285
v -821.803772 12.227006 577.251587
v -821.803772 14.205706 577.251587
v -822.323730 14.205704 588.717285
v -825.282776 12.227006 576.815674
v -825.282776 14.205706 576.815674
v -825.517090 12.227006 581.979614
v -825.517090 14.205706 581.979614
v -831.583496 12.227006 581.219604
v -831.583496 14.205706 581.219604
v -831.848328 12.227005 587.523987
v -831.848328 14.205705 587.523987
v -823.543274 14.997806 577.033630
v -831.715881 15.630805 584.371887
v -216.108795 3.709059 867.099609
v -212.840393 3.709058 870.037292
v -212.840393 5.603458 870.037292
v -216.108795 5.603459 867.099609
v -211.422607 3.709058 868.549377
v -211.422607 5.603458 868.549377
v -205.097900 3.709058 874.238525
v -205.097900 5.603457 874.238525
v -200.413803 3.709058 869.029114
v -200.413803 5.603458 869.029114
v -209.854904 3.709060 860.536682
v -209.854904 5.603460 860.536682
v -214.474594 6.517758 868.568481
v -202.755905 7.061558 871.633789
v 32.861198 42.386646 -882.092285
v 44.113602 42.386646 -883.859985
v 44.113602 44.705647 -883.859985
v 32.861198 44.705647 -882.092285
v 43.515999 42.386646 -887.678284
v 43.515999 44.705647 -887.678284
v 38.770100 42.386646 -886.932800
v 38.770100 44.705647 -886.932800
v 37.838402 42.386646 -892.885681
v 37.838402 44.705647 -892.885681
v 31.332800 42.386646 -891.858093
v 31.332800 44.705647 -891.858093
v -785.396973 14.062688 692.708130
v -776.563477 14.062687 695.067627
v -776.563477 16.002687 695.067627
v -785.396973 16.002687 692.708130
v -775.529480 14.062688 691.199829
v -775.529480 16.002687 691.199829
v -780.633118 14.062688 689.836487
v -780.633118 16.002687 689.836487
v -779.583679 14.062689 685.912781
v -779.583679 16.002687 685.912781
v -774.479675 14.062689 687.273682
v -774.479675 16.002687 687.273682
v -773.780029 14.062689 684.656921
v -773.780029 16.002689 684.656921
v -782.613770 14.062689 682.301575
v -782.613770 16.002689 682.301575
v 120.595901 37.411190 -1160.164917
v 113.138496 37.411190 -1159.372803
v 113.138496 39.647892 -1159.372803
v 120.595901 39.647892 -1160.164917
v 114.556099 37.411186 -1146.175415
v 114.556099 39.647888 -1146.175415
v 121.274399 37.411186 -1146.893555
v 121.274399 39.647888 -1146.893555
v 121.115303 37.411186 -1150.006836
v 121.115303 39.647888 -1150.006836
v 117.341698 37.411186 -1149.603394
v 117.341698 39.647888 -1149.603394
v 116.829597 37.411186 -1154.369995
v 116.829597 39.647888 -1154.369995
v 120.870300 37.411186 -1154.799194
v 120.870300 39.647888 -1154.799194
v 121.194901 40.299988 -1148.450195
v 120.733101 40.771889 -1157.482056
v -4.810500 35.420292 -1180.118286
v -4.302700 35.420292 -1171.096558
v -4.302700 37.481392 -1171.096558
v -4.810500 37.481392 -1180.118286
v -1.260800 35.420292 -1171.501221
v -1.260800 37.481392 -1171.501221
v -1.531400 35.420292 -1176.308228
v -1.531400 37.481392 -1176.308228
v 4.030000 35.420292 -1177.048096
v 4.030000 37.481392 -1177.048096
v 4.663200 35.420292 -1172.289429
v 4.663200 37.481392 -1172.289429
v 7.220400 35.420292 -1172.629639
v 7.220400 37.481392 -1172.629639
v 6.032100 35.420292 -1181.560669
v 6.032100 37.481392 -1181.560669
v 841.712219 97.504433 -203.224884
v 838.368774 97.504433 -202.711182
v 838.368774 99.419830 -202.711182
v 841.712219 99.419830 -203.224884
v 839.220215 97.504433 -196.986588
v 839.220215 99.419830 -196.986588
v 848.877930 97.504433 -198.470184
v 848.877930 99.419830 -198.470184
v 846.576599 97.504440 -213.629578
v 846.576599 99.419838 -213.629578
v 840.280273 97.504440 -212.657288
v 840.280273 99.419838 -212.657288
v 838.794495 100.392632 -199.848892
v 843.428528 100.490738 -213.143387
v -497.719208 9.674562 841.918213
v -486.315186 9.674562 842.736816
v -486.315186 11.862463 842.736816
v -497.719208 11.862463 841.918213
v -486.394196 9.674564 829.694824
v -486.394196 11.862465 829.694824
v -497.799103 9.674564 828.838074
v -497.799103 11.862465 828.838074
v -497.774292 9.674564 832.896118
v -497.774292 11.862465 832.896118
v -493.933197 9.674564 833.184570
v -493.933197 11.862465 833.184570
v -493.906403 9.674563 837.615906
v -493.906403 11.862464 837.615906
v -497.747192 9.674563 837.340210
v -497.747192 11.862464 837.340210
v -502.387299 12.826135 1015.543579
v -491.795105 12.826135 1015.266907
v -491.795105 14.764435 1015.266907
v -502.387299 14.764435 1015.543579
v -492.164703 12.826137 1001.544983
v -492.164703 14.764437 1001.544983
v -502.779785 12.826137 1000.971130
v -502.779785 14.764437 1000.971130
v -502.652496 12.826136 1005.697693
v -502.652496 14.764436 1005.697693
v -498.758698 12.826136 1005.908325
v -498.758698 14.764436 1005.908325
v -498.658997 12.826136 1009.610474
v -498.658997 14.764436 1009.610474
v -502.544312 12.826136 1009.711975
v -502.544312 14.764436 1009.711975
v -502.716095 15.634037 1003.334412
v -502.465790 15.840835 1012.627808
vt 0.3333 -1.0000
vt 1.3333 -1.0000
vt 1.3333 1.0000
vt 0.3333 1.0000
vt 0.3333 -1.0000
vt 1.6667 -1.0000
vt 1.6667 1.0000
vt 0.3333 1.0000
vt 0.6667 -1.0000
vt 2.0000 -1.0000
vt 2.0000 1.0000
vt 0.6667 1.0000
vt 0.3333 -1.0000
vt 2.6667 -1.0000
vt 2.6667 1.0000
vt 0.3333 1.0000
vt 0.6667 -1.0000
vt 3.6667 -1.0000
vt 3.6667 1.0000
vt 0.6667 1.0000
vt 0.3333 -1.0000
vt 2.6667 -1.0000
vt 2.6667 1.0000
vt 0.3333 1.0000
vt -0.0000 -1.0000
vt 0.6667 -1.0000
vt 0.6667 1.0000
vt 0.0000 1.0000
vt 2.0000 -1.0000
vt 2.0000 1.0000
vt 0.6667 0.9000
vt 3.6667 0.9000
vt 3.6667 1.0000
vt 0.6667 1.0000
vt 0.6667 0.9000
vt 1.3333 0.9000
vt 1.3333 1.0000
vt 0.6667 1.0000
vt 0.3333 0.9000
vt 1.3333 0.9000
vt 1.3333 1.0000
vt 0.3333 1.0000
vt 0.3333 0.9000
vt 1.3333 0.9000
vt 1.3333 1.0000
vt 0.3333 1.0000
vt -0.0000 0.9000
vt 1.0000 0.9000
vt 1.0000 1.0000
vt 0.0000 1.0000
vt 0.3333 0.9000
vt 1.0000 0.9000
vt 1.0000 1.0000
vt 0.3333 1.0000
vt -0.0000 0.9000
vt 3.0000 0.9000
vt 3.0000 1.0000
vt 0.0000 1.0000
vt 0.3333 0.9000
vt 2.6667 0.9000
vt 2.6667 1.0000
vt 0.3333 1.0000
vt -0.0000 0.9000
vt 0.6667 0.9000
vt 0.3333 1.0000
vt 0.6667 0.9000
vt 1.3333 0.9000
vt 1.0000 1.0000
vt 0.3333 -1.0000
vt 4.0000 -1.0000
vt 4.0000 1.0000
vt 0.3333 1.0000
vt 0.3333 -1.0000
vt 3.3333 -1.0000
vt 3.3333 1.0000
vt 0.3333 1.0000
vt -0.0000 -1.0000
vt 1.0000 -1.0000
vt 1.0000 1.0000
vt 0.0000 1.0000
vt 0.3333 -1.0000
vt 1.6667 -1.0000
vt 1.6667 1.0000
vt 0.3333 1.0000
vt 0.3333 -1.0000
vt 2.3333 -1.0000
vt 2.3333 1.0000
vt 0.3333 1.0000
vt 0.3333 -1.0000
vt 1.6667 -1.0000
vt 1.6667 1.0000
vt 0.3333 1.0000
vt -0.0000 -1.0000
vt 0.6667 -1.0000
vt 0.6667 1.0000
vt 0.0000 1.0000
vt 0.3333 -1.0000
vt 3.3333 -1.0000
vt 3.3333 1.0000
vt 0.3333 1.0000
vt 0.3333 0.9000
vt 1.3333 0.9000
vt 0.8333 1.0000
vt 0.3333 0.9000
vt 1.0000 0.9000
vt 0.6667 1.0000
vt -0.0000 0.9000
vt 1.0000 0.9000
vt 0.5000 1.0000
vt 0.3333 0.0000
vt 1.6667 0.0000
vt 1.0000 1.0000
vt -0.0000 0.9000
vt 0.0667 0.9000
vt 0.0667 1.0000
vt 0.0000 1.0000
vt -0.0000 0.9000
vt 0.6667 0.9000
vt 0.6667 1.0000
vt 0.0000 1.0000
vt 0.3333 0.9000
vt 0.6667 0.9000
vt 0.6667 1.0000
vt 0.3333 1.0000
vt 0.3333 0.9000
vt 1.0000 0.9000
vt 1.0000 1.0000
vt 0.3333 1.0000
vt 0.3333 0.9000
vt 0.6667 0.9000
vt 0.6667 1.0000
vt 0.3333 1.0000
vt 0.3333 0.9000
vt 1.0000 0.9000
vt 1.0000 1.0000
vt 0.3333 1.0000
vt 0.3333 0.9000
vt 3.0000 0.9000
vt 3.0000 1.0000
vt 0.3333 1.0000
vt -0.0000 0.9000
vt 0.3333 0.9000
vt 0.3333 1.0000
vt 0.0000 1.0000
vt 0.6667 0.9000
vt 0.7333 0.9000
vt 0.7333 1.0000
vt 0.6667 1.0000
vt 0.6667 0.9000
vt 1.6667 0.9000
vt 1.6667 1.0000
vt 0.6667 1.0000
vt 0.3333 0.9000
vt 0.4000 0.9000
vt 0.4000 1.0000
vt 0.3333 1.0000
vt 0.3333 -1.0000
vt 3.0000 -1.0000
vt 3.0000 1.0000
vt 0.3333 1.0000
vt 0.3333 -1.0000
vt 1.3333 -1.0000
vt 1.3333 1.0000
vt 0.3333 1.0000
vt 0.6667 -1.0000
vt 2.0000 -1.0000
vt 2.0000 1.0000
vt 0.6667 1.0000
vt 0.6667 -1.0000
vt 2.0000 -1.0000
vt 2.0000 1.0000
vt 0.6667 1.0000
vt 0.3333 -1.0000
vt 2.0000 -1.0000
vt 2.0000 1.0000
vt 0.3333 1.0000
vt 0.6667 -1.0000
vt 3.0000 -1.0000
vt 3.0000 1.0000
vt 0.6667 1.0000
vt 0.3333 0.9000
vt 1.3333 0.9000
vt 0.8333 1.0000
vt 0.3333 0.0000
vt 2.0000 0.0000
vt 1.1667 1.0000
vt 0.3333 -1.0000
vt 1.3333 -1.0000
vt 1.3333 1.0000
vt 0.3333 1.0000
vt 0.6667 -1.0000
vt 1.3333 -1.0000
vt 1.3333 1.0000
vt 0.6667 1.0000
vt 0.3333 -1.0000
vt 2.3333 -1.0000
vt 2.3333 1.0000
vt 0.3333 1.0000
vt -0.0000 -1.0000
vt 1.6667 -1.0000
vt 1.6667 1.0000
vt 0.0000 1.0000
vt 0.3333 -1.0000
vt 3.6667 -1.0000
vt 3.6667 1.0000
vt 0.3333 1.0000
vt -0.0000 -1.0000
vt 2.3333 -1.0000
vt 2.3333 1.0000
vt 0.0000 1.0000
vt -0.0000 0.9000
vt 1.0000 0.9000
vt 0.5000 1.0000
vt 0.3333 0.0000
vt 2.0000 0.0000
vt 1.1667 1.0000
vt -0.0000 -1.0000
vt 3.0000 -1.0000
vt 3.0000 1.0000
vt 0.0000 1.0000
vt 0.3333 -1.0000
vt 1.3333 -1.0000
vt 1.3333 1.0000
vt 0.3333 1.0000
vt -0.0000 -1.0000
vt 1.3333 -1.0000
vt 1.3333 1.0000
vt 0.0000 1.0000
vt 0.3333 -1.0000
vt 2.0000 -1.0000
vt 2.0000 1.0000
vt 0.3333 1.0000
vt 0.6667 -1.0000
vt 2.3333 -1.0000
vt 2.3333 1.0000
vt 0.6667 1.0000
vt -0.0000 -1.0000
vt 2.6667 -1.0000
vt 2.6667 1.0000
vt 0.0000 1.0000
vt 0.6667 -1.0000
vt 3.3333 -1.0000
vt 3.3333 1.0000
vt 0.6667 1.0000
vt 0.3333 -1.0000
vt 1.3333 -1.0000
vt 1.3333 1.0000
vt 0.3333 1.0000
vt 0.3333 -1.0000
vt 1.6667 -1.0000
vt 1.6667 1.0000
vt 0.3333 1.0000
vt 0.3333 -1.0000
vt 1.3333 -1.0000
vt 1.3333 1.0000
vt 0.3333 1.0000
vt 0.3333 -1.0000
vt 1.6667 -1.0000
vt 1.6667 1.0000
vt 0.3333 1.0000
vt 0.6667 -1.0000
vt 1.3333 -1.0000
vt 1.3333 1.0000
vt 0.6667 1.0000
vt 0.3333 -1.0000
vt 3.0000 -1.0000
vt 3.0000 1.0000
vt 0.3333 1.0000
vt 0.6667 -1.0000
vt 3.6667 -1.0000
vt 3.6667 1.0000
vt 0.6667 1.0000
vt 0.3333 -1.0000
vt 2.3333 -1.0000
vt 2.3333 1.0000
vt 0.3333 1.0000
vt 0.3333 -1.0000
vt 3.6667 -1.0000
vt 3.6667 1.0000
vt 0.3333 1.0000
vt 0.3333 -1.0000
vt 2.0000 -1.0000
vt 2.0000 1.0000
vt 0.3333 1.0000
vt 0.3333 -1.0000
vt 1.0000 -1.0000
vt 1.0000 1.0000
vt 0.3333 1.0000
vt 0.3333 -1.0000
vt 1.3333 -1.0000
vt 1.3333 1.0000
vt 0.3333 1.0000
vt -0.0000 -1.0000
vt 1.3333 -1.0000
vt 1.3333 1.0000
vt 0.0000 1.0000
vt 0.3333 -1.0000
vt 1.3333 -1.0000
vt 1.3333 1.0000
vt 0.3333 1.0000
vt -0.0000 -1.0000
vt 1.3333 -1.0000
vt 1.3333 1.0000
vt 0.0000 1.0000
vt 0.3333 0.9000
vt 1.0000 0.9000
vt 0.6667 1.0000
vt 0.6667 0.0000
vt 2.0000 0.0000
vt 1.3333 1.0000
vt 0.3333 -1.0000
vt 2.6667 -1.0000
vt 2.6667 1.0000
vt 0.3333 1.0000
vt 0.3333 -1.0000
vt 1.0000 -1.0000
vt 1.0000 1.0000
vt 0.3333 1.0000
vt -0.0000 -1.0000
vt 1.3333 -1.0000
vt 1.3333 1.0000
vt 0.0000 1.0000
vt 0.3333 -1.0000
vt 1.6667 -1.0000
vt 1.6667 1.0000
vt 0.3333 1.0000
vt 0.3333 -1.0000
vt 1.6667 -1.0000
vt 1.6667 1.0000
vt 0.3333 1.0000
vt 0.3333 -1.0000
vt 1.0000 -1.0000
vt 1.0000 1.0000
vt 0.3333 1.0000
vt 0.6667 -1.0000
vt 3.0000 -1.0000
vt 3.0000 1.0000
vt 0.6667 1.0000
vt -0.0000 -1.0000
vt 2.6667 -1.0000
vt 2.6667 1.0000
vt 0.0000 1.0000
vt 0.3333 -1.0000
vt 1.3333 -1.0000
vt 1.3333 1.0000
vt 0.3333 1.0000
vt 0.3333 -1.0000
vt 2.0000 -1.0000
vt 2.0000 1.0000
vt 0.3333 1.0000
vt 0.3333 -1.0000
vt 3.0000 -1.0000
vt 3.0000 1.0000
vt 0.3333 1.0000
vt 0.3333 -1.0000
vt 4.3333 -1.0000
vt 4.3333 1.0000
vt 0.3333 1.0000
vt 0.3333 -1.0000
vt 2.0000 -1.0000
vt 2.0000 1.0000
vt 0.3333 1.0000
vt 0.3333 -1.0000
vt 3.0000 -1.0000
vt 3.0000 1.0000
vt 0.3333 1.0000
vt 0.3333 0.0000
vt 2.0000 0.0000
vt 1.1667 1.0000
vt 0.6667 0.0000
vt 2.3333 0.0000
vt 1.5000 1.0000
vt 0.3333 -1.0000
vt 3.3333 -1.0000
vt 3.3333 1.0000
vt 0.3333 1.0000
vt 0.3333 -1.0000
vt 4.0000 -1.0000
vt 4.0000 1.0000
vt 0.3333 1.0000
vt -0.0000 -1.0000
vt 3.0000 -1.0000
vt 3.0000 1.0000
vt 0.0000 1.0000
vt -0.0000 -1.0000
vt 1.0000 -1.0000
vt 1.0000 1.0000
vt 0.0000 1.0000
vt 0.3333 -1.0000
vt 1.3333 -1.0000
vt 1.3333 1.0000
vt 0.3333 1.0000
vt 0.6667 -1.0000
vt 2.0000 -1.0000
vt 2.0000 1.0000
vt 0.6667 1.0000
vt 0.6667 -1.0000
vt 1.6667 -1.0000
vt 1.6667 1.0000
vt 0.6667 1.0000
vt 0.3333 -1.0000
vt 1.6667 -1.0000
vt 1.6667 1.0000
vt 0.3333 1.0000
vt 0.3333 -1.0000
vt 3.0000 -1.0000
vt 3.0000 1.0000
vt 0.3333 1.0000
vt -0.0000 -1.0000
vt 3.3333 -1.0000
vt 3.3333 1.0000
vt 0.0000 1.0000
vt 0.6667 -1.0000
vt 3.3333 -1.0000
vt 3.3333 1.0000
vt 0.6667 1.0000
vt -0.0000 -1.0000
vt 1.0000 -1.0000
vt 1.0000 1.0000
vt 0.0000 1.0000
vt -0.0000 -1.0000
vt 1.0000 -1.0000
vt 1.0000 1.0000
vt 0.0000 1.0000
vt 0.3333 -1.0000
vt 1.3333 -1.0000
vt 1.3333 1.0000
vt 0.3333 1.0000
vt 0.3333 -1.0000
vt 1.3333 -1.0000
vt 1.3333 1.0000
vt 0.3333 1.0000
vt 0.3333 -1.0000
vt 1.6667 -1.0000
vt 1.6667 1.0000
vt 0.3333 1.0000
vt 0.3333 0.9000
vt 1.3333 0.9000
vt 0.8333 1.0000
vt 0.3333 0.0000
vt 1.6667 0.0000
vt 1.0000 1.0000
vn 0.1849 0.0000 -0.9828
vn 0.9828 0.0000 0.1848
vn 0.1849 0.0000 -0.9827
vn -0.9828 0.0000 -0.1848
vn -0.1849 0.0000 0.9827
vn 0.9934 0.0000 0.1145
vn -0.9934 0.0000 -0.1145
vn -0.1142 0.0000 0.9935
vn 0.9937 0.0000 0.1124
vn 0.1142 0.0000 -0.9935
vn 0.9937 0.0000 0.1123
vn -0.1111 0.0000 0.9938
vn 0.1111 0.0000 -0.9938
vn -0.9937 0.0000 -0.1123
vn 0.9937 0.0004 0.1124
vn -0.1064 0.0000 -0.9943
vn -0.9982 0.0000 0.0596
vn 0.1063 0.0000 0.9943
vn 0.9982 0.0000 -0.0596
vn 0.1064 0.0000 0.9943
vn -0.9987 0.0000 0.0514
vn 0.9987 0.0000 -0.0514
vn 0.1063 0.0001 0.9943
vn 0.1063 -0.0001 0.9943
vn -0.9990 -0.0002 -0.0438
vn -0.0560 0.0000 0.9984
vn -0.1879 0.0000 -0.9822
vn 0.9390 0.0000 -0.3439
vn 0.3332 0.0000 0.9428
vn 0.9590 0.0000 -0.2834
vn 0.9585 0.0000 -0.2850
vn 0.9580 0.0000 -0.2869
vn -0.3333 0.0000 -0.9428
vn -0.9390 0.0000 0.3439
vn 0.1880 0.0000 0.9822
vn 0.2905 0.0000 0.9569
vn -0.2901 0.0000 -0.9570
vn 0.9990 0.0000 0.0453
vn 0.1243 0.0000 -0.9922
vn -0.9990 0.0000 -0.0453
vn -0.9991 0.0000 -0.0420
vn -0.1243 0.0000 0.9922
vn -0.9991 0.0001 -0.0420
vn -0.6685 0.0000 0.7437
vn 0.7240 0.0000 0.6898
vn -0.6688 0.0000 0.7435
vn 0.7436 0.0000 0.6686
vn 0.6688 0.0000 -0.7435
vn -0.7239 0.0000 -0.6899
vn 0.1552 0.0000 0.9879
vn 0.9880 0.0000 -0.1546
vn -0.1552 0.0000 -0.9879
vn -0.1560 0.0000 -0.9878
vn -0.9880 0.0000 0.1546
vn -0.2581 0.0000 0.9661
vn 0.9661 0.0000 0.2583
vn 0.2581 0.0000 -0.9661
vn 0.9660 0.0000 0.2584
vn -0.2576 0.0000 0.9662
vn 0.2576 0.0000 -0.9662
vn -0.9660 0.0000 -0.2584
vn -0.1056 0.0000 -0.9944
vn -0.9943 0.0000 0.1068
vn 0.9987 0.0000 -0.0510
vn -0.1063 0.0000 -0.9943
vn 0.9943 0.0000 -0.1068
vn 0.1056 0.0000 0.9944
vn 0.9987 0.0000 -0.0511
vn 0.9987 -0.0001 -0.0510
vn -0.9984 0.0000 0.0562
vn 0.1319 0.0000 0.9913
vn 0.9984 0.0000 -0.0562
vn -0.9913 0.0000 0.1319
vn 0.9913 0.0000 -0.1319
vn -0.1319 0.0000 -0.9913
vn -0.1519 0.0000 -0.9884
vn -0.9891 0.0000 0.1471
vn 0.1518 0.0000 0.9884
vn 0.9887 0.0000 -0.1501
vn -0.1526 0.0000 -0.9883
vn -0.9887 0.0000 0.1501
vn -0.9891 0.0001 0.1471
vn -0.0716 0.0000 0.9974
vn 1.0000 0.0000 -0.0061
vn 0.0749 0.0000 -0.9972
vn -1.0000 0.0000 0.0061
vn -0.0749 0.0000 0.9972
vn -1.0000 0.0000 0.0060
vn 0.0716 0.0000 -0.9974
vn 0.0261 0.0000 0.9997
vn 0.9996 0.0000 -0.0269
vn 0.0540 0.0000 -0.9985
vn -0.9996 0.0000 0.0269
vn -0.0540 0.0000 0.9985
vn -0.0261 0.0000 -0.9997
g CityEngineMaterial_655_CityEngineMaterial_655_CityEngineMaterial_655_mat
usemtl CityEngineMaterial_655_mat
s 1
f 1/1/1 2/2/1 3/3/1 4/4/1
f 2/5/2 5/6/2 6/7/2 3/8/2
f 5/9/3 7/10/3 8/11/3 6/12/3
f 7/13/4 9/14/4 10/15/4 8/16/4
f 9/17/5 11/18/5 12/19/5 10/20/5
f 11/21/6 13/22/6 14/23/6 12/24/6
f 13/25/1 15/26/1 16/27/1 14/28/1
f 15/26/7 1/29/7 4/30/7 16/27/7
f 17/31/8 18/32/8 19/33/8 20/34/8
f 18/35/9 21/36/9 22/37/9 19/38/9
f 21/39/10 23/40/10 24/41/10 22/42/10
f 23/43/11 25/44/11 26/45/11 24/46/11
f 25/47/12 27/48/12 28/49/12 26/50/12
f 27/51/11 29/52/11 30/53/11 28/54/11
f 29/55/13 31/56/13 32/57/13 30/58/13
f 31/59/14 17/60/14 20/61/14 32/62/14
f 19/63/15 22/64/15 33/65/15
f 28/66/11 30/67/11 34/68/11
f 35/69/16 36/70/16 37/71/16 38/72/16
f 36/73/17 39/74/17 40/75/17 37/76/17
f 39/77/18 41/78/18 42/79/18 40/80/18
f 41/81/19 43/82/19 44/83/19 42/84/19
f 43/85/20 45/86/20 46/87/20 44/88/20
f 45/89/21 47/90/21 48/91/21 46/92/21
f 47/93/20 49/94/20 50/95/20 48/96/20
f 49/97/22 35/98/22 38/99/22 50/100/22
f 40/101/23 42/102/23 51/103/23
f 48/104/24 50/105/24 52/106/24
f 53/107/25 54/108/25 55/109/25
f 56/110/26 57/111/26 58/112/26
f 59/113/27 60/114/27 61/115/27 62/116/27
f 60/117/28 63/118/28 64/119/28 61/120/28
f 63/121/29 65/122/29 66/123/29 64/124/29
f 65/125/30 67/126/31 68/127/31 66/128/30
f 67/129/31 69/130/32 70/131/32 68/132/31
f 69/133/33 71/134/33 72/135/33 70/136/33
f 71/137/34 73/138/34 74/139/34 72/140/34
f 73/141/35 75/142/35 76/143/35 74/144/35
f 75/145/36 77/146/36 78/147/36 76/148/36
f 77/149/30 79/150/30 80/151/30 78/152/30
f 79/153/37 59/154/37 62/155/37 80/156/37
f 81/157/38 82/158/38 83/159/38 84/160/38
f 82/161/39 85/162/39 86/163/39 83/164/39
f 85/165/40 87/166/40 88/167/40 86/168/40
f 87/169/39 89/170/39 90/171/39 88/172/39
f 89/173/41 91/174/41 92/175/41 90/176/41
f 91/177/42 81/178/42 84/179/42 92/180/42
f 83/181/39 86/182/39 93/183/39
f 90/184/43 92/185/43 94/186/43
f 95/187/44 96/188/44 97/189/44 98/190/44
f 96/191/45 99/192/45 100/193/45 97/194/45
f 99/195/46 101/196/46 102/197/46 100/198/46
f 101/199/47 103/200/47 104/201/47 102/202/47
f 103/203/48 105/204/48 106/205/48 104/206/48
f 105/207/49 95/208/49 98/209/49 106/210/49
f 98/211/44 97/212/44 107/213/44
f 102/214/47 104/215/47 108/216/47
f 109/217/50 110/218/50 111/219/50 112/220/50
f 110/221/51 113/222/51 114/223/51 111/224/51
f 113/225/52 115/226/52 116/227/52 114/228/52
f 115/229/51 117/230/51 118/231/51 116/232/51
f 117/233/53 119/234/53 120/235/53 118/236/53
f 119/237/54 109/238/54 112/239/54 120/240/54
f 121/241/55 122/242/55 123/243/55 124/244/55
f 122/245/56 125/246/56 126/247/56 123/248/56
f 125/249/57 127/250/57 128/251/57 126/252/57
f 127/253/58 129/254/58 130/255/58 128/256/58
f 129/257/59 131/258/59 132/259/59 130/260/59
f 131/261/56 133/262/56 134/263/56 132/264/56
f 133/265/60 135/266/60 136/267/60 134/268/60
f 135/269/61 121/270/61 124/271/61 136/272/61
f 137/273/62 138/274/62 139/275/62 140/276/62
f 138/277/63 141/278/63 142/279/63 139/280/63
f 141/281/18 143/282/18 144/283/18 142/284/18
f 143/285/64 145/286/64 146/287/64 144/288/64
f 145/289/65 147/290/65 148/291/65 146/292/65
f 147/293/66 149/294/66 150/295/66 148/296/66
f 149/297/67 151/298/67 152/299/67 150/300/67
f 151/301/68 137/302/68 140/303/68 152/304/68
f 144/305/69 146/306/69 153/307/69
f 152/308/68 140/309/68 154/310/68
f 155/311/70 156/312/70 157/313/70 158/314/70
f 156/315/71 159/316/71 160/317/71 157/318/71
f 159/319/72 161/320/72 162/321/72 160/322/72
f 161/323/71 163/324/71 164/325/71 162/326/71
f 163/327/73 165/328/73 166/329/73 164/330/73
f 165/331/71 167/332/71 168/333/71 166/334/71
f 167/335/74 169/336/74 170/337/74 168/338/74
f 169/339/75 155/340/75 158/341/75 170/342/75
f 171/343/76 172/344/76 173/345/76 174/346/76
f 172/347/77 175/348/77 176/349/77 173/350/77
f 175/351/78 177/352/78 178/353/78 176/354/78
f 177/355/79 179/356/79 180/357/79 178/358/79
f 179/359/80 181/360/80 182/361/80 180/362/80
f 181/363/81 171/364/81 174/365/81 182/366/81
f 173/367/82 176/368/82 183/369/82
f 180/370/80 182/371/80 184/372/80
f 185/373/83 186/374/83 187/375/83 188/376/83
f 186/377/84 189/378/84 190/379/84 187/380/84
f 189/381/85 191/382/85 192/383/85 190/384/85
f 191/385/86 193/386/86 194/387/86 192/388/86
f 193/389/87 195/390/87 196/391/87 194/392/87
f 195/393/88 197/394/88 198/395/88 196/396/88
f 197/397/89 199/398/89 200/399/89 198/400/89
f 199/401/86 185/402/86 188/403/86 200/404/86
f 201/405/90 202/406/90 203/407/90 204/408/90
f 202/409/91 205/410/91 206/411/91 203/412/91
f 205/413/92 207/414/92 208/415/92 206/416/92
f 207/417/93 209/418/93 210/419/93 208/420/93
f 209/421/94 211/422/94 212/423/94 210/424/94
f 211/425/93 213/426/93 214/427/93 212/428/93
f 213/429/95 215/430/95 216/431/95 214/432/95
f 215/433/93 201/434/93 204/435/93 216/436/93
f 208/437/93 210/438/93 217/439/93
f 216/440/93 204/441/93 218/442/93
