# Blender v2.78 (sub 0) OBJ File: ''
# www.blender.org
mtllib CityEngineMaterial_260.mtl
o CityEngineMaterial_260
v -654.201111 11.808620 -739.799011
v -654.718628 11.808620 -739.643616
v -654.718628 15.095520 -739.643616
v -654.201111 15.095520 -739.799011
v -656.669373 11.808620 -739.038330
v -656.669373 15.095520 -739.038330
v -657.227722 11.808620 -738.874023
v -657.227722 15.095520 -738.874023
v -656.666077 11.808620 -736.518372
v -656.666077 15.095520 -736.518372
v -655.728271 11.808619 -733.144714
v -655.728271 15.095519 -733.144714
v -655.561829 11.808619 -732.729004
v -655.561829 15.095519 -732.729004
v -652.955688 11.808619 -725.648926
v -652.955688 15.095518 -725.648926
v -650.206970 11.808619 -726.606018
v -650.206970 15.095518 -726.606018
v -652.844971 11.808619 -733.772827
v -652.844971 15.095519 -733.772827
v -652.967285 11.808619 -734.078186
v -652.967285 15.095519 -734.078186
v -653.370789 11.808620 -735.529419
v -653.370789 15.095520 -735.529419
v -652.944214 11.808620 -735.657715
v -652.944214 15.095520 -735.657715
v -612.342712 54.591263 -1011.907715
v -613.813904 54.591263 -1017.014771
v -613.813904 54.674263 -1017.014771
v -612.342712 54.674263 -1011.907715
v -617.360596 54.591263 -1016.153503
v -617.360596 54.674263 -1016.153503
v -618.515198 54.591370 -1020.110779
v -618.515198 54.674267 -1020.110779
v -614.976685 54.591370 -1021.051514
v -614.976685 54.674267 -1021.051514
v -616.740784 54.591370 -1027.175659
v -616.740784 54.674267 -1027.175659
v -627.112122 54.591370 -1024.418457
v -627.112122 54.674267 -1024.418457
v -622.726196 54.591263 -1009.385986
v -622.726196 54.674263 -1009.385986
v -635.498413 37.259254 -937.864075
v -638.325317 37.259254 -947.171387
v -638.325317 39.169651 -947.171387
v -635.498413 39.169651 -937.864075
v -650.715881 37.259254 -943.410706
v -650.715881 39.169651 -943.410706
v -648.574829 37.259254 -936.678528
v -648.574829 39.169651 -936.678528
v -640.997986 37.259254 -938.978088
v -640.997986 39.169651 -938.978088
v -640.221313 37.259254 -936.420776
v -640.221313 39.169651 -936.420776
v 962.226807 115.009750 -320.767975
v 957.930115 115.009750 -321.468658
v 957.930115 118.332153 -321.468658
v 962.226807 118.332153 -320.767975
v 958.158875 115.009750 -322.865265
v 958.158875 118.332153 -322.865265
v 962.653015 115.009750 -323.369873
v 962.653015 118.332153 -323.369873
v 963.374390 115.009750 -327.773468
v 963.374390 118.332153 -327.773468
v 953.656494 115.009750 -326.682465
v 953.656494 118.332153 -326.682465
v 952.315308 115.009750 -318.495667
v 952.315308 118.332153 -318.495667
v 961.606384 115.009750 -316.980469
v 961.606384 118.332153 -316.980469
v 963.013672 119.233452 -325.571655
v 961.916626 119.137451 -318.874268
v -974.529724 7.161960 245.830093
v -968.743225 7.161960 246.320999
v -968.743225 9.330960 246.320999
v -974.529724 9.330960 245.830093
v -968.873474 7.161960 249.615005
v -968.873474 9.330959 249.615005
v -961.365784 7.161959 250.251907
v -961.365784 9.330959 250.251907
v -960.983215 7.161961 240.581299
v -960.983215 9.330961 240.581299
v -979.785522 7.161961 238.986099
v -979.785522 9.330961 238.986099
v -980.589417 7.161960 248.621002
v -980.589417 9.330960 248.621002
v -974.803528 7.161960 249.111801
v -974.803528 9.330959 249.111801
v -965.119690 10.363559 249.933502
v -977.696411 10.127559 248.866394
v -134.573593 37.839287 -1143.749634
v -133.059097 37.839283 -1133.456421
v -133.059097 37.896885 -1133.456421
v -134.573593 37.896889 -1143.749634
v -128.645996 37.839283 -1133.228516
v -128.645996 37.896885 -1133.228516
v -129.464401 37.839287 -1138.790894
v -129.464401 37.896889 -1138.790894
v -123.102303 37.839287 -1138.462891
v -123.102303 37.896889 -1138.462891
v -122.315498 37.839283 -1133.438354
v -122.315498 37.896885 -1133.438354
v -116.935997 37.839283 -1134.284790
v -116.935997 37.896885 -1134.284790
v -118.286598 37.839287 -1142.909912
v -118.286598 37.896889 -1142.909912
v 203.607101 41.731960 -981.918518
v 202.710205 41.731960 -988.690674
v 202.710205 43.620560 -988.690674
v 203.607101 43.620560 -981.918518
v 191.730499 41.731960 -986.994202
v 191.730499 43.620560 -986.994202
v 192.315002 41.731960 -983.200806
v 192.315002 43.620560 -983.200806
v 198.997894 41.731960 -984.233398
v 198.997894 43.620560 -984.233398
v 199.379196 41.731960 -981.354675
v 199.379196 43.620560 -981.354675
v 91.029999 43.573643 -858.278015
v 103.770599 43.573643 -859.974670
v 103.770599 45.689140 -859.974670
v 91.029999 45.689140 -858.278015
v 102.455002 43.573643 -869.810181
v 102.455002 45.689140 -869.810181
v 98.268997 43.573643 -869.253174
v 98.268997 45.689140 -869.253174
v 98.994102 43.573643 -863.832520
v 98.994102 45.689140 -863.832520
v 95.105499 43.573643 -863.314575
v 95.105499 45.689140 -863.314575
v 94.788300 43.573643 -868.790222
v 94.788300 45.689140 -868.790222
v 90.454597 43.573643 -868.213379
v 90.454597 45.689140 -868.213379
v 1149.484131 104.170090 -550.263916
v 1153.052246 104.170090 -553.135925
v 1153.052246 104.238792 -553.135925
v 1149.484131 104.238792 -550.263916
v 1149.965820 104.170090 -556.974487
v 1149.965820 104.238792 -556.974487
v 1154.557739 104.170090 -560.670288
v 1154.557739 104.238792 -560.670288
v 1152.704102 104.170090 -565.050720
v 1152.704102 104.238792 -565.050720
v 1143.531250 104.170090 -557.667603
v 1143.531250 104.238792 -557.667603
v 1151.268188 105.300491 -551.699890
v 1153.630981 105.299095 -562.860474
v -675.633911 9.560410 549.135925
v -671.650879 9.560410 549.585571
v -671.650879 11.600110 549.585571
v -675.633911 11.600110 549.135925
v -671.004883 9.560411 543.873474
v -671.004883 11.600111 543.873474
v -681.593628 9.560411 542.678101
v -681.593628 11.600111 542.678101
v -683.560791 9.560409 560.073792
v -683.560791 11.600108 560.073792
v -672.971130 9.560409 561.260498
v -672.971130 11.600108 561.260498
v -672.249084 9.560410 554.875427
v -672.249084 11.600109 554.875427
v -676.232483 9.560410 554.429077
v -676.232483 11.600109 554.429077
v -671.327881 12.451411 546.729492
v -672.610107 12.551709 558.067993
v 1046.375977 108.262283 -494.174164
v 1049.493652 108.262276 -490.161957
v 1049.493652 110.317780 -490.161957
v 1046.375977 110.317787 -494.174164
v 1059.004150 108.262283 -495.093475
v 1059.004150 110.317787 -495.093475
v 1061.283081 108.262283 -492.155182
v 1061.283081 110.317787 -492.155182
v 1068.239380 108.262283 -495.771057
v 1068.239380 110.317787 -495.771057
v 1062.851929 108.262283 -502.717560
v 1062.851929 110.317787 -502.717560
v 1047.934814 111.424385 -492.167969
v 1064.761108 112.025887 -493.963074
v 988.520630 114.750336 -217.051880
v 998.153320 114.750336 -218.288391
v 998.153320 115.063538 -218.288391
v 988.520630 115.063538 -217.051880
v 996.450684 114.750336 -231.561386
v 996.450684 115.063538 -231.561386
v 986.818115 114.750336 -230.324982
v 986.818115 115.063538 -230.324982
v 987.399414 114.750336 -225.792877
v 987.399414 115.063538 -225.792877
v 991.347595 114.750336 -226.299591
v 991.347595 115.063538 -226.299591
v 992.085510 114.750336 -220.546585
v 992.085510 115.063538 -220.546585
v 988.137512 114.750336 -220.039688
v 988.137512 115.063538 -220.039688
v 828.522217 102.448044 -266.399078
v 827.255920 102.448044 -257.645264
v 827.255920 104.207245 -257.645264
v 828.522217 104.207245 -266.399078
v 835.275330 102.448036 -256.405060
v 835.275330 104.207237 -256.405060
v 840.336426 102.448036 -257.163269
v 840.336426 104.207237 -257.163269
v 839.206421 102.448044 -264.754272
v 839.206421 104.207245 -264.754272
v 834.079285 102.448044 -265.543579
v 834.079285 104.207245 -265.543579
v 834.851624 102.448044 -260.356873
v 834.851624 104.207245 -260.356873
v 831.957275 102.448044 -260.804474
v 831.957275 104.207245 -260.804474
v 832.674194 102.448044 -265.759857
v 832.674194 104.207245 -265.759857
v -846.591187 14.578885 707.554871
v -846.411682 14.578886 701.658386
v -846.411682 16.424786 701.658386
v -846.591187 16.424786 707.554871
v -845.110718 14.578886 702.005127
v -845.110718 16.424786 702.005127
v -843.556885 14.578887 696.180603
v -843.556885 16.424788 696.180603
v -852.450012 14.578887 693.809998
v -852.450012 16.424788 693.809998
v -852.923218 14.578885 709.354126
v -852.923218 16.424784 709.354126
v -847.117798 14.578885 709.528687
v -847.117798 16.424784 709.528687
vt 0.5000 -2.0000
vt 0.6000 -2.0000
vt 0.6000 1.0000
vt 0.5000 1.0000
vt -0.0000 -2.0000
vt 1.0000 -2.0000
vt 1.0000 1.0000
vt -0.0000 1.0000
vt 0.5000 -2.0000
vt 0.6000 -2.0000
vt 0.6000 1.0000
vt 0.5000 1.0000
vt 0.5000 -2.0000
vt 1.5000 -2.0000
vt 1.5000 1.0000
vt 0.5000 1.0000
vt 0.5000 -2.0000
vt 2.0000 -2.0000
vt 2.0000 1.0000
vt 0.5000 1.0000
vt -0.0000 -2.0000
vt 0.1000 -2.0000
vt 0.1000 1.0000
vt -0.0000 1.0000
vt 0.5000 -2.0000
vt 3.5000 -2.0000
vt 3.5000 1.0000
vt 0.5000 1.0000
vt 0.5000 -2.0000
vt 1.5000 -2.0000
vt 1.5000 1.0000
vt 0.5000 1.0000
vt 0.5000 -2.0000
vt 3.5000 -2.0000
vt 3.5000 1.0000
vt 0.5000 1.0000
vt 0.5000 -2.0000
vt 0.6000 -2.0000
vt 0.6000 1.0000
vt 0.5000 1.0000
vt 0.5000 -2.0000
vt 1.0000 -2.0000
vt 1.0000 1.0000
vt 0.5000 1.0000
vt 0.5000 -2.0000
vt 0.6000 -2.0000
vt 0.6000 1.0000
vt 0.5000 1.0000
vt 0.5000 -2.0000
vt 2.0000 -2.0000
vt 2.0000 1.0000
vt 0.5000 1.0000
vt 0.5000 0.9000
vt 2.5000 0.9000
vt 2.5000 1.0000
vt 0.5000 1.0000
vt 0.5000 0.9000
vt 2.0000 0.9000
vt 2.0000 1.0000
vt 0.5000 1.0000
vt 0.5000 0.9000
vt 2.0000 0.9000
vt 2.0000 1.0000
vt 0.5000 1.0000
vt 0.5000 0.9000
vt 2.0000 0.9000
vt 2.0000 1.0000
vt 0.5000 1.0000
vt 0.5000 0.9000
vt 3.0000 0.9000
vt 3.0000 1.0000
vt 0.5000 1.0000
vt 0.0000 0.9000
vt 4.0000 0.9000
vt 4.0000 1.0000
vt -0.0000 1.0000
vt 0.5000 0.9000
vt 6.5000 0.9000
vt 6.5000 1.0000
vt 0.5000 1.0000
vt 0.5000 0.9000
vt 4.5000 0.9000
vt 4.5000 1.0000
vt 0.5000 1.0000
vt 0.0000 -1.0000
vt 4.5000 -1.0000
vt 4.5000 1.0000
vt -0.0000 1.0000
vt 0.5000 -1.0000
vt 6.5000 -1.0000
vt 6.5000 1.0000
vt 0.5000 1.0000
vt 0.5000 -1.0000
vt 4.0000 -1.0000
vt 4.0000 1.0000
vt 0.5000 1.0000
vt 0.0000 -1.0000
vt 3.5000 -1.0000
vt 3.5000 1.0000
vt -0.0000 1.0000
vt 0.5000 -1.0000
vt 1.5000 -1.0000
vt 1.5000 1.0000
vt 0.5000 1.0000
vt 0.5000 -1.0000
vt 3.0000 -1.0000
vt 3.0000 1.0000
vt 0.5000 1.0000
vt 0.5000 -2.0000
vt 2.5000 -2.0000
vt 2.5000 1.0000
vt 0.5000 1.0000
vt -0.0000 -2.0000
vt 0.5000 -2.0000
vt 0.5000 1.0000
vt -0.0000 1.0000
vt -0.0000 -2.0000
vt 2.0000 -2.0000
vt 2.0000 1.0000
vt -0.0000 1.0000
vt 0.5000 -2.0000
vt 2.5000 -2.0000
vt 2.5000 1.0000
vt 0.5000 1.0000
vt -0.0000 -2.0000
vt 4.0000 -2.0000
vt 4.0000 1.0000
vt -0.0000 1.0000
vt -0.0000 -2.0000
vt 3.5000 -2.0000
vt 3.5000 1.0000
vt -0.0000 1.0000
vt 0.5000 -2.0000
vt 4.5000 -2.0000
vt 4.5000 1.0000
vt 0.5000 1.0000
vt 0.5000 -2.0000
vt 2.0000 -2.0000
vt 2.0000 1.0000
vt 0.5000 1.0000
vt 0.0000 0.0000
vt 2.0000 0.0000
vt 1.0000 1.0000
vt 0.0000 0.9000
vt 1.5000 0.9000
vt 0.7500 1.0000
vt 0.5000 -1.0000
vt 3.0000 -1.0000
vt 3.0000 1.0000
vt 0.5000 1.0000
vt 0.0000 -1.0000
vt 1.5000 -1.0000
vt 1.5000 1.0000
vt -0.0000 1.0000
vt 0.0000 -1.0000
vt 3.5000 -1.0000
vt 3.5000 1.0000
vt -0.0000 1.0000
vt 0.5000 -1.0000
vt 4.5000 -1.0000
vt 4.5000 1.0000
vt 0.5000 1.0000
vt 0.5000 -1.0000
vt 9.0000 -1.0000
vt 9.0000 1.0000
vt 0.5000 1.0000
vt 0.5000 -1.0000
vt 4.5000 -1.0000
vt 4.5000 1.0000
vt 0.5000 1.0000
vt 0.5000 -1.0000
vt 3.0000 -1.0000
vt 3.0000 1.0000
vt 0.5000 1.0000
vt 0.5000 -1.0000
vt 2.0000 -1.0000
vt 2.0000 1.0000
vt 0.5000 1.0000
vt 0.5000 0.0000
vt 4.0000 0.0000
vt 2.2500 1.0000
vt 0.5000 0.9000
vt 3.0000 0.9000
vt 1.7500 1.0000
vt 0.5000 0.9000
vt 5.0000 0.9000
vt 5.0000 1.0000
vt 0.5000 1.0000
vt 0.5000 0.9000
vt 2.5000 0.9000
vt 2.5000 1.0000
vt 0.5000 1.0000
vt 0.0000 0.9000
vt 2.5000 0.9000
vt 2.5000 1.0000
vt -0.0000 1.0000
vt 0.0000 0.9000
vt 2.5000 0.9000
vt 2.5000 1.0000
vt -0.0000 1.0000
vt 0.5000 0.9000
vt 2.5000 0.9000
vt 2.5000 1.0000
vt 0.5000 1.0000
vt 0.0000 0.9000
vt 2.5000 0.9000
vt 2.5000 1.0000
vt -0.0000 1.0000
vt 0.5000 0.9000
vt 4.0000 0.9000
vt 4.0000 1.0000
vt 0.5000 1.0000
vt 0.5000 0.9000
vt 7.5000 0.9000
vt 7.5000 1.0000
vt 0.5000 1.0000
vt 0.0000 -1.0000
vt 3.0000 -1.0000
vt 3.0000 1.0000
vt -0.0000 1.0000
vt 0.0000 -1.0000
vt 5.0000 -1.0000
vt 5.0000 1.0000
vt -0.0000 1.0000
vt 0.5000 -1.0000
vt 2.0000 -1.0000
vt 2.0000 1.0000
vt 0.5000 1.0000
vt 0.0000 -1.0000
vt 3.0000 -1.0000
vt 3.0000 1.0000
vt -0.0000 1.0000
vt 0.0000 -1.0000
vt 1.5000 -1.0000
vt 1.5000 1.0000
vt -0.0000 1.0000
vt 0.0000 -1.0000
vt 2.0000 -1.0000
vt 2.0000 1.0000
vt -0.0000 1.0000
vt 0.5000 -1.0000
vt 5.5000 -1.0000
vt 5.5000 1.0000
vt 0.5000 1.0000
vt 0.0000 -1.0000
vt 4.0000 -1.0000
vt 4.0000 1.0000
vt -0.0000 1.0000
vt 0.0000 -1.0000
vt 1.5000 -1.0000
vt 1.5000 1.0000
vt -0.0000 1.0000
vt 0.0000 -1.0000
vt 2.0000 -1.0000
vt 2.0000 1.0000
vt -0.0000 1.0000
vt 0.5000 -1.0000
vt 2.0000 -1.0000
vt 2.0000 1.0000
vt 0.5000 1.0000
vt 0.5000 -1.0000
vt 2.5000 -1.0000
vt 2.5000 1.0000
vt 0.5000 1.0000
vt 0.5000 -1.0000
vt 2.0000 -1.0000
vt 2.0000 1.0000
vt 0.5000 1.0000
vt 0.0000 -1.0000
vt 4.0000 -1.0000
vt 4.0000 1.0000
vt -0.0000 1.0000
vt 0.0000 0.9000
vt 2.0000 0.9000
vt 2.0000 1.0000
vt -0.0000 1.0000
vt 0.5000 0.9000
vt 2.5000 0.9000
vt 2.5000 1.0000
vt 0.5000 1.0000
vt 0.0000 0.9000
vt 2.5000 0.9000
vt 2.5000 1.0000
vt -0.0000 1.0000
vt 0.5000 0.9000
vt 2.5000 0.9000
vt 2.5000 1.0000
vt 0.5000 1.0000
vt 0.0000 0.9000
vt 5.0000 0.9000
vt 5.0000 1.0000
vt -0.0000 1.0000
vt 0.0000 0.9000
vt 4.0000 0.9000
vt 4.0000 1.0000
vt -0.0000 1.0000
vt 0.5000 0.0000
vt 2.5000 0.0000
vt 1.5000 1.0000
vt 0.5000 0.0000
vt 2.5000 0.0000
vt 1.5000 1.0000
vt 0.5000 -1.0000
vt 2.5000 -1.0000
vt 2.5000 1.0000
vt 0.5000 1.0000
vt 0.0000 -1.0000
vt 2.5000 -1.0000
vt 2.5000 1.0000
vt -0.0000 1.0000
vt 0.0000 -1.0000
vt 4.5000 -1.0000
vt 4.5000 1.0000
vt -0.0000 1.0000
vt 0.5000 -1.0000
vt 8.0000 -1.0000
vt 8.0000 1.0000
vt 0.5000 1.0000
vt 0.0000 -1.0000
vt 4.5000 -1.0000
vt 4.5000 1.0000
vt -0.0000 1.0000
vt 0.0000 -1.0000
vt 3.0000 -1.0000
vt 3.0000 1.0000
vt -0.0000 1.0000
vt 0.5000 -1.0000
vt 2.5000 -1.0000
vt 2.5000 1.0000
vt 0.5000 1.0000
vt 0.5000 -1.0000
vt 3.0000 -1.0000
vt 3.0000 1.0000
vt 0.5000 1.0000
vt 0.5000 0.0000
vt 3.0000 0.0000
vt 1.7500 1.0000
vt 0.5000 0.0000
vt 3.5000 -0.0000
vt 2.0000 1.0000
vt 0.5000 -1.0000
vt 2.5000 -1.0000
vt 2.5000 1.0000
vt 0.5000 1.0000
vt 0.5000 -1.0000
vt 4.5000 -1.0000
vt 4.5000 1.0000
vt 0.5000 1.0000
vt 0.0000 -1.0000
vt 1.5000 -1.0000
vt 1.5000 1.0000
vt -0.0000 1.0000
vt 0.0000 -1.0000
vt 3.0000 -1.0000
vt 3.0000 1.0000
vt -0.0000 1.0000
vt 0.0000 -1.0000
vt 3.5000 -1.0000
vt 3.5000 1.0000
vt -0.0000 1.0000
vt 0.5000 -1.0000
vt 7.5000 -1.0000
vt 7.5000 1.0000
vt 0.5000 1.0000
vt 0.5000 0.0000
vt 2.5000 0.0000
vt 1.5000 1.0000
vt 0.5000 0.0000
vt 3.5000 -0.0000
vt 2.0000 1.0000
vt 0.0000 0.9000
vt 4.5000 0.9000
vt 4.5000 1.0000
vt -0.0000 1.0000
vt 0.5000 0.9000
vt 6.5000 0.9000
vt 6.5000 1.0000
vt 0.5000 1.0000
vt 0.0000 0.9000
vt 4.5000 0.9000
vt 4.5000 1.0000
vt -0.0000 1.0000
vt 0.5000 0.9000
vt 2.5000 0.9000
vt 2.5000 1.0000
vt 0.5000 1.0000
vt 0.0000 0.9000
vt 2.0000 0.9000
vt 2.0000 1.0000
vt -0.0000 1.0000
vt 0.5000 0.9000
vt 3.0000 0.9000
vt 3.0000 1.0000
vt 0.5000 1.0000
vt 0.0000 0.9000
vt 2.0000 0.9000
vt 2.0000 1.0000
vt -0.0000 1.0000
vt 0.5000 0.9000
vt 2.0000 0.9000
vt 2.0000 1.0000
vt 0.5000 1.0000
vt 0.5000 -1.0000
vt 4.0000 -1.0000
vt 4.0000 1.0000
vt 0.5000 1.0000
vt 0.0000 -1.0000
vt 3.0000 -1.0000
vt 3.0000 1.0000
vt -0.0000 1.0000
vt 0.0000 -1.0000
vt 2.0000 -1.0000
vt 2.0000 1.0000
vt -0.0000 1.0000
vt 0.0000 -1.0000
vt 3.0000 -1.0000
vt 3.0000 1.0000
vt -0.0000 1.0000
vt 0.5000 -1.0000
vt 2.5000 -1.0000
vt 2.5000 1.0000
vt 0.5000 1.0000
vt 0.5000 -1.0000
vt 2.5000 -1.0000
vt 2.5000 1.0000
vt 0.5000 1.0000
vt 0.0000 -1.0000
vt 1.0000 -1.0000
vt 1.0000 1.0000
vt -0.0000 1.0000
vt 0.0000 -1.0000
vt 2.0000 -1.0000
vt 2.0000 1.0000
vt -0.0000 1.0000
vt 0.5000 -1.0000
vt 2.0000 -1.0000
vt 2.0000 1.0000
vt 0.5000 1.0000
vt 0.5000 -1.0000
vt 3.0000 -1.0000
vt 3.0000 1.0000
vt 0.5000 1.0000
vt 0.5000 -1.0000
vt 1.0000 -1.0000
vt 1.0000 1.0000
vt 0.5000 1.0000
vt 0.5000 -1.0000
vt 3.5000 -1.0000
vt 3.5000 1.0000
vt 0.5000 1.0000
vt 0.0000 -1.0000
vt 4.0000 -1.0000
vt 4.0000 1.0000
vt -0.0000 1.0000
vt 0.0000 -1.0000
vt 7.0000 -1.0000
vt 7.0000 1.0000
vt -0.0000 1.0000
vt 0.0000 -1.0000
vt 2.5000 -1.0000
vt 2.5000 1.0000
vt -0.0000 1.0000
vt 0.0000 -1.0000
vt 1.0000 -1.0000
vt 1.0000 1.0000
vt -0.0000 1.0000
vn -0.2876 0.0000 -0.9578
vn -0.2920 0.0000 -0.9564
vn -0.2963 0.0000 -0.9551
vn -0.2823 0.0000 -0.9593
vn -0.9727 0.0000 0.2319
vn -0.9635 0.0000 0.2678
vn -0.9283 0.0000 0.3717
vn -0.9384 0.0000 0.3454
vn 0.3288 0.0000 0.9444
vn 0.9384 0.0000 -0.3454
vn 0.9283 0.0000 -0.3718
vn 0.9635 0.0000 -0.2679
vn 0.2880 0.0000 0.9576
vn 0.9569 0.0000 -0.2904
vn 0.9609 0.0000 -0.2768
vn -0.2360 0.0000 -0.9718
vn 0.9600 0.0000 -0.2801
vn 0.2569 0.0000 0.9664
vn -0.2569 0.0000 -0.9664
vn -0.9600 0.0000 0.2801
vn 0.2360 0.0000 0.9718
vn 0.9568 0.0000 -0.2906
vn -0.2904 0.0000 -0.9569
vn -0.9530 0.0000 0.3031
vn 0.2904 0.0000 0.9569
vn -0.9568 0.0000 0.2906
vn 0.2922 0.0000 0.9563
vn 0.1610 0.0000 -0.9870
vn 0.9868 0.0000 0.1616
vn 0.1116 0.0000 0.9938
vn 0.9868 0.0000 0.1617
vn -0.1116 0.0000 -0.9938
vn -0.9868 0.0000 -0.1617
vn -0.1610 0.0000 0.9870
vn 0.9868 -0.0001 0.1617
vn 0.9868 0.0001 0.1617
vn -0.0845 0.0000 0.9964
vn -0.9992 0.0000 -0.0395
vn 0.9992 0.0000 0.0395
vn 0.0845 0.0000 -0.9964
vn -0.9965 0.0000 -0.0831
vn 0.9965 0.0000 0.0831
vn -0.0845 -0.0001 0.9964
vn -0.9893 0.0000 0.1456
vn -0.0516 0.0000 0.9987
vn 0.9893 0.0000 -0.1456
vn -0.0515 0.0000 0.9987
vn -0.9880 0.0000 0.1547
vn 0.1554 0.0000 0.9878
vn 0.9880 0.0000 -0.1547
vn 0.0515 0.0000 -0.9987
vn 0.9913 0.0000 -0.1313
vn -0.1527 0.0000 -0.9883
vn -0.9883 0.0000 0.1523
vn 0.1527 0.0000 0.9883
vn -0.9913 0.0000 0.1313
vn 0.1322 0.0000 0.9912
vn 0.1320 0.0000 0.9912
vn 0.9912 0.0000 -0.1326
vn -0.1319 0.0000 -0.9913
vn -0.9912 0.0000 0.1326
vn -0.1320 0.0000 -0.9912
vn 0.9983 0.0000 -0.0578
vn -0.9983 0.0000 0.0578
vn 0.6270 0.0000 0.7790
vn 0.7793 0.0000 -0.6267
vn 0.9209 0.0000 -0.3897
vn -0.6270 0.0000 -0.7790
vn -0.7793 0.0000 0.6266
vn 0.6270 -0.0001 0.7790
vn 0.9209 -0.0001 -0.3897
vn -0.1122 0.0000 0.9937
vn 0.9937 0.0000 0.1124
vn 0.1122 0.0000 -0.9937
vn -0.9937 0.0000 -0.1124
vn -0.1114 0.0000 0.9938
vn 0.1114 0.0000 -0.9938
vn -0.7896 0.0000 0.6136
vn 0.4603 0.0000 0.8877
vn -0.7902 0.0000 0.6129
vn 0.4612 0.0000 0.8873
vn 0.7902 0.0000 -0.6128
vn -0.4603 0.0000 -0.8877
vn -0.7896 0.0001 0.6136
vn 0.1273 0.0000 0.9919
vn 0.9919 0.0000 -0.1272
vn -0.1273 0.0000 -0.9919
vn -0.9919 0.0000 0.1272
vn -0.9897 0.0000 -0.1432
vn -0.1528 0.0000 0.9883
vn 0.1482 0.0000 0.9890
vn 0.9891 0.0000 -0.1472
vn 0.1522 0.0000 -0.9884
vn -0.9891 0.0000 0.1473
vn 0.1528 0.0000 -0.9883
vn 0.9897 0.0000 0.1432
vn 0.9995 0.0000 0.0304
vn -0.2575 0.0000 0.9663
vn 0.9662 0.0000 0.2578
vn 0.2576 0.0000 -0.9663
vn -0.9995 0.0000 -0.0304
vn -0.0301 0.0000 0.9995
g CityEngineMaterial_260_CityEngineMaterial_260_CityEngineMaterial_260_mat
usemtl CityEngineMaterial_260_mat
s 1
f 1/1/1 2/2/2 3/3/2 4/4/1
f 2/5/2 5/6/3 6/7/3 3/8/2
f 5/9/4 7/10/4 8/11/4 6/12/4
f 7/13/5 9/14/5 10/15/5 8/16/5
f 9/17/6 11/18/6 12/19/6 10/20/6
f 11/21/7 13/22/7 14/23/7 12/24/7
f 13/25/8 15/26/8 16/27/8 14/28/8
f 15/29/9 17/30/9 18/31/9 16/32/9
f 17/33/10 19/34/10 20/35/10 18/36/10
f 19/37/11 21/38/11 22/39/11 20/40/11
f 21/41/12 23/42/12 24/43/12 22/44/12
f 23/45/13 25/46/13 26/47/13 24/48/13
f 25/49/14 1/50/14 4/51/14 26/52/14
f 27/53/15 28/54/15 29/55/15 30/56/15
f 28/57/16 31/58/16 32/59/16 29/60/16
f 31/61/17 33/62/17 34/63/17 32/64/17
f 33/65/18 35/66/18 36/67/18 34/68/18
f 35/69/15 37/70/15 38/71/15 36/72/15
f 37/73/19 39/74/19 40/75/19 38/76/19
f 39/77/20 41/78/20 42/79/20 40/80/20
f 41/81/21 27/82/21 30/83/21 42/84/21
f 43/85/22 44/86/22 45/87/22 46/88/22
f 44/89/23 47/90/23 48/91/23 45/92/23
f 47/93/24 49/94/24 50/95/24 48/96/24
f 49/97/25 51/98/25 52/99/25 50/100/25
f 51/101/26 53/102/26 54/103/26 52/104/26
f 53/105/27 43/106/27 46/107/27 54/108/27
f 55/109/28 56/110/28 57/111/28 58/112/28
f 56/113/29 59/114/29 60/115/29 57/116/29
f 59/117/30 61/118/30 62/119/30 60/120/30
f 61/121/31 63/122/31 64/123/31 62/124/31
f 63/125/32 65/126/32 66/127/32 64/128/32
f 65/129/33 67/130/33 68/131/33 66/132/33
f 67/133/34 69/134/34 70/135/34 68/136/34
f 69/137/31 55/138/31 58/139/31 70/140/31
f 62/141/35 64/142/35 71/143/35
f 70/144/36 58/145/36 72/146/36
f 73/147/37 74/148/37 75/149/37 76/150/37
f 74/151/38 77/152/38 78/153/38 75/154/38
f 77/155/37 79/156/37 80/157/37 78/158/37
f 79/159/39 81/160/39 82/161/39 80/162/39
f 81/163/40 83/164/40 84/165/40 82/166/40
f 83/167/41 85/168/41 86/169/41 84/170/41
f 85/171/37 87/172/37 88/173/37 86/174/37
f 87/175/42 73/176/42 76/177/42 88/178/42
f 78/179/43 80/180/43 89/181/43
f 86/182/37 88/183/37 90/184/37
f 91/185/44 92/186/44 93/187/44 94/188/44
f 92/189/45 95/190/45 96/191/45 93/192/45
f 95/193/46 97/194/46 98/195/46 96/196/46
f 97/197/47 99/198/47 100/199/47 98/200/47
f 99/201/48 101/202/48 102/203/48 100/204/48
f 101/205/49 103/206/49 104/207/49 102/208/49
f 103/209/50 105/210/50 106/211/50 104/212/50
f 105/213/51 91/214/51 94/215/51 106/216/51
f 107/217/52 108/218/52 109/219/52 110/220/52
f 108/221/53 111/222/53 112/223/53 109/224/53
f 111/225/54 113/226/54 114/227/54 112/228/54
f 113/229/55 115/230/55 116/231/55 114/232/55
f 115/233/56 117/234/56 118/235/56 116/236/56
f 117/237/57 107/238/57 110/239/57 118/240/57
f 119/241/58 120/242/58 121/243/58 122/244/58
f 120/245/59 123/246/59 124/247/59 121/248/59
f 123/249/60 125/250/60 126/251/60 124/252/60
f 125/253/61 127/254/61 128/255/61 126/256/61
f 127/257/62 129/258/62 130/259/62 128/260/62
f 129/261/63 131/262/63 132/263/63 130/264/63
f 131/265/60 133/266/60 134/267/60 132/268/60
f 133/269/64 119/270/64 122/271/64 134/272/64
f 135/273/65 136/274/65 137/275/65 138/276/65
f 136/277/66 139/278/66 140/279/66 137/280/66
f 139/281/65 141/282/65 142/283/65 140/284/65
f 141/285/67 143/286/67 144/287/67 142/288/67
f 143/289/68 145/290/68 146/291/68 144/292/68
f 145/293/69 135/294/69 138/295/69 146/296/69
f 138/297/70 137/298/70 147/299/70
f 142/300/71 144/301/71 148/302/71
f 149/303/72 150/304/72 151/305/72 152/306/72
f 150/307/73 153/308/73 154/309/73 151/310/73
f 153/311/74 155/312/74 156/313/74 154/314/74
f 155/315/75 157/316/75 158/317/75 156/318/75
f 157/319/76 159/320/76 160/321/76 158/322/76
f 159/323/73 161/324/73 162/325/73 160/326/73
f 161/327/77 163/328/77 164/329/77 162/330/77
f 163/331/73 149/332/73 152/333/73 164/334/73
f 151/335/73 154/336/73 165/337/73
f 160/338/73 162/339/73 166/340/73
f 167/341/78 168/342/78 169/343/78 170/344/78
f 168/345/79 171/346/79 172/347/79 169/348/79
f 171/349/80 173/350/80 174/351/80 172/352/80
f 173/353/81 175/354/81 176/355/81 174/356/81
f 175/357/82 177/358/82 178/359/82 176/360/82
f 177/361/83 167/362/83 170/363/83 178/364/83
f 170/365/84 169/366/84 179/367/84
f 174/368/81 176/369/81 180/370/81
f 181/371/85 182/372/85 183/373/85 184/374/85
f 182/375/86 185/376/86 186/377/86 183/378/86
f 185/379/87 187/380/87 188/381/87 186/382/87
f 187/383/88 189/384/88 190/385/88 188/386/88
f 189/387/85 191/388/85 192/389/85 190/390/85
f 191/391/88 193/392/88 194/393/88 192/394/88
f 193/395/87 195/396/87 196/397/87 194/398/87
f 195/399/88 181/400/88 184/401/88 196/402/88
f 197/403/89 198/404/89 199/405/89 200/406/89
f 198/407/90 201/408/90 202/409/90 199/410/90
f 201/411/91 203/412/91 204/413/91 202/414/91
f 203/415/92 205/416/92 206/417/92 204/418/92
f 205/419/93 207/420/93 208/421/93 206/422/93
f 207/423/94 209/424/94 210/425/94 208/426/94
f 209/427/95 211/428/95 212/429/95 210/430/95
f 211/431/96 213/432/96 214/433/96 212/434/96
f 213/435/93 197/436/93 200/437/93 214/438/93
f 215/439/97 216/440/97 217/441/97 218/442/97
f 216/443/98 219/444/98 220/445/98 217/446/98
f 219/447/99 221/448/99 222/449/99 220/450/99
f 221/451/100 223/452/100 224/453/100 222/454/100
f 223/455/101 225/456/101 226/457/101 224/458/101
f 225/459/102 227/460/102 228/461/102 226/462/102
f 227/463/99 215/464/99 218/465/99 228/466/99
