# Blender v2.78 (sub 0) OBJ File: ''
# www.blender.org
mtllib CityEngineMaterial_650.mtl
o CityEngineMaterial_650
v -1426.284058 14.210545 337.245087
v -1428.050293 14.210544 343.255402
v -1428.050293 16.271944 343.255402
v -1426.284058 16.271944 337.245087
v -1425.556641 14.210544 344.314514
v -1425.556641 16.271944 344.314514
v -1427.174561 14.210543 349.815796
v -1427.174561 16.271942 349.815796
v -1429.668945 14.210543 348.763397
v -1429.668945 16.271942 348.763397
v -1431.476562 14.210542 354.914612
v -1431.476562 16.271942 354.914612
v -1423.488525 14.210542 358.284912
v -1423.488525 16.271940 358.284912
v -1418.297974 14.210545 340.636810
v -1418.297974 16.271944 340.636810
v 33.863998 36.146709 -1280.191162
v 33.644402 36.146709 -1276.204712
v 33.644402 37.937111 -1276.204712
v 33.863998 37.937111 -1280.191162
v 33.499901 36.146706 -1272.737305
v 33.499901 37.937107 -1272.737305
v 38.022598 36.146706 -1267.668579
v 38.022598 37.937107 -1267.668579
v 41.926998 36.146706 -1271.154907
v 41.926998 37.937107 -1271.154907
v 896.461487 105.033836 -241.357178
v 894.963928 105.033836 -251.086487
v 894.963928 105.755737 -251.086487
v 896.461487 105.755737 -241.357178
v 875.517578 105.033836 -248.161682
v 875.517578 105.755737 -248.161682
v 877.024170 105.033836 -238.390579
v 877.024170 105.755737 -238.390579
v 881.709900 105.033836 -239.105682
v 881.709900 105.755737 -239.105682
v 881.215576 105.033836 -242.311890
v 881.215576 105.755737 -242.311890
v 890.594482 105.033836 -243.722488
v 890.594482 105.755737 -243.722488
v 891.084900 105.033836 -240.536591
v 891.084900 105.755737 -240.536591
v 126.857101 37.189587 -1154.565308
v 127.099098 37.189587 -1149.818359
v 127.099098 39.414585 -1149.818359
v 126.857101 39.414585 -1154.565308
v 128.145905 37.189587 -1148.393921
v 128.145905 39.414585 -1148.393921
v 137.567307 37.189587 -1155.352539
v 137.567307 39.414585 -1155.352539
v 128.119995 37.189590 -1168.208862
v 128.119995 39.414589 -1168.208862
v 126.232101 37.189590 -1166.822998
v 126.232101 39.414589 -1166.822998
v 126.603401 37.189590 -1159.542236
v 126.603401 39.414589 -1159.542236
v 129.063202 37.189587 -1156.194702
v 129.063202 39.414585 -1156.194702
v -803.018188 12.037314 524.127014
v -807.279785 12.037315 523.887573
v -807.279785 12.608815 523.887573
v -803.018188 12.608814 524.127014
v -807.590881 12.037314 527.809509
v -807.590881 12.608814 527.809509
v -799.700623 12.037314 528.252625
v -799.700623 12.608814 528.252625
v -798.786987 12.037316 516.737305
v -798.786987 12.608816 516.737305
v -806.663513 12.037316 516.118591
v -806.663513 12.608816 516.118591
v -806.889526 12.037315 518.968201
v -806.889526 12.608815 518.968201
v -802.635620 12.037315 519.302429
v -802.635620 12.608815 519.302429
v -132.164398 35.402699 -1211.598022
v -140.362900 35.402699 -1210.311401
v -140.362900 35.995197 -1210.311401
v -132.164398 35.995197 -1211.598022
v -139.860596 35.402699 -1207.100952
v -139.860596 35.995197 -1207.100952
v -135.764999 35.402699 -1207.743652
v -135.764999 35.995197 -1207.743652
v -134.742096 35.402695 -1201.210083
v -134.742096 35.995193 -1201.210083
v -130.638702 35.402695 -1201.852539
v -130.638702 35.995193 -1201.852539
v 233.276703 42.519661 -976.205200
v 236.197403 42.519657 -970.900879
v 236.197403 44.238556 -970.900879
v 233.276703 44.238659 -976.205200
v 244.005798 42.519661 -975.422302
v 244.005798 44.238659 -975.422302
v 235.932602 42.519661 -990.083801
v 235.932602 44.238560 -990.083801
v 232.826508 42.519661 -988.373901
v 232.826508 44.238659 -988.373901
v 233.042099 42.519661 -982.546997
v 233.042099 44.238659 -982.546997
v 233.574905 42.519661 -982.840271
v 233.574905 44.238560 -982.840271
v 236.010193 42.519661 -978.417480
v 236.010193 44.238560 -978.417480
v 233.253906 42.519661 -976.821472
v 233.253906 44.238659 -976.821472
v -713.825378 42.649464 -995.798828
v -719.298889 42.649460 -993.753906
v -719.298889 44.636662 -993.753906
v -713.825378 44.636665 -995.798828
v -718.288086 42.649460 -991.076172
v -718.288086 44.636662 -991.076172
v -727.395081 42.649460 -987.631775
v -727.395081 44.636662 -987.631775
v -727.191711 42.649460 -987.090393
v -727.191711 44.636662 -987.090393
v -724.386414 42.649460 -979.675476
v -724.386414 44.636662 -979.675476
v -709.818726 42.649460 -985.184998
v -709.818726 44.636662 -985.184998
v -1169.228760 15.378222 479.266510
v -1179.720337 15.378222 476.881500
v -1179.720337 17.507221 476.881500
v -1169.228760 17.507221 479.266510
v -1180.729736 15.378222 481.312012
v -1180.729736 17.507221 481.312012
v -1175.722778 15.378222 482.450287
v -1175.722778 17.507221 482.450287
v -1177.138306 15.378221 488.663391
v -1177.138306 17.507219 488.663391
v -1182.145752 15.378221 487.527588
v -1182.145752 17.507219 487.527588
v -1183.584229 15.378220 493.841187
v -1183.584229 17.507219 493.841187
v -1173.091309 15.378219 496.221008
v -1173.091309 17.507219 496.221008
v -387.253204 7.585645 950.416626
v -391.185791 7.585645 950.198914
v -391.185791 9.384746 950.198914
v -387.253204 9.384746 950.416626
v -391.905090 7.585644 956.392029
v -391.905090 9.384745 956.392029
v -383.409790 7.585644 956.862183
v -383.409790 9.384745 956.862183
v -381.655396 7.585647 941.740601
v -381.655396 9.384747 941.740601
v -390.135986 7.585647 941.160522
v -390.135986 9.384747 941.160522
v -390.649109 7.585646 945.577881
v -390.649109 9.384746 945.577881
v -386.722992 7.585646 945.846497
v -386.722992 9.384746 945.846497
v -391.545410 10.675445 953.295410
v -390.392609 10.306046 943.369324
vt 0.5000 -1.0000
vt 3.0000 -1.0000
vt 3.0000 1.0000
vt 0.5000 1.0000
vt 0.0000 -1.0000
vt 1.0000 -1.0000
vt 1.0000 1.0000
vt 0.0000 1.0000
vt 0.5000 -1.0000
vt 3.0000 -1.0000
vt 3.0000 1.0000
vt 0.5000 1.0000
vt 0.5000 -1.0000
vt 1.5000 -1.0000
vt 1.5000 1.0000
vt 0.5000 1.0000
vt 0.0000 -1.0000
vt 2.5000 -1.0000
vt 2.5000 1.0000
vt 0.0000 1.0000
vt 0.5000 -1.0000
vt 4.0000 -1.0000
vt 4.0000 1.0000
vt 0.5000 1.0000
vt 0.0000 -1.0000
vt 7.5000 -1.0000
vt 7.5000 1.0000
vt 0.0000 1.0000
vt 0.0000 -1.0000
vt 3.5000 -1.0000
vt 3.5000 1.0000
vt 0.0000 1.0000
vt 0.0000 0.0000
vt 1.5000 0.0000
vt 1.5000 1.0000
vt 0.0000 1.0000
vt 0.0000 0.0000
vt 1.5000 0.0000
vt 1.5000 1.0000
vt 0.0000 1.0000
vt 0.5000 0.0000
vt 3.0000 0.0000
vt 3.0000 1.0000
vt 0.5000 1.0000
vt 0.5000 0.0000
vt 2.5000 0.0000
vt 2.5000 1.0000
vt 0.5000 1.0000
vt 0.5000 0.0000
vt 5.0000 0.0000
vt 5.0000 1.0000
vt 0.5000 1.0000
vt 0.5000 0.9000
vt 5.0000 0.9000
vt 5.0000 1.0000
vt 0.5000 1.0000
vt 0.0000 0.9000
vt 8.5000 0.9000
vt 8.5000 1.0000
vt 0.0000 1.0000
vt 0.5000 0.9000
vt 5.0000 0.9000
vt 5.0000 1.0000
vt 0.5000 1.0000
vt 0.5000 0.9000
vt 2.5000 0.9000
vt 2.5000 1.0000
vt 0.5000 1.0000
vt 0.0000 0.9000
vt 1.5000 0.9000
vt 1.5000 1.0000
vt 0.0000 1.0000
vt 0.5000 0.9000
vt 4.5000 0.9000
vt 4.5000 1.0000
vt 0.5000 1.0000
vt 0.5000 0.9000
vt 2.0000 0.9000
vt 2.0000 1.0000
vt 0.5000 1.0000
vt 0.0000 0.9000
vt 2.5000 0.9000
vt 2.5000 1.0000
vt 0.0000 1.0000
vt 0.5000 -1.0000
vt 2.5000 -1.0000
vt 2.5000 1.0000
vt 0.5000 1.0000
vt 0.5000 -1.0000
vt 1.0000 -1.0000
vt 1.0000 1.0000
vt 0.5000 1.0000
vt 0.0000 -1.0000
vt 5.0000 -1.0000
vt 5.0000 1.0000
vt 0.0000 1.0000
vt 0.0000 -1.0000
vt 6.5000 -1.0000
vt 6.5000 1.0000
vt 0.0000 1.0000
vt 0.0000 -1.0000
vt 1.0000 -1.0000
vt 1.0000 1.0000
vt 0.0000 1.0000
vt 0.5000 -1.0000
vt 3.5000 -1.0000
vt 3.5000 1.0000
vt 0.5000 1.0000
vt 0.5000 -1.0000
vt 2.0000 -1.0000
vt 2.0000 1.0000
vt 0.5000 1.0000
vt 0.0000 -1.0000
vt 1.0000 -1.0000
vt 1.0000 1.0000
vt 0.0000 1.0000
vt 0.5000 0.9000
vt 2.0000 0.9000
vt 2.0000 1.0000
vt 0.5000 1.0000
vt 0.0000 0.9000
vt 1.5000 0.9000
vt 1.5000 1.0000
vt 0.0000 1.0000
vt 0.0000 0.9000
vt 3.0000 0.9000
vt 3.0000 1.0000
vt 0.0000 1.0000
vt 0.0000 0.9000
vt 4.5000 0.9000
vt 4.5000 1.0000
vt 0.0000 1.0000
vt 0.0000 0.9000
vt 3.0000 0.9000
vt 3.0000 1.0000
vt 0.0000 1.0000
vt 0.0000 0.9000
vt 1.0000 0.9000
vt 1.0000 1.0000
vt 0.0000 1.0000
vt 0.0000 0.9000
vt 1.5000 0.9000
vt 1.5000 1.0000
vt 0.0000 1.0000
vt 0.5000 0.9000
vt 2.5000 0.9000
vt 2.5000 1.0000
vt 0.5000 1.0000
vt 0.0000 0.9000
vt 3.5000 0.9000
vt 3.5000 1.0000
vt 0.0000 1.0000
vt 0.0000 0.9000
vt 1.5000 0.9000
vt 1.5000 1.0000
vt 0.0000 1.0000
vt 0.5000 0.9000
vt 2.5000 0.9000
vt 2.5000 1.0000
vt 0.5000 1.0000
vt 0.0000 0.9000
vt 3.0000 0.9000
vt 3.0000 1.0000
vt 0.0000 1.0000
vt 0.0000 0.9000
vt 2.0000 0.9000
vt 2.0000 1.0000
vt 0.0000 1.0000
vt 0.0000 0.9000
vt 4.5000 0.9000
vt 4.5000 1.0000
vt 0.0000 1.0000
vt 0.5000 -1.0000
vt 3.0000 -1.0000
vt 3.0000 1.0000
vt 0.5000 1.0000
vt 0.0000 -1.0000
vt 3.5000 -1.0000
vt 3.5000 1.0000
vt 0.0000 1.0000
vt 0.5000 -1.0000
vt 7.0000 -1.0000
vt 7.0000 1.0000
vt 0.5000 1.0000
vt 0.5000 -1.0000
vt 2.0000 -1.0000
vt 2.0000 1.0000
vt 0.5000 1.0000
vt 0.0000 -1.0000
vt 2.5000 -1.0000
vt 2.5000 1.0000
vt 0.0000 1.0000
vt 0.5000 -1.0000
vt 0.6000 -1.0000
vt 0.6000 1.0000
vt 0.5000 1.0000
vt 0.5000 -1.0000
vt 2.5000 -1.0000
vt 2.5000 1.0000
vt 0.5000 1.0000
vt 0.0000 -1.0000
vt 1.0000 -1.0000
vt 1.0000 1.0000
vt 0.0000 1.0000
vt 0.5000 -1.0000
vt 0.6000 -1.0000
vt 0.6000 1.0000
vt 0.5000 1.0000
vt 0.0000 -1.0000
vt 2.0000 -1.0000
vt 2.0000 1.0000
vt 0.0000 1.0000
vt 0.0000 -1.0000
vt 1.0000 -1.0000
vt 1.0000 1.0000
vt 0.0000 1.0000
vt 0.5000 -1.0000
vt 4.0000 -1.0000
vt 4.0000 1.0000
vt 0.5000 1.0000
vt 0.0000 -1.0000
vt 0.1000 -1.0000
vt 0.1000 1.0000
vt 0.0000 1.0000
vt 0.0000 -1.0000
vt 3.0000 -1.0000
vt 3.0000 1.0000
vt 0.0000 1.0000
vt 0.0000 -1.0000
vt 5.5000 -1.0000
vt 5.5000 1.0000
vt 0.0000 1.0000
vt 0.0000 -1.0000
vt 4.0000 -1.0000
vt 4.0000 1.0000
vt 0.0000 1.0000
vt 0.5000 -1.0000
vt 5.0000 -1.0000
vt 5.0000 1.0000
vt 0.5000 1.0000
vt 0.5000 -1.0000
vt 2.5000 -1.0000
vt 2.5000 1.0000
vt 0.5000 1.0000
vt 0.5000 -1.0000
vt 2.5000 -1.0000
vt 2.5000 1.0000
vt 0.5000 1.0000
vt 0.0000 -1.0000
vt 2.5000 -1.0000
vt 2.5000 1.0000
vt 0.0000 1.0000
vt 0.5000 -1.0000
vt 2.5000 -1.0000
vt 2.5000 1.0000
vt 0.5000 1.0000
vt 0.0000 -1.0000
vt 2.5000 -1.0000
vt 2.5000 1.0000
vt 0.0000 1.0000
vt 0.0000 -1.0000
vt 4.5000 -1.0000
vt 4.5000 1.0000
vt 0.0000 1.0000
vt 0.5000 -1.0000
vt 7.5000 -1.0000
vt 7.5000 1.0000
vt 0.5000 1.0000
vt 0.0000 -1.0000
vt 1.5000 -1.0000
vt 1.5000 1.0000
vt 0.0000 1.0000
vt 0.0000 -1.0000
vt 2.5000 -1.0000
vt 2.5000 1.0000
vt 0.0000 1.0000
vt 0.5000 -1.0000
vt 3.5000 -1.0000
vt 3.5000 1.0000
vt 0.5000 1.0000
vt 0.5000 -1.0000
vt 6.0000 -1.0000
vt 6.0000 1.0000
vt 0.5000 1.0000
vt 0.0000 -1.0000
vt 3.0000 -1.0000
vt 3.0000 1.0000
vt 0.0000 1.0000
vt 0.5000 -1.0000
vt 2.0000 -1.0000
vt 2.0000 1.0000
vt 0.5000 1.0000
vt 0.0000 -1.0000
vt 1.5000 -1.0000
vt 1.5000 1.0000
vt 0.0000 1.0000
vt 0.0000 -1.0000
vt 1.5000 -1.0000
vt 1.5000 1.0000
vt 0.0000 1.0000
vt 0.5000 0.0000
vt 3.0000 0.0000
vt 1.7500 1.0000
vt 0.0000 0.0000
vt 1.5000 0.0000
vt 0.7500 1.0000
vn -0.9594 0.0000 -0.2819
vn -0.3909 0.0000 0.9204
vn -0.9594 0.0000 -0.2821
vn 0.3887 0.0000 -0.9214
vn -0.3887 0.0000 0.9214
vn 0.9594 0.0000 0.2822
vn 0.3909 0.0000 -0.9204
vn -0.9985 0.0000 -0.0550
vn -0.9988 0.0000 -0.0483
vn -0.9991 0.0000 -0.0416
vn -0.7461 0.0000 0.6658
vn 0.6660 0.0000 0.7459
vn 0.7461 0.0000 -0.6658
vn 0.9884 0.0000 -0.1521
vn -0.1487 0.0000 -0.9889
vn -0.9883 0.0000 0.1524
vn 0.1509 0.0000 0.9886
vn 0.9883 0.0000 -0.1524
vn 0.1487 0.0000 0.9889
vn -0.9884 0.0000 0.1521
vn -0.9987 0.0000 0.0509
vn -0.8058 0.0000 0.5922
vn 0.5941 0.0000 0.8044
vn 0.8058 0.0000 -0.5922
vn -0.5917 0.0000 -0.8061
vn -0.8058 0.0000 0.5921
vn -0.5941 0.0000 -0.8044
vn 0.0561 0.0000 -0.9984
vn -0.9969 0.0000 -0.0791
vn -0.0561 0.0000 0.9984
vn 0.9969 0.0000 0.0791
vn 0.0783 0.0000 -0.9969
vn -0.0783 0.0000 0.9969
vn -0.9969 0.0000 -0.0790
vn -0.1550 0.0000 -0.9879
vn -0.9880 0.0000 0.1546
vn 0.1551 0.0000 0.9879
vn -0.9880 0.0000 0.1547
vn 0.1547 0.0000 0.9880
vn 0.9880 0.0000 -0.1547
vn -0.8760 0.0000 0.4823
vn 0.5011 0.0000 0.8654
vn 0.8760 0.0000 -0.4823
vn -0.4823 0.0000 -0.8760
vn -0.9993 0.0000 0.0370
vn 0.4822 0.0000 0.8761
vn -0.5011 0.0000 -0.8654
vn -0.3500 0.0000 -0.9368
vn -0.9356 0.0000 0.3532
vn -0.3538 0.0000 -0.9353
vn -0.9361 0.0000 0.3517
vn -0.9357 0.0000 0.3528
vn -0.9353 0.0000 0.3539
vn 0.3537 0.0000 0.9353
vn 0.9356 0.0000 -0.3532
vn 0.2217 0.0000 -0.9751
vn -0.9750 0.0000 -0.2221
vn -0.2217 0.0000 0.9751
vn 0.2212 0.0000 -0.9752
vn -0.2212 0.0000 0.9752
vn 0.9750 0.0000 0.2221
vn 0.0553 0.0000 -0.9985
vn -0.9933 0.0000 -0.1154
vn -0.0553 0.0000 0.9985
vn 0.9933 0.0000 0.1152
vn 0.0682 0.0000 -0.9977
vn -0.0683 0.0000 0.9977
vn -0.9933 0.0000 -0.1152
vn -0.9933 -0.0001 -0.1154
g CityEngineMaterial_650_CityEngineMaterial_650_CityEngineMaterial_650_mat
usemtl CityEngineMaterial_650_mat
s 1
f 1/1/1 2/2/1 3/3/1 4/4/1
f 2/5/2 5/6/2 6/7/2 3/8/2
f 5/9/3 7/10/3 8/11/3 6/12/3
f 7/13/4 9/14/4 10/15/4 8/16/4
f 9/17/1 11/18/1 12/19/1 10/20/1
f 11/21/5 13/22/5 14/23/5 12/24/5
f 13/25/6 15/26/6 16/27/6 14/28/6
f 15/29/7 1/30/7 4/31/7 16/32/7
f 17/33/8 18/34/9 19/35/9 20/36/8
f 18/37/9 21/38/10 22/39/10 19/40/9
f 21/41/11 23/42/11 24/43/11 22/44/11
f 23/45/12 25/46/12 26/47/12 24/48/12
f 25/49/13 17/50/13 20/51/13 26/52/13
f 27/53/14 28/54/14 29/55/14 30/56/14
f 28/57/15 31/58/15 32/59/15 29/60/15
f 31/61/16 33/62/16 34/63/16 32/64/16
f 33/65/17 35/66/17 36/67/17 34/68/17
f 35/69/18 37/70/18 38/71/18 36/72/18
f 37/73/19 39/74/19 40/75/19 38/76/19
f 39/77/20 41/78/20 42/79/20 40/80/20
f 41/81/17 27/82/17 30/83/17 42/84/17
f 43/85/21 44/86/21 45/87/21 46/88/21
f 44/89/22 47/90/22 48/91/22 45/92/22
f 47/93/23 49/94/23 50/95/23 48/96/23
f 49/97/24 51/98/24 52/99/24 50/100/24
f 51/101/25 53/102/25 54/103/25 52/104/25
f 53/105/21 55/106/21 56/107/21 54/108/21
f 55/109/26 57/110/26 58/111/26 56/112/26
f 57/113/27 43/114/27 46/115/27 58/116/27
f 59/117/28 60/118/28 61/119/28 62/120/28
f 60/121/29 63/122/29 64/123/29 61/124/29
f 63/125/30 65/126/30 66/127/30 64/128/30
f 65/129/31 67/130/31 68/131/31 66/132/31
f 67/133/32 69/134/32 70/135/32 68/136/32
f 69/137/29 71/138/29 72/139/29 70/140/29
f 71/141/33 73/142/33 74/143/33 72/144/33
f 73/145/34 59/146/34 62/147/34 74/148/34
f 75/149/35 76/150/35 77/151/35 78/152/35
f 76/153/36 79/154/36 80/155/36 77/156/36
f 79/157/37 81/158/37 82/159/37 80/160/37
f 81/161/38 83/162/38 84/163/38 82/164/38
f 83/165/39 85/166/39 86/167/39 84/168/39
f 85/169/40 75/170/40 78/171/40 86/172/40
f 87/173/41 88/174/41 89/175/41 90/176/41
f 88/177/42 91/178/42 92/179/42 89/180/42
f 91/181/43 93/182/43 94/183/43 92/184/43
f 93/185/44 95/186/44 96/187/44 94/188/44
f 95/189/45 97/190/45 98/191/45 96/192/45
f 97/193/46 99/194/46 100/195/46 98/196/46
f 99/197/41 101/198/41 102/199/41 100/200/41
f 101/201/47 103/202/47 104/203/47 102/204/47
f 103/205/45 87/206/45 90/207/45 104/208/45
f 105/209/48 106/210/48 107/211/48 108/212/48
f 106/213/49 109/214/49 110/215/49 107/216/49
f 109/217/50 111/218/50 112/219/50 110/220/50
f 111/221/51 113/222/52 114/223/52 112/224/51
f 113/225/52 115/226/53 116/227/53 114/228/52
f 115/229/54 117/230/54 118/231/54 116/232/54
f 117/233/55 105/234/55 108/235/55 118/236/55
f 119/237/56 120/238/56 121/239/56 122/240/56
f 120/241/57 123/242/57 124/243/57 121/244/57
f 123/245/58 125/246/58 126/247/58 124/248/58
f 125/249/57 127/250/57 128/251/57 126/252/57
f 127/253/59 129/254/59 130/255/59 128/256/59
f 129/257/57 131/258/57 132/259/57 130/260/57
f 131/261/60 133/262/60 134/263/60 132/264/60
f 133/265/61 119/266/61 122/267/61 134/268/61
f 135/269/62 136/270/62 137/271/62 138/272/62
f 136/273/63 139/274/63 140/275/63 137/276/63
f 139/277/64 141/278/64 142/279/64 140/280/64
f 141/281/65 143/282/65 144/283/65 142/284/65
f 143/285/66 145/286/66 146/287/66 144/288/66
f 145/289/63 147/290/63 148/291/63 146/292/63
f 147/293/67 149/294/67 150/295/67 148/296/67
f 149/297/68 135/298/68 138/299/68 150/300/68
f 137/301/63 140/302/63 151/303/63
f 146/304/69 148/305/69 152/306/69
