# Blender v2.78 (sub 0) OBJ File: ''
# www.blender.org
mtllib CityEngineMaterial_634.mtl
o CityEngineMaterial_634
v -70.057899 4.401703 -20.238899
v -70.096397 4.401703 -19.019300
v -70.096397 6.029603 -19.019299
v -70.057899 6.029603 -20.238897
v -71.413498 4.401703 -19.124500
v -71.413498 6.029603 -19.124498
v -70.940804 4.401701 -7.709499
v -70.940804 6.029602 -7.709499
v -66.177299 4.401701 -7.328899
v -66.177299 6.029602 -7.328899
v -65.774597 4.401703 -20.100000
v -65.774597 6.029603 -20.099897
v 445.437897 21.407042 358.279114
v 448.663513 21.407040 369.629395
v 448.663513 23.543339 369.629395
v 445.437897 23.543341 358.279114
v 457.873596 21.407042 367.017792
v 457.873596 23.543341 367.017792
v 455.596313 21.407042 359.000305
v 455.596313 23.543341 359.000305
v 452.540985 21.407042 359.866699
v 452.540985 23.543341 359.866699
v 451.593506 21.407043 356.532806
v 451.593506 23.543343 356.532806
v 722.473389 77.683434 -164.232483
v 722.377380 77.683434 -165.669983
v 722.377380 79.811127 -165.669983
v 722.473389 79.811127 -164.232483
v 718.689575 77.683434 -165.428986
v 718.689575 79.811127 -165.428986
v 718.650330 77.683434 -165.907089
v 718.650330 79.811127 -165.907089
v 719.697388 77.683434 -169.097687
v 719.697388 79.811127 -169.097687
v 709.229126 77.683434 -167.479385
v 709.229126 79.811127 -167.479385
v 709.083984 77.683434 -167.037277
v 709.083984 79.811127 -167.037277
v 709.384277 77.683426 -163.377090
v 709.384277 79.811119 -163.377090
v 58.767601 2.873555 277.235107
v 45.050201 2.873554 281.325409
v 45.050201 5.000254 281.325409
v 58.767601 5.000255 277.235107
v 46.925598 2.873553 287.617401
v 46.925598 5.000253 287.617401
v 50.081299 2.873553 286.676514
v 50.081299 5.000253 286.676514
v 49.757198 2.873554 285.589203
v 49.757198 5.000253 285.589203
v 57.258900 2.873554 283.352203
v 57.258900 5.000254 283.352203
v -230.685898 1.740527 445.797394
v -228.419205 1.740523 469.628113
v -228.419205 3.886224 469.628113
v -230.685898 3.886227 445.797394
v -213.610596 1.740524 468.219604
v -213.610596 3.886224 468.219604
v -215.884796 1.740528 444.392090
v -215.884796 3.886228 444.392090
v 361.181396 55.456768 -420.659393
v 348.181610 55.456768 -415.402191
v 348.181610 57.708870 -415.402191
v 361.181396 57.708870 -420.659393
v 357.703308 55.456764 -397.489685
v 357.703308 57.708866 -397.489685
v 369.824310 55.456764 -404.368286
v 369.824310 57.708866 -404.368286
v -284.146790 1.313909 -57.568901
v -282.112915 1.313907 -40.244499
v -282.112915 3.591407 -40.244499
v -284.146790 3.591409 -57.568901
v -272.571289 1.313907 -41.295502
v -272.571289 3.591407 -41.295502
v -274.007690 1.313910 -58.418400
v -274.007690 3.591409 -58.418400
v 84.368401 42.101540 -862.649475
v 83.898399 42.101540 -870.763672
v 83.898399 43.582340 -870.763672
v 84.368401 43.582340 -862.649475
v 77.701500 42.101540 -869.939575
v 77.701500 43.582340 -869.939575
v 64.967400 42.101540 -867.945496
v 64.967400 43.582340 -867.945496
v 66.181602 42.101540 -860.229004
v 66.181602 43.582340 -860.229004
v 72.052299 42.101540 -861.010315
v 72.052299 43.582340 -861.010315
v 71.702499 42.101540 -863.233276
v 71.702499 43.582340 -863.233276
v 77.462402 42.101540 -864.135315
v 77.462402 43.582340 -864.135315
v 77.600700 42.101540 -861.748779
v 77.600700 43.582340 -861.748779
v -529.089417 6.163083 -507.368286
v -524.889099 6.163083 -509.149292
v -524.889099 7.790083 -509.149292
v -529.089417 7.790082 -507.368286
v -525.655029 6.163084 -511.311493
v -525.655029 7.790083 -511.311493
v -546.662415 6.163082 -502.404114
v -546.662415 7.790082 -502.404114
v -544.720825 6.163081 -496.924011
v -544.720825 7.790081 -496.924011
v -527.542603 6.163082 -503.002686
v -527.542603 7.790082 -503.002686
v -85.865501 31.884098 -600.763672
v -88.444099 31.884102 -617.229675
v -88.444099 33.658100 -617.229675
v -85.865501 33.658100 -600.763672
v -103.116501 31.884102 -616.587830
v -103.116501 33.658100 -616.587830
v -102.365303 31.884098 -599.015991
v -102.365303 33.658100 -599.015991
v -154.355103 4.092322 -135.765503
v -151.031799 4.092320 -125.501801
v -151.031799 6.303220 -125.501801
v -154.355103 6.303222 -135.765503
v -136.318497 4.092321 -128.509705
v -136.318497 6.303221 -128.509705
v -138.780594 4.092323 -139.303406
v -138.780594 6.303223 -139.303406
v -22.308701 34.134487 -537.229370
v -31.619400 34.134487 -535.770508
v -31.619400 35.818188 -535.770508
v -22.308701 35.818188 -537.229370
v -31.210300 34.134487 -533.146606
v -31.210300 35.818188 -533.146606
v -29.660601 34.134487 -533.389404
v -29.660601 35.818188 -533.389404
v -28.925800 34.134487 -528.696594
v -28.925800 35.818188 -528.696594
v -21.156300 34.134487 -529.870422
v -21.156300 35.818188 -529.870422
v 929.124817 102.190933 -203.183792
v 923.380371 102.190933 -202.011887
v 923.380371 103.438431 -202.011887
v 929.124817 103.438431 -203.183792
v 922.465515 102.190933 -206.032990
v 922.465515 103.438431 -206.032990
v 919.425598 102.190933 -205.406479
v 919.425598 103.438431 -205.406479
v 921.286804 102.190933 -197.225677
v 921.286804 103.438431 -197.225677
v 929.778381 102.190933 -198.957977
v 929.778381 103.438431 -198.957977
v 88.625603 41.457947 -894.039124
v 89.486504 41.457947 -879.176025
v 89.486504 43.447643 -879.176025
v 88.625603 43.447643 -894.039124
v 101.422501 41.457947 -880.763489
v 101.422501 43.447643 -880.763489
v 99.643997 41.457947 -894.075989
v 99.643997 43.447643 -894.075989
v 95.418503 41.457947 -893.513916
v 95.418503 43.447643 -893.513916
v 95.336304 41.457947 -894.930603
v 95.336304 43.447643 -894.930603
v -464.423187 1.313916 -97.169601
v -463.773193 1.313920 -122.657204
v -463.773193 3.122220 -122.657204
v -464.423187 3.122216 -97.169601
v -465.716888 1.313920 -122.706802
v -465.716888 3.122220 -122.706802
v -469.534607 1.313920 -122.628304
v -469.534607 3.122220 -122.628304
v -473.481598 1.313920 -122.310799
v -473.481598 3.122220 -122.310799
v -476.910187 1.313920 -121.997597
v -476.910187 3.122220 -121.997597
v -476.023895 1.313916 -97.461899
v -476.023895 3.122216 -97.461899
v -151.037094 8.893447 -285.706207
v -147.997498 8.893444 -268.462006
v -147.997498 10.784843 -268.462006
v -151.037094 10.784846 -285.706207
v -130.618607 8.893444 -271.571198
v -130.618607 10.784843 -271.571198
v -133.671402 8.893447 -288.713287
v -133.671402 10.784846 -288.713287
v -676.608276 50.305367 -1023.672974
v -678.495972 50.305367 -1028.768066
v -678.495972 52.448170 -1028.768066
v -676.608276 52.448170 -1023.672974
v -691.916321 50.305367 -1024.671143
v -691.916321 52.448170 -1024.671143
v -689.867615 50.305367 -1019.229126
v -689.867615 52.448170 -1019.229126
v 519.815674 77.744453 -340.135895
v 516.022278 77.744453 -347.309998
v 516.022278 79.486450 -347.309998
v 519.815674 79.486450 -340.135895
v 505.941986 77.744453 -342.126801
v 505.941986 79.486450 -342.126801
v 507.827606 77.744453 -338.570496
v 507.827606 79.486450 -338.570496
v 508.750610 77.744453 -339.045105
v 508.750610 79.486450 -339.045105
v 510.663788 77.744453 -335.427094
v 510.663788 79.486450 -335.427094
v -442.653809 12.284511 1164.522339
v -446.901398 12.284511 1165.130005
v -446.901398 13.769811 1165.130005
v -442.653809 13.769811 1164.522339
v -446.550201 12.284510 1168.183594
v -446.550201 13.769810 1168.183594
v -454.333893 12.284510 1169.297852
v -454.333893 13.769810 1169.297852
v -454.142395 12.284509 1174.515259
v -454.142395 13.769809 1174.515259
v -441.709015 12.284510 1172.735229
v -441.709015 13.769810 1172.735229
v -231.996002 1.492393 45.944901
v -232.542999 1.492393 42.027000
v -232.542999 3.548093 42.027000
v -231.996002 3.548093 45.944901
v -241.663101 1.492393 43.292801
v -241.663101 3.548093 43.292801
v -241.119507 1.492392 47.211102
v -241.119507 3.548092 47.211102
v -237.732697 1.492392 46.741100
v -237.732697 3.548092 46.741100
v -237.778397 1.492393 46.411499
v -237.778397 3.548092 46.411499
v -234.680496 1.492393 45.981499
v -234.680496 3.548093 45.981499
v -234.634506 1.492393 46.311100
v -234.634506 3.548092 46.311100
vt 0.5000 0.0000
vt 0.6667 0.0000
vt 0.6667 1.0000
vt 0.5000 1.0000
vt 0.8333 -0.0000
vt 1.0000 0.0000
vt 1.0000 1.0000
vt 0.8333 1.0000
vt 0.3333 0.0000
vt 2.0000 -0.0000
vt 2.0000 1.0000
vt 0.3333 1.0000
vt 0.6667 0.0000
vt 1.3333 0.0000
vt 1.3333 1.0000
vt 0.6667 1.0000
vt 0.8333 -0.0000
vt 2.6667 -0.0000
vt 2.6667 1.0000
vt 0.8333 1.0000
vt 0.1667 -0.0000
vt 0.8333 -0.0000
vt 0.8333 1.0000
vt 0.1667 1.0000
vt 0.8333 -0.0000
vt 3.1667 0.0000
vt 3.1667 1.0000
vt 0.8333 1.0000
vt 0.3333 0.0000
vt 2.1667 0.0000
vt 2.1667 1.0000
vt 0.3333 1.0000
vt 0.6667 0.0000
vt 2.3333 0.0000
vt 2.3333 1.0000
vt 0.6667 1.0000
vt 0.5000 0.0000
vt 1.1667 -0.0000
vt 1.1667 1.0000
vt 0.5000 1.0000
vt 0.1667 -0.0000
vt 0.8333 -0.0000
vt 0.8333 1.0000
vt 0.1667 1.0000
vt 0.1667 -0.0000
vt 1.3333 0.0000
vt 1.3333 1.0000
vt 0.1667 1.0000
vt 0.3333 0.0000
vt 0.5000 0.0000
vt 0.5000 1.0000
vt 0.3333 1.0000
vt 0.8333 -0.0000
vt 1.3333 0.0000
vt 1.3333 1.0000
vt 0.8333 1.0000
vt 0.5000 0.0000
vt 0.5333 0.0000
vt 0.5333 1.0000
vt 0.5000 1.0000
vt 0.6667 0.0000
vt 1.1667 -0.0000
vt 1.1667 1.0000
vt 0.6667 1.0000
vt 0.3333 0.0000
vt 1.8333 0.0000
vt 1.8333 1.0000
vt 0.3333 1.0000
vt 0.6667 0.0000
vt 0.7000 0.0000
vt 0.7000 1.0000
vt 0.6667 1.0000
vt 0.8333 -0.0000
vt 1.3333 0.0000
vt 1.3333 1.0000
vt 0.8333 1.0000
vt -0.0000 0.0000
vt 2.0000 -0.0000
vt 2.0000 1.0000
vt -0.0000 1.0000
vt 0.6667 0.0000
vt 2.5000 -0.0000
vt 2.5000 1.0000
vt 0.6667 1.0000
vt -0.0000 0.0000
vt 0.8333 -0.0000
vt 0.8333 1.0000
vt -0.0000 1.0000
vt 0.1667 -0.0000
vt 0.6667 0.0000
vt 0.6667 1.0000
vt 0.1667 1.0000
vt 0.8333 -0.0000
vt 0.8333 1.0000
vt 0.5000 0.0000
vt 1.5000 -0.0000
vt 1.5000 1.0000
vt 0.5000 1.0000
vt 0.3333 0.0000
vt 1.1667 -0.0000
vt 1.1667 1.0000
vt 0.3333 1.0000
vt 0.1667 -0.0000
vt 3.5000 0.0000
vt 3.5000 1.0000
vt 0.1667 1.0000
vt 0.5000 0.0000
vt 2.5000 -0.0000
vt 2.5000 1.0000
vt 0.5000 1.0000
vt 0.3333 0.0000
vt 3.6667 0.0000
vt 3.6667 1.0000
vt 0.3333 1.0000
vt 0.3333 0.0000
vt 2.3333 0.0000
vt 2.3333 1.0000
vt 0.3333 1.0000
vt 0.3333 0.0000
vt 2.1667 0.0000
vt 2.1667 1.0000
vt 0.3333 1.0000
vt -0.0000 0.0000
vt 2.6667 -0.0000
vt 2.6667 1.0000
vt -0.0000 1.0000
vt -0.0000 0.0000
vt 1.8333 0.0000
vt 1.8333 1.0000
vt -0.0000 1.0000
vt -0.0000 0.0000
vt 2.3333 0.0000
vt 2.3333 1.0000
vt -0.0000 1.0000
vt 0.3333 0.0000
vt 3.0000 0.0000
vt 3.0000 1.0000
vt 0.3333 1.0000
vt 0.5000 0.0000
vt 2.0000 -0.0000
vt 2.0000 1.0000
vt 0.5000 1.0000
vt 0.3333 0.0000
vt 2.8333 -0.0000
vt 2.8333 1.0000
vt 0.3333 1.0000
vt 0.6667 0.0000
vt 2.1667 0.0000
vt 2.1667 1.0000
vt 0.6667 1.0000
vt 0.5000 0.0000
vt 1.6667 0.0000
vt 1.6667 1.0000
vt 0.5000 1.0000
vt 0.5000 0.0000
vt 1.3333 0.0000
vt 1.3333 1.0000
vt 0.5000 1.0000
vt 0.6667 0.0000
vt 2.5000 -0.0000
vt 2.5000 1.0000
vt 0.6667 1.0000
vt 0.1667 -0.0000
vt 1.3333 0.0000
vt 1.3333 1.0000
vt 0.1667 1.0000
vt 0.5000 0.0000
vt 1.3333 0.0000
vt 1.3333 1.0000
vt 0.5000 1.0000
vt 0.5000 0.0000
vt 0.8333 -0.0000
vt 0.8333 1.0000
vt 0.5000 1.0000
vt 1.6667 0.0000
vt 1.6667 1.0000
vt 0.5000 0.0000
vt 0.8333 -0.0000
vt 0.8333 1.0000
vt 0.5000 1.0000
vt 0.5000 0.0000
vt 1.5000 -0.0000
vt 1.5000 1.0000
vt 0.5000 1.0000
vt -0.0000 0.0000
vt 0.6667 0.0000
vt 0.6667 1.0000
vt -0.0000 1.0000
vt 0.8333 -0.0000
vt 1.1667 -0.0000
vt 1.1667 1.0000
vt 0.8333 1.0000
vt 0.5000 0.0000
vt 3.5000 0.0000
vt 3.5000 1.0000
vt 0.5000 1.0000
vt 0.5000 0.0000
vt 1.1667 -0.0000
vt 1.1667 1.0000
vt 0.5000 1.0000
vt -0.0000 0.0000
vt 2.3333 0.0000
vt 2.3333 1.0000
vt -0.0000 1.0000
vt 0.1667 -0.0000
vt 0.8333 -0.0000
vt 0.8333 1.0000
vt 0.1667 1.0000
vt 0.6667 0.0000
vt 2.5000 -0.0000
vt 2.5000 1.0000
vt 0.6667 1.0000
vt 0.6667 0.0000
vt 2.3333 0.0000
vt 2.3333 1.0000
vt 0.6667 1.0000
vt 0.1667 -0.0000
vt 2.1667 0.0000
vt 2.1667 1.0000
vt 0.1667 1.0000
vt 0.1667 -0.0000
vt 2.0000 -0.0000
vt 2.0000 1.0000
vt 0.1667 1.0000
vt 0.5000 0.0000
vt 2.0000 -0.0000
vt 2.0000 1.0000
vt 0.5000 1.0000
vt 0.5000 0.0000
vt 2.6667 -0.0000
vt 2.6667 1.0000
vt 0.5000 1.0000
vt 0.1667 -0.0000
vt 1.8333 0.0000
vt 1.8333 1.0000
vt 0.1667 1.0000
vt 0.1667 -0.0000
vt 2.5000 -0.0000
vt 2.5000 1.0000
vt 0.1667 1.0000
vt 0.6667 0.0000
vt 2.1667 0.0000
vt 2.1667 1.0000
vt 0.6667 1.0000
vt 0.3333 0.0000
vt 0.6667 0.0000
vt 0.6667 1.0000
vt 0.3333 1.0000
vt 0.5000 0.0000
vt 0.6667 0.0000
vt 0.6667 1.0000
vt 0.5000 1.0000
vt 0.1667 -0.0000
vt 0.8333 -0.0000
vt 0.8333 1.0000
vt 0.1667 1.0000
vt 0.1667 -0.0000
vt 1.3333 0.0000
vt 1.3333 1.0000
vt 0.1667 1.0000
vt 0.6667 0.0000
vt 1.8333 0.0000
vt 1.8333 1.0000
vt 0.6667 1.0000
vt 0.8333 -0.0000
vt 1.6667 0.0000
vt 1.6667 1.0000
vt 0.8333 1.0000
vt 0.3333 0.0000
vt 0.8333 -0.0000
vt 0.8333 1.0000
vt 0.3333 1.0000
vt 0.6667 0.0000
vt 1.1667 -0.0000
vt 1.1667 1.0000
vt 0.6667 1.0000
vt 0.6667 0.0000
vt 1.8333 0.0000
vt 1.8333 1.0000
vt 0.6667 1.0000
vt 0.5000 0.0000
vt 1.6667 0.0000
vt 1.6667 1.0000
vt 0.5000 1.0000
vt 0.3333 0.0000
vt 1.0000 0.0000
vt 1.0000 1.0000
vt 0.3333 1.0000
vt 0.3333 0.0000
vt 3.1667 0.0000
vt 3.1667 1.0000
vt 0.3333 1.0000
vt 0.3333 0.0000
vt 2.5000 -0.0000
vt 2.5000 1.0000
vt 0.3333 1.0000
vt 0.5000 0.0000
vt 3.0000 0.0000
vt 3.0000 1.0000
vt 0.5000 1.0000
vt 0.5000 0.0000
vt 1.3333 0.0000
vt 1.3333 1.0000
vt 0.5000 1.0000
vt -0.0000 0.0000
vt 0.3333 0.0000
vt 0.3333 1.0000
vt -0.0000 1.0000
vt 0.5000 0.0000
vt 1.8333 0.0000
vt 1.8333 1.0000
vt 0.5000 1.0000
vt 0.5000 0.0000
vt 4.5000 0.0000
vt 4.5000 1.0000
vt 0.5000 1.0000
vt 0.1667 -0.0000
vt 0.5000 0.0000
vt 0.5000 1.0000
vt 0.1667 1.0000
vt -0.0000 0.0000
vt 0.6667 0.0000
vt 0.6667 1.0000
vt -0.0000 1.0000
vt 0.8333 -0.0000
vt 1.5000 -0.0000
vt 1.5000 1.0000
vt 0.8333 1.0000
vt 0.6667 0.0000
vt 1.1667 -0.0000
vt 1.1667 1.0000
vt 0.6667 1.0000
vt 0.5000 0.0000
vt 4.3333 0.0000
vt 4.3333 1.0000
vt 0.5000 1.0000
vt 0.5000 0.0000
vt 2.3333 0.0000
vt 2.3333 1.0000
vt 0.5000 1.0000
vt 0.3333 0.0000
vt 3.0000 0.0000
vt 3.0000 1.0000
vt 0.3333 1.0000
vt 0.5000 0.0000
vt 3.1667 0.0000
vt 3.1667 1.0000
vt 0.5000 1.0000
vt 0.5000 0.0000
vt 3.0000 0.0000
vt 3.0000 1.0000
vt 0.5000 1.0000
vt 0.3333 0.0000
vt 3.0000 0.0000
vt 3.0000 1.0000
vt 0.3333 1.0000
vt 0.6667 0.0000
vt 1.3333 0.0000
vt 1.3333 1.0000
vt 0.6667 1.0000
vt -0.0000 0.0000
vt 1.6667 0.0000
vt 1.6667 1.0000
vt -0.0000 1.0000
vt 0.3333 0.0000
vt 1.0000 0.0000
vt 1.0000 1.0000
vt 0.3333 1.0000
vt 0.1667 -0.0000
vt 1.8333 0.0000
vt 1.8333 1.0000
vt 0.1667 1.0000
vt 0.1667 -0.0000
vt 1.3333 0.0000
vt 1.3333 1.0000
vt 0.1667 1.0000
vt 0.5000 0.0000
vt 2.1667 0.0000
vt 2.1667 1.0000
vt 0.5000 1.0000
vt 0.6667 0.0000
vt 1.3333 0.0000
vt 1.3333 1.0000
vt 0.6667 1.0000
vt 0.5000 0.0000
vt 0.6667 0.0000
vt 0.6667 1.0000
vt 0.5000 1.0000
vt -0.0000 0.0000
vt 0.6667 0.0000
vt 0.6667 1.0000
vt -0.0000 1.0000
vt -0.0000 0.0000
vt 1.5000 -0.0000
vt 1.5000 1.0000
vt -0.0000 1.0000
vt 0.1667 -0.0000
vt 0.6667 0.0000
vt 0.6667 1.0000
vt 0.1667 1.0000
vt 0.3333 0.0000
vt 0.6667 0.0000
vt 0.6667 1.0000
vt 0.3333 1.0000
vt 0.8333 -0.0000
vt 1.8333 0.0000
vt 1.8333 1.0000
vt 0.8333 1.0000
vt 0.5000 0.0000
vt 1.1667 -0.0000
vt 1.1667 1.0000
vt 0.5000 1.0000
vt 0.8333 -0.0000
vt 2.3333 0.0000
vt 2.3333 1.0000
vt 0.8333 1.0000
vt 0.1667 -0.0000
vt 1.1667 -0.0000
vt 1.1667 1.0000
vt 0.1667 1.0000
vt 0.5000 0.0000
vt 1.0000 0.0000
vt 1.0000 1.0000
vt 0.5000 1.0000
vt 0.1667 -0.0000
vt 1.1667 -0.0000
vt 1.1667 1.0000
vt 0.1667 1.0000
vt 0.5000 0.0000
vt 1.0000 0.0000
vt 1.0000 1.0000
vt 0.5000 1.0000
vt 0.1667 -0.0000
vt 0.5000 0.0000
vt 0.5000 1.0000
vt 0.1667 1.0000
vt 0.3333 0.0000
vt 0.3667 0.0000
vt 0.3667 1.0000
vt 0.3333 1.0000
vt 0.6667 0.0000
vt 1.0000 0.0000
vt 1.0000 1.0000
vt 0.6667 1.0000
vt 0.6667 0.0000
vt 0.7000 0.0000
vt 0.7000 1.0000
vt 0.6667 1.0000
vt 0.5000 0.0000
vt 0.8333 -0.0000
vt 0.8333 1.0000
vt 0.5000 1.0000
vn -0.9995 0.0000 -0.0316
vn 0.0796 0.0000 -0.9968
vn -0.9991 0.0000 0.0414
vn -0.0796 0.0000 0.9968
vn 0.9995 -0.0000 0.0315
vn 0.0324 0.0000 -0.9995
vn -0.9619 0.0000 0.2734
vn 0.2728 0.0000 0.9621
vn 0.9619 0.0000 -0.2732
vn -0.2728 0.0000 -0.9621
vn 0.9619 0.0000 -0.2734
vn -0.2729 0.0000 -0.9620
vn 0.9978 0.0000 -0.0666
vn -0.0652 0.0000 -0.9979
vn 0.9966 0.0000 -0.0818
vn 0.9501 0.0000 0.3118
vn -0.1528 0.0000 -0.9883
vn -0.9501 0.0000 -0.3119
vn -0.9967 0.0000 0.0818
vn 0.0652 0.0000 0.9979
vn -0.2858 0.0000 -0.9583
vn -0.9583 0.0000 0.2856
vn 0.2857 0.0000 0.9583
vn 0.9583 0.0000 -0.2857
vn 0.2858 0.0000 0.9583
vn 0.9709 0.0000 0.2395
vn -0.9955 0.0000 0.0947
vn 0.0947 0.0000 0.9955
vn 0.9955 0.0000 -0.0950
vn -0.0945 0.0000 -0.9955
vn -0.3749 0.0000 -0.9271
vn -0.8830 0.0000 0.4694
vn 0.4936 0.0000 0.8697
vn 0.8834 0.0000 -0.4687
vn -0.9932 0.0000 0.1166
vn 0.1095 0.0000 0.9940
vn 0.9965 0.0000 -0.0836
vn -0.0835 0.0000 -0.9965
vn 0.9983 0.0000 -0.0578
vn -0.1318 0.0000 -0.9913
vn -0.1547 0.0000 -0.9880
vn -0.9878 0.0000 0.1554
vn 0.1319 0.0000 0.9913
vn 0.9878 0.0000 -0.1554
vn 0.1547 0.0000 0.9880
vn -0.9983 0.0000 0.0579
vn 0.3904 0.0000 0.9207
vn 0.9426 0.0000 -0.3339
vn -0.3904 0.0000 -0.9207
vn -0.9426 0.0000 0.3340
vn 0.3336 0.0000 0.9427
vn 0.9426 0.0000 -0.3340
vn 0.9880 0.0000 -0.1547
vn -0.0437 0.0000 -0.9990
vn -0.9991 0.0000 0.0427
vn 0.1053 0.0000 0.9944
vn -0.9514 0.0000 0.3080
vn 0.2003 0.0000 0.9797
vn 0.9750 0.0000 -0.2224
vn -0.2215 0.0000 -0.9752
vn -0.1548 0.0000 -0.9879
vn -0.9881 0.0000 0.1541
vn 0.1548 0.0000 0.9879
vn -0.9880 0.0000 0.1547
vn 0.1494 0.0000 0.9888
vn -0.1999 0.0000 -0.9798
vn 0.9751 0.0000 -0.2218
vn -0.2019 0.0000 -0.9794
vn -0.9751 0.0000 0.2218
vn 0.1999 0.0000 0.9798
vn 0.9883 0.0000 -0.1528
vn -0.9983 0.0000 0.0578
vn 0.1318 0.0000 0.9913
vn 0.9912 0.0000 -0.1324
vn -0.1319 0.0000 -0.9913
vn 0.9983 0.0000 -0.0579
vn -0.1317 0.0000 -0.9913
vn 0.9997 0.0000 0.0255
vn 0.0255 0.0000 -0.9997
vn -0.0206 0.0000 -0.9998
vn -0.0802 0.0000 -0.9968
vn -0.0856 0.0000 -0.9963
vn -0.0910 0.0000 -0.9959
vn -0.9993 0.0000 0.0361
vn -0.0252 0.0000 0.9997
vn -0.9848 0.0000 0.1736
vn 0.1761 0.0000 0.9844
vn 0.9845 0.0000 -0.1753
vn -0.1706 0.0000 -0.9853
vn 0.9377 0.0000 -0.3474
vn -0.2920 0.0000 -0.9564
vn -0.9359 0.0000 0.3523
vn 0.3178 0.0000 0.9482
vn 0.8840 0.0000 -0.4674
vn -0.4573 0.0000 -0.8893
vn -0.8835 0.0000 0.4684
vn 0.4573 0.0000 0.8893
vn -0.8840 0.0000 0.4675
vn 0.4575 0.0000 0.8892
vn -0.1416 0.0000 -0.9899
vn -0.9935 0.0000 0.1143
vn -0.1417 0.0000 -0.9899
vn -0.9993 0.0000 0.0367
vn 0.1417 0.0000 0.9899
vn 0.9934 0.0000 -0.1143
vn 0.9904 0.0000 -0.1383
vn -0.1375 0.0000 -0.9905
vn -0.9905 0.0000 0.1374
vn 0.1375 0.0000 0.9905
vn 0.9906 0.0000 -0.1370
vn -0.9904 0.0000 0.1382
g CityEngineMaterial_634_CityEngineMaterial_634_CityEngineMaterial_634_mat
usemtl CityEngineMaterial_634_mat
s 1
f 1/1/1 2/2/1 3/3/1 4/4/1
f 2/5/2 5/6/2 6/7/2 3/8/2
f 5/9/3 7/10/3 8/11/3 6/12/3
f 7/13/4 9/14/4 10/15/4 8/16/4
f 9/17/5 11/18/5 12/19/5 10/20/5
f 11/21/6 1/22/6 4/23/6 12/24/6
f 13/25/7 14/26/7 15/27/7 16/28/7
f 14/29/8 17/30/8 18/31/8 15/32/8
f 17/33/9 19/34/9 20/35/9 18/36/9
f 19/37/10 21/38/10 22/39/10 20/40/10
f 21/41/11 23/42/11 24/43/11 22/44/11
f 23/45/12 13/46/12 16/47/12 24/48/12
f 25/49/13 26/50/13 27/51/13 28/52/13
f 26/53/14 29/54/14 30/55/14 27/56/14
f 29/57/15 31/58/15 32/59/15 30/60/15
f 31/61/16 33/62/16 34/63/16 32/64/16
f 33/65/17 35/66/17 36/67/17 34/68/17
f 35/69/18 37/70/18 38/71/18 36/72/18
f 37/73/19 39/74/19 40/75/19 38/76/19
f 39/77/20 25/78/20 28/79/20 40/80/20
f 41/81/21 42/82/21 43/83/21 44/84/21
f 42/85/22 45/86/22 46/87/22 43/88/22
f 45/89/23 47/90/23 48/91/23 46/92/23
f 47/90/24 49/93/24 50/94/24 48/91/24
f 49/95/25 51/96/25 52/97/25 50/98/25
f 51/99/26 41/100/26 44/101/26 52/102/26
f 53/103/27 54/104/27 55/105/27 56/106/27
f 54/107/28 57/108/28 58/109/28 55/110/28
f 57/111/29 59/112/29 60/113/29 58/114/29
f 59/115/30 53/116/30 56/117/30 60/118/30
f 61/119/31 62/120/31 63/121/31 64/122/31
f 62/123/32 65/124/32 66/125/32 63/126/32
f 65/127/33 67/128/33 68/129/33 66/130/33
f 67/131/34 61/132/34 64/133/34 68/134/34
f 69/135/35 70/136/35 71/137/35 72/138/35
f 70/139/36 73/140/36 74/141/36 71/142/36
f 73/143/37 75/144/37 76/145/37 74/146/37
f 75/147/38 69/148/38 72/149/38 76/150/38
f 77/151/39 78/152/39 79/153/39 80/154/39
f 78/155/40 81/156/40 82/157/40 79/158/40
f 81/159/41 83/160/41 84/161/41 82/162/41
f 83/163/42 85/164/42 86/165/42 84/166/42
f 85/167/43 87/168/43 88/169/43 86/170/43
f 87/171/44 89/172/44 90/173/44 88/174/44
f 89/172/45 91/175/45 92/176/45 90/173/45
f 91/177/46 93/178/46 94/179/46 92/180/46
f 93/181/43 77/182/43 80/183/43 94/184/43
f 95/185/47 96/186/47 97/187/47 98/188/47
f 96/189/48 99/190/48 100/191/48 97/192/48
f 99/193/49 101/194/49 102/195/49 100/196/49
f 101/197/50 103/198/50 104/199/50 102/200/50
f 103/201/51 105/202/51 106/203/51 104/204/51
f 105/205/52 95/206/52 98/207/52 106/208/52
f 107/209/53 108/210/53 109/211/53 110/212/53
f 108/213/54 111/214/54 112/215/54 109/216/54
f 111/217/55 113/218/55 114/219/55 112/220/55
f 113/221/56 107/222/56 110/223/56 114/224/56
f 115/225/57 116/226/57 117/227/57 118/228/57
f 116/229/58 119/230/58 120/231/58 117/232/58
f 119/233/59 121/234/59 122/235/59 120/236/59
f 121/237/60 115/238/60 118/239/60 122/240/60
f 123/241/61 124/242/61 125/243/61 126/244/61
f 124/245/62 127/246/62 128/247/62 125/248/62
f 127/249/63 129/250/63 130/251/63 128/252/63
f 129/253/64 131/254/64 132/255/64 130/256/64
f 131/257/65 133/258/65 134/259/65 132/260/65
f 133/261/53 123/262/53 126/263/53 134/264/53
f 135/265/66 136/266/66 137/267/66 138/268/66
f 136/269/67 139/270/67 140/271/67 137/272/67
f 139/273/68 141/274/68 142/275/68 140/276/68
f 141/277/69 143/278/69 144/279/69 142/280/69
f 143/281/70 145/282/70 146/283/70 144/284/70
f 145/285/71 135/286/71 138/287/71 146/288/71
f 147/289/72 148/290/72 149/291/72 150/292/72
f 148/293/73 151/294/73 152/295/73 149/296/73
f 151/297/74 153/298/74 154/299/74 152/300/74
f 153/301/75 155/302/75 156/303/75 154/304/75
f 155/305/76 157/306/76 158/307/76 156/308/76
f 157/309/77 147/310/77 150/311/77 158/312/77
f 159/313/78 160/314/78 161/315/78 162/316/78
f 160/317/79 163/318/79 164/319/79 161/320/79
f 163/321/80 165/322/80 166/323/80 164/324/80
f 165/325/81 167/326/82 168/327/82 166/328/81
f 167/329/82 169/330/83 170/331/83 168/332/82
f 169/333/84 171/334/84 172/335/84 170/336/84
f 171/337/85 159/338/85 162/339/85 172/340/85
f 173/341/86 174/342/86 175/343/86 176/344/86
f 174/345/87 177/346/87 178/347/87 175/348/87
f 177/349/88 179/350/88 180/351/88 178/352/88
f 179/353/89 173/354/89 176/355/89 180/356/89
f 181/357/90 182/358/90 183/359/90 184/360/90
f 182/361/91 185/362/91 186/363/91 183/364/91
f 185/365/92 187/366/92 188/367/92 186/368/92
f 187/369/93 181/370/93 184/371/93 188/372/93
f 189/373/94 190/374/94 191/375/94 192/376/94
f 190/377/95 193/378/95 194/379/95 191/380/95
f 193/381/96 195/382/96 196/383/96 194/384/96
f 195/385/97 197/386/97 198/387/97 196/388/97
f 197/389/98 199/390/98 200/391/98 198/392/98
f 199/393/99 189/394/99 192/395/99 200/396/99
f 201/397/100 202/398/100 203/399/100 204/400/100
f 202/401/101 205/402/101 206/403/101 203/404/101
f 205/405/102 207/406/102 208/407/102 206/408/102
f 207/409/103 209/410/103 210/411/103 208/412/103
f 209/413/104 211/414/104 212/415/104 210/416/104
f 211/417/105 201/418/105 204/419/105 212/420/105
f 213/421/106 214/422/106 215/423/106 216/424/106
f 214/425/107 217/426/107 218/427/107 215/428/107
f 217/429/108 219/430/108 220/431/108 218/432/108
f 219/433/109 221/434/109 222/435/109 220/436/109
f 221/437/110 223/438/110 224/439/110 222/440/110
f 223/441/109 225/442/109 226/443/109 224/444/109
f 225/445/111 227/446/111 228/447/111 226/448/111
f 227/449/109 213/450/109 216/451/109 228/452/109
