# Blender v2.78 (sub 0) OBJ File: ''
# www.blender.org
mtllib CityEngineMaterial_449.mtl
o CityEngineMaterial_449
v 48.287800 10.169692 44.255600
v 54.072399 10.169692 44.021702
v 54.072399 61.430691 44.021713
v 48.287800 61.430592 44.255611
v 53.563499 10.169695 31.554502
v 53.563499 61.430595 31.554510
v 48.643200 10.169695 31.928303
v 48.643200 61.430695 31.928310
v 52.472801 61.430691 42.546913
v 52.091599 61.430695 33.208912
v 52.091599 61.857296 33.208912
v 52.472801 61.857292 42.546913
v 50.819099 61.430695 33.305611
v 50.819099 61.857296 33.305611
v 51.116600 61.430592 40.594810
v 51.116600 61.857292 40.594810
v 49.930801 61.430592 40.642811
v 49.930801 61.857292 40.642811
v 49.872898 61.430592 42.652111
v 49.872898 61.857292 42.652111
v -187.662399 11.779746 -282.979889
v -177.775497 11.779747 -285.596710
v -177.775497 11.814747 -285.596710
v -187.662399 11.814746 -282.979889
v -181.513901 11.779748 -292.860291
v -181.513901 11.814748 -292.860291
v -185.445694 11.779749 -300.211487
v -185.445694 11.814749 -300.211487
v -193.778198 11.779749 -296.434296
v -193.778198 11.814749 -296.434296
v -189.268295 11.814747 -286.512695
v -179.568207 11.814747 -289.079895
v -179.568207 45.201145 -289.079895
v -189.268295 45.201145 -286.512695
v -181.513901 45.201149 -292.860291
v -185.445694 45.201149 -300.211487
v -193.778198 45.201149 -296.434296
v -183.777802 45.201149 -294.980286
v -185.884201 45.201149 -298.918793
v -185.884201 46.082050 -298.918793
v -183.777802 46.082050 -294.980286
v -192.458496 45.201149 -295.938599
v -192.458496 46.082050 -295.938599
v -188.709503 45.201145 -287.691193
v -188.709503 46.082047 -287.691193
v -183.932007 45.201145 -288.955597
v -183.932007 46.082047 -288.955597
v -186.176407 45.201149 -293.893005
v -186.176407 46.082050 -293.893005
v 286.774414 32.464394 44.995605
v 288.125793 32.464390 65.130409
v 288.125793 34.943489 65.130409
v 286.774414 34.943493 44.995605
v 299.905914 32.464390 64.664406
v 299.905914 34.943489 64.664406
v 299.094910 32.464394 44.651005
v 299.094910 34.943493 44.651005
v 288.194794 34.943493 50.661102
v 289.093689 34.943489 64.053505
v 289.093689 72.854889 64.053513
v 288.194794 72.854889 50.661110
v 298.826813 34.943489 63.668503
v 298.826813 72.854889 63.668510
v 298.288300 34.943493 50.378803
v 298.288300 72.854996 50.378811
v 293.544312 72.854889 62.061810
v 293.212494 72.854889 57.116913
v 293.212494 73.699493 57.116913
v 293.544312 73.699493 62.061810
v 296.741608 72.854889 57.018211
v 296.741608 73.699493 57.018211
v 296.548096 72.854889 52.242413
v 296.548096 73.699493 52.242413
v 290.131287 72.854889 52.421913
v 290.131287 73.699493 52.421913
v 290.785614 72.854889 62.171013
v 290.785614 73.699493 62.171013
v -145.173798 5.596913 -77.988998
v -150.426605 5.596916 -96.946899
v -150.426605 6.709216 -96.946899
v -145.173798 6.709213 -77.988998
v -150.174606 5.596916 -97.406403
v -150.174606 6.709216 -97.406403
v -162.002304 5.596916 -96.770103
v -162.002304 6.709216 -96.770103
v -160.544098 5.596912 -76.850998
v -160.544098 6.709212 -76.850998
v -153.897598 6.709212 -77.343102
v -159.380493 6.709216 -96.911102
v -159.380493 57.098316 -96.911095
v -153.897598 57.098312 -77.343094
v -162.002304 57.098415 -96.770096
v -160.544098 57.098312 -76.850990
v -161.564407 57.098316 -90.787994
v -160.723999 57.098312 -79.307594
v -160.723999 57.730110 -79.307594
v -161.564407 57.730114 -90.787994
v -158.931198 57.098312 -79.438896
v -158.931198 57.730110 -79.438896
v -159.771606 57.098316 -90.919289
v -159.771606 57.730114 -90.919289
v -159.642303 57.098316 -89.153893
v -159.512802 57.098316 -87.384895
v -159.512802 57.730114 -87.384895
v -159.642303 57.730114 -89.153893
v -157.981400 57.098316 -87.496994
v -157.981400 57.730114 -87.496994
v -158.110901 57.098415 -89.265991
v -158.110901 57.730114 -89.265991
v 184.962204 11.868752 290.692200
v 185.069107 11.868757 263.656311
v 185.069107 13.704057 263.656311
v 184.962204 13.704052 290.692200
v 182.353302 11.868757 263.645599
v 182.353302 13.704057 263.645599
v 167.181305 11.868756 270.878296
v 167.181305 13.704056 270.878296
v 178.200806 11.868752 293.918793
v 178.200806 13.704052 293.918793
v 175.242599 13.704053 284.450104
v 175.305405 13.704056 268.574799
v 175.305405 57.139359 268.574799
v 175.242599 57.139355 284.450104
v 169.071396 13.704056 271.546692
v 169.071396 57.139355 271.546692
v 175.250702 57.139355 277.175110
v 175.275604 57.139355 270.877106
v 175.275604 57.828255 270.877106
v 175.250702 57.828255 277.175110
v 173.294693 57.139355 270.869293
v 173.294693 57.828255 270.869293
v 173.269806 57.139355 277.167206
v 173.269806 57.828255 277.167206
v 173.286301 57.139355 273.001587
v 173.286301 57.828255 273.001587
v 172.176804 57.139355 272.997192
v 172.176804 57.828255 272.997192
v 172.160294 57.139355 277.162811
v 172.160294 57.828255 277.162811
v -44.421299 3.345859 250.203201
v -53.537701 3.345859 252.953003
v -53.537701 4.658459 252.953003
v -44.421299 4.658460 250.203201
v -49.763100 3.345857 265.457794
v -49.763100 4.658457 265.457794
v -40.656799 3.345857 262.718811
v -40.656799 4.658457 262.718811
v -53.160000 4.658459 254.204193
v -50.140701 4.658457 264.206604
v -50.140701 38.411057 264.206604
v -53.160000 38.411057 254.204193
v -41.033298 4.658458 261.467194
v -41.033298 38.411057 261.467194
v -44.044800 4.658459 251.454803
v -44.044800 38.411057 251.454803
v -51.623199 4.658459 252.375595
v -47.848202 4.658457 264.881714
v -47.848202 20.298555 264.881714
v -51.623199 20.298557 252.375595
v -42.571701 4.658457 263.294586
v -42.571701 20.298557 263.294586
v -46.335701 4.658459 250.780701
v -46.335701 20.298559 250.780701
v -42.061100 38.411057 260.851013
v -44.562000 38.411057 252.536194
v -44.562000 42.750660 252.536194
v -42.061100 42.750660 260.851013
v -52.131599 38.411057 254.819595
v -52.131599 42.750660 254.819595
v -49.624298 38.411057 263.125885
v -49.624298 42.750660 263.125885
v -43.338799 20.298557 262.368896
v -46.464901 20.298557 251.976303
v -46.464901 45.843857 251.976303
v -43.338799 45.843857 262.368896
v -50.855202 20.298557 253.300598
v -50.855202 45.843857 253.300598
v -47.720100 20.298555 263.686798
v -47.720100 45.843857 263.686798
v -44.991501 42.750660 253.434296
v -51.277500 42.750660 255.330505
v -51.277500 45.788357 255.330505
v -44.991501 45.788357 253.434296
v -49.195301 42.750660 262.228485
v -49.195301 45.788357 262.228485
v -42.914501 42.750660 260.339386
v -42.914501 45.788357 260.339386
v -46.571999 45.843960 252.969193
v -50.217499 45.843960 254.068695
v -50.217499 47.812458 254.068710
v -46.571999 47.812458 252.969208
v -47.613701 45.843960 262.694489
v -47.613701 47.812458 262.694489
v -43.975800 45.843960 261.600311
v -43.975800 47.812458 261.600311
v -50.568298 45.788460 255.754700
v -48.839100 45.788460 261.483398
v -48.839100 47.914860 261.483398
v -50.568298 47.914860 255.754715
v -43.623199 45.788357 259.914490
v -43.623199 47.914860 259.914490
v -45.348099 45.788357 254.179993
v -45.348099 47.914860 254.180008
v -47.869900 47.812458 259.515900
v -47.163502 47.812458 261.855988
v -47.163502 48.459557 261.855988
v -47.869900 48.459557 259.515900
v -44.814400 47.812458 261.149414
v -44.814400 48.459557 261.149414
v -47.022598 47.812458 253.808319
v -47.022598 48.459557 253.808319
v -48.105701 47.812458 254.135010
v -48.105701 48.459557 254.135010
v -46.601898 47.812458 259.134308
v -46.601898 48.459557 259.134308
v -44.211899 47.914860 259.561615
v -45.644299 47.914860 254.799408
v -45.644299 51.387959 254.799408
v -44.211899 51.387959 259.561615
v -49.979301 47.914860 256.107086
v -49.979301 51.387959 256.107086
v -48.543301 47.914860 260.864410
v -48.543301 51.387959 260.864410
v -45.890202 51.387959 255.313812
v -49.490200 51.387959 256.399689
v -49.490200 53.356457 256.399689
v -45.890202 53.356457 255.313812
v -48.297600 51.387959 260.350586
v -48.297600 53.356457 260.350586
v -44.700600 51.387959 259.268585
v -44.700600 53.356457 259.268585
v -45.801800 53.356457 255.607819
v -47.963501 53.356457 256.259613
v -47.963501 53.847958 256.259613
v -45.801800 53.847958 255.607819
v -46.951199 53.356457 259.624908
v -46.951199 53.847958 259.624908
v -44.789101 53.356457 258.974487
v -44.789101 53.847958 258.974487
vt 0.7500 -0.0833
vt 1.0833 -0.0833
vt 1.0833 1.0000
vt 0.7500 1.0000
vt 0.5000 -0.0833
vt 1.2500 -0.0833
vt 1.2500 1.0000
vt 0.5000 1.0000
vt 0.8333 -0.0833
vt 1.1667 -0.0833
vt 1.1667 1.0000
vt 0.8333 1.0000
vt 0.0000 -0.0833
vt 0.0000 1.0000
vt 0.2500 0.9972
vt 0.8333 0.9972
vt 0.8333 1.0000
vt 0.2500 1.0000
vt 0.5833 0.9972
vt 0.6667 0.9972
vt 0.6667 1.0000
vt 0.5833 1.0000
vt 0.9167 0.9972
vt 1.4167 0.9972
vt 1.4167 1.0000
vt 0.9167 1.0000
vt 0.9167 0.9972
vt 1.0000 0.9972
vt 1.0000 1.0000
vt 0.9167 1.0000
vt 0.6667 0.9972
vt 0.8333 0.9972
vt 0.8333 1.0000
vt 0.6667 1.0000
vt 0.2500 0.9972
vt 0.4167 0.9972
vt 0.4167 1.0000
vt 0.2500 1.0000
vt 0.0833 0.9972
vt 0.8333 0.9972
vt 0.8333 1.0000
vt 0.0833 1.0000
vt 0.6667 0.9972
vt 1.2500 0.9972
vt 1.2500 1.0000
vt 0.6667 1.0000
vt 0.5000 0.9972
vt 1.0833 0.9972
vt 1.0833 1.0000
vt 0.5000 1.0000
vt -0.0000 0.9972
vt 0.6667 0.9972
vt 0.6667 1.0000
vt 0.0000 1.0000
vt 0.9167 0.9972
vt 2.0000 0.9972
vt 2.0000 1.0000
vt 0.9167 1.0000
vt 0.2500 0.2500
vt 1.0000 0.2500
vt 1.0000 1.0000
vt 0.2500 1.0000
vt 0.2500 0.2500
vt 0.5833 0.2500
vt 0.5833 1.0000
vt 0.2500 1.0000
vt 0.6667 0.2500
vt 1.2500 0.2500
vt 1.2500 1.0000
vt 0.6667 1.0000
vt 0.6667 0.2500
vt 1.3333 0.2500
vt 1.3333 1.0000
vt 0.6667 1.0000
vt 0.5000 0.2500
vt 1.2500 0.2500
vt 1.2500 1.0000
vt 0.5000 1.0000
vt 0.8333 0.9972
vt 1.1667 0.9972
vt 1.1667 1.0000
vt 0.8333 1.0000
vt 0.0833 0.9972
vt 0.5833 0.9972
vt 0.5833 1.0000
vt 0.0833 1.0000
vt 1.2500 0.9972
vt 1.2500 1.0000
vt 0.3333 0.9972
vt 0.6667 0.9972
vt 0.6667 1.0000
vt 0.3333 1.0000
vt 0.4167 0.9972
vt 0.8333 0.9972
vt 0.8333 1.0000
vt 0.4167 1.0000
vt 0.9167 0.9972
vt 1.0833 0.9972
vt 1.0833 1.0000
vt 0.9167 1.0000
vt 0.3333 0.9444
vt 1.7500 0.9444
vt 1.7500 1.0000
vt 0.3333 1.0000
vt 0.7500 0.9444
vt 1.5833 0.9444
vt 1.5833 1.0000
vt 0.7500 1.0000
vt 0.4167 0.9444
vt 1.8333 0.9444
vt 1.8333 1.0000
vt 0.4167 1.0000
vt 0.6667 0.9444
vt 1.5000 0.9444
vt 1.5000 1.0000
vt 0.6667 1.0000
vt 0.1667 0.1389
vt 1.0833 0.1389
vt 1.0833 1.0000
vt 0.1667 1.0000
vt 0.5000 0.1389
vt 1.1667 0.1389
vt 1.1667 1.0000
vt 0.5000 1.0000
vt 0.3333 0.1389
vt 1.2500 0.1389
vt 1.2500 1.0000
vt 0.3333 1.0000
vt 0.7500 0.1389
vt 1.4167 0.1389
vt 1.4167 1.0000
vt 0.7500 1.0000
vt 0.5833 0.9972
vt 0.9167 0.9972
vt 0.9167 1.0000
vt 0.5833 1.0000
vt 0.2500 0.9972
vt 0.5000 0.9972
vt 0.5000 1.0000
vt 0.2500 1.0000
vt 0.3333 0.9972
vt 0.6667 0.9972
vt 0.6667 1.0000
vt 0.3333 1.0000
vt 1.0833 0.9972
vt 1.0833 1.0000
vt 0.5000 0.9972
vt 1.1667 0.9972
vt 1.1667 1.0000
vt 0.5000 1.0000
vt 0.7500 0.9972
vt 0.9167 0.9972
vt 0.9167 1.0000
vt 0.7500 1.0000
vt 0.2500 0.9722
vt 1.5833 0.9722
vt 1.5833 1.0000
vt 0.2500 1.0000
vt 0.3333 0.9722
vt 0.3500 0.9722
vt 0.3500 1.0000
vt 0.3333 1.0000
vt 0.0000 0.9722
vt 0.7500 0.9722
vt 0.7500 1.0000
vt 0.0000 1.0000
vt 0.2500 0.9722
vt 1.5833 0.9722
vt 1.5833 1.0000
vt 0.2500 1.0000
vt 0.1667 0.9722
vt 1.1667 0.9722
vt 1.1667 1.0000
vt 0.1667 1.0000
vt 0.5000 -0.1111
vt 1.8333 -0.1111
vt 1.8333 1.0000
vt 0.5000 1.0000
vt 0.7500 -0.1111
vt 0.9167 -0.1111
vt 0.9167 1.0000
vt 0.7500 1.0000
vt 0.1667 -0.1111
vt 1.5000 -0.1111
vt 1.5000 1.0000
vt 0.1667 1.0000
vt 0.2500 -0.1111
vt 0.6667 -0.1111
vt 0.6667 1.0000
vt 0.2500 1.0000
vt 0.0833 0.9972
vt 0.8333 0.9972
vt 0.8333 1.0000
vt 0.0833 1.0000
vt 0.3333 0.9972
vt 0.4167 0.9972
vt 0.4167 1.0000
vt 0.3333 1.0000
vt 0.0833 0.9972
vt 0.8333 0.9972
vt 0.8333 1.0000
vt 0.0833 1.0000
vt 0.7500 0.9972
vt 0.8333 0.9972
vt 0.8333 1.0000
vt 0.7500 1.0000
vt 0.5833 0.9972
vt 0.6667 0.9972
vt 0.6667 1.0000
vt 0.5833 1.0000
vt 0.8333 0.9972
vt 0.9167 0.9972
vt 0.9167 1.0000
vt 0.8333 1.0000
vt 0.8333 0.9972
vt 0.9167 0.9972
vt 0.9167 1.0000
vt 0.8333 1.0000
vt 0.7500 0.9972
vt 0.8333 0.9972
vt 0.8333 1.0000
vt 0.7500 1.0000
vt 0.9167 0.9444
vt 3.1667 0.9444
vt 3.1667 1.0000
vt 0.9167 1.0000
vt 0.7500 0.9444
vt 1.0000 0.9444
vt 1.0000 1.0000
vt 0.7500 1.0000
vt 0.2500 0.9444
vt 1.6667 0.9444
vt 1.6667 1.0000
vt 0.2500 1.0000
vt 0.2500 0.9444
vt 2.3333 0.9444
vt 2.3333 1.0000
vt 0.2500 1.0000
vt 0.5000 0.9444
vt 1.0833 0.9444
vt 1.0833 1.0000
vt 0.5000 1.0000
vt 0.7500 -0.0278
vt 2.0833 -0.0278
vt 2.0833 1.0000
vt 0.7500 1.0000
vt 0.6667 -0.0278
vt 1.2500 -0.0278
vt 1.2500 1.0000
vt 0.6667 1.0000
vt 0.1667 -0.0278
vt 1.3333 -0.0278
vt 1.3333 1.0000
vt 0.1667 1.0000
vt 0.0833 0.9972
vt 0.5833 0.9972
vt 0.5833 1.0000
vt 0.0833 1.0000
vt 0.6667 0.9972
vt 0.8333 0.9972
vt 0.8333 1.0000
vt 0.6667 1.0000
vt 0.2500 0.9972
vt 0.7500 0.9972
vt 0.7500 1.0000
vt 0.2500 1.0000
vt 0.0833 0.9972
vt 0.2500 0.9972
vt 0.2500 1.0000
vt 0.0833 1.0000
vt 1.0833 0.9972
vt 1.0833 1.0000
vt 0.5000 0.9972
vt 0.5833 0.9972
vt 0.5833 1.0000
vt 0.5000 1.0000
vt 0.6667 0.9972
vt 1.0000 0.9972
vt 1.0000 1.0000
vt 0.6667 1.0000
vt 0.7500 0.9972
vt 0.8333 0.9972
vt 0.8333 1.0000
vt 0.7500 1.0000
vt 0.8333 0.9722
vt 1.3333 0.9722
vt 1.3333 1.0000
vt 0.8333 1.0000
vt 0.4167 0.9722
vt 1.1667 0.9722
vt 1.1667 1.0000
vt 0.4167 1.0000
vt 0.6667 0.9722
vt 1.1667 0.9722
vt 1.1667 1.0000
vt 0.6667 1.0000
vt 0.5000 0.9722
vt 1.2500 0.9722
vt 1.2500 1.0000
vt 0.5000 1.0000
vt 0.5833 0.1944
vt 1.1667 0.1944
vt 1.1667 1.0000
vt 0.5833 1.0000
vt 0.4167 0.1944
vt 0.9167 0.1944
vt 0.9167 1.0000
vt 0.4167 1.0000
vt 0.6667 0.1944
vt 1.2500 0.1944
vt 1.2500 1.0000
vt 0.6667 1.0000
vt 0.4167 0.1944
vt 0.9167 0.1944
vt 0.9167 1.0000
vt 0.4167 1.0000
vt 0.1667 0.6389
vt 0.9167 0.6389
vt 0.9167 1.0000
vt 0.1667 1.0000
vt 0.1667 0.6389
vt 0.5000 0.6389
vt 0.5000 1.0000
vt 0.1667 1.0000
vt -0.0000 0.6389
vt 0.7500 0.6389
vt 0.7500 1.0000
vt 0.0000 1.0000
vt 0.5000 0.6389
vt 0.8333 0.6389
vt 0.8333 1.0000
vt 0.5000 1.0000
vt 0.6667 0.8889
vt 1.1667 0.8889
vt 1.1667 1.0000
vt 0.6667 1.0000
vt 0.0000 0.8889
vt 0.4167 0.8889
vt 0.4167 1.0000
vt 0.0000 1.0000
vt 0.3333 0.8889
vt 0.8333 0.8889
vt 0.8333 1.0000
vt 0.3333 1.0000
vt 0.5000 0.8889
vt 0.9167 0.8889
vt 0.9167 1.0000
vt 0.5000 1.0000
vt 0.2500 0.3889
vt 0.8333 0.3889
vt 0.8333 1.0000
vt 0.2500 1.0000
vt 0.7500 0.3889
vt 1.0000 0.3889
vt 1.0000 1.0000
vt 0.7500 1.0000
vt 0.6667 0.3889
vt 1.2500 0.3889
vt 1.2500 1.0000
vt 0.6667 1.0000
vt 0.8333 0.3889
vt 1.0833 0.3889
vt 1.0833 1.0000
vt 0.8333 1.0000
vt 0.5833 0.9167
vt 0.9167 0.9167
vt 0.9167 1.0000
vt 0.5833 1.0000
vt 0.6667 0.9167
vt 1.0833 0.9167
vt 1.0833 1.0000
vt 0.6667 1.0000
vt 0.4167 0.9167
vt 0.7500 0.9167
vt 0.7500 1.0000
vt 0.4167 1.0000
vt 0.5000 0.9167
vt 0.9167 0.9167
vt 0.9167 1.0000
vt 0.5000 1.0000
vt 0.1667 0.9444
vt 0.4167 0.9444
vt 0.4167 1.0000
vt 0.1667 1.0000
vt 0.9167 0.9444
vt 0.9167 1.0000
vt 0.3333 0.9444
vt 0.5833 0.9444
vt 0.5833 1.0000
vt 0.3333 1.0000
vt 0.5000 0.9444
vt 1.0000 0.9444
vt 1.0000 1.0000
vt 0.5000 1.0000
vt 0.0833 0.9444
vt 0.4167 0.9444
vt 0.4167 1.0000
vt 0.0833 1.0000
vt 0.3333 0.9444
vt 0.6667 0.9444
vt 0.6667 1.0000
vt 0.3333 1.0000
vt 0.7500 0.9444
vt 1.0833 0.9444
vt 1.0833 1.0000
vt 0.7500 1.0000
vt 0.2500 0.9444
vt 0.5833 0.9444
vt 0.5833 1.0000
vt 0.2500 1.0000
vt 0.5000 0.9972
vt 0.6667 0.9972
vt 0.6667 1.0000
vt 0.5000 1.0000
vt 0.5833 0.9972
vt 0.7500 0.9972
vt 0.7500 1.0000
vt 0.5833 1.0000
vt 0.3333 0.9972
vt 0.7500 0.9972
vt 0.7500 1.0000
vt 0.3333 1.0000
vt 0.0833 0.9972
vt 0.1667 0.9972
vt 0.1667 1.0000
vt 0.0833 1.0000
vt 0.4167 0.9972
vt 0.6667 0.9972
vt 0.6667 1.0000
vt 0.4167 1.0000
vt 0.0833 0.9972
vt 0.1667 0.9972
vt 0.1667 1.0000
vt 0.0833 1.0000
vt 0.9167 0.9167
vt 1.1667 0.9167
vt 1.1667 1.0000
vt 0.9167 1.0000
vt 0.7500 0.9167
vt 1.0000 0.9167
vt 1.0000 1.0000
vt 0.7500 1.0000
vt 0.4167 0.9167
vt 0.6667 0.9167
vt 0.6667 1.0000
vt 0.4167 1.0000
vt 0.5000 0.9167
vt 0.7500 0.9167
vt 0.7500 1.0000
vt 0.5000 1.0000
vt 0.8333 0.9444
vt 1.0000 0.9444
vt 1.0000 1.0000
vt 0.8333 1.0000
vt 0.6667 0.9444
vt 0.9167 0.9444
vt 0.9167 1.0000
vt 0.6667 1.0000
vt 0.4167 0.9444
vt 0.5833 0.9444
vt 0.5833 1.0000
vt 0.4167 1.0000
vt 0.6667 0.9444
vt 0.9167 0.9444
vt 0.9167 1.0000
vt 0.6667 1.0000
vt 0.6667 0.9972
vt 0.7500 0.9972
vt 0.7500 1.0000
vt 0.6667 1.0000
vt 0.1667 0.9972
vt 0.3333 0.9972
vt 0.3333 1.0000
vt 0.1667 1.0000
vt 0.2500 0.9972
vt 0.3333 0.9972
vt 0.3333 1.0000
vt 0.2500 1.0000
vt 0.7500 0.9972
vt 0.9167 0.9972
vt 0.9167 1.0000
vt 0.7500 1.0000
vn 0.0404 -0.0000 0.9992
vn 0.9992 0.0000 -0.0408
vn -0.0758 0.0000 -0.9971
vn -0.9996 0.0000 -0.0288
vn -0.9992 0.0000 0.0408
vn -0.0404 0.0000 -0.9992
vn 0.2559 0.0000 0.9667
vn 0.8891 0.0000 -0.4576
vn 0.8818 0.0000 -0.4716
vn -0.4129 0.0000 -0.9108
vn -0.9104 0.0000 0.4138
vn 0.2558 0.0000 0.9667
vn 0.9104 0.0000 -0.4138
vn 0.4129 0.0000 0.9108
vn -0.9978 0.0000 0.0670
vn 0.0395 0.0000 0.9992
vn 0.9992 0.0000 -0.0405
vn -0.0280 0.0000 -0.9996
vn 0.9978 0.0000 -0.0670
vn 0.0280 0.0000 0.9996
vn 0.0396 0.0000 0.9992
vn 0.9637 0.0000 -0.2670
vn 0.8768 0.0000 0.4809
vn -0.0537 0.0000 -0.9986
vn -0.9973 0.0000 0.0730
vn 0.0738 0.0000 0.9973
vn 0.9629 0.0000 -0.2698
vn 0.0730 0.0000 0.9973
vn 0.9973 0.0000 -0.0730
vn -0.0730 0.0000 -0.9973
vn 1.0000 0.0000 0.0040
vn 0.0039 0.0000 -1.0000
vn -0.4303 0.0000 -0.9027
vn -0.9021 0.0000 0.4315
vn 0.4307 0.0000 0.9025
vn -1.0000 0.0000 -0.0040
vn -0.0040 0.0000 1.0000
vn 0.0040 0.0000 -1.0000
vn -0.2888 0.0000 -0.9574
vn -0.9573 0.0000 0.2890
vn 0.2880 0.0000 0.9576
vn 0.9576 0.0000 -0.2880
vn 0.9576 0.0000 -0.2881
vn 0.2881 0.0000 0.9576
vn -0.9576 0.0000 0.2881
vn -0.2882 0.0000 -0.9576
vn -0.2887 0.0000 -0.9574
g CityEngineMaterial_449_CityEngineMaterial_449_CityEngineMaterial_449_mat
usemtl CityEngineMaterial_449_mat
s 1
f 1/1/1 2/2/1 3/3/1 4/4/1
f 2/5/2 5/6/2 6/7/2 3/8/2
f 5/9/3 7/10/3 8/11/3 6/12/3
f 7/13/4 1/1/4 4/4/4 8/14/4
f 9/15/2 10/16/2 11/17/2 12/18/2
f 10/19/3 13/20/3 14/21/3 11/22/3
f 13/23/5 15/24/5 16/25/5 14/26/5
f 15/27/6 17/28/6 18/29/6 16/30/6
f 17/31/4 19/32/4 20/33/4 18/34/4
f 19/35/1 9/36/1 12/37/1 20/38/1
f 21/39/7 22/40/7 23/41/7 24/42/7
f 22/43/8 25/44/8 26/45/8 23/46/8
f 25/47/9 27/48/9 28/49/9 26/50/9
f 27/51/10 29/52/10 30/53/10 28/54/10
f 29/55/11 21/56/11 24/57/11 30/58/11
f 31/59/12 32/60/12 33/61/12 34/62/12
f 32/63/8 26/64/8 35/65/8 33/66/8
f 26/67/9 28/68/9 36/69/9 35/70/9
f 28/71/10 30/72/10 37/73/10 36/74/10
f 30/75/11 31/76/11 34/77/11 37/78/11
f 38/79/9 39/80/9 40/81/9 41/82/9
f 39/83/10 42/84/10 43/85/10 40/86/10
f 42/84/11 44/87/11 45/88/11 43/85/11
f 44/89/12 46/90/12 47/91/12 45/92/12
f 46/93/13 48/94/13 49/95/13 47/96/13
f 48/97/14 38/98/14 41/99/14 49/100/14
f 50/101/15 51/102/15 52/103/15 53/104/15
f 51/105/16 54/106/16 55/107/16 52/108/16
f 54/109/17 56/110/17 57/111/17 55/112/17
f 56/113/18 50/114/18 53/115/18 57/116/18
f 58/117/15 59/118/15 60/119/15 61/120/15
f 59/121/16 62/122/16 63/123/16 60/124/16
f 62/125/17 64/126/17 65/127/17 63/128/17
f 64/129/18 58/130/18 61/131/18 65/132/18
f 66/133/19 67/134/19 68/135/19 69/136/19
f 67/137/20 70/138/20 71/139/20 68/140/20
f 70/141/17 72/142/17 73/143/17 71/144/17
f 72/142/18 74/145/18 75/146/18 73/143/18
f 74/147/15 76/148/15 77/149/15 75/150/15
f 76/151/21 66/152/21 69/153/21 77/154/21
f 78/155/22 79/156/22 80/157/22 81/158/22
f 79/159/23 82/160/23 83/161/23 80/162/23
f 82/163/24 84/164/24 85/165/24 83/166/24
f 84/167/25 86/168/25 87/169/25 85/170/25
f 86/171/26 78/172/26 81/173/26 87/174/26
f 88/175/27 89/176/27 90/177/27 91/178/27
f 89/179/24 85/180/24 92/181/24 90/182/24
f 85/183/25 87/184/25 93/185/25 92/186/25
f 87/187/26 88/188/26 91/189/26 93/190/26
f 94/191/25 95/192/25 96/193/25 97/194/25
f 95/195/28 98/196/28 99/197/28 96/198/28
f 98/199/29 100/200/29 101/201/29 99/202/29
f 100/203/30 94/204/30 97/205/30 101/206/30
f 102/207/25 103/208/25 104/209/25 105/210/25
f 103/211/28 106/212/28 107/213/28 104/214/28
f 106/215/29 108/216/29 109/217/29 107/218/29
f 108/219/30 102/220/30 105/221/30 109/222/30
f 110/223/31 111/224/31 112/225/31 113/226/31
f 111/227/32 114/228/32 115/229/32 112/230/32
f 114/231/33 116/232/33 117/233/33 115/234/33
f 116/235/34 118/236/34 119/237/34 117/238/34
f 118/239/35 110/240/35 113/241/35 119/242/35
f 120/243/31 121/244/31 122/245/31 123/246/31
f 121/247/33 124/248/33 125/249/33 122/250/33
f 124/251/34 120/252/34 123/253/34 125/254/34
f 126/255/31 127/256/31 128/257/31 129/258/31
f 127/259/32 130/260/32 131/261/32 128/262/32
f 130/263/36 132/264/36 133/265/36 131/266/36
f 132/267/37 126/268/37 129/269/37 133/270/37
f 132/264/31 134/271/31 135/272/31 133/265/31
f 134/273/38 136/274/38 137/275/38 135/276/38
f 136/277/36 138/278/36 139/279/36 137/280/36
f 138/281/37 132/282/37 133/283/37 139/284/37
f 140/285/39 141/286/39 142/287/39 143/288/39
f 141/289/40 144/290/40 145/291/40 142/292/40
f 144/293/41 146/294/41 147/295/41 145/296/41
f 146/297/42 140/298/42 143/299/42 147/300/42
f 148/301/40 149/302/40 150/303/40 151/304/40
f 149/305/41 152/306/41 153/307/41 150/308/41
f 152/309/42 154/310/42 155/311/42 153/312/42
f 154/313/39 148/314/39 151/315/39 155/316/39
f 156/317/40 157/318/40 158/319/40 159/320/40
f 157/321/41 160/322/41 161/323/41 158/324/41
f 160/325/42 162/326/42 163/327/42 161/328/42
f 162/329/39 156/330/39 159/331/39 163/332/39
f 164/333/42 165/334/42 166/335/42 167/336/42
f 165/337/39 168/338/39 169/339/39 166/340/39
f 168/341/40 170/342/40 171/343/40 169/344/40
f 170/345/41 164/346/41 167/347/41 171/348/41
f 172/349/43 173/350/43 174/351/43 175/352/43
f 173/353/39 176/354/39 177/355/39 174/356/39
f 176/357/40 178/358/40 179/359/40 177/360/40
f 178/361/44 172/362/44 175/363/44 179/364/44
f 180/365/39 181/366/39 182/367/39 183/368/39
f 181/369/40 184/370/40 185/371/40 182/372/40
f 184/373/41 186/374/41 187/375/41 185/376/41
f 186/377/42 180/378/42 183/379/42 187/380/42
f 188/381/39 189/382/39 190/383/39 191/384/39
f 189/382/40 192/385/40 193/386/40 190/383/40
f 192/387/41 194/388/41 195/389/41 193/390/41
f 194/391/42 188/392/42 191/393/42 195/394/42
f 196/395/40 197/396/40 198/397/40 199/398/40
f 197/399/41 200/400/41 201/401/41 198/402/41
f 200/403/42 202/404/42 203/405/42 201/406/42
f 202/407/39 196/408/39 199/409/39 203/410/39
f 204/411/40 205/412/40 206/413/40 207/414/40
f 205/415/41 208/416/41 209/417/41 206/418/41
f 208/419/43 210/420/43 211/421/43 209/422/43
f 210/423/39 212/424/39 213/425/39 211/426/39
f 212/427/45 214/428/45 215/429/45 213/430/45
f 214/431/46 204/432/46 207/433/46 215/434/46
f 216/435/42 217/436/42 218/437/42 219/438/42
f 217/439/39 220/440/39 221/441/39 218/442/39
f 220/443/40 222/444/40 223/445/40 221/446/40
f 222/447/41 216/448/41 219/449/41 223/450/41
f 224/451/39 225/452/39 226/453/39 227/454/39
f 225/455/40 228/456/40 229/457/40 226/458/40
f 228/459/44 230/460/44 231/461/44 229/462/44
f 230/463/43 224/464/43 227/465/43 231/466/43
f 232/467/47 233/468/47 234/469/47 235/470/47
f 233/471/45 236/472/45 237/473/45 234/474/45
f 236/475/44 238/476/44 239/477/44 237/478/44
f 238/479/43 232/480/43 235/481/43 239/482/43
