# Blender v2.78 (sub 0) OBJ File: ''
# www.blender.org
mtllib CityEngineMaterial_834.mtl
o CityEngineMaterial_834
v -485.974701 6.369887 82.597397
v -491.170898 6.369887 80.417900
v -490.446686 6.369884 101.742699
v -480.475708 6.369886 84.826797
v -474.140991 6.369884 101.188301
v -474.644196 6.369886 86.717102
v -474.186890 39.833183 99.869110
v -490.692200 39.833183 94.512505
v -490.446686 39.833183 101.742706
v -474.140991 39.833183 101.188309
v -490.620514 40.559586 94.607704
v -490.461609 40.559586 99.284904
v -484.416107 40.559586 101.246910
v -474.211792 40.559586 101.122307
v -484.408386 40.559586 101.468910
v -474.253601 40.559586 99.919411
v -9.198200 15.819731 -186.367004
v -23.935801 15.819730 -183.785904
v -19.860399 15.819726 -160.632996
v -4.369100 15.819727 -163.355103
v -10.262800 58.736130 -184.794983
v -22.355000 58.736130 -182.677185
v -20.733299 58.736126 -173.464386
v -8.340500 58.736130 -175.634781
v -8.340500 52.404129 -175.634781
v -14.917900 52.404125 -174.482880
v -12.947700 52.404125 -163.233292
v -5.994400 52.404125 -164.455078
v -19.320601 59.243526 -173.759277
v -10.024600 59.243526 -175.387283
v -11.038000 59.243530 -181.173981
v -20.334101 59.243530 -179.545883
v -16.338100 59.243530 -180.245789
v -11.630200 59.243530 -184.555481
v -16.930300 59.243530 -183.627289
v -6.277800 53.801327 -165.638580
v -8.180900 53.801327 -174.707382
v -12.262600 53.801327 -173.850891
v -10.359500 53.801327 -164.781982
v -11.093700 53.801327 -168.280884
v -11.626700 53.801327 -170.820389
v -14.050200 53.801327 -170.311890
v -13.517300 53.801327 -167.772186
v -256.392395 9.181644 -274.046387
v -247.488495 9.181645 -278.806488
v -255.190308 9.181647 -293.211914
v -264.079895 9.181646 -288.457611
v -258.038696 19.159746 -277.132690
v -249.137695 19.159746 -281.891205
v -255.190308 19.159748 -293.211914
v -264.079895 19.159748 -288.457611
v -250.666794 19.922146 -282.354889
v -255.653900 19.922148 -291.682709
v -257.596893 19.922148 -290.643585
v -254.655197 19.922146 -285.141602
v -259.615814 19.922146 -282.489594
v -257.574097 19.922146 -278.662109
v -706.482178 65.560478 -1076.039917
v -704.651306 65.560478 -1064.343994
v -702.036804 65.560478 -1064.682007
v -695.635803 65.560478 -1062.437622
v -701.551819 65.560478 -1061.603516
v -697.952881 65.560478 -1077.142700
v -696.410828 66.785477 -1067.079468
v -697.783386 66.785477 -1075.790771
v -702.156189 66.785477 -1075.101685
v -700.783630 66.785477 -1066.390503
v -701.250427 66.785477 -1069.353271
v -701.891785 66.785477 -1073.423584
v -705.968872 66.785477 -1072.781128
v -705.327576 66.785477 -1068.710815
v -513.050903 13.119311 543.104004
v -514.884705 13.119311 543.081909
v -514.910095 13.119311 545.221802
v -505.603302 13.119311 545.333984
v -512.990295 13.119312 538.005371
v -505.517303 13.119312 538.095520
v -505.852997 14.043911 545.078308
v -505.805695 14.043912 541.100281
v -507.150909 14.043912 541.083984
v -512.740601 14.043912 538.261230
v -507.118195 14.043912 538.328979
v -512.801086 14.043911 543.359802
v -514.634888 14.043911 543.337708
v -514.654419 14.043911 544.972107
v -146.641602 39.094719 -1345.505127
v -146.883301 39.094719 -1338.123047
v -134.431900 39.094719 -1337.717529
v -137.942307 39.094719 -1340.642700
v -134.339996 39.094719 -1340.525269
v -137.816605 39.094719 -1344.482666
v -145.113800 40.644817 -1338.100586
v -139.755997 40.644817 -1337.926025
v -139.635406 40.644817 -1341.627441
v -144.993195 40.644817 -1341.801880
v -144.929901 40.644817 -1341.799805
v -142.467499 40.644817 -1341.719604
v -142.372604 40.644817 -1344.631226
v -144.835007 40.644817 -1344.711304
vt 0.1055 0.6056
vt 0.0000 0.8825
vt 0.9564 0.8825
vt 0.2138 0.3124
vt 0.9563 -0.0000
vt 0.3073 0.0006
vt 0.0176 1.0000
vt 0.6963 1.0000
vt 0.5999 -0.0000
vt -0.0000 0.8176
vt 0.9058 1.0000
vt 0.8238 0.0453
vt 0.4970 0.0453
vt 0.0000 0.7545
vt 0.4931 0.0000
vt 0.0211 1.0000
vt 0.0008 0.0828
vt -0.0000 1.6986
vt 1.4759 1.6986
vt 1.4762 -0.0000
vt 0.8033 0.0000
vt -0.0000 0.0000
vt 0.0005 0.7382
vt 0.8238 0.7382
vt 0.0000 0.0542
vt 0.0000 1.0000
vt 1.0012 1.0000
vt 1.0008 -0.0000
vt 0.0000 1.0000
vt 0.6148 1.0000
vt 0.6148 0.0000
vt -0.0000 0.0000
vt 0.0000 1.0000
vt 1.0000 1.0000
vt 1.0000 0.0000
vt -0.0000 0.0000
vt 0.0000 1.0000
vt 0.5957 1.0000
vt 0.5957 0.0000
vt -0.0000 0.0000
vt 0.0000 1.0000
vt 1.0000 1.0000
vt 1.0000 0.0000
vt -0.0000 0.0000
vt -0.0000 0.0000
vt 0.0000 1.1088
vt 0.5425 1.1088
vt 0.5425 0.0017
vt -0.0000 0.0000
vt 0.0000 0.8721
vt 0.9421 0.8721
vt 0.9420 0.0010
vt 0.0000 1.0000
vt 1.0738 1.0000
vt 1.0737 0.7187
vt 0.4404 0.7187
vt 0.4404 0.0005
vt -0.0000 0.0000
vt 1.0558 0.0010
vt 0.2294 0.0000
vt 0.2243 0.2187
vt 0.0000 0.7143
vt 0.0068 0.2187
vt 1.0391 0.7143
vt 0.0000 1.0000
vt 0.8975 1.0000
vt 0.8975 0.0000
vt -0.0000 0.0000
vt -0.0000 0.0000
vt 0.0000 1.0000
vt 1.0000 1.0000
vt 1.0000 0.0000
vt 0.1477 0.7044
vt -0.0000 0.7044
vt 0.0000 1.0000
vt 0.7498 1.0000
vt 0.1477 0.0000
vt 0.7497 0.0000
vt 0.6288 1.0000
vt 0.6288 0.4092
vt 0.5327 0.4092
vt 0.1310 0.0000
vt 0.5326 0.0000
vt 0.1310 0.7573
vt 0.0000 0.7572
vt 0.0000 1.0000
vt 0.0002 -0.0000
vt 0.0000 1.0000
vt 1.5130 1.0000
vt 1.0753 0.6196
vt 1.5130 0.6197
vt 1.0754 0.0995
vt 0.0000 1.0000
vt 1.0000 1.0000
vt 1.0000 0.0000
vt -0.0000 0.0000
vt -0.0000 0.0000
vt 0.0000 1.0000
vt 1.0000 1.0000
vt 1.0000 0.0000
vn 0.0000 1.0000 0.0000
g CityEngineMaterial_834_CityEngineMaterial_834_CityEngineMaterial_834_mat
usemtl CityEngineMaterial_834_mat
s 1
f 1/1/1 2/2/1 3/3/1 4/4/1
f 4/4/1 3/3/1 5/5/1 6/6/1
f 7/7/1 8/8/1 9/9/1 10/10/1
f 11/11/1 12/12/1 13/13/1 14/14/1
f 13/13/1 15/15/1 14/14/1
f 11/11/1 14/14/1 16/16/1
f 17/17/1 18/18/1 19/19/1 20/20/1
f 21/21/1 22/22/1 23/23/1 24/24/1
f 25/25/1 26/26/1 27/27/1 28/28/1
f 29/29/1 30/30/1 31/31/1 32/32/1
f 33/33/1 31/34/1 34/35/1 35/36/1
f 36/37/1 37/38/1 38/39/1 39/40/1
f 40/41/1 41/42/1 42/43/1 43/44/1
f 44/45/1 45/46/1 46/47/1 47/48/1
f 48/49/1 49/50/1 50/51/1 51/52/1
f 52/53/1 53/54/1 54/55/1 55/56/1
f 52/53/1 55/56/1 56/57/1 57/58/1
f 58/59/1 59/60/1 60/61/1 61/62/1
f 60/61/1 62/63/1 61/62/1
f 58/59/1 61/62/1 63/64/1
f 64/65/1 65/66/1 66/67/1 67/68/1
f 68/69/1 69/70/1 70/71/1 71/72/1
f 72/73/1 73/74/1 74/75/1 75/76/1
f 76/77/1 72/73/1 75/76/1 77/78/1
f 78/79/1 79/80/1 80/81/1 81/82/1
f 80/81/1 82/83/1 81/82/1
f 78/79/1 81/82/1 83/84/1 84/85/1
f 78/79/1 84/85/1 85/86/1
f 86/87/1 87/88/1 88/89/1 89/90/1
f 88/89/1 90/91/1 89/90/1
f 86/87/1 89/90/1 91/92/1
f 92/93/1 93/94/1 94/95/1 95/96/1
f 96/97/1 97/98/1 98/99/1 99/100/1
