# Blender v2.78 (sub 0) OBJ File: ''
# www.blender.org
mtllib CityEngineMaterial_65.mtl
o CityEngineMaterial_65
v -1224.536133 19.537518 506.524689
v -1226.821289 19.537518 505.792786
v -1229.106812 19.537516 517.255493
v -1224.383057 19.537516 518.768188
v -1223.615234 19.537518 503.649414
v -1219.920410 19.537518 504.833099
v -1224.453979 20.098217 518.630493
v -1220.058105 20.098219 504.903992
v -1222.466064 20.098219 504.132690
v -1225.869019 20.098217 514.758972
v -1228.339478 20.098217 513.967773
v -1228.980103 20.098217 517.181030
v -573.414490 14.063614 529.365173
v -571.916382 14.063614 529.506775
v -570.530273 14.063616 514.856323
v -576.414490 14.063616 514.299683
v -578.302124 14.063613 534.253174
v -573.916077 14.063613 534.668213
v -574.393982 14.823014 528.329529
v -573.184875 14.823016 515.548218
v -576.502930 14.823016 515.234375
v -577.711975 14.823014 528.015625
v -571.261292 14.823015 522.582214
v -571.042480 14.823015 520.270081
v -573.608704 14.823015 520.027283
v -573.827393 14.823015 522.339478
v -733.014771 10.807049 314.027100
v -733.221191 10.807049 316.539001
v -724.086670 10.807049 317.291290
v -723.694397 10.807050 312.517090
v -734.863586 10.807049 313.876099
v -734.678284 10.807050 311.620087
v -732.219482 11.440048 314.392609
v -724.724121 11.440048 315.004700
v -724.514404 11.440049 312.450195
v -732.009827 11.440049 311.838013
v -732.401184 11.440048 316.605988
v -729.576111 11.440048 316.839111
v -729.395203 11.440048 314.623199
v 126.158798 47.762192 -573.469727
v 130.551697 47.762192 -557.173523
v 132.484406 47.762192 -557.476807
v 131.473404 47.762192 -561.227478
v 135.437897 47.762192 -561.851379
v 133.426300 47.762196 -574.613281
v 126.499100 48.164391 -572.207214
v 129.368698 48.164391 -561.562012
v 132.910507 48.164391 -562.516724
v 130.040894 48.164391 -573.161987
v 131.152496 48.164391 -569.038330
v 133.407700 48.164391 -569.646179
v 132.296097 48.164394 -573.769775
v 132.255402 48.164391 -564.947021
v 135.165695 48.164391 -563.124573
v 134.510605 48.164391 -565.554871
v -218.056793 11.467948 -292.946808
v -226.494995 11.467951 -310.107391
v -227.076004 11.467951 -309.844299
v -239.813904 11.467950 -303.593506
v -230.988205 11.467947 -287.084900
v -223.569305 38.525249 -304.157410
v -226.494995 38.525249 -310.107391
v -227.076004 38.525249 -309.844208
v -239.813797 38.525249 -303.593506
v -236.887695 38.525249 -298.120087
v -235.533401 39.078148 -298.769196
v -225.193802 39.078148 -303.456207
v -226.949799 39.078148 -307.329987
v -237.289398 39.078148 -302.643005
v -235.529297 39.078148 -303.440887
v -234.025696 39.078148 -304.122498
v -234.818405 39.078148 -305.871094
v -236.321899 39.078148 -305.189514
v -466.119507 8.033848 322.759003
v -466.199310 8.033847 329.495300
v -452.917206 8.033847 329.640015
v -452.779907 8.033849 318.056793
v -470.109711 8.033848 322.714203
v -470.052185 8.033849 317.862793
v -453.246307 9.070048 318.512512
v -469.596588 9.070048 318.328888
v -469.643311 9.070047 322.258392
v -465.653015 9.070047 322.303314
v -464.019196 9.070047 324.437286
v -465.678101 9.070047 324.418610
v -464.074005 9.070046 329.057404
v -453.372711 9.070046 329.174011
v -56.966499 11.501903 -19.808798
v -59.653500 11.501903 -19.895298
v -60.057899 11.501901 -7.017298
v -50.512100 11.501901 -6.710198
v -57.136501 11.501904 -22.958899
v -51.379101 11.501904 -22.771097
v -52.855301 12.332502 -9.002998
v -53.482498 12.332504 -20.622297
v -54.793201 12.332504 -20.664999
v -54.623199 12.332503 -17.516098
v -56.270000 12.332502 -12.594498
v -56.539001 12.332503 -17.577698
v -57.664001 12.332502 -12.639298
v -57.773201 12.332502 -9.161198
v 78.487099 46.233242 -876.482117
v 84.723602 46.233242 -877.311707
v 83.803596 46.233246 -893.197388
v 80.510300 46.233246 -890.456482
v 80.378197 46.233246 -892.736084
v 77.699402 46.233246 -890.082520
v 84.578003 46.834846 -879.826721
v 84.108597 46.834846 -887.930298
v 79.749001 46.834846 -887.677795
v 80.218300 46.834846 -879.574219
v 80.100098 46.834846 -881.616028
v 77.845100 46.834846 -887.567627
v 78.196198 46.834846 -881.505676
v -489.785614 5.720529 -176.771301
v -486.814087 5.720526 -161.407806
v -481.605286 5.720527 -162.988693
v -482.090515 5.720527 -165.497696
v -479.496490 5.720527 -166.285202
v -483.278992 5.720529 -178.746307
v -489.524689 6.300629 -175.617996
v -487.634094 6.300627 -165.843307
v -483.014587 6.300627 -166.736801
v -484.905212 6.300629 -176.511505
v -484.640411 6.300629 -175.142593
v -484.128601 6.300628 -172.496506
v -482.072601 6.300628 -172.894196
v -482.584412 6.300629 -175.540298
v -790.239014 10.183444 346.260986
v -790.540710 10.183443 350.065399
v -789.807617 10.183443 350.124207
v -779.652771 10.183443 352.916107
v -789.994324 10.183443 352.477509
v -779.195129 10.183444 347.146698
v -780.071228 10.969044 347.893402
v -789.491577 10.969044 347.137787
v -789.664612 10.969043 349.318787
v -788.931519 10.969043 349.377594
v -782.653625 10.969043 350.705109
v -788.996521 10.969043 350.196503
v -780.402405 10.969043 352.069305
v -782.754028 10.969043 351.969513
v 216.666504 29.868690 58.320602
v 216.795700 29.868690 60.685402
v 219.935501 29.868690 60.563503
v 230.106094 29.868689 66.585304
v 220.298401 29.868689 66.956108
v 229.608307 29.868690 57.818104
v 228.740997 30.392191 57.851704
v 220.825500 30.392191 58.159103
v 220.999207 30.392191 62.632202
v 228.914597 30.392191 62.324802
v 226.913498 30.392191 62.402504
v 222.528000 30.392191 62.572803
v 222.694595 30.392189 66.863106
v 227.080093 30.392189 66.692810
v 241.598206 50.384277 -468.426300
v 230.765396 50.384277 -466.839386
v 233.653305 50.384274 -448.483612
v 246.434601 50.384274 -450.485107
v 241.598206 88.696678 -468.426300
v 235.409805 88.696678 -467.519806
v 240.262405 88.696678 -449.518585
v 246.434601 88.696678 -450.485107
v 238.123993 88.696678 -457.451111
v 232.481705 88.696678 -455.930206
v 233.653305 88.696678 -448.483612
v 236.064407 89.535774 -467.089905
v 240.643005 89.535774 -450.104706
v 242.389603 89.535774 -450.378204
v 239.753601 89.535774 -460.157288
v 243.154205 89.535774 -460.655396
v 241.216202 89.535774 -467.844604
v 239.353104 89.833176 -450.109192
v 237.613297 89.833176 -456.563507
v 235.416000 89.833176 -455.971191
v 236.210907 89.833176 -453.022308
v 234.256195 89.833176 -449.311005
v 233.733398 89.833176 -452.634186
v -484.993988 16.368694 -578.722717
v -496.028290 16.368694 -575.388916
v -493.969086 16.368694 -568.605408
v -486.801300 16.368694 -573.575317
v -486.025696 16.368694 -571.020630
v -483.713806 16.368694 -574.508179
v -489.343689 17.739893 -577.408630
v -494.762512 17.739893 -575.771423
v -493.625885 17.739893 -572.021423
v -488.207001 17.739893 -573.658630
v -489.122009 17.739893 -573.382080
v -492.629303 17.739893 -572.322510
v -491.713013 17.739893 -569.289917
v -488.208405 17.739893 -570.358582
v 634.999695 37.864056 286.775513
v 624.224915 37.864056 289.047607
v 623.961914 37.864056 289.446503
v 634.224121 37.864056 290.679291
v 634.715698 37.864052 292.778503
v 637.128479 37.864052 295.974304
v 626.088196 37.864052 298.525391
v 636.304016 37.864056 292.411499
v 635.825012 37.864056 290.341705
v 626.190430 38.667854 290.585205
v 627.513611 38.667850 296.235596
v 633.252930 38.667850 294.909393
v 630.305786 38.667854 292.396515
v 632.543274 38.667854 291.879486
v 629.707886 38.667854 289.843506
v -51.495602 36.602386 -547.146484
v -49.711899 36.602386 -532.935730
v -33.207001 36.602386 -535.521912
v -35.433998 36.602386 -549.661682
v -50.252701 52.669189 -546.210815
v -48.747299 52.669189 -534.217224
v -34.484001 52.669189 -536.452087
v -36.363499 52.669189 -548.385925
v -45.997501 54.190189 -534.709229
v -36.828602 54.190189 -536.145813
v -37.927399 54.190189 -543.159119
v -47.096401 54.190189 -541.722473
v -46.274300 54.190189 -541.851318
v -39.293999 54.190189 -542.945129
v -40.055801 54.190189 -547.807312
v -47.036098 54.190189 -546.713623
v -369.529388 7.658744 -270.551605
v -357.060608 7.658745 -274.849609
v -358.153687 7.658745 -278.151001
v -362.411804 7.658747 -288.691803
v -358.320892 7.658745 -278.717194
v -374.381714 7.658746 -284.557007
v -369.529388 46.433247 -270.551605
v -364.429688 46.433247 -272.309509
v -369.125610 46.433247 -286.372589
v -374.381714 46.433247 -284.557007
v -364.963196 47.657146 -273.907288
v -368.568512 47.657146 -284.704315
v -371.412903 47.657146 -283.754486
v -367.807587 47.657146 -272.957489
v -370.605194 47.657146 -281.335388
v -372.852386 47.657146 -280.585114
v -370.054810 47.657146 -272.207092
v -395.240906 5.931986 85.402199
v -394.580200 5.931989 66.704597
v -416.473602 5.931989 67.478302
v -416.366699 5.931989 70.672096
v -416.516998 5.931988 74.881699
v -417.157990 5.931987 79.114304
v -417.972198 5.931987 82.718201
v -394.854095 25.025488 74.455505
v -394.580200 25.025488 66.704605
v -416.473602 25.025488 67.478310
v -416.366699 25.025488 70.672104
v -416.410706 25.025488 71.904610
v -394.653595 25.852989 66.778008
v -416.400604 25.852989 67.546509
v -416.326996 25.852989 69.743607
v -403.740997 25.852989 69.298904
v -394.922089 25.852989 74.376305
v -403.882904 25.852989 73.315910
v 603.892273 72.388023 -144.488190
v 607.835205 72.388023 -145.177887
v 607.163818 72.388023 -149.521881
v 602.127502 72.388023 -144.494980
v 594.184509 72.388023 -144.525391
v 586.171692 72.388023 -144.184891
v 585.428223 72.388023 -149.605179
v 594.237427 72.388023 -144.138687
v 602.175110 72.388023 -144.187790
v 605.455322 72.971924 -149.528381
v 595.830322 72.971924 -149.565292
v 595.818420 72.971924 -146.461182
v 605.443298 72.971924 -146.424286
v 601.014221 72.971924 -146.441284
v 599.790894 72.971924 -146.445984
v 599.785706 72.971924 -145.085678
v 601.008972 72.971924 -145.080978
v -485.585693 11.607776 -465.290588
v -487.221710 11.607778 -475.210114
v -495.722412 11.607778 -473.806091
v -494.416504 11.607777 -470.462494
v -495.151001 11.607777 -470.341187
v -493.352692 11.607776 -464.013214
v -485.747009 12.296276 -466.269012
v -487.060303 12.296277 -474.231689
v -491.516113 12.296277 -473.495911
v -490.203186 12.296276 -465.535706
v -490.496185 12.296276 -467.312714
v -491.242615 12.296277 -471.837585
v -494.553192 12.296277 -471.291595
v -493.806885 12.296276 -466.766602
vt 0.9661 0.3821
vt 0.9661 0.0000
vt -0.0000 0.2101
vt -0.0000 1.0000
vt 1.2172 0.3821
vt 1.2172 1.0000
vt -0.0000 1.0000
vt 1.4265 1.0000
vt 1.4265 0.5064
vt 0.3222 0.5064
vt 0.3222 0.0000
vt 0.0000 0.0722
vt 0.6575 0.2546
vt 0.6575 0.0000
vt 0.0000 0.0000
vt -0.0000 1.0000
vt 0.8954 1.0000
vt 0.8954 0.2546
vt -0.0000 1.0000
vt 1.3878 1.0000
vt 1.3878 -0.0000
vt 0.0000 0.0000
vt 0.0000 0.0000
vt -0.0000 1.0000
vt 1.0000 1.0000
vt 1.0000 -0.0000
vt 0.5871 0.5275
vt 0.5872 0.0013
vt 0.0002 0.0000
vt -0.0000 1.0000
vt 0.7059 0.5275
vt 0.7059 1.0000
vt -0.0000 1.0000
vt 0.9999 1.0000
vt 1.0000 -0.0000
vt 0.0002 0.0000
vt 0.0003 1.0000
vt 1.0000 1.0000
vt 0.9993 0.0000
vt -0.0000 0.0011
vt -0.0000 1.0000
vt 0.5723 1.0000
vt 0.5794 0.7341
vt 0.4477 0.7341
vt 0.4623 0.1886
vt 0.0267 0.0000
vt -0.0000 1.0000
vt 0.8359 1.0000
vt 0.8359 0.0000
vt 0.0000 0.0000
vt -0.0000 1.0000
vt 1.0000 1.0000
vt 1.0000 -0.0000
vt 0.0000 0.0000
vt -0.0000 1.0000
vt 1.0000 1.0000
vt 1.0000 -0.0000
vt 0.0000 0.0000
vt -0.0000 1.0641
vt 0.8686 1.0641
vt 0.8695 1.0183
vt 0.8700 -0.0000
vt 0.0202 0.0456
vt 1.4428 1.0000
vt 1.4228 0.0000
vt 1.3616 0.0000
vt 0.0000 0.0655
vt 0.0389 1.0000
vt -0.0000 1.0000
vt 0.8540 1.0000
vt 0.8540 -0.0000
vt 0.0000 0.0000
vt 0.0000 0.0000
vt -0.0000 1.0000
vt 1.0000 1.0000
vt 1.0000 -0.0000
vt 0.5304 0.4542
vt 0.5306 0.0000
vt 0.0003 0.0003
vt 0.0000 0.7814
vt 0.6898 0.4542
vt 0.6896 0.7814
vt 0.0000 1.1699
vt 0.7936 1.1699
vt 0.7937 0.7389
vt 0.6001 0.7389
vt 0.5196 0.5068
vt 0.6001 0.5068
vt 0.5197 -0.0000
vt 0.0003 0.0004
vt 0.4975 0.2642
vt 0.5061 0.0768
vt 0.0304 0.0000
vt -0.0000 0.6657
vt 0.6144 0.2642
vt 0.5960 0.6657
vt -0.0000 1.0000
vt 1.4496 1.0000
vt 1.4637 0.7335
vt 1.0709 0.7335
vt 0.4697 0.3440
vt 1.0914 0.3440
vt 0.4846 0.0605
vt 0.0527 0.0000
vt 0.0000 0.0000
vt 0.0230 1.0000
vt 0.8068 1.0000
vt 0.6814 0.4507
vt 0.7939 0.4507
vt 0.6710 0.0000
vt -0.0000 1.0000
vt 0.8222 1.0000
vt 0.8222 0.0000
vt 0.0000 0.0000
vt -0.0000 1.0000
vt 1.0000 1.0000
vt 1.0000 -0.0000
vt 0.0000 0.0000
vt 0.0304 0.5446
vt 0.7060 0.5446
vt 0.6817 0.1811
vt 0.5714 0.1811
vt 0.5593 -0.0000
vt -0.0000 0.0905
vt -0.0000 1.0000
vt 0.7414 1.0000
vt 0.7414 -0.0000
vt 0.0000 0.0000
vt -0.0000 1.0000
vt 1.0000 1.0000
vt 1.0000 -0.0000
vt 0.0000 0.0000
vt 0.7595 1.0000
vt 0.7593 0.3822
vt 0.7089 0.3822
vt -0.0000 0.0631
vt 0.7087 0.0000
vt 0.0003 1.0000
vt 0.0003 1.0000
vt 0.6308 1.0000
vt 0.6306 0.4885
vt 0.5816 0.4885
vt 0.1570 0.2965
vt 0.5815 0.2965
vt 0.0000 0.0207
vt 0.1569 -0.0000
vt 1.5666 1.0491
vt 1.5621 0.7662
vt 1.1866 0.7662
vt 0.0000 0.0000
vt 1.1729 0.0012
vt 0.0188 1.0491
vt -0.0000 1.0000
vt 0.9042 1.0000
vt 0.9042 0.0000
vt 0.0000 0.0000
vt -0.0000 1.0000
vt 1.0000 1.0000
vt 1.0000 -0.0000
vt 0.0000 0.0000
vt 0.0070 0.2385
vt -0.0000 1.5510
vt 1.1250 1.5510
vt 1.1256 0.0000
vt 0.0293 0.0000
vt -0.0000 1.0000
vt 0.7426 1.0000
vt 0.7694 -0.0000
vt 0.5836 1.0000
vt 0.5836 0.1213
vt 0.0512 0.0000
vt -0.0000 1.0000
vt -0.0000 1.0000
vt 0.6000 1.0000
vt 0.6065 0.6601
vt 0.2611 0.6601
vt 0.2748 -0.0000
vt 0.0209 0.0000
vt -0.0000 1.0000
vt 1.0000 1.0000
vt 1.0000 0.5563
vt 0.5431 0.5563
vt 0.0832 0.0000
vt 0.5835 0.0702
vt 0.0004 1.0000
vt 0.7844 1.0000
vt 0.7837 -0.0000
vt 0.2193 0.3787
vt 0.2191 0.0021
vt 0.0000 0.3787
vt 0.0006 1.0000
vt 1.0000 1.0000
vt 0.9993 0.0000
vt 0.0000 0.0000
vt -0.0000 1.0000
vt 1.0000 1.0000
vt 1.0000 -0.0000
vt 0.0000 0.0030
vt 1.3839 0.0148
vt 0.0422 -0.0000
vt 0.0000 0.0230
vt 1.1847 0.2677
vt 1.1854 0.4179
vt 1.3843 0.6728
vt 0.0034 0.6728
vt 1.3841 0.4179
vt 1.3840 0.2699
vt 0.0000 0.0000
vt 0.0029 1.0000
vt 1.0000 1.0000
vt 0.6097 0.4638
vt 0.9984 0.4638
vt 0.6084 0.0119
vt 0.0243 -0.0000
vt 0.0000 1.7892
vt 0.9287 1.7892
vt 0.9281 0.0002
vt 0.0380 0.0000
vt 0.0000 0.9849
vt 1.4844 0.9849
vt 1.4834 0.0001
vt -0.0000 1.0000
vt 0.7092 1.0000
vt 0.7092 -0.0000
vt 0.0000 0.0000
vt -0.0000 1.0000
vt 1.0000 1.0000
vt 1.0000 -0.0000
vt 0.0000 0.0000
vt 1.0328 1.2516
vt 1.0343 0.0071
vt 0.7920 0.0026
vt 0.0008 0.0566
vt 0.7509 0.0000
vt 0.0000 1.2516
vt 0.0000 0.0299
vt 0.0046 1.0000
vt 1.3067 1.0000
vt 1.3016 0.0000
vt -0.0000 1.0000
vt 0.9501 1.0000
vt 0.9501 0.0000
vt 0.0000 0.0000
vt -0.0000 1.0000
vt 0.9901 1.0000
vt 0.9901 0.0000
vt 0.0000 0.0000
vt 1.1328 0.8028
vt 1.0577 -0.0000
vt 0.0000 0.1436
vt 0.0235 0.2796
vt 0.0403 0.4604
vt 0.0335 0.6446
vt 0.0146 0.8028
vt 0.0233 -0.0000
vt -0.0000 1.0000
vt 0.9318 1.0000
vt 0.9321 0.5869
vt 0.9358 0.4279
vt -0.0000 1.0000
vt 0.8162 1.0000
vt 0.8163 0.7101
vt 0.3440 0.7101
vt 0.0201 0.0000
vt 0.3546 0.1815
vt 0.1327 0.0711
vt 0.0000 0.2009
vt 0.0232 1.0000
vt 0.1921 0.0711
vt 0.4596 0.0711
vt 0.7293 0.0028
vt 0.7550 1.0000
vt 0.4577 0.0000
vt 0.1905 0.0146
vt -0.0000 1.0000
vt 0.6281 1.0000
vt 0.6281 0.0000
vt 0.0000 0.0000
vt 0.0000 0.0000
vt -0.0000 1.0000
vt 1.0000 1.0000
vt 1.0000 -0.0000
vt -0.0000 0.6658
vt 1.0355 0.6658
vt 1.0353 0.0000
vt 0.6736 0.0575
vt 0.6736 0.0000
vt 0.0004 0.0575
vt -0.0000 1.0000
vt 0.5982 1.0000
vt 0.5981 0.0000
vt 0.0002 0.0000
vt -0.0000 1.0000
vt 1.0000 1.0000
vt 1.0000 -0.0000
vt 0.0000 0.0000
vn 0.0000 1.0000 0.0000
g CityEngineMaterial_65_CityEngineMaterial_65_CityEngineMaterial_65_mat
usemtl CityEngineMaterial_65_mat
s 1
f 1/1/1 2/2/1 3/3/1 4/4/1
f 5/5/1 1/1/1 4/4/1 6/6/1
f 7/7/1 8/8/1 9/9/1 10/10/1
f 7/7/1 10/10/1 11/11/1 12/12/1
f 13/13/1 14/14/1 15/15/1 16/16/1
f 13/13/1 16/16/1 17/17/1 18/18/1
f 19/19/1 20/20/1 21/21/1 22/22/1
f 23/23/1 24/24/1 25/25/1 26/26/1
f 27/27/1 28/28/1 29/29/1 30/30/1
f 31/31/1 27/27/1 30/30/1 32/32/1
f 33/33/1 34/34/1 35/35/1 36/36/1
f 37/37/1 38/38/1 39/39/1 33/40/1
f 40/41/1 41/42/1 42/43/1 43/44/1
f 40/41/1 43/44/1 44/45/1 45/46/1
f 46/47/1 47/48/1 48/49/1 49/50/1
f 49/51/1 50/52/1 51/53/1 52/54/1
f 53/55/1 48/56/1 54/57/1 55/58/1
f 56/59/1 57/60/1 58/61/1 59/62/1
f 56/59/1 59/62/1 60/63/1
f 61/64/1 62/65/1 63/66/1 64/67/1
f 61/64/1 64/67/1 65/68/1
f 66/69/1 67/70/1 68/71/1 69/72/1
f 70/73/1 71/74/1 72/75/1 73/76/1
f 74/77/1 75/78/1 76/79/1 77/80/1
f 78/81/1 74/77/1 77/80/1 79/82/1
f 80/83/1 81/84/1 82/85/1 83/86/1
f 84/87/1 80/83/1 83/86/1 85/88/1
f 80/83/1 84/87/1 86/89/1 87/90/1
f 88/91/1 89/92/1 90/93/1 91/94/1
f 92/95/1 88/91/1 91/94/1 93/96/1
f 94/97/1 95/98/1 96/99/1 97/100/1
f 98/101/1 94/97/1 97/100/1 99/102/1
f 94/97/1 98/101/1 100/103/1 101/104/1
f 102/105/1 103/106/1 104/107/1 105/108/1
f 104/107/1 106/109/1 105/108/1
f 102/105/1 105/108/1 107/110/1
f 108/111/1 109/112/1 110/113/1 111/114/1
f 112/115/1 110/116/1 113/117/1 114/118/1
f 115/119/1 116/120/1 117/121/1 118/122/1
f 115/119/1 118/122/1 119/123/1 120/124/1
f 121/125/1 122/126/1 123/127/1 124/128/1
f 125/129/1 126/130/1 127/131/1 128/132/1
f 129/133/1 130/134/1 131/135/1 132/136/1
f 131/135/1 133/137/1 132/136/1
f 129/133/1 132/136/1 134/138/1
f 135/139/1 136/140/1 137/141/1 138/142/1
f 139/143/1 135/139/1 138/142/1 140/144/1
f 141/145/1 135/139/1 139/143/1 142/146/1
f 143/147/1 144/148/1 145/149/1 146/150/1
f 145/149/1 147/151/1 146/150/1
f 143/147/1 146/150/1 148/152/1
f 149/153/1 150/154/1 151/155/1 152/156/1
f 153/157/1 154/158/1 155/159/1 156/160/1
f 157/161/1 158/162/1 159/163/1 160/164/1
f 161/165/1 162/166/1 163/167/1 164/168/1
f 165/169/1 166/170/1 167/171/1 163/172/1
f 168/173/1 169/174/1 170/175/1 171/176/1
f 168/173/1 171/176/1 172/177/1 173/178/1
f 174/179/1 175/180/1 176/181/1 177/182/1
f 178/183/1 174/179/1 177/182/1 179/184/1
f 180/185/1 181/186/1 182/187/1 183/188/1
f 182/187/1 184/189/1 183/188/1
f 180/185/1 183/188/1 185/190/1
f 186/191/1 187/192/1 188/193/1 189/194/1
f 190/195/1 191/196/1 192/197/1 193/198/1
f 194/199/1 195/200/1 196/201/1 197/202/1
f 198/203/1 197/202/1 196/201/1 199/204/1
f 196/201/1 200/205/1 199/204/1
f 199/204/1 201/206/1 198/203/1
f 202/207/1 194/199/1 197/202/1
f 203/208/1 204/209/1 205/210/1 206/211/1
f 205/210/1 207/212/1 206/211/1
f 203/208/1 206/211/1 208/213/1
f 209/214/1 210/215/1 211/216/1 212/217/1
f 213/218/1 214/219/1 215/220/1 216/221/1
f 217/222/1 218/223/1 219/224/1 220/225/1
f 221/226/1 222/227/1 223/228/1 224/229/1
f 225/230/1 226/231/1 227/232/1 228/233/1
f 227/232/1 229/234/1 228/233/1
f 225/230/1 228/233/1 230/235/1
f 231/236/1 232/237/1 233/238/1 234/239/1
f 235/240/1 236/241/1 237/242/1 238/243/1
f 238/244/1 239/245/1 240/246/1 241/247/1
f 242/248/1 243/249/1 244/250/1 245/251/1
f 242/248/1 245/251/1 246/252/1 247/253/1
f 248/254/1 242/248/1 247/253/1
f 249/255/1 250/256/1 251/257/1 252/258/1
f 253/259/1 249/255/1 252/258/1
f 254/260/1 255/261/1 256/262/1 257/263/1
f 258/264/1 254/260/1 257/263/1 259/265/1
f 260/266/1 261/267/1 262/268/1 263/269/1
f 264/270/1 263/269/1 262/268/1 265/271/1
f 262/268/1 266/272/1 265/271/1
f 265/271/1 267/273/1 264/270/1
f 268/274/1 260/266/1 263/269/1
f 269/275/1 270/276/1 271/277/1 272/278/1
f 273/279/1 274/280/1 275/281/1 276/282/1
f 277/283/1 278/284/1 279/285/1 280/286/1
f 279/285/1 281/287/1 280/286/1
f 277/283/1 280/286/1 282/288/1
f 283/289/1 284/290/1 285/291/1 286/292/1
f 287/293/1 288/294/1 289/295/1 290/296/1
