# Blender v2.78 (sub 0) OBJ File: ''
# www.blender.org
mtllib CityEngineMaterial_588.mtl
o CityEngineMaterial_588
v -1056.597656 12.600308 561.669128
v -1057.283691 12.600308 559.326782
v -1057.283691 14.338408 559.326782
v -1056.597656 14.338408 561.669128
v -1052.578247 12.600309 557.951172
v -1052.578247 14.338409 557.951172
v -1055.193481 12.600310 548.980225
v -1055.193481 14.338410 548.980225
v -1062.958374 12.600310 551.250183
v -1062.958374 14.338410 551.250183
v -1059.646362 12.600308 562.558716
v -1059.646362 14.338408 562.558716
v -480.006012 2.964055 -334.796997
v -480.354095 2.964055 -334.991791
v -480.354095 5.031354 -334.991791
v -480.006012 5.031354 -334.796997
v -492.514587 2.964054 -331.300598
v -492.514587 5.031354 -331.300598
v -485.931885 2.964051 -309.628906
v -485.931885 5.031351 -309.628906
v -473.520905 2.964051 -313.432709
v -473.520905 5.031351 -313.432709
v -340.351196 1.313905 -28.089600
v -338.562408 1.313902 -12.879600
v -338.562408 3.208902 -12.879599
v -340.351196 3.208905 -28.089600
v -334.250702 1.313902 -13.385800
v -334.250702 3.208902 -13.385799
v -334.715790 1.313903 -17.340599
v -334.715790 3.208903 -17.340599
v -327.815887 1.313903 -18.150700
v -327.815887 3.208903 -18.150700
v -329.140106 1.313905 -29.405701
v -329.140106 3.208905 -29.405701
v -136.691299 1.313704 591.165527
v -143.711594 1.313703 597.681274
v -143.711594 3.197803 597.681274
v -136.691299 3.197804 591.165527
v -134.816299 1.313700 610.953003
v -134.816299 3.197801 610.953003
v -133.702103 1.313701 609.918884
v -133.702103 3.197801 609.918884
v -131.817093 1.313700 612.731323
v -131.817093 3.197800 612.731323
v -126.622398 1.313701 606.188416
v -126.622398 3.197801 606.188416
v -657.591492 62.119976 -1075.588379
v -653.405273 62.119976 -1076.249756
v -653.405273 64.123772 -1076.249756
v -657.591492 64.123772 -1075.588379
v -653.727600 62.119976 -1076.804443
v -653.727600 64.123772 -1076.804443
v -654.764526 62.119976 -1078.130737
v -654.764526 64.123772 -1078.130737
v -656.896301 62.119976 -1080.059692
v -656.896301 64.123772 -1080.059692
v -657.650696 62.119976 -1080.994019
v -657.650696 64.123772 -1080.994019
v -657.914978 62.119976 -1081.000977
v -657.914978 64.123772 -1081.000977
v -665.450317 62.119976 -1079.898804
v -665.450317 64.123772 -1079.898804
v -671.145630 62.119976 -1078.983643
v -671.145630 64.123772 -1078.983643
v -669.541870 62.119976 -1073.700317
v -669.541870 64.123772 -1073.700317
v -662.508606 62.119976 -1074.811523
v -662.508606 64.123772 -1074.811523
v -662.743713 62.119976 -1075.586548
v -662.743713 64.123772 -1075.586548
v -658.306702 62.119976 -1076.235596
v -658.306702 64.123772 -1076.235596
v -221.042892 1.723605 -29.433300
v -221.303497 1.723605 -31.364100
v -221.303497 3.750005 -31.364100
v -221.042892 3.750005 -29.433300
v -220.584702 1.723605 -31.460800
v -220.584702 3.750005 -31.460800
v -220.787598 1.723605 -32.965401
v -220.787598 3.750005 -32.965401
v -229.931198 1.723605 -31.734200
v -229.931198 3.750005 -31.734200
v -229.288406 1.723604 -26.971100
v -229.288406 3.750004 -26.971100
v -220.059296 1.723605 -27.565300
v -220.059296 3.750005 -27.565300
v -220.317596 1.723605 -29.479900
v -220.317596 3.750005 -29.479900
v -387.338104 1.313898 9.644300
v -385.928314 1.313896 21.653299
v -385.928314 3.404996 21.653299
v -387.338104 3.404998 9.644301
v -367.199799 1.313897 19.436600
v -367.199799 3.404997 19.436600
v -368.616699 1.313899 7.436600
v -368.616699 3.404999 7.436601
v -579.398010 4.520639 372.609009
v -570.185486 4.520539 372.592590
v -570.185486 6.334239 372.592590
v -579.398010 6.334239 372.609009
v -570.169006 4.520540 369.702698
v -570.169006 6.334240 369.702698
v -572.690613 4.520540 369.707214
v -572.690613 6.334240 369.707214
v -572.641724 4.520641 361.343903
v -572.641724 6.334241 361.343903
v -579.331970 4.520641 361.306885
v -579.331970 6.334241 361.306885
v 301.778687 26.280380 118.479111
v 296.424408 26.280380 118.775711
v 296.424408 28.148682 118.775711
v 301.778687 28.148682 118.479111
v 297.432007 26.280376 135.769104
v 297.432007 28.148678 135.769104
v 305.071106 26.280376 135.335403
v 305.071106 28.148678 135.335403
v 304.143188 26.280380 119.681511
v 304.143188 28.148682 119.681511
v 301.857788 26.280380 119.811310
v 301.857788 28.148682 119.811310
v 41.803699 21.076235 -211.602798
v 42.066502 21.076235 -211.272095
v 42.066502 22.977135 -211.272095
v 41.803699 22.977135 -211.602798
v 53.020401 21.076235 -213.593307
v 53.020401 22.977135 -213.593307
v 50.856098 21.076239 -234.856506
v 50.856098 22.977139 -234.856506
v 37.167999 21.076239 -233.479004
v 37.167999 22.977139 -233.479004
v 207.083893 39.749569 -1021.569580
v 209.434204 39.749565 -1017.234314
v 209.434204 41.515564 -1017.234314
v 207.083893 41.515568 -1021.569580
v 210.628998 39.749565 -1017.881714
v 210.628998 41.515564 -1017.881714
v 211.145706 39.749565 -1016.928528
v 211.145706 41.515564 -1016.928528
v 222.757004 39.749569 -1018.728821
v 222.757004 41.515568 -1018.728821
v 218.007507 39.749569 -1027.489502
v 218.007507 41.515568 -1027.489502
v -451.654114 4.219131 427.636597
v -452.827789 4.219129 438.895691
v -452.827789 6.428928 438.895691
v -451.654114 6.428930 427.636597
v -434.808014 4.219129 437.418488
v -434.808014 6.428929 437.418488
v -433.635590 4.219131 426.170288
v -433.635590 6.428930 426.170288
v 269.294403 53.525997 -584.006897
v 268.974396 53.525997 -586.018494
v 268.974396 55.306595 -586.018494
v 269.294403 55.306595 -584.006897
v 271.585785 53.525997 -586.427429
v 271.585785 55.306595 -586.427429
v 271.902588 53.525997 -584.414673
v 271.902588 55.306595 -584.414673
v 275.073395 53.525997 -584.910522
v 275.073395 55.306595 -584.910522
v 273.013489 53.526001 -597.995605
v 273.013489 55.306599 -597.995605
v 263.401215 53.525997 -596.490295
v 263.401215 55.306595 -596.490295
v 265.481903 53.525997 -583.410828
v 265.481903 55.306595 -583.410828
v 308.115387 49.656666 -405.304504
v 304.770996 49.656670 -426.700989
v 304.770996 51.854668 -426.700989
v 308.115387 51.854664 -405.304504
v 292.435699 49.656670 -424.764496
v 292.435699 51.854668 -424.764496
v 295.697205 49.656666 -403.359894
v 295.697205 51.854664 -403.359894
v 140.608704 37.325062 -373.964905
v 142.144806 37.325058 -357.229401
v 142.144806 39.632359 -357.229401
v 140.608704 39.632362 -373.964905
v 164.416199 37.325058 -359.248688
v 164.416199 39.632359 -359.248688
v 162.813400 37.325062 -376.983185
v 162.813400 39.632362 -376.983185
v 161.516602 37.325062 -376.905914
v 161.516602 39.632362 -376.905914
v 141.689102 40.701363 -373.109406
v 143.047195 40.701359 -358.312988
v 143.047195 43.008656 -358.312988
v 141.689102 43.008659 -373.109406
v 151.945801 40.701359 -359.119812
v 151.945801 43.008656 -359.119812
v 150.547302 40.701363 -374.355408
v 150.547302 43.008659 -374.355408
v 151.298492 40.701363 -366.171814
v 151.298492 43.008659 -366.171814
v 159.520493 40.701359 -359.806488
v 159.520493 43.008656 -359.806488
v 158.872498 40.701363 -366.867004
v 158.872498 43.008659 -366.867004
vt 0.0000 0.0000
vt 1.0000 0.0000
vt 1.0000 1.0000
vt 0.0000 1.0000
vt 0.5000 0.0000
vt 2.5000 0.0000
vt 2.5000 1.0000
vt 0.5000 1.0000
vt 0.5000 0.0000
vt 4.5000 0.0000
vt 4.5000 1.0000
vt 0.5000 1.0000
vt 0.5000 0.0000
vt 4.0000 -0.0000
vt 4.0000 1.0000
vt 0.5000 1.0000
vt 0.0000 0.0000
vt 5.0000 0.0000
vt 5.0000 1.0000
vt 0.0000 1.0000
vt 0.5000 0.0000
vt 2.0000 0.0000
vt 2.0000 1.0000
vt 0.5000 1.0000
vt 0.5000 0.0000
vt 0.6000 -0.0000
vt 0.6000 1.0000
vt 0.5000 1.0000
vt 0.5000 0.0000
vt 5.0000 0.0000
vt 5.0000 1.0000
vt 0.5000 1.0000
vt 0.0000 0.0000
vt 8.0000 0.0000
vt 8.0000 1.0000
vt 0.0000 1.0000
vt 0.0000 0.0000
vt 4.5000 0.0000
vt 4.5000 1.0000
vt 0.0000 1.0000
vt 0.5000 0.0000
vt 8.5000 0.0000
vt 8.5000 1.0000
vt 0.5000 1.0000
vt 0.5000 0.0000
vt 8.0000 0.0000
vt 8.0000 1.0000
vt 0.5000 1.0000
vt 0.5000 0.0000
vt 2.5000 0.0000
vt 2.5000 1.0000
vt 0.5000 1.0000
vt 0.0000 0.0000
vt 2.0000 0.0000
vt 2.0000 1.0000
vt 0.0000 1.0000
vt 0.0000 0.0000
vt 3.5000 0.0000
vt 3.5000 1.0000
vt 0.0000 1.0000
vt 0.0000 0.0000
vt 5.5000 -0.0000
vt 5.5000 1.0000
vt 0.0000 1.0000
vt 0.5000 0.0000
vt 6.0000 0.0000
vt 6.0000 1.0000
vt 0.5000 1.0000
vt 0.0000 0.0000
vt 5.0000 0.0000
vt 5.0000 1.0000
vt 0.0000 1.0000
vt 0.0000 0.0000
vt 8.0000 0.0000
vt 8.0000 1.0000
vt 0.0000 1.0000
vt 0.0000 0.0000
vt 1.0000 0.0000
vt 1.0000 1.0000
vt 0.0000 1.0000
vt 0.5000 0.0000
vt 2.0000 0.0000
vt 2.0000 1.0000
vt 0.5000 1.0000
vt 0.5000 0.0000
vt 4.5000 0.0000
vt 4.5000 1.0000
vt 0.5000 1.0000
vt 0.5000 0.0000
vt 9.5000 0.0000
vt 9.5000 1.0000
vt 0.5000 1.0000
vt 0.5000 0.0000
vt 2.5000 0.0000
vt 2.5000 1.0000
vt 0.5000 1.0000
vt 0.0000 0.0000
vt 0.5000 0.0000
vt 0.5000 1.0000
vt 0.0000 1.0000
vt 0.0000 0.0000
vt 1.0000 0.0000
vt 1.0000 1.0000
vt 0.0000 1.0000
vt 0.5000 0.0000
vt 2.0000 0.0000
vt 2.0000 1.0000
vt 0.5000 1.0000
vt 0.0000 0.0000
vt 0.5000 0.0000
vt 0.5000 1.0000
vt 0.0000 1.0000
vt 0.6000 -0.0000
vt 0.6000 1.0000
vt 0.5000 0.0000
vt 4.0000 -0.0000
vt 4.0000 1.0000
vt 0.5000 1.0000
vt 0.0000 0.0000
vt 2.5000 0.0000
vt 2.5000 1.0000
vt 0.0000 1.0000
vt 0.5000 0.0000
vt 3.0000 -0.0000
vt 3.0000 1.0000
vt 0.5000 1.0000
vt 0.5000 0.0000
vt 3.5000 0.0000
vt 3.5000 1.0000
vt 0.5000 1.0000
vt 0.0000 0.0000
vt 0.5000 0.0000
vt 0.5000 1.0000
vt 0.0000 1.0000
vt 0.0000 0.0000
vt 2.0000 0.0000
vt 2.0000 1.0000
vt 0.0000 1.0000
vt 0.5000 0.0000
vt 1.0000 0.0000
vt 1.0000 1.0000
vt 0.5000 1.0000
vt 0.5000 0.0000
vt 1.0000 0.0000
vt 1.0000 1.0000
vt 0.5000 1.0000
vt 0.0000 0.0000
vt 0.5000 0.0000
vt 0.5000 1.0000
vt 0.0000 1.0000
vt 0.0000 0.0000
vt 0.5000 0.0000
vt 0.5000 1.0000
vt 0.0000 1.0000
vt 4.0000 -0.0000
vt 4.0000 1.0000
vt 0.0000 0.0000
vt 2.0000 0.0000
vt 2.0000 1.0000
vt 0.0000 1.0000
vt 0.5000 0.0000
vt 4.0000 -0.0000
vt 4.0000 1.0000
vt 0.5000 1.0000
vt 0.5000 0.0000
vt 1.0000 0.0000
vt 1.0000 1.0000
vt 0.5000 1.0000
vt 0.0000 0.0000
vt 0.0000 1.0000
vt 0.5000 0.0000
vt 6.5000 0.0000
vt 6.5000 1.0000
vt 0.5000 1.0000
vt 0.0000 0.0000
vt 9.5000 0.0000
vt 9.5000 1.0000
vt 0.0000 1.0000
vt 0.0000 0.0000
vt 6.0000 0.0000
vt 6.0000 1.0000
vt 0.0000 1.0000
vt 0.5000 0.0000
vt 10.0000 -0.0000
vt 10.0000 1.0000
vt 0.5000 1.0000
vt 0.0000 0.0000
vt 3.5000 0.0000
vt 3.5000 1.0000
vt 0.0000 1.0000
vt 0.5000 0.0000
vt 1.5000 -0.0000
vt 1.5000 1.0000
vt 0.5000 1.0000
vt 0.0000 0.0000
vt 1.0000 0.0000
vt 1.0000 1.0000
vt 0.0000 1.0000
vt 0.5000 0.0000
vt 3.5000 0.0000
vt 3.5000 1.0000
vt 0.5000 1.0000
vt 0.0000 0.0000
vt 2.5000 0.0000
vt 2.5000 1.0000
vt 0.0000 1.0000
vt 0.5000 0.0000
vt 4.5000 0.0000
vt 4.5000 1.0000
vt 0.5000 1.0000
vt 0.0000 0.0000
vt 2.0000 0.0000
vt 2.0000 1.0000
vt 0.0000 1.0000
vt 0.5000 0.0000
vt 7.0000 0.0000
vt 7.0000 1.0000
vt 0.5000 1.0000
vt 0.0000 0.0000
vt 3.0000 -0.0000
vt 3.0000 1.0000
vt 0.0000 1.0000
vt 0.5000 0.0000
vt 6.5000 0.0000
vt 6.5000 1.0000
vt 0.5000 1.0000
vt 0.5000 0.0000
vt 1.5000 -0.0000
vt 1.5000 1.0000
vt 0.5000 1.0000
vt 0.0000 0.0000
vt 0.5000 0.0000
vt 0.5000 1.0000
vt 0.0000 1.0000
vt 0.0000 0.0000
vt 0.1000 0.0000
vt 0.1000 1.0000
vt 0.0000 1.0000
vt 0.0000 0.0000
vt 5.5000 -0.0000
vt 5.5000 1.0000
vt 0.0000 1.0000
vt 0.0000 0.0000
vt 10.0000 -0.0000
vt 10.0000 1.0000
vt 0.0000 1.0000
vt 0.5000 0.0000
vt 7.0000 0.0000
vt 7.0000 1.0000
vt 0.5000 1.0000
vt 0.5000 0.0000
vt 11.0000 0.0000
vt 11.0000 1.0000
vt 0.5000 1.0000
vt 0.0000 0.0000
vt 2.5000 0.0000
vt 2.5000 1.0000
vt 0.0000 1.0000
vt 0.5000 0.0000
vt 1.0000 0.0000
vt 1.0000 1.0000
vt 0.5000 1.0000
vt 0.5000 0.0000
vt 1.0000 0.0000
vt 1.0000 1.0000
vt 0.5000 1.0000
vt 0.5000 0.0000
vt 7.0000 0.0000
vt 7.0000 1.0000
vt 0.5000 1.0000
vt 0.5000 0.0000
vt 6.0000 0.0000
vt 6.0000 1.0000
vt 0.5000 1.0000
vt 0.0000 0.0000
vt 6.5000 0.0000
vt 6.5000 1.0000
vt 0.0000 1.0000
vt 0.5000 0.0000
vt 5.0000 0.0000
vt 5.0000 1.0000
vt 0.5000 1.0000
vt 0.0000 0.0000
vt 7.0000 0.0000
vt 7.0000 1.0000
vt 0.0000 1.0000
vt 0.5000 0.0000
vt 5.0000 0.0000
vt 5.0000 1.0000
vt 0.5000 1.0000
vt 0.0000 0.0000
vt 7.0000 0.0000
vt 7.0000 1.0000
vt 0.0000 1.0000
vt 0.5000 0.0000
vt 1.5000 -0.0000
vt 1.5000 1.0000
vt 0.5000 1.0000
vt 0.5000 0.0000
vt 2.0000 0.0000
vt 2.0000 1.0000
vt 0.5000 1.0000
vt 0.5000 0.0000
vt 1.5000 -0.0000
vt 1.5000 1.0000
vt 0.5000 1.0000
vt 0.5000 0.0000
vt 2.0000 0.0000
vt 2.0000 1.0000
vt 0.5000 1.0000
vt 0.5000 0.0000
vt 7.5000 0.0000
vt 7.5000 1.0000
vt 0.5000 1.0000
vt 0.5000 0.0000
vt 5.5000 -0.0000
vt 5.5000 1.0000
vt 0.5000 1.0000
vt 0.0000 0.0000
vt 7.0000 0.0000
vt 7.0000 1.0000
vt 0.0000 1.0000
vt 0.0000 0.0000
vt 2.0000 0.0000
vt 2.0000 1.0000
vt 0.0000 1.0000
vt 0.5000 0.0000
vt 10.5000 0.0000
vt 10.5000 1.0000
vt 0.5000 1.0000
vt 0.5000 0.0000
vt 6.0000 0.0000
vt 6.0000 1.0000
vt 0.5000 1.0000
vt 0.5000 0.0000
vt 10.5000 0.0000
vt 10.5000 1.0000
vt 0.5000 1.0000
vt 0.5000 0.0000
vt 6.5000 0.0000
vt 6.5000 1.0000
vt 0.5000 1.0000
vt 0.5000 0.0000
vt 9.0000 -0.0000
vt 9.0000 1.0000
vt 0.5000 1.0000
vt 0.5000 0.0000
vt 11.5000 0.0000
vt 11.5000 1.0000
vt 0.5000 1.0000
vt 0.5000 0.0000
vt 9.5000 0.0000
vt 9.5000 1.0000
vt 0.5000 1.0000
vt 0.0000 0.0000
vt 0.5000 0.0000
vt 0.5000 1.0000
vt 0.0000 1.0000
vt 0.0000 0.0000
vt 10.5000 0.0000
vt 10.5000 1.0000
vt 0.0000 1.0000
vt 0.5000 0.0000
vt 8.0000 0.0000
vt 8.0000 1.0000
vt 0.5000 1.0000
vt 0.0000 0.0000
vt 4.5000 0.0000
vt 4.5000 1.0000
vt 0.0000 1.0000
vt 0.5000 0.0000
vt 8.0000 0.0000
vt 8.0000 1.0000
vt 0.5000 1.0000
vt 0.0000 0.0000
vt 4.5000 0.0000
vt 4.5000 1.0000
vt 0.0000 1.0000
vt 0.0000 0.0000
vt 3.5000 0.0000
vt 3.5000 1.0000
vt 0.0000 1.0000
vt 0.0000 0.0000
vt 4.0000 -0.0000
vt 4.0000 1.0000
vt 0.0000 1.0000
vt 0.0000 0.0000
vt 3.5000 0.0000
vt 3.5000 1.0000
vt 0.0000 1.0000
vt 0.5000 0.0000
vt 4.5000 0.0000
vt 4.5000 1.0000
vt 0.5000 1.0000
vn 0.9597 0.0000 -0.2811
vn 0.2806 0.0000 0.9598
vn 0.9600 0.0000 -0.2799
vn -0.2806 0.0000 -0.9598
vn -0.9597 0.0000 0.2811
vn 0.2801 0.0000 0.9600
vn 0.4884 0.0000 -0.8726
vn -0.2905 0.0000 -0.9569
vn -0.9568 0.0000 0.2906
vn 0.2930 0.0000 0.9561
vn 0.9569 0.0000 -0.2905
vn -0.9932 0.0000 0.1168
vn 0.1166 0.0000 0.9932
vn 0.9932 -0.0000 -0.1168
vn 0.9931 0.0000 -0.1169
vn -0.1166 0.0000 -0.9932
vn -0.6803 0.0000 -0.7330
vn -0.8307 0.0000 0.5568
vn 0.6803 0.0000 0.7330
vn 0.7832 0.0000 0.6218
vn 0.8307 0.0000 -0.5568
vn 0.1560 0.0000 0.9877
vn 0.8646 0.0000 -0.5024
vn 0.7878 0.0000 -0.6159
vn 0.6710 0.0000 -0.7415
vn 0.7780 0.0000 -0.6282
vn 0.0263 0.0000 -0.9997
vn -0.1447 0.0000 -0.9895
vn -0.1586 0.0000 -0.9873
vn -0.9569 0.0000 0.2905
vn 0.1561 0.0000 0.9877
vn 0.9569 0.0000 -0.2903
vn 0.1447 0.0000 0.9895
vn -0.6710 0.0000 0.7415
vn 0.9910 0.0000 -0.1338
vn 0.1333 0.0000 0.9911
vn 0.9910 0.0000 -0.1336
vn -0.1334 0.0000 -0.9911
vn -0.9910 0.0000 0.1337
vn 0.0643 0.0000 0.9979
vn 0.9910 0.0000 -0.1337
vn -0.0641 0.0000 -0.9979
vn -0.9932 -0.0000 0.1166
vn 0.1175 0.0000 0.9931
vn 0.9931 -0.0000 -0.1173
vn -0.1171 0.0000 -0.9931
vn 0.0018 0.0000 1.0000
vn 1.0000 0.0000 0.0057
vn -0.0018 0.0000 -1.0000
vn 1.0000 0.0000 0.0058
vn 0.0055 0.0000 -1.0000
vn -1.0000 0.0000 -0.0058
vn -0.0553 0.0000 -0.9985
vn -0.9982 0.0000 0.0592
vn 0.0567 0.0000 0.9984
vn 0.9982 0.0000 -0.0592
vn -0.0567 0.0000 -0.9984
vn 0.9982 0.0000 -0.0593
vn -0.7829 0.0000 0.6221
vn 0.2073 0.0000 0.9783
vn 0.9949 0.0000 -0.1013
vn -0.1001 0.0000 -0.9950
vn -0.9783 0.0000 0.2073
vn -0.8791 0.0000 0.4766
vn 0.4764 0.0000 0.8792
vn 0.1532 0.0000 0.9882
vn 0.8791 0.0000 -0.4766
vn -0.4765 0.0000 -0.8792
vn -0.9946 0.0000 -0.1037
vn 0.0817 0.0000 0.9967
vn 0.9946 0.0000 0.1037
vn -0.0811 0.0000 -0.9967
vn 0.9876 0.0000 -0.1571
vn 0.1547 0.0000 0.9880
vn -0.9878 0.0000 0.1555
vn 0.1545 0.0000 0.9880
vn 0.9878 0.0000 -0.1555
vn -0.1547 0.0000 -0.9880
vn -0.9876 0.0000 0.1571
vn 0.9880 0.0000 -0.1544
vn -0.1551 0.0000 -0.9879
vn -0.9886 0.0000 0.1506
vn -0.9958 0.0000 0.0914
vn 0.0903 0.0000 0.9959
vn 0.9959 0.0000 -0.0900
vn -0.0595 0.0000 -0.9982
vn -0.1393 0.0000 -0.9903
vn 0.9958 0.0000 -0.0914
vn -0.0914 0.0000 -0.9958
g CityEngineMaterial_588_CityEngineMaterial_588_CityEngineMaterial_588_mat
usemtl CityEngineMaterial_588_mat
s 1
f 1/1/1 2/2/1 3/3/1 4/4/1
f 2/5/2 5/6/2 6/7/2 3/8/2
f 5/9/3 7/10/3 8/11/3 6/12/3
f 7/13/4 9/14/4 10/15/4 8/16/4
f 9/17/5 11/18/5 12/19/5 10/20/5
f 11/21/6 1/22/6 4/23/6 12/24/6
f 13/25/7 14/26/7 15/27/7 16/28/7
f 14/29/8 17/30/8 18/31/8 15/32/8
f 17/33/9 19/34/9 20/35/9 18/36/9
f 19/37/10 21/38/10 22/39/10 20/40/10
f 21/41/11 13/42/11 16/43/11 22/44/11
f 23/45/12 24/46/12 25/47/12 26/48/12
f 24/49/13 27/50/13 28/51/13 25/52/13
f 27/53/14 29/54/14 30/55/14 28/56/14
f 29/57/13 31/58/13 32/59/13 30/60/13
f 31/61/15 33/62/15 34/63/15 32/64/15
f 33/65/16 23/66/16 26/67/16 34/68/16
f 35/69/17 36/70/17 37/71/17 38/72/17
f 36/73/18 39/74/18 40/75/18 37/76/18
f 39/77/19 41/78/19 42/79/19 40/80/19
f 41/81/18 43/82/18 44/83/18 42/84/18
f 43/85/20 45/86/20 46/87/20 44/88/20
f 45/89/21 35/90/21 38/91/21 46/92/21
f 47/93/22 48/94/22 49/95/22 50/96/22
f 48/97/23 51/98/23 52/99/23 49/100/23
f 51/101/24 53/102/24 54/103/24 52/104/24
f 53/105/25 55/106/25 56/107/25 54/108/25
f 55/109/26 57/110/26 58/111/26 56/112/26
f 57/110/27 59/113/27 60/114/27 58/111/27
f 59/115/28 61/116/28 62/117/28 60/118/28
f 61/119/29 63/120/29 64/121/29 62/122/29
f 63/123/30 65/124/30 66/125/30 64/126/30
f 65/127/31 67/128/31 68/129/31 66/130/31
f 67/131/32 69/132/32 70/133/32 68/134/32
f 69/135/33 71/136/33 72/137/33 70/138/33
f 71/139/34 47/140/34 50/141/34 72/142/34
f 73/143/35 74/144/35 75/145/35 76/146/35
f 74/147/36 77/148/36 78/149/36 75/150/36
f 77/151/37 79/152/37 80/153/37 78/154/37
f 79/152/38 81/155/38 82/156/38 80/153/38
f 81/157/39 83/158/39 84/159/39 82/160/39
f 83/161/40 85/162/40 86/163/40 84/164/40
f 85/165/41 87/166/41 88/167/41 86/168/41
f 87/169/42 73/143/42 76/146/42 88/170/42
f 89/171/43 90/172/43 91/173/43 92/174/43
f 90/175/44 93/176/44 94/177/44 91/178/44
f 93/179/45 95/180/45 96/181/45 94/182/45
f 95/183/46 89/184/46 92/185/46 96/186/46
f 97/187/47 98/188/47 99/189/47 100/190/47
f 98/191/48 101/192/48 102/193/48 99/194/48
f 101/195/49 103/196/49 104/197/49 102/198/49
f 103/199/50 105/200/50 106/201/50 104/202/50
f 105/203/51 107/204/51 108/205/51 106/206/51
f 107/207/52 97/208/52 100/209/52 108/210/52
f 109/211/53 110/212/53 111/213/53 112/214/53
f 110/215/54 113/216/54 114/217/54 111/218/54
f 113/219/55 115/220/55 116/221/55 114/222/55
f 115/223/56 117/224/56 118/225/56 116/226/56
f 117/227/57 119/228/57 120/229/57 118/230/57
f 119/231/58 109/232/58 112/233/58 120/234/58
f 121/235/59 122/236/59 123/237/59 124/238/59
f 122/239/60 125/240/60 126/241/60 123/242/60
f 125/243/61 127/244/61 128/245/61 126/246/61
f 127/247/62 129/248/62 130/249/62 128/250/62
f 129/251/63 121/252/63 124/253/63 130/254/63
f 131/255/64 132/256/64 133/257/64 134/258/64
f 132/259/65 135/260/65 136/261/65 133/262/65
f 135/263/64 137/264/64 138/265/64 136/266/64
f 137/267/66 139/268/66 140/269/66 138/270/66
f 139/271/67 141/272/67 142/273/67 140/274/67
f 141/275/68 131/276/68 134/277/68 142/278/68
f 143/279/69 144/280/69 145/281/69 146/282/69
f 144/283/70 147/284/70 148/285/70 145/286/70
f 147/287/71 149/288/71 150/289/71 148/290/71
f 149/291/72 143/292/72 146/293/72 150/294/72
f 151/295/73 152/296/73 153/297/73 154/298/73
f 152/299/74 155/300/74 156/301/74 153/302/74
f 155/303/75 157/304/75 158/305/75 156/306/75
f 157/307/76 159/308/76 160/309/76 158/310/76
f 159/311/77 161/312/77 162/313/77 160/314/77
f 161/315/78 163/316/78 164/317/78 162/318/78
f 163/319/79 165/320/79 166/321/79 164/322/79
f 165/323/76 151/324/76 154/325/76 166/326/76
f 167/327/80 168/328/80 169/329/80 170/330/80
f 168/331/81 171/332/81 172/333/81 169/334/81
f 171/335/82 173/336/82 174/337/82 172/338/82
f 173/339/74 167/340/74 170/341/74 174/342/74
f 175/343/83 176/344/83 177/345/83 178/346/83
f 176/347/84 179/348/84 180/349/84 177/350/84
f 179/351/85 181/352/85 182/353/85 180/354/85
f 181/355/86 183/356/86 184/357/86 182/358/86
f 183/359/87 175/360/87 178/361/87 184/362/87
f 185/363/83 186/364/83 187/365/83 188/366/83
f 186/367/84 189/368/84 190/369/84 187/370/84
f 189/371/88 191/372/88 192/373/88 190/374/88
f 191/375/87 185/376/87 188/377/87 192/378/87
f 193/379/83 189/380/83 190/381/83 194/382/83
f 189/383/84 195/384/84 196/385/84 190/386/84
f 195/387/88 197/388/88 198/389/88 196/390/88
f 197/391/89 193/392/89 194/393/89 198/394/89
