# Blender v2.78 (sub 0) OBJ File: ''
# www.blender.org
mtllib CityEngineMaterial_796.mtl
o CityEngineMaterial_796
v -235.995697 5.476143 -262.729614
v -252.354202 5.476142 -257.474091
v -252.354202 7.698042 -257.474091
v -235.995697 7.698043 -262.729614
v -248.143097 5.476140 -244.391907
v -248.143097 7.698040 -244.391907
v -237.246902 5.476140 -247.905304
v -237.246902 7.698040 -247.905304
v -237.159897 5.476140 -249.852097
v -237.159897 7.698040 -249.852097
v -1364.752930 13.498529 435.454315
v -1363.805176 13.498529 432.464813
v -1363.805176 15.115029 432.464813
v -1364.752930 15.115029 435.454315
v -1360.585938 13.498531 420.016388
v -1360.585938 15.115031 420.016388
v -1360.917847 13.498531 419.919006
v -1360.917847 15.115031 419.919006
v -1365.744019 13.498529 435.139587
v -1365.744019 15.115029 435.139587
v 173.258896 43.926434 -823.882385
v 175.471603 43.926434 -824.202209
v 175.471603 46.054134 -824.202209
v 173.258896 46.054134 -823.882385
v 173.272095 43.926437 -838.189514
v 173.272095 46.054138 -838.189514
v 166.357605 43.926437 -837.190796
v 166.357605 46.054138 -837.190796
v 167.843307 43.926434 -826.903320
v 167.843307 46.054134 -826.903320
v 172.674103 43.926434 -827.601013
v 172.674103 46.054134 -827.601013
v -16.522400 1.318947 324.834015
v -4.574100 1.318948 321.233887
v -4.574100 3.316947 321.233887
v -16.522400 3.316947 324.834015
v -5.887700 1.318948 316.867004
v -5.887700 3.316948 316.867004
v -7.358600 1.318948 317.310089
v -7.358600 3.316948 317.310089
v -8.125900 1.318949 314.759186
v -8.125900 3.316949 314.759186
v -6.655300 1.318949 314.315399
v -6.655300 3.316949 314.315399
v -7.863200 1.318949 310.299896
v -7.863200 3.316949 310.299896
v -19.809700 1.318949 313.905212
v -19.809700 3.316949 313.905212
v 351.848785 41.562313 -62.013393
v 353.399689 41.562309 -47.646793
v 353.399689 43.341808 -47.646793
v 351.848785 43.341812 -62.013393
v 356.678497 41.562309 -47.999393
v 356.678497 43.341808 -47.999393
v 357.172699 41.562309 -45.051193
v 357.172699 43.341808 -45.051193
v 363.648895 41.562309 -45.760094
v 363.648895 43.341808 -45.760094
v 360.763306 41.562313 -62.971992
v 360.763306 43.341812 -62.971992
v -55.415501 40.282650 -920.413086
v -55.293499 40.282650 -919.635315
v -55.293499 42.331047 -919.635315
v -55.415501 42.331047 -920.413086
v -56.599201 40.282650 -919.430786
v -56.599201 42.331047 -919.430786
v -56.722099 40.282650 -920.208374
v -56.722099 42.331047 -920.208374
v -59.125801 40.282650 -919.831909
v -59.125801 42.331047 -919.831909
v -57.329498 40.282650 -908.464722
v -57.329498 42.331047 -908.464722
v -51.021301 40.282650 -909.452576
v -51.021301 42.331047 -909.452576
v -52.805000 40.282650 -920.822205
v -52.805000 42.331047 -920.822205
v 220.336105 44.056843 -865.070679
v 222.248199 44.056839 -850.708130
v 222.248199 45.659939 -850.708130
v 220.336105 45.659943 -865.070679
v 231.985199 44.056839 -852.114807
v 231.985199 45.659939 -852.114807
v 229.900497 44.056843 -866.453186
v 229.900497 45.659943 -866.453186
v 226.561798 44.056843 -865.970581
v 226.561798 45.659943 -865.970581
v 226.775497 44.056843 -864.500671
v 226.775497 45.659943 -864.500671
v 223.483002 44.056843 -864.025024
v 223.483002 45.659943 -864.025024
v 223.286896 44.056843 -865.497314
v 223.286896 45.659943 -865.497314
v -135.410507 1.313742 356.485199
v -138.650497 1.313745 336.254486
v -138.650497 3.110945 336.254486
v -135.410507 3.110942 356.485199
v -146.614502 1.313745 337.018494
v -146.614502 3.110945 337.018494
v -144.631393 1.313742 357.379791
v -144.631393 3.110942 357.379791
v -221.523193 1.713249 315.191589
v -209.090393 1.713249 314.009003
v -209.090393 4.016349 314.009003
v -221.523193 4.016348 315.191589
v -211.339401 1.713253 290.362610
v -211.339401 4.016353 290.362610
v -223.792694 1.713253 291.545990
v -223.792694 4.016352 291.545990
v -124.691704 24.781685 -517.289917
v -125.828903 24.781681 -496.273895
v -125.828903 26.805981 -496.273895
v -124.691704 26.805984 -517.289917
v -120.619797 24.781683 -497.726715
v -120.619797 26.805983 -497.726715
v -115.448097 24.781683 -498.615204
v -115.448097 26.805983 -498.615204
v -110.191200 24.781683 -499.095398
v -110.191200 26.805983 -499.095398
v -110.846298 24.781685 -517.300476
v -110.846298 26.805984 -517.300476
v -329.744293 2.975130 431.181213
v -328.786987 2.975128 441.246185
v -328.786987 4.709128 441.246185
v -329.744293 4.709130 431.181213
v -326.684204 2.975128 441.046204
v -326.684204 4.709128 441.046204
v -326.872498 2.975128 439.066803
v -326.872498 4.709128 439.066803
v -323.121307 2.975128 438.709991
v -323.121307 4.709128 438.709991
v -322.933014 2.975128 440.689392
v -322.933014 4.709128 440.689392
v -321.416992 2.975128 440.545288
v -321.416992 4.709128 440.545288
v -322.374390 2.975130 430.480194
v -322.374390 4.709130 430.480194
v -140.756195 32.236610 -1276.997803
v -140.737000 32.236610 -1279.733765
v -140.737000 34.377010 -1279.733765
v -140.756195 34.377010 -1276.997803
v -141.569000 32.236610 -1279.828247
v -141.569000 34.377010 -1279.828247
v -141.550293 32.236610 -1282.510132
v -141.550293 34.377010 -1282.510132
v -148.232300 32.236610 -1282.558472
v -148.232300 34.377010 -1282.558472
v -148.265106 32.236610 -1277.851685
v -148.265106 34.377010 -1277.851685
v -121.093002 4.462120 -121.187798
v -125.554398 4.462123 -143.117706
v -125.554398 6.323924 -143.117706
v -121.093002 6.323920 -121.187798
v -138.186096 4.462123 -140.248398
v -138.186096 6.323923 -140.248398
v -133.270401 4.462120 -118.698799
v -133.270401 6.323920 -118.698799
v -18.648899 41.658230 -794.392029
v -18.149700 41.658230 -791.208618
v -18.149700 43.627430 -791.208618
v -18.648899 43.627430 -794.392029
v -14.465000 41.658230 -791.785400
v -14.465000 43.627430 -791.785400
v -16.961901 41.658230 -807.713013
v -16.961901 43.627430 -807.713013
v -23.776699 41.658230 -806.645813
v -23.776699 43.627430 -806.645813
v -21.767700 41.658230 -793.903625
v -21.767700 43.627430 -793.903625
v 148.970306 42.225040 -867.075989
v 148.481796 42.225040 -871.489075
v 148.481796 43.697540 -871.489075
v 148.970306 43.697540 -867.075989
v 155.231995 42.225040 -872.387207
v 155.231995 43.697540 -872.387207
v 155.976593 42.225040 -867.049927
v 155.976593 43.697540 -867.049927
v 160.560593 42.225040 -867.659485
v 160.560593 43.697540 -867.659485
v 159.065994 42.225044 -878.372375
v 159.065994 43.697544 -878.372375
v 142.536804 42.225040 -876.173218
v 142.536804 43.697540 -876.173218
v 143.615997 42.225040 -866.423706
v 143.615997 43.697540 -866.423706
v 143.748993 42.225040 -865.423584
v 143.748993 43.697540 -865.423584
v 149.095505 42.225040 -866.134705
v 149.095505 43.697540 -866.134705
v 945.824524 111.392952 -307.228668
v 945.067688 111.392944 -302.596161
v 945.067688 112.866348 -302.596161
v 945.824524 112.866356 -307.228668
v 944.327820 111.392944 -298.067383
v 944.327820 112.866348 -298.067383
v 960.252686 111.392944 -299.831757
v 960.252686 112.866348 -299.831757
v 959.238098 111.392952 -308.728973
v 959.238098 112.866356 -308.728973
v 955.598083 111.392952 -308.321777
v 955.598083 112.866356 -308.321777
v 956.116577 111.392944 -303.775055
v 956.116577 112.866348 -303.775055
v 951.139771 111.392944 -303.223663
v 951.139771 112.866348 -303.223663
v 951.905212 111.392952 -307.908783
v 951.905212 112.866356 -307.908783
v 63.182999 35.568176 -462.496796
v 66.091003 35.568172 -443.944000
v 66.091003 37.679771 -443.944000
v 63.182999 37.679775 -462.496796
v 78.011803 35.568172 -445.743896
v 78.011803 37.679771 -445.743896
v 75.082497 35.568176 -464.360199
v 75.082497 37.679775 -464.360199
v 561.723511 22.975527 443.559509
v 564.238770 22.975527 449.688202
v 564.238770 24.777128 449.688202
v 561.723511 24.777128 443.559509
v 576.716187 22.975527 444.567291
v 576.716187 24.777128 444.567291
v 576.123474 22.975527 443.123688
v 576.123474 24.777128 443.123688
v 575.413513 22.975527 443.415100
v 575.413513 24.777128 443.415100
v 574.466797 22.975527 441.108398
v 574.466797 24.777128 441.108398
v 575.176575 22.975527 440.817108
v 575.176575 24.777128 440.817108
v 574.200317 22.975529 438.438812
v 574.200317 24.777130 438.438812
vt 0.6667 -0.0000
vt 2.8333 0.0000
vt 2.8333 1.0000
vt 0.6667 1.0000
vt 0.1667 -0.0000
vt 2.0000 0.0000
vt 2.0000 1.0000
vt 0.1667 1.0000
vt 0.8333 0.0000
vt 2.3333 0.0000
vt 2.3333 1.0000
vt 0.8333 1.0000
vt 0.3333 -0.0000
vt 0.6667 -0.0000
vt 0.6667 1.0000
vt 0.3333 1.0000
vt 0.0000 0.0000
vt 1.6667 -0.0000
vt 1.6667 1.0000
vt 0.0000 1.0000
vt 0.6667 -0.0000
vt 1.0000 -0.0000
vt 1.0000 1.0000
vt 0.6667 1.0000
vt 0.3333 -0.0000
vt 1.8333 0.0000
vt 1.8333 1.0000
vt 0.3333 1.0000
vt 0.0000 0.0000
vt 0.0333 0.0000
vt 0.0333 1.0000
vt 0.0000 1.0000
vt 0.0000 0.0000
vt 1.8333 0.0000
vt 1.8333 1.0000
vt 0.0000 1.0000
vt 0.1667 -0.0000
vt 0.3333 -0.0000
vt 0.3333 1.0000
vt 0.1667 1.0000
vt 0.1667 -0.0000
vt 0.5000 -0.0000
vt 0.5000 1.0000
vt 0.1667 1.0000
vt 0.1667 -0.0000
vt 1.8333 0.0000
vt 1.8333 1.0000
vt 0.1667 1.0000
vt 0.8333 0.0000
vt 1.6667 -0.0000
vt 1.6667 1.0000
vt 0.8333 1.0000
vt 0.3333 -0.0000
vt 1.5000 0.0000
vt 1.5000 1.0000
vt 0.3333 1.0000
vt 0.8333 0.0000
vt 1.3333 0.0000
vt 1.3333 1.0000
vt 0.8333 1.0000
vt 0.6667 -0.0000
vt 1.1667 0.0000
vt 1.1667 1.0000
vt 0.6667 1.0000
vt 0.5000 -0.0000
vt 2.3333 0.0000
vt 2.3333 1.0000
vt 0.5000 1.0000
vt 0.3333 -0.0000
vt 1.0000 -0.0000
vt 1.0000 1.0000
vt 0.3333 1.0000
vt 0.1667 -0.0000
vt 0.3333 -0.0000
vt 0.3333 1.0000
vt 0.1667 1.0000
vt 0.5000 -0.0000
vt 0.8333 0.0000
vt 0.8333 1.0000
vt 0.5000 1.0000
vt 0.1667 -0.0000
vt 0.3333 -0.0000
vt 0.3333 1.0000
vt 0.1667 1.0000
vt 0.6667 -0.0000
vt 1.3333 0.0000
vt 1.3333 1.0000
vt 0.6667 1.0000
vt 0.5000 -0.0000
vt 2.3333 0.0000
vt 2.3333 1.0000
vt 0.5000 1.0000
vt 0.6667 -0.0000
vt 2.3333 0.0000
vt 2.3333 1.0000
vt 0.6667 1.0000
vt 0.3333 -0.0000
vt 3.0000 -0.0000
vt 3.0000 1.0000
vt 0.3333 1.0000
vt 0.1667 -0.0000
vt 0.8333 0.0000
vt 0.8333 1.0000
vt 0.1667 1.0000
vt 0.1667 -0.0000
vt 0.6667 -0.0000
vt 0.6667 1.0000
vt 0.1667 1.0000
vt 0.1667 -0.0000
vt 1.3333 0.0000
vt 1.3333 1.0000
vt 0.1667 1.0000
vt 0.6667 -0.0000
vt 3.8333 -0.0000
vt 3.8333 1.0000
vt 0.6667 1.0000
vt 0.1667 -0.0000
vt 1.8333 0.0000
vt 1.8333 1.0000
vt 0.1667 1.0000
vt 0.3333 -0.0000
vt 0.5000 -0.0000
vt 0.5000 1.0000
vt 0.3333 1.0000
vt 0.1667 -0.0000
vt 0.3333 -0.0000
vt 0.3333 1.0000
vt 0.1667 1.0000
vt 0.5000 -0.0000
vt 0.5000 1.0000
vt 0.1667 -0.0000
vt 0.5000 -0.0000
vt 0.5000 1.0000
vt 0.1667 1.0000
vt 2.0000 0.0000
vt 2.0000 1.0000
vt 0.3333 -0.0000
vt 1.1667 0.0000
vt 1.1667 1.0000
vt 0.3333 1.0000
vt 0.5000 -0.0000
vt 2.0000 0.0000
vt 2.0000 1.0000
vt 0.5000 1.0000
vt 0.5000 -0.0000
vt 0.8333 0.0000
vt 0.8333 1.0000
vt 0.5000 1.0000
vt 0.1667 -0.0000
vt 1.8333 0.0000
vt 1.8333 1.0000
vt 0.1667 1.0000
vt 0.8333 0.0000
vt 2.0000 0.0000
vt 2.0000 1.0000
vt 0.8333 1.0000
vt 0.5000 -0.0000
vt 2.1667 0.0000
vt 2.1667 1.0000
vt 0.5000 1.0000
vt 0.6667 -0.0000
vt 1.0000 -0.0000
vt 1.0000 1.0000
vt 0.6667 1.0000
vt 0.8333 0.0000
vt 1.0000 -0.0000
vt 1.0000 1.0000
vt 0.8333 1.0000
vt 0.0000 0.0000
vt 0.3333 -0.0000
vt 0.3333 1.0000
vt 0.0000 1.0000
vt 0.0000 0.0000
vt 0.1667 -0.0000
vt 0.1667 1.0000
vt 0.0000 1.0000
vt 0.8333 0.0000
vt 1.1667 0.0000
vt 1.1667 1.0000
vt 0.8333 1.0000
vt 0.6667 -0.0000
vt 3.5000 0.0000
vt 3.5000 1.0000
vt 0.6667 1.0000
vt 0.5000 -0.0000
vt 1.6667 -0.0000
vt 1.6667 1.0000
vt 0.5000 1.0000
vt 0.3333 -0.0000
vt 3.1667 0.0000
vt 3.1667 1.0000
vt 0.3333 1.0000
vt 0.3333 -0.0000
vt 1.6667 -0.0000
vt 1.6667 1.0000
vt 0.3333 1.0000
vt 0.3333 -0.0000
vt 1.6667 -0.0000
vt 1.6667 1.0000
vt 0.3333 1.0000
vt 0.3333 -0.0000
vt 3.0000 -0.0000
vt 3.0000 1.0000
vt 0.3333 1.0000
vt 0.8333 0.0000
vt 2.1667 0.0000
vt 2.1667 1.0000
vt 0.8333 1.0000
vt 0.5000 -0.0000
vt 3.1667 0.0000
vt 3.1667 1.0000
vt 0.5000 1.0000
vt 0.5000 -0.0000
vt 3.5000 0.0000
vt 3.5000 1.0000
vt 0.5000 1.0000
vt 0.1667 -0.0000
vt 1.0000 -0.0000
vt 1.0000 1.0000
vt 0.1667 1.0000
vt 0.1667 -0.0000
vt 0.8333 0.0000
vt 0.8333 1.0000
vt 0.1667 1.0000
vt 1.5000 0.0000
vt 1.5000 1.0000
vt 0.3333 -0.0000
vt 2.8333 0.0000
vt 2.8333 1.0000
vt 0.3333 1.0000
vt 0.3333 -0.0000
vt 2.3333 0.0000
vt 2.3333 1.0000
vt 0.3333 1.0000
vt 0.8333 0.0000
vt 2.6667 0.0000
vt 2.6667 1.0000
vt 0.8333 1.0000
vt 0.3333 -0.0000
vt 0.6667 -0.0000
vt 0.6667 1.0000
vt 0.3333 1.0000
vt 0.5000 -0.0000
vt 0.8333 0.0000
vt 0.8333 1.0000
vt 0.5000 1.0000
vt 0.1667 -0.0000
vt 0.8333 0.0000
vt 0.8333 1.0000
vt 0.1667 1.0000
vt 0.1667 -0.0000
vt 0.5000 -0.0000
vt 0.5000 1.0000
vt 0.1667 1.0000
vt 0.8333 0.0000
vt 0.8333 1.0000
vt 0.6667 -0.0000
vt 2.5000 0.0000
vt 2.5000 1.0000
vt 0.6667 1.0000
vt 0.0000 0.0000
vt 1.3333 0.0000
vt 1.3333 1.0000
vt 0.0000 1.0000
vt 0.5000 -0.0000
vt 0.8333 0.0000
vt 0.8333 1.0000
vt 0.5000 1.0000
vt 0.6667 -0.0000
vt 0.8333 0.0000
vt 0.8333 1.0000
vt 0.6667 1.0000
vt 0.1667 -0.0000
vt 0.5000 -0.0000
vt 0.5000 1.0000
vt 0.1667 1.0000
vt 0.3333 -0.0000
vt 1.1667 0.0000
vt 1.1667 1.0000
vt 0.3333 1.0000
vt 0.0000 0.0000
vt 0.5000 -0.0000
vt 0.5000 1.0000
vt 0.0000 1.0000
vt 0.3333 -0.0000
vt 1.1667 0.0000
vt 1.1667 1.0000
vt 0.3333 1.0000
vt 0.8333 0.0000
vt 3.6667 0.0000
vt 3.6667 1.0000
vt 0.8333 1.0000
vt 0.1667 -0.0000
vt 1.8333 0.0000
vt 1.8333 1.0000
vt 0.1667 1.0000
vt 0.3333 -0.0000
vt 3.0000 -0.0000
vt 3.0000 1.0000
vt 0.3333 1.0000
vt 0.6667 -0.0000
vt 2.1667 0.0000
vt 2.1667 1.0000
vt 0.6667 1.0000
vt 0.3333 -0.0000
vt 0.8333 0.0000
vt 0.8333 1.0000
vt 0.3333 1.0000
vt 0.6667 -0.0000
vt 1.3333 0.0000
vt 1.3333 1.0000
vt 0.6667 1.0000
vt 0.6667 -0.0000
vt 3.1667 0.0000
vt 3.1667 1.0000
vt 0.6667 1.0000
vt 0.6667 -0.0000
vt 1.8333 0.0000
vt 1.8333 1.0000
vt 0.6667 1.0000
vt 0.1667 -0.0000
vt 2.1667 0.0000
vt 2.1667 1.0000
vt 0.1667 1.0000
vt 0.8333 0.0000
vt 1.3333 0.0000
vt 1.3333 1.0000
vt 0.8333 1.0000
vt 0.6667 -0.0000
vt 1.1667 0.0000
vt 1.1667 1.0000
vt 0.6667 1.0000
vt 0.3333 -0.0000
vt 1.1667 0.0000
vt 1.1667 1.0000
vt 0.3333 1.0000
vt 0.1667 -0.0000
vt 0.8333 0.0000
vt 0.8333 1.0000
vt 0.1667 1.0000
vt 0.5000 -0.0000
vt 1.0000 -0.0000
vt 1.0000 1.0000
vt 0.5000 1.0000
vt 0.8333 0.0000
vt 2.1667 0.0000
vt 2.1667 1.0000
vt 0.8333 1.0000
vt 0.5000 -0.0000
vt 2.5000 0.0000
vt 2.5000 1.0000
vt 0.5000 1.0000
vt 0.3333 -0.0000
vt 1.5000 0.0000
vt 1.5000 1.0000
vt 0.3333 1.0000
vt 0.6667 -0.0000
vt 0.8333 0.0000
vt 0.8333 1.0000
vt 0.6667 1.0000
vt 0.0000 0.0000
vt 0.6667 -0.0000
vt 0.6667 1.0000
vt 0.0000 1.0000
vt 0.1667 -0.0000
vt 0.3333 -0.0000
vt 0.3333 1.0000
vt 0.1667 1.0000
vt 0.1667 -0.0000
vt 0.8333 0.0000
vt 0.8333 1.0000
vt 0.1667 1.0000
vt 0.1667 -0.0000
vt 0.8333 0.0000
vt 0.8333 1.0000
vt 0.1667 1.0000
vt 0.1667 -0.0000
vt 2.3333 0.0000
vt 2.3333 1.0000
vt 0.1667 1.0000
vt 0.1667 -0.0000
vt 1.3333 0.0000
vt 1.3333 1.0000
vt 0.1667 1.0000
vt 0.3333 -0.0000
vt 0.8333 0.0000
vt 0.8333 1.0000
vt 0.3333 1.0000
vt 0.6667 -0.0000
vt 1.3333 0.0000
vt 1.3333 1.0000
vt 0.6667 1.0000
vt 0.5000 -0.0000
vt 1.1667 0.0000
vt 1.1667 1.0000
vt 0.5000 1.0000
vt 0.5000 -0.0000
vt 1.1667 0.0000
vt 1.1667 1.0000
vt 0.5000 1.0000
vt 0.1667 -0.0000
vt 1.0000 -0.0000
vt 1.0000 1.0000
vt 0.1667 1.0000
vt 0.6667 -0.0000
vt 4.1667 0.0000
vt 4.1667 1.0000
vt 0.6667 1.0000
vt 0.1667 -0.0000
vt 2.5000 0.0000
vt 2.5000 1.0000
vt 0.1667 1.0000
vt 0.1667 -0.0000
vt 3.6667 0.0000
vt 3.6667 1.0000
vt 0.1667 1.0000
vt 0.5000 -0.0000
vt 2.8333 0.0000
vt 2.8333 1.0000
vt 0.5000 1.0000
vt 0.8333 0.0000
vt 1.6667 -0.0000
vt 1.6667 1.0000
vt 0.8333 1.0000
vt 0.1667 -0.0000
vt 1.8333 0.0000
vt 1.8333 1.0000
vt 0.1667 1.0000
vt 0.3333 -0.0000
vt 0.5000 -0.0000
vt 0.5000 1.0000
vt 0.3333 1.0000
vt 0.6667 -0.0000
vt 0.6667 1.0000
vt 0.8333 0.0000
vt 1.1667 0.0000
vt 1.1667 1.0000
vt 0.8333 1.0000
vt 0.1667 -0.0000
vt 0.3333 -0.0000
vt 0.3333 1.0000
vt 0.1667 1.0000
vt 0.5000 -0.0000
vt 0.8333 0.0000
vt 0.8333 1.0000
vt 0.5000 1.0000
vt 2.5000 0.0000
vt 2.5000 1.0000
vn -0.3059 0.0000 -0.9521
vn -0.9519 0.0000 0.3064
vn 0.3069 0.0000 0.9517
vn 0.9990 0.0000 0.0446
vn 0.9959 0.0000 0.0900
vn 0.9532 0.0000 0.3022
vn 0.9682 0.0000 0.2504
vn 0.2815 0.0000 -0.9596
vn -0.9532 0.0000 -0.3023
vn -0.3027 0.0000 0.9531
vn 0.1431 0.0000 0.9897
vn 0.9879 0.0000 -0.1553
vn -0.1430 0.0000 -0.9897
vn -0.9897 0.0000 0.1429
vn 0.1429 0.0000 0.9897
vn -0.9879 0.0000 0.1554
vn 0.2885 0.0000 0.9575
vn 0.9576 0.0000 -0.2881
vn -0.2884 0.0000 -0.9575
vn 0.9576 0.0000 -0.2880
vn 0.2889 0.0000 0.9574
vn -0.2889 0.0000 -0.9574
vn -0.9576 0.0000 0.2880
vn -0.9942 0.0000 0.1073
vn 0.1069 0.0000 0.9943
vn -0.9862 0.0000 0.1653
vn 0.1088 0.0000 0.9941
vn 0.9862 0.0000 -0.1653
vn -0.1069 0.0000 -0.9943
vn -0.9879 0.0000 0.1550
vn -0.1548 0.0000 -0.9880
vn 0.9877 0.0000 -0.1561
vn -0.1547 0.0000 -0.9880
vn -0.9877 0.0000 0.1561
vn 0.1547 0.0000 0.9880
vn 0.9879 0.0000 -0.1550
vn -0.1548 0.0000 -0.9879
vn -0.9913 0.0000 0.1320
vn 0.1430 0.0000 0.9897
vn 0.9896 0.0000 -0.1439
vn -0.1431 0.0000 -0.9897
vn -0.9896 0.0000 0.1439
vn 0.9912 0.0000 -0.1320
vn 0.9874 0.0000 -0.1581
vn -0.0955 0.0000 -0.9954
vn -0.9953 0.0000 0.0969
vn 0.0966 0.0000 0.9953
vn 0.0947 0.0000 0.9955
vn 0.9955 0.0000 -0.0947
vn -0.0946 0.0000 -0.9955
vn -0.9954 0.0000 0.0955
vn -0.9985 0.0000 -0.0540
vn 0.2686 0.0000 0.9632
vn 0.1693 0.0000 0.9856
vn 0.0910 0.0000 0.9959
vn 0.9994 0.0000 -0.0360
vn -0.0008 0.0000 -1.0000
vn -0.9955 0.0000 0.0947
vn 0.0946 0.0000 0.9955
vn -0.0947 0.0000 -0.9955
vn 1.0000 0.0000 0.0070
vn 0.1128 0.0000 -0.9936
vn 0.0072 0.0000 -1.0000
vn -1.0000 0.0000 -0.0070
vn -0.1130 0.0000 0.9936
vn 0.9799 0.0000 -0.1994
vn -0.2215 0.0000 -0.9752
vn -0.9750 0.0000 0.2224
vn 0.2003 0.0000 0.9797
vn -0.9879 0.0000 0.1549
vn 0.9879 0.0000 -0.1549
vn -0.9878 0.0000 0.1557
vn 0.9939 0.0000 -0.1100
vn 0.1319 0.0000 0.9913
vn -0.9904 0.0000 0.1382
vn 0.1318 0.0000 0.9913
vn 0.9904 0.0000 -0.1382
vn -0.1319 0.0000 -0.9913
vn -0.9939 0.0000 0.1100
vn -0.9913 0.0000 0.1318
vn 0.9913 0.0000 -0.1318
vn -0.9869 0.0000 -0.1612
vn 0.1101 0.0000 0.9939
vn 0.9936 0.0000 -0.1133
vn -0.1112 0.0000 -0.9938
vn -0.9936 0.0000 0.1133
vn -0.1101 0.0000 -0.9939
vn 0.9869 0.0000 0.1612
vn 0.1493 0.0000 0.9888
vn 0.9878 0.0000 -0.1554
vn -0.9251 0.0000 0.3797
vn 0.3797 0.0000 0.9251
vn 0.9251 0.0000 -0.3798
vn -0.3797 0.0000 -0.9251
vn 0.9251 0.0000 -0.3797
g CityEngineMaterial_796_CityEngineMaterial_796_CityEngineMaterial_796_mat
usemtl CityEngineMaterial_796_mat
s 1
f 1/1/1 2/2/1 3/3/1 4/4/1
f 2/5/2 5/6/2 6/7/2 3/8/2
f 5/9/3 7/10/3 8/11/3 6/12/3
f 7/13/4 9/14/4 10/15/4 8/16/4
f 9/17/5 1/18/5 4/19/5 10/20/5
f 11/21/6 12/22/6 13/23/6 14/24/6
f 12/25/7 15/26/7 16/27/7 13/28/7
f 15/29/8 17/30/8 18/31/8 16/32/8
f 17/33/9 19/34/9 20/35/9 18/36/9
f 19/37/10 11/38/10 14/39/10 20/40/10
f 21/41/11 22/42/11 23/43/11 24/44/11
f 22/45/12 25/46/12 26/47/12 23/48/12
f 25/49/13 27/50/13 28/51/13 26/52/13
f 27/53/14 29/54/14 30/55/14 28/56/14
f 29/57/15 31/58/15 32/59/15 30/60/15
f 31/61/16 21/62/16 24/63/16 32/64/16
f 33/65/17 34/66/17 35/67/17 36/68/17
f 34/69/18 37/70/18 38/71/18 35/72/18
f 37/73/19 39/74/19 40/75/19 38/76/19
f 39/77/20 41/78/20 42/79/20 40/80/20
f 41/81/21 43/82/21 44/83/21 42/84/21
f 43/85/18 45/86/18 46/87/18 44/88/18
f 45/89/22 47/90/22 48/91/22 46/92/22
f 47/93/23 33/94/23 36/95/23 48/96/23
f 49/97/24 50/98/24 51/99/24 52/100/24
f 50/101/25 53/102/25 54/103/25 51/104/25
f 53/105/26 55/106/26 56/107/26 54/108/26
f 55/109/27 57/110/27 58/111/27 56/112/27
f 57/113/28 59/114/28 60/115/28 58/116/28
f 59/117/29 49/118/29 52/119/29 60/120/29
f 61/121/30 62/122/30 63/123/30 64/124/30
f 62/125/31 65/126/31 66/127/31 63/128/31
f 65/126/32 67/129/32 68/130/32 66/127/32
f 67/131/33 69/132/33 70/133/33 68/134/33
f 69/132/34 71/135/34 72/136/34 70/133/34
f 71/137/35 73/138/35 74/139/35 72/140/35
f 73/141/36 75/142/36 76/143/36 74/144/36
f 75/145/37 61/146/37 64/147/37 76/148/37
f 77/149/38 78/150/38 79/151/38 80/152/38
f 78/153/39 81/154/39 82/155/39 79/156/39
f 81/157/40 83/158/40 84/159/40 82/160/40
f 83/161/41 85/162/41 86/163/41 84/164/41
f 85/165/42 87/166/42 88/167/42 86/168/42
f 87/169/13 89/170/13 90/171/13 88/172/13
f 89/173/43 91/174/43 92/175/43 90/176/43
f 91/177/41 77/178/41 80/179/41 92/180/41
f 93/181/44 94/182/44 95/183/44 96/184/44
f 94/185/45 97/186/45 98/187/45 95/188/45
f 97/189/46 99/190/46 100/191/46 98/192/46
f 99/193/47 93/194/47 96/195/47 100/196/47
f 101/197/48 102/198/48 103/199/48 104/200/48
f 102/201/49 105/202/49 106/203/49 103/204/49
f 105/205/50 107/206/50 108/207/50 106/208/50
f 107/209/51 101/210/51 104/211/51 108/212/51
f 109/213/52 110/214/52 111/215/52 112/216/52
f 110/217/53 113/218/53 114/219/53 111/220/53
f 113/221/54 115/222/54 116/223/54 114/224/54
f 115/222/55 117/225/55 118/226/55 116/223/55
f 117/227/56 119/228/56 120/229/56 118/230/56
f 119/231/57 109/232/57 112/233/57 120/234/57
f 121/235/58 122/236/58 123/237/58 124/238/58
f 122/239/48 125/240/48 126/241/48 123/242/48
f 125/243/49 127/244/49 128/245/49 126/246/49
f 127/247/48 129/248/48 130/249/48 128/250/48
f 129/251/58 131/252/58 132/253/58 130/254/58
f 131/252/59 133/255/59 134/256/59 132/253/59
f 133/257/49 135/258/49 136/259/49 134/260/49
f 135/261/60 121/262/60 124/263/60 136/264/60
f 137/265/61 138/266/61 139/267/61 140/268/61
f 138/269/62 141/270/62 142/271/62 139/272/62
f 141/273/61 143/274/61 144/275/61 142/276/61
f 143/277/63 145/278/63 146/279/63 144/280/63
f 145/281/64 147/282/64 148/283/64 146/284/64
f 147/285/65 137/286/65 140/287/65 148/288/65
f 149/289/66 150/290/66 151/291/66 152/292/66
f 150/293/67 153/294/67 154/295/67 151/296/67
f 153/297/68 155/298/68 156/299/68 154/300/68
f 155/301/69 149/302/69 152/303/69 156/304/69
f 157/305/70 158/306/70 159/307/70 160/308/70
f 158/309/35 161/310/35 162/311/35 159/312/35
f 161/313/71 163/314/71 164/315/71 162/316/71
f 163/317/33 165/318/33 166/319/33 164/320/33
f 165/321/72 167/322/72 168/323/72 166/324/72
f 167/325/35 157/326/35 160/327/35 168/328/35
f 169/329/73 170/330/73 171/331/73 172/332/73
f 170/333/74 173/334/74 174/335/74 171/336/74
f 173/337/75 175/338/75 176/339/75 174/340/75
f 175/341/76 177/342/76 178/343/76 176/344/76
f 177/345/77 179/346/77 180/347/77 178/348/77
f 179/349/78 181/350/78 182/351/78 180/352/78
f 181/353/79 183/354/79 184/355/79 182/356/79
f 183/357/80 185/358/80 186/359/80 184/360/80
f 185/361/76 187/362/76 188/363/76 186/364/76
f 187/365/81 169/366/81 172/367/81 188/368/81
f 189/369/82 190/370/82 191/371/82 192/372/82
f 190/373/82 193/374/82 194/375/82 191/376/82
f 193/377/83 195/378/83 196/379/83 194/380/83
f 195/381/84 197/382/84 198/383/84 196/384/84
f 197/385/85 199/386/85 200/387/85 198/388/85
f 199/389/86 201/390/86 202/391/86 200/392/86
f 201/393/87 203/394/87 204/395/87 202/396/87
f 203/397/88 205/398/88 206/399/88 204/400/88
f 205/401/85 189/402/85 192/403/85 206/404/85
f 207/405/70 208/406/70 209/407/70 210/408/70
f 208/409/89 211/410/89 212/411/89 209/412/89
f 211/413/90 213/414/90 214/415/90 212/416/90
f 213/417/33 207/418/33 210/419/33 214/420/33
f 215/421/91 216/422/91 217/423/91 218/424/91
f 216/425/92 219/426/92 220/427/92 217/428/92
f 219/429/93 221/430/93 222/431/93 220/432/93
f 221/430/94 223/433/94 224/434/94 222/431/94
f 223/435/95 225/436/95 226/437/95 224/438/95
f 225/439/92 227/440/92 228/441/92 226/442/92
f 227/443/95 229/444/95 230/445/95 228/446/95
f 229/444/94 215/447/94 218/448/94 230/445/94
