# Blender v2.78 (sub 0) OBJ File: ''
# www.blender.org
mtllib CityEngineMaterial_795.mtl
o CityEngineMaterial_795
v -1542.237183 27.470037 388.967590
v -1538.615356 27.470037 381.122589
v -1540.679810 27.470039 380.171112
v -1540.904907 27.470037 380.658691
v -1542.728271 27.470039 379.816895
v -1545.547852 27.470039 377.927307
v -1542.505615 27.470039 379.329498
v -1549.134888 27.470037 385.782990
v -1541.844360 28.139036 388.026215
v -1539.285889 28.139036 382.484100
v -1543.629028 28.139038 380.479004
v -1546.187744 28.139036 386.021088
v -1545.450439 28.139036 384.424286
v -1544.216431 28.139036 381.751312
v -1546.736450 28.139036 380.587891
v -1547.970581 28.139036 383.260895
v -266.824402 12.405307 -43.293297
v -263.788208 12.405307 -43.627697
v -264.974701 12.405310 -57.813896
v -266.872192 12.405308 -49.432995
v -267.296997 12.405309 -54.512196
v -267.759491 12.405309 -54.473495
v -268.017609 12.405310 -57.558895
v -267.333710 12.405308 -49.382195
v -263.837189 13.180907 -44.213898
v -264.244202 13.180907 -49.080498
v -266.061890 13.180907 -48.928497
v -265.654907 13.180907 -44.061897
v -265.667694 13.180907 -44.214996
v -265.766510 13.180907 -45.396797
v -266.976593 13.180907 -45.295498
v -266.877686 13.180907 -44.113796
v 422.187103 56.057224 -147.051178
v 398.252808 56.057224 -141.273590
v 402.173706 56.057220 -125.096893
v 424.142609 56.057224 -128.859283
v 406.177490 74.130524 -143.186584
v 398.252808 74.130524 -141.273590
v 402.173706 74.130524 -125.096886
v 408.014496 74.130524 -126.097183
v 407.396515 75.001526 -126.564186
v 405.684906 75.001526 -142.486786
v 402.391998 75.001526 -141.691986
v 403.679413 75.001526 -129.715286
v 402.598206 75.001526 -125.742386
v 401.716705 75.001526 -129.379089
v -687.159729 7.459580 123.659203
v -688.632812 7.459581 113.042702
v -704.081177 7.459581 115.211403
v -702.526611 7.459579 126.354698
v -687.934082 22.598480 118.078499
v -688.632812 22.598480 113.042702
v -704.081177 22.598480 115.211403
v -703.378723 22.598480 120.246696
v -687.159729 12.831780 123.659203
v -687.934082 12.831781 118.078499
v -694.885498 12.831781 119.054298
v -694.068909 12.831780 124.871101
v -690.094482 23.294481 116.602402
v -690.552429 23.294481 113.312202
v -702.162720 23.294481 114.942101
v -701.702881 23.294481 118.232002
v -688.167786 13.365581 118.388000
v -694.575989 13.365581 119.287598
v -694.352417 13.365580 120.880302
v -689.866516 13.365580 120.250603
v -689.378113 13.365580 123.770103
v -687.467529 13.365580 123.434998
v -689.851685 23.294481 118.347702
v -696.189270 23.294481 117.458000
v -695.944275 23.294481 119.203003
v -141.336304 37.561909 -1282.508667
v -141.280304 37.561909 -1290.402222
v -142.903503 37.561909 -1290.413940
v -148.153793 37.561909 -1293.813599
v -142.880096 37.561909 -1293.776245
v -148.232300 37.561909 -1282.558472
v -143.466003 38.965210 -1283.892822
v -143.429993 38.965210 -1289.049072
v -148.186798 38.965210 -1289.083130
v -148.222794 38.965210 -1283.926880
v -141.310394 38.965210 -1286.166992
v -141.289902 38.965210 -1289.033813
v -143.449997 38.965210 -1286.181885
v 561.723511 28.551527 443.559509
v 564.238770 28.551527 449.688202
v 576.716125 28.551527 444.567291
v 575.413513 28.551527 443.415100
v 576.123474 28.551527 443.123688
v 574.466675 28.551527 441.108398
v 575.176575 28.551527 440.817108
v 574.200317 28.551529 438.438812
v 563.501587 29.914728 445.103088
v 565.218384 29.914728 449.286194
v 575.026428 29.914728 445.260803
v 573.309509 29.914728 441.077698
v 565.690002 29.914728 441.931610
v 566.488586 29.914728 443.877106
v 568.593079 29.914728 443.013306
v 567.794678 29.914728 441.067688
vt 0.0000 1.0000
vt 0.5739 1.0000
vt 0.5738 0.7022
vt 0.5381 0.7022
vt 0.5381 0.4391
vt 0.5736 0.0000
vt 0.5737 0.4388
vt 0.0000 0.0047
vt 0.0000 1.0000
vt 1.0000 1.0000
vt 1.0000 0.0000
vt 0.0000 0.0000
vt 0.0000 1.0000
vt 1.0000 1.0000
vt 1.0000 0.0000
vt 0.0000 0.0000
vt 0.0000 0.0000
vt 0.0101 1.0000
vt 1.8016 1.0000
vt 0.7705 0.1520
vt 1.4119 0.1520
vt 1.4119 0.0000
vt 1.8015 0.0000
vt 0.7689 0.0000
vt 0.0000 1.0000
vt 1.0000 1.0000
vt 1.0000 0.0000
vt 0.0000 0.0000
vt 0.0000 0.0000
vt 0.0000 1.0000
vt 1.0000 1.0000
vt 1.0000 0.0000
vt -0.0000 0.7364
vt 0.9339 0.7364
vt 0.9333 0.0608
vt 0.0898 0.0000
vt 0.6651 0.5950
vt 0.6251 -0.0000
vt 0.0000 0.1597
vt 0.0140 0.5950
vt 0.0098 1.0000
vt 0.5230 1.0000
vt 0.5090 0.3717
vt 0.1229 0.3717
vt 0.0000 0.0912
vt 0.1189 0.0000
vt 0.0017 0.0511
vt 0.0000 1.0796
vt 1.5620 1.0796
vt 1.5630 -0.0000
vt 0.0009 0.0000
vt 0.0000 1.0000
vt 1.6876 1.0000
vt 1.6881 0.0000
vt 0.0013 0.0408
vt 0.0000 1.0000
vt 1.0000 1.0000
vt 1.0000 0.0000
vt 0.0004 -0.0000
vt 0.0000 1.0000
vt 1.0340 1.0000
vt 1.0342 0.0000
vt 0.0000 1.0000
vt 1.0000 1.0000
vt 1.0000 0.6884
vt 0.3000 0.6884
vt 0.3008 -0.0000
vt 0.0013 0.0128
vt 0.0004 -0.0000
vt 0.0000 1.0000
vt 1.0000 1.0000
vt 1.0000 0.0000
vt 1.2845 0.0001
vt 0.3838 0.0000
vt 0.3837 0.2353
vt 0.0000 1.0000
vt 0.0001 0.2353
vt 1.2842 1.0000
vt 0.0000 1.0000
vt 0.9998 1.0000
vt 1.0000 0.0000
vt 0.0002 -0.0000
vt 0.0001 1.0000
vt 1.0000 1.0000
vt 1.0000 0.0000
vt -0.0000 0.0002
vt 0.0000 0.0000
vt 0.0000 1.0000
vt 1.1726 1.0000
vt 1.1059 0.7644
vt 1.1726 0.7644
vt 1.1059 0.3881
vt 1.1726 0.3881
vt 1.1726 0.0000
vt 0.0000 0.0000
vt 0.0000 1.0000
vt 1.1767 1.0000
vt 1.1767 0.0000
vt 0.0000 0.0000
vt 0.0000 1.0000
vt 1.0000 1.0000
vt 1.0000 0.0000
vn 0.0000 1.0000 0.0000
g CityEngineMaterial_795_CityEngineMaterial_795_CityEngineMaterial_795_mat
usemtl CityEngineMaterial_795_mat
s 1
f 1/1/1 2/2/1 3/3/1 4/4/1
f 1/1/1 4/4/1 5/5/1 6/6/1
f 5/5/1 7/7/1 6/6/1
f 1/1/1 6/6/1 8/8/1
f 9/9/1 10/10/1 11/11/1 12/12/1
f 13/13/1 14/14/1 15/15/1 16/16/1
f 17/17/1 18/18/1 19/19/1 20/20/1
f 21/21/1 20/20/1 19/19/1 22/22/1
f 19/19/1 23/23/1 22/22/1
f 17/17/1 20/20/1 24/24/1
f 25/25/1 26/26/1 27/27/1 28/28/1
f 29/29/1 30/30/1 31/31/1 32/32/1
f 33/33/1 34/34/1 35/35/1 36/36/1
f 37/37/1 38/38/1 39/39/1 40/40/1
f 41/41/1 42/42/1 43/43/1 44/44/1
f 45/45/1 41/41/1 44/44/1 46/46/1
f 47/47/1 48/48/1 49/49/1 50/50/1
f 51/51/1 52/52/1 53/53/1 54/54/1
f 55/55/1 56/56/1 57/57/1 58/58/1
f 59/59/1 60/60/1 61/61/1 62/62/1
f 63/63/1 64/64/1 65/65/1 66/66/1
f 63/63/1 66/66/1 67/67/1 68/68/1
f 69/69/1 59/70/1 70/71/1 71/72/1
f 72/73/1 73/74/1 74/75/1 75/76/1
f 74/75/1 76/77/1 75/76/1
f 72/73/1 75/76/1 77/78/1
f 78/79/1 79/80/1 80/81/1 81/82/1
f 82/83/1 83/84/1 79/85/1 84/86/1
f 85/87/1 86/88/1 87/89/1 88/90/1
f 87/89/1 89/91/1 88/90/1
f 85/87/1 88/90/1 90/92/1 91/93/1
f 85/87/1 91/93/1 92/94/1
f 93/95/1 94/96/1 95/97/1 96/98/1
f 97/99/1 98/100/1 99/101/1 100/102/1
