# Blender v2.78 (sub 0) OBJ File: ''
# www.blender.org
mtllib CityEngineMaterial_699.mtl
o CityEngineMaterial_699
v -656.716125 8.101931 424.610687
v -656.019409 8.101933 418.448395
v -656.019409 17.104132 418.448395
v -656.716125 17.104132 424.610687
v -668.344727 8.101932 418.579102
v -668.344727 17.104132 418.579102
v -670.840088 8.101929 440.654205
v -670.840088 17.104128 440.654205
v -658.515991 8.101929 440.533600
v -658.515991 17.104128 440.533600
v -657.899902 8.101930 435.083099
v -657.899902 17.104130 435.083099
v -658.932617 8.101930 435.093201
v -658.932617 17.104130 435.093201
v -657.748779 8.101931 424.621613
v -657.748779 17.104132 424.621613
v -668.593323 17.104132 420.778992
v -670.448303 17.104130 437.188385
v -670.448303 17.509729 437.188385
v -668.593323 17.509731 420.778992
v -663.845581 17.104130 437.934814
v -663.845581 17.509729 437.934814
v -661.990601 17.104132 421.525391
v -661.990601 17.509731 421.525391
v -662.473206 17.104132 425.794312
v -662.473206 17.509731 425.794312
v -659.367371 17.104130 438.441010
v -659.367371 17.509729 438.441010
v -657.994995 17.104132 426.300598
v -657.994995 17.509731 426.300598
v 360.191895 53.358250 -293.784302
v 356.967285 53.358250 -293.204895
v 356.967285 61.313450 -293.204895
v 360.191895 61.313450 -293.784302
v 354.927887 53.358246 -291.943695
v 354.927887 61.313446 -291.943695
v 351.197205 53.358246 -289.576691
v 351.197205 61.313446 -289.576691
v 348.502014 53.358246 -287.749908
v 348.502014 61.313446 -287.749908
v 352.211487 53.358246 -288.284790
v 352.211487 61.313446 -288.284790
v 356.802185 53.358246 -289.087891
v 356.802185 61.313446 -289.087891
v 360.899597 53.358246 -289.848785
v 360.899597 61.313446 -289.848785
v 350.898285 61.313446 -288.677795
v 352.120697 61.313446 -288.854004
v 352.120697 61.950546 -288.854004
v 350.898285 61.950546 -288.677795
v 356.700012 61.313446 -289.655212
v 356.700012 61.950546 -289.655212
v 360.230896 61.313446 -290.310913
v 360.230896 61.950546 -290.310913
v 360.127899 61.313446 -290.883789
v 360.127899 61.950546 -290.883789
v 356.596710 61.313446 -290.227905
v 356.596710 61.950546 -290.227905
v 352.044495 61.313446 -289.431610
v 352.044495 61.950546 -289.431610
v 351.513397 61.313446 -289.094696
v 351.513397 61.950546 -289.094696
v 327.287506 22.729156 267.791687
v 344.155487 22.729158 263.281189
v 344.155487 23.893759 263.281189
v 327.287506 23.893757 267.791687
v 344.444305 22.729158 262.568298
v 344.444305 23.893759 262.568298
v 343.811188 22.729160 251.416504
v 343.811188 23.893761 251.416504
v 325.219208 22.729158 254.236603
v 325.219208 23.893759 254.236603
v 344.155487 54.992256 263.281189
v 327.287506 54.992256 267.791687
v 344.444305 54.992157 262.568298
v 344.144012 23.893759 257.280090
v 344.144012 54.992256 257.280090
v 326.407288 23.893759 262.022797
v 326.407288 54.992256 262.022797
v 333.576385 23.893759 260.105896
v 333.576385 45.373558 260.105896
v 326.407288 45.373558 262.022797
v 331.742401 23.893759 253.247101
v 331.742401 45.373558 253.247101
v 325.219208 45.373558 254.236603
v 338.119110 23.893759 258.891113
v 338.119110 54.992157 258.891113
v 343.811188 54.992157 251.416519
v 336.420105 23.893759 252.537598
v 336.420105 54.992256 252.537613
v 340.458893 54.992256 258.300201
v 328.560486 54.992256 261.481812
v 328.560486 55.512657 261.481812
v 340.458893 55.512657 258.300201
v 329.489105 54.992256 264.954498
v 329.489105 55.512657 264.954498
v 341.387512 54.992157 261.772888
v 341.387512 55.512657 261.772888
v 330.568115 45.373558 255.041504
v 327.040192 45.373558 255.576706
v 327.040192 46.095959 255.576706
v 330.568115 46.095959 255.041504
v 327.717896 45.373558 260.018188
v 327.717896 46.095959 260.018188
v 329.620514 45.373558 259.509491
v 329.620514 46.095959 259.509491
v 329.258087 45.373558 257.134613
v 329.258087 46.095959 257.134613
v 331.054810 45.373558 256.862091
v 331.054810 46.095959 256.862091
v 341.845215 54.992256 253.839020
v 339.055206 54.992256 254.262115
v 339.055206 55.724957 254.262115
v 341.845215 55.724957 253.839020
v 339.253906 54.992256 255.005417
v 339.253906 55.724957 255.005417
v 340.053802 54.992256 254.884018
v 340.053802 55.724957 254.884018
v 340.127502 54.992157 256.180206
v 340.127502 55.724957 256.180206
v 341.950409 54.992157 255.692719
v 341.950409 55.724957 255.692719
v -85.211800 14.881351 -317.958099
v -88.458199 14.881351 -317.071808
v -88.458199 22.322552 -317.071808
v -85.211800 22.322552 -317.958099
v -88.022903 14.881351 -315.172607
v -88.022903 22.322552 -315.172607
v -96.432999 14.881351 -312.892609
v -96.432999 22.322552 -312.892609
v -94.757301 14.881350 -305.649506
v -94.757301 22.322550 -305.649506
v -83.114098 14.881351 -308.806091
v -83.114098 22.322550 -308.806091
v -93.414200 22.322550 -306.052094
v -84.151497 22.322550 -308.563385
v -84.151497 23.045849 -308.563385
v -93.414200 23.045849 -306.052094
v -85.325500 22.322552 -312.893585
v -85.325500 23.045851 -312.893585
v -94.588203 22.322552 -310.382385
v -94.588203 23.045851 -310.382385
v -91.252701 22.322552 -311.286713
v -88.389000 22.322552 -312.063110
v -88.389000 23.045851 -312.063110
v -91.252701 23.045851 -311.286713
v -89.149300 22.322552 -314.867188
v -89.149300 23.045851 -314.867188
v -92.012901 22.322552 -314.090912
v -92.012901 23.045851 -314.090912
v 300.014893 49.427441 -251.751282
v 317.586487 49.427441 -253.458984
v 317.586487 57.793343 -253.458984
v 300.014893 57.793343 -251.751282
v 316.955109 49.427441 -260.236115
v 316.955109 57.793343 -260.236115
v 309.595612 49.427441 -259.518311
v 309.595612 57.793343 -259.518311
v 309.684692 49.427441 -258.562408
v 309.684692 57.793343 -258.562408
v 303.550995 49.427441 -257.966309
v 303.550995 57.793343 -257.966309
v 303.471405 49.427441 -258.921112
v 303.471405 57.793343 -258.921112
v 299.450104 49.427441 -258.528900
v 299.450104 57.793343 -258.528900
v 315.103699 57.793343 -256.451385
v 305.827301 57.793343 -255.549881
v 305.827301 58.645042 -255.549881
v 315.103699 58.645042 -256.451385
v 305.791504 57.793343 -255.979187
v 305.791504 58.645042 -255.979187
v 301.896210 57.793343 -255.600677
v 301.896210 58.645042 -255.600677
v 302.017090 57.793343 -254.150681
v 302.017090 58.645042 -254.150681
v 315.198792 57.793343 -255.431778
v 315.198792 58.645042 -255.431778
v 312.072296 57.793343 -256.589600
v 315.063812 57.793343 -256.880402
v 315.063812 58.567043 -256.880402
v 312.072296 58.567043 -256.589600
v 314.974609 57.793343 -257.838013
v 314.974609 58.567043 -257.838013
v 311.983307 57.793343 -257.546204
v 311.983307 58.567043 -257.546204
v -805.015381 6.000772 171.015793
v -789.740723 6.000772 168.339005
v -789.740723 8.306072 168.339005
v -805.015381 8.306072 171.015793
v -793.157288 6.000776 148.129501
v -793.157288 8.306076 148.129501
v -808.252991 6.000775 150.774994
v -808.252991 8.306075 150.774994
v -807.129822 8.306074 157.796799
v -791.972107 8.306074 155.140503
v -791.972107 18.188576 155.140503
v -807.129822 18.188576 157.796799
v -793.157288 18.188576 148.129501
v -808.252991 18.188576 150.774994
v -805.965210 18.188576 157.556702
v -792.969604 18.188576 155.279205
v -792.969604 18.674974 155.279205
v -805.965210 18.674974 157.556702
v -793.814697 18.188576 150.456696
v -793.814697 18.674974 150.456696
v -806.810425 18.188576 152.734100
v -806.810425 18.674974 152.734100
v -803.253174 18.188576 152.110703
v -800.481812 18.188576 151.625000
v -800.481812 18.674974 151.625000
v -803.253174 18.674974 152.110703
v -800.857788 18.188576 149.479004
v -800.857788 18.674974 149.479004
v -803.629272 18.188576 149.964706
v -803.629272 18.674974 149.964706
v -428.977905 7.870978 745.098083
v -428.624786 7.870981 729.903687
v -428.624786 10.315681 729.903687
v -428.977905 10.315679 745.098083
v -438.079803 7.870981 729.695923
v -438.079803 10.315681 729.695923
v -439.100006 7.870979 744.392822
v -439.099915 10.315679 744.392822
v -428.696594 10.315681 732.993225
v -428.696594 17.389580 732.993225
v -428.977905 17.389578 745.098083
v -438.294006 10.315681 732.781982
v -438.294006 17.389580 732.781982
v -439.100006 17.389578 744.392822
v -434.441010 17.389580 735.980103
v -434.498291 17.389580 738.447205
v -434.498291 18.037680 738.447205
v -434.441010 18.037680 735.980103
v -435.562103 17.389580 738.373108
v -435.562103 18.037680 738.373108
v -435.779510 17.389580 741.504211
v -435.779510 18.037680 741.504211
v -432.013885 17.389580 741.766479
v -432.013885 18.037680 741.766479
v -431.880707 17.389580 736.036316
v -431.880707 18.037680 736.036316
vt 0.3333 -0.3333
vt 1.6667 -0.3333
vt 1.6667 1.0000
vt 0.3333 1.0000
vt 0.3333 -0.3333
vt 3.3333 -0.3333
vt 3.3333 1.0000
vt 0.3333 1.0000
vt 0.3333 -0.3333
vt 5.6667 -0.3333
vt 5.6667 1.0000
vt 0.3333 1.0000
vt 0.6667 -0.3333
vt 3.6667 -0.3333
vt 3.6667 1.0000
vt 0.6667 1.0000
vt 0.3333 -0.3333
vt 1.6667 -0.3333
vt 1.6667 1.0000
vt 0.3333 1.0000
vt -0.0000 -0.3333
vt 0.3333 -0.3333
vt 0.3333 1.0000
vt -0.0000 1.0000
vt 0.6667 -0.3333
vt 3.3333 -0.3333
vt 3.3333 1.0000
vt 0.6667 1.0000
vt 0.3333 -0.3333
vt 0.6667 -0.3333
vt 0.6667 1.0000
vt 0.3333 1.0000
vt 0.6667 0.9833
vt 4.6667 0.9833
vt 4.6667 1.0000
vt 0.6667 1.0000
vt 0.6667 0.9833
vt 2.3333 0.9833
vt 2.3333 1.0000
vt 0.6667 1.0000
vt -0.0000 0.9833
vt 4.0000 0.9833
vt 4.0000 1.0000
vt -0.0000 1.0000
vt 0.6667 0.9833
vt 2.3333 0.9833
vt 2.3333 1.0000
vt 0.6667 1.0000
vt 0.3333 0.9833
vt 3.3333 0.9833
vt 3.3333 1.0000
vt 0.3333 1.0000
vt 1.0000 0.9833
vt 1.0000 1.0000
vt 0.3333 0.9833
vt 3.3333 0.9833
vt 3.3333 1.0000
vt 0.3333 1.0000
vt 0.3333 0.9833
vt 1.3333 0.9833
vt 1.3333 1.0000
vt 0.3333 1.0000
vt 0.3333 -0.1667
vt 1.3333 -0.1667
vt 1.3333 1.0000
vt 0.3333 1.0000
vt 0.3333 -0.1667
vt 1.0000 -0.1667
vt 1.0000 1.0000
vt 0.3333 1.0000
vt 0.3333 -0.1667
vt 1.3333 -0.1667
vt 1.3333 1.0000
vt 0.3333 1.0000
vt 0.3333 -0.1667
vt 1.3333 -0.1667
vt 1.3333 1.0000
vt 0.3333 1.0000
vt 0.3333 -0.1667
vt 1.3333 -0.1667
vt 1.3333 1.0000
vt 0.3333 1.0000
vt 0.3333 -0.1667
vt 1.6667 -0.1667
vt 1.6667 1.0000
vt 0.3333 1.0000
vt 0.6667 -0.1667
vt 1.6667 -0.1667
vt 1.6667 1.0000
vt 0.6667 1.0000
vt 0.3333 -0.1667
vt 1.3333 -0.1667
vt 1.3333 1.0000
vt 0.3333 1.0000
vt -0.0000 0.9833
vt 0.3333 0.9833
vt 0.3333 1.0000
vt -0.0000 1.0000
vt 1.6667 0.9833
vt 1.6667 1.0000
vt 0.3333 0.9833
vt 1.3333 0.9833
vt 1.3333 1.0000
vt 0.3333 1.0000
vt 0.6667 0.9833
vt 0.7333 0.9833
vt 0.7333 1.0000
vt 0.6667 1.0000
vt 0.3333 0.9833
vt 1.3333 0.9833
vt 1.3333 1.0000
vt 0.3333 1.0000
vt 0.3333 0.9833
vt 1.6667 0.9833
vt 1.6667 1.0000
vt 0.3333 1.0000
vt 0.3333 0.9833
vt 0.4000 0.9833
vt 0.4000 1.0000
vt 0.3333 1.0000
vt -0.0000 0.9833
vt 0.3333 0.9833
vt 0.3333 1.0000
vt -0.0000 1.0000
vt 0.0000 0.8333
vt 5.6667 0.8333
vt 5.6667 1.0000
vt -0.0000 1.0000
vt 0.0000 0.8333
vt 0.3333 0.8333
vt 0.3333 1.0000
vt -0.0000 1.0000
vt 0.0000 0.8333
vt 3.6667 0.8333
vt 3.6667 1.0000
vt -0.0000 1.0000
vt 0.6667 0.8333
vt 6.6667 0.8333
vt 6.6667 1.0000
vt 0.6667 1.0000
vt 0.0000 0.8333
vt 4.3333 0.8333
vt 4.3333 1.0000
vt -0.0000 1.0000
vt 0.3333 -3.0000
vt 6.0000 -3.0000
vt 6.0000 1.0000
vt 0.3333 1.0000
vt 0.6667 -3.0000
vt 1.0000 -3.0000
vt 1.0000 1.0000
vt 0.6667 1.0000
vt 0.6667 -3.0000
vt 2.3333 -3.0000
vt 2.3333 1.0000
vt 0.6667 1.0000
vt 0.3333 -3.0000
vt 6.3333 -3.0000
vt 6.3333 1.0000
vt 0.3333 1.0000
vt 0.6667 -3.0000
vt 2.6667 -3.0000
vt 2.6667 1.0000
vt 0.6667 1.0000
vt 0.3333 -1.8333
vt 2.6667 -1.8333
vt 2.6667 1.0000
vt 0.3333 1.0000
vt 0.3333 -1.8333
vt 2.6667 -1.8333
vt 2.6667 1.0000
vt 0.3333 1.0000
vt -0.0000 -1.8333
vt 2.0000 -1.8333
vt 2.0000 1.0000
vt -0.0000 1.0000
vt 0.6667 -1.8333
vt 3.3333 -1.8333
vt 3.3333 1.0000
vt 0.6667 1.0000
vt 0.6667 -3.0000
vt 2.6667 -3.0000
vt 2.6667 1.0000
vt 0.6667 1.0000
vt 2.3333 -3.0000
vt 2.3333 1.0000
vt 0.3333 -3.0000
vt 2.6667 -3.0000
vt 2.6667 1.0000
vt 0.3333 1.0000
vt 0.0000 -3.0000
vt 2.0000 -3.0000
vt 2.0000 1.0000
vt -0.0000 1.0000
vt -0.0000 0.9833
vt 4.0000 0.9833
vt 4.0000 1.0000
vt -0.0000 1.0000
vt 0.6667 0.9833
vt 1.6667 0.9833
vt 1.6667 1.0000
vt 0.6667 1.0000
vt 0.3333 0.9833
vt 4.3333 0.9833
vt 4.3333 1.0000
vt 0.3333 1.0000
vt -0.0000 0.9833
vt 1.0000 0.9833
vt 1.0000 1.0000
vt -0.0000 1.0000
vt 0.6667 0.9833
vt 1.6667 0.9833
vt 1.6667 1.0000
vt 0.6667 1.0000
vt 0.3333 0.9833
vt 1.6667 0.9833
vt 1.6667 1.0000
vt 0.3333 1.0000
vt 0.6667 0.9833
vt 1.3333 0.9833
vt 1.3333 1.0000
vt 0.6667 1.0000
vt 0.3333 0.9833
vt 1.0000 0.9833
vt 1.0000 1.0000
vt 0.3333 1.0000
vt 0.3333 0.9833
vt 1.0000 0.9833
vt 1.0000 1.0000
vt 0.3333 1.0000
vt 0.3333 0.9833
vt 1.0000 0.9833
vt 1.0000 1.0000
vt 0.3333 1.0000
vt 0.6667 0.9833
vt 1.6667 0.9833
vt 1.6667 1.0000
vt 0.6667 1.0000
vt 0.3333 0.9833
vt 0.6667 0.9833
vt 0.6667 1.0000
vt 0.3333 1.0000
vt 0.3333 0.9833
vt 0.6667 0.9833
vt 0.6667 1.0000
vt 0.3333 1.0000
vt 0.3333 0.9833
vt 0.6667 0.9833
vt 0.6667 1.0000
vt 0.3333 1.0000
vt -0.0000 0.9833
vt 0.6667 0.9833
vt 0.6667 1.0000
vt -0.0000 1.0000
vt 1.3333 0.9833
vt 1.3333 1.0000
vt 0.3333 0.0000
vt 1.3333 0.0000
vt 1.3333 1.0000
vt 0.3333 1.0000
vt 0.3333 0.0000
vt 1.0000 -0.0000
vt 1.0000 1.0000
vt 0.3333 1.0000
vt 0.3333 0.0000
vt 3.0000 0.0000
vt 3.0000 1.0000
vt 0.3333 1.0000
vt 0.3333 0.0000
vt 2.6667 0.0000
vt 2.6667 1.0000
vt 0.3333 1.0000
vt 0.0000 0.0000
vt 3.6667 -0.0000
vt 3.6667 1.0000
vt -0.0000 1.0000
vt 0.0000 0.0000
vt 3.0000 0.0000
vt 3.0000 1.0000
vt -0.0000 1.0000
vt 0.3333 0.9833
vt 3.3333 0.9833
vt 3.3333 1.0000
vt 0.3333 1.0000
vt 0.6667 0.9833
vt 2.0000 0.9833
vt 2.0000 1.0000
vt 0.6667 1.0000
vt 0.3333 0.9833
vt 3.3333 0.9833
vt 3.3333 1.0000
vt 0.3333 1.0000
vt 0.6667 0.9833
vt 2.0000 0.9833
vt 2.0000 1.0000
vt 0.6667 1.0000
vt 0.3333 0.9833
vt 1.3333 0.9833
vt 1.3333 1.0000
vt 0.3333 1.0000
vt -0.0000 0.9833
vt 1.0000 0.9833
vt 1.0000 1.0000
vt -0.0000 1.0000
vt -0.0000 0.9833
vt 1.0000 0.9833
vt 1.0000 1.0000
vt -0.0000 1.0000
vt -0.0000 0.9833
vt 1.0000 0.9833
vt 1.0000 1.0000
vt -0.0000 1.0000
vt 0.6667 -0.1667
vt 5.3333 -0.1667
vt 5.3333 1.0000
vt 0.6667 1.0000
vt 0.6667 -0.1667
vt 2.6667 -0.1667
vt 2.6667 1.0000
vt 0.6667 1.0000
vt 0.0000 -0.1667
vt 2.0000 -0.1667
vt 2.0000 1.0000
vt -0.0000 1.0000
vt 0.6667 -0.1667
vt 1.0000 -0.1667
vt 1.0000 1.0000
vt 0.6667 1.0000
vt 0.3333 -0.1667
vt 2.0000 -0.1667
vt 2.0000 1.0000
vt 0.3333 1.0000
vt 0.3333 -0.1667
vt 0.6667 -0.1667
vt 0.6667 1.0000
vt 0.3333 1.0000
vt 1.6667 -0.1667
vt 1.6667 1.0000
vt 0.6667 -0.1667
vt 2.6667 -0.1667
vt 2.6667 1.0000
vt 0.6667 1.0000
vt 0.3333 0.9833
vt 3.0000 0.9833
vt 3.0000 1.0000
vt 0.3333 1.0000
vt 0.3333 0.9833
vt 0.4000 0.9833
vt 0.4000 1.0000
vt 0.3333 1.0000
vt 0.6667 0.9833
vt 1.6667 0.9833
vt 1.6667 1.0000
vt 0.6667 1.0000
vt 0.3333 0.9833
vt 0.6667 0.9833
vt 0.6667 1.0000
vt 0.3333 1.0000
vt 4.3333 0.9833
vt 4.3333 1.0000
vt 0.3333 0.9833
vt 0.6667 0.9833
vt 0.6667 1.0000
vt 0.3333 1.0000
vt 0.3333 0.9833
vt 1.0000 0.9833
vt 1.0000 1.0000
vt 0.3333 1.0000
vt 0.3333 0.9833
vt 0.6667 0.9833
vt 0.6667 1.0000
vt 0.3333 1.0000
vt 0.3333 0.9833
vt 1.0000 0.9833
vt 1.0000 1.0000
vt 0.3333 1.0000
vt 0.3333 0.9833
vt 0.6667 0.9833
vt 0.6667 1.0000
vt 0.3333 1.0000
vt 0.6667 0.6667
vt 4.6667 0.6667
vt 4.6667 1.0000
vt 0.6667 1.0000
vt 0.3333 0.6667
vt 5.6667 0.6667
vt 5.6667 1.0000
vt 0.3333 1.0000
vt 0.3333 0.6667
vt 4.3333 0.6667
vt 4.3333 1.0000
vt 0.3333 1.0000
vt 0.6667 0.6667
vt 6.0000 0.6667
vt 6.0000 1.0000
vt 0.6667 1.0000
vt 0.3333 -0.3333
vt 4.3333 -0.3333
vt 4.3333 1.0000
vt 0.3333 1.0000
vt 0.6667 -0.3333
vt 2.6667 -0.3333
vt 2.6667 1.0000
vt 0.6667 1.0000
vt -0.0000 -0.3333
vt 4.0000 -0.3333
vt 4.0000 1.0000
vt -0.0000 1.0000
vt 0.3333 -0.3333
vt 2.3333 -0.3333
vt 2.3333 1.0000
vt 0.3333 1.0000
vt 0.3333 0.9833
vt 3.6667 0.9833
vt 3.6667 1.0000
vt 0.3333 1.0000
vt 0.3333 0.9833
vt 1.6667 0.9833
vt 1.6667 1.0000
vt 0.3333 1.0000
vt -0.0000 0.9833
vt 3.3333 0.9833
vt 3.3333 1.0000
vt -0.0000 1.0000
vt 0.3333 0.9833
vt 1.6667 0.9833
vt 1.6667 1.0000
vt 0.3333 1.0000
vt 0.6667 0.9833
vt 1.3333 0.9833
vt 1.3333 1.0000
vt 0.6667 1.0000
vt -0.0000 0.9833
vt 0.6667 0.9833
vt 0.6667 1.0000
vt -0.0000 1.0000
vt -0.0000 0.9833
vt 0.6667 0.9833
vt 0.6667 1.0000
vt -0.0000 1.0000
vt 0.3333 0.9833
vt 1.0000 0.9833
vt 1.0000 1.0000
vt 0.3333 1.0000
vt 0.6667 0.6667
vt 6.0000 0.6667
vt 6.0000 1.0000
vt 0.6667 1.0000
vt 0.6667 0.6667
vt 4.0000 0.6667
vt 4.0000 1.0000
vt 0.6667 1.0000
vt 0.6667 0.6667
vt 6.0000 0.6667
vt 6.0000 1.0000
vt 0.6667 1.0000
vt 0.3333 0.6667
vt 4.0000 0.6667
vt 4.0000 1.0000
vt 0.3333 1.0000
vt 0.6667 0.0000
vt 5.0000 0.0000
vt 5.0000 1.0000
vt 0.6667 1.0000
vt 0.6667 0.0000
vt 4.0000 -0.0000
vt 4.0000 1.0000
vt 0.6667 1.0000
vt 0.3333 0.0000
vt 4.6667 0.0000
vt 4.6667 1.0000
vt 0.3333 1.0000
vt 0.3333 0.0000
vt 4.0000 -0.0000
vt 4.0000 1.0000
vt 0.3333 1.0000
vt 0.3333 0.9833
vt 1.3333 0.9833
vt 1.3333 1.0000
vt 0.3333 1.0000
vt 0.6667 0.9833
vt 1.0000 0.9833
vt 1.0000 1.0000
vt 0.6667 1.0000
vt -0.0000 0.9833
vt 1.0000 0.9833
vt 1.0000 1.0000
vt -0.0000 1.0000
vt 0.3333 0.9833
vt 1.6667 0.9833
vt 1.6667 1.0000
vt 0.3333 1.0000
vt 0.3333 0.9833
vt 2.3333 0.9833
vt 2.3333 1.0000
vt 0.3333 1.0000
vt 0.3333 0.9833
vt 1.3333 0.9833
vt 1.3333 1.0000
vt 0.3333 1.0000
vn 0.9937 0.0000 0.1123
vn -0.0106 0.0000 -0.9999
vn -0.9937 0.0000 -0.1123
vn 0.0098 0.0000 1.0000
vn -0.0098 0.0000 -1.0000
vn 0.0106 0.0000 0.9999
vn -0.1123 0.0000 0.9937
vn 0.1123 0.0000 -0.9937
vn -0.1769 0.0000 -0.9842
vn -0.5260 0.0000 -0.8505
vn -0.5309 0.0000 -0.8475
vn -0.5357 0.0000 -0.8444
vn -0.5611 0.0000 -0.8278
vn 0.1427 0.0000 0.9898
vn 0.1723 0.0000 0.9850
vn 0.1775 0.0000 0.9841
vn 0.1826 0.0000 0.9832
vn 0.9842 0.0000 -0.1770
vn -0.1826 0.0000 -0.9832
vn -0.1775 0.0000 -0.9841
vn -0.1723 0.0000 -0.9850
vn -0.5610 0.0000 -0.8278
vn 0.2583 0.0000 0.9661
vn 0.9270 0.0000 0.3752
vn 0.9270 -0.0000 0.3750
vn 0.9984 0.0000 -0.0567
vn -0.1500 0.0000 -0.9887
vn -0.9886 0.0000 0.1508
vn -0.2583 0.0000 -0.9661
vn 0.9661 0.0000 -0.2583
vn -0.9661 0.0000 0.2583
vn 0.9886 0.0000 -0.1509
vn 0.1500 0.0000 0.9887
vn -0.1499 0.0000 -0.9887
vn 0.1501 0.0000 0.9887
vn -0.9984 0.0000 0.0568
vn -0.2634 0.0000 -0.9647
vn -0.9747 0.0000 0.2234
vn -0.2617 0.0000 -0.9652
vn -0.9743 0.0000 0.2254
vn 0.2617 0.0000 0.9652
vn 0.9747 0.0000 -0.2234
vn 0.9652 0.0000 -0.2617
vn -0.9652 0.0000 0.2617
vn -0.2616 0.0000 -0.9652
vn -0.9652 0.0000 0.2616
vn 0.0967 0.0000 0.9953
vn 0.9957 0.0000 -0.0928
vn -0.0971 0.0000 -0.9953
vn -0.9957 0.0000 0.0928
vn -0.0967 0.0000 -0.9953
vn 0.9965 0.0000 -0.0831
vn -0.9965 0.0000 0.0830
vn -0.9965 0.0000 0.0831
vn 0.9957 0.0000 -0.0929
vn 0.0968 0.0000 0.9953
vn 0.9957 0.0000 -0.0927
vn -0.9957 0.0000 0.0926
vn 0.1726 0.0000 0.9850
vn 0.9860 0.0000 -0.1667
vn -0.1726 0.0000 -0.9850
vn -0.9874 0.0000 0.1579
vn 0.9850 0.0000 -0.1726
vn -0.9850 0.0000 0.1726
vn 0.9997 0.0000 0.0232
vn 0.0220 0.0000 -0.9998
vn -0.9976 0.0000 -0.0692
vn -0.0695 0.0000 0.9976
vn -0.9997 0.0000 -0.0232
vn 0.0695 0.0000 -0.9976
vn -0.9976 0.0000 -0.0693
g CityEngineMaterial_699_CityEngineMaterial_699_CityEngineMaterial_699_mat
usemtl CityEngineMaterial_699_mat
s 1
f 1/1/1 2/2/1 3/3/1 4/4/1
f 2/5/2 5/6/2 6/7/2 3/8/2
f 5/9/3 7/10/3 8/11/3 6/12/3
f 7/13/4 9/14/4 10/15/4 8/16/4
f 9/17/1 11/18/1 12/19/1 10/20/1
f 11/21/5 13/22/5 14/23/5 12/24/5
f 13/25/1 15/26/1 16/27/1 14/28/1
f 15/29/6 1/30/6 4/31/6 16/32/6
f 17/33/3 18/34/3 19/35/3 20/36/3
f 18/37/7 21/38/7 22/39/7 19/40/7
f 21/41/1 23/42/1 24/43/1 22/44/1
f 23/45/8 17/46/8 20/47/8 24/48/8
f 25/49/3 21/50/3 22/51/3 26/52/3
f 21/41/7 27/53/7 28/54/7 22/44/7
f 27/55/1 29/56/1 30/57/1 28/58/1
f 29/59/8 25/60/8 26/61/8 30/62/8
f 31/63/9 32/64/9 33/65/9 34/66/9
f 32/67/10 35/68/11 36/69/11 33/70/10
f 35/71/11 37/72/12 38/73/12 36/74/11
f 37/75/13 39/76/13 40/77/13 38/78/13
f 39/79/14 41/80/14 42/81/14 40/82/14
f 41/83/15 43/84/16 44/85/16 42/86/15
f 43/87/16 45/88/17 46/89/17 44/90/16
f 45/91/18 31/92/18 34/93/18 46/94/18
f 47/95/14 48/96/14 49/97/14 50/98/14
f 48/96/15 51/99/16 52/100/16 49/97/15
f 51/101/16 53/102/17 54/103/17 52/104/16
f 53/105/18 55/106/18 56/107/18 54/108/18
f 55/109/19 57/110/20 58/111/20 56/112/19
f 57/113/20 59/114/21 60/115/21 58/116/20
f 59/117/12 61/118/12 62/119/12 60/120/12
f 61/121/22 47/122/22 50/123/22 62/124/22
f 63/125/23 64/126/23 65/127/23 66/128/23
f 64/129/24 67/130/24 68/131/25 65/132/25
f 67/133/26 69/134/26 70/135/26 68/136/26
f 69/137/27 71/138/27 72/139/27 70/140/27
f 71/141/28 63/142/28 66/143/28 72/144/28
f 66/145/23 65/146/23 73/147/23 74/148/23
f 65/149/25 68/150/25 75/151/25 73/152/25
f 68/153/26 76/154/26 77/155/26 75/156/26
f 76/157/29 78/158/29 79/159/29 77/160/29
f 78/161/28 66/162/28 74/163/28 79/164/28
f 78/165/23 80/166/23 81/167/23 82/168/23
f 80/169/30 83/170/30 84/171/30 81/172/30
f 83/173/27 72/174/27 85/175/27 84/176/27
f 72/177/28 78/178/28 82/179/28 85/180/28
f 86/181/23 76/182/23 77/183/23 87/184/23
f 76/157/26 70/185/26 88/186/26 77/160/26
f 70/187/27 89/188/27 90/189/27 88/190/27
f 89/191/31 86/192/31 87/193/31 90/194/31
f 91/195/29 92/196/29 93/197/29 94/198/29
f 92/199/31 95/200/31 96/201/31 93/202/31
f 95/203/23 97/204/23 98/205/23 96/206/23
f 97/207/30 91/208/30 94/209/30 98/210/30
f 99/211/27 100/212/27 101/213/27 102/214/27
f 100/215/28 103/216/28 104/217/28 101/218/28
f 103/219/23 105/220/23 106/221/23 104/222/23
f 105/223/32 107/224/32 108/225/32 106/226/32
f 107/227/33 109/228/33 110/229/33 108/230/33
f 109/231/30 99/232/30 102/233/30 110/234/30
f 111/235/34 112/236/34 113/237/34 114/238/34
f 112/239/31 115/240/31 116/241/31 113/242/31
f 115/243/35 117/244/35 118/245/35 116/246/35
f 117/247/36 119/248/36 120/249/36 118/250/36
f 119/251/23 121/252/23 122/253/23 120/254/23
f 121/252/26 111/255/26 114/256/26 122/253/26
f 123/257/37 124/258/37 125/259/37 126/260/37
f 124/261/38 127/262/38 128/263/38 125/264/38
f 127/265/39 129/266/39 130/267/39 128/268/39
f 129/269/40 131/270/40 132/271/40 130/272/40
f 131/273/41 133/274/41 134/275/41 132/276/41
f 133/277/42 123/278/42 126/279/42 134/280/42
f 135/281/41 136/282/41 137/283/41 138/284/41
f 136/285/43 139/286/43 140/287/43 137/288/43
f 139/289/39 141/290/39 142/291/39 140/292/39
f 141/293/44 135/294/44 138/295/44 142/296/44
f 143/297/41 144/298/41 145/299/41 146/300/41
f 144/301/43 147/302/43 148/303/43 145/304/43
f 147/305/45 149/306/45 150/307/45 148/308/45
f 149/309/46 143/310/46 146/311/46 150/312/46
f 151/313/47 152/314/47 153/315/47 154/316/47
f 152/317/48 155/318/48 156/319/48 153/320/48
f 155/321/49 157/322/49 158/323/49 156/324/49
f 157/325/50 159/326/50 160/327/50 158/328/50
f 159/329/51 161/330/51 162/331/51 160/332/51
f 161/333/52 163/334/52 164/335/52 162/336/52
f 163/334/49 165/337/49 166/338/49 164/335/49
f 165/339/53 151/340/53 154/341/53 166/342/53
f 167/343/51 168/344/51 169/345/51 170/346/51
f 168/347/52 171/348/52 172/349/52 169/350/52
f 171/351/51 173/352/51 174/353/51 172/354/51
f 173/355/54 175/356/54 176/357/54 174/358/54
f 175/356/47 177/359/47 178/360/47 176/357/47
f 177/361/55 167/362/55 170/363/55 178/364/55
f 179/365/56 180/366/56 181/367/56 182/368/56
f 180/369/57 183/370/57 184/371/57 181/372/57
f 183/373/49 185/374/49 186/375/49 184/376/49
f 185/377/58 179/378/58 182/379/58 186/380/58
f 187/381/59 188/382/59 189/383/59 190/384/59
f 188/385/60 191/386/60 192/387/60 189/388/60
f 191/389/61 193/390/61 194/391/61 192/392/61
f 193/393/62 187/394/62 190/395/62 194/396/62
f 195/397/59 196/398/59 197/399/59 198/400/59
f 196/401/60 192/402/60 199/403/60 197/404/60
f 192/405/61 194/406/61 200/407/61 199/408/61
f 194/409/62 195/410/62 198/411/62 200/412/62
f 201/413/59 202/414/59 203/415/59 204/416/59
f 202/417/63 205/418/63 206/419/63 203/420/63
f 205/421/61 207/422/61 208/423/61 206/424/61
f 207/425/64 201/426/64 204/427/64 208/428/64
f 209/429/59 210/430/59 211/431/59 212/432/59
f 210/433/63 213/434/63 214/435/63 211/436/63
f 213/437/61 215/438/61 216/439/61 214/440/61
f 215/441/64 209/442/64 212/443/64 216/444/64
f 217/445/65 218/446/65 219/447/65 220/448/65
f 218/449/66 221/450/66 222/451/66 219/452/66
f 221/453/67 223/454/67 224/455/67 222/456/67
f 223/457/68 217/458/68 220/459/68 224/460/68
f 220/461/65 225/462/65 226/463/65 227/464/65
f 225/465/66 228/466/66 229/467/66 226/468/66
f 228/469/67 224/470/67 230/471/67 229/472/67
f 224/473/68 220/474/68 227/475/68 230/476/68
f 231/477/69 232/478/69 233/479/69 234/480/69
f 232/481/70 235/482/70 236/483/70 233/484/70
f 235/485/71 237/486/71 238/487/71 236/488/71
f 237/489/68 239/490/68 240/491/68 238/492/68
f 239/493/65 241/494/65 242/495/65 240/496/65
f 241/497/66 231/498/66 234/499/66 242/500/66
