# Blender v2.78 (sub 0) OBJ File: ''
# www.blender.org
mtllib CityEngineMaterial_379.mtl
o CityEngineMaterial_379
v 116.367699 40.173054 -944.154175
v 112.959801 40.173054 -943.789429
v 112.959801 41.546551 -943.789429
v 116.367699 41.546551 -944.154175
v 113.077400 40.173054 -941.819519
v 113.077400 41.546551 -941.819519
v 105.902901 40.173054 -941.052124
v 105.902901 41.546551 -941.052124
v 106.294098 40.173054 -934.448608
v 106.294098 41.546551 -934.448608
v 116.879700 40.173054 -935.580994
v 116.879700 41.546551 -935.580994
v 779.143921 81.327522 -137.201981
v 782.897217 81.327522 -139.063492
v 782.897217 83.469521 -139.063492
v 779.143921 83.469521 -137.201981
v 781.666809 81.327522 -141.555481
v 781.666809 83.469521 -141.555481
v 785.812622 81.327522 -143.609787
v 785.812622 83.469521 -143.609787
v 782.735779 81.327522 -149.804581
v 782.735779 83.469521 -149.804581
v 774.850830 81.327522 -145.897385
v 774.850830 83.469521 -145.897385
v -1398.077148 12.517745 340.789215
v -1396.045044 12.517745 340.769012
v -1396.045044 14.155845 340.769012
v -1398.077148 14.155845 340.789215
v -1394.150635 12.517746 334.330200
v -1394.150635 14.155846 334.330200
v -1406.280762 12.517746 334.450897
v -1406.280762 14.155846 334.450897
v -1408.140869 12.517745 340.773285
v -1408.140869 14.155845 340.773285
v -1398.874756 12.517744 343.500488
v -1398.874756 14.155844 343.500488
v -310.280212 3.819173 781.867615
v -312.533203 3.819172 784.307007
v -312.533203 5.657672 784.307007
v -310.280212 5.657673 781.867615
v -310.514587 3.819172 786.171509
v -310.514587 5.657672 786.171509
v -300.808289 3.819174 775.662415
v -300.808289 5.657674 775.662415
v -306.124298 3.819174 770.752075
v -306.124298 5.657675 770.752075
v -313.577515 3.819173 778.821777
v -313.577606 5.657673 778.821777
v -653.545471 6.548522 477.360901
v -633.483826 6.548522 476.726288
v -633.483826 8.882723 476.726288
v -653.545471 8.882722 477.360901
v -633.990479 6.548525 460.241089
v -633.990479 8.882725 460.241089
v -653.715027 6.548525 460.444885
v -653.715027 8.882725 460.444885
v -530.831726 8.400493 -567.364624
v -532.588501 8.400493 -566.828613
v -532.588501 10.472392 -566.828613
v -530.831726 10.472392 -567.364624
v -535.034180 8.400494 -574.885681
v -535.034180 10.472393 -574.885681
v -543.386292 8.400494 -572.343201
v -543.386292 10.472393 -572.343201
v -538.713318 8.400491 -556.948181
v -538.713318 10.472390 -556.948181
v -528.606018 8.400492 -560.031372
v -528.606018 10.472391 -560.031372
v 185.289902 32.144028 -154.731903
v 183.258896 32.144028 -166.126694
v 183.258896 34.298225 -166.126694
v 185.289902 34.298225 -154.731903
v 174.075394 32.144028 -164.584000
v 174.075394 34.298225 -164.584000
v 176.005493 32.144028 -153.162506
v 176.005493 34.298225 -153.162506
v 178.416504 32.144028 -153.570099
v 178.416504 34.298225 -153.570099
v 178.204407 32.144028 -154.825394
v 178.204407 34.298225 -154.825394
v 180.989899 32.144028 -155.293304
v 180.989899 34.298225 -155.293304
v 181.212906 32.144028 -154.042801
v 181.212906 34.298225 -154.042801
v -326.582306 2.951435 -211.530594
v -312.756989 2.951435 -216.128204
v -312.756989 5.084835 -216.128204
v -326.582306 5.084834 -211.530594
v -320.349792 2.951438 -234.876297
v -320.349792 5.084838 -234.876297
v -334.242401 2.951437 -230.309296
v -334.242401 5.084837 -230.309296
v -28.747299 21.591858 -352.842590
v -11.899700 21.591858 -355.480896
v -11.899700 23.521856 -355.480896
v -28.747299 23.521856 -352.842590
v -14.646100 21.591961 -372.942902
v -14.646100 23.521860 -372.942902
v -31.523701 21.591961 -370.266510
v -31.523701 23.521860 -370.266510
v 446.030212 54.120029 -183.780487
v 443.752289 54.120029 -198.629684
v 443.752289 56.376030 -198.629684
v 446.030212 56.376030 -183.780487
v 428.370697 54.120029 -196.257385
v 428.370697 56.376030 -196.257385
v 430.925690 54.120029 -180.006683
v 430.925690 56.376030 -180.006683
v -970.125183 11.369313 534.015991
v -967.109375 11.369313 533.256470
v -967.109375 12.591413 533.256470
v -970.125183 12.591413 534.015991
v -967.288879 11.369312 537.426208
v -967.288879 12.591413 537.426208
v -963.499817 11.369312 536.472412
v -963.499817 12.591413 536.472412
v -963.112488 11.369314 527.477417
v -963.112488 12.591414 527.477417
v -974.690002 11.369313 530.392822
v -974.690002 12.591413 530.392822
v -972.588013 11.369312 538.760193
v -972.588013 12.591413 538.760193
v -969.150879 11.369312 537.894897
v -969.150879 12.591413 537.894897
v 559.627075 22.400425 454.887787
v 558.655090 22.400425 450.901489
v 558.655090 24.559526 450.901489
v 559.627075 24.559526 454.887787
v 558.497986 22.400425 450.934387
v 558.497986 24.559526 450.934387
v 557.517029 22.400427 446.254486
v 557.517029 24.559528 446.254486
v 552.522888 22.400427 447.301208
v 552.522888 24.559528 447.301208
v 554.345215 22.400425 455.994812
v 554.345215 24.559526 455.994812
v 248.059097 24.216284 96.973305
v 249.057098 24.216280 114.487610
v 249.057098 26.415180 114.487610
v 248.059097 26.415184 96.973305
v 259.495605 24.216280 113.884010
v 259.495605 26.415180 113.884010
v 258.499390 24.216284 96.380508
v 258.499390 26.415184 96.380508
v -845.531372 13.936356 882.349976
v -845.505798 13.936357 880.717285
v -845.505798 15.782957 880.717285
v -845.531372 15.782956 882.349976
v -847.224976 13.936357 880.687622
v -847.224976 15.782957 880.687622
v -847.165527 13.936357 876.979919
v -847.165527 15.782957 876.979919
v -852.545715 13.936357 875.552673
v -852.545715 15.782957 875.552673
v -852.653015 13.936356 882.226685
v -852.653015 15.782956 882.226685
v -101.002998 38.906956 -968.892212
v -103.758698 38.906956 -968.458130
v -103.758698 40.185757 -968.458130
v -101.002998 40.185757 -968.892212
v -103.357697 38.906956 -965.896729
v -103.357697 40.185757 -965.896729
v -95.178902 38.906956 -967.184875
v -95.178902 40.185757 -967.184875
v -96.746597 38.906960 -977.196594
v -96.746597 40.185760 -977.196594
v -104.925400 38.906960 -975.909180
v -104.925400 40.185760 -975.909180
v -104.333199 38.906960 -972.127075
v -104.333199 40.185760 -972.127075
v -101.577599 38.906960 -972.560913
v -101.577599 40.185760 -972.560913
v 32.032799 4.272479 132.815796
v 28.386700 4.272480 118.791496
v 28.386700 6.165380 118.791496
v 32.032799 6.165379 132.815796
v 10.844900 4.272480 120.533897
v 10.844900 6.165380 120.533897
v 13.154300 4.272478 137.423492
v 13.154300 6.165378 137.423492
v -538.079712 6.003908 567.142578
v -538.040283 6.003908 563.791992
v -538.040283 8.145808 563.791992
v -538.079712 8.145807 567.142578
v -533.307190 6.003908 563.848328
v -533.307190 8.145808 563.848328
v -533.208374 6.003910 555.513428
v -533.208374 8.145809 555.513428
v -542.222778 6.003910 555.406311
v -542.222778 8.145809 555.406311
v -542.360413 6.003908 567.091675
v -542.360413 8.145807 567.091675
vt 0.9091 0.0000
vt 1.0455 -0.0000
vt 1.0455 1.0000
vt 0.9091 1.0000
vt 0.8636 0.0000
vt 0.9545 0.0000
vt 0.9545 1.0000
vt 0.8636 1.0000
vt 0.1818 0.0000
vt 0.4545 0.0000
vt 0.4545 1.0000
vt 0.1818 1.0000
vt 0.9545 0.0000
vt 1.1818 -0.0000
vt 1.1818 1.0000
vt 0.9545 1.0000
vt 0.6818 0.0000
vt 1.0455 -0.0000
vt 1.0455 1.0000
vt 0.6818 1.0000
vt 0.7273 0.0000
vt 1.0455 -0.0000
vt 1.0455 1.0000
vt 0.7273 1.0000
vt 0.5909 0.0000
vt 0.7727 0.0000
vt 0.7727 1.0000
vt 0.5909 1.0000
vt 0.7273 0.0000
vt 0.8636 0.0000
vt 0.8636 1.0000
vt 0.7273 1.0000
vt 0.4091 0.0000
vt 0.6364 0.0000
vt 0.6364 1.0000
vt 0.4091 1.0000
vt 0.1818 0.0000
vt 0.5000 0.0000
vt 0.5000 1.0000
vt 0.1818 1.0000
vt 0.6364 0.0000
vt 1.0455 -0.0000
vt 1.0455 1.0000
vt 0.6364 1.0000
vt 0.5909 0.0000
vt 1.0455 -0.0000
vt 1.0455 1.0000
vt 0.5909 1.0000
vt 0.2273 0.0000
vt 0.3182 0.0000
vt 0.3182 1.0000
vt 0.2273 1.0000
vt 0.4091 0.0000
vt 0.7273 0.0000
vt 0.7273 1.0000
vt 0.4091 1.0000
vt 0.7727 0.0000
vt 1.3636 0.0000
vt 1.3636 1.0000
vt 0.7727 1.0000
vt 0.6364 0.0000
vt 0.9545 0.0000
vt 0.9545 1.0000
vt 0.6364 1.0000
vt 0.5000 0.0000
vt 1.0000 0.0000
vt 1.0000 1.0000
vt 0.5000 1.0000
vt 0.9545 0.0000
vt 1.0909 0.0000
vt 1.0909 1.0000
vt 0.9545 1.0000
vt 0.3636 0.0000
vt 0.4545 0.0000
vt 0.4545 1.0000
vt 0.3636 1.0000
vt 0.2727 0.0000
vt 0.3636 0.0000
vt 0.3636 1.0000
vt 0.2727 1.0000
vt 0.7273 0.0000
vt 1.1818 -0.0000
vt 1.1818 1.0000
vt 0.7273 1.0000
vt 0.9545 0.0000
vt 1.1818 -0.0000
vt 1.1818 1.0000
vt 0.9545 1.0000
vt 0.3182 0.0000
vt 0.6818 0.0000
vt 0.6818 1.0000
vt 0.3182 1.0000
vt 0.2727 0.0000
vt 0.4091 0.0000
vt 0.4091 1.0000
vt 0.2727 1.0000
vt 0.6364 0.0000
vt 1.3182 -0.0000
vt 1.3182 1.0000
vt 0.6364 1.0000
vt 0.7273 0.0000
vt 1.2727 -0.0000
vt 1.2727 1.0000
vt 0.7273 1.0000
vt 0.9091 0.0000
vt 1.5455 0.0000
vt 1.5455 1.0000
vt 0.9091 1.0000
vt 0.7727 0.0000
vt 1.3182 -0.0000
vt 1.3182 1.0000
vt 0.7727 1.0000
vt 0.5000 0.0000
vt 0.5909 0.0000
vt 0.5909 1.0000
vt 0.5000 1.0000
vt 0.1818 0.0000
vt 0.5909 0.0000
vt 0.5909 1.0000
vt 0.1818 1.0000
vt 0.8182 0.0000
vt 1.2273 0.0000
vt 1.2273 1.0000
vt 0.8182 1.0000
vt 0.5455 0.0000
vt 1.3182 -0.0000
vt 1.3182 1.0000
vt 0.5455 1.0000
vt 0.4545 0.0000
vt 0.9545 0.0000
vt 0.9545 1.0000
vt 0.4545 1.0000
vt 0.0000 0.0000
vt 0.3636 0.0000
vt 0.3636 1.0000
vt 0.0000 1.0000
vt 0.0455 0.0000
vt 0.4091 0.0000
vt 0.4091 1.0000
vt 0.0455 1.0000
vt 0.5455 0.0000
vt 0.8636 0.0000
vt 0.8636 1.0000
vt 0.5455 1.0000
vt 0.1364 0.0000
vt 0.5000 0.0000
vt 0.5000 1.0000
vt 0.1364 1.0000
vt 0.4545 0.0000
vt 0.5455 0.0000
vt 0.5455 1.0000
vt 0.4545 1.0000
vt 0.4091 0.0000
vt 0.4545 0.0000
vt 0.4545 1.0000
vt 0.4091 1.0000
vt 0.0909 0.0000
vt 0.1818 0.0000
vt 0.1818 1.0000
vt 0.0909 1.0000
vt 0.5455 0.0000
vt 0.5909 0.0000
vt 0.5909 1.0000
vt 0.5455 1.0000
vt 0.2273 0.0000
vt 0.3636 0.0000
vt 0.3636 1.0000
vt 0.2273 1.0000
vt 0.0000 0.0000
vt 0.4545 0.0000
vt 0.4545 1.0000
vt 0.0000 1.0000
vt 0.5909 0.0000
vt 1.2273 0.0000
vt 1.2273 1.0000
vt 0.5909 1.0000
vt 0.0909 0.0000
vt 0.5455 0.0000
vt 0.5455 1.0000
vt 0.0909 1.0000
vt 0.2273 0.0000
vt 0.8636 0.0000
vt 0.8636 1.0000
vt 0.2273 1.0000
vt 0.8636 0.0000
vt 1.4091 0.0000
vt 1.4091 1.0000
vt 0.8636 1.0000
vt 0.1818 0.0000
vt 0.7273 0.0000
vt 0.7273 1.0000
vt 0.1818 1.0000
vt 0.9091 0.0000
vt 1.4545 0.0000
vt 1.4545 1.0000
vt 0.9091 1.0000
vt 0.4545 0.0000
vt 1.0000 0.0000
vt 1.0000 1.0000
vt 0.4545 1.0000
vt 0.6364 0.0000
vt 1.3636 0.0000
vt 1.3636 1.0000
vt 0.6364 1.0000
vt 0.0000 0.0000
vt 0.7727 0.0000
vt 0.7727 1.0000
vt 0.0000 1.0000
vt 0.5455 0.0000
vt 1.3636 0.0000
vt 1.3636 1.0000
vt 0.5455 1.0000
vt 0.0455 0.0000
vt 0.8182 0.0000
vt 0.8182 1.0000
vt 0.0455 1.0000
vt 0.1364 0.0000
vt 0.2273 0.0000
vt 0.2273 1.0000
vt 0.1364 1.0000
vt 0.6818 0.0000
vt 0.8182 0.0000
vt 0.8182 1.0000
vt 0.6818 1.0000
vt 0.0455 0.0000
vt 0.1818 0.0000
vt 0.1818 1.0000
vt 0.0455 1.0000
vt 0.0455 0.0000
vt 0.3636 0.0000
vt 0.3636 1.0000
vt 0.0455 1.0000
vt 0.7727 0.0000
vt 1.1818 -0.0000
vt 1.1818 1.0000
vt 0.7727 1.0000
vt 0.6364 0.0000
vt 0.9091 0.0000
vt 0.9091 1.0000
vt 0.6364 1.0000
vt 0.0000 0.0000
vt 0.1364 0.0000
vt 0.1364 1.0000
vt 0.0000 1.0000
vt 0.3636 0.0000
vt 0.5000 0.0000
vt 0.5000 1.0000
vt 0.3636 1.0000
vt 0.8182 0.0000
vt 1.0455 -0.0000
vt 1.0455 1.0000
vt 0.8182 1.0000
vt 0.3182 0.0000
vt 0.3273 0.0000
vt 0.3273 1.0000
vt 0.3182 1.0000
vt 0.9091 0.0000
vt 1.1364 0.0000
vt 1.1364 1.0000
vt 0.9091 1.0000
vt 0.0909 0.0000
vt 0.3636 0.0000
vt 0.3636 1.0000
vt 0.0909 1.0000
vt 0.1818 0.0000
vt 0.6364 0.0000
vt 0.6364 1.0000
vt 0.1818 1.0000
vt 0.9091 0.0000
vt 1.1818 -0.0000
vt 1.1818 1.0000
vt 0.9091 1.0000
vt 0.7273 0.0000
vt 1.4091 0.0000
vt 1.4091 1.0000
vt 0.7273 1.0000
vt 0.2727 0.0000
vt 0.6818 0.0000
vt 0.6818 1.0000
vt 0.2727 1.0000
vt 0.0455 0.0000
vt 0.7273 0.0000
vt 0.7273 1.0000
vt 0.0455 1.0000
vt 0.1364 0.0000
vt 0.5455 0.0000
vt 0.5455 1.0000
vt 0.1364 1.0000
vt 0.2727 0.0000
vt 0.3182 0.0000
vt 0.3182 1.0000
vt 0.2727 1.0000
vt 0.5000 0.0000
vt 0.5455 0.0000
vt 0.5455 1.0000
vt 0.5000 1.0000
vt 0.7273 0.0000
vt 0.8636 0.0000
vt 0.8636 1.0000
vt 0.7273 1.0000
vt 0.3182 0.0000
vt 0.5000 0.0000
vt 0.5000 1.0000
vt 0.3182 1.0000
vt 0.5455 0.0000
vt 0.7727 0.0000
vt 0.7727 1.0000
vt 0.5455 1.0000
vt 0.0909 0.0000
vt 0.3182 0.0000
vt 0.3182 1.0000
vt 0.0909 1.0000
vt 0.9091 0.0000
vt 1.0000 0.0000
vt 1.0000 1.0000
vt 0.9091 1.0000
vt 0.2727 0.0000
vt 0.3636 0.0000
vt 0.3636 1.0000
vt 0.2727 1.0000
vt 0.1364 0.0000
vt 0.4545 0.0000
vt 0.4545 1.0000
vt 0.1364 1.0000
vt 0.1818 0.0000
vt 0.5455 0.0000
vt 0.5455 1.0000
vt 0.1818 1.0000
vt 0.1818 0.0000
vt 0.5000 0.0000
vt 0.5000 1.0000
vt 0.1818 1.0000
vt 0.0909 0.0000
vt 0.2273 0.0000
vt 0.2273 1.0000
vt 0.0909 1.0000
vt 0.0455 0.0000
vt 0.1364 0.0000
vt 0.1364 1.0000
vt 0.0455 1.0000
vt 0.2273 0.0000
vt 0.3636 0.0000
vt 0.3636 1.0000
vt 0.2273 1.0000
vt 0.2273 0.0000
vt 0.9091 0.0000
vt 0.9091 1.0000
vt 0.2273 1.0000
vt 0.2273 0.0000
vt 1.0909 0.0000
vt 1.0909 1.0000
vt 0.2273 1.0000
vt 0.5000 0.0000
vt 1.3182 -0.0000
vt 1.3182 1.0000
vt 0.5000 1.0000
vt 0.1818 0.0000
vt 1.1364 0.0000
vt 1.1364 1.0000
vt 0.1818 1.0000
vt 0.5909 0.0000
vt 0.7273 0.0000
vt 0.7273 1.0000
vt 0.5909 1.0000
vt 0.9545 0.0000
vt 0.9545 1.0000
vt 0.4091 0.0000
vt 0.7727 0.0000
vt 0.7727 1.0000
vt 0.4091 1.0000
vt 0.1818 0.0000
vt 0.5909 0.0000
vt 0.5909 1.0000
vt 0.1818 1.0000
vt 0.6364 0.0000
vt 1.1818 -0.0000
vt 1.1818 1.0000
vt 0.6364 1.0000
vt 0.5909 0.0000
vt 0.7727 0.0000
vt 0.7727 1.0000
vt 0.5909 1.0000
vn -0.1064 0.0000 -0.9943
vn -0.9982 0.0000 0.0596
vn -0.9982 0.0000 0.0591
vn 0.1064 0.0000 0.9943
vn 0.9982 0.0000 -0.0596
vn 0.4443 0.0000 0.8959
vn 0.8967 0.0000 -0.4427
vn 0.4440 0.0000 0.8960
vn 0.8956 0.0000 -0.4448
vn -0.4440 0.0000 -0.8960
vn -0.8967 0.0000 0.4427
vn 0.0099 0.0000 1.0000
vn 0.9593 0.0000 0.2823
vn -0.0099 0.0000 -1.0000
vn -0.9593 0.0000 -0.2822
vn -0.2823 0.0000 0.9593
vn 0.9593 0.0000 0.2822
vn -0.7346 0.0000 -0.6785
vn -0.6785 0.0000 0.7346
vn 0.7346 0.0000 0.6785
vn 0.6785 0.0000 -0.7346
vn 0.0316 0.0000 0.9995
vn 0.9995 0.0000 -0.0307
vn -0.0103 0.0000 -0.9999
vn -0.9999 0.0000 0.0100
vn -0.2918 0.0000 -0.9565
vn 0.9569 0.0000 -0.2905
vn -0.2912 0.0000 -0.9567
vn -0.9569 0.0000 0.2905
vn 0.2918 0.0000 0.9565
vn 0.9569 0.0000 -0.2904
vn 0.9845 0.0000 -0.1755
vn -0.1657 0.0000 -0.9862
vn -0.9860 0.0000 0.1666
vn 0.1667 0.0000 0.9860
vn 0.9860 0.0000 -0.1666
vn 0.1657 0.0000 0.9862
vn -0.9845 0.0000 0.1756
vn 0.3156 0.0000 0.9489
vn 0.9269 0.0000 -0.3754
vn -0.3123 0.0000 -0.9500
vn -0.9259 0.0000 0.3777
vn 0.1547 0.0000 0.9880
vn 0.9879 0.0000 -0.1554
vn -0.1566 0.0000 -0.9877
vn -0.9875 0.0000 0.1574
vn 0.9884 0.0000 -0.1516
vn -0.1524 0.0000 -0.9883
vn -0.9879 0.0000 0.1553
vn 0.2424 0.0000 0.9702
vn 0.2442 0.0000 0.9697
vn -0.9991 0.0000 -0.0430
vn 0.2441 0.0000 0.9697
vn 0.9991 0.0000 0.0430
vn -0.2442 0.0000 -0.9697
vn -0.9699 0.0000 0.2436
vn 0.9699 0.0000 -0.2436
vn 0.9715 0.0000 -0.2369
vn -0.2050 0.0000 -0.9788
vn 0.9787 0.0000 -0.2052
vn -0.2051 0.0000 -0.9787
vn -0.9787 0.0000 0.2052
vn 0.2051 0.0000 0.9787
vn -0.9984 0.0000 0.0569
vn 0.0577 0.0000 0.9983
vn 0.9984 0.0000 -0.0568
vn -0.0567 0.0000 -0.9984
vn 0.9999 0.0000 0.0157
vn 0.0173 0.0000 -0.9999
vn 0.9999 0.0000 0.0160
vn 0.2564 0.0000 -0.9666
vn -0.9999 0.0000 -0.0161
vn -0.0173 0.0000 0.9999
vn -0.1556 0.0000 -0.9878
vn -0.9880 0.0000 0.1547
vn 0.1556 0.0000 0.9878
vn 0.9880 0.0000 -0.1547
vn -0.1555 0.0000 -0.9878
vn 0.1555 0.0000 0.9878
vn 0.9678 0.0000 -0.2516
vn -0.0988 0.0000 -0.9951
vn -0.9908 0.0000 0.1355
vn 0.2371 0.0000 0.9715
vn 0.9999 0.0000 0.0118
vn -0.0119 0.0000 0.9999
vn 0.9999 0.0000 0.0119
vn 0.0119 0.0000 -0.9999
vn -0.9999 0.0000 -0.0118
g CityEngineMaterial_379_CityEngineMaterial_379_CityEngineMaterial_379_mat
usemtl CityEngineMaterial_379_mat
s 1
f 1/1/1 2/2/1 3/3/1 4/4/1
f 2/5/2 5/6/2 6/7/2 3/8/2
f 5/9/1 7/10/1 8/11/1 6/12/1
f 7/13/3 9/14/3 10/15/3 8/16/3
f 9/17/4 11/18/4 12/19/4 10/20/4
f 11/21/5 1/22/5 4/23/5 12/24/5
f 13/25/6 14/26/6 15/27/6 16/28/6
f 14/29/7 17/30/7 18/31/7 15/32/7
f 17/33/8 19/34/8 20/35/8 18/36/8
f 19/37/9 21/38/9 22/39/9 20/40/9
f 21/41/10 23/42/10 24/43/10 22/44/10
f 23/45/11 13/46/11 16/47/11 24/48/11
f 25/49/12 26/50/12 27/51/12 28/52/12
f 26/53/13 29/54/13 30/55/13 27/56/13
f 29/57/14 31/58/14 32/59/14 30/60/14
f 31/61/15 33/62/15 34/63/15 32/64/15
f 33/65/16 35/66/16 36/67/16 34/68/16
f 35/69/17 25/70/17 28/71/17 36/72/17
f 37/73/18 38/74/18 39/75/18 40/76/18
f 38/77/19 41/78/19 42/79/19 39/80/19
f 41/81/20 43/82/20 44/83/20 42/84/20
f 43/85/21 45/86/21 46/87/21 44/88/21
f 45/89/18 47/90/18 48/91/18 46/92/18
f 47/93/19 37/94/19 40/95/19 48/96/19
f 49/97/22 50/98/22 51/99/22 52/100/22
f 50/101/23 53/102/23 54/103/23 51/104/23
f 53/105/24 55/106/24 56/107/24 54/108/24
f 55/109/25 49/110/25 52/111/25 56/112/25
f 57/113/26 58/114/26 59/115/26 60/116/26
f 58/117/27 61/118/27 62/119/27 59/120/27
f 61/121/28 63/122/28 64/123/28 62/124/28
f 63/125/29 65/126/29 66/127/29 64/128/29
f 65/129/30 67/130/30 68/131/30 66/132/30
f 67/133/31 57/134/31 60/135/31 68/136/31
f 69/137/32 70/138/32 71/139/32 72/140/32
f 70/141/33 73/142/33 74/143/33 71/144/33
f 73/145/34 75/146/34 76/147/34 74/148/34
f 75/149/35 77/150/35 78/151/35 76/152/35
f 77/153/36 79/154/36 80/155/36 78/156/36
f 79/157/37 81/158/37 82/159/37 80/160/37
f 81/161/38 83/162/38 84/163/38 82/164/38
f 83/165/35 69/166/35 72/167/35 84/168/35
f 85/169/39 86/170/39 87/171/39 88/172/39
f 86/173/40 89/174/40 90/175/40 87/176/40
f 89/177/41 91/178/41 92/179/41 90/180/41
f 91/181/42 85/182/42 88/183/42 92/184/42
f 93/185/43 94/186/43 95/187/43 96/188/43
f 94/189/44 97/190/44 98/191/44 95/192/44
f 97/193/45 99/194/45 100/195/45 98/196/45
f 99/197/46 93/198/46 96/199/46 100/200/46
f 101/201/47 102/202/47 103/203/47 104/204/47
f 102/205/48 105/206/48 106/207/48 103/208/48
f 105/209/49 107/210/49 108/211/49 106/212/49
f 107/213/50 101/214/50 104/215/50 108/216/50
f 109/217/51 110/218/51 111/219/51 112/220/51
f 110/221/52 113/222/52 114/223/52 111/224/52
f 113/225/53 115/226/53 116/227/53 114/228/53
f 115/229/54 117/230/54 118/231/54 116/232/54
f 117/233/55 119/234/55 120/235/55 118/236/55
f 119/237/56 121/238/56 122/239/56 120/240/56
f 121/241/53 123/242/53 124/243/53 122/244/53
f 123/245/57 109/246/57 112/247/57 124/248/57
f 125/249/58 126/250/58 127/251/58 128/252/58
f 126/253/59 129/254/59 130/255/59 127/256/59
f 129/257/60 131/258/60 132/259/60 130/260/60
f 131/261/61 133/262/61 134/263/61 132/264/61
f 133/265/62 135/266/62 136/267/62 134/268/62
f 135/269/63 125/270/63 128/271/63 136/272/63
f 137/273/64 138/274/64 139/275/64 140/276/64
f 138/277/65 141/278/65 142/279/65 139/280/65
f 141/281/66 143/282/66 144/283/66 142/284/66
f 143/285/67 137/286/67 140/287/67 144/288/67
f 145/289/68 146/290/68 147/291/68 148/292/68
f 146/293/69 149/294/69 150/295/69 147/296/69
f 149/297/70 151/298/70 152/299/70 150/300/70
f 151/301/71 153/302/71 154/303/71 152/304/71
f 153/305/72 155/306/72 156/307/72 154/308/72
f 155/309/73 145/310/73 148/311/73 156/312/73
f 157/313/74 158/314/74 159/315/74 160/316/74
f 158/317/75 161/318/75 162/319/75 159/320/75
f 161/321/76 163/322/76 164/323/76 162/324/76
f 163/325/77 165/326/77 166/327/77 164/328/77
f 165/329/78 167/330/78 168/331/78 166/332/78
f 167/333/75 169/334/75 170/335/75 168/336/75
f 169/337/79 171/338/79 172/339/79 170/340/79
f 171/341/75 157/342/75 160/343/75 172/344/75
f 173/345/80 174/346/80 175/347/80 176/348/80
f 174/349/81 177/350/81 178/351/81 175/352/81
f 177/353/82 179/354/82 180/355/82 178/356/82
f 179/357/83 173/358/83 176/359/83 180/360/83
f 181/361/84 182/362/84 183/363/84 184/364/84
f 182/362/85 185/365/85 186/366/85 183/363/85
f 185/367/86 187/368/86 188/369/86 186/370/86
f 187/371/87 189/372/87 190/373/87 188/374/87
f 189/375/88 191/376/88 192/377/88 190/378/88
f 191/379/85 181/380/85 184/381/85 192/382/85
