# Blender v2.78 (sub 0) OBJ File: ''
# www.blender.org
mtllib CityEngineMaterial_289.mtl
o CityEngineMaterial_289
v 418.577911 22.606653 295.178802
v 416.334595 22.606653 287.747589
v 416.334595 24.609953 287.747589
v 418.577911 24.609953 295.178802
v 418.402710 22.606653 287.329102
v 418.402710 24.609953 287.329102
v 416.911804 22.606655 282.383514
v 416.911804 24.609955 282.383514
v 409.940308 22.606655 283.794189
v 409.940308 24.609955 283.794189
v 413.715515 22.606653 296.300201
v 413.715515 24.609953 296.300201
v -273.872101 2.375211 546.772217
v -272.132996 2.375208 565.055908
v -272.132996 4.691408 565.055908
v -273.872101 4.691411 546.772217
v -258.960907 2.375208 564.276123
v -258.960907 4.691408 564.276123
v -260.056091 2.375211 545.917419
v -260.056091 4.691411 545.917419
v -273.540985 1.837518 -113.433502
v -272.623413 1.837518 -108.864799
v -272.623413 3.419818 -108.864799
v -273.540985 3.419819 -113.433502
v -268.534912 1.837518 -109.786797
v -268.534912 3.419818 -109.786797
v -271.888397 1.837521 -126.481300
v -271.888397 3.419821 -126.481300
v -275.976715 1.837520 -125.559502
v -275.976715 3.419821 -125.559502
v -274.863586 1.837520 -120.017700
v -274.863586 3.419820 -120.017700
v -274.181396 1.837520 -120.171600
v -274.181396 3.419820 -120.171600
v -272.858795 1.837518 -113.587402
v -272.858795 3.419819 -113.587402
v 275.517487 50.365322 -744.256226
v 272.323090 50.365322 -756.154419
v 272.323090 52.146423 -756.154419
v 275.517487 52.146423 -744.256226
v 267.435303 50.365322 -754.836792
v 267.435303 52.146423 -754.836792
v 270.660309 50.365322 -742.945679
v 270.660309 52.146423 -742.945679
v 272.687286 50.365322 -743.492615
v 272.687286 52.146423 -743.492615
v 272.121185 50.365322 -745.579712
v 272.121185 52.146423 -745.579712
v 273.697113 50.365322 -746.004517
v 273.697113 52.146423 -746.004517
v 274.257812 50.365322 -743.916382
v 274.257812 52.146423 -743.916382
v -433.713287 1.313932 -193.792999
v -455.898193 1.313931 -187.059006
v -455.898193 3.522031 -187.059006
v -433.713287 3.522032 -193.792999
v -451.601990 1.313928 -173.316406
v -451.601990 3.522028 -173.316406
v -429.368988 1.313929 -180.290695
v -429.368988 3.522029 -180.290695
v -595.673218 5.839818 502.381287
v -596.162720 5.839820 487.369598
v -596.162720 7.757320 487.369598
v -595.673218 7.757318 502.381287
v -610.529114 5.839820 487.845398
v -610.529114 7.757320 487.845398
v -610.052490 5.839818 502.819489
v -610.052490 7.757318 502.819489
v 116.967598 21.937220 -115.743698
v 123.392097 21.937220 -116.446404
v 123.392097 23.667219 -116.446396
v 116.967598 23.667219 -115.743690
v 122.059898 21.937222 -126.753197
v 122.059898 23.667221 -126.753189
v 121.772202 21.937222 -126.721802
v 121.772202 23.667221 -126.721794
v 121.788902 21.937222 -128.850204
v 121.788902 23.667221 -128.850204
v 121.735802 21.937222 -129.261200
v 121.735802 23.667221 -129.261200
v 117.069801 21.937222 -128.725098
v 117.069801 23.667221 -128.725098
v -596.945007 38.603455 -951.580872
v -600.118225 38.603455 -961.071289
v -600.118225 40.596855 -961.071289
v -596.945007 40.596855 -951.580872
v -611.021912 38.603455 -957.761719
v -611.021912 40.596855 -957.761719
v -609.562195 38.603455 -952.443420
v -609.562195 40.596855 -952.443420
v -607.265381 38.603451 -944.876587
v -607.265381 40.596851 -944.876587
v -598.716980 38.603451 -947.583679
v -598.716980 40.596851 -947.583679
v -599.678528 38.603455 -950.751221
v -599.678528 40.596855 -950.751221
v 6.425200 10.073714 -90.271103
v 4.940500 10.073716 -99.869797
v 4.940500 12.153516 -99.869797
v 6.425200 12.153514 -90.271103
v -5.222300 10.073716 -99.903999
v -5.222300 12.153516 -99.903999
v -4.013900 10.073715 -92.165199
v -4.013900 12.153515 -92.165199
v -2.977200 10.073715 -92.161697
v -2.977200 12.153515 -92.161697
v -2.475300 10.073714 -88.917397
v -2.475300 12.153514 -88.917397
v -28.856400 35.429394 -579.015625
v -38.369400 35.429394 -577.516174
v -38.369400 37.479897 -577.516174
v -28.856400 37.479897 -579.015625
v -38.047298 35.429394 -575.454712
v -38.047298 37.479897 -575.454712
v -36.540501 35.429394 -575.692078
v -36.540501 37.479897 -575.692078
v -35.370499 35.429390 -568.220581
v -35.370499 37.479893 -568.220581
v -27.360399 35.429390 -569.462219
v -27.360399 37.479893 -569.462219
v 2.355900 35.286282 -1115.711914
v 3.426400 35.286278 -1108.876099
v 3.426400 37.218979 -1108.876099
v 2.355900 37.218983 -1115.711914
v 5.855800 35.286278 -1109.256836
v 5.855800 37.218979 -1109.256836
v 5.545300 35.286278 -1111.239258
v 5.545300 37.218979 -1111.239258
v 11.789300 35.286282 -1112.217041
v 11.789300 37.218983 -1112.217041
v 11.028300 35.286282 -1117.070068
v 11.028300 37.218983 -1117.070068
v 502.286011 70.765457 -308.986511
v 509.395691 70.765450 -284.441895
v 509.395691 72.786949 -284.441895
v 502.286011 72.786957 -308.986511
v 523.683472 70.765450 -288.575714
v 523.683472 72.786949 -288.575714
v 516.640625 70.765457 -312.907593
v 516.640625 72.786957 -312.907593
v 508.881104 74.045242 -292.703308
v 510.626892 74.045242 -286.676514
v 510.626892 76.066750 -286.676514
v 508.881104 76.066750 -292.703308
v 521.448730 74.045242 -289.807404
v 521.448730 76.066750 -289.807404
v 519.750977 74.045242 -295.672485
v 519.750977 76.066750 -295.672485
v -480.347412 7.901871 793.567383
v -499.600403 7.901871 791.734009
v -499.600403 9.879871 791.734009
v -480.347412 9.879870 793.567383
v -500.673309 7.901869 803.037109
v -500.673309 9.879869 803.037109
v -485.635590 7.901869 804.305603
v -485.635590 9.879869 804.305603
v -485.435486 7.901869 802.197021
v -485.435486 9.879869 802.197021
v -481.204803 7.901869 802.599792
v -481.204803 9.879869 802.599792
v -742.230713 7.686124 467.187286
v -742.376770 7.686124 468.964294
v -742.376770 9.406323 468.964294
v -742.230713 9.406323 467.187286
v -744.436218 7.686124 468.796692
v -744.436218 9.406323 468.796692
v -744.968018 7.686123 475.267303
v -744.968018 9.406322 475.267303
v -737.346985 7.686122 475.887512
v -737.346985 9.406322 475.887512
v -736.669617 7.686124 467.645599
v -736.669617 9.406323 467.645599
v -587.148682 9.454503 -633.621521
v -585.726379 9.454502 -628.915283
v -585.726379 11.057602 -628.915283
v -587.148682 11.057603 -633.621521
v -581.341919 9.454503 -630.231995
v -581.341919 11.057603 -630.231995
v -580.245728 9.454502 -626.615417
v -580.245728 11.057602 -626.615417
v -566.495605 9.454503 -630.706177
v -566.495605 11.057603 -630.706177
v -569.028625 9.454504 -639.062927
v -569.028625 11.057604 -639.062927
v 508.037811 66.576248 -258.197510
v 509.964905 66.576241 -245.691879
v 509.964905 68.488739 -245.691879
v 508.037811 68.488747 -258.197510
v 527.479675 66.576241 -248.336685
v 527.479675 68.488739 -248.336685
v 525.086487 66.576248 -263.795685
v 525.086487 68.488747 -263.795685
v 509.008514 69.793549 -257.601990
v 509.918213 69.793541 -251.698578
v 509.918213 71.706039 -251.698578
v 509.008514 71.706047 -257.601990
v 525.298279 69.793541 -256.749207
v 525.298279 71.706039 -256.749207
v 524.384705 69.793549 -262.650909
v 524.384705 71.706047 -262.650909
v 518.537476 69.793541 -254.528992
v 520.622620 69.793541 -248.179779
v 520.622620 71.706039 -248.179779
v 518.537476 71.706039 -254.528992
v 526.487793 69.793541 -249.065384
v 526.487793 71.706039 -249.065384
vt 0.3333 0.0000
vt 1.5000 0.0000
vt 1.5000 1.0000
vt 0.3333 1.0000
vt 0.1667 -0.0000
vt 0.5000 0.0000
vt 0.5000 1.0000
vt 0.1667 1.0000
vt 1.1667 0.0000
vt 1.1667 1.0000
vt 0.6667 -0.0000
vt 1.6667 -0.0000
vt 1.6667 1.0000
vt 0.6667 1.0000
vt 0.6667 -0.0000
vt 2.5000 0.0000
vt 2.5000 1.0000
vt 0.6667 1.0000
vt 0.0000 -0.0000
vt 0.6667 -0.0000
vt 0.6667 1.0000
vt 0.0000 1.0000
vt 0.5000 0.0000
vt 2.6667 0.0000
vt 2.6667 1.0000
vt 0.5000 1.0000
vt 0.3333 0.0000
vt 1.8333 0.0000
vt 1.8333 1.0000
vt 0.3333 1.0000
vt 0.6667 -0.0000
vt 2.8333 -0.0000
vt 2.8333 1.0000
vt 0.6667 1.0000
vt 0.0000 -0.0000
vt 1.5000 0.0000
vt 1.5000 1.0000
vt 0.0000 1.0000
vt 0.8333 0.0000
vt 1.5000 0.0000
vt 1.5000 1.0000
vt 0.8333 1.0000
vt 0.1667 -0.0000
vt 0.8333 0.0000
vt 0.8333 1.0000
vt 0.1667 1.0000
vt 0.6667 -0.0000
vt 3.1667 -0.0000
vt 3.1667 1.0000
vt 0.6667 1.0000
vt 0.5000 0.0000
vt 1.1667 0.0000
vt 1.1667 1.0000
vt 0.5000 1.0000
vt 0.6667 -0.0000
vt 1.5000 0.0000
vt 1.5000 1.0000
vt 0.6667 1.0000
vt 0.6667 -0.0000
vt 0.8333 0.0000
vt 0.8333 1.0000
vt 0.6667 1.0000
vt 0.6667 -0.0000
vt 1.6667 -0.0000
vt 1.6667 1.0000
vt 0.6667 1.0000
vt 0.5000 0.0000
vt 0.6667 -0.0000
vt 0.6667 1.0000
vt 0.5000 1.0000
vt 0.0000 -0.0000
vt 1.5000 0.0000
vt 1.5000 1.0000
vt 0.0000 1.0000
vt 0.5000 0.0000
vt 1.1667 0.0000
vt 1.1667 1.0000
vt 0.5000 1.0000
vt 0.1667 -0.0000
vt 1.6667 -0.0000
vt 1.6667 1.0000
vt 0.1667 1.0000
vt 0.5000 0.0000
vt 0.6667 -0.0000
vt 0.6667 1.0000
vt 0.5000 1.0000
vt 0.8333 0.0000
vt 1.1667 0.0000
vt 1.1667 1.0000
vt 0.8333 1.0000
vt 0.6667 -0.0000
vt 0.8333 0.0000
vt 0.8333 1.0000
vt 0.6667 1.0000
vt 0.5000 0.0000
vt 0.8333 0.0000
vt 0.8333 1.0000
vt 0.5000 1.0000
vt 0.6667 -0.0000
vt 0.8333 0.0000
vt 0.8333 1.0000
vt 0.6667 1.0000
vt 0.8333 0.0000
vt 4.3333 0.0000
vt 4.3333 1.0000
vt 0.8333 1.0000
vt 0.6667 -0.0000
vt 2.8333 -0.0000
vt 2.8333 1.0000
vt 0.6667 1.0000
vt 0.5000 0.0000
vt 4.0000 0.0000
vt 4.0000 1.0000
vt 0.5000 1.0000
vt 0.1667 -0.0000
vt 2.3333 0.0000
vt 2.3333 1.0000
vt 0.1667 1.0000
vt 0.0000 -0.0000
vt 2.5000 0.0000
vt 2.5000 1.0000
vt 0.0000 1.0000
vt 0.0000 -0.0000
vt 2.3333 0.0000
vt 2.3333 1.0000
vt 0.0000 1.0000
vt 0.1667 -0.0000
vt 2.6667 0.0000
vt 2.6667 1.0000
vt 0.1667 1.0000
vt 0.0000 -0.0000
vt 2.5000 0.0000
vt 2.5000 1.0000
vt 0.0000 1.0000
vt 0.6667 -0.0000
vt 1.5000 0.0000
vt 1.5000 1.0000
vt 0.6667 1.0000
vt 0.6667 -0.0000
vt 2.0000 -0.0000
vt 2.0000 1.0000
vt 0.6667 1.0000
vt 0.1667 -0.0000
vt 0.2000 -0.0000
vt 0.2000 1.0000
vt 0.1667 1.0000
vt 0.5000 0.0000
vt 0.8333 0.0000
vt 0.8333 1.0000
vt 0.5000 1.0000
vt 0.5000 0.0000
vt 0.5333 0.0000
vt 0.5333 1.0000
vt 0.5000 1.0000
vt 0.5000 0.0000
vt 1.1667 0.0000
vt 1.1667 1.0000
vt 0.5000 1.0000
vt 0.3333 0.0000
vt 2.0000 -0.0000
vt 2.0000 1.0000
vt 0.3333 1.0000
vt 0.3333 0.0000
vt 1.6667 -0.0000
vt 1.6667 1.0000
vt 0.3333 1.0000
vt 0.8333 0.0000
vt 2.5000 0.0000
vt 2.5000 1.0000
vt 0.8333 1.0000
vt 0.5000 0.0000
vt 1.3333 0.0000
vt 1.3333 1.0000
vt 0.5000 1.0000
vt 0.5000 0.0000
vt 1.6667 -0.0000
vt 1.6667 1.0000
vt 0.5000 1.0000
vt 0.3333 0.0000
vt 1.6667 -0.0000
vt 1.6667 1.0000
vt 0.3333 1.0000
vt 0.8333 0.0000
vt 1.3333 0.0000
vt 1.3333 1.0000
vt 0.8333 1.0000
vt 0.6667 -0.0000
vt 1.0000 -0.0000
vt 1.0000 1.0000
vt 0.6667 1.0000
vt 0.5000 0.0000
vt 2.0000 -0.0000
vt 2.0000 1.0000
vt 0.5000 1.0000
vt 0.6667 -0.0000
vt 2.1667 0.0000
vt 2.1667 1.0000
vt 0.6667 1.0000
vt 0.6667 -0.0000
vt 1.8333 0.0000
vt 1.8333 1.0000
vt 0.6667 1.0000
vt 0.5000 0.0000
vt 0.6667 -0.0000
vt 0.6667 1.0000
vt 0.5000 1.0000
vt 0.5000 0.0000
vt 1.0000 -0.0000
vt 1.0000 1.0000
vt 0.5000 1.0000
vt 0.5000 0.0000
vt 1.8333 0.0000
vt 1.8333 1.0000
vt 0.5000 1.0000
vt 0.3333 0.0000
vt 1.5000 0.0000
vt 1.5000 1.0000
vt 0.3333 1.0000
vt 0.6667 -0.0000
vt 1.0000 -0.0000
vt 1.0000 1.0000
vt 0.6667 1.0000
vt 0.5000 0.0000
vt 0.6667 -0.0000
vt 0.6667 1.0000
vt 0.5000 1.0000
vt 0.3333 0.0000
vt 1.1667 0.0000
vt 1.1667 1.0000
vt 0.3333 1.0000
vt 0.3333 0.0000
vt 1.3333 0.0000
vt 1.3333 1.0000
vt 0.3333 1.0000
vt 0.6667 -0.0000
vt 1.8333 0.0000
vt 1.8333 1.0000
vt 0.6667 1.0000
vt 0.6667 -0.0000
vt 2.0000 -0.0000
vt 2.0000 1.0000
vt 0.6667 1.0000
vt 0.3333 0.0000
vt 0.8333 0.0000
vt 0.8333 1.0000
vt 0.3333 1.0000
vt 0.0000 -0.0000
vt 0.3333 0.0000
vt 0.3333 1.0000
vt 0.0000 1.0000
vt 0.5000 0.0000
vt 1.6667 -0.0000
vt 1.6667 1.0000
vt 0.5000 1.0000
vt 0.3333 0.0000
vt 1.1667 0.0000
vt 1.1667 1.0000
vt 0.3333 1.0000
vt 0.5000 0.0000
vt 2.1667 0.0000
vt 2.1667 1.0000
vt 0.5000 1.0000
vt 0.1667 -0.0000
vt 3.5000 0.0000
vt 3.5000 1.0000
vt 0.1667 1.0000
vt 0.0000 -0.0000
vt 2.0000 -0.0000
vt 2.0000 1.0000
vt 0.0000 1.0000
vt 0.5000 0.0000
vt 3.8333 0.0000
vt 3.8333 1.0000
vt 0.5000 1.0000
vt 0.5000 0.0000
vt 2.5000 0.0000
vt 2.5000 1.0000
vt 0.5000 1.0000
vt 0.3333 0.0000
vt 1.1667 0.0000
vt 1.1667 1.0000
vt 0.3333 1.0000
vt 0.8333 0.0000
vt 2.3333 0.0000
vt 2.3333 1.0000
vt 0.8333 1.0000
vt 0.1667 -0.0000
vt 1.0000 -0.0000
vt 1.0000 1.0000
vt 0.1667 1.0000
vt 0.1667 -0.0000
vt 1.6667 -0.0000
vt 1.6667 1.0000
vt 0.1667 1.0000
vt 0.8333 0.0000
vt 4.3333 0.0000
vt 4.3333 1.0000
vt 0.8333 1.0000
vt 0.6667 -0.0000
vt 2.8333 -0.0000
vt 2.8333 1.0000
vt 0.6667 1.0000
vt 0.0000 -0.0000
vt 2.8333 -0.0000
vt 2.8333 1.0000
vt 0.0000 1.0000
vt 0.3333 0.0000
vt 0.6667 -0.0000
vt 0.6667 1.0000
vt 0.3333 1.0000
vt 0.3333 0.0000
vt 1.1667 0.0000
vt 1.1667 1.0000
vt 0.3333 1.0000
vt 0.1667 -0.0000
vt 1.8333 0.0000
vt 1.8333 1.0000
vt 0.1667 1.0000
vt 0.6667 -0.0000
vt 0.8333 0.0000
vt 0.8333 1.0000
vt 0.6667 1.0000
vt 0.5000 0.0000
vt 0.8333 0.0000
vt 0.8333 1.0000
vt 0.5000 1.0000
vt 0.3333 0.0000
vt 1.1667 0.0000
vt 1.1667 1.0000
vt 0.3333 1.0000
vt 0.3333 0.0000
vt 1.3333 0.0000
vt 1.3333 1.0000
vt 0.3333 1.0000
vt 0.6667 -0.0000
vt 1.6667 -0.0000
vt 1.6667 1.0000
vt 0.6667 1.0000
vt 0.5000 0.0000
vt 1.1667 0.0000
vt 1.1667 1.0000
vt 0.5000 1.0000
vt 0.5000 0.0000
vt 1.1667 0.0000
vt 1.1667 1.0000
vt 0.5000 1.0000
vt 0.8333 0.0000
vt 1.5000 0.0000
vt 1.5000 1.0000
vt 0.8333 1.0000
vt 0.5000 0.0000
vt 1.0000 -0.0000
vt 1.0000 1.0000
vt 0.5000 1.0000
vt 0.5000 0.0000
vt 2.3333 0.0000
vt 2.3333 1.0000
vt 0.5000 1.0000
vt 0.5000 0.0000
vt 1.6667 -0.0000
vt 1.6667 1.0000
vt 0.5000 1.0000
vt 0.5000 0.0000
vt 3.0000 0.0000
vt 3.0000 1.0000
vt 0.5000 1.0000
vt 0.6667 -0.0000
vt 2.5000 0.0000
vt 2.5000 1.0000
vt 0.6667 1.0000
vt 0.3333 0.0000
vt 3.0000 0.0000
vt 3.0000 1.0000
vt 0.3333 1.0000
vt 0.5000 0.0000
vt 2.8333 -0.0000
vt 2.8333 1.0000
vt 0.5000 1.0000
vt 0.6667 -0.0000
vt 3.3333 -0.0000
vt 3.3333 1.0000
vt 0.6667 1.0000
vt 0.0000 -0.0000
vt 0.8333 0.0000
vt 0.8333 1.0000
vt 0.0000 1.0000
vt 3.1667 -0.0000
vt 3.1667 1.0000
vt 0.1667 -0.0000
vt 1.0000 -0.0000
vt 1.0000 1.0000
vt 0.1667 1.0000
vt 0.5000 0.0000
vt 2.8333 -0.0000
vt 2.8333 1.0000
vt 0.5000 1.0000
vt 0.6667 -0.0000
vt 1.6667 -0.0000
vt 1.6667 1.0000
vt 0.6667 1.0000
vt 0.1667 -0.0000
vt 1.0000 -0.0000
vt 1.0000 1.0000
vt 0.1667 1.0000
vt 0.5000 0.0000
vt 1.6667 -0.0000
vt 1.6667 1.0000
vt 0.5000 1.0000
vt 0.3333 0.0000
vt 1.3333 0.0000
vt 1.3333 1.0000
vt 0.3333 1.0000
vn 0.9573 0.0000 -0.2890
vn 0.1983 0.0000 0.9801
vn 0.9574 0.0000 -0.2886
vn -0.1983 0.0000 -0.9801
vn -0.9573 0.0000 0.2890
vn 0.2247 0.0000 0.9744
vn -0.9955 0.0000 0.0947
vn 0.0591 0.0000 0.9983
vn 0.9982 0.0000 -0.0595
vn -0.0618 0.0000 -0.9981
vn -0.9804 0.0000 0.1969
vn 0.2200 0.0000 0.9755
vn 0.9804 0.0000 -0.1969
vn -0.2199 0.0000 -0.9755
vn 0.2201 0.0000 0.9755
vn -0.2201 0.0000 -0.9755
vn 0.9658 0.0000 -0.2593
vn -0.2603 0.0000 -0.9655
vn -0.9651 0.0000 0.2618
vn 0.2605 0.0000 0.9655
vn 0.9651 0.0000 -0.2618
vn 0.2603 0.0000 0.9655
vn -0.9658 0.0000 0.2593
vn -0.2905 0.0000 -0.9569
vn -0.9544 0.0000 0.2984
vn 0.2993 0.0000 0.9542
vn 0.9519 0.0000 -0.3063
vn 0.9995 0.0000 -0.0326
vn -0.0331 0.0000 -0.9995
vn -0.9995 0.0000 0.0318
vn 0.0305 0.0000 0.9995
vn 0.1087 -0.0000 0.9941
vn 0.9917 0.0000 -0.1282
vn -0.1085 0.0000 -0.9941
vn 1.0000 0.0000 0.0078
vn 0.9918 0.0000 -0.1281
vn -0.1141 0.0000 -0.9935
vn -1.0000 0.0000 -0.0079
vn 0.9484 0.0000 -0.3171
vn -0.2904 0.0000 -0.9569
vn -0.9643 0.0000 0.2647
vn -0.9569 0.0000 0.2905
vn 0.3019 0.0000 0.9533
vn 0.9569 0.0000 -0.2905
vn 0.2904 0.0000 0.9569
vn 0.9882 0.0000 -0.1529
vn 0.0034 0.0000 -1.0000
vn -0.9880 0.0000 0.1543
vn -0.0034 0.0000 1.0000
vn -0.9882 0.0000 0.1529
vn 0.1504 0.0000 0.9886
vn -0.1557 0.0000 -0.9878
vn -0.9880 0.0000 0.1544
vn 0.1556 0.0000 0.9878
vn -0.9880 0.0000 0.1547
vn 0.1532 0.0000 0.9882
vn 0.9880 0.0000 -0.1547
vn 0.1548 0.0000 0.9879
vn 0.1547 0.0000 0.9880
vn 0.9879 0.0000 -0.1549
vn -0.1547 0.0000 -0.9880
vn -0.9605 0.0000 0.2782
vn 0.2779 0.0000 0.9606
vn 0.9606 0.0000 -0.2780
vn -0.2635 0.0000 -0.9647
vn 0.9606 0.0000 -0.2781
vn 0.0948 0.0000 -0.9955
vn -0.9955 0.0000 -0.0945
vn -0.0841 0.0000 0.9965
vn 0.9955 0.0000 0.0945
vn -0.0948 0.0000 0.9955
vn -0.9966 0.0000 -0.0819
vn 0.0811 0.0000 -0.9967
vn -0.0811 0.0000 0.9967
vn 0.9966 0.0000 0.0819
vn 0.0821 0.0000 -0.9966
vn -0.9572 0.0000 0.2893
vn 0.2876 0.0000 0.9577
vn -0.9570 0.0000 0.2901
vn 0.2852 0.0000 0.9585
vn 0.9570 0.0000 -0.2901
vn -0.2876 0.0000 -0.9577
vn -0.9883 0.0000 0.1523
vn 0.1493 0.0000 0.9888
vn 0.9882 0.0000 -0.1530
vn -0.3120 0.0000 -0.9501
vn 0.3120 0.0000 0.9501
vn -0.9501 0.0000 0.3120
g CityEngineMaterial_289_CityEngineMaterial_289_CityEngineMaterial_289_mat
usemtl CityEngineMaterial_289_mat
s 1
f 1/1/1 2/2/1 3/3/1 4/4/1
f 2/5/2 5/6/2 6/7/2 3/8/2
f 5/6/3 7/9/3 8/10/3 6/7/3
f 7/11/4 9/12/4 10/13/4 8/14/4
f 9/15/5 11/16/5 12/17/5 10/18/5
f 11/19/6 1/20/6 4/21/6 12/22/6
f 13/23/7 14/24/7 15/25/7 16/26/7
f 14/27/8 17/28/8 18/29/8 15/30/8
f 17/31/9 19/32/9 20/33/9 18/34/9
f 19/35/10 13/36/10 16/37/10 20/38/10
f 21/39/11 22/40/11 23/41/11 24/42/11
f 22/43/12 25/44/12 26/45/12 23/46/12
f 25/47/13 27/48/13 28/49/13 26/50/13
f 27/51/14 29/52/14 30/53/14 28/54/14
f 29/55/11 31/56/11 32/57/11 30/58/11
f 31/59/15 33/60/15 34/61/15 32/62/15
f 33/63/11 35/64/11 36/65/11 34/66/11
f 35/67/16 21/68/16 24/69/16 36/70/16
f 37/71/17 38/72/17 39/73/17 40/74/17
f 38/75/18 41/76/18 42/77/18 39/78/18
f 41/79/19 43/80/19 44/81/19 42/82/19
f 43/83/20 45/84/20 46/85/20 44/86/20
f 45/87/21 47/88/21 48/89/21 46/90/21
f 47/91/22 49/92/22 50/93/22 48/94/22
f 49/95/23 51/96/23 52/97/23 50/98/23
f 51/99/20 37/100/20 40/101/20 52/102/20
f 53/103/24 54/104/24 55/105/24 56/106/24
f 54/107/25 57/108/25 58/109/25 55/110/25
f 57/111/26 59/112/26 60/113/26 58/114/26
f 59/115/27 53/116/27 56/117/27 60/118/27
f 61/119/28 62/120/28 63/121/28 64/122/28
f 62/123/29 65/124/29 66/125/29 63/126/29
f 65/127/30 67/128/30 68/129/30 66/130/30
f 67/131/31 61/132/31 64/133/31 68/134/31
f 69/135/32 70/136/32 71/137/32 72/138/32
f 70/139/33 73/140/33 74/141/33 71/142/33
f 73/143/34 75/144/34 76/145/34 74/146/34
f 75/147/35 77/148/35 78/149/35 76/150/35
f 77/151/36 79/152/36 80/153/36 78/154/36
f 79/155/37 81/156/37 82/157/37 80/158/37
f 81/159/38 69/160/38 72/161/38 82/162/38
f 83/163/39 84/164/39 85/165/39 86/166/39
f 84/167/40 87/168/40 88/169/40 85/170/40
f 87/171/41 89/172/41 90/173/41 88/174/41
f 89/175/42 91/176/42 92/177/42 90/178/42
f 91/179/43 93/180/43 94/181/43 92/182/43
f 93/183/44 95/184/44 96/185/44 94/186/44
f 95/187/45 83/188/45 86/189/45 96/190/45
f 97/191/46 98/192/46 99/193/46 100/194/46
f 98/195/47 101/196/47 102/197/47 99/198/47
f 101/199/48 103/200/48 104/201/48 102/202/48
f 103/203/49 105/204/49 106/205/49 104/206/49
f 105/207/50 107/208/50 108/209/50 106/210/50
f 107/211/51 97/212/51 100/213/51 108/214/51
f 109/215/52 110/216/52 111/217/52 112/218/52
f 110/219/53 113/220/53 114/221/53 111/222/53
f 113/223/54 115/224/54 116/225/54 114/226/54
f 115/227/55 117/228/55 118/229/55 116/230/55
f 117/231/56 119/232/56 120/233/56 118/234/56
f 119/235/57 109/236/57 112/237/57 120/238/57
f 121/239/55 122/240/55 123/241/55 124/242/55
f 122/243/58 125/244/58 126/245/58 123/246/58
f 125/247/57 127/248/57 128/249/57 126/250/57
f 127/251/59 129/252/59 130/253/59 128/254/59
f 129/255/60 131/256/60 132/257/60 130/258/60
f 131/259/61 121/260/61 124/261/61 132/262/61
f 133/263/62 134/264/62 135/265/62 136/266/62
f 134/267/63 137/268/63 138/269/63 135/270/63
f 137/271/64 139/272/64 140/273/64 138/274/64
f 139/275/65 133/276/65 136/277/65 140/278/65
f 141/279/62 142/280/62 143/281/62 144/282/62
f 142/283/63 145/284/63 146/285/63 143/286/63
f 145/287/66 147/288/66 148/289/66 146/290/66
f 147/291/65 141/292/65 144/293/65 148/294/65
f 149/295/67 150/296/67 151/297/67 152/298/67
f 150/299/68 153/300/68 154/301/68 151/302/68
f 153/303/69 155/304/69 156/305/69 154/306/69
f 155/307/70 157/308/70 158/309/70 156/310/70
f 157/311/71 159/312/71 160/313/71 158/314/71
f 159/315/70 149/316/70 152/317/70 160/318/70
f 161/319/72 162/320/72 163/321/72 164/322/72
f 162/323/73 165/324/73 166/325/73 163/326/73
f 165/327/72 167/328/72 168/329/72 166/330/72
f 167/331/74 169/332/74 170/333/74 168/334/74
f 169/335/75 171/336/75 172/337/75 170/338/75
f 171/339/76 161/340/76 164/341/76 172/342/76
f 173/343/77 174/344/77 175/345/77 176/346/77
f 174/347/78 177/348/78 178/349/78 175/350/78
f 177/351/79 179/352/79 180/353/79 178/354/79
f 179/355/80 181/356/80 182/357/80 180/358/80
f 181/359/81 183/360/81 184/361/81 182/362/81
f 183/363/82 173/364/82 176/365/82 184/366/82
f 185/367/83 186/368/83 187/369/83 188/370/83
f 186/371/84 189/372/84 190/373/84 187/374/84
f 189/375/85 191/376/85 192/377/85 190/378/85
f 191/379/86 185/380/86 188/381/86 192/382/86
f 193/383/83 194/384/83 195/385/83 196/386/83
f 194/384/87 197/387/87 198/388/87 195/385/87
f 197/389/85 199/390/85 200/391/85 198/392/85
f 199/393/86 193/394/86 196/395/86 200/396/86
f 201/397/88 202/398/88 203/399/88 204/400/88
f 202/401/84 205/402/84 206/403/84 203/404/84
f 205/405/85 197/406/85 198/407/85 206/408/85
f 197/409/86 201/410/86 204/411/86 198/412/86
