# Blender v2.78 (sub 0) OBJ File: ''
# www.blender.org
mtllib CityEngineMaterial_633.mtl
o CityEngineMaterial_633
v -1105.280518 14.118219 499.751007
v -1105.720703 14.118218 503.110687
v -1105.720703 16.308819 503.110687
v -1105.280518 16.308819 499.751007
v -1101.260620 14.118218 503.697388
v -1101.260620 16.308819 503.697388
v -1101.906616 14.118217 508.627411
v -1101.906616 16.308819 508.627411
v -1106.312500 14.118217 507.626190
v -1106.312500 16.308819 507.626190
v -1106.665405 14.118217 510.319214
v -1106.665405 16.308817 510.319214
v -1098.572266 14.118217 512.158508
v -1098.572266 16.308817 512.158508
v -1097.087524 14.118218 500.828705
v -1097.087524 16.308819 500.828705
v -40.051701 40.848957 -950.704224
v -38.368599 40.848953 -939.986389
v -38.368599 42.952454 -939.986389
v -40.051701 42.952457 -950.704224
v -27.344999 40.848953 -941.713623
v -27.344999 42.952454 -941.713623
v -29.039200 40.848957 -952.429688
v -29.039200 42.952457 -952.429688
v -32.629501 40.848957 -951.867126
v -32.629501 42.952457 -951.867126
v -31.803301 40.848953 -946.641602
v -31.803301 42.952454 -946.641602
v -35.528198 40.848953 -946.057983
v -35.528198 42.952454 -946.057983
v -36.348900 40.848957 -951.284302
v -36.348900 42.952457 -951.284302
v 144.830795 40.991467 -1036.307007
v 144.472595 40.991470 -1043.362793
v 144.472595 41.352871 -1043.362793
v 144.830795 41.352867 -1036.307007
v 140.299500 40.991470 -1043.175049
v 140.299500 41.352871 -1043.175049
v 139.732407 40.991470 -1054.345215
v 139.732407 41.352871 -1054.345215
v 134.650299 40.991470 -1054.122803
v 134.650299 41.352871 -1054.122803
v 135.575806 40.991467 -1035.890503
v 135.575806 41.352867 -1035.890503
v 144.651703 42.775368 -1039.834839
v 137.191406 42.377071 -1054.234009
v -110.320801 41.163551 -941.695618
v -110.234901 41.163555 -953.086609
v -110.234901 43.197758 -953.086609
v -110.320801 43.197754 -941.695618
v -120.838600 41.163555 -951.525574
v -120.838600 43.197758 -951.525574
v -120.861000 41.163555 -948.585083
v -120.861000 43.197758 -948.585083
v -116.809700 41.163555 -949.181519
v -116.809700 43.197758 -949.181519
v -116.838097 41.163551 -945.416626
v -116.838097 43.197754 -945.416626
v -120.884903 41.163551 -945.449707
v -120.884903 43.197754 -945.449707
v -120.912903 41.163551 -941.782410
v -120.912903 43.197754 -941.782410
v -120.849800 43.772255 -950.055420
v -120.898903 43.922852 -943.616089
v 613.028625 22.840885 698.996094
v 610.675171 22.840887 691.638123
v 610.675171 25.131388 691.638123
v 613.028625 25.131386 698.996094
v 613.861877 22.840887 690.533508
v 613.861877 25.131388 690.533508
v 612.401917 22.840887 685.968018
v 612.401917 25.131388 685.968018
v 604.268921 22.840887 688.786987
v 604.268921 25.131388 688.786987
v 608.042725 22.840885 700.586121
v 608.042725 25.131386 700.586121
v 1027.826782 116.058769 -436.552368
v 1022.858826 116.058769 -442.935455
v 1022.858826 116.887772 -442.935455
v 1027.826782 116.887772 -436.552368
v 1013.713501 116.058769 -435.841064
v 1013.713501 116.887772 -435.841064
v 1012.169128 116.058769 -437.832184
v 1012.169128 116.887772 -437.832184
v 1007.162476 116.058769 -433.947357
v 1007.162476 116.887772 -433.947357
v 1013.664124 116.058769 -425.565765
v 1013.664124 116.887772 -425.565765
v -409.390686 10.044921 1097.999512
v -409.626709 10.044921 1099.888184
v -409.626709 12.126121 1099.888184
v -409.390686 12.126121 1097.999512
v -409.529510 10.044921 1101.141724
v -409.529510 12.126121 1101.141724
v -406.277710 10.044921 1101.551025
v -406.277710 12.126121 1101.551025
v -406.820496 10.044920 1105.888428
v -406.820496 12.126120 1105.888428
v -409.148010 10.044920 1106.067139
v -409.148010 12.126120 1106.067139
v -408.910492 10.044920 1109.135254
v -408.910492 12.126120 1109.135254
v -399.054993 10.044920 1108.378296
v -399.054993 12.126120 1108.378296
v -397.936493 10.044921 1099.441040
v -397.936493 12.126121 1099.441040
vt -0.0000 -1.0000
vt 1.5000 -1.0000
vt 1.5000 1.0000
vt -0.0000 1.0000
vt 0.5000 -1.0000
vt 2.0000 -1.0000
vt 2.0000 1.0000
vt 0.5000 1.0000
vt 0.5000 -1.0000
vt 2.5000 -1.0000
vt 2.5000 1.0000
vt 0.5000 1.0000
vt 0.5000 -1.0000
vt 2.0000 -1.0000
vt 2.0000 1.0000
vt 0.5000 1.0000
vt 0.5000 -1.0000
vt 1.5000 -1.0000
vt 1.5000 1.0000
vt 0.5000 1.0000
vt 0.5000 -1.0000
vt 3.5000 -1.0000
vt 3.5000 1.0000
vt 0.5000 1.0000
vt 0.5000 -1.0000
vt 5.0000 -1.0000
vt 5.0000 1.0000
vt 0.5000 1.0000
vt -0.0000 -1.0000
vt 3.0000 -1.0000
vt 3.0000 1.0000
vt -0.0000 1.0000
vt 0.5000 -1.0000
vt 4.5000 -1.0000
vt 4.5000 1.0000
vt 0.5000 1.0000
vt 0.5000 -1.0000
vt 4.5000 -1.0000
vt 4.5000 1.0000
vt 0.5000 1.0000
vt -0.0000 -1.0000
vt 4.0000 -1.0000
vt 4.0000 1.0000
vt -0.0000 1.0000
vt -0.0000 -1.0000
vt 1.5000 -1.0000
vt 1.5000 1.0000
vt -0.0000 1.0000
vt -0.0000 -1.0000
vt 2.0000 -1.0000
vt 2.0000 1.0000
vt -0.0000 1.0000
vt -0.0000 -1.0000
vt 1.5000 -1.0000
vt 1.5000 1.0000
vt -0.0000 1.0000
vt -0.0000 -1.0000
vt 2.0000 -1.0000
vt 2.0000 1.0000
vt -0.0000 1.0000
vt -0.0000 -1.0000
vt 1.5000 -1.0000
vt 1.5000 1.0000
vt -0.0000 1.0000
vt 0.5000 0.9000
vt 4.0000 0.9000
vt 4.0000 1.0000
vt 0.5000 1.0000
vt 0.5000 0.9000
vt 2.5000 0.9000
vt 2.5000 1.0000
vt 0.5000 1.0000
vt 0.5000 0.9000
vt 6.0000 0.9000
vt 6.0000 1.0000
vt 0.5000 1.0000
vt 0.0000 0.9000
vt 2.5000 0.9000
vt 2.5000 1.0000
vt -0.0000 1.0000
vt 0.5000 0.9000
vt 9.0000 0.9000
vt 9.0000 1.0000
vt 0.5000 1.0000
vt 0.0000 0.9000
vt 4.5000 0.9000
vt 4.5000 1.0000
vt -0.0000 1.0000
vt 0.5000 0.0000
vt 4.0000 0.0000
vt 2.2500 1.0000
vt 0.5000 0.0000
vt 3.0000 0.0000
vt 1.7500 1.0000
vt 0.5000 -1.0000
vt 5.0000 -1.0000
vt 5.0000 1.0000
vt 0.5000 1.0000
vt 0.5000 -1.0000
vt 5.0000 -1.0000
vt 5.0000 1.0000
vt 0.5000 1.0000
vt 0.5000 -1.0000
vt 1.5000 -1.0000
vt 1.5000 1.0000
vt 0.5000 1.0000
vt -0.0000 -1.0000
vt 1.5000 -1.0000
vt 1.5000 1.0000
vt -0.0000 1.0000
vt 0.5000 -1.0000
vt 2.0000 -1.0000
vt 2.0000 1.0000
vt 0.5000 1.0000
vt 0.5000 -1.0000
vt 2.0000 -1.0000
vt 2.0000 1.0000
vt 0.5000 1.0000
vt -0.0000 -1.0000
vt 1.5000 -1.0000
vt 1.5000 1.0000
vt -0.0000 1.0000
vt -0.0000 -1.0000
vt 4.5000 -1.0000
vt 4.5000 1.0000
vt -0.0000 1.0000
vt 0.5000 0.9000
vt 1.5000 0.9000
vt 1.0000 1.0000
vt 0.0000 0.9000
vt 1.5000 0.9000
vt 0.7500 1.0000
vt 0.5000 -1.0000
vt 3.5000 -1.0000
vt 3.5000 1.0000
vt 0.5000 1.0000
vt -0.0000 -1.0000
vt 1.5000 -1.0000
vt 1.5000 1.0000
vt -0.0000 1.0000
vt -0.0000 -1.0000
vt 2.0000 -1.0000
vt 2.0000 1.0000
vt -0.0000 1.0000
vt -0.0000 -1.0000
vt 3.5000 -1.0000
vt 3.5000 1.0000
vt -0.0000 1.0000
vt -0.0000 -1.0000
vt 5.0000 -1.0000
vt 5.0000 1.0000
vt -0.0000 1.0000
vt -0.0000 -1.0000
vt 2.0000 -1.0000
vt 2.0000 1.0000
vt -0.0000 1.0000
vt 0.5000 0.9000
vt 4.0000 0.9000
vt 4.0000 1.0000
vt 0.5000 1.0000
vt 0.0000 0.9000
vt 5.0000 0.9000
vt 5.0000 1.0000
vt -0.0000 1.0000
vt 0.0000 0.9000
vt 1.0000 0.9000
vt 1.0000 1.0000
vt -0.0000 1.0000
vt 0.0000 0.9000
vt 3.0000 0.9000
vt 3.0000 1.0000
vt -0.0000 1.0000
vt 0.0000 0.9000
vt 4.5000 0.9000
vt 4.5000 1.0000
vt -0.0000 1.0000
vt 0.0000 0.9000
vt 8.0000 0.9000
vt 8.0000 1.0000
vt -0.0000 1.0000
vt -0.0000 -1.0000
vt 1.0000 -1.0000
vt 1.0000 1.0000
vt -0.0000 1.0000
vt 0.5000 -1.0000
vt 1.0000 -1.0000
vt 1.0000 1.0000
vt 0.5000 1.0000
vt -0.0000 -1.0000
vt 1.5000 -1.0000
vt 1.5000 1.0000
vt -0.0000 1.0000
vt -0.0000 -1.0000
vt 2.0000 -1.0000
vt 2.0000 1.0000
vt -0.0000 1.0000
vt 0.5000 -1.0000
vt 1.5000 -1.0000
vt 1.5000 1.0000
vt 0.5000 1.0000
vt -0.0000 -1.0000
vt 1.5000 -1.0000
vt 1.5000 1.0000
vt -0.0000 1.0000
vt 0.5000 -1.0000
vt 5.0000 -1.0000
vt 5.0000 1.0000
vt 0.5000 1.0000
vt 0.5000 -1.0000
vt 4.5000 -1.0000
vt 4.5000 1.0000
vt 0.5000 1.0000
vt 0.5000 -1.0000
vt 6.0000 -1.0000
vt 6.0000 1.0000
vt 0.5000 1.0000
vn -0.9915 0.0000 -0.1299
vn -0.1304 0.0000 0.9915
vn 0.2216 0.0000 -0.9751
vn -0.2216 0.0000 0.9751
vn 0.9915 0.0000 0.1299
vn 0.1304 0.0000 -0.9915
vn -0.9879 0.0000 0.1551
vn 0.1548 0.0000 0.9879
vn 0.9877 0.0000 -0.1562
vn -0.1548 0.0000 -0.9879
vn -0.9877 0.0000 0.1562
vn 0.9879 0.0000 -0.1551
vn 0.9987 0.0000 -0.0507
vn -0.0449 0.0000 -0.9990
vn -0.0437 0.0000 -0.9990
vn -0.9987 0.0000 0.0507
vn 0.0450 0.0000 0.9990
vn 1.0000 0.0000 0.0075
vn -0.1456 0.0000 -0.9893
vn -1.0000 0.0000 -0.0076
vn 0.1456 0.0000 0.9893
vn -1.0000 0.0000 -0.0075
vn 0.0082 0.0000 -1.0000
vn -0.0082 0.0000 1.0000
vn 0.9525 0.0000 -0.3046
vn 0.3275 0.0000 0.9449
vn -0.3275 0.0000 -0.9449
vn -0.9525 0.0000 0.3046
vn 0.3038 0.0000 0.9527
vn 0.7892 0.0000 -0.6142
vn -0.6129 0.0000 -0.7901
vn 0.7902 0.0000 -0.6129
vn -0.6130 0.0000 -0.7901
vn -0.7901 0.0000 0.6129
vn 0.6129 0.0000 0.7901
vn -0.9923 0.0000 -0.1240
vn -0.9970 0.0000 0.0773
vn -0.1249 0.0000 0.9922
vn -0.9923 0.0000 -0.1242
vn -0.0765 0.0000 -0.9971
vn -0.9970 0.0000 0.0772
vn 0.0766 0.0000 0.9971
vn 0.9923 0.0000 0.1242
vn 0.1249 0.0000 -0.9922
g CityEngineMaterial_633_CityEngineMaterial_633_CityEngineMaterial_633_mat
usemtl CityEngineMaterial_633_mat
s 1
f 1/1/1 2/2/1 3/3/1 4/4/1
f 2/5/2 5/6/2 6/7/2 3/8/2
f 5/9/1 7/10/1 8/11/1 6/12/1
f 7/13/3 9/14/3 10/15/3 8/16/3
f 9/17/1 11/18/1 12/19/1 10/20/1
f 11/21/4 13/22/4 14/23/4 12/24/4
f 13/25/5 15/26/5 16/27/5 14/28/5
f 15/29/6 1/30/6 4/31/6 16/32/6
f 17/33/7 18/34/7 19/35/7 20/36/7
f 18/37/8 21/38/8 22/39/8 19/40/8
f 21/41/9 23/42/9 24/43/9 22/44/9
f 23/45/10 25/46/10 26/47/10 24/48/10
f 25/49/11 27/50/11 28/51/11 26/52/11
f 27/53/10 29/54/10 30/55/10 28/56/10
f 29/57/12 31/58/12 32/59/12 30/60/12
f 31/61/10 17/62/10 20/63/10 32/64/10
f 33/65/13 34/66/13 35/67/13 36/68/13
f 34/69/14 37/70/14 38/71/14 35/72/14
f 37/73/13 39/74/13 40/75/13 38/76/13
f 39/77/15 41/78/15 42/79/15 40/80/15
f 41/81/16 43/82/16 44/83/16 42/84/16
f 43/85/17 33/86/17 36/87/17 44/88/17
f 36/89/13 35/90/13 45/91/13
f 40/92/15 42/93/15 46/94/15
f 47/95/18 48/96/18 49/97/18 50/98/18
f 48/99/19 51/100/19 52/101/19 49/102/19
f 51/103/20 53/104/20 54/105/20 52/106/20
f 53/107/21 55/108/21 56/109/21 54/110/21
f 55/111/22 57/112/22 58/113/22 56/114/22
f 57/115/23 59/116/23 60/117/23 58/118/23
f 59/119/20 61/120/20 62/121/20 60/122/20
f 61/123/24 47/124/24 50/125/24 62/126/24
f 52/127/20 54/128/20 63/129/20
f 60/130/20 62/131/20 64/132/20
f 65/133/25 66/134/25 67/135/25 68/136/25
f 66/137/26 69/138/26 70/139/26 67/140/26
f 69/141/25 71/142/25 72/143/25 70/144/25
f 71/145/27 73/146/27 74/147/27 72/148/27
f 73/149/28 75/150/28 76/151/28 74/152/28
f 75/153/29 65/154/29 68/155/29 76/156/29
f 77/157/30 78/158/30 79/159/30 80/160/30
f 78/161/31 81/162/31 82/163/31 79/164/31
f 81/165/32 83/166/32 84/167/32 82/168/32
f 83/169/33 85/170/33 86/171/33 84/172/33
f 85/173/34 87/174/34 88/175/34 86/176/34
f 87/177/35 77/178/35 80/179/35 88/180/35
f 89/181/36 90/182/36 91/183/36 92/184/36
f 90/185/37 93/186/37 94/187/37 91/188/37
f 93/189/38 95/190/38 96/191/38 94/192/38
f 95/193/39 97/194/39 98/195/39 96/196/39
f 97/197/40 99/198/40 100/199/40 98/200/40
f 99/201/41 101/202/41 102/203/41 100/204/41
f 101/205/42 103/206/42 104/207/42 102/208/42
f 103/209/43 105/210/43 106/211/43 104/212/43
f 105/213/44 89/214/44 92/215/44 106/216/44
