# Blender v2.78 (sub 0) OBJ File: ''
# www.blender.org
mtllib CityEngineMaterial_694.mtl
o CityEngineMaterial_694
v 179.158707 49.740597 -581.767517
v 182.004303 49.740593 -563.595581
v 193.802094 49.740593 -565.458130
v 190.946198 49.740597 -583.613403
v 181.087494 66.551094 -569.450317
v 182.004303 66.551094 -563.595581
v 193.802094 66.551094 -565.458130
v 192.883499 66.551094 -571.297485
v 183.108002 66.954292 -567.192078
v 183.632095 66.954292 -563.852600
v 192.175201 66.954292 -565.201294
v 191.649399 66.954292 -568.540527
v 187.043900 66.954292 -570.382996
v 187.439697 66.954292 -567.875916
v 190.365204 66.954292 -568.337830
v 189.970306 66.954292 -570.839783
v -504.044586 6.158749 -302.000793
v -501.909393 6.158746 -280.282104
v -488.045898 6.158746 -284.490204
v -494.581696 6.158750 -305.793701
v -504.139801 6.158749 -302.864288
v -504.104797 6.158749 -302.435211
v -502.242889 27.297047 -283.674011
v -489.026215 27.297049 -287.685699
v -493.601288 27.297050 -302.598206
v -503.796204 27.297050 -299.473602
v -490.957306 15.219246 -283.606506
v -497.490601 15.219250 -304.902191
v -501.161713 15.219250 -303.777008
v -501.022614 15.219250 -302.358185
v -501.079315 15.219250 -302.767700
v -498.940796 15.219246 -281.183197
v -490.444702 30.014847 -288.554688
v -494.289398 30.014849 -301.086700
v -502.598114 30.014849 -298.540192
v -501.292603 30.014845 -285.261993
v -492.114594 30.017946 -285.111115
v -497.605713 30.017950 -303.009491
v -500.336090 30.017950 -302.172699
v -498.469086 30.017946 -283.182190
v -501.612091 34.453850 -297.749115
v -500.515106 34.453846 -286.590210
v -491.615997 34.453846 -289.291412
v -494.846985 34.453850 -299.822601
v -499.670593 31.920650 -300.815399
v -498.101288 31.920647 -284.853607
v -493.058899 31.920647 -286.384186
v -497.674103 31.920650 -301.427399
v -499.905914 36.422344 -287.825989
v -492.606812 36.422344 -290.041687
v -495.247192 36.422348 -298.648193
v -500.802490 36.422348 -296.945404
v -497.830200 33.252445 -286.306610
v -493.837799 33.252445 -287.518494
v -497.683289 33.252449 -300.052795
v -499.137787 33.252449 -299.606903
v -494.462708 35.220947 -288.421112
v -497.694702 35.220951 -298.956085
v -498.709015 35.220951 -298.645203
v -497.609894 35.220947 -287.465790
v -500.655304 37.930950 -295.447906
v -500.168793 37.930946 -290.499298
v -496.676300 37.930946 -290.842712
v -497.162903 37.930950 -295.791290
v -497.103790 37.930950 -295.190887
v -496.768799 37.930946 -291.783295
v -494.361511 37.930946 -292.019989
v -494.696503 37.930950 -295.427612
v -498.408813 36.714451 -295.590790
v -497.685211 36.714447 -288.231598
v -496.701813 36.714447 -288.328308
v -497.425415 36.714451 -295.687408
v -497.189209 36.714451 -293.285797
v -497.126587 36.714447 -292.649200
v -496.505005 36.714451 -292.710297
v -496.567596 36.714451 -293.346985
v 283.671387 31.295986 85.718208
v 282.321899 31.295988 65.611908
v 267.350189 31.295988 65.664406
v 268.538208 31.295986 86.577408
v 282.739685 90.646584 71.836716
v 282.321899 90.646591 65.611916
v 267.350189 90.646591 65.664413
v 267.749207 90.646584 72.687813
v 267.833801 91.287796 66.119812
v 268.014496 91.287796 69.299118
v 275.492798 91.287796 69.273018
v 282.252686 91.287788 71.406517
v 275.661102 91.287788 71.780815
v 281.894592 91.287796 66.070518
v -81.296898 7.378805 -28.444698
v -82.174103 7.378808 -49.627499
v -93.585403 7.378808 -49.421101
v -93.169998 7.378805 -28.224998
v -93.523102 52.421207 -46.241592
v -93.232300 52.421204 -31.404392
v -81.428497 52.421204 -31.622892
v -82.042503 52.421207 -46.449291
v -91.085297 57.388008 -49.466293
v -90.669800 57.388004 -28.271290
v -83.797699 57.388004 -28.398390
v -84.674896 57.388008 -49.582291
v -82.436302 65.933907 -32.809490
v -82.950500 65.933907 -45.227787
v -92.541801 65.933907 -45.054188
v -92.298302 65.933907 -32.626888
v -84.426598 63.817802 -30.107491
v -85.161400 63.817806 -47.852688
v -90.494003 63.817806 -47.756290
v -90.146004 63.817802 -30.001690
v -91.721901 67.671211 -44.042389
v -91.518402 67.671211 -33.667988
v -83.278900 67.671211 -33.820488
v -83.708099 67.671211 -44.187389
v -90.001701 74.319809 -46.313889
v -89.710403 74.319809 -31.460989
v -84.950600 74.319809 -31.548988
v -85.565300 74.319809 -46.394188
v -83.982399 68.887405 -34.650188
v -84.342003 68.887405 -43.333290
v -91.036903 68.887405 -43.212090
v -90.866501 68.887405 -34.522789
v -85.386803 75.670006 -32.746887
v -85.901802 75.670006 -45.182190
v -89.591904 75.670006 -45.115490
v -89.347801 75.670006 -32.673588
v -90.464401 70.855911 -42.504589
v -90.322098 70.855911 -35.250587
v -84.570602 70.855911 -35.357090
v -84.870697 70.855911 -42.605888
v -89.250603 77.638504 -44.104790
v -89.046501 77.638504 -33.695988
v -85.750298 77.638504 -33.757088
v -86.181099 77.638504 -44.160290
v -87.180099 71.503510 -37.808487
v -86.329597 71.503510 -37.823887
v -86.457802 71.503510 -40.921490
v -88.776901 71.503510 -40.879589
v -87.163498 71.503510 -36.964790
v -88.699501 71.503510 -36.936287
v -85.815399 78.065208 -34.945488
v -86.152802 78.065208 -43.092388
v -88.036201 78.065208 -43.014389
v -87.698799 78.065208 -34.867489
v -87.926102 78.065208 -40.356888
v -89.205002 78.065208 -42.965988
v -89.095001 78.065208 -40.308487
v -1184.521240 18.803242 364.609009
v -1184.480103 18.803242 363.562500
v -1188.455688 18.803242 363.405304
v -1179.874268 18.803139 371.281311
v -1188.751343 18.803240 370.930695
v -1181.872437 18.803242 364.713715
v -1178.457886 18.803141 363.800415
v -1181.675415 18.803242 363.673309
v -1180.570312 19.328140 366.350189
v -1180.552734 19.328140 366.350891
v -1180.355835 19.328140 365.310486
v -1180.373413 19.328140 365.309814
v -1186.166016 19.695541 366.129089
v -1186.124878 19.695541 365.082489
v -1186.935303 19.695541 365.050507
v -1187.106567 19.695539 369.410614
v -1182.502197 19.695541 367.878113
v -1180.854248 19.695541 367.943207
v -1181.176392 19.695539 369.644806
v -1182.439331 19.695541 366.276398
v 248.069107 50.170033 -216.183380
v 252.667297 50.170033 -216.917389
v 251.158096 50.170036 -225.899582
v 243.407104 50.170036 -224.662277
v 248.271896 50.170033 -214.925781
v 245.060303 50.170033 -214.413681
v 243.535294 51.479839 -224.115082
v 244.816406 51.479836 -216.172882
v 249.968094 51.479836 -217.003891
v 248.686996 51.479839 -224.946091
v -372.779205 6.061359 249.584900
v -370.237488 6.061356 271.077789
v -357.995300 6.061356 269.638397
v -360.045013 6.061359 248.089294
v -358.425812 16.344456 265.112701
v -359.614594 16.344458 252.614899
v -372.245514 16.344458 254.098404
v -370.771210 16.344456 266.564301
v -359.269012 28.837255 269.788086
v -361.318787 28.837259 248.238907
v -371.505798 28.837259 249.435303
v -368.964111 28.837255 270.928101
v -360.749786 23.542658 254.033005
v -370.839813 23.542658 255.218094
v -369.665314 23.542656 265.149506
v -359.802704 23.542656 263.989899
v -362.126007 35.669956 250.522903
v -370.237610 35.669956 251.475601
v -368.206604 35.669956 268.649811
v -360.488007 35.669956 267.742310
v -369.719513 28.581358 256.087891
v -368.778595 28.581356 264.043915
v -360.900513 28.581358 263.117493
v -361.659210 28.581358 255.141205
v -369.228912 37.638557 253.088806
v -367.601807 37.638458 266.846893
v -361.457794 37.638458 266.124603
v -362.769897 37.638557 252.330200
v -361.777893 36.811256 262.417786
v -362.385590 36.811256 256.029205
v -368.824310 36.811256 256.785400
v -368.070709 36.811256 263.157898
v -363.704987 38.518158 264.309387
v -364.625885 38.518158 254.627594
v -365.584991 38.518158 254.740204
v -364.899994 38.518158 261.942413
v -366.085785 38.518158 262.081787
v -365.793304 38.518158 264.554901
v -362.964111 38.779758 256.753906
v -368.107513 38.779758 257.358002
v -367.507111 38.779758 262.434906
v -362.480011 38.779758 261.843811
v -366.127899 39.243259 258.920197
v -366.048798 39.243259 259.588806
v -365.657196 39.243259 259.542786
v -364.419495 39.243259 260.277100
v -365.574402 39.243259 260.412903
v -364.566010 39.243259 258.736786
v -394.402893 5.937372 168.639801
v -409.523285 5.937372 169.136093
v -408.724792 5.937370 183.179092
v -393.944092 5.937370 182.352600
v -395.710785 29.242571 170.037506
v -407.416107 29.242571 170.421600
v -406.774109 29.242569 181.713898
v -395.341614 29.242571 181.074600
v -404.915802 30.335072 172.707397
v -404.732300 30.335072 175.933701
v -401.950897 30.335072 175.842407
v -397.784210 30.335072 178.840897
v -401.842987 30.335072 179.067902
v -397.997009 30.335072 172.480301
v 984.350098 118.687546 -269.125183
v 983.468506 118.687546 -268.991058
v 984.729614 118.687546 -260.742371
v 993.614624 118.687546 -262.094574
v 983.549805 118.687546 -274.344360
v 991.547729 118.687546 -275.573181
v 987.884277 119.261246 -268.903656
v 988.921692 119.261246 -262.139557
v 993.500671 119.261246 -262.837280
v 992.463501 119.261246 -269.601257
v 983.582397 119.261246 -268.248260
v 983.864807 119.261246 -266.399658
v 988.167175 119.261246 -267.059479
v -193.575394 8.100467 821.109314
v -184.840698 8.100468 811.649475
v -190.941696 8.100469 806.014099
v -193.991501 8.100467 817.231628
v -195.618896 8.100468 815.728271
v -197.331207 8.100467 817.640381
v -199.532593 8.100468 815.607178
v -195.732407 8.100467 819.117126
v -191.640305 9.474968 806.794189
v -197.205307 9.474967 813.008423
v -193.457596 9.474967 816.364685
v -187.892502 9.474968 810.150513
v -190.742004 9.474967 813.332275
v -193.121902 9.474967 815.989929
v -190.798904 9.474966 818.070312
v -188.418900 9.474967 815.412781
v -133.761597 9.463305 -31.768398
v -135.681793 9.463306 -41.108898
v -147.953094 9.463306 -40.205799
v -143.643997 9.463305 -31.635298
v -146.153305 9.463305 -31.450699
v -143.523895 9.463305 -31.051199
v -136.650604 9.946807 -41.037601
v -143.248993 9.946807 -40.551998
v -142.807495 9.946806 -34.552502
v -136.209106 9.946906 -35.038101
v -136.593399 9.946806 -35.009800
v -141.550903 9.946806 -34.645000
v -141.298492 9.946805 -31.214897
v -136.340897 9.946805 -31.579798
v -198.139404 6.272927 445.038513
v -200.083099 6.272927 445.223389
v -199.700699 6.272927 449.243286
v -182.161407 6.272927 447.575104
v -198.359100 6.272928 442.728088
v -182.763199 6.272928 441.247314
v -197.107895 6.880328 444.892090
v -196.720993 6.880327 448.959900
v -183.197403 6.880327 447.673706
v -183.584305 6.880328 443.605804
v -194.190094 6.880328 442.332214
v -193.974899 6.880328 444.594086
v -183.799301 6.880328 441.345886
v 636.047424 69.648926 -154.283981
v 624.983093 69.648926 -152.321686
v 627.402222 69.648926 -138.710190
v 638.200012 69.648926 -140.390289
v 636.047424 84.274719 -154.283981
v 624.983093 84.274719 -152.321686
v 626.043274 84.274719 -146.356186
v 636.975281 84.274719 -148.294983
v 631.824219 93.445320 -147.381485
v 626.043274 93.445320 -146.356186
v 627.402222 93.445320 -138.710190
v 633.202026 93.445320 -139.612686
v 631.252686 84.879822 -149.810486
v 631.501221 84.879822 -148.206284
v 635.986816 84.879822 -149.001785
v 635.325012 84.879822 -153.273682
v 626.462524 84.879822 -148.960983
v 625.990295 84.879822 -151.618179
v 629.018127 94.391121 -140.972290
v 630.891418 94.391121 -141.263779
v 630.214905 94.391121 -145.078278
v 629.642029 94.391121 -144.026779
v 629.478699 94.391121 -144.947678
v 628.506592 94.391121 -143.850082
v -468.527496 12.576798 620.458313
v -467.226715 12.576798 620.549927
v -467.059998 12.576798 618.208130
v -483.681305 12.576799 617.037781
v -484.315399 12.576797 625.943726
v -468.995911 12.576797 627.036377
v -467.819489 13.528599 618.867188
v -483.022614 13.528599 617.796814
v -483.261108 13.528599 621.145203
v -469.186096 13.528599 619.699280
v -478.526001 13.528599 621.478577
v -469.654388 13.528598 626.276672
v -478.821106 13.528598 625.622925
v -467.885315 13.528599 619.790894
vt 0.0000 0.9866
vt 0.9795 0.9866
vt 0.9787 0.0000
vt 0.0000 0.0010
vt 0.0008 0.0000
vt 0.0000 1.0000
vt 1.3516 1.0000
vt 1.3520 0.0025
vt 0.0002 -0.0000
vt 0.0000 1.0000
vt 0.6494 1.0000
vt 0.6495 -0.0000
vt 0.0000 0.0000
vt 0.0000 1.0000
vt 1.0000 1.0000
vt 1.0000 0.0020
vt 1.1018 0.2847
vt 0.0022 0.0000
vt 0.0000 0.9530
vt 1.1455 0.9530
vt 1.1456 0.2954
vt 1.1240 0.2893
vt 0.5931 0.8920
vt 0.5041 0.0000
vt -0.0000 0.2037
vt 0.0696 0.8920
vt 0.0000 0.6282
vt 0.9615 0.6282
vt 0.9616 0.3391
vt 0.9013 0.3178
vt 0.9189 0.3227
vt 0.0011 0.0000
vt 1.0490 0.0000
vt 0.0000 0.2466
vt 0.1405 1.0544
vt 1.2299 1.0544
vt 1.0820 0.0000
vt -0.0000 0.5702
vt 0.0334 1.0000
vt 1.1585 1.0000
vt 0.1009 0.5955
vt 0.9077 0.5955
vt 0.7770 0.0000
vt -0.0000 0.1427
vt 0.0255 1.0000
vt 1.0125 1.0000
vt 0.9491 0.0000
vt -0.0000 0.6039
vt 1.1113 1.0000
vt 0.9507 0.0000
vt 0.0000 0.2387
vt 0.1240 1.0000
vt 1.1650 1.0000
vt 1.0955 0.0000
vt -0.0000 0.6356
vt 0.0257 1.0000
vt 1.1001 -0.0000
vt -0.0000 0.6776
vt 0.0214 1.0000
vt 1.1656 1.0000
vt 0.0000 1.0000
vt 1.0000 1.0000
vt 1.0000 0.0000
vt 0.0000 0.0000
vt 0.0000 1.0000
vt 1.0000 1.0000
vt 1.0000 0.0000
vt 0.0000 0.0000
vt 0.0000 1.0000
vt 1.0000 1.0000
vt 1.0000 0.0000
vt 0.0000 0.0000
vt 0.0000 1.0000
vt 1.0000 1.0000
vt 1.0000 0.0000
vt 0.0000 0.0000
vt 1.0235 0.0000
vt 0.0389 0.0220
vt 0.0000 1.6099
vt 1.0235 1.6099
vt 1.1468 1.0000
vt 1.1419 0.1132
vt 0.0000 0.0000
vt 0.0000 1.0000
vt 1.6223 1.0000
vt 1.6032 0.4410
vt 0.7607 0.4410
vt 0.0000 0.0617
vt 0.7427 0.0000
vt 0.0382 1.0000
vt 0.0000 0.7776
vt 0.9398 0.7776
vt 0.9515 0.0303
vt 0.0120 -0.0000
vt 0.0000 1.1327
vt 1.0367 1.1327
vt 1.0376 -0.0000
vt 0.0012 0.0310
vt 0.0000 1.0000
vt 0.9876 1.0000
vt 0.9880 -0.0000
vt 0.0005 0.0672
vt 0.0000 0.9560
vt 0.8086 0.9560
vt 0.8231 0.0263
vt 0.0147 0.0000
vt 0.0000 1.0000
vt 0.7653 1.0000
vt 0.7707 0.0676
vt 0.0056 -0.0000
vt -0.0000 0.6934
vt 0.6616 0.6934
vt 0.6622 0.0000
vt 0.0008 0.0190
vt 0.0000 1.0000
vt 1.4988 1.0000
vt 1.4994 0.0000
vt 0.0007 0.0680
vt 0.0000 1.0000
vt 1.0889 1.0000
vt 1.1084 0.0275
vt 0.0197 0.0000
vt 0.0000 1.0000
vt 0.8804 1.0000
vt 0.8865 0.0684
vt 0.0064 -0.0000
vt 0.0000 1.0000
vt 0.9991 1.0000
vt 1.0000 0.0000
vt 0.0012 0.0274
vt 0.0000 1.0000
vt 0.7194 1.0000
vt 0.7197 0.0000
vt 0.0003 0.0688
vt 0.7861 0.3564
vt 0.7864 -0.0000
vt 0.0009 0.0282
vt 0.0000 1.0000
vt 1.0000 0.3564
vt 0.9996 1.0000
vt 0.0000 1.0000
vt 0.6184 1.0000
vt 0.6184 0.0000
vt 0.0000 0.0000
vt 0.0000 1.0000
vt 1.0000 1.0000
vt 1.0000 0.0000
vt 0.0000 0.0000
vt 0.4689 0.1391
vt 0.4689 0.0000
vt 0.0000 0.0000
vt 1.0471 1.0000
vt 0.0002 1.0000
vt 0.7813 0.1391
vt 1.1791 0.0000
vt 0.7996 0.0000
vt 0.0000 0.0000
vt 0.0024 1.0001
vt 1.0000 1.0000
vt 0.9976 0.0028
vt 0.1310 0.2401
vt 0.1310 0.0000
vt 0.0000 0.0000
vt 0.0002 1.0000
vt 0.7336 0.6074
vt 1.0000 0.6074
vt 0.9588 1.0000
vt 0.7335 0.2401
vt 0.7858 0.4945
vt 0.7864 -0.0000
vt 0.0011 0.0063
vt 0.0000 0.8399
vt 0.8956 0.4945
vt 0.8951 0.8399
vt 0.0000 1.0000
vt 0.6666 1.0000
vt 0.6666 0.0000
vt 0.0000 0.0000
vt 0.0000 1.1082
vt 1.2784 1.1082
vt 1.2789 0.0428
vt 0.0006 0.0000
vt 0.0271 0.0001
vt 0.0000 0.9981
vt 1.2428 0.9981
vt 1.2418 0.0000
vt 0.0088 1.2216
vt 0.8876 1.2216
vt 0.8784 0.0000
vt -0.0000 0.0590
vt -0.0000 1.1743
vt 1.0716 1.1743
vt 1.0707 0.0000
vt 0.0233 0.0002
vt 0.0002 -0.0000
vt 0.0000 1.0358
vt 0.5884 1.0358
vt 0.5886 0.0502
vt 0.6443 0.8403
vt 0.6438 0.0000
vt 0.0140 0.0001
vt -0.0000 0.8403
vt 0.0000 1.0000
vt 1.2709 1.0000
vt 1.2713 0.0488
vt 0.0005 0.0000
vt 0.0218 0.0001
vt 0.0000 1.0000
vt 1.0000 1.0000
vt 0.9992 0.0000
vt 0.0039 1.0000
vt 0.8183 1.0000
vt 0.8165 0.5529
vt 0.2107 0.5528
vt 0.2085 -0.0000
vt 0.0000 0.0264
vt 0.0000 1.0000
vt 1.0000 1.0000
vt 0.9992 0.0000
vt 0.0218 0.0001
vt 1.0000 1.0000
vt 0.9996 0.5648
vt 0.7489 0.5648
vt 0.0218 0.0001
vt 0.7612 0.0000
vt 0.0000 1.0000
vt 0.0010 1.0145
vt 1.7027 1.0145
vt 1.6648 0.0000
vt 0.0000 0.0246
vt 0.0008 0.8249
vt 1.3846 0.8249
vt 1.3526 0.0000
vt 0.0000 0.0193
vt 1.0000 1.0000
vt 0.9888 0.4997
vt 0.5870 0.4997
vt -0.0000 0.0145
vt 0.5867 -0.0000
vt 0.0006 1.0000
vt 0.8272 0.0677
vt 0.8273 0.0003
vt 0.0011 0.0000
vt 0.0000 0.6790
vt 1.3500 0.0677
vt 1.3502 0.6790
vt 0.0000 1.0000
vt 0.9994 1.0000
vt 1.0000 0.0000
vt 0.0006 0.0000
vt 0.0002 -0.0000
vt 0.0000 1.0000
vt 1.0000 1.0000
vt 1.0000 0.0023
vt -0.0000 0.7322
vt 0.8434 0.7322
vt 0.8435 0.0000
vt 0.1681 0.4734
vt 0.1682 0.2780
vt 0.0000 0.2815
vt 0.0001 0.0173
vt 0.0000 0.4734
vt 0.0000 1.0000
vt 0.5730 1.0000
vt 0.5730 -0.0000
vt 0.0000 0.0000
vt 0.0000 1.0000
vt 1.0000 1.0000
vt 1.0000 0.0000
vt 0.0000 0.0000
vt 0.0000 0.0000
vt 0.1152 0.6035
vt 1.2681 0.6035
vt 0.9244 0.0378
vt 1.1601 0.0378
vt 0.9172 0.0001
vt 0.0000 1.0000
vt 1.0000 1.0000
vt 1.0000 0.0000
vt 0.0000 0.0000
vt 0.0000 1.0000
vt 1.0000 1.0000
vt 1.0000 0.0000
vt 0.0000 0.0000
vt 0.0887 0.3650
vt -0.0000 0.3650
vt 0.0000 1.0000
vt 0.8003 1.0000
vt 0.0887 0.0000
vt 0.8003 0.0004
vt 0.0000 0.0000
vt 0.0000 1.0000
vt 1.0177 1.0000
vt 1.0177 0.0000
vt 0.0000 0.0000
vt 0.0000 1.0000
vt 1.1983 1.0000
vt 1.1983 0.0009
vt 1.5458 0.7928
vt 1.5189 -0.0000
vt 0.0000 0.0216
vt 0.0008 0.7928
vt 0.0000 1.0000
vt 0.9391 1.0000
vt 0.9389 -0.0000
vt 0.0110 0.0000
vt 0.6941 1.0000
vt 0.6941 0.0000
vt 0.0109 0.0005
vt 0.0000 1.0000
vt 0.3628 0.3755
vt 0.3656 0.0000
vt 0.0074 0.0000
vt 0.0000 1.0000
vt 0.7452 0.3755
vt 0.7453 1.0000
vt 0.0104 0.0006
vt 0.0000 1.0000
vt 1.0000 1.0000
vt 0.7586 0.6058
vt 1.0000 0.6058
vt 0.7648 0.0000
vt 0.0509 0.6082
vt 0.0001 0.6082
vt 0.0000 0.8247
vt 0.6494 0.8247
vt 0.6497 0.0013
vt 0.0511 -0.0000
vt 0.0000 1.0000
vt 1.0932 1.0000
vt 1.0934 0.5536
vt 0.0936 0.8769
vt 0.7529 0.5536
vt 0.0940 0.0000
vt 0.7531 0.0011
vt 0.0001 0.8769
vn 0.0000 1.0000 0.0000
g CityEngineMaterial_694_CityEngineMaterial_694_CityEngineMaterial_694_mat
usemtl CityEngineMaterial_694_mat
s 1
f 1/1/1 2/2/1 3/3/1 4/4/1
f 5/5/1 6/6/1 7/7/1 8/8/1
f 9/9/1 10/10/1 11/11/1 12/12/1
f 13/13/1 14/14/1 15/15/1 16/16/1
f 17/17/1 18/18/1 19/19/1 20/20/1
f 17/17/1 20/20/1 21/21/1 22/22/1
f 23/23/1 24/24/1 25/25/1 26/26/1
f 27/27/1 28/28/1 29/29/1 30/30/1
f 29/29/1 31/31/1 30/30/1
f 32/32/1 27/27/1 30/30/1
f 33/33/1 34/34/1 35/35/1 36/36/1
f 37/37/1 38/38/1 39/39/1 40/40/1
f 41/41/1 42/42/1 43/43/1 44/44/1
f 45/45/1 46/46/1 47/47/1 48/48/1
f 49/49/1 50/50/1 51/51/1 52/52/1
f 53/53/1 54/54/1 55/55/1 56/56/1
f 57/57/1 58/58/1 59/59/1 60/60/1
f 61/61/1 62/62/1 63/63/1 64/64/1
f 65/65/1 66/66/1 67/67/1 68/68/1
f 69/69/1 70/70/1 71/71/1 72/72/1
f 73/73/1 74/74/1 75/75/1 76/76/1
f 77/77/1 78/78/1 79/79/1 80/80/1
f 81/81/1 82/82/1 83/83/1 84/84/1
f 85/85/1 86/86/1 87/87/1 88/88/1
f 87/87/1 89/89/1 88/88/1
f 85/85/1 88/88/1 90/90/1
f 91/91/1 92/92/1 93/93/1 94/94/1
f 95/95/1 96/96/1 97/97/1 98/98/1
f 99/99/1 100/100/1 101/101/1 102/102/1
f 103/103/1 104/104/1 105/105/1 106/106/1
f 107/107/1 108/108/1 109/109/1 110/110/1
f 111/111/1 112/112/1 113/113/1 114/114/1
f 115/115/1 116/116/1 117/117/1 118/118/1
f 119/119/1 120/120/1 121/121/1 122/122/1
f 123/123/1 124/124/1 125/125/1 126/126/1
f 127/127/1 128/128/1 129/129/1 130/130/1
f 131/131/1 132/132/1 133/133/1 134/134/1
f 135/135/1 136/136/1 137/137/1 138/138/1
f 139/139/1 135/135/1 138/138/1 140/140/1
f 141/141/1 142/142/1 143/143/1 144/144/1
f 145/145/1 143/146/1 146/147/1 147/148/1
f 148/149/1 149/150/1 150/151/1 151/152/1
f 150/151/1 152/153/1 151/152/1
f 153/154/1 148/149/1 151/152/1 154/155/1
f 153/154/1 154/155/1 155/156/1
f 156/157/1 157/158/1 158/159/1 159/160/1
f 160/161/1 161/162/1 162/163/1 163/164/1
f 164/165/1 160/161/1 163/164/1 165/166/1
f 163/164/1 166/167/1 165/166/1
f 160/161/1 164/165/1 167/168/1
f 168/169/1 169/170/1 170/171/1 171/172/1
f 172/173/1 168/169/1 171/172/1 173/174/1
f 174/175/1 175/176/1 176/177/1 177/178/1
f 178/179/1 179/180/1 180/181/1 181/182/1
f 182/183/1 183/184/1 184/185/1 185/186/1
f 186/187/1 187/188/1 188/189/1 189/190/1
f 190/191/1 191/192/1 192/193/1 193/194/1
f 194/195/1 195/196/1 196/197/1 197/198/1
f 198/199/1 199/200/1 200/201/1 201/202/1
f 202/203/1 203/204/1 204/205/1 205/206/1
f 206/207/1 207/208/1 208/209/1 209/210/1
f 210/211/1 211/212/1 212/213/1 213/214/1
f 210/211/1 213/214/1 214/215/1 215/216/1
f 216/217/1 217/218/1 218/219/1 219/220/1
f 220/221/1 221/222/1 222/223/1 223/224/1
f 222/223/1 224/225/1 223/224/1
f 220/221/1 223/224/1 225/226/1
f 226/227/1 227/228/1 228/229/1 229/230/1
f 230/231/1 231/232/1 232/233/1 233/234/1
f 234/235/1 235/236/1 236/237/1 237/238/1
f 236/237/1 238/239/1 237/238/1
f 234/235/1 237/238/1 239/240/1
f 240/241/1 241/242/1 242/243/1 243/244/1
f 244/245/1 240/241/1 243/244/1 245/246/1
f 246/247/1 247/248/1 248/249/1 249/250/1
f 250/251/1 251/252/1 252/253/1 246/254/1
f 253/255/1 254/256/1 255/257/1 256/258/1
f 257/259/1 256/258/1 255/257/1 258/260/1
f 255/257/1 259/261/1 258/260/1
f 253/255/1 256/258/1 260/262/1
f 261/263/1 262/264/1 263/265/1 264/266/1
f 265/267/1 266/268/1 267/269/1 268/270/1
f 269/271/1 270/272/1 271/273/1 272/274/1
f 271/273/1 273/275/1 272/274/1
f 269/271/1 272/274/1 274/276/1
f 275/277/1 276/278/1 277/279/1 278/280/1
f 279/281/1 280/282/1 281/283/1 282/284/1
f 283/285/1 284/286/1 285/287/1 286/288/1
f 287/289/1 283/285/1 286/288/1 288/290/1
f 289/291/1 290/292/1 291/293/1 292/294/1
f 293/295/1 294/296/1 292/297/1 295/298/1
f 296/299/1 297/300/1 298/301/1 299/302/1
f 300/303/1 301/304/1 302/305/1 303/306/1
f 304/307/1 305/308/1 306/309/1 307/310/1
f 308/311/1 309/312/1 310/313/1 311/314/1
f 312/315/1 308/311/1 311/314/1 313/316/1
f 314/317/1 315/318/1 316/319/1 317/320/1
f 316/319/1 318/321/1 317/320/1
f 319/322/1 314/317/1 317/320/1
f 320/323/1 321/324/1 322/325/1 323/326/1
f 320/323/1 323/326/1 324/327/1 325/328/1
f 326/329/1 327/330/1 328/331/1 329/332/1
f 329/332/1 328/331/1 330/333/1 331/334/1
f 330/333/1 332/335/1 331/334/1
f 326/329/1 329/332/1 333/336/1
