# Blender v2.78 (sub 0) OBJ File: ''
# www.blender.org
mtllib CityEngineMaterial_335.mtl
o CityEngineMaterial_335
v -1176.056030 21.858217 505.471985
v -1177.821411 21.858217 505.069611
v -1178.825439 21.858215 509.477509
v -1171.991699 21.858215 511.035187
v -1175.548706 21.858217 503.244995
v -1170.480103 21.858217 504.399994
v -1406.836182 18.985729 437.693298
v -1408.886841 18.985729 436.740906
v -1413.184082 18.985727 445.970490
v -1406.193970 18.985727 449.216888
v -1406.264282 18.985729 435.744812
v -1402.722534 18.985729 437.390991
v -1405.769775 20.188627 447.649811
v -1403.506836 20.188627 439.940796
v -1407.278809 20.188629 438.833496
v -1409.541870 20.188627 446.542603
v -1407.814941 20.188627 440.659790
v -1409.994019 20.188627 440.020111
v -1411.721069 20.188627 445.902893
v 95.261299 44.562160 -974.815613
v 88.098297 44.562160 -973.956116
v 89.895699 44.562157 -958.928772
v 95.338402 44.562157 -959.581787
v 95.555298 44.562157 -957.768372
v 97.275703 44.562157 -957.974670
v 95.560097 46.071861 -972.318115
v 90.703102 46.071861 -971.735901
v 91.903198 46.071857 -961.702698
v 96.760201 46.071857 -962.284790
v 91.393898 46.071857 -965.960388
v 89.087700 46.071857 -965.684692
v 89.597000 46.071857 -961.426270
v 461.741791 43.404079 128.425095
v 465.863190 43.404079 128.140900
v 465.430511 43.404079 121.870506
v 448.534302 43.404079 123.035706
v 461.949310 43.404076 131.444199
v 449.170410 43.404076 132.291107
v 459.972107 43.960281 122.246910
v 449.870789 43.960281 122.943504
v 450.201691 43.960281 127.740906
v 460.303009 43.960281 127.044205
v 454.199097 43.960281 127.465210
v 450.509094 43.960278 132.198807
v 454.506500 43.960278 131.923096
v -725.536377 10.862969 187.196304
v -715.272888 10.862969 185.397705
v -715.901123 10.862970 182.372696
v -717.221985 10.862970 182.604202
v -718.536621 10.862971 176.273697
v -717.713623 10.862971 173.643997
v -717.224426 10.862971 176.000107
v -727.909424 10.862971 175.769394
v -727.745178 11.314072 176.559601
v -725.700623 11.314070 186.406097
v -720.571777 11.314070 185.341003
v -722.616516 11.314072 175.494598
v -721.551514 11.314071 180.623001
v -716.815613 11.314070 184.561096
v -717.795288 11.314071 179.843002
v 682.076721 37.464134 402.328613
v 682.833130 37.464134 405.574402
v 685.271423 37.464134 405.015503
v 697.280212 37.464134 407.448792
v 686.426270 37.464130 409.947815
v 695.367920 37.464134 399.282501
v 693.510681 39.009434 399.708099
v 686.423096 39.009434 401.332489
v 687.623230 39.009434 406.569000
v 694.710876 39.009434 404.944611
v 693.309387 39.009434 405.265808
v 689.388916 39.009434 406.164307
v 690.053101 39.009434 409.062195
v 693.973572 39.009434 408.163696
v -242.910904 7.659124 466.915009
v -243.931702 7.659124 467.012085
v -243.546097 7.659123 471.066986
v -232.432800 7.659023 470.009888
v -243.379395 7.659125 461.989685
v -233.286896 7.659025 461.029785
v -239.944397 8.361225 464.828094
v -239.686905 8.361224 467.534912
v -235.867798 8.361224 467.171600
v -237.712296 8.361224 465.580688
v -236.034302 8.361224 465.421112
v -237.803299 8.361225 464.624390
v -92.539703 10.093823 -148.690598
v -92.791100 10.093824 -150.560196
v -109.074402 10.093823 -146.861298
v -107.451103 10.093822 -131.811996
v -90.925301 10.093822 -133.587402
v -96.076103 58.022224 -148.248978
v -105.411400 58.022224 -146.128479
v -104.071800 58.022224 -133.709778
v -94.630402 58.022224 -134.724091
v -93.764503 58.531422 -145.792282
v -107.097504 58.531422 -142.763687
v -106.409302 58.531422 -136.383087
v -92.913696 58.531422 -137.832977
v -103.168999 64.184425 -135.097290
v -95.807198 64.184425 -135.888184
v -96.966202 64.184425 -146.730988
v -104.245399 64.184425 -145.077484
v -105.128998 73.062622 -137.280182
v -94.355301 73.062622 -138.437592
v -95.028000 73.062622 -144.730988
v -105.671898 73.062622 -142.313187
v -97.546799 68.497925 -145.536987
v -103.442299 68.497925 -144.197784
v -102.579903 68.497925 -136.202286
v -96.617500 68.497925 -136.842789
v -95.974701 77.422020 -143.899490
v -104.596100 77.422020 -141.940979
v -104.169701 77.422020 -137.987778
v -95.443001 77.422020 -138.925385
v -102.009499 75.543427 -137.093079
v -97.363899 75.543427 -137.592178
v -98.109100 75.543427 -144.563385
v -102.702797 75.543427 -143.519882
v -103.341904 79.390526 -138.551392
v -96.371498 79.390526 -139.300186
v -96.791496 79.390526 -143.229980
v -103.677803 79.390526 -141.665680
v -98.474197 77.511925 -143.797592
v -102.194603 77.511925 -142.952484
v -101.639198 77.511925 -137.802689
v -97.876503 77.511925 -138.206787
v -97.552597 80.081825 -143.057083
v -103.277901 80.081825 -141.756485
v -102.821404 80.081825 -139.746979
v -97.096100 80.081825 -141.047592
v -98.698799 80.081825 -140.683487
v -100.146301 80.081825 -140.354691
v -99.904198 80.081825 -139.288879
v -98.456703 80.081825 -139.617691
v -97.963097 78.102226 -138.838882
v -98.375397 78.102226 -142.695084
v -100.346199 78.102226 -142.484390
v -99.933998 78.102226 -138.628189
v -100.118202 78.102226 -140.351578
v -102.119400 78.102226 -142.294891
v -101.891403 78.102226 -140.162079
v -239.888702 9.407691 54.242001
v -238.141495 9.407689 66.835701
v -229.251297 9.407689 65.601402
v -235.874893 9.407691 55.150299
v -234.285095 9.407691 54.929600
v -234.485794 9.407691 53.492001
v -231.009598 9.407691 53.009499
v -236.074493 9.407691 53.712502
v -236.945999 10.037689 65.254799
v -234.380203 10.037689 64.898598
v -234.978195 10.037690 60.588501
v -237.070404 10.037690 56.731098
v -232.703201 10.037690 56.124802
v -231.434998 10.037690 60.096600
v -232.903900 10.037691 54.687302
v -232.203796 10.037691 54.590099
v -237.269897 10.037691 55.293301
v -238.308105 10.037691 55.437401
v -569.393921 13.194317 507.378906
v -568.791687 13.194317 507.386108
v -568.568176 13.194318 505.023987
v -578.302002 13.194317 512.017822
v -577.630188 13.194318 504.916412
v -569.583801 13.194317 509.386993
v -568.986328 13.194317 509.443512
v -569.310303 13.194316 512.868286
v -570.803528 14.748318 505.034790
v -576.628784 14.748318 504.965515
v -576.686890 14.748317 509.851501
v -570.861572 14.748317 509.920685
v -572.580017 14.748317 509.900299
v -572.606506 14.748317 512.133972
v -570.888123 14.748317 512.154419
v -574.778198 14.748317 509.874207
v -576.713379 14.748317 512.085205
v -574.804688 14.748317 512.107788
v 10.073300 39.118778 -1093.290894
v 9.351000 39.118778 -1097.901123
v 5.957500 39.118778 -1097.384277
v -1.630300 39.118778 -1103.496948
v 5.296800 39.118778 -1101.601807
v 8.230700 39.118778 -1105.051636
v 8.687400 39.118778 -1102.136353
v 0.204000 39.118778 -1091.787964
v 744.992981 42.030437 364.683105
v 747.704712 42.030441 361.901703
v 747.173889 42.030441 361.384003
v 747.856323 42.030441 350.542114
v 752.934387 42.030441 355.476990
v 739.392578 42.030441 359.221313
v 747.898071 42.914242 353.646606
v 742.499695 42.914242 359.182312
v 743.208374 42.914242 359.873505
v 745.560974 42.914242 357.460907
v 749.824585 42.914242 355.518707
v 746.777588 42.914242 358.643188
v 307.909088 54.728546 -272.983612
v 307.570312 54.728546 -277.091797
v 299.219513 54.728546 -276.283295
v 300.003815 54.728542 -266.775391
v 310.625793 54.728546 -273.217590
v 311.070587 54.728542 -267.728485
v 301.267212 55.709343 -268.271393
v 309.582092 55.709343 -268.987396
v 309.360504 55.709347 -271.721497
v 306.645813 55.709347 -271.487701
v 304.029785 55.709347 -272.908508
v 306.510986 55.709347 -273.122192
v 303.829193 55.709347 -275.341095
v 300.708893 55.709347 -275.039001
v 374.117310 58.157032 -187.183289
v 371.661011 58.157036 -203.098389
v 363.218994 58.157036 -201.803391
v 369.467194 58.157032 -189.509979
v 365.234894 58.157032 -188.860779
v 369.925903 58.157032 -186.538086
v 373.492188 58.761631 -190.953888
v 371.732300 58.761635 -202.356888
v 366.257904 58.761635 -201.511978
v 368.017700 58.761631 -190.108978
v 367.314301 58.761631 -194.666687
v 363.351593 58.761635 -201.063385
v 364.408112 58.761631 -194.218185
v -521.901306 15.374405 -646.811218
v -525.881104 15.374408 -659.922180
v -538.343872 15.374407 -656.134216
v -534.354675 15.374405 -643.018982
v -521.901306 24.647205 -646.811218
v -525.779724 24.647207 -659.587891
v -538.242188 24.647207 -655.799988
v -534.354675 24.647205 -643.018982
v -528.590820 26.064304 -647.195190
v -531.129272 26.064306 -655.541016
v -537.568115 26.064306 -653.583374
v -535.028870 26.064304 -645.235474
v -522.919189 26.064306 -650.161072
v -524.643127 26.064306 -655.846375
v -530.664978 26.064306 -654.014709
v -528.936218 26.064304 -648.330872
vt 0.2583 0.3357
vt 0.0000 0.3357
vt 0.0001 1.0000
vt 1.0000 1.0000
vt 0.2583 0.0001
vt 0.9999 0.0000
vt 1.1194 0.4933
vt 1.1540 0.1999
vt 0.1180 0.0000
vt -0.0000 1.0000
vt 1.3284 0.4933
vt 1.2685 1.0000
vt -0.0000 1.0000
vt 0.6635 1.0000
vt 0.6635 0.0000
vt -0.0000 0.0000
vt -0.0000 1.0000
vt 1.0000 1.0000
vt 1.0000 0.0000
vt -0.0000 0.0000
vt 0.5550 1.0000
vt 0.5549 0.0000
vt 0.0597 -0.0000
vt 0.0598 0.7598
vt 0.0000 0.7598
vt 0.0001 1.0000
vt -0.0000 0.0000
vt 0.0001 1.0000
vt 0.9496 1.0000
vt 0.9495 -0.0000
vt -0.0000 0.0000
vt -0.0000 1.0000
vt 1.0000 1.0000
vt 0.9999 0.0000
vt 0.2427 0.3382
vt 0.0000 0.3382
vt 0.0000 1.0407
vt 0.9949 1.0407
vt 0.2427 0.0000
vt 0.9950 0.0038
vt -0.0000 1.0000
vt 1.2665 1.0000
vt 1.2665 0.0000
vt -0.0000 0.0000
vt -0.0000 0.0000
vt -0.0000 1.0000
vt 1.0000 1.0000
vt 1.0000 0.0000
vt 1.2237 0.6982
vt 1.2578 -0.0000
vt 0.9341 -0.0000
vt 0.9297 0.0899
vt 0.2523 0.0899
vt -0.0000 0.0000
vt 0.2521 -0.0000
vt 0.0008 0.6982
vt -0.0000 1.0000
vt 0.9433 1.0000
vt 0.9433 0.0000
vt -0.0000 0.0000
vt -0.0000 1.0000
vt 1.0000 1.0000
vt 1.0000 0.0000
vt -0.0000 0.0000
vt 1.5624 0.7988
vt 1.5610 0.4818
vt 1.2752 0.4818
vt 0.0000 0.0011
vt 1.2725 -0.0000
vt 0.0045 0.7988
vt -0.0000 1.0000
vt 1.0000 1.0000
vt 1.0000 0.0000
vt -0.0000 0.0000
vt -0.0000 1.0000
vt 1.0000 1.0000
vt 1.0000 0.0000
vt -0.0000 0.0000
vt 0.0818 0.5474
vt 0.0000 0.5474
vt 0.0000 0.9980
vt 0.8901 0.9980
vt 0.0818 0.0000
vt 0.8901 0.0000
vt -0.0000 0.0000
vt -0.0000 1.0000
vt 1.0000 1.0000
vt 0.5606 0.3533
vt 1.0000 0.3533
vt 0.5606 0.0000
vt 0.0067 0.6011
vt 0.0000 0.6759
vt 0.6590 0.6759
vt 0.7281 0.0769
vt 0.0766 -0.0000
vt 1.6261 1.0563
vt 1.4927 0.0000
vt -0.0000 0.0013
vt 0.0006 1.0563
vt -0.0000 0.5310
vt 1.0800 0.5310
vt 1.1386 0.1052
vt 0.0737 -0.0000
vt -0.0000 0.0013
vt 0.0002 1.0000
vt 0.6981 1.0000
vt 0.6424 0.0000
vt 0.9699 0.2001
vt 0.0622 0.0000
vt -0.0000 1.0000
vt 0.9205 1.0000
vt 0.7273 1.0000
vt 0.6686 0.0000
vt -0.0000 0.0013
vt 0.0002 1.0000
vt -0.0000 1.0000
vt 0.6257 1.0000
vt 0.6583 0.2051
vt 0.0413 0.0000
vt -0.0000 0.0013
vt 0.0002 1.0000
vt 1.0000 1.0000
vt 0.9217 0.0000
vt 1.0000 0.2073
vt 0.0621 0.0000
vt -0.0000 1.0000
vt 0.9512 1.0000
vt 1.0000 1.0000
vt 0.9209 0.0000
vt -0.0000 0.0013
vt 0.0002 1.0000
vt -0.0000 1.0000
vt 1.0000 1.0000
vt 1.0000 0.0000
vt -0.0000 0.0000
vt -0.0000 1.0000
vt 1.0000 1.0000
vt 1.0000 0.0000
vt -0.0000 0.0000
vt -0.0000 1.0000
vt 1.0000 1.0000
vt 1.0000 0.0000
vt -0.0000 0.0000
vt -0.0000 1.0000
vt 1.0000 1.0000
vt 1.0000 0.0000
vt -0.0000 0.0000
vt 0.0000 0.7142
vt 0.9665 0.7142
vt 0.9664 -0.0000
vt 0.1104 0.4078
vt 0.1104 0.2801
vt 0.0000 0.2802
vt -0.0000 0.0009
vt 0.0000 0.4078
vt 1.0034 1.0000
vt 1.0034 0.5800
vt 0.5629 0.5800
vt 0.1470 0.8301
vt 0.1469 0.1152
vt 0.5629 0.0000
vt 0.0000 0.1154
vt -0.0000 0.0009
vt 0.0000 0.8301
vt 0.0001 1.0000
vt 0.0526 0.6989
vt 0.0129 0.6989
vt -0.0000 1.0000
vt 0.6361 0.0947
vt 0.5974 1.0000
vt 0.0635 0.4429
vt 0.0241 0.4366
vt 0.0428 -0.0000
vt -0.0000 1.0000
vt 1.0000 1.0000
vt 1.0000 0.0000
vt -0.0000 0.0000
vt -0.0000 1.0000
vt 1.0000 1.0000
vt 1.0000 0.0000
vt -0.0000 0.0000
vt -0.0000 1.0000
vt 1.0000 1.0000
vt 1.0000 0.0000
vt 1.0411 0.0000
vt 0.6330 0.0000
vt 0.6317 0.3181
vt 0.0009 0.9252
vt 0.2584 0.3181
vt -0.0000 0.0000
vt 0.2581 0.0000
vt 1.0374 0.9252
vt 0.9167 0.0000
vt 0.6232 0.0001
vt 0.6232 0.0948
vt 0.0009 1.0000
vt -0.0000 0.0948
vt 0.9166 1.0000
vt 0.0006 1.0000
vt 1.0000 1.0000
vt 1.0000 0.6315
vt 0.5644 0.6315
vt -0.0000 0.0000
vt 0.5641 0.0000
vt 0.5660 0.5085
vt 0.5670 0.0000
vt 0.0023 0.0110
vt 0.0000 1.1877
vt 0.7495 0.5085
vt 0.7476 1.1877
vt -0.0000 1.0000
vt 0.7063 1.0000
vt 0.7075 0.5980
vt 0.4769 0.5980
vt 0.2666 0.3577
vt 0.4774 0.3577
vt 0.2674 0.0000
vt 0.0021 0.0049
vt 0.0000 0.5619
vt 0.7267 0.5619
vt 0.7270 -0.0000
vt 0.1358 0.2829
vt 0.1360 0.0012
vt 0.0001 0.2829
vt -0.0000 1.0000
vt 1.1526 1.0000
vt 1.1526 0.0000
vt -0.0000 0.0000
vt -0.0000 1.0000
vt 1.0000 1.0000
vt 1.0000 0.0000
vt -0.0000 0.0000
vt 0.0013 0.8996
vt 1.4922 0.8996
vt 1.4917 0.0000
vt 0.0000 0.0005
vt 1.2785 0.0008
vt 0.0003 -0.0000
vt 0.0000 1.3955
vt 1.2789 1.3955
vt 0.0001 1.0000
vt 1.0673 1.0000
vt 1.0675 0.0000
vt -0.0000 0.0000
vt 0.0008 -0.0000
vt -0.0000 1.0000
vt 1.0000 1.0000
vt 1.0000 0.0000
vn -0.0000 1.0000 0.0000
g CityEngineMaterial_335_CityEngineMaterial_335_CityEngineMaterial_335_mat
usemtl CityEngineMaterial_335_mat
s 1
f 1/1/1 2/2/1 3/3/1 4/4/1
f 5/5/1 1/1/1 4/4/1 6/6/1
f 7/7/1 8/8/1 9/9/1 10/10/1
f 11/11/1 7/7/1 10/10/1 12/12/1
f 13/13/1 14/14/1 15/15/1 16/16/1
f 16/17/1 17/18/1 18/19/1 19/20/1
f 20/21/1 21/22/1 22/23/1 23/24/1
f 20/21/1 23/24/1 24/25/1 25/26/1
f 26/27/1 27/28/1 28/29/1 29/30/1
f 30/31/1 31/32/1 32/33/1 28/34/1
f 33/35/1 34/36/1 35/37/1 36/38/1
f 37/39/1 33/35/1 36/38/1 38/40/1
f 39/41/1 40/42/1 41/43/1 42/44/1
f 43/45/1 41/46/1 44/47/1 45/48/1
f 46/49/1 47/50/1 48/51/1 49/52/1
f 46/49/1 49/52/1 50/53/1 51/54/1
f 50/53/1 52/55/1 51/54/1
f 46/49/1 51/54/1 53/56/1
f 54/57/1 55/58/1 56/59/1 57/60/1
f 58/61/1 56/62/1 59/63/1 60/64/1
f 61/65/1 62/66/1 63/67/1 64/68/1
f 63/67/1 65/69/1 64/68/1
f 61/65/1 64/68/1 66/70/1
f 67/71/1 68/72/1 69/73/1 70/74/1
f 71/75/1 72/76/1 73/77/1 74/78/1
f 75/79/1 76/80/1 77/81/1 78/82/1
f 79/83/1 75/79/1 78/82/1 80/84/1
f 81/85/1 82/86/1 83/87/1 84/88/1
f 83/87/1 85/89/1 84/88/1
f 81/85/1 84/88/1 86/90/1
f 87/91/1 88/92/1 89/93/1 90/94/1
f 87/91/1 90/94/1 91/95/1
f 92/96/1 93/97/1 94/98/1 95/99/1
f 96/100/1 97/101/1 98/102/1 99/103/1
f 100/104/1 101/105/1 102/106/1 103/107/1
f 104/108/1 105/109/1 106/110/1 107/111/1
f 108/112/1 109/113/1 110/114/1 111/115/1
f 112/116/1 113/117/1 114/118/1 115/119/1
f 116/120/1 117/121/1 118/122/1 119/123/1
f 120/124/1 121/125/1 122/126/1 123/127/1
f 124/128/1 125/129/1 126/130/1 127/131/1
f 128/132/1 129/133/1 130/134/1 131/135/1
f 132/136/1 133/137/1 134/138/1 135/139/1
f 136/140/1 137/141/1 138/142/1 139/143/1
f 140/144/1 138/145/1 141/146/1 142/147/1
f 143/148/1 144/149/1 145/150/1 146/151/1
f 147/152/1 146/151/1 145/150/1 148/153/1
f 145/150/1 149/154/1 148/153/1
f 143/148/1 146/151/1 150/155/1
f 151/156/1 152/157/1 153/158/1 154/159/1
f 155/160/1 154/159/1 153/158/1 156/161/1
f 157/162/1 155/160/1 156/161/1 158/163/1
f 151/156/1 154/159/1 159/164/1 160/165/1
f 161/166/1 162/167/1 163/168/1 164/169/1
f 163/168/1 165/170/1 164/169/1
f 166/171/1 161/166/1 164/169/1 167/172/1
f 164/169/1 168/173/1 167/172/1
f 169/174/1 170/175/1 171/176/1 172/177/1
f 172/177/1 173/178/1 174/179/1 175/180/1
f 176/181/1 171/182/1 177/183/1 178/184/1
f 179/185/1 180/186/1 181/187/1 182/188/1
f 182/188/1 181/187/1 183/189/1 184/190/1
f 183/189/1 185/191/1 184/190/1
f 179/185/1 182/188/1 186/192/1
f 187/193/1 188/194/1 189/195/1 190/196/1
f 189/195/1 191/197/1 190/196/1
f 187/193/1 190/196/1 192/198/1
f 193/199/1 194/200/1 195/201/1 196/202/1
f 197/203/1 193/199/1 196/202/1 198/204/1
f 199/205/1 200/206/1 201/207/1 202/208/1
f 203/209/1 199/205/1 202/208/1 204/210/1
f 205/211/1 206/212/1 207/213/1 208/214/1
f 209/215/1 205/211/1 208/214/1 210/216/1
f 205/211/1 209/215/1 211/217/1 212/218/1
f 213/219/1 214/220/1 215/221/1 216/222/1
f 215/221/1 217/223/1 216/222/1
f 213/219/1 216/222/1 218/224/1
f 219/225/1 220/226/1 221/227/1 222/228/1
f 223/229/1 221/230/1 224/231/1 225/232/1
f 226/233/1 227/234/1 228/235/1 229/236/1
f 230/237/1 231/238/1 232/239/1 233/240/1
f 234/241/1 235/242/1 236/243/1 237/244/1
f 238/245/1 239/246/1 240/247/1 241/248/1
