# Blender v2.78 (sub 0) OBJ File: ''
# www.blender.org
mtllib CityEngineMaterial_157.mtl
o CityEngineMaterial_157
v 90.089897 46.046120 -736.026428
v 86.810501 46.046124 -748.192017
v 86.810501 48.217724 -748.192017
v 90.089897 48.217617 -736.026428
v 67.836304 46.046124 -745.206482
v 67.836304 48.217621 -745.206482
v 69.794800 46.046120 -732.825073
v 69.794800 48.217617 -732.825073
v 86.810501 54.995022 -748.192017
v 90.089897 54.995018 -736.026428
v 75.917999 48.217724 -746.478088
v 75.917999 54.995022 -746.478088
v 79.198502 48.217720 -734.308472
v 79.198502 54.995018 -734.308472
v 77.228302 48.217724 -741.617371
v 77.228302 54.995022 -741.617371
v 68.764900 48.217621 -739.335999
v 68.764900 54.995022 -739.335999
v 69.794800 54.995018 -732.825073
v 76.458000 54.995022 -744.685608
v 79.086502 54.995018 -734.934814
v 79.086502 56.544319 -734.934814
v 76.458000 56.544323 -744.685608
v 86.185699 54.995018 -736.848511
v 86.185699 56.544319 -736.848511
v 83.557198 54.995022 -746.599426
v 83.557198 56.544323 -746.599426
v 83.845398 54.995022 -745.530273
v 85.147400 54.995022 -740.700195
v 85.147400 56.544323 -740.700195
v 83.845398 56.544323 -745.530273
v 88.580498 54.995022 -741.625671
v 88.580498 56.544323 -741.625671
v 87.278503 54.995022 -746.455688
v 87.278503 56.544323 -746.455688
v 70.444000 54.995018 -732.963318
v 77.797798 54.995018 -734.123230
v 77.797798 56.411716 -734.123230
v 70.444000 56.411716 -732.963318
v 77.172699 54.995022 -738.086304
v 77.172699 56.411720 -738.086304
v 69.818802 54.995018 -736.926270
v 69.818802 56.411716 -736.926270
v 71.647301 54.995018 -737.214722
v 75.361702 54.995022 -737.800720
v 75.361801 56.411720 -737.800720
v 71.647301 56.411716 -737.214722
v 74.965202 54.995022 -740.314270
v 74.965202 56.411720 -740.314270
v 71.250801 54.995022 -739.728516
v 71.250801 56.411720 -739.728516
v 309.640015 51.255062 -366.077606
v 316.065491 51.255062 -366.493408
v 316.065491 61.284061 -366.493408
v 309.640015 61.284061 -366.077606
v 315.216705 51.255062 -379.845398
v 315.216705 61.284061 -379.845398
v 308.226013 51.255062 -379.402496
v 308.226013 61.284061 -379.402496
v 308.674103 51.255062 -372.331787
v 308.674103 61.284061 -372.331787
v 309.240204 51.255062 -372.367615
v 309.240204 61.284061 -372.367615
v 309.186707 61.284061 -378.667114
v 308.621796 61.284061 -378.631287
v 308.621796 62.219860 -378.631287
v 309.186707 62.219860 -378.667114
v 308.997803 61.284061 -372.699188
v 308.997803 62.219860 -372.699188
v 309.563812 61.284061 -372.734985
v 309.563812 62.219860 -372.734985
v 314.893188 61.284061 -379.477997
v 311.944489 61.284061 -379.291107
v 311.944489 61.949661 -379.291107
v 314.893188 61.949661 -379.477997
v 312.372406 61.284061 -372.557800
v 312.372406 61.949760 -372.557800
v 309.586487 61.284161 -372.377502
v 309.586487 61.949760 -372.377502
v 309.963593 61.284061 -366.445496
v 309.963593 61.949760 -366.445496
v 315.697998 61.284161 -366.816589
v 315.697998 61.949760 -366.816589
v -64.676300 3.171030 430.832611
v -70.061302 3.171033 410.316589
v -70.061302 4.102133 410.316589
v -64.676300 4.102130 430.832611
v -93.677498 3.171032 414.477203
v -93.677498 4.102132 414.477203
v -90.005600 3.171029 435.302002
v -90.005600 4.102129 435.302002
v -88.375999 4.102133 413.543304
v -84.704300 4.102129 434.366608
v -84.704300 7.483829 434.366608
v -88.375999 7.483833 413.543304
v -69.995499 4.102129 431.771210
v -69.995499 7.483829 431.771210
v -75.380798 4.102133 411.253815
v -75.380798 7.483833 411.253815
v -93.275002 4.102132 416.760193
v -90.408096 4.102129 433.019104
v -90.408096 7.284430 433.019104
v -93.275002 7.284432 416.760193
v -65.266899 4.102130 428.582794
v -65.266899 7.284431 428.582794
v -69.470802 4.102133 412.566498
v -69.470802 7.284433 412.566498
v -84.132896 7.483829 433.154114
v -71.038498 7.483830 430.843597
v -71.038498 9.851029 430.843597
v -84.132896 9.851029 433.154114
v -75.866096 7.483833 412.450714
v -75.866096 9.851033 412.450714
v -87.424400 7.483832 414.487213
v -87.424400 9.851032 414.487213
v -89.254898 7.284430 431.947601
v -66.790604 7.284431 427.983612
v -66.790604 9.512031 427.983612
v -89.254898 9.512030 431.947601
v -70.559196 7.284433 413.626099
v -70.559196 9.512033 413.626099
v -91.824898 7.284432 417.372589
v -91.824898 9.512033 417.372589
v -71.968697 9.851030 430.011200
v -76.296501 9.851032 413.523102
v -76.296501 11.508032 413.523102
v -71.968697 11.508030 430.011200
v -86.575996 9.851032 415.334290
v -86.575996 11.508032 415.334290
v -83.625397 9.851029 432.068115
v -83.625397 11.508029 432.068115
v -68.152802 9.512031 427.446014
v -71.531097 9.512033 414.575409
v -71.531097 13.150433 414.575409
v -68.152802 13.150431 427.446014
v -90.528702 9.512033 417.922394
v -90.528702 13.150433 417.922394
v -88.224998 9.512030 430.987701
v -88.224998 13.150430 430.987701
v -85.813499 11.508032 416.141205
v -83.184799 11.508029 431.049011
v -83.184799 13.476529 431.049011
v -85.813499 13.476532 416.141205
v -72.808403 11.508030 429.218109
v -72.808403 13.476530 429.218109
v -76.663902 11.508032 414.529114
v -76.663902 13.476532 414.529114
v -89.359001 13.150433 418.499207
v -87.323097 13.150431 430.045807
v -87.323097 15.118931 430.045807
v -89.359001 15.118933 418.499207
v -69.388397 13.150431 426.881104
v -69.388397 15.118931 426.881104
v -72.373901 13.150433 415.506714
v -72.373901 15.118933 415.506714
v -84.664299 15.118931 426.248108
v -73.462303 15.118932 424.271515
v -73.462303 16.281031 424.271515
v -84.664299 16.281031 426.248108
v -74.333199 15.118932 420.953491
v -74.333199 16.281031 420.953491
v -82.808296 15.118932 422.448914
v -82.808296 16.281031 422.448914
v -83.111900 15.118932 420.726898
v -83.111900 16.281031 420.726898
v -85.561798 15.118932 421.158508
v -85.561798 16.281031 421.158508
v -73.552299 13.476530 426.578491
v -76.228500 13.476532 416.382507
v -76.228500 13.872433 416.382507
v -73.552299 13.872431 426.578491
v -81.450401 13.476532 417.753113
v -81.450401 13.872433 417.753113
v -78.774200 13.476530 427.949097
v -78.774200 13.872431 427.949097
v -79.832199 13.476531 423.918304
v -79.832199 13.872432 423.918304
v -83.579002 13.476530 424.901794
v -83.579002 13.872431 424.901794
v -82.521103 13.476530 428.932495
v -82.521103 13.872431 428.932495
v -80.589699 13.476531 421.032410
v -80.589699 13.872432 421.032410
v -85.197304 13.476531 418.736603
v -85.197304 13.872432 418.736603
v -84.336502 13.476531 422.015808
v -84.336502 13.872432 422.015808
v -693.016907 23.445240 -852.214783
v -691.457214 23.445238 -847.076172
v -691.457214 33.335636 -847.076172
v -693.016907 33.335636 -852.214783
v -686.323730 23.445238 -848.492920
v -686.323730 33.335636 -848.492920
v -692.844727 23.445242 -869.975525
v -692.844727 33.335640 -869.975525
v -696.820923 23.445242 -868.841492
v -696.820923 33.335640 -868.841492
v -691.870117 23.445240 -852.531372
v -691.870117 33.335636 -852.531372
v -688.719971 33.335640 -856.387085
v -692.038818 33.335640 -867.320618
v -692.038818 34.848843 -867.320618
v -688.719971 34.848843 -856.387085
v -694.177917 33.335640 -866.671326
v -694.177917 34.848843 -866.671326
v -690.859009 33.335640 -855.737793
v -690.859009 34.848843 -855.737793
v -691.801819 33.335640 -858.843628
v -691.801819 34.848843 -858.843628
v -695.994812 33.335640 -866.119812
v -695.994812 34.848843 -866.119812
v -693.618713 33.335640 -858.292114
v -693.618713 34.848843 -858.292114
vt -0.0000 0.7143
vt 2.1667 0.7143
vt 2.1667 1.0000
vt 0.0000 1.0000
vt -0.0000 0.7143
vt 3.3333 0.7143
vt 3.3333 1.0000
vt 0.0000 1.0000
vt 0.1667 0.7143
vt 2.3333 0.7143
vt 2.3333 1.0000
vt 0.1667 1.0000
vt 0.1667 0.7143
vt 3.8333 0.7143
vt 3.8333 1.0000
vt 0.1667 1.0000
vt 0.5000 0.2857
vt 2.6667 0.2857
vt 2.6667 1.0000
vt 0.5000 1.0000
vt -0.0000 0.2857
vt 2.0000 0.2857
vt 2.0000 1.0000
vt 0.0000 1.0000
vt 0.6667 0.2857
vt 2.8333 0.2857
vt 2.8333 1.0000
vt 0.6667 1.0000
vt 0.6667 0.2857
vt 2.6667 0.2857
vt 2.6667 1.0000
vt 0.6667 1.0000
vt 0.5000 0.2857
vt 1.8333 0.2857
vt 1.8333 1.0000
vt 0.5000 1.0000
vt 0.3333 0.2857
vt 1.8333 0.2857
vt 1.8333 1.0000
vt 0.3333 1.0000
vt 0.5000 0.2857
vt 1.6667 0.2857
vt 1.6667 1.0000
vt 0.5000 1.0000
vt 0.5000 0.2857
vt 2.1667 0.2857
vt 2.1667 1.0000
vt 0.5000 1.0000
vt 0.5000 0.8571
vt 2.3333 0.8571
vt 2.3333 1.0000
vt 0.5000 1.0000
vt 0.6667 0.8571
vt 2.0000 0.8571
vt 2.0000 1.0000
vt 0.6667 1.0000
vt 0.1667 0.8571
vt 2.0000 0.8571
vt 2.0000 1.0000
vt 0.1667 1.0000
vt 0.3333 0.8571
vt 1.6667 0.8571
vt 1.6667 1.0000
vt 0.3333 1.0000
vt 0.3333 0.8571
vt 1.1667 0.8571
vt 1.1667 1.0000
vt 0.3333 1.0000
vt 0.5000 0.8571
vt 1.1667 0.8571
vt 1.1667 1.0000
vt 0.5000 1.0000
vt -0.0000 0.8571
vt 0.8333 0.8571
vt 0.8333 1.0000
vt 0.0000 1.0000
vt 0.3333 0.8571
vt 1.0000 0.8571
vt 1.0000 1.0000
vt 0.3333 1.0000
vt 0.3333 0.8571
vt 1.6667 0.8571
vt 1.6667 1.0000
vt 0.3333 1.0000
vt 0.5000 0.8571
vt 1.1667 0.8571
vt 1.1667 1.0000
vt 0.5000 1.0000
vt 0.3333 0.8571
vt 1.6667 0.8571
vt 1.6667 1.0000
vt 0.3333 1.0000
vt 0.3333 0.8571
vt 1.0000 0.8571
vt 1.0000 1.0000
vt 0.3333 1.0000
vt 0.5000 0.8571
vt 1.1667 0.8571
vt 1.1667 1.0000
vt 0.5000 1.0000
vt 0.6667 0.8571
vt 1.1667 0.8571
vt 1.1667 1.0000
vt 0.6667 1.0000
vt 0.5000 0.8571
vt 1.1667 0.8571
vt 1.1667 1.0000
vt 0.5000 1.0000
vt 0.3333 0.8571
vt 0.8333 0.8571
vt 0.8333 1.0000
vt 0.3333 1.0000
vt 0.0000 -0.1429
vt 0.8333 -0.1429
vt 0.8333 1.0000
vt 0.0000 1.0000
vt 0.0000 -0.1429
vt 1.6667 -0.1429
vt 1.6667 1.0000
vt 0.0000 1.0000
vt 0.0000 -0.1429
vt 0.8333 -0.1429
vt 0.8333 1.0000
vt 0.0000 1.0000
vt 0.5000 -0.1429
vt 1.3333 -0.1429
vt 1.3333 1.0000
vt 0.5000 1.0000
vt 0.3333 -0.1429
vt 0.3667 -0.1429
vt 0.3667 1.0000
vt 0.3333 1.0000
vt 0.0000 -0.1429
vt 0.6667 -0.1429
vt 0.6667 1.0000
vt 0.0000 1.0000
vt -0.0000 0.9857
vt 0.0333 0.9857
vt 0.0333 1.0000
vt 0.0000 1.0000
vt 0.3333 0.9857
vt 1.0000 0.9857
vt 1.0000 1.0000
vt 0.3333 1.0000
vt 0.5000 0.9857
vt 0.5333 0.9857
vt 0.5333 1.0000
vt 0.5000 1.0000
vt -0.0000 0.9857
vt 0.6667 0.9857
vt 0.6667 1.0000
vt 0.0000 1.0000
vt 0.3333 0.9857
vt 0.6667 0.9857
vt 0.6667 1.0000
vt 0.3333 1.0000
vt -0.0000 0.9857
vt 0.8333 0.9857
vt 0.8333 1.0000
vt 0.0000 1.0000
vt -0.0000 0.9857
vt 0.3333 0.9857
vt 0.3333 1.0000
vt 0.0000 1.0000
vt 0.1667 0.9857
vt 0.8333 0.9857
vt 0.8333 1.0000
vt 0.1667 1.0000
vt 0.1667 0.9857
vt 0.8333 0.9857
vt 0.8333 1.0000
vt 0.1667 1.0000
vt 0.3333 0.9857
vt 1.8333 0.9857
vt 1.8333 1.0000
vt 0.3333 1.0000
vt 0.5000 0.9857
vt 3.0000 0.9857
vt 3.0000 1.0000
vt 0.5000 1.0000
vt -0.0000 0.9857
vt 2.8333 0.9857
vt 2.8333 1.0000
vt 0.0000 1.0000
vt 0.3333 0.9857
vt 2.8333 0.9857
vt 2.8333 1.0000
vt 0.3333 1.0000
vt 0.3333 0.9857
vt 3.3333 0.9857
vt 3.3333 1.0000
vt 0.3333 1.0000
vt 0.6667 0.5714
vt 3.1667 0.5714
vt 3.1667 1.0000
vt 0.6667 1.0000
vt 0.0000 0.5714
vt 1.6667 0.5714
vt 1.6667 1.0000
vt 0.0000 1.0000
vt 0.6667 0.5714
vt 3.1667 0.5714
vt 3.1667 1.0000
vt 0.6667 1.0000
vt 0.1667 0.5714
vt 1.6667 0.5714
vt 1.6667 1.0000
vt 0.1667 1.0000
vt 0.5000 0.7143
vt 2.3333 0.7143
vt 2.3333 1.0000
vt 0.5000 1.0000
vt 0.3333 0.7143
vt 3.3333 0.7143
vt 3.3333 1.0000
vt 0.3333 1.0000
vt 0.1667 0.7143
vt 2.0000 0.7143
vt 2.0000 1.0000
vt 0.1667 1.0000
vt 0.5000 0.7143
vt 3.3333 0.7143
vt 3.3333 1.0000
vt 0.5000 1.0000
vt 0.8333 0.7143
vt 2.3333 0.7143
vt 2.3333 1.0000
vt 0.8333 1.0000
vt 0.3333 0.7143
vt 2.5000 0.7143
vt 2.5000 1.0000
vt 0.3333 1.0000
vt 0.6667 0.7143
vt 2.0000 0.7143
vt 2.0000 1.0000
vt 0.6667 1.0000
vt 0.5000 0.7143
vt 2.6667 0.7143
vt 2.6667 1.0000
vt 0.5000 1.0000
vt 0.1667 0.7143
vt 2.8333 0.7143
vt 2.8333 1.0000
vt 0.1667 1.0000
vt 0.1667 0.7143
vt 1.8333 0.7143
vt 1.8333 1.0000
vt 0.1667 1.0000
vt 0.8333 0.7143
vt 3.3333 0.7143
vt 3.3333 1.0000
vt 0.8333 1.0000
vt 0.6667 0.7143
vt 2.3333 0.7143
vt 2.3333 1.0000
vt 0.6667 1.0000
vt 0.8333 0.8571
vt 2.8333 0.8571
vt 2.8333 1.0000
vt 0.8333 1.0000
vt 0.5000 0.8571
vt 1.6667 0.8571
vt 1.6667 1.0000
vt 0.5000 1.0000
vt 0.1667 0.8571
vt 2.1667 0.8571
vt 2.1667 1.0000
vt 0.1667 1.0000
vt 0.3333 0.8571
vt 1.6667 0.8571
vt 1.6667 1.0000
vt 0.3333 1.0000
vt 0.6667 0.5714
vt 2.1667 0.5714
vt 2.1667 1.0000
vt 0.6667 1.0000
vt 0.6667 0.5714
vt 2.8333 0.5714
vt 2.8333 1.0000
vt 0.6667 1.0000
vt 0.3333 0.5714
vt 1.8333 0.5714
vt 1.8333 1.0000
vt 0.3333 1.0000
vt 0.6667 0.5714
vt 3.0000 0.5714
vt 3.0000 1.0000
vt 0.6667 1.0000
vt 0.3333 0.7143
vt 2.0000 0.7143
vt 2.0000 1.0000
vt 0.3333 1.0000
vt 0.6667 0.7143
vt 1.8333 0.7143
vt 1.8333 1.0000
vt 0.6667 1.0000
vt 0.3333 0.7143
vt 2.0000 0.7143
vt 2.0000 1.0000
vt 0.3333 1.0000
vt 0.1667 0.7143
vt 1.1667 0.7143
vt 1.1667 1.0000
vt 0.1667 1.0000
vt 0.6667 0.7143
vt 2.0000 0.7143
vt 2.0000 1.0000
vt 0.6667 1.0000
vt 0.8333 0.7143
vt 3.0000 0.7143
vt 3.0000 1.0000
vt 0.8333 1.0000
vt 0.8333 0.7143
vt 2.1667 0.7143
vt 2.1667 1.0000
vt 0.8333 1.0000
vt 0.1667 0.7143
vt 2.1667 0.7143
vt 2.1667 1.0000
vt 0.1667 1.0000
vt 0.3333 0.8571
vt 1.6667 0.8571
vt 1.6667 1.0000
vt 0.3333 1.0000
vt 0.1667 0.8571
vt 0.5000 0.8571
vt 0.5000 1.0000
vt 0.1667 1.0000
vt 0.1667 0.8571
vt 1.1667 0.8571
vt 1.1667 1.0000
vt 0.1667 1.0000
vt 0.5000 0.8571
vt 0.6667 0.8571
vt 0.6667 1.0000
vt 0.5000 1.0000
vt 0.1667 0.8571
vt 0.5000 0.8571
vt 0.5000 1.0000
vt 0.1667 1.0000
vt 0.3333 0.8571
vt 1.0000 0.8571
vt 1.0000 1.0000
vt 0.3333 1.0000
vt 0.5000 0.9857
vt 1.6667 0.9857
vt 1.6667 1.0000
vt 0.5000 1.0000
vt 0.3333 0.9857
vt 1.0000 0.9857
vt 1.0000 1.0000
vt 0.3333 1.0000
vt 0.1667 0.9857
vt 1.3333 0.9857
vt 1.3333 1.0000
vt 0.1667 1.0000
vt 0.1667 0.9857
vt 0.8333 0.9857
vt 0.8333 1.0000
vt 0.1667 1.0000
vt 0.6667 0.9857
vt 1.1667 0.9857
vt 1.1667 1.0000
vt 0.6667 1.0000
vt 0.6667 0.9857
vt 1.1667 0.9857
vt 1.1667 1.0000
vt 0.6667 1.0000
vt 0.8333 0.9857
vt 1.3333 0.9857
vt 1.3333 1.0000
vt 0.8333 1.0000
vt 0.8333 0.9857
vt 0.8333 1.0000
vt 0.3333 0.9857
vt 0.6667 0.9857
vt 0.6667 1.0000
vt 0.3333 1.0000
vt -0.0000 0.9857
vt 0.5000 0.9857
vt 0.5000 1.0000
vt 0.0000 1.0000
vt 0.8333 0.9857
vt 1.1667 0.9857
vt 1.1667 1.0000
vt 0.8333 1.0000
vt -0.0000 0.9857
vt 0.5000 0.9857
vt 0.5000 1.0000
vt 0.0000 1.0000
vt 0.3333 -0.1429
vt 1.0000 -0.1429
vt 1.0000 1.0000
vt 0.3333 1.0000
vt 0.3333 -0.1429
vt 1.0000 -0.1429
vt 1.0000 1.0000
vt 0.3333 1.0000
vt 0.6667 -0.1429
vt 3.3333 -0.1429
vt 3.3333 1.0000
vt 0.6667 1.0000
vt 0.5000 -0.1429
vt 1.0000 -0.1429
vt 1.0000 1.0000
vt 0.5000 1.0000
vt 0.1667 -0.1429
vt 2.1667 -0.1429
vt 2.1667 1.0000
vt 0.1667 1.0000
vt 0.6667 -0.1429
vt 0.8333 -0.1429
vt 0.8333 1.0000
vt 0.6667 1.0000
vt 0.5000 0.8571
vt 1.8333 0.8571
vt 1.8333 1.0000
vt 0.5000 1.0000
vt 0.1667 0.8571
vt 0.5000 0.8571
vt 0.5000 1.0000
vt 0.1667 1.0000
vt 1.8333 0.8571
vt 1.8333 1.0000
vt 0.8333 0.8571
vt 1.1667 0.8571
vt 1.1667 1.0000
vt 0.8333 1.0000
vt 0.1667 0.8571
vt 1.1667 0.8571
vt 1.1667 1.0000
vt 0.1667 1.0000
vt 0.1667 0.8571
vt 0.3333 0.8571
vt 0.3333 1.0000
vt 0.1667 1.0000
vt 0.6667 0.8571
vt 1.6667 0.8571
vt 1.6667 1.0000
vt 0.6667 1.0000
vt 0.6667 0.8571
vt 0.8333 0.8571
vt 0.8333 1.0000
vt 0.6667 1.0000
vn 0.9655 0.0000 -0.2603
vn -0.1554 0.0000 -0.9878
vn -0.9877 0.0000 0.1562
vn 0.1558 0.0000 0.9878
vn -0.9655 0.0000 0.2603
vn -0.2603 0.0000 -0.9655
vn 0.2603 0.0000 0.9655
vn 0.9878 0.0000 -0.1558
vn -0.1558 0.0000 -0.9878
vn -0.9878 0.0000 0.1558
vn 0.0646 0.0000 0.9979
vn 0.9980 0.0000 -0.0634
vn -0.0632 0.0000 -0.9980
vn -0.9980 0.0000 0.0632
vn 0.0635 0.0000 0.9980
vn -0.9980 0.0000 0.0634
vn -0.0633 0.0000 -0.9980
vn -0.9980 0.0000 0.0633
vn 0.0636 0.0000 0.9980
vn -0.0646 0.0000 -0.9979
vn 0.9672 0.0000 -0.2539
vn -0.1735 0.0000 -0.9848
vn -0.9848 0.0000 0.1736
vn 0.1738 0.0000 0.9848
vn -0.9848 0.0000 0.1737
vn -0.1738 0.0000 -0.9848
vn 0.9848 0.0000 -0.1736
vn -0.2539 0.0000 -0.9672
vn -0.9672 0.0000 0.2539
vn 0.2539 0.0000 0.9672
vn -0.9569 0.0000 0.2904
vn 0.2660 0.0000 0.9640
vn 0.9569 0.0000 -0.2905
vn -0.2743 0.0000 -0.9617
vn -0.9569 0.0000 0.2905
vn -0.2661 0.0000 -0.9639
vn -0.2905 0.0000 -0.9569
vn 0.2905 0.0000 0.9569
vn -0.2904 0.0000 -0.9569
g CityEngineMaterial_157_CityEngineMaterial_157_CityEngineMaterial_157_mat
usemtl CityEngineMaterial_157_mat
s 1
f 1/1/1 2/2/1 3/3/1 4/4/1
f 2/5/2 5/6/2 6/7/2 3/8/2
f 5/9/3 7/10/3 8/11/3 6/12/3
f 7/13/4 1/14/4 4/15/4 8/16/4
f 4/17/1 3/18/1 9/19/1 10/20/1
f 3/21/2 11/22/2 12/23/2 9/24/2
f 11/25/5 13/26/5 14/27/5 12/28/5
f 13/29/4 4/30/4 10/31/4 14/32/4
f 13/33/1 15/34/1 16/35/1 14/36/1
f 15/37/6 17/38/6 18/39/6 16/40/6
f 17/41/3 8/42/3 19/43/3 18/44/3
f 8/45/4 13/46/4 14/47/4 19/48/4
f 20/49/5 21/50/5 22/51/5 23/52/5
f 21/53/7 24/54/7 25/55/7 22/56/7
f 24/57/1 26/58/1 27/59/1 25/60/1
f 26/61/6 20/62/6 23/63/6 27/64/6
f 28/65/5 29/66/5 30/67/5 31/68/5
f 29/69/7 32/70/7 33/71/7 30/72/7
f 32/73/1 34/74/1 35/75/1 33/76/1
f 34/77/6 28/78/6 31/79/6 35/80/6
f 36/81/4 37/82/4 38/83/4 39/84/4
f 37/85/8 40/86/8 41/87/8 38/88/8
f 40/89/9 42/90/9 43/91/9 41/92/9
f 42/93/10 36/94/10 39/95/10 43/96/10
f 44/97/4 45/98/4 46/99/4 47/100/4
f 45/101/8 48/102/8 49/103/8 46/104/8
f 48/105/9 50/106/9 51/107/9 49/108/9
f 50/109/10 44/110/10 47/111/10 51/112/10
f 52/113/11 53/114/11 54/115/11 55/116/11
f 53/117/12 56/118/12 57/119/12 54/120/12
f 56/121/13 58/122/13 59/123/13 57/124/13
f 58/125/14 60/126/14 61/127/14 59/128/14
f 60/129/15 62/130/15 63/131/15 61/132/15
f 62/133/16 52/134/16 55/135/16 63/136/16
f 64/137/17 65/138/17 66/139/17 67/140/17
f 65/141/18 68/142/18 69/143/18 66/144/18
f 68/145/19 70/146/19 71/147/19 69/148/19
f 70/149/12 64/150/12 67/151/12 71/152/12
f 72/153/17 73/154/17 74/155/17 75/156/17
f 73/157/16 76/158/16 77/159/16 74/160/16
f 76/161/20 78/162/20 79/163/20 77/164/20
f 78/165/16 80/166/16 81/167/16 79/168/16
f 80/169/11 82/170/11 83/171/11 81/172/11
f 82/173/12 72/174/12 75/175/12 83/176/12
f 84/177/21 85/178/21 86/179/21 87/180/21
f 85/181/22 88/182/22 89/183/22 86/184/22
f 88/185/23 90/186/23 91/187/23 89/188/23
f 90/189/24 84/190/24 87/191/24 91/192/24
f 92/193/23 93/194/23 94/195/23 95/196/23
f 93/197/24 96/198/24 97/199/24 94/200/24
f 96/201/21 98/202/21 99/203/21 97/204/21
f 98/205/22 92/206/22 95/207/22 99/208/22
f 100/209/23 101/210/23 102/211/23 103/212/23
f 101/213/24 104/214/24 105/215/24 102/216/24
f 104/217/21 106/218/21 107/219/21 105/220/21
f 106/221/22 100/222/22 103/223/22 107/224/22
f 108/225/24 109/226/24 110/227/24 111/228/24
f 109/229/21 112/230/21 113/231/21 110/232/21
f 112/233/22 114/234/22 115/235/22 113/236/22
f 114/237/23 108/238/23 111/239/23 115/240/23
f 116/241/24 117/242/24 118/243/24 119/244/24
f 117/245/21 120/246/21 121/247/21 118/248/21
f 120/249/22 122/250/22 123/251/22 121/252/22
f 122/253/25 116/254/25 119/255/25 123/256/25
f 124/257/21 125/258/21 126/259/21 127/260/21
f 125/261/22 128/262/22 129/263/22 126/264/22
f 128/265/23 130/266/23 131/267/23 129/268/23
f 130/269/24 124/270/24 127/271/24 131/272/24
f 132/273/21 133/274/21 134/275/21 135/276/21
f 133/277/22 136/278/22 137/279/22 134/280/22
f 136/281/23 138/282/23 139/283/23 137/284/23
f 138/285/24 132/286/24 135/287/24 139/288/24
f 140/289/25 141/290/25 142/291/25 143/292/25
f 141/293/24 144/294/24 145/295/24 142/296/24
f 144/297/21 146/298/21 147/299/21 145/300/21
f 146/301/22 140/302/22 143/303/22 147/304/22
f 148/305/23 149/306/23 150/307/23 151/308/23
f 149/309/24 152/310/24 153/311/24 150/312/24
f 152/313/21 154/314/21 155/315/21 153/316/21
f 154/317/22 148/318/22 151/319/22 155/320/22
f 156/321/24 157/322/24 158/323/24 159/324/24
f 157/325/21 160/326/21 161/327/21 158/328/21
f 160/329/26 162/330/26 163/331/26 161/332/26
f 162/333/27 164/334/27 165/335/27 163/336/27
f 164/337/22 166/338/22 167/339/22 165/340/22
f 166/341/25 156/342/25 159/343/25 167/344/25
f 168/345/21 169/346/21 170/347/21 171/348/21
f 169/349/28 172/350/28 173/351/28 170/352/28
f 172/353/29 174/354/29 175/355/29 173/356/29
f 174/357/30 168/358/30 171/359/30 175/360/30
f 174/361/21 176/362/21 177/363/21 175/364/21
f 176/365/28 178/366/28 179/367/28 177/368/28
f 178/369/29 180/370/29 181/371/29 179/372/29
f 180/373/30 174/354/30 175/355/30 181/374/30
f 182/375/21 172/376/21 173/377/21 183/378/21
f 172/379/28 184/380/28 185/381/28 173/382/28
f 184/383/29 186/384/29 187/385/29 185/386/29
f 186/387/30 182/388/30 183/389/30 187/390/30
f 188/391/31 189/392/31 190/393/31 191/394/31
f 189/395/32 192/396/32 193/397/32 190/398/32
f 192/399/33 194/400/33 195/401/33 193/402/33
f 194/403/34 196/404/34 197/405/34 195/406/34
f 196/407/35 198/408/35 199/409/35 197/410/35
f 198/411/36 188/412/36 191/413/36 199/414/36
f 200/415/33 201/416/33 202/417/33 203/418/33
f 201/419/37 204/420/37 205/421/37 202/422/37
f 204/420/35 206/423/35 207/424/35 205/421/35
f 206/425/38 200/426/38 203/427/38 207/428/38
f 208/429/33 204/430/33 205/431/33 209/432/33
f 204/433/39 210/434/39 211/435/39 205/436/39
f 210/437/35 212/438/35 213/439/35 211/440/35
f 212/441/38 208/442/38 209/443/38 213/444/38
