# Blender v2.78 (sub 0) OBJ File: ''
# www.blender.org
mtllib CityEngineMaterial_366.mtl
o CityEngineMaterial_366
v -918.901489 10.478418 505.279114
v -919.587280 10.478418 505.446198
v -919.587280 12.432218 505.446198
v -918.901489 12.432218 505.279114
v -919.842529 10.478418 504.399689
v -919.842529 12.432218 504.399689
v -923.046875 10.478418 505.180786
v -923.046875 12.432218 505.180786
v -921.546997 10.478417 511.327209
v -921.546997 12.432217 511.327209
v -919.171570 10.478417 510.748199
v -919.171570 12.432217 510.748199
v -410.190704 1.313923 -139.633499
v -423.507202 1.313923 -138.070206
v -423.507202 3.113422 -138.070206
v -410.190704 3.113423 -139.633499
v -423.264496 1.313922 -136.003403
v -423.264496 3.113422 -136.003403
v -420.942688 1.313922 -136.276001
v -420.942688 3.113422 -136.276001
v -420.649994 1.313922 -133.782593
v -420.649994 3.113422 -133.782593
v -422.971802 1.313922 -133.509995
v -422.971802 3.113422 -133.509995
v -422.760315 1.313921 -131.708801
v -422.760315 3.113421 -131.708801
v -409.443909 1.313922 -133.272003
v -409.443909 3.113422 -133.272003
v 267.352295 44.616737 -226.470795
v 270.366913 44.616734 -208.583099
v 270.366913 46.685333 -208.583099
v 267.352295 46.685337 -226.470795
v 281.331299 44.616734 -210.434494
v 281.331299 46.685333 -210.434494
v 278.469910 44.616737 -227.393997
v 278.469910 46.685337 -227.393997
v 693.619629 28.326527 440.680115
v 681.760498 28.326527 443.460785
v 681.760498 30.250427 443.460785
v 693.619629 30.250427 440.680115
v 682.572083 28.326527 447.859192
v 682.572083 30.250427 447.859192
v 690.171814 28.326527 446.077393
v 690.171814 30.250427 446.077393
v 690.017517 28.326527 445.240997
v 690.017517 30.250427 445.240997
v 694.446228 28.326527 444.202515
v 694.446228 30.250427 444.202515
v 312.639008 31.700491 56.971302
v 312.226593 31.700493 46.723503
v 312.226593 33.518291 46.723503
v 312.639008 33.518291 56.971302
v 302.965515 31.700493 46.983006
v 302.965515 33.518291 46.983006
v 303.302094 31.700491 57.243404
v 303.302094 33.518291 57.243404
v 307.279388 31.700491 57.127502
v 307.279388 33.518291 57.127502
v 307.245514 31.700491 56.092804
v 307.245514 33.518291 56.092804
v 309.268188 31.700491 56.036102
v 309.268188 33.518291 56.036102
v 309.309814 31.700491 57.068302
v 309.309814 33.518291 57.068302
v -135.595306 33.373291 -1179.940186
v -134.851898 33.373291 -1175.203735
v -134.851898 34.617390 -1175.203735
v -135.595306 34.617390 -1179.940186
v -130.653503 33.373291 -1175.857788
v -130.653503 34.617390 -1175.857788
v -129.498901 33.373291 -1168.510132
v -129.498901 34.617390 -1168.510132
v -124.963402 33.373291 -1169.221802
v -124.963402 34.617390 -1169.221802
v -126.861397 33.373291 -1181.300659
v -126.861397 34.617390 -1181.300659
v 492.110107 21.395029 433.106812
v 506.682800 21.395029 430.051208
v 506.682800 23.565630 430.051208
v 492.110107 23.565630 433.106812
v 501.428894 21.395033 405.092010
v 501.428894 23.565634 405.092010
v 486.995514 21.395033 408.700989
v 486.995514 23.565634 408.700989
v 707.384399 29.104429 437.453308
v 711.630005 29.104425 455.580597
v 711.630005 31.237425 455.580597
v 707.384399 31.237429 437.453308
v 721.342896 29.104425 451.639709
v 721.342896 31.237425 451.639709
v 726.080994 29.104427 449.718597
v 726.080994 31.237427 449.718597
v 722.377319 29.104429 433.932007
v 722.377319 31.237429 433.932007
v 114.443398 10.604183 103.969398
v 115.667702 10.604180 125.059303
v 115.667702 12.530480 125.059303
v 114.443398 12.530483 103.969398
v 131.703293 10.604180 124.083603
v 131.703293 12.530480 124.083603
v 130.486801 10.604183 102.658302
v 130.486801 12.530483 102.658302
v 297.408813 48.264030 -790.467102
v 298.286011 48.264030 -790.606323
v 298.286011 50.146030 -790.606323
v 297.408813 50.146030 -790.467102
v 298.647797 48.264030 -788.270203
v 298.647797 50.146030 -788.270203
v 300.261688 48.264030 -788.520325
v 300.261688 50.146030 -788.520325
v 297.953003 48.264030 -803.427429
v 297.953003 50.146030 -803.427429
v 296.805511 48.264030 -803.245300
v 296.805511 50.146030 -803.245300
v 296.018890 48.264030 -787.862671
v 296.018890 50.146030 -787.862671
v 297.285614 48.264030 -788.059082
v 297.285614 50.146030 -788.059082
v -64.324600 1.313746 333.259186
v -65.562401 1.313747 327.122589
v -65.562401 3.400447 327.122589
v -64.324600 3.400446 333.259186
v -63.400799 1.313747 326.684509
v -63.400799 3.400447 326.684509
v -64.425400 1.313748 321.605286
v -64.425400 3.400448 321.605286
v -79.796204 1.313747 324.720703
v -79.796204 3.400447 324.720703
v -77.607803 1.313745 335.569702
v -77.607803 3.400445 335.569702
v 589.780823 76.607544 -264.610291
v 588.658386 76.607544 -264.377289
v 588.658386 78.529549 -264.377289
v 589.780823 78.529549 -264.610291
v 589.017883 76.607544 -262.628113
v 589.017883 78.529549 -262.628113
v 597.647095 76.607544 -264.418304
v 597.647095 78.529549 -264.418304
v 596.406921 76.607544 -270.408295
v 596.406921 78.529549 -270.408295
v 587.741516 76.607544 -268.838715
v 587.741516 78.529549 -268.838715
v 588.239929 76.607544 -266.413605
v 588.239929 78.529549 -266.413605
v 589.365173 76.607544 -266.617401
v 589.365173 78.529549 -266.617401
v 30.430300 34.917603 -1245.025879
v 21.707800 34.917603 -1243.833130
v 21.707800 36.390800 -1243.833130
v 30.430300 36.390800 -1245.025879
v 22.346701 34.917603 -1239.755127
v 22.346701 36.390800 -1239.755127
v 24.655600 34.917603 -1237.098877
v 24.655600 36.390800 -1237.098877
v 27.702499 34.917603 -1237.515381
v 27.702499 36.390800 -1237.515381
v 28.452101 34.917603 -1232.731201
v 28.452101 36.390800 -1232.731201
v 33.215099 34.917599 -1227.251587
v 33.215099 36.390797 -1227.251587
v -448.518188 3.805948 322.375305
v -438.503906 3.805948 321.581085
v -438.503906 5.704847 321.581085
v -448.518188 5.704847 322.375305
v -438.443909 3.805948 316.525909
v -438.443909 5.704848 316.525909
v -439.383087 3.805948 316.600311
v -439.383087 5.704848 316.600311
v -439.346985 3.805949 313.557892
v -439.346985 5.704849 313.557892
v -438.408813 3.805949 313.569000
v -438.408813 5.704849 313.569000
v -438.362213 3.805949 309.636688
v -438.362213 5.704849 309.636688
v -448.365601 3.805949 309.517792
v -448.365601 5.704849 309.517792
v -577.037292 8.107292 -568.454712
v -574.895386 8.107291 -564.316772
v -574.895386 9.688492 -564.316772
v -577.037292 9.688493 -568.454712
v -574.179504 8.107291 -564.197876
v -574.179504 9.688492 -564.197876
v -565.095886 8.107292 -566.955078
v -565.095886 9.688493 -566.955078
v -566.687683 8.107292 -570.026794
v -566.687683 9.688493 -570.026794
v -567.370911 8.107292 -569.819397
v -567.370911 9.688493 -569.819397
v -568.856323 8.107293 -572.689209
v -568.856323 9.688494 -572.689209
vt 0.6667 0.0000
vt 1.0000 0.0000
vt 1.0000 1.0000
vt 0.6667 1.0000
vt 0.6667 0.0000
vt 1.0000 0.0000
vt 1.0000 1.0000
vt 0.6667 1.0000
vt 0.3333 0.0000
vt 1.6667 0.0000
vt 1.6667 1.0000
vt 0.3333 1.0000
vt 0.3333 0.0000
vt 2.6667 0.0000
vt 2.6667 1.0000
vt 0.3333 1.0000
vt 0.3333 0.0000
vt 1.3333 0.0000
vt 1.3333 1.0000
vt 0.3333 1.0000
vt 0.3333 0.0000
vt 2.3333 -0.0000
vt 2.3333 1.0000
vt 0.3333 1.0000
vt 0.3333 0.0000
vt 3.6667 0.0000
vt 3.6667 1.0000
vt 0.3333 1.0000
vt 0.6667 0.0000
vt 1.0000 0.0000
vt 1.0000 1.0000
vt 0.6667 1.0000
vt 0.6667 0.0000
vt 1.3333 0.0000
vt 1.3333 1.0000
vt 0.6667 1.0000
vt 0.3333 0.0000
vt 1.0000 0.0000
vt 1.0000 1.0000
vt 0.3333 1.0000
vt 0.3333 0.0000
vt 1.0000 0.0000
vt 1.0000 1.0000
vt 0.3333 1.0000
vt 0.6667 0.0000
vt 1.0000 0.0000
vt 1.0000 1.0000
vt 0.6667 1.0000
vt 0.3333 0.0000
vt 3.6667 0.0000
vt 3.6667 1.0000
vt 0.3333 1.0000
vt 0.3333 0.0000
vt 2.0000 0.0000
vt 2.0000 1.0000
vt 0.3333 1.0000
vt 0.6667 0.0000
vt 7.6667 0.0000
vt 7.6667 1.0000
vt 0.6667 1.0000
vt 0.3333 0.0000
vt 4.6667 -0.0000
vt 4.6667 1.0000
vt 0.3333 1.0000
vt 0.3333 0.0000
vt 7.0000 -0.0000
vt 7.0000 1.0000
vt 0.3333 1.0000
vt 0.3333 0.0000
vt 4.6667 -0.0000
vt 4.6667 1.0000
vt 0.3333 1.0000
vt -0.0000 -0.0000
vt 4.0000 0.0000
vt 4.0000 1.0000
vt -0.0000 1.0000
vt -0.0000 -0.0000
vt 1.6667 0.0000
vt 1.6667 1.0000
vt -0.0000 1.0000
vt 0.3333 0.0000
vt 3.0000 0.0000
vt 3.0000 1.0000
vt 0.3333 1.0000
vt 0.3333 0.0000
vt 0.6667 0.0000
vt 0.6667 1.0000
vt 0.3333 1.0000
vt 2.3333 -0.0000
vt 2.3333 1.0000
vt -0.0000 -0.0000
vt 1.3333 0.0000
vt 1.3333 1.0000
vt -0.0000 1.0000
vt 0.3333 0.0000
vt 4.0000 0.0000
vt 4.0000 1.0000
vt 0.3333 1.0000
vt -0.0000 -0.0000
vt 3.3333 0.0000
vt 3.3333 1.0000
vt -0.0000 1.0000
vt 0.6667 0.0000
vt 4.3333 -0.0000
vt 4.3333 1.0000
vt 0.6667 1.0000
vt 0.3333 0.0000
vt 1.6667 0.0000
vt 1.6667 1.0000
vt 0.3333 1.0000
vt 0.3333 0.0000
vt 0.6667 0.0000
vt 0.6667 1.0000
vt 0.3333 1.0000
vt -0.0000 -0.0000
vt 0.6667 0.0000
vt 0.6667 1.0000
vt -0.0000 1.0000
vt 0.3333 0.0000
vt 0.6667 0.0000
vt 0.6667 1.0000
vt 0.3333 1.0000
vt 0.3333 0.0000
vt 1.6667 0.0000
vt 1.6667 1.0000
vt 0.3333 1.0000
vt -0.0000 -0.0000
vt 1.3333 0.0000
vt 1.3333 1.0000
vt -0.0000 1.0000
vt 0.3333 0.0000
vt 1.6667 0.0000
vt 1.6667 1.0000
vt 0.3333 1.0000
vt -0.0000 -0.0000
vt 2.0000 0.0000
vt 2.0000 1.0000
vt -0.0000 1.0000
vt 0.3333 0.0000
vt 1.6667 0.0000
vt 1.6667 1.0000
vt 0.3333 1.0000
vt 0.3333 0.0000
vt 3.6667 0.0000
vt 3.6667 1.0000
vt 0.3333 1.0000
vt -0.0000 -0.0000
vt 2.3333 -0.0000
vt 2.3333 1.0000
vt -0.0000 1.0000
vt 0.3333 0.0000
vt 6.0000 0.0000
vt 6.0000 1.0000
vt 0.3333 1.0000
vt 0.3333 0.0000
vt 10.0000 0.0000
vt 10.0000 1.0000
vt 0.3333 1.0000
vt 0.6667 0.0000
vt 6.3333 0.0000
vt 6.3333 1.0000
vt 0.6667 1.0000
vt 0.3333 0.0000
vt 10.0000 0.0000
vt 10.0000 1.0000
vt 0.3333 1.0000
vt -0.0000 -0.0000
vt 4.3333 -0.0000
vt 4.3333 1.0000
vt -0.0000 1.0000
vt -0.0000 -0.0000
vt 2.3333 -0.0000
vt 2.3333 1.0000
vt -0.0000 1.0000
vt 0.3333 0.0000
vt 1.3333 0.0000
vt 1.3333 1.0000
vt 0.3333 1.0000
vt -0.0000 -0.0000
vt 3.6667 0.0000
vt 3.6667 1.0000
vt -0.0000 1.0000
vt 0.3333 0.0000
vt 3.6667 0.0000
vt 3.6667 1.0000
vt 0.3333 1.0000
vt -0.0000 -0.0000
vt 5.0000 0.0000
vt 5.0000 1.0000
vt -0.0000 1.0000
vt 0.3333 0.0000
vt 4.0000 0.0000
vt 4.0000 1.0000
vt 0.3333 1.0000
vt 0.3333 0.0000
vt 5.3333 -0.0000
vt 5.3333 1.0000
vt 0.3333 1.0000
vt 0.6667 0.0000
vt 4.3333 -0.0000
vt 4.3333 1.0000
vt 0.6667 1.0000
vt -0.0000 -0.0000
vt 0.3333 0.0000
vt 0.3333 1.0000
vt -0.0000 1.0000
vt -0.0000 -0.0000
vt 0.6667 0.0000
vt 0.6667 1.0000
vt -0.0000 1.0000
vt 1.3333 0.0000
vt 1.3333 1.0000
vt 0.3333 0.0000
vt 5.0000 0.0000
vt 5.0000 1.0000
vt 0.3333 1.0000
vt 0.6667 0.0000
vt 1.0000 0.0000
vt 1.0000 1.0000
vt 0.6667 1.0000
vt -0.0000 -0.0000
vt 5.0000 0.0000
vt 5.0000 1.0000
vt -0.0000 1.0000
vt 0.3333 0.0000
vt 0.6667 0.0000
vt 0.6667 1.0000
vt 0.3333 1.0000
vt 1.3333 0.0000
vt 1.3333 1.0000
vt -0.0000 -0.0000
vt 1.6667 0.0000
vt 1.6667 1.0000
vt -0.0000 1.0000
vt 0.3333 0.0000
vt 1.0000 0.0000
vt 1.0000 1.0000
vt 0.3333 1.0000
vt 0.6667 0.0000
vt 2.0000 0.0000
vt 2.0000 1.0000
vt 0.6667 1.0000
vt 0.6667 0.0000
vt 5.0000 0.0000
vt 5.0000 1.0000
vt 0.6667 1.0000
vt 0.3333 0.0000
vt 3.3333 0.0000
vt 3.3333 1.0000
vt 0.3333 1.0000
vt -0.0000 -0.0000
vt 3.6667 0.0000
vt 3.6667 1.0000
vt -0.0000 1.0000
vt 0.3333 0.0000
vt 0.6667 0.0000
vt 0.6667 1.0000
vt 0.3333 1.0000
vt -0.0000 -0.0000
vt 0.6667 0.0000
vt 0.6667 1.0000
vt -0.0000 1.0000
vt 0.3333 0.0000
vt 3.3333 0.0000
vt 3.3333 1.0000
vt 0.3333 1.0000
vt 0.6667 0.0000
vt 2.6667 0.0000
vt 2.6667 1.0000
vt 0.6667 1.0000
vt 0.3333 0.0000
vt 3.3333 0.0000
vt 3.3333 1.0000
vt 0.3333 1.0000
vt 0.3333 0.0000
vt 1.3333 0.0000
vt 1.3333 1.0000
vt 0.3333 1.0000
vt 0.3333 0.0000
vt 0.6667 0.0000
vt 0.6667 1.0000
vt 0.3333 1.0000
vt 0.3333 0.0000
vt 1.0000 0.0000
vt 1.0000 1.0000
vt 0.3333 1.0000
vt 0.6667 0.0000
vt 3.3333 0.0000
vt 3.3333 1.0000
vt 0.6667 1.0000
vt 0.3333 0.0000
vt 1.6667 0.0000
vt 1.6667 1.0000
vt 0.3333 1.0000
vt -0.0000 -0.0000
vt 1.0000 0.0000
vt 1.0000 1.0000
vt -0.0000 1.0000
vt 0.6667 0.0000
vt 1.6667 0.0000
vt 1.6667 1.0000
vt 0.6667 1.0000
vt -0.0000 -0.0000
vt 1.3333 0.0000
vt 1.3333 1.0000
vt -0.0000 1.0000
vt 0.3333 0.0000
vt 2.3333 -0.0000
vt 2.3333 1.0000
vt 0.3333 1.0000
vt -0.0000 -0.0000
vt 5.3333 -0.0000
vt 5.3333 1.0000
vt -0.0000 1.0000
vt 0.3333 0.0000
vt 2.6667 0.0000
vt 2.6667 1.0000
vt 0.3333 1.0000
vt 0.6667 0.0000
vt 2.0000 0.0000
vt 2.0000 1.0000
vt 0.6667 1.0000
vt 0.3333 0.0000
vt 0.6667 0.0000
vt 0.6667 1.0000
vt 0.3333 1.0000
vt 0.3333 0.0000
vt 1.0000 0.0000
vt 1.0000 1.0000
vt 0.3333 1.0000
vt 0.6667 0.0000
vt 1.0000 0.0000
vt 1.0000 1.0000
vt 0.6667 1.0000
vt 0.3333 0.0000
vt 1.3333 0.0000
vt 1.3333 1.0000
vt 0.3333 1.0000
vt 0.6667 0.0000
vt 3.0000 0.0000
vt 3.0000 1.0000
vt 0.6667 1.0000
vt 0.6667 0.0000
vt 4.0000 0.0000
vt 4.0000 1.0000
vt 0.6667 1.0000
vt 0.3333 0.0000
vt 1.3333 0.0000
vt 1.3333 1.0000
vt 0.3333 1.0000
vt 0.3333 0.0000
vt 0.6667 0.0000
vt 0.6667 1.0000
vt 0.3333 1.0000
vt 3.0000 0.0000
vt 3.0000 1.0000
vt 0.3333 0.0000
vt 1.3333 0.0000
vt 1.3333 1.0000
vt 0.3333 1.0000
vt 0.3333 0.0000
vt 0.6667 0.0000
vt 0.6667 1.0000
vt 0.3333 1.0000
vt -0.0000 -0.0000
vt 0.6667 0.0000
vt 0.6667 1.0000
vt -0.0000 1.0000
vt 3.0000 0.0000
vt 3.0000 1.0000
vn -0.2367 0.0000 -0.9716
vn 0.9715 0.0000 -0.2370
vn -0.2368 0.0000 -0.9716
vn -0.9715 0.0000 0.2371
vn 0.2368 0.0000 0.9716
vn 0.9988 0.0000 0.0493
vn -0.1166 0.0000 -0.9932
vn -0.9932 0.0000 0.1166
vn 0.1166 0.0000 0.9932
vn 0.9932 0.0000 -0.1166
vn -0.9861 0.0000 0.1662
vn 0.1665 0.0000 0.9860
vn 0.9861 0.0000 -0.1664
vn -0.0828 0.0000 -0.9966
vn -0.2283 0.0000 -0.9736
vn -0.9834 0.0000 0.1815
vn 0.2283 0.0000 0.9736
vn 0.9834 0.0000 -0.1814
vn 0.9736 0.0000 -0.2285
vn 0.9992 0.0000 -0.0402
vn -0.0280 0.0000 -0.9996
vn -0.9995 0.0000 0.0328
vn 0.0291 0.0000 0.9996
vn 0.9995 0.0000 -0.0327
vn 0.0280 0.0000 0.9996
vn -0.9992 0.0000 0.0403
vn -0.9879 0.0000 0.1551
vn 0.1539 0.0000 0.9881
vn -0.9879 0.0000 0.1552
vn 0.1550 0.0000 0.9879
vn 0.9879 0.0000 -0.1552
vn -0.1539 0.0000 -0.9881
vn 0.2052 0.0000 0.9787
vn 0.9786 0.0000 -0.2060
vn -0.2426 0.0000 -0.9701
vn -0.9787 0.0000 0.2051
vn -0.9737 0.0000 0.2280
vn 0.3760 0.0000 0.9266
vn 0.3759 0.0000 0.9267
vn 0.3757 0.0000 0.9267
vn 0.9736 0.0000 -0.2284
vn -0.2286 0.0000 -0.9735
vn -0.9983 0.0000 0.0580
vn 0.0607 0.0000 0.9982
vn 0.9984 0.0000 -0.0567
vn -0.0815 0.0000 -0.9967
vn 0.1567 0.0000 0.9876
vn -0.9882 0.0000 0.1530
vn 0.1531 0.0000 0.9882
vn 0.9882 0.0000 -0.1530
vn -0.1568 0.0000 -0.9876
vn -0.9987 0.0000 -0.0511
vn 0.1532 0.0000 0.9882
vn 0.9987 0.0000 0.0511
vn 0.9803 0.0000 -0.1977
vn 0.1986 0.0000 0.9801
vn -0.1986 0.0000 -0.9801
vn -0.9803 0.0000 0.1977
vn 0.1714 0.0000 0.9852
vn -0.2032 0.0000 -0.9791
vn -0.9795 0.0000 0.2013
vn 0.2031 0.0000 0.9792
vn 0.9792 0.0000 -0.2027
vn -0.1782 0.0000 -0.9840
vn 0.1782 0.0000 0.9840
vn -0.9792 0.0000 0.2028
vn -0.1355 0.0000 -0.9908
vn -0.9879 0.0000 0.1548
vn -0.7547 0.0000 0.6560
vn 0.1354 0.0000 0.9908
vn 0.9879 0.0000 -0.1548
vn 0.0791 0.0000 0.9969
vn 0.9999 0.0000 0.0119
vn -0.0790 0.0000 -0.9969
vn -0.0118 0.0000 0.9999
vn 0.9999 0.0000 0.0118
vn 0.0119 0.0000 -0.9999
vn -0.9999 0.0000 -0.0119
vn -0.8881 0.0000 0.4597
vn -0.1638 0.0000 0.9865
vn 0.2905 0.0000 0.9569
vn 0.8879 0.0000 -0.4601
vn -0.2905 0.0000 -0.9569
vn 0.8881 0.0000 -0.4597
vn -0.4597 0.0000 -0.8881
g CityEngineMaterial_366_CityEngineMaterial_366_CityEngineMaterial_366_mat
usemtl CityEngineMaterial_366_mat
s 1
f 1/1/1 2/2/1 3/3/1 4/4/1
f 2/5/2 5/6/2 6/7/2 3/8/2
f 5/9/3 7/10/3 8/11/3 6/12/3
f 7/13/4 9/14/4 10/15/4 8/16/4
f 9/17/5 11/18/5 12/19/5 10/20/5
f 11/21/6 1/22/6 4/23/6 12/24/6
f 13/25/7 14/26/7 15/27/7 16/28/7
f 14/29/8 17/30/8 18/31/8 15/32/8
f 17/33/9 19/34/9 20/35/9 18/36/9
f 19/37/8 21/38/8 22/39/8 20/40/8
f 21/41/7 23/42/7 24/43/7 22/44/7
f 23/45/8 25/46/8 26/47/8 24/48/8
f 25/49/9 27/50/9 28/51/9 26/52/9
f 27/53/10 13/54/10 16/55/10 28/56/10
f 29/57/11 30/58/11 31/59/11 32/60/11
f 30/61/12 33/62/12 34/63/12 31/64/12
f 33/65/13 35/66/13 36/67/13 34/68/13
f 35/69/14 29/70/14 32/71/14 36/72/14
f 37/73/15 38/74/15 39/75/15 40/76/15
f 38/77/16 41/78/16 42/79/16 39/80/16
f 41/81/17 43/82/17 44/83/17 42/84/17
f 43/85/18 45/86/18 46/87/18 44/88/18
f 45/86/17 47/89/17 48/90/17 46/87/17
f 47/91/19 37/92/19 40/93/19 48/94/19
f 49/95/20 50/96/20 51/97/20 52/98/20
f 50/99/21 53/100/21 54/101/21 51/102/21
f 53/103/22 55/104/22 56/105/22 54/106/22
f 55/107/23 57/108/23 58/109/23 56/110/23
f 57/111/24 59/112/24 60/113/24 58/114/24
f 59/115/25 61/116/25 62/117/25 60/118/25
f 61/119/26 63/120/26 64/121/26 62/122/26
f 63/123/23 49/124/23 52/125/23 64/126/23
f 65/127/27 66/128/27 67/129/27 68/130/27
f 66/131/28 69/132/28 70/133/28 67/134/28
f 69/135/29 71/136/29 72/137/29 70/138/29
f 71/139/30 73/140/30 74/141/30 72/142/30
f 73/143/31 75/144/31 76/145/31 74/146/31
f 75/147/32 65/148/32 68/149/32 76/150/32
f 77/151/33 78/152/33 79/153/33 80/154/33
f 78/155/34 81/156/34 82/157/34 79/158/34
f 81/159/35 83/160/35 84/161/35 82/162/35
f 83/163/36 77/164/36 80/165/36 84/166/36
f 85/167/37 86/168/37 87/169/37 88/170/37
f 86/171/38 89/172/39 90/173/39 87/174/38
f 89/175/39 91/176/40 92/177/40 90/178/39
f 91/179/41 93/180/41 94/181/41 92/182/41
f 93/183/42 85/184/42 88/185/42 94/186/42
f 95/187/43 96/188/43 97/189/43 98/190/43
f 96/191/44 99/192/44 100/193/44 97/194/44
f 99/195/45 101/196/45 102/197/45 100/198/45
f 101/199/46 95/200/46 98/201/46 102/202/46
f 103/203/47 104/204/47 105/205/47 106/206/47
f 104/207/48 107/208/48 108/209/48 105/210/48
f 107/208/49 109/211/49 110/212/49 108/209/49
f 109/213/50 111/214/50 112/215/50 110/216/50
f 111/217/51 113/218/51 114/219/51 112/220/51
f 113/221/52 115/222/52 116/223/52 114/224/52
f 115/225/53 117/226/53 118/227/53 116/228/53
f 117/226/54 103/229/54 106/230/54 118/227/54
f 119/231/55 120/232/55 121/233/55 122/234/55
f 120/235/56 123/236/56 124/237/56 121/238/56
f 123/239/55 125/240/55 126/241/55 124/242/55
f 125/243/57 127/244/57 128/245/57 126/246/57
f 127/247/58 129/248/58 130/249/58 128/250/58
f 129/251/59 119/252/59 122/253/59 130/254/59
f 131/255/60 132/256/60 133/257/60 134/258/60
f 132/259/61 135/260/61 136/261/61 133/262/61
f 135/263/62 137/264/62 138/265/62 136/266/62
f 137/267/63 139/268/63 140/269/63 138/270/63
f 139/271/64 141/272/64 142/273/64 140/274/64
f 141/275/61 143/276/61 144/277/61 142/278/61
f 143/279/65 145/280/65 146/281/65 144/282/65
f 145/283/66 131/284/66 134/285/66 146/286/66
f 147/287/67 148/288/67 149/289/67 150/290/67
f 148/291/68 151/292/68 152/293/68 149/294/68
f 151/295/69 153/296/69 154/297/69 152/298/69
f 153/299/70 155/300/70 156/301/70 154/302/70
f 155/303/68 157/304/68 158/305/68 156/306/68
f 157/307/69 159/308/69 160/309/69 158/310/69
f 159/311/71 147/312/71 150/313/71 160/314/71
f 161/315/72 162/316/72 163/317/72 164/318/72
f 162/319/73 165/320/73 166/321/73 163/322/73
f 165/323/74 167/324/74 168/325/74 166/326/74
f 167/327/73 169/328/73 170/329/73 168/330/73
f 169/331/75 171/332/75 172/333/75 170/334/75
f 171/335/76 173/336/76 174/337/76 172/338/76
f 173/339/77 175/340/77 176/341/77 174/342/77
f 175/343/78 161/344/78 164/345/78 176/346/78
f 177/347/79 178/348/79 179/349/79 180/350/79
f 178/351/80 181/352/80 182/353/80 179/354/80
f 181/352/81 183/355/81 184/356/81 182/353/81
f 183/357/82 185/358/82 186/359/82 184/360/82
f 185/361/83 187/362/83 188/363/83 186/364/83
f 187/365/84 189/366/84 190/367/84 188/368/84
f 189/366/85 177/369/85 180/370/85 190/367/85
