# Blender v2.78 (sub 0) OBJ File: ''
# www.blender.org
mtllib CityEngineMaterial_783.mtl
o CityEngineMaterial_783
v -1168.938843 19.432617 498.746185
v -1176.779907 19.432619 496.967896
v -1177.165039 19.432617 498.659393
v -1176.312622 19.432617 498.852692
v -1176.684082 19.432617 500.482788
v -1178.078125 19.432617 502.668610
v -1177.536011 19.432617 500.288696
v -1170.239380 19.432617 504.454895
v -1170.077393 20.826618 498.488007
v -1174.790527 20.826620 497.419098
v -1175.591064 20.826618 500.938110
v -1170.877930 20.826618 502.007111
v 606.372925 41.710365 210.338501
v 607.692993 41.710365 215.893799
v 617.779724 41.710365 213.494904
v 617.605530 41.710365 212.761703
v 618.164795 41.710365 212.737503
v 618.025024 41.710365 209.834503
v 616.362122 42.741764 211.822098
v 617.125427 42.741764 211.789093
v 617.081116 42.741764 210.868698
v 608.065430 42.741764 213.168106
v 607.616272 42.741764 211.278107
v 616.584717 42.741764 212.758896
v 612.162109 42.741764 212.990906
v 612.346497 42.741764 213.766800
v 464.765015 46.426888 62.634708
v 476.728210 46.426888 60.664307
v 475.593597 46.426891 40.919006
v 463.729401 46.426891 42.899208
v 465.799713 52.933689 61.348709
v 475.572510 52.933689 59.739109
v 475.110413 52.933693 51.697208
v 465.377411 52.933693 53.300308
v 471.039215 67.377090 52.367813
v 475.110413 67.377090 51.697212
v 474.565094 67.377090 42.206612
v 469.504608 67.377090 43.051212
v 467.689087 54.344490 60.997009
v 474.593903 54.344490 59.859707
v 473.926086 54.344494 55.805607
v 467.021393 54.344494 56.942909
v 469.235596 54.344494 56.578209
v 473.298615 54.344494 51.995609
v 468.608093 54.344494 52.768208
v 475.034485 68.852592 50.776413
v 474.623505 68.852592 43.624512
v 472.386414 68.852592 43.753010
v 472.797302 68.852592 50.905010
v 472.503601 68.852592 45.793713
v 472.390686 68.852592 43.829510
v 470.508301 68.852592 43.937611
v 470.621185 68.852592 45.901913
v -280.740692 5.276877 141.225296
v -303.400909 5.276877 140.946396
v -302.947693 5.276875 154.660004
v -280.916595 5.276875 154.929092
v -290.209106 37.084679 142.829803
v -301.621490 37.084679 142.689301
v -301.282013 37.084675 152.959396
v -289.869690 37.084675 153.098694
v -282.483612 9.984677 142.924896
v -290.209106 9.984677 142.829803
v -290.063293 9.984676 147.239700
v -282.535706 9.984676 146.990906
v -291.854889 38.612377 142.809494
v -299.564606 38.612377 142.714706
v -299.643188 38.612377 149.105392
v -291.933594 38.612377 149.200302
v -289.505890 10.978176 143.518494
v -289.450806 10.978176 145.184906
v -286.139893 10.978176 145.225693
v -283.207397 10.978176 146.332703
v -286.155304 10.978176 146.430099
v -283.172302 10.978176 143.596405
v -296.109894 38.612377 149.148895
v -296.156891 38.612373 152.971100
v -291.980591 38.612373 153.022507
v -1521.364990 25.171135 399.492401
v -1512.322754 25.171135 403.203094
v -1508.714844 25.171135 394.377502
v -1510.524536 25.171135 393.634888
v -1510.007690 25.171135 392.418396
v -1517.116943 25.171137 389.495300
v -1517.812378 25.681038 391.256195
v -1521.033813 25.681036 398.837311
v -1516.438354 25.681036 400.790009
v -1513.217041 25.681036 393.209015
v -1515.146240 25.681036 397.749115
v -1512.202759 25.680935 402.589813
v -1510.910522 25.680935 399.549011
v -154.630203 4.286065 215.594299
v -171.851593 4.286064 218.606506
v -168.355103 4.286061 238.595901
v -150.585800 4.286061 236.232895
v -167.802597 28.748962 233.220901
v -153.058502 28.748962 231.260101
v -155.067993 28.748964 221.005905
v -169.497803 28.748964 223.529800
v -165.667892 14.304062 236.755203
v -153.812897 14.304062 235.178696
v -157.267899 14.304065 217.548294
v -168.678406 14.304064 219.544098
v -154.410400 36.087860 230.612106
v -156.094406 36.087864 222.018494
v -168.172394 36.087860 224.131104
v -166.751694 36.087860 232.253403
v -155.075104 21.316662 233.923294
v -157.979004 21.316664 219.104996
v -167.453003 21.316664 220.762100
v -164.921906 21.316662 235.232697
v -167.087204 38.056362 224.660706
v -165.903900 38.056362 231.425797
v -155.517899 38.056362 230.044601
v -156.921295 38.056362 222.882599
v -166.477203 26.225464 221.813202
v -164.355392 26.225462 233.943405
v -156.081696 26.225462 232.843094
v -158.516098 26.225464 220.420700
v -156.925293 34.243263 231.950699
v -158.971100 34.243267 221.511093
v -165.659302 34.243263 222.681000
v -163.876205 34.243263 232.875107
v -164.613007 38.622662 231.218506
v -157.285797 38.622662 230.244003
v -157.771194 38.622662 226.594299
v -165.098404 38.622662 227.568802
v -164.970795 36.211761 223.421295
v -163.476105 36.211761 231.966705
v -157.635605 36.211761 231.189804
v -159.350494 36.211761 222.438202
v -159.296997 38.622662 226.797195
v -159.713104 38.622662 223.668396
v -165.514496 38.622662 224.439896
v -157.915695 36.702961 229.910904
v -159.202698 36.702961 223.343094
v -162.399704 36.702961 223.969604
v -161.112595 36.702961 230.537399
v -161.546402 36.702961 228.323807
v -163.921295 36.702961 228.789200
v -163.487503 36.702961 231.002808
v -161.959900 36.702961 226.213806
v -164.774506 36.702961 224.434998
v -164.334793 36.702961 226.679199
v 524.929321 64.080429 -165.838882
v 523.096497 64.080429 -176.540390
v 510.399597 64.080429 -174.361481
v 512.068481 64.080421 -163.811584
v 524.929321 70.850227 -165.838882
v 523.096497 70.850227 -176.540390
v 510.399689 70.850227 -174.361481
v 512.068481 70.850220 -163.811584
v 514.082581 72.195328 -164.183578
v 522.695190 72.195328 -165.541183
v 521.585876 72.195328 -172.578384
v 512.973328 72.195328 -171.220779
v 514.468628 72.195328 -171.456482
v 519.165710 72.195328 -172.196884
v 518.620178 72.195328 -175.657379
v 513.923096 72.195328 -174.916885
v 195.071701 23.464062 238.771805
v 195.092102 23.464062 239.499893
v 195.509598 23.464060 244.253098
v 209.527100 23.464062 238.409607
v 217.568497 23.464062 237.953003
v 217.807098 23.464060 242.987198
v 209.513199 23.464062 237.916901
v 196.835907 23.936359 244.177795
v 208.342697 23.936359 243.524506
v 208.130402 23.936361 239.785400
v 196.623596 23.936359 240.438705
v -502.143311 11.982512 537.421570
v -502.258789 11.982512 547.135010
v -490.459198 11.982512 547.279480
v -492.588409 11.982512 543.888916
v -490.419098 11.982512 543.915283
v -492.545197 11.982512 540.255188
v -490.375702 11.982512 540.281677
v -490.343292 11.982512 537.565796
v -490.707214 12.588511 547.025391
v -490.673004 12.588511 544.163330
v -492.842407 12.588511 544.136719
v -496.541992 12.588511 542.290588
v -492.793213 12.588512 540.001221
v -501.949402 12.588511 542.224609
v -490.597290 12.588512 537.813721
v -490.623688 12.588512 540.027710
v -501.895386 12.588512 537.675720
v -496.597412 12.588511 546.953186
v -252.716599 9.002491 669.694824
v -257.823700 9.002492 664.169800
v -269.898712 9.002490 675.331909
v -268.684113 9.002489 676.645874
v -270.252014 9.002489 678.095581
v -266.358185 9.002488 682.306519
v -261.161194 9.948092 669.683289
v -267.378906 9.948091 675.430908
v -266.164307 9.948090 676.744873
v -261.514709 9.948091 672.446289
v -261.254211 9.948091 672.728027
v -266.259491 9.948090 679.786682
v -267.731995 9.948090 678.194275
v -256.448212 9.948092 668.284912
v -255.236404 9.948092 669.595886
v -259.946991 9.948091 670.996887
v -158.038101 9.233758 874.993225
v -154.850601 9.233756 881.973572
v -148.535095 9.233757 879.089417
v -152.588104 9.233758 874.453430
v -150.986206 9.233758 873.721802
v -153.324600 9.233758 872.840576
v -156.900604 10.640757 877.484314
v -155.251602 10.640756 881.095276
v -151.807007 10.640757 879.522278
v -153.455994 10.640757 875.911072
v -148.936203 10.640757 878.211182
v -150.585098 10.640758 874.599976
v -239.489807 6.234995 642.794495
v -250.214798 6.235097 631.207275
v -267.346893 6.234994 647.059998
v -256.638397 6.234993 658.645325
v -239.489807 15.744195 642.794495
v -245.494995 15.744196 636.306519
v -262.628296 15.744194 652.164917
v -256.638397 15.744192 658.645325
v -254.866806 15.744195 644.980896
v -259.587799 15.744196 639.880371
v -267.346893 15.744194 647.059998
v -242.492004 17.168795 645.569519
v -245.667206 17.168795 642.137329
v -256.809906 17.168793 652.436829
v -253.636200 17.168793 655.870300
v -255.491898 16.277494 645.559509
v -258.689911 16.277494 642.104370
v -265.199310 16.277494 648.129395
v -262.003296 16.277493 651.586426
v -260.212891 16.277494 640.458923
v -264.190186 16.277494 644.139099
v -262.666595 16.277494 645.785217
v -454.697113 14.260943 347.870697
v -457.615997 14.260943 347.836700
v -457.720490 14.260942 356.757294
v -458.269989 14.260941 364.723785
v -458.103485 14.260942 356.749298
v -454.948792 14.260941 364.793213
v -454.827301 14.260942 358.986786
v -457.543488 15.001541 364.026886
v -455.645691 15.001541 364.066711
v -455.539093 15.001542 358.975189
v -457.017090 15.001542 357.484009
v -456.253113 15.001543 353.912506
v -456.190613 15.001543 348.565186
v -455.417297 15.001543 348.574188
v -456.975098 15.001543 353.897491
v -457.406708 15.001542 357.475891
v 441.491302 45.948395 20.570507
v 442.818787 45.948391 39.885208
v 462.220490 45.948391 38.545807
v 461.223389 45.948395 19.545107
v 441.491302 73.431503 20.570511
v 442.818787 73.431496 39.885212
v 453.869202 73.431496 39.122311
v 452.554596 73.431503 19.995611
v 453.265686 57.501095 30.342009
v 453.869202 57.501091 39.122307
v 462.220490 57.501091 38.545807
v 461.759308 57.501095 29.758209
v 448.054413 74.554695 26.284111
v 451.414612 74.554695 26.109512
v 451.106598 74.554703 21.629511
v 443.152802 74.554703 22.042812
v 448.853485 74.554695 37.908310
v 444.265015 74.554695 38.225113
v 457.844513 58.645996 32.437813
v 461.734100 58.645996 32.170410
v 461.615997 58.645996 29.920010
v 453.427399 58.645996 30.482910
v 458.272614 58.645992 38.666313
v 454.010101 58.645992 38.960613
v 538.699890 50.274387 65.834404
v 539.361694 50.274384 86.210106
v 553.507812 50.274384 85.755905
v 552.854187 50.274387 65.391510
v 540.177185 66.062393 67.220505
v 540.461426 66.062386 75.968307
v 551.750122 66.062386 75.615005
v 551.469299 66.062393 66.867111
v 541.219482 66.539093 67.187904
v 541.410522 66.539085 73.108208
v 550.617371 66.539085 72.820107
v 550.428284 66.539093 66.899704
v 541.501709 66.539085 75.935707
v 547.163391 66.539085 75.758507
v 547.074890 66.539085 72.931007
v 331.280487 62.012012 -680.939514
v 330.653992 62.012115 -692.170288
v 320.441193 62.012115 -691.571472
v 317.352509 62.012012 -687.703674
v 329.165405 62.012012 -678.283386
v 319.124908 63.217812 -686.341675
v 326.572113 63.217812 -680.402893
v 329.041107 63.217812 -683.499084
v 321.593903 63.217812 -689.437805
v 324.531311 63.217812 -687.095398
v 325.711212 63.217812 -688.575012
v 322.773804 63.217815 -690.917480
v 326.167114 63.217812 -685.791016
v 330.221008 63.217812 -684.978577
v 327.346893 63.217812 -687.270630
v 566.778015 31.439104 585.843689
v 574.942200 31.439104 584.132690
v 570.904785 31.439108 564.866516
v 566.477295 31.439106 577.536072
v 564.118225 31.439108 566.277893
v 565.098083 31.439106 577.825195
v 572.586975 32.499203 582.593689
v 569.365112 32.499207 567.218689
v 567.963074 32.499207 567.510193
v 568.941223 32.499207 572.178101
v 568.832397 32.499203 579.075073
v 567.452515 32.499207 572.490173
v 568.317200 32.499203 583.488525
v 567.453186 32.499203 579.364197
v 280.217712 44.368122 -138.765793
v 285.882599 44.368122 -139.852600
v 282.554108 44.368126 -157.456696
v 278.087402 44.368122 -138.133698
v 268.001801 44.368122 -135.821594
v 264.928802 44.368126 -154.115097
v 277.764191 44.368122 -137.591797
v 275.171600 104.030022 -137.121582
v 271.715210 104.030022 -155.401688
v 264.928802 104.030022 -154.114990
v 268.001801 104.030022 -135.821579
v 266.224304 104.771423 -153.212387
v 268.924988 104.771423 -137.135483
v 270.326599 104.771423 -137.389587
v 268.491791 104.771423 -148.312485
v 270.816498 104.771324 -154.083084
v 271.789398 104.771423 -148.937683
v -627.937683 11.131468 199.966095
v -625.417725 11.131468 200.367905
v -624.760376 11.131468 196.245605
v -624.969299 11.131468 196.212296
v -624.581116 11.131469 193.776901
v -625.764893 11.131470 186.337402
v -627.872009 11.839168 199.553604
v -626.422913 11.839168 199.784607
v -625.897217 11.839168 196.487396
v -627.346313 11.839168 196.256393
v -626.169617 11.839168 198.196106
v -625.098572 11.839168 198.366806
v -624.941284 11.839168 197.380295
v -626.012329 11.839168 197.209503
v 327.471313 58.303020 -753.804016
v 325.133911 58.303024 -767.790405
v 319.987396 58.303024 -769.003174
v 325.671509 58.303020 -754.828125
v 321.177887 58.303020 -755.887024
v 317.813385 58.303024 -768.417114
v 325.912689 58.303020 -753.385376
v 326.596985 58.715023 -759.035583
v 325.498596 58.715027 -765.608276
v 322.554504 58.715027 -765.116394
v 323.653015 58.715023 -758.543579
v 323.444214 58.715023 -759.792908
v 323.062408 58.715027 -762.077576
v 320.222687 58.715027 -761.603088
v 320.604492 58.715023 -759.318420
vt -0.0000 1.0000
vt 0.5792 1.0000
vt 0.5793 0.7037
vt 0.5163 0.7037
vt 0.5164 0.4182
vt 0.5796 0.0014
vt 0.5794 0.4183
vt 0.0004 0.0000
vt -0.0000 1.0000
vt 0.9995 1.0000
vt 1.0000 0.0000
vt 0.0004 0.0000
vt 0.7480 1.0000
vt 0.6789 0.0000
vt 0.0267 0.3497
vt 0.0359 0.4817
vt 0.0000 0.4817
vt 0.0009 1.0000
vt 0.0865 0.6576
vt -0.0000 0.6576
vt 0.0005 1.0000
vt 1.0319 0.2910
vt 1.0735 1.0000
vt 0.0659 0.3062
vt 0.5675 0.2911
vt 0.5504 -0.0000
vt 0.0000 0.0000
vt 0.0699 1.2567
vt 1.1495 1.2567
vt 1.0787 0.0102
vt 0.0000 0.7156
vt 1.2305 0.7156
vt 1.3362 0.0000
vt 0.1107 0.0000
vt 0.0000 0.1956
vt 0.0406 1.0000
vt 0.9265 1.0000
vt 0.8750 0.0000
vt -0.0000 1.0000
vt 1.0000 1.0000
vt 1.0000 0.0000
vt 0.0000 0.0000
vt -0.0000 1.0000
vt 1.0000 1.0000
vt 1.0000 0.0000
vt 0.0000 0.0000
vt -0.0000 1.0000
vt 1.0000 1.0000
vt 1.0000 0.0000
vt 0.0000 0.0000
vt -0.0000 1.0000
vt 1.0000 1.0000
vt 1.0000 0.0000
vt 0.0000 0.0000
vt 0.0000 0.9130
vt 0.9635 0.9130
vt 0.9370 0.0000
vt 0.0003 0.0001
vt 0.0311 0.8625
vt 0.7931 0.8625
vt 0.7620 0.0000
vt 0.0000 0.0000
vt -0.0000 1.0000
vt 1.0000 1.0000
vt 0.9741 0.0000
vt 0.0003 0.0775
vt -0.0000 1.0000
vt 1.0000 1.0000
vt 1.0000 0.0000
vt 0.0000 0.0000
vt 1.0000 1.0000
vt 0.9881 0.4197
vt 0.4653 0.4197
vt 0.0002 0.0466
vt 0.4654 0.0000
vt -0.0000 1.0000
vt -0.0000 1.0000
vt 1.0000 1.0000
vt 1.0000 0.0000
vt 0.0000 0.0000
vt 0.7019 0.6504
vt 0.6942 -0.0000
vt 0.0832 0.0087
vt 0.0847 0.1389
vt -0.0000 0.1389
vt 0.0058 0.6504
vt -0.0000 1.0000
vt 0.5375 1.0000
vt 0.5375 0.0000
vt 0.0000 0.0000
vt 0.0000 0.0000
vt -0.0000 1.0000
vt 1.0000 1.0000
vt 1.0000 0.0000
vt 1.2850 1.0635
vt 1.3068 0.0245
vt 0.0671 -0.0000
vt 0.0000 1.0635
vt 0.0359 0.7121
vt 1.3632 0.7121
vt 1.3060 -0.0000
vt 0.0000 0.0409
vt 0.0239 0.0000
vt 0.0000 0.8143
vt 0.5855 0.8143
vt 0.5932 0.0243
vt 0.8808 0.7259
vt 0.8438 0.0000
vt 0.0000 0.0417
vt 0.0233 0.7259
vt 0.0000 0.8124
vt 1.6238 0.8124
vt 1.6449 0.0245
vt 0.0654 0.0000
vt 0.0000 0.0580
vt 0.0187 1.0000
vt 0.7168 1.0000
vt 0.6870 0.0000
vt 1.0274 0.0289
vt 0.0410 0.0000
vt -0.0000 0.9601
vt 1.0142 0.9601
vt -0.0000 1.0000
vt 1.2463 1.0000
vt 1.2625 0.0301
vt 0.0503 0.0000
vt -0.0000 1.0000
vt 1.0000 1.0000
vt 1.0000 0.0000
vt 0.0000 0.0000
vt 0.8202 0.0300
vt 0.0328 0.0000
vt -0.0000 1.0000
vt 0.8097 1.0000
vt -0.0000 1.0000
vt 1.0000 1.0000
vt 1.0000 0.0000
vt 0.0000 0.0000
vt -0.0000 1.0000
vt 1.0000 1.0000
vt 1.0000 0.0000
vt 0.0000 0.0000
vt -0.0000 1.0000
vt 1.0000 1.0000
vt 1.0000 0.0000
vt 0.0000 0.0000
vt -0.0000 1.0000
vt 1.0000 1.0000
vt 1.0000 0.0000
vt 1.0795 0.7556
vt 1.0676 -0.0000
vt 0.0000 0.0122
vt 0.0005 0.7556
vt 1.1950 1.1151
vt 1.1818 0.0000
vt 0.0000 0.0180
vt 0.0005 1.1151
vt -0.0000 1.0000
vt 0.7969 1.0000
vt 0.7969 0.0000
vt 0.0000 0.0000
vt -0.0000 1.0000
vt 1.0000 1.0000
vt 1.0000 0.0000
vt 0.0000 0.0000
vt 0.0007 0.0063
vt 0.0000 0.1379
vt 0.0051 1.0000
vt 0.5047 0.0891
vt 0.7856 0.0891
vt 0.7839 1.0000
vt 0.5052 0.0000
vt -0.0000 1.0000
vt 1.0260 1.0000
vt 1.0260 0.0000
vt 0.0000 0.0000
vt 0.0000 0.0000
vt 0.0003 0.7100
vt 0.9667 0.7100
vt 0.7890 0.4641
vt 0.9667 0.4641
vt 0.7889 0.1985
vt 0.9666 0.1985
vt 0.9665 0.0000
vt 0.0000 0.0000
vt 0.0001 0.3355
vt 0.1970 0.3355
vt 0.5348 0.5466
vt 0.1971 0.8204
vt 1.0257 0.5466
vt 0.0002 1.0799
vt 0.0002 0.8204
vt 1.0258 1.0799
vt 0.5347 0.0000
vt 0.7471 1.0000
vt 0.7472 0.0001
vt 0.0859 0.0000
vt 0.0859 0.2378
vt 0.0000 0.2378
vt -0.0000 1.0000
vt 0.9381 0.0001
vt 0.1889 -0.0000
vt 0.1889 0.4521
vt 0.7491 0.4520
vt 0.7491 0.5490
vt -0.0000 1.0000
vt 0.0000 0.4521
vt 1.3282 0.5490
vt 1.3282 1.0000
vt 0.9380 0.4520
vt -0.0000 1.0000
vt 1.0000 1.0000
vt 1.0000 0.0000
vt 0.2310 0.2536
vt 0.2310 0.0000
vt 0.0000 0.2537
vt -0.0000 1.0000
vt 1.0000 1.0000
vt 1.0000 0.0000
vt 0.0000 0.0000
vt -0.0000 1.0000
vt 1.0000 1.0000
vt 1.0000 0.0000
vt 0.0000 0.0000
vt 0.0000 0.0000
vt 0.0001 0.8243
vt 0.8776 0.8243
vt 0.8780 0.0007
vt 0.0000 0.0000
vt 0.0000 0.9105
vt 1.1641 0.9105
vt 1.1645 0.0016
vt 0.0000 0.0002
vt -0.0000 1.0000
vt 0.9537 1.0000
vt 0.9540 0.0000
vt 0.0000 0.0000
vt 0.0002 1.0000
vt 1.4919 1.0000
vt 1.4919 0.0000
vt 0.0000 0.0000
vt -0.0000 1.0000
vt 1.0605 1.0000
vt 1.0608 -0.0000
vt 0.0000 0.0004
vt -0.0000 1.0000
vt 1.0000 1.0000
vt 1.0000 0.0000
vt 0.7074 1.0000
vt 0.7074 0.1351
vt 0.3345 0.1351
vt 0.0013 0.0000
vt 0.3347 0.0216
vt 0.0000 0.9841
vt 0.2427 1.0000
vt 0.0017 0.0000
vt -0.0000 0.9759
vt 0.5006 1.0000
vt 0.6455 0.2312
vt 0.9975 0.6024
vt 1.5232 0.6024
vt 1.5232 1.0000
vt 0.9981 0.2312
vt 0.6459 0.0308
vt 0.7850 0.7165
vt 0.7722 -0.0000
vt 0.0000 0.0122
vt 0.0004 0.7165
vt -0.0000 0.9067
vt 0.7369 0.9067
vt 0.7368 -0.0000
vt 0.0070 0.0000
vt 0.0000 0.6037
vt 0.7316 0.6037
vt 0.7314 0.0101
vt 0.0000 0.0000
vt 0.1552 0.4004
vt 0.1571 0.0000
vt 0.0045 0.0000
vt 0.0000 0.9479
vt 0.5512 0.4004
vt 0.5513 0.9479
vt 0.1501 0.3691
vt 0.1501 0.0034
vt 0.0000 0.0000
vt 0.0000 0.7699
vt 0.5658 0.3691
vt 0.5659 0.7699
vt -0.0000 1.7441
vt 1.1052 1.7441
vt 1.1055 0.0010
vt 0.0009 0.0000
vt 0.0000 0.0000
vt 0.0007 0.5658
vt 0.7989 0.5658
vt 0.7984 0.0000
vt 0.0000 0.0000
vt 0.0005 1.0000
vt 0.8480 1.0000
vt 0.8477 -0.0000
vt 0.0000 0.0000
vt 0.0005 1.0000
vt 1.0000 1.0000
vt 1.0000 0.0000
vt 1.0727 0.8581
vt 0.5407 0.0000
vt 0.0002 0.6992
vt -0.0000 1.2054
vt 1.0728 1.2054
vt -0.0000 1.0000
vt 0.6450 1.0000
vt 0.6450 0.0000
vt 0.0000 0.0000
vt -0.0000 1.0000
vt 1.0000 1.0000
vt 1.0000 0.0000
vt 0.0000 0.0000
vt -0.0000 1.0000
vt 1.0000 1.0000
vt 1.0000 0.0000
vt 0.0000 0.0000
vt 0.0000 0.0000
vt 0.0000 0.7532
vt 1.0792 0.7532
vt 0.4492 0.1273
vt 1.0798 0.1273
vt 0.4491 0.0000
vt -0.0000 1.0000
vt 1.8216 1.0000
vt 1.8219 0.6718
vt 1.2688 0.6717
vt 0.4886 0.3231
vt 1.2688 0.3231
vt 0.0000 0.0000
vt 0.4886 0.0001
vt 0.8244 0.2981
vt 0.8184 -0.0000
vt -0.0000 0.0189
vt 0.8368 0.4122
vt 0.8646 0.9462
vt 0.0172 0.9462
vt 0.8588 0.4333
vt -0.0000 1.0000
vt 0.6155 1.0000
vt 0.6154 0.0520
vt 0.0017 0.0000
vt 0.0031 1.0000
vt 0.5268 1.0000
vt 0.5262 0.7020
vt 0.1704 0.7020
vt 0.0000 0.0224
vt 0.1682 0.0000
vt 1.2725 1.0000
vt 1.2725 0.0000
vt 0.8876 0.0000
vt 0.8876 0.0829
vt 0.6602 0.0829
vt -0.0000 1.0000
vt 0.0000 0.0000
vt -0.0000 1.0000
vt 1.0000 1.0000
vt 1.0000 0.0000
vt -0.0000 1.0000
vt 1.0000 1.0000
vt 1.0000 0.0000
vt 0.0000 0.0000
vt 0.0068 1.0000
vt 0.6235 1.0000
vt 0.7124 0.3149
vt 0.0636 0.7743
vt 0.1412 0.1761
vt 0.7028 -0.0000
vt -0.0000 0.7743
vt -0.0000 1.0000
vt 1.0000 1.0000
vt 1.0000 0.0000
vt 0.0000 0.0000
vt 0.0000 0.0000
vt -0.0000 1.0000
vt 1.0000 1.0000
vt 1.0000 0.0000
vn -0.0000 1.0000 0.0000
g CityEngineMaterial_783_CityEngineMaterial_783_CityEngineMaterial_783_mat
usemtl CityEngineMaterial_783_mat
s 1
f 1/1/1 2/2/1 3/3/1 4/4/1
f 1/1/1 4/4/1 5/5/1 6/6/1
f 5/5/1 7/7/1 6/6/1
f 1/1/1 6/6/1 8/8/1
f 9/9/1 10/10/1 11/11/1 12/12/1
f 13/13/1 14/14/1 15/15/1 16/16/1
f 13/13/1 16/16/1 17/17/1 18/18/1
f 19/19/1 20/20/1 21/21/1 22/22/1
f 21/21/1 23/23/1 22/22/1
f 24/24/1 19/19/1 22/22/1 25/25/1
f 26/26/1 24/24/1 25/25/1
f 27/27/1 28/28/1 29/29/1 30/30/1
f 31/31/1 32/32/1 33/33/1 34/34/1
f 35/35/1 36/36/1 37/37/1 38/38/1
f 39/39/1 40/40/1 41/41/1 42/42/1
f 43/43/1 41/44/1 44/45/1 45/46/1
f 46/47/1 47/48/1 48/49/1 49/50/1
f 50/51/1 51/52/1 52/53/1 53/54/1
f 54/55/1 55/56/1 56/57/1 57/58/1
f 58/59/1 59/60/1 60/61/1 61/62/1
f 62/63/1 63/64/1 64/65/1 65/66/1
f 66/67/1 67/68/1 68/69/1 69/70/1
f 70/71/1 71/72/1 72/73/1 73/74/1
f 72/73/1 74/75/1 73/74/1
f 70/71/1 73/74/1 75/76/1
f 69/77/1 76/78/1 77/79/1 78/80/1
f 79/81/1 80/82/1 81/83/1 82/84/1
f 79/81/1 82/84/1 83/85/1 84/86/1
f 85/87/1 86/88/1 87/89/1 88/90/1
f 89/91/1 87/92/1 90/93/1 91/94/1
f 92/95/1 93/96/1 94/97/1 95/98/1
f 96/99/1 97/100/1 98/101/1 99/102/1
f 100/103/1 101/104/1 102/105/1 103/106/1
f 104/107/1 105/108/1 106/109/1 107/110/1
f 108/111/1 109/112/1 110/113/1 111/114/1
f 112/115/1 113/116/1 114/117/1 115/118/1
f 116/119/1 117/120/1 118/121/1 119/122/1
f 120/123/1 121/124/1 122/125/1 123/126/1
f 124/127/1 125/128/1 126/129/1 127/130/1
f 128/131/1 129/132/1 130/133/1 131/134/1
f 127/135/1 132/136/1 133/137/1 134/138/1
f 135/139/1 136/140/1 137/141/1 138/142/1
f 138/142/1 139/143/1 140/144/1 141/145/1
f 142/146/1 137/147/1 143/148/1 144/149/1
f 145/150/1 146/151/1 147/152/1 148/153/1
f 149/154/1 150/155/1 151/156/1 152/157/1
f 153/158/1 154/159/1 155/160/1 156/161/1
f 157/162/1 158/163/1 159/164/1 160/165/1
f 161/166/1 162/167/1 163/168/1 164/169/1
f 165/170/1 164/169/1 163/168/1 166/171/1
f 167/172/1 161/166/1 164/169/1
f 168/173/1 169/174/1 170/175/1 171/176/1
f 172/177/1 173/178/1 174/179/1 175/180/1
f 174/179/1 176/181/1 175/180/1
f 172/177/1 175/180/1 177/182/1 178/183/1
f 172/177/1 178/183/1 179/184/1
f 180/185/1 181/186/1 182/187/1 183/188/1
f 183/188/1 182/187/1 184/189/1 185/190/1
f 186/191/1 185/190/1 184/189/1 187/192/1
f 186/191/1 188/193/1 185/190/1
f 180/185/1 183/188/1 189/194/1
f 190/195/1 191/196/1 192/197/1 193/198/1
f 190/195/1 193/198/1 194/199/1 195/200/1
f 196/201/1 197/202/1 198/203/1 199/204/1
f 200/205/1 199/204/1 198/203/1 201/206/1
f 198/203/1 202/207/1 201/206/1
f 203/208/1 200/205/1 201/206/1 204/209/1
f 196/201/1 199/204/1 205/210/1
f 206/211/1 207/212/1 208/213/1 209/214/1
f 208/213/1 210/215/1 209/214/1
f 211/216/1 206/211/1 209/214/1
f 212/217/1 213/218/1 214/219/1 215/220/1
f 215/221/1 214/222/1 216/223/1 217/224/1
f 218/225/1 219/226/1 220/227/1 221/228/1
f 222/229/1 223/230/1 224/231/1 225/232/1
f 226/233/1 227/234/1 228/235/1 224/236/1
f 229/237/1 230/238/1 231/239/1 232/240/1
f 233/241/1 234/242/1 235/243/1 236/244/1
f 234/245/1 237/246/1 238/247/1 239/248/1
f 240/249/1 241/250/1 242/251/1 243/252/1
f 242/251/1 244/253/1 243/252/1
f 240/249/1 243/252/1 245/254/1 246/255/1
f 247/256/1 248/257/1 249/258/1 250/259/1
f 251/260/1 250/259/1 249/258/1 252/261/1
f 249/258/1 253/262/1 252/261/1
f 251/260/1 254/263/1 250/259/1
f 247/256/1 250/259/1 255/264/1
f 256/265/1 257/266/1 258/267/1 259/268/1
f 260/269/1 261/270/1 262/271/1 263/272/1
f 264/273/1 265/274/1 266/275/1 267/276/1
f 268/277/1 269/278/1 270/279/1 271/280/1
f 272/281/1 268/277/1 271/280/1 273/282/1
f 274/283/1 275/284/1 276/285/1 277/286/1
f 278/287/1 274/283/1 277/286/1 279/288/1
f 280/289/1 281/290/1 282/291/1 283/292/1
f 284/293/1 285/294/1 286/295/1 287/296/1
f 288/297/1 289/298/1 290/299/1 291/300/1
f 289/301/1 292/302/1 293/303/1 294/304/1
f 295/305/1 296/306/1 297/307/1 298/308/1
f 295/305/1 298/308/1 299/309/1
f 300/310/1 301/311/1 302/312/1 303/313/1
f 303/314/1 304/315/1 305/316/1 306/317/1
f 307/318/1 302/319/1 308/320/1 309/321/1
f 310/322/1 311/323/1 312/324/1 313/325/1
f 312/324/1 314/326/1 313/325/1
f 315/327/1 310/322/1 313/325/1
f 316/328/1 317/329/1 318/330/1 319/331/1
f 320/332/1 316/328/1 319/331/1 321/333/1
f 322/334/1 316/328/1 320/332/1 323/335/1
f 324/336/1 325/337/1 326/338/1 327/339/1
f 328/340/1 327/339/1 326/338/1 329/341/1
f 328/340/1 330/342/1 327/339/1
f 331/343/1 332/344/1 333/345/1 334/346/1
f 335/347/1 336/348/1 337/349/1 338/350/1
f 339/351/1 335/347/1 338/350/1 340/352/1
f 341/353/1 342/354/1 343/355/1 344/356/1
f 341/353/1 344/356/1 345/357/1 346/358/1
f 347/359/1 348/360/1 349/361/1 350/362/1
f 351/363/1 352/364/1 353/365/1 354/366/1
f 355/367/1 356/368/1 357/369/1 358/370/1
f 359/371/1 358/370/1 357/369/1 360/372/1
f 355/367/1 358/370/1 361/373/1
f 362/374/1 363/375/1 364/376/1 365/377/1
f 366/378/1 367/379/1 368/380/1 369/381/1
