# Blender v2.78 (sub 0) OBJ File: ''
# www.blender.org
mtllib CityEngineMaterial_263.mtl
o CityEngineMaterial_263
v -1315.999756 12.002152 295.269196
v -1316.034302 12.002152 292.188812
v -1316.034302 14.296352 292.188812
v -1315.999756 14.296352 295.269196
v -1312.013672 12.002152 290.892212
v -1312.013672 14.296352 290.892212
v -1311.049683 12.002152 293.880798
v -1311.049683 14.296352 293.880798
v -1308.022339 12.002152 292.905212
v -1308.022339 14.296352 292.905212
v -1311.022095 12.002154 283.605713
v -1311.022095 14.296354 283.605713
v -1318.180420 12.002153 285.914215
v -1318.180420 14.296353 285.914215
v -1318.075439 12.002152 295.290497
v -1318.075439 14.296352 295.290497
v -1309.536011 14.909852 293.393005
v -1317.037476 14.696753 295.279785
v -793.794312 10.209125 463.220612
v -802.537109 10.209125 462.843414
v -802.537109 12.137825 462.843414
v -793.794312 12.137825 463.220612
v -803.040222 10.209124 469.185486
v -803.040222 12.137824 469.185486
v -799.484924 10.209124 469.338898
v -799.484924 12.137824 469.338898
v -800.275513 10.209122 479.305206
v -800.275513 12.137822 479.305206
v -795.093506 10.209122 479.598114
v -795.093506 12.137822 479.598114
v -928.045288 6.175359 249.824600
v -922.318787 6.175359 249.918701
v -922.318787 8.408059 249.918701
v -928.045288 8.408059 249.824600
v -921.959778 6.175361 240.514893
v -921.959778 8.408061 240.514893
v -940.513428 6.175361 240.211594
v -940.513428 8.408061 240.211594
v -940.757385 6.175360 246.430298
v -940.757385 8.408060 246.430298
v -927.923706 6.175360 246.640198
v -927.923706 8.408060 246.640198
v -925.182007 9.603859 249.871704
v -940.635376 9.707360 243.320999
v -698.749512 54.850071 -1042.868408
v -697.937927 54.850071 -1045.176880
v -697.937927 56.887074 -1045.176880
v -698.749512 56.887074 -1042.868408
v -696.252014 54.850071 -1049.979492
v -696.252014 56.887074 -1049.979492
v -695.829773 54.850071 -1051.180176
v -695.829773 56.887074 -1051.180176
v -701.253601 54.850071 -1056.330078
v -701.253601 56.887074 -1056.330078
v -701.822021 54.850071 -1054.713623
v -701.822021 56.887074 -1054.713623
v -706.006287 54.850071 -1058.721436
v -706.006287 56.887074 -1058.721436
v -709.229614 54.850071 -1059.848999
v -709.229614 56.887074 -1059.848999
v -712.786804 54.850071 -1056.313721
v -712.786804 56.887074 -1056.313721
v 882.578674 107.386948 -271.129883
v 886.964783 107.386948 -274.008575
v 886.964783 109.232048 -274.008575
v 882.578674 109.232048 -271.129883
v 887.827881 107.386948 -268.403259
v 887.827881 109.232048 -268.403259
v 891.663818 107.386948 -270.923065
v 891.663818 109.232048 -270.923065
v 889.749878 107.386948 -283.350372
v 889.749878 109.232048 -283.350372
v 879.153809 107.386948 -276.396057
v 879.153809 109.232048 -276.396057
v 889.745911 110.017044 -269.663177
v 880.866272 110.413345 -273.762970
v -214.683395 3.715564 834.416626
v -221.248901 3.715563 841.747925
v -221.248901 5.877763 841.747925
v -214.683395 5.877764 834.416626
v -216.339096 3.715562 846.164612
v -216.339096 5.877762 846.164612
v -213.103394 3.715563 842.551392
v -213.103394 5.877763 842.551392
v -207.953903 3.715562 847.184204
v -207.953903 5.877762 847.184204
v -211.209595 3.715561 850.778992
v -211.209595 5.877761 850.778992
v -207.288803 3.715561 854.306091
v -207.288803 5.877761 854.306091
v -200.682907 3.715562 847.012329
v -200.682907 5.877762 847.012329
v -706.503723 35.650757 -949.438171
v -712.465576 35.650753 -947.671692
v -712.465576 37.709751 -947.671692
v -706.503723 37.709755 -949.438171
v -711.379822 35.650753 -944.805176
v -711.379822 37.709751 -944.805176
v -709.336975 35.650753 -939.428711
v -709.336975 37.709751 -939.428711
v -708.490417 35.650753 -937.200378
v -708.490417 37.709751 -937.200378
v -694.042725 35.650753 -941.471985
v -694.042725 37.709751 -941.471985
v -695.751221 35.650753 -946.008484
v -695.751221 37.709751 -946.008484
v -704.248901 35.650753 -943.495972
v -704.248901 37.709751 -943.495972
v -837.932617 14.040790 680.858887
v -837.379822 14.040790 676.713623
v -837.379822 16.123989 676.713623
v -837.932617 16.123989 680.858887
v -843.655029 14.040791 675.047180
v -843.655029 16.123989 675.047180
v -842.762573 14.040792 668.351685
v -842.762573 16.123991 668.351685
v -847.470703 14.040792 667.101807
v -847.470703 16.123991 667.101807
v -848.915771 14.040790 677.942627
v -848.915771 16.123989 677.942627
vt 0.0000 -1.0000
vt 1.5000 -1.0000
vt 1.5000 1.0000
vt 0.0000 1.0000
vt 0.5000 -1.0000
vt 2.5000 -1.0000
vt 2.5000 1.0000
vt 0.5000 1.0000
vt 0.0000 -1.0000
vt 1.5000 -1.0000
vt 1.5000 1.0000
vt 0.0000 1.0000
vt 0.0000 -1.0000
vt 1.5000 -1.0000
vt 1.5000 1.0000
vt 0.0000 1.0000
vt 0.0000 -1.0000
vt 4.5000 -1.0000
vt 4.5000 1.0000
vt 0.0000 1.0000
vt 0.5000 -1.0000
vt 4.0000 -1.0000
vt 4.0000 1.0000
vt 0.5000 1.0000
vt 0.0000 -1.0000
vt 4.0000 -1.0000
vt 4.0000 1.0000
vt 0.0000 1.0000
vt 0.5000 -1.0000
vt 1.5000 -1.0000
vt 1.5000 1.0000
vt 0.5000 1.0000
vt 0.0000 0.9000
vt 1.5000 0.9000
vt 0.7500 1.0000
vt 0.5000 0.9000
vt 1.5000 0.9000
vt 1.0000 1.0000
vt 0.0000 -1.0000
vt 3.5000 -1.0000
vt 3.5000 1.0000
vt 0.0000 1.0000
vt 0.0000 -1.0000
vt 2.5000 -1.0000
vt 2.5000 1.0000
vt 0.0000 1.0000
vt 0.5000 -1.0000
vt 2.0000 -1.0000
vt 2.0000 1.0000
vt 0.5000 1.0000
vt 0.5000 -1.0000
vt 4.5000 -1.0000
vt 4.5000 1.0000
vt 0.5000 1.0000
vt 0.0000 -1.0000
vt 2.0000 -1.0000
vt 2.0000 1.0000
vt 0.0000 1.0000
vt 0.5000 -1.0000
vt 7.5000 -1.0000
vt 7.5000 1.0000
vt 0.5000 1.0000
vt 0.5000 -1.0000
vt 3.0000 -1.0000
vt 3.0000 1.0000
vt 0.5000 1.0000
vt 0.5000 -1.0000
vt 4.5000 -1.0000
vt 4.5000 1.0000
vt 0.5000 1.0000
vt 0.0000 -1.0000
vt 8.0000 -1.0000
vt 8.0000 1.0000
vt 0.0000 1.0000
vt 0.5000 -1.0000
vt 3.0000 -1.0000
vt 3.0000 1.0000
vt 0.5000 1.0000
vt 0.0000 -1.0000
vt 5.5000 -1.0000
vt 5.5000 1.0000
vt 0.0000 1.0000
vt 0.5000 -1.0000
vt 2.0000 -1.0000
vt 2.0000 1.0000
vt 0.5000 1.0000
vt 0.5000 -0.0000
vt 3.0000 0.0000
vt 1.7500 1.0000
vt 0.5000 -0.0000
vt 3.0000 0.0000
vt 1.7500 1.0000
vt 0.0000 -1.0000
vt 1.0000 -1.0000
vt 1.0000 1.0000
vt 0.0000 1.0000
vt 0.0000 -1.0000
vt 2.0000 -1.0000
vt 2.0000 1.0000
vt 0.0000 1.0000
vt 0.5000 -1.0000
vt 1.0000 -1.0000
vt 1.0000 1.0000
vt 0.5000 1.0000
vt 0.5000 -1.0000
vt 3.5000 -1.0000
vt 3.5000 1.0000
vt 0.5000 1.0000
vt 0.5000 -1.0000
vt 1.0000 -1.0000
vt 1.0000 1.0000
vt 0.5000 1.0000
vt 0.0000 -1.0000
vt 2.5000 -1.0000
vt 2.5000 1.0000
vt 0.0000 1.0000
vt 0.0000 -1.0000
vt 1.5000 -1.0000
vt 1.5000 1.0000
vt 0.0000 1.0000
vt 0.0000 -1.0000
vt 2.0000 -1.0000
vt 2.0000 1.0000
vt 0.0000 1.0000
vt 0.5000 -1.0000
vt 8.0000 -1.0000
vt 8.0000 1.0000
vt 0.5000 1.0000
vt 0.0000 -1.0000
vt 2.5000 -1.0000
vt 2.5000 1.0000
vt 0.0000 1.0000
vt 0.0000 -1.0000
vt 2.5000 -1.0000
vt 2.5000 1.0000
vt 0.0000 1.0000
vt 0.5000 -1.0000
vt 2.5000 -1.0000
vt 2.5000 1.0000
vt 0.5000 1.0000
vt 0.5000 -1.0000
vt 6.0000 -1.0000
vt 6.0000 1.0000
vt 0.5000 1.0000
vt 0.5000 -1.0000
vt 6.0000 -1.0000
vt 6.0000 1.0000
vt 0.5000 1.0000
vt 0.5000 -1.0000
vt 3.5000 -1.0000
vt 3.5000 1.0000
vt 0.5000 1.0000
vt 0.0000 0.9000
vt 2.0000 0.9000
vt 1.0000 1.0000
vt 0.0000 0.0000
vt 3.0000 0.0000
vt 1.5000 1.0000
vt 0.5000 -1.0000
vt 5.0000 -1.0000
vt 5.0000 1.0000
vt 0.5000 1.0000
vt 0.0000 -1.0000
vt 3.0000 -1.0000
vt 3.0000 1.0000
vt 0.0000 1.0000
vt 0.0000 -1.0000
vt 2.0000 -1.0000
vt 2.0000 1.0000
vt 0.0000 1.0000
vt 0.5000 -1.0000
vt 3.5000 -1.0000
vt 3.5000 1.0000
vt 0.5000 1.0000
vt 0.0000 -1.0000
vt 2.0000 -1.0000
vt 2.0000 1.0000
vt 0.0000 1.0000
vt 0.0000 -1.0000
vt 2.5000 -1.0000
vt 2.5000 1.0000
vt 0.0000 1.0000
vt 0.5000 -1.0000
vt 5.0000 -1.0000
vt 5.0000 1.0000
vt 0.5000 1.0000
vt 0.0000 -1.0000
vt 8.5000 -1.0000
vt 8.5000 1.0000
vt 0.0000 1.0000
vt 0.5000 -1.0000
vt 3.0000 -1.0000
vt 3.0000 1.0000
vt 0.5000 1.0000
vt 0.5000 -1.0000
vt 1.5000 -1.0000
vt 1.5000 1.0000
vt 0.5000 1.0000
vt 0.0000 -1.0000
vt 2.0000 -1.0000
vt 2.0000 1.0000
vt 0.0000 1.0000
vt 0.5000 -1.0000
vt 1.5000 -1.0000
vt 1.5000 1.0000
vt 0.5000 1.0000
vt 0.0000 -1.0000
vt 6.0000 -1.0000
vt 6.0000 1.0000
vt 0.0000 1.0000
vt 0.0000 -1.0000
vt 2.0000 -1.0000
vt 2.0000 1.0000
vt 0.0000 1.0000
vt 0.0000 -1.0000
vt 3.5000 -1.0000
vt 3.5000 1.0000
vt 0.0000 1.0000
vt 0.5000 -1.0000
vt 3.0000 -1.0000
vt 3.0000 1.0000
vt 0.5000 1.0000
vt 0.0000 -1.0000
vt 2.0000 -1.0000
vt 2.0000 1.0000
vt 0.0000 1.0000
vt 0.0000 -1.0000
vt 3.0000 -1.0000
vt 3.0000 1.0000
vt 0.0000 1.0000
vt 0.0000 -1.0000
vt 3.0000 -1.0000
vt 3.0000 1.0000
vt 0.0000 1.0000
vt 0.0000 -1.0000
vt 2.0000 -1.0000
vt 2.0000 1.0000
vt 0.0000 1.0000
vt 0.0000 -1.0000
vt 5.0000 -1.0000
vt 5.0000 1.0000
vt 0.0000 1.0000
vt 0.5000 -1.0000
vt 5.5000 -1.0000
vt 5.5000 1.0000
vt 0.5000 1.0000
vn 0.9999 0.0000 -0.0112
vn 0.3069 0.0000 0.9517
vn -0.9517 0.0000 0.3070
vn 0.3067 0.0000 0.9518
vn 0.9517 0.0000 -0.3070
vn -0.3069 0.0000 -0.9517
vn -0.9999 0.0000 0.0112
vn 0.0103 0.0000 0.9999
vn 0.3067 -0.0001 0.9518
vn 0.0103 0.0001 0.9999
vn 0.0431 0.0000 -0.9991
vn -0.9969 0.0000 -0.0791
vn -0.0431 0.0000 0.9991
vn -0.0564 0.0000 0.9984
vn 0.9969 0.0000 0.0791
vn -0.0164 0.0000 0.9999
vn 0.9993 0.0000 0.0381
vn 0.0163 0.0000 -0.9999
vn -0.9992 0.0000 -0.0392
vn -0.9993 0.0000 -0.0382
vn -0.9992 -0.0001 -0.0392
vn 0.9434 0.0000 0.3317
vn 0.9435 0.0000 0.3314
vn 0.9435 0.0000 0.3315
vn 0.9434 0.0000 0.3318
vn 0.6886 0.0000 -0.7252
vn -0.9434 0.0000 -0.3317
vn 0.6917 0.0000 -0.7222
vn 0.3302 0.0000 -0.9439
vn -0.7049 0.0000 -0.7093
vn -0.6917 0.0000 0.7222
vn 0.5487 0.0000 0.8360
vn -0.9884 0.0000 0.1522
vn 0.5490 0.0000 0.8358
vn 0.9883 0.0000 -0.1522
vn -0.5487 0.0000 -0.8360
vn -0.8383 0.0000 0.5452
vn -0.8383 0.0001 0.5452
vn -0.7449 0.0000 -0.6671
vn -0.6688 0.0000 0.7435
vn 0.7450 0.0000 0.6671
vn -0.6688 0.0000 0.7434
vn -0.7412 0.0000 -0.6713
vn 0.7412 0.0000 0.6713
vn 0.6688 0.0000 -0.7434
vn -0.2841 0.0000 -0.9588
vn -0.9352 0.0000 0.3542
vn -0.9350 0.0000 0.3547
vn -0.9348 0.0000 0.3552
vn -0.9348 0.0000 0.3551
vn 0.2835 0.0000 0.9590
vn 0.9358 0.0000 -0.3524
vn -0.2835 0.0000 -0.9590
vn 0.9350 0.0000 -0.3548
vn 0.9912 0.0000 0.1322
vn 0.2567 0.0000 -0.9665
vn 0.9912 0.0000 0.1321
vn 0.2566 0.0000 -0.9665
vn -0.9912 0.0000 -0.1321
vn -0.2566 0.0000 0.9665
g CityEngineMaterial_263_CityEngineMaterial_263_CityEngineMaterial_263_mat
usemtl CityEngineMaterial_263_mat
s 1
f 1/1/1 2/2/1 3/3/1 4/4/1
f 2/5/2 5/6/2 6/7/2 3/8/2
f 5/9/3 7/10/3 8/11/3 6/12/3
f 7/13/4 9/14/4 10/15/4 8/16/4
f 9/17/5 11/18/5 12/19/5 10/20/5
f 11/21/6 13/22/6 14/23/6 12/24/6
f 13/25/7 15/26/7 16/27/7 14/28/7
f 15/29/8 1/30/8 4/31/8 16/32/8
f 8/33/9 10/34/9 17/35/9
f 16/36/10 4/37/10 18/38/10
f 19/39/11 20/40/11 21/41/11 22/42/11
f 20/43/12 23/44/12 24/45/12 21/46/12
f 23/47/13 25/48/13 26/49/13 24/50/13
f 25/51/12 27/52/12 28/53/12 26/54/12
f 27/55/14 29/56/14 30/57/14 28/58/14
f 29/59/15 19/60/15 22/61/15 30/62/15
f 31/63/16 32/64/16 33/65/16 34/66/16
f 32/67/17 35/68/17 36/69/17 33/70/17
f 35/71/18 37/72/18 38/73/18 36/74/18
f 37/75/19 39/76/19 40/77/19 38/78/19
f 39/79/16 41/80/16 42/81/16 40/82/16
f 41/83/20 31/84/20 34/85/20 42/86/20
f 34/87/16 33/88/16 43/89/16
f 38/90/21 40/91/21 44/92/21
f 45/93/22 46/94/23 47/95/23 48/96/22
f 46/97/23 49/98/24 50/99/24 47/100/23
f 49/101/24 51/102/25 52/103/25 50/104/24
f 51/105/26 53/106/26 54/107/26 52/108/26
f 53/109/27 55/110/27 56/111/27 54/112/27
f 55/113/28 57/114/28 58/115/28 56/116/28
f 57/117/29 59/118/29 60/119/29 58/120/29
f 59/121/30 61/122/30 62/123/30 60/124/30
f 61/125/31 45/126/31 48/127/31 62/128/31
f 63/129/32 64/130/32 65/131/32 66/132/32
f 64/133/33 67/134/33 68/135/33 65/136/33
f 67/137/34 69/138/34 70/139/34 68/140/34
f 69/141/35 71/142/35 72/143/35 70/144/35
f 71/145/36 73/146/36 74/147/36 72/148/36
f 73/149/37 63/150/37 66/151/37 74/152/37
f 68/153/34 70/154/34 75/155/34
f 74/156/38 66/157/38 76/158/38
f 77/159/39 78/160/39 79/161/39 80/162/39
f 78/163/40 81/164/40 82/165/40 79/166/40
f 81/167/41 83/168/41 84/169/41 82/170/41
f 83/171/42 85/172/42 86/173/42 84/174/42
f 85/175/43 87/176/43 88/177/43 86/178/43
f 87/179/42 89/180/42 90/181/42 88/182/42
f 89/183/44 91/184/44 92/185/44 90/186/44
f 91/187/45 77/188/45 80/189/45 92/190/45
f 93/191/46 94/192/46 95/193/46 96/194/46
f 94/195/47 97/196/48 98/197/48 95/198/47
f 97/199/48 99/200/49 100/201/49 98/202/48
f 99/203/49 101/204/50 102/205/50 100/206/49
f 101/207/51 103/208/51 104/209/51 102/210/51
f 103/211/52 105/212/52 106/213/52 104/214/52
f 105/215/53 107/216/53 108/217/53 106/218/53
f 107/219/54 93/220/54 96/221/54 108/222/54
f 109/223/55 110/224/55 111/225/55 112/226/55
f 110/227/56 113/228/56 114/229/56 111/230/56
f 113/231/57 115/232/57 116/233/57 114/234/57
f 115/235/58 117/236/58 118/237/58 116/238/58
f 117/239/59 119/240/59 120/241/59 118/242/59
f 119/243/60 109/244/60 112/245/60 120/246/60
