# Blender v2.78 (sub 0) OBJ File: ''
# www.blender.org
mtllib CityEngineMaterial_611.mtl
o CityEngineMaterial_611
v 510.361908 45.313190 66.721207
v 511.033691 45.313187 87.867805
v 511.033691 48.119984 87.867805
v 510.361908 48.119987 66.721207
v 525.206909 45.313187 87.389610
v 525.206909 48.119984 87.389610
v 524.516113 45.313190 66.278305
v 524.516113 48.119987 66.278305
v 512.117981 48.119987 68.370010
v 512.399719 48.119987 77.233406
v 512.399719 51.781887 77.233406
v 512.117981 51.781887 68.370010
v 523.159729 48.119987 76.896706
v 523.159729 51.781887 76.896706
v 522.869690 48.119987 68.033607
v 522.869690 51.781887 68.033607
v 512.681580 48.119984 86.108208
v 512.681580 51.781883 86.108208
v 519.140320 48.119984 85.890411
v 519.140320 51.781883 85.890411
v 518.863098 48.119987 77.031204
v 518.863098 51.781887 77.031204
v -105.007500 26.068182 -500.439697
v -99.736397 26.068182 -500.440186
v -99.736397 29.080683 -500.440186
v -105.007500 29.080683 -500.439697
v -95.647102 26.068182 -500.382996
v -95.647102 29.080683 -500.382996
v -95.656502 26.068184 -516.150330
v -95.656502 29.080685 -516.150330
v -109.641899 26.068184 -516.139526
v -109.641899 29.080685 -516.139526
v -109.071800 26.068182 -500.297211
v -109.071800 29.080683 -500.297211
v -306.385010 3.166401 609.416382
v -317.680603 3.166399 619.875122
v -317.680603 7.084999 619.875122
v -306.385010 7.085001 609.416382
v -305.297302 3.166397 633.190491
v -305.297302 7.084997 633.190491
v -294.035187 3.166399 622.777222
v -294.035187 7.084999 622.777222
v 97.852203 44.544018 -719.838928
v 100.963501 44.544014 -708.297180
v 100.963501 47.421715 -708.297180
v 97.852203 47.421719 -719.838928
v 122.236702 44.544014 -714.045410
v 122.236702 47.421715 -714.045410
v 119.100197 44.544018 -725.616089
v 119.100197 47.421719 -725.616089
v -79.052597 6.540721 -129.584702
v -64.149101 6.540721 -131.325394
v -64.149101 10.561321 -131.325394
v -79.052597 10.561321 -129.584702
v -66.270897 6.540724 -149.531006
v -66.270897 10.561325 -149.531006
v -80.897400 6.540724 -146.837997
v -80.897400 10.561324 -146.837997
v -671.066589 6.185133 408.532593
v -679.472290 6.185134 407.800293
v -679.472290 9.441733 407.800293
v -671.066589 9.441733 408.532593
v -679.891602 6.185133 411.509399
v -679.891602 9.441733 411.509399
v -677.400879 6.185133 411.726410
v -677.400879 9.441733 411.726410
v -677.704285 6.185133 414.410797
v -677.704285 9.441732 414.410797
v -671.806519 6.185133 415.077606
v -671.806519 9.441732 415.077606
v 422.187103 51.421223 -147.051178
v 398.252686 51.421223 -141.273590
v 398.252686 55.684021 -141.273590
v 422.187103 55.684021 -147.051178
v 402.173615 51.421219 -125.096893
v 402.173615 55.684017 -125.096893
v 424.142609 51.421223 -128.859283
v 424.142609 55.684021 -128.859283
v 121.701202 45.028912 -679.914001
v 133.666199 45.028912 -681.787720
v 133.666199 48.605110 -681.787720
v 121.701202 48.605110 -679.914001
v 128.703400 45.028915 -700.274780
v 128.703400 48.605114 -700.274780
v 117.043198 45.028915 -697.119080
v 117.043198 48.605114 -697.119080
v -1015.591675 9.878137 386.231201
v -1016.377625 9.878135 396.423889
v -1016.377625 12.712935 396.423889
v -1015.591675 12.712937 386.231201
v -1012.346619 9.878135 396.740997
v -1012.346619 12.712935 396.740997
v -1012.092712 9.878136 393.447815
v -1012.092712 12.712936 393.447815
v -1004.776184 9.878136 394.023712
v -1004.776184 12.712936 394.023712
v -1004.239624 9.878137 387.124695
v -1004.239624 12.712937 387.124695
v -434.875702 1.313932 -197.053299
v -437.881805 1.313933 -204.929092
v -437.881805 4.588833 -204.929092
v -434.875702 4.588832 -197.053299
v -450.671295 1.313933 -201.043701
v -450.671295 4.588833 -201.043701
v -449.150391 1.313932 -197.059998
v -449.150391 4.588832 -197.059998
v -445.342896 1.313932 -198.216599
v -445.342896 4.588832 -198.216599
v -443.858185 1.313932 -194.326706
v -443.858185 4.588831 -194.326706
v -691.177429 7.836617 508.116791
v -691.793274 7.836617 513.565979
v -691.793274 10.584616 513.565979
v -691.177429 10.584617 508.116791
v -694.705688 7.836617 513.236694
v -694.705688 10.584616 513.236694
v -695.020325 7.836616 516.018799
v -695.020325 10.584616 516.018799
v -684.555725 7.836616 517.202026
v -684.555725 10.584616 517.202026
v -683.604614 7.836617 508.788788
v -683.604614 10.584617 508.788788
v 590.706970 23.356924 463.304901
v 587.586487 23.356926 451.157196
v 587.586487 27.679626 451.157196
v 590.706970 27.679625 463.304901
v 577.025574 23.356926 453.866913
v 577.025574 27.679626 453.866913
v 579.348083 23.356924 462.884003
v 579.348083 27.679625 462.884003
v 582.954712 23.356926 461.958588
v 582.954712 27.679626 461.958588
v 583.759216 23.356924 465.089813
v 583.759216 27.679625 465.089813
v 834.270508 79.692917 -93.209885
v 821.370911 79.692917 -91.553383
v 821.370911 82.978416 -91.553383
v 834.270508 82.978416 -93.209885
v 822.869019 79.692917 -81.504288
v 822.869019 82.978416 -81.504288
v 834.326416 79.692917 -83.262184
v 834.326416 82.978416 -83.262184
v 833.217590 79.692917 -90.698586
v 833.217590 82.978416 -90.698586
v 834.616516 79.692917 -90.878288
v 834.616516 82.978416 -90.878288
v 353.853485 30.776083 102.104111
v 351.534088 30.776085 91.324707
v 351.534088 34.166084 91.324707
v 353.853485 34.166084 102.104111
v 340.450287 30.776085 91.756004
v 340.450287 34.166084 91.756004
v 341.081787 30.776085 94.669708
v 341.081787 34.166084 94.669708
v 342.169800 30.776085 94.627304
v 342.169800 34.166084 94.627304
v 343.572113 30.776083 101.145111
v 343.572113 34.166084 101.145111
v 342.532990 30.776083 101.366005
v 342.532990 34.166084 101.366005
v 343.184204 30.776083 104.371010
v 343.184204 34.166084 104.371010
v -238.630798 1.931332 417.675415
v -240.314407 1.931335 398.195496
v -240.314407 5.489235 398.195496
v -238.630798 5.489232 417.675415
v -261.511993 1.931335 400.260498
v -261.511993 5.489234 400.260498
v -259.621887 1.931332 419.671814
v -259.621887 5.489232 419.671814
v 572.539429 22.068317 503.266113
v 570.644775 22.068319 494.214294
v 570.644775 26.391420 494.214294
v 572.539429 26.391418 503.266113
v 563.367798 22.068319 495.739288
v 563.367798 26.391420 495.739288
v 566.140625 22.068317 508.970398
v 566.140625 26.391418 508.970398
v 572.659424 22.068317 507.642700
v 572.659424 26.391418 507.642700
v 571.775818 22.068317 503.426208
v 571.775818 26.391418 503.426208
v -391.124603 5.734747 938.353699
v -380.768311 5.734747 939.062073
v -380.768311 8.526148 939.062073
v -391.124603 8.526148 938.353699
v -379.017609 5.734749 923.965088
v -379.017609 8.526150 923.965088
v -389.367188 5.734750 923.189026
v -389.367188 8.526150 923.189026
v -389.958588 5.734749 928.292480
v -389.958588 8.526149 928.292480
v -384.710785 5.734749 928.685974
v -384.710785 8.526149 928.685974
v -385.188507 5.734748 932.806030
v -385.188507 8.526149 932.806030
v -390.440002 5.734748 932.446777
v -390.440002 8.526149 932.446777
v 188.341095 38.679146 -288.474609
v 183.737595 38.679146 -288.047485
v 183.737595 42.122547 -288.047485
v 188.341095 42.122547 -288.474609
v 183.856506 38.679146 -286.710693
v 183.856506 42.122547 -286.710693
v 179.500900 38.679146 -286.557892
v 179.500900 42.122547 -286.557892
v 179.404602 38.679146 -287.645599
v 179.404602 42.122547 -287.645599
v 175.829102 38.679146 -287.313995
v 175.829102 42.122547 -287.313995
v 177.070694 38.679146 -273.269897
v 177.070694 42.122547 -273.269897
v 180.247498 38.679146 -273.562408
v 180.247498 42.122547 -273.562408
v 189.638504 38.679146 -273.891815
v 189.638504 42.122547 -273.891815
vt -0.0000 0.0000
vt 3.1667 0.0000
vt 3.1667 1.0000
vt 0.0000 1.0000
vt 0.8333 0.0000
vt 3.0000 0.0000
vt 3.0000 1.0000
vt 0.8333 1.0000
vt 0.8333 0.0000
vt 4.0000 0.0000
vt 4.0000 1.0000
vt 0.8333 1.0000
vt -0.0000 0.0000
vt 2.1667 -0.0000
vt 2.1667 1.0000
vt 0.0000 1.0000
vt 0.5000 0.0000
vt 1.8333 0.0000
vt 1.8333 1.0000
vt 0.5000 1.0000
vt 0.1667 0.0000
vt 1.8333 0.0000
vt 1.8333 1.0000
vt 0.1667 1.0000
vt 0.6667 0.0000
vt 2.0000 -0.0000
vt 2.0000 1.0000
vt 0.6667 1.0000
vt 0.3333 -0.0000
vt 2.0000 -0.0000
vt 2.0000 1.0000
vt 0.3333 1.0000
vt 0.5000 0.0000
vt 1.8333 0.0000
vt 1.8333 1.0000
vt 0.5000 1.0000
vt 0.1667 0.0000
vt 1.1667 0.0000
vt 1.1667 1.0000
vt 0.1667 1.0000
vt 0.3333 -0.0000
vt 1.6667 -0.0000
vt 1.6667 1.0000
vt 0.3333 1.0000
vt 0.8333 0.0000
vt 0.8333 1.0000
vt 0.5000 0.0000
vt 1.5000 0.0000
vt 1.5000 0.5000
vt 0.5000 0.5000
vt 0.8333 0.0000
vt 1.6667 -0.0000
vt 1.6667 0.5000
vt 0.8333 0.5000
vt 0.6667 0.0000
vt 3.6667 -0.0000
vt 3.6667 0.5000
vt 0.6667 0.5000
vt 0.6667 0.0000
vt 3.3333 0.0000
vt 3.3333 0.5000
vt 0.6667 0.5000
vt -0.0000 0.0000
vt 3.0000 0.0000
vt 3.0000 0.5000
vt 0.0000 0.5000
vt 0.5000 0.0000
vt 1.3333 -0.0000
vt 1.3333 0.5000
vt 0.5000 0.5000
vt -0.0000 0.0000
vt 2.1667 -0.0000
vt 2.1667 1.0000
vt 0.0000 1.0000
vt 0.1667 0.0000
vt 2.6667 0.0000
vt 2.6667 1.0000
vt 0.1667 1.0000
vt 0.1667 0.0000
vt 2.3333 0.0000
vt 2.3333 1.0000
vt 0.1667 1.0000
vt 0.5000 0.0000
vt 3.0000 0.0000
vt 3.0000 1.0000
vt 0.5000 1.0000
vt 0.6667 0.0000
vt 2.6667 0.0000
vt 2.6667 1.0000
vt 0.6667 1.0000
vt 0.1667 0.0000
vt 4.0000 0.0000
vt 4.0000 1.0000
vt 0.1667 1.0000
vt 0.8333 0.0000
vt 2.8333 -0.0000
vt 2.8333 1.0000
vt 0.8333 1.0000
vt 0.5000 0.0000
vt 4.3333 -0.0000
vt 4.3333 1.0000
vt 0.5000 1.0000
vt 0.1667 0.0000
vt 2.5000 0.0000
vt 2.5000 1.0000
vt 0.1667 1.0000
vt 0.6667 0.0000
vt 3.5000 0.0000
vt 3.5000 1.0000
vt 0.6667 1.0000
vt -0.0000 0.0000
vt 2.3333 0.0000
vt 2.3333 1.0000
vt 0.0000 1.0000
vt 0.6667 0.0000
vt 3.3333 0.0000
vt 3.3333 1.0000
vt 0.6667 1.0000
vt 0.8333 0.0000
vt 2.0000 -0.0000
vt 2.0000 1.0000
vt 0.8333 1.0000
vt 0.3333 -0.0000
vt 0.8333 0.0000
vt 0.8333 1.0000
vt 0.3333 1.0000
vt 0.5000 0.0000
vt 0.8333 0.0000
vt 0.8333 1.0000
vt 0.5000 1.0000
vt 0.3333 -0.0000
vt 0.6667 0.0000
vt 0.6667 1.0000
vt 0.3333 1.0000
vt 0.3333 -0.0000
vt 1.1667 0.0000
vt 1.1667 1.0000
vt 0.3333 1.0000
vt 0.6667 0.0000
vt 1.6667 -0.0000
vt 1.6667 1.0000
vt 0.6667 1.0000
vt 0.1667 0.0000
vt 3.5000 0.0000
vt 3.5000 1.0000
vt 0.1667 1.0000
vt 0.1667 0.0000
vt 2.5000 0.0000
vt 2.5000 1.0000
vt 0.1667 1.0000
vt 0.5000 0.0000
vt 3.5000 0.0000
vt 3.5000 1.0000
vt 0.5000 1.0000
vt -0.0000 0.0000
vt 2.5000 0.0000
vt 2.5000 1.0000
vt 0.0000 1.0000
vt 0.3333 -0.0000
vt 1.8333 0.0000
vt 1.8333 1.0000
vt 0.3333 1.0000
vt 0.3333 -0.0000
vt 2.6667 0.0000
vt 2.6667 1.0000
vt 0.3333 1.0000
vt 0.1667 0.0000
vt 1.6667 -0.0000
vt 1.6667 1.0000
vt 0.1667 1.0000
vt 0.3333 -0.0000
vt 2.5000 0.0000
vt 2.5000 1.0000
vt 0.3333 1.0000
vt 0.1667 0.0000
vt 1.6667 -0.0000
vt 1.6667 1.0000
vt 0.1667 1.0000
vt 0.8333 0.0000
vt 1.5000 0.0000
vt 1.5000 1.0000
vt 0.8333 1.0000
vt 0.6667 0.0000
vt 1.1667 0.0000
vt 1.1667 1.0000
vt 0.6667 1.0000
vt 0.1667 0.0000
vt 1.3333 -0.0000
vt 1.3333 1.0000
vt 0.1667 1.0000
vt 0.8333 0.0000
vt 1.8333 0.0000
vt 1.8333 1.0000
vt 0.8333 1.0000
vt 0.6667 0.0000
vt 2.3333 0.0000
vt 2.3333 1.0000
vt 0.6667 1.0000
vt 0.1667 0.0000
vt 1.3333 -0.0000
vt 1.3333 1.0000
vt 0.1667 1.0000
vt 0.6667 0.0000
vt 2.6667 0.0000
vt 2.6667 1.0000
vt 0.6667 1.0000
vt 0.8333 0.0000
vt 1.5000 0.0000
vt 1.5000 1.0000
vt 0.8333 1.0000
vt 0.8333 0.0000
vt 1.5000 0.0000
vt 1.5000 1.0000
vt 0.8333 1.0000
vt 0.5000 0.0000
vt 1.1667 0.0000
vt 1.1667 1.0000
vt 0.5000 1.0000
vt -0.0000 0.0000
vt 1.3333 -0.0000
vt 1.3333 1.0000
vt 0.0000 1.0000
vt 0.6667 0.0000
vt 1.5000 0.0000
vt 1.5000 1.0000
vt 0.6667 1.0000
vt 0.5000 0.0000
vt 0.8333 0.0000
vt 0.8333 1.0000
vt 0.5000 1.0000
vt 0.3333 -0.0000
vt 0.6667 0.0000
vt 0.6667 1.0000
vt 0.3333 1.0000
vt 0.5000 0.0000
vt 2.0000 -0.0000
vt 2.0000 1.0000
vt 0.5000 1.0000
vt 0.3333 -0.0000
vt 1.5000 0.0000
vt 1.5000 1.0000
vt 0.3333 1.0000
vt 0.6667 0.0000
vt 1.6667 -0.0000
vt 1.6667 1.0000
vt 0.6667 1.0000
vt 0.6667 0.0000
vt 2.1667 -0.0000
vt 2.1667 1.0000
vt 0.6667 1.0000
vt 0.8333 0.0000
vt 2.1667 -0.0000
vt 2.1667 1.0000
vt 0.8333 1.0000
vt 0.1667 0.0000
vt 1.3333 -0.0000
vt 1.3333 1.0000
vt 0.1667 1.0000
vt 0.5000 0.0000
vt 1.0000 0.0000
vt 1.0000 1.0000
vt 0.5000 1.0000
vt 0.8333 0.0000
vt 1.1667 0.0000
vt 1.1667 1.0000
vt 0.8333 1.0000
vt 0.6667 0.0000
vt 1.5000 0.0000
vt 1.5000 1.0000
vt 0.6667 1.0000
vt 0.1667 0.0000
vt 2.3333 0.0000
vt 2.3333 1.0000
vt 0.1667 1.0000
vt 0.1667 0.0000
vt 1.8333 0.0000
vt 1.8333 1.0000
vt 0.1667 1.0000
vt 0.3333 -0.0000
vt 2.1667 -0.0000
vt 2.1667 1.0000
vt 0.3333 1.0000
vt 0.5000 0.0000
vt 1.6667 -0.0000
vt 1.6667 1.0000
vt 0.5000 1.0000
vt 0.6667 0.0000
vt 0.8333 0.0000
vt 0.8333 1.0000
vt 0.6667 1.0000
vt 0.5000 0.0000
vt 0.8333 0.0000
vt 0.8333 1.0000
vt 0.5000 1.0000
vt 0.1667 0.0000
vt 1.8333 0.0000
vt 1.8333 1.0000
vt 0.1667 1.0000
vt 0.1667 0.0000
vt 1.8333 0.0000
vt 1.8333 1.0000
vt 0.1667 1.0000
vt 0.6667 0.0000
vt 1.1667 0.0000
vt 1.1667 1.0000
vt 0.6667 1.0000
vt 0.5000 0.0000
vt 0.6667 0.0000
vt 0.6667 1.0000
vt 0.5000 1.0000
vt -0.0000 0.0000
vt 1.0000 0.0000
vt 1.0000 1.0000
vt 0.0000 1.0000
vt 0.1667 0.0000
vt 0.3333 -0.0000
vt 0.3333 1.0000
vt 0.1667 1.0000
vt 0.8333 0.0000
vt 1.3333 -0.0000
vt 1.3333 1.0000
vt 0.8333 1.0000
vt 0.1667 0.0000
vt 1.6667 -0.0000
vt 1.6667 1.0000
vt 0.1667 1.0000
vt 0.5000 0.0000
vt 2.8333 -0.0000
vt 2.8333 1.0000
vt 0.5000 1.0000
vt 0.3333 -0.0000
vt 2.8333 -0.0000
vt 2.8333 1.0000
vt 0.3333 1.0000
vt 0.3333 -0.0000
vt 2.6667 0.0000
vt 2.6667 1.0000
vt 0.3333 1.0000
vt 0.6667 0.0000
vt 3.1667 0.0000
vt 3.1667 1.0000
vt 0.6667 1.0000
vt 0.8333 0.0000
vt 2.5000 0.0000
vt 2.5000 1.0000
vt 0.8333 1.0000
vt 0.5000 0.0000
vt 1.8333 0.0000
vt 1.8333 1.0000
vt 0.5000 1.0000
vt 0.3333 -0.0000
vt 2.6667 0.0000
vt 2.6667 1.0000
vt 0.3333 1.0000
vt 0.6667 0.0000
vt 1.8333 0.0000
vt 1.8333 1.0000
vt 0.6667 1.0000
vt 0.6667 0.0000
vt 1.3333 -0.0000
vt 1.3333 1.0000
vt 0.6667 1.0000
vt 0.1667 0.0000
vt 0.3333 -0.0000
vt 0.3333 1.0000
vt 0.1667 1.0000
vt 0.6667 0.0000
vt 2.1667 -0.0000
vt 2.1667 1.0000
vt 0.6667 1.0000
vt -0.0000 0.0000
vt 2.1667 -0.0000
vt 2.1667 1.0000
vt 0.0000 1.0000
vt 0.5000 0.0000
vt 2.0000 -0.0000
vt 2.0000 1.0000
vt 0.5000 1.0000
vt 0.5000 0.0000
vt 1.1667 0.0000
vt 1.1667 1.0000
vt 0.5000 1.0000
vt 0.3333 -0.0000
vt 1.1667 0.0000
vt 1.1667 1.0000
vt 0.3333 1.0000
vt 0.3333 -0.0000
vt 1.0000 0.0000
vt 1.0000 1.0000
vt 0.3333 1.0000
vt -0.0000 0.0000
vt 0.8333 0.0000
vt 0.8333 1.0000
vt 0.0000 1.0000
vt 0.1667 0.0000
vt 1.0000 0.0000
vt 1.0000 1.0000
vt 0.1667 1.0000
vt 0.3333 -0.0000
vt 1.0000 0.0000
vt 1.0000 1.0000
vt 0.3333 1.0000
vt 0.1667 0.0000
vt 0.3333 -0.0000
vt 0.3333 1.0000
vt 0.1667 1.0000
vt 0.5000 0.0000
vt 1.1667 0.0000
vt 1.1667 1.0000
vt 0.5000 1.0000
vt 0.6667 0.0000
vt 0.8333 0.0000
vt 0.8333 1.0000
vt 0.6667 1.0000
vt 0.1667 0.0000
vt 0.6667 0.0000
vt 0.6667 1.0000
vt 0.1667 1.0000
vt 2.6667 0.0000
vt 2.6667 1.0000
vt 0.1667 0.0000
vt 0.6667 0.0000
vt 0.6667 1.0000
vt 0.1667 1.0000
vt 0.1667 0.0000
vt 1.5000 0.0000
vt 1.5000 1.0000
vt 0.1667 1.0000
vt 0.3333 -0.0000
vt 2.3333 0.0000
vt 2.3333 1.0000
vt 0.3333 1.0000
vn -0.9995 0.0000 0.0318
vn 0.0337 0.0000 0.9994
vn 0.9995 0.0000 -0.0327
vn -0.0313 0.0000 -0.9995
vn 0.0313 0.0000 0.9995
vn -0.9995 0.0000 0.0317
vn 0.9995 0.0000 -0.0313
vn 0.0001 0.0000 1.0000
vn -0.0069 0.0000 1.0000
vn -0.0140 0.0000 0.9999
vn 1.0000 0.0000 -0.0006
vn -0.0008 0.0000 -1.0000
vn -0.9994 0.0000 0.0360
vn 0.0350 0.0000 0.9994
vn -0.6794 0.0000 -0.7338
vn -0.7323 0.0000 0.6810
vn 0.6789 0.0000 0.7342
vn 0.7343 0.0000 -0.6788
vn -0.9655 0.0000 0.2603
vn 0.2609 0.0000 0.9654
vn 0.9652 0.0000 -0.2616
vn -0.2624 0.0000 -0.9650
vn 0.1160 0.0000 0.9932
vn 0.9933 0.0000 -0.1158
vn -0.1811 0.0000 -0.9835
vn -0.9943 0.0000 0.1063
vn 0.0868 0.0000 -0.9962
vn -0.9937 0.0000 -0.1123
vn -0.0868 0.0000 0.9962
vn -0.1123 0.0000 0.9937
vn 0.9937 0.0000 0.1123
vn -0.2347 0.0000 -0.9721
vn -0.9719 0.0000 0.2356
vn 0.1688 0.0000 0.9857
vn 0.9943 0.0000 -0.1069
vn 0.1547 0.0000 0.9880
vn 0.9658 0.0000 -0.2593
vn -0.2612 0.0000 -0.9653
vn -0.9653 0.0000 0.2613
vn -0.9970 0.0000 -0.0769
vn -0.0784 0.0000 0.9969
vn 0.9970 0.0000 0.0769
vn -0.0785 0.0000 0.9969
vn 0.9970 0.0000 0.0775
vn 0.0785 0.0000 -0.9969
vn 0.9343 0.0000 -0.3566
vn -0.2907 0.0000 -0.9568
vn -0.9342 0.0000 0.3567
vn 0.2907 0.0000 0.9568
vn -0.9343 0.0000 0.3566
vn 0.2905 0.0000 0.9569
vn 0.1124 0.0000 -0.9937
vn -0.9937 0.0000 -0.1124
vn -0.1124 0.0000 0.9937
vn 0.0884 0.0000 -0.9961
vn 0.9686 0.0000 -0.2488
vn -0.2485 0.0000 -0.9686
vn -0.9684 0.0000 0.2494
vn 0.2485 0.0000 0.9686
vn -0.9685 0.0000 0.2488
vn 0.2488 0.0000 0.9685
vn -0.1274 0.0000 -0.9919
vn -0.9891 0.0000 0.1474
vn 0.1517 0.0000 0.9884
vn 0.9891 0.0000 -0.1475
vn 0.1274 0.0000 0.9919
vn 0.9892 0.0000 -0.1468
vn 0.9776 0.0000 -0.2104
vn -0.0389 0.0000 -0.9992
vn -0.9773 0.0000 0.2118
vn 0.0389 0.0000 0.9992
vn -0.9776 0.0000 0.2103
vn -0.2079 0.0000 -0.9781
vn 0.2078 0.0000 0.9782
vn 0.9963 0.0000 -0.0861
vn -0.0970 0.0000 -0.9953
vn -0.9953 0.0000 0.0969
vn 0.0947 0.0000 0.9955
vn 0.9788 0.0000 -0.2049
vn -0.2051 0.0000 -0.9787
vn -0.9787 0.0000 0.2051
vn 0.1996 0.0000 0.9799
vn 0.9787 0.0000 -0.2051
vn 0.2052 0.0000 0.9787
vn -0.0682 0.0000 0.9977
vn 0.9933 0.0000 0.1152
vn 0.0748 0.0000 -0.9972
vn -0.9934 0.0000 -0.1151
vn -0.0748 0.0000 0.9972
vn -0.9933 0.0000 -0.1152
vn 0.0683 0.0000 -0.9977
vn -0.0924 0.0000 -0.9957
vn -0.9961 0.0000 0.0886
vn -0.0351 0.0000 -0.9994
vn 0.9961 0.0000 -0.0882
vn -0.0923 0.0000 -0.9957
vn -0.9961 0.0000 0.0881
vn 0.0917 0.0000 0.9958
vn 0.0351 0.0000 0.9994
vn 0.9961 0.0000 -0.0886
g CityEngineMaterial_611_CityEngineMaterial_611_CityEngineMaterial_611_mat
usemtl CityEngineMaterial_611_mat
s 1
f 1/1/1 2/2/1 3/3/1 4/4/1
f 2/5/2 5/6/2 6/7/2 3/8/2
f 5/9/3 7/10/3 8/11/3 6/12/3
f 7/13/4 1/14/4 4/15/4 8/16/4
f 9/17/1 10/18/1 11/19/1 12/20/1
f 10/21/5 13/22/5 14/23/5 11/24/5
f 13/25/3 15/26/3 16/27/3 14/28/3
f 15/29/4 9/30/4 12/31/4 16/32/4
f 10/33/6 17/34/6 18/35/6 11/36/6
f 17/37/2 19/38/2 20/39/2 18/40/2
f 19/41/7 21/42/7 22/43/7 20/44/7
f 21/45/4 10/18/4 11/19/4 22/46/4
f 23/47/8 24/48/9 25/49/9 26/50/8
f 24/51/9 27/52/10 28/53/10 25/54/9
f 27/55/11 29/56/11 30/57/11 28/58/11
f 29/59/12 31/60/12 32/61/12 30/62/12
f 31/63/13 33/64/13 34/65/13 32/66/13
f 33/67/14 23/68/14 26/69/14 34/70/14
f 35/71/15 36/72/15 37/73/15 38/74/15
f 36/75/16 39/76/16 40/77/16 37/78/16
f 39/79/17 41/80/17 42/81/17 40/82/17
f 41/83/18 35/84/18 38/85/18 42/86/18
f 43/87/19 44/88/19 45/89/19 46/90/19
f 44/91/20 47/92/20 48/93/20 45/94/20
f 47/95/21 49/96/21 50/97/21 48/98/21
f 49/99/22 43/100/22 46/101/22 50/102/22
f 51/103/23 52/104/23 53/105/23 54/106/23
f 52/107/24 55/108/24 56/109/24 53/110/24
f 55/111/25 57/112/25 58/113/25 56/114/25
f 57/115/26 51/116/26 54/117/26 58/118/26
f 59/119/27 60/120/27 61/121/27 62/122/27
f 60/123/28 63/124/28 64/125/28 61/126/28
f 63/127/29 65/128/29 66/129/29 64/130/29
f 65/131/28 67/132/28 68/133/28 66/134/28
f 67/135/30 69/136/30 70/137/30 68/138/30
f 69/139/31 59/140/31 62/141/31 70/142/31
f 71/143/32 72/144/32 73/145/32 74/146/32
f 72/147/33 75/148/33 76/149/33 73/150/33
f 75/151/34 77/152/34 78/153/34 76/154/34
f 77/155/35 71/156/35 74/157/35 78/158/35
f 79/159/36 80/160/36 81/161/36 82/162/36
f 80/163/37 83/164/37 84/165/37 81/166/37
f 83/167/38 85/168/38 86/169/38 84/170/38
f 85/171/39 79/172/39 82/173/39 86/174/39
f 87/175/40 88/176/40 89/177/40 90/178/40
f 88/179/41 91/180/41 92/181/41 89/182/41
f 91/183/42 93/184/42 94/185/42 92/186/42
f 93/187/43 95/188/43 96/189/43 94/190/43
f 95/191/44 97/192/44 98/193/44 96/194/44
f 97/195/45 87/196/45 90/197/45 98/198/45
f 99/199/46 100/200/46 101/201/46 102/202/46
f 100/203/47 103/204/47 104/205/47 101/206/47
f 103/207/48 105/208/48 106/209/48 104/210/48
f 105/211/49 107/212/49 108/213/49 106/214/49
f 107/215/50 109/216/50 110/217/50 108/218/50
f 109/219/51 99/220/51 102/221/51 110/222/51
f 111/223/28 112/224/28 113/225/28 114/226/28
f 112/227/52 115/228/52 116/229/52 113/230/52
f 115/231/53 117/232/53 118/233/53 116/234/53
f 117/235/54 119/236/54 120/237/54 118/238/54
f 119/239/31 121/240/31 122/241/31 120/242/31
f 121/243/55 111/244/55 114/245/55 122/246/55
f 123/247/56 124/248/56 125/249/56 126/250/56
f 124/251/57 127/252/57 128/253/57 125/254/57
f 127/255/58 129/256/58 130/257/58 128/258/58
f 129/259/59 131/260/59 132/261/59 130/262/59
f 131/263/60 133/264/60 134/265/60 132/266/60
f 133/267/61 123/268/61 126/269/61 134/270/61
f 135/271/62 136/272/62 137/273/62 138/274/62
f 136/275/63 139/276/63 140/277/63 137/278/63
f 139/279/64 141/280/64 142/281/64 140/282/64
f 141/283/65 143/284/65 144/285/65 142/286/65
f 143/287/66 145/288/66 146/289/66 144/290/66
f 145/291/67 135/292/67 138/293/67 146/294/67
f 147/295/68 148/296/68 149/297/68 150/298/68
f 148/299/69 151/300/69 152/301/69 149/302/69
f 151/303/70 153/304/70 154/305/70 152/306/70
f 153/307/71 155/308/71 156/309/71 154/310/71
f 155/311/72 157/312/72 158/313/72 156/314/72
f 157/315/73 159/316/73 160/317/73 158/318/73
f 159/319/70 161/320/70 162/321/70 160/322/70
f 161/323/74 147/324/74 150/325/74 162/326/74
f 163/327/75 164/328/75 165/329/75 166/330/75
f 164/331/76 167/332/76 168/333/76 165/334/76
f 167/335/77 169/336/77 170/337/77 168/338/77
f 169/339/78 163/340/78 166/341/78 170/342/78
f 171/343/79 172/344/79 173/345/79 174/346/79
f 172/347/80 175/348/80 176/349/80 173/350/80
f 175/351/81 177/352/81 178/353/81 176/354/81
f 177/355/82 179/356/82 180/357/82 178/358/82
f 179/359/83 181/360/83 182/361/83 180/362/83
f 181/363/84 171/364/84 174/365/84 182/366/84
f 183/367/85 184/368/85 185/369/85 186/370/85
f 184/371/86 187/372/86 188/373/86 185/374/86
f 187/375/87 189/376/87 190/377/87 188/378/87
f 189/379/88 191/380/88 192/381/88 190/382/88
f 191/383/89 193/384/89 194/385/89 192/386/89
f 193/387/90 195/388/90 196/389/90 194/390/90
f 195/391/91 197/392/91 198/393/91 196/394/91
f 197/395/88 183/396/88 186/397/88 198/398/88
f 199/399/92 200/400/92 201/401/92 202/402/92
f 200/403/93 203/404/93 204/405/93 201/406/93
f 203/407/94 205/408/94 206/409/94 204/410/94
f 205/411/95 207/412/95 208/413/95 206/414/95
f 207/415/96 209/416/96 210/417/96 208/418/96
f 209/416/97 211/419/97 212/420/97 210/417/97
f 211/421/98 213/422/98 214/423/98 212/424/98
f 213/425/99 215/426/99 216/427/99 214/428/99
f 215/429/100 199/430/100 202/431/100 216/432/100
