# Blender v2.78 (sub 0) OBJ File: ''
# www.blender.org
mtllib CityEngineMaterial_857.mtl
o CityEngineMaterial_857
v -374.647797 1.313890 59.853401
v -374.282104 1.313890 63.301800
v -368.443695 1.313890 61.544701
v -375.216797 1.313891 54.503399
v -375.905396 1.313892 49.160198
v -376.867798 1.313893 43.686199
v -368.846313 1.313891 52.638699
v -368.590393 1.313890 58.291302
v -368.982391 1.313892 46.957500
v -368.872192 1.313893 41.279701
vt 0.8255 0.9442
vt 1.0000 1.0000
vt 1.0000 0.4711
vt 0.5548 0.8577
vt 0.2826 0.7813
vt 0.0000 0.7244
vt 0.5574 0.2818
vt 0.8383 0.4019
vt 0.2768 0.1511
vt -0.0000 0.0000
vn -0.0000 1.0000 0.0000
g CityEngineMaterial_857_CityEngineMaterial_857_CityEngineMaterial_857_mat
usemtl CityEngineMaterial_857_mat
s 1
f 1/1/1 2/2/1 3/3/1 4/4/1
f 5/5/1 4/4/1 3/3/1 6/6/1
f 7/7/1 6/6/1 3/3/1 8/8/1
f 6/6/1 7/7/1 9/9/1 10/10/1
