# Blender v2.78 (sub 0) OBJ File: ''
# www.blender.org
mtllib CityEngineMaterial_591.mtl
o CityEngineMaterial_591
v -1309.062378 12.563735 399.118988
v -1307.410767 12.563736 392.733704
v -1307.410767 14.414336 392.733704
v -1309.062378 14.414335 399.118988
v -1321.189331 12.563737 389.171997
v -1321.189331 14.414337 389.171997
v -1323.593628 12.563735 398.468201
v -1323.593628 14.414335 398.468201
v -1313.129517 12.563734 401.209808
v -1313.129517 14.414334 401.209808
v -1312.367676 12.563735 398.264587
v -1312.367676 14.414335 398.264587
v -849.011414 9.787618 503.598297
v -850.794189 9.787619 496.724091
v -850.794189 11.871019 496.724091
v -849.011414 11.871018 503.598297
v -861.305786 9.787619 499.449890
v -861.305786 11.871019 499.449890
v -858.846130 9.787617 508.933594
v -858.846130 11.871017 508.933594
v -850.777405 9.787617 506.841400
v -850.777405 11.871017 506.841400
v -851.454224 9.787618 504.231812
v -851.454224 11.871018 504.231812
v 593.533203 20.790892 671.468628
v 586.773682 20.790892 672.887512
v 586.773682 22.123791 672.887512
v 593.533203 22.123791 671.468628
v 587.229370 20.790890 675.623230
v 587.229370 22.123789 675.623230
v 582.012695 20.790890 676.716370
v 582.012695 22.123789 676.716370
v 581.433411 20.790890 674.008423
v 581.433411 22.123789 674.008423
v 575.799377 20.790890 675.190979
v 575.799377 22.123789 675.190979
v 577.042725 20.790890 681.003113
v 577.042725 22.123789 681.003113
v 594.511475 20.790890 677.342224
v 594.511475 22.123789 677.342224
v 565.098083 21.422506 577.825195
v 566.778015 21.422504 585.843689
v 566.778015 23.451405 585.843689
v 565.098083 23.451406 577.825195
v 574.942200 21.422504 584.132690
v 574.942200 23.451405 584.132690
v 570.904785 21.422508 564.866516
v 570.904785 23.451508 564.866516
v 564.118225 21.422508 566.277893
v 564.118225 23.451408 566.277893
v 566.477295 21.422506 577.536072
v 566.477295 23.451406 577.536072
v 635.524109 42.256275 155.085800
v 634.970886 42.256279 143.614105
v 634.970886 44.362679 143.614105
v 635.524109 44.362675 155.085800
v 615.880127 42.256279 146.190094
v 615.880127 44.362679 146.190094
v 618.541687 42.256275 157.366501
v 618.541687 44.362675 157.366501
v -232.308105 2.480996 640.585327
v -242.440399 2.480994 649.950806
v -242.440399 4.473094 649.950806
v -232.308105 4.473095 640.585327
v -225.391006 2.480991 668.359314
v -225.391006 4.473091 668.359314
v -215.263596 2.480993 658.998291
v -215.263596 4.473093 658.998291
v -727.610718 57.765770 -1059.917603
v -726.083984 57.765770 -1058.475220
v -726.083984 59.545971 -1058.475220
v -727.610718 59.545971 -1059.917603
v -724.074097 57.765770 -1059.176636
v -724.074097 59.545971 -1059.176636
v -730.948486 57.765774 -1065.670654
v -730.948486 59.545975 -1065.670654
v -727.926819 57.765770 -1057.832031
v -727.926819 59.545971 -1057.832031
v -726.939575 57.765770 -1058.176636
v -726.939575 59.545971 -1058.176636
v -270.640991 2.745464 832.256287
v -263.323212 2.745464 837.453674
v -263.323212 4.323764 837.453674
v -270.640991 4.323765 832.256287
v -254.964996 2.745465 826.833923
v -254.964996 4.323765 826.833923
v -260.484497 2.745466 822.908630
v -260.484497 4.323766 822.908630
v -261.439209 2.745466 824.121582
v -261.439209 4.323766 824.121582
v -263.391693 2.745466 822.734924
v -263.391693 4.323766 822.734924
v -605.956482 19.562832 -805.497620
v -602.892273 19.562830 -795.433594
v -602.892273 21.491430 -795.433594
v -605.956482 21.491432 -805.497620
v -600.027222 19.562830 -796.307678
v -600.027222 21.491430 -796.307678
v -600.214172 19.562830 -796.922119
v -600.214172 21.491430 -796.922119
v -597.351013 19.562830 -797.791077
v -597.351013 21.491430 -797.791077
v -597.163513 19.562830 -797.181274
v -597.163513 21.491430 -797.181274
v -595.164429 19.562830 -797.791077
v -595.164429 21.491430 -797.791077
v -598.253723 19.562832 -807.835571
v -598.253723 21.491432 -807.835571
v -340.466003 1.313905 -29.066200
v -363.669403 1.313904 -26.342199
v -363.669403 3.425104 -26.342199
v -340.466003 3.425105 -29.066200
v -361.522186 1.313901 -8.257100
v -361.522186 3.425102 -8.257099
v -338.341614 1.313902 -11.001500
v -338.341614 3.425102 -11.001499
v -277.904388 3.422174 770.516602
v -279.409698 3.422175 769.126221
v -279.409698 5.433374 769.126221
v -277.904388 5.433374 770.516602
v -290.444489 3.422173 781.076172
v -290.444489 5.433372 781.076172
v -285.467102 3.422172 785.673706
v -285.467102 5.433372 785.673706
v -275.716187 3.422174 775.115417
v -275.716187 5.433373 775.115417
v -279.188904 3.422174 771.907715
v -279.188904 5.433374 771.907715
v -311.405212 5.172847 -289.815796
v -305.915192 5.172846 -279.576508
v -305.915192 7.133246 -279.576508
v -311.405212 7.133247 -289.815796
v -296.915802 5.172846 -284.396515
v -296.915802 7.133246 -284.396515
v -298.498413 5.172847 -287.349396
v -298.498413 7.133247 -287.349396
v -300.006500 5.172847 -286.541595
v -300.006500 7.133247 -286.541595
v -303.910309 5.172848 -293.822693
v -303.910309 7.133248 -293.822693
v 104.943604 40.450649 -915.317200
v 112.551903 40.450649 -916.130188
v 112.551903 42.546947 -916.130188
v 104.943604 42.546947 -915.317200
v 112.215401 40.450649 -919.289185
v 112.215401 42.546947 -919.289185
v 115.146301 40.450649 -919.602722
v 115.146301 42.546947 -919.602722
v 113.921501 40.450653 -928.754272
v 113.921501 42.547054 -928.754272
v 103.629303 40.450653 -927.653381
v 103.629402 42.547054 -927.653381
v 354.977295 59.004093 -571.816101
v 356.358795 59.004093 -551.508179
v 356.358795 61.153793 -551.508179
v 354.977295 61.153793 -571.816101
v 369.109009 59.004093 -557.798828
v 369.109009 61.153793 -557.798828
v 369.618286 59.004093 -558.250122
v 369.618286 61.153793 -558.250122
v 367.325592 59.004093 -561.759521
v 367.325592 61.153793 -561.759521
v 365.195312 59.004093 -565.522522
v 365.195312 61.153793 -565.522522
v 363.444611 59.004093 -569.487183
v 363.444611 61.153793 -569.487183
v 362.233307 59.004097 -573.691589
v 362.233307 61.153797 -573.691589
v 361.443298 59.004097 -577.547485
v 361.443298 61.153797 -577.547485
v 327.941986 50.719559 -341.473785
v 336.489899 50.719555 -325.308014
v 336.489899 52.621353 -325.308014
v 327.941986 52.621357 -341.473785
v 348.658112 50.719555 -332.696014
v 348.658112 52.621353 -332.696014
v 340.268402 50.719559 -348.509888
v 340.268402 52.621357 -348.509888
v 337.372711 50.719559 -347.068390
v 337.372711 52.621357 -347.068390
v -1075.615356 7.791964 220.745193
v -1073.936401 7.791964 220.478195
v -1073.936401 9.722464 220.478195
v -1075.615356 9.722464 220.745193
v -1070.122070 7.791964 219.685898
v -1070.122070 9.722464 219.685898
v -1066.865234 7.791964 218.886597
v -1066.865234 9.722465 218.886597
v -1069.632935 7.791966 206.039093
v -1069.632935 9.722466 206.039093
v -1073.196167 7.791966 206.797897
v -1073.196167 9.722466 206.797897
v -1072.651855 7.791965 209.324097
v -1072.651855 9.722466 209.324097
v -1075.553223 7.791965 209.926697
v -1075.553223 9.722466 209.926697
v -1075.993164 7.791966 207.393402
v -1075.993164 9.722466 207.393402
v -1077.864746 7.791966 207.791901
v -1077.864746 9.722466 207.791901
v -568.713379 22.775736 -831.977417
v -571.321899 22.775738 -840.622986
v -571.321899 24.261637 -840.622986
v -568.713379 24.261635 -831.977417
v -566.343872 22.775738 -842.136414
v -566.343872 24.261637 -842.136414
v -567.933289 22.775738 -847.471313
v -567.933289 24.261637 -847.471313
v -576.712708 22.775738 -844.802307
v -576.712708 24.261637 -844.802307
v -572.520813 22.775736 -830.908386
v -572.520813 24.261635 -830.908386
v 107.058296 30.980347 -283.890503
v 103.640800 30.980347 -283.752411
v 103.640800 32.992046 -283.752411
v 107.058296 32.992046 -283.890503
v 103.744797 30.980347 -280.905396
v 103.744797 32.992046 -280.905396
v 97.986198 30.980347 -280.669800
v 97.986198 32.992046 -280.669800
v 99.220596 30.980345 -268.380096
v 99.220596 32.992043 -268.380096
v 107.612297 30.980345 -268.723389
v 107.612297 32.992043 -268.723389
vt 0.1667 -0.0000
vt 1.0000 0.0000
vt 1.0000 1.0000
vt 0.1667 1.0000
vt 0.6667 0.0000
vt 2.3333 0.0000
vt 2.3333 1.0000
vt 0.6667 1.0000
vt 0.1667 -0.0000
vt 1.3333 0.0000
vt 1.3333 1.0000
vt 0.1667 1.0000
vt 0.0000 0.0000
vt 1.3333 0.0000
vt 1.3333 1.0000
vt -0.0000 1.0000
vt 0.3333 0.0000
vt 0.6667 0.0000
vt 0.6667 1.0000
vt 0.3333 1.0000
vt 0.1667 -0.0000
vt 0.5000 0.0000
vt 0.5000 1.0000
vt 0.1667 1.0000
vt 0.1667 -0.0000
vt 1.0000 0.0000
vt 1.0000 1.0000
vt 0.1667 1.0000
vt 0.5000 0.0000
vt 1.8333 -0.0000
vt 1.8333 1.0000
vt 0.5000 1.0000
vt 0.3333 0.0000
vt 1.5000 -0.0000
vt 1.5000 1.0000
vt 0.3333 1.0000
vt 0.8333 0.0000
vt 1.8333 -0.0000
vt 1.8333 1.0000
vt 0.8333 1.0000
vt 0.6667 0.0000
vt 1.0000 0.0000
vt 1.0000 1.0000
vt 0.6667 1.0000
vt 0.0000 0.0000
vt 0.3333 0.0000
vt 0.3333 1.0000
vt -0.0000 1.0000
vt 0.0000 0.0000
vt 1.0000 0.0000
vt 1.0000 1.0000
vt -0.0000 1.0000
vt 0.0000 0.0000
vt 0.3333 0.0000
vt 0.3333 1.0000
vt -0.0000 1.0000
vt 1.0000 0.0000
vt 1.0000 1.0000
vt 0.6667 0.0000
vt 1.0000 0.0000
vt 1.0000 1.0000
vt 0.6667 1.0000
vt 0.0000 0.0000
vt 0.8333 0.0000
vt 0.8333 1.0000
vt -0.0000 1.0000
vt 0.0000 0.0000
vt 0.8333 0.0000
vt 0.8333 1.0000
vt -0.0000 1.0000
vt 0.6667 0.0000
vt 3.0000 -0.0000
vt 3.0000 1.0000
vt 0.6667 1.0000
vt 0.6667 0.0000
vt 1.5000 -0.0000
vt 1.5000 1.0000
vt 0.6667 1.0000
vt 0.1667 -0.0000
vt 1.3333 0.0000
vt 1.3333 1.0000
vt 0.1667 1.0000
vt 0.3333 0.0000
vt 1.5000 -0.0000
vt 1.5000 1.0000
vt 0.3333 1.0000
vt 0.0000 0.0000
vt 2.8333 0.0000
vt 2.8333 1.0000
vt -0.0000 1.0000
vt 0.3333 0.0000
vt 1.3333 0.0000
vt 1.3333 1.0000
vt 0.3333 1.0000
vt 0.3333 0.0000
vt 2.0000 0.0000
vt 2.0000 1.0000
vt 0.3333 1.0000
vt 0.5000 0.0000
vt 0.6667 0.0000
vt 0.6667 1.0000
vt 0.5000 1.0000
vt 0.5000 0.0000
vt 2.0000 0.0000
vt 2.0000 1.0000
vt 0.5000 1.0000
vt 0.3333 0.0000
vt 2.8333 0.0000
vt 2.8333 1.0000
vt 0.3333 1.0000
vt 0.8333 0.0000
vt 2.3333 0.0000
vt 2.3333 1.0000
vt 0.8333 1.0000
vt 0.5000 0.0000
vt 2.6667 0.0000
vt 2.6667 1.0000
vt 0.5000 1.0000
vt 0.3333 0.0000
vt 1.8333 -0.0000
vt 1.8333 1.0000
vt 0.3333 1.0000
vt 0.3333 0.0000
vt 3.0000 -0.0000
vt 3.0000 1.0000
vt 0.3333 1.0000
vt 0.1667 -0.0000
vt 1.6667 -0.0000
vt 1.6667 1.0000
vt 0.1667 1.0000
vt 0.0000 0.0000
vt 2.6667 0.0000
vt 2.6667 1.0000
vt -0.0000 1.0000
vt 0.5000 0.0000
vt 0.8333 0.0000
vt 0.8333 1.0000
vt 0.5000 1.0000
vt 0.3333 0.0000
vt 0.6667 0.0000
vt 0.6667 1.0000
vt 0.3333 1.0000
vt 0.0000 0.0000
vt 1.5000 -0.0000
vt 1.5000 1.0000
vt -0.0000 1.0000
vt 0.3333 0.0000
vt 1.6667 -0.0000
vt 1.6667 1.0000
vt 0.3333 1.0000
vt 0.6667 0.0000
vt 0.8333 0.0000
vt 0.8333 1.0000
vt 0.6667 1.0000
vt 0.5000 0.0000
vt 0.8333 0.0000
vt 0.8333 1.0000
vt 0.5000 1.0000
vt 0.3333 0.0000
vt 1.3333 0.0000
vt 1.3333 1.0000
vt 0.3333 1.0000
vt 0.5000 0.0000
vt 2.0000 0.0000
vt 2.0000 1.0000
vt 0.5000 1.0000
vt 0.0000 0.0000
vt 0.8333 0.0000
vt 0.8333 1.0000
vt -0.0000 1.0000
vt 0.3333 0.0000
vt 0.5000 0.0000
vt 0.5000 1.0000
vt 0.3333 1.0000
vt 0.3333 0.0000
vt 0.6667 0.0000
vt 0.6667 1.0000
vt 0.3333 1.0000
vt 0.5000 0.0000
vt 1.8333 -0.0000
vt 1.8333 1.0000
vt 0.5000 1.0000
vt 0.3333 0.0000
vt 1.5000 -0.0000
vt 1.5000 1.0000
vt 0.3333 1.0000
vt 0.6667 0.0000
vt 1.0000 0.0000
vt 1.0000 1.0000
vt 0.6667 1.0000
vt 0.5000 0.0000
vt 0.5333 0.0000
vt 0.5333 1.0000
vt 0.5000 1.0000
vt 0.5000 0.0000
vt 0.8333 0.0000
vt 0.8333 1.0000
vt 0.5000 1.0000
vt 0.3333 0.0000
vt 0.3667 -0.0000
vt 0.3667 1.0000
vt 0.3333 1.0000
vt 0.8333 0.0000
vt 1.0000 0.0000
vt 1.0000 1.0000
vt 0.8333 1.0000
vt 0.5000 0.0000
vt 1.6667 -0.0000
vt 1.6667 1.0000
vt 0.5000 1.0000
vt 0.3333 0.0000
vt 1.3333 0.0000
vt 1.3333 1.0000
vt 0.3333 1.0000
vt 0.5000 0.0000
vt 4.5000 0.0000
vt 4.5000 1.0000
vt 0.5000 1.0000
vt 0.6667 0.0000
vt 3.8333 0.0000
vt 3.8333 1.0000
vt 0.6667 1.0000
vt 0.1667 -0.0000
vt 4.1667 0.0000
vt 4.1667 1.0000
vt 0.1667 1.0000
vt 0.3333 0.0000
vt 3.5000 0.0000
vt 3.5000 1.0000
vt 0.3333 1.0000
vt 0.6667 0.0000
vt 1.0000 0.0000
vt 1.0000 1.0000
vt 0.6667 1.0000
vt 0.3333 0.0000
vt 2.5000 -0.0000
vt 2.5000 1.0000
vt 0.3333 1.0000
vt 0.3333 0.0000
vt 1.1667 0.0000
vt 1.1667 1.0000
vt 0.3333 1.0000
vt 0.5000 0.0000
vt 2.3333 0.0000
vt 2.3333 1.0000
vt 0.5000 1.0000
vt 0.5000 0.0000
vt 1.1667 0.0000
vt 1.1667 1.0000
vt 0.5000 1.0000
vt 0.6667 0.0000
vt 0.8333 0.0000
vt 0.8333 1.0000
vt 0.6667 1.0000
vt 0.5000 0.0000
vt 2.5000 -0.0000
vt 2.5000 1.0000
vt 0.5000 1.0000
vt 0.1667 -0.0000
vt 1.8333 -0.0000
vt 1.8333 1.0000
vt 0.1667 1.0000
vt 0.5000 0.0000
vt 1.0000 0.0000
vt 1.0000 1.0000
vt 0.5000 1.0000
vt 0.6667 0.0000
vt 1.0000 0.0000
vt 1.0000 1.0000
vt 0.6667 1.0000
vt 0.6667 0.0000
vt 2.0000 0.0000
vt 2.0000 1.0000
vt 0.6667 1.0000
vt 0.6667 0.0000
vt 2.1667 0.0000
vt 2.1667 1.0000
vt 0.6667 1.0000
vt 0.6667 0.0000
vt 2.0000 0.0000
vt 2.0000 1.0000
vt 0.6667 1.0000
vt 0.3333 0.0000
vt 0.8333 0.0000
vt 0.8333 1.0000
vt 0.3333 1.0000
vt 0.3333 0.0000
vt 0.8333 0.0000
vt 0.8333 1.0000
vt 0.3333 1.0000
vt 0.0000 0.0000
vt 1.6667 -0.0000
vt 1.6667 1.0000
vt -0.0000 1.0000
vt 0.1667 -0.0000
vt 2.0000 0.0000
vt 2.0000 1.0000
vt 0.1667 1.0000
vt 0.6667 0.0000
vt 2.8333 0.0000
vt 2.8333 1.0000
vt 0.6667 1.0000
vt 0.1667 -0.0000
vt 2.8333 0.0000
vt 2.8333 1.0000
vt 0.1667 1.0000
vt 0.8333 0.0000
vt 2.6667 0.0000
vt 2.6667 1.0000
vt 0.8333 1.0000
vt 0.3333 0.0000
vt 0.5000 0.0000
vt 0.5000 1.0000
vt 0.3333 1.0000
vt 0.8333 0.0000
vt 1.3333 0.0000
vt 1.3333 1.0000
vt 0.8333 1.0000
vt 0.1667 -0.0000
vt 0.6667 0.0000
vt 0.6667 1.0000
vt 0.1667 1.0000
vt 0.0000 0.0000
vt 0.5000 0.0000
vt 0.5000 1.0000
vt -0.0000 1.0000
vt 0.1667 -0.0000
vt 0.6667 0.0000
vt 0.6667 1.0000
vt 0.1667 1.0000
vt 0.5000 0.0000
vt 1.0000 0.0000
vt 1.0000 1.0000
vt 0.5000 1.0000
vt 0.5000 0.0000
vt 1.6667 -0.0000
vt 1.6667 1.0000
vt 0.5000 1.0000
vt 0.1667 -0.0000
vt 3.0000 -0.0000
vt 3.0000 1.0000
vt 0.1667 1.0000
vt 0.3333 0.0000
vt 2.5000 -0.0000
vt 2.5000 1.0000
vt 0.3333 1.0000
vt 0.8333 0.0000
vt 3.5000 0.0000
vt 3.5000 1.0000
vt 0.8333 1.0000
vt 0.3333 0.0000
vt 0.8333 0.0000
vt 0.8333 1.0000
vt 0.3333 1.0000
vt 0.6667 0.0000
vt 2.3333 0.0000
vt 2.3333 1.0000
vt 0.6667 1.0000
vt 0.1667 -0.0000
vt 0.5000 0.0000
vt 0.5000 1.0000
vt 0.1667 1.0000
vt 0.3333 0.0000
vt 1.0000 0.0000
vt 1.0000 1.0000
vt 0.3333 1.0000
vt 0.5000 0.0000
vt 1.0000 0.0000
vt 1.0000 1.0000
vt 0.5000 1.0000
vt 0.8333 0.0000
vt 3.0000 -0.0000
vt 3.0000 1.0000
vt 0.8333 1.0000
vt 0.0000 0.0000
vt 0.5000 0.0000
vt 0.5000 1.0000
vt -0.0000 1.0000
vt 0.3333 0.0000
vt 0.6667 0.0000
vt 0.6667 1.0000
vt 0.3333 1.0000
vt 1.1667 0.0000
vt 1.1667 1.0000
vt 0.3333 0.0000
vt 0.6667 0.0000
vt 0.6667 1.0000
vt 0.3333 1.0000
vt 0.1667 -0.0000
vt 0.5000 0.0000
vt 0.5000 1.0000
vt 0.1667 1.0000
vt 0.1667 -0.0000
vt 2.3333 0.0000
vt 2.3333 1.0000
vt 0.1667 1.0000
vt 0.3333 0.0000
vt 1.6667 -0.0000
vt 1.6667 1.0000
vt 0.3333 1.0000
vt 0.6667 0.0000
vt 1.5000 -0.0000
vt 1.5000 1.0000
vt 0.6667 1.0000
vt 0.3333 0.0000
vt 1.1667 0.0000
vt 1.1667 1.0000
vt 0.3333 1.0000
vt 0.3333 0.0000
vt 1.8333 -0.0000
vt 1.8333 1.0000
vt 0.3333 1.0000
vt 0.8333 0.0000
vt 3.1667 -0.0000
vt 3.1667 1.0000
vt 0.8333 1.0000
vt 0.8333 0.0000
vt 1.5000 -0.0000
vt 1.5000 1.0000
vt 0.8333 1.0000
vt 0.5000 0.0000
vt 1.1667 0.0000
vt 1.1667 1.0000
vt 0.5000 1.0000
vt 0.8333 0.0000
vt 1.3333 0.0000
vt 1.3333 1.0000
vt 0.8333 1.0000
vt 0.6667 0.0000
vt 1.8333 -0.0000
vt 1.8333 1.0000
vt 0.6667 1.0000
vt 0.6667 0.0000
vt 3.0000 -0.0000
vt 3.0000 1.0000
vt 0.6667 1.0000
vt 0.1667 -0.0000
vt 1.6667 -0.0000
vt 1.6667 1.0000
vt 0.1667 1.0000
vt 0.6667 0.0000
vt 3.5000 0.0000
vt 3.5000 1.0000
vt 0.6667 1.0000
vn 0.9681 0.0000 0.2504
vn 0.2503 0.0000 -0.9682
vn -0.9681 0.0000 -0.2504
vn -0.2534 0.0000 0.9673
vn -0.2503 0.0000 0.9682
vn 0.9680 0.0000 -0.2510
vn -0.2510 0.0000 -0.9680
vn -0.9680 0.0000 0.2511
vn 0.2510 0.0000 0.9680
vn 0.9680 0.0000 -0.2511
vn -0.2054 0.0000 -0.9787
vn -0.9864 0.0000 0.1643
vn -0.2051 0.0000 -0.9787
vn 0.9779 0.0000 -0.2092
vn -0.9779 0.0000 0.2092
vn 0.2051 0.0000 0.9787
vn 0.9864 0.0000 -0.1643
vn -0.9788 0.0000 0.2051
vn 0.9787 0.0000 -0.2051
vn -0.2036 0.0000 -0.9791
vn -0.9787 0.0000 0.2051
vn -0.2052 0.0000 -0.9787
vn 0.9988 0.0000 -0.0482
vn -0.1337 0.0000 -0.9910
vn -0.9728 0.0000 0.2317
vn 0.1331 0.0000 0.9911
vn -0.6788 0.0000 -0.7343
vn -0.7337 0.0000 0.6795
vn 0.6788 0.0000 0.7343
vn 0.7339 0.0000 -0.6793
vn -0.6867 0.0000 0.7269
vn 0.3295 0.0000 0.9442
vn 0.6867 0.0000 -0.7269
vn -0.9331 0.0000 0.3597
vn 0.3296 0.0000 0.9441
vn 0.9331 0.0000 -0.3597
vn -0.5790 0.0000 0.8153
vn 0.7858 0.0000 0.6185
vn 0.5796 0.0000 -0.8149
vn -0.7858 0.0000 -0.6185
vn 0.5790 0.0000 -0.8153
vn -0.7956 0.0000 -0.6058
vn -0.9566 0.0000 0.2913
vn 0.2918 0.0000 0.9565
vn 0.9567 0.0000 -0.2911
vn 0.2904 0.0000 0.9569
vn -0.9558 0.0000 0.2939
vn 0.9558 0.0000 -0.2940
vn -0.2904 0.0000 -0.9569
vn -0.1166 0.0000 -0.9932
vn -0.9930 0.0000 0.1179
vn 0.1176 -0.0000 0.9931
vn 0.9932 -0.0000 -0.1168
vn 0.6785 0.0000 -0.7346
vn -0.7347 0.0000 -0.6784
vn -0.6785 0.0000 0.7346
vn 0.7346 0.0000 0.6785
vn 0.7347 0.0000 0.6784
vn -0.8813 0.0000 0.4725
vn 0.4721 0.0000 0.8815
vn 0.8814 0.0000 -0.4724
vn -0.4722 0.0000 -0.8815
vn 0.8813 0.0000 -0.4725
vn -0.4715 0.0000 -0.8819
vn 0.1062 0.0000 0.9943
vn 0.9944 0.0000 -0.1059
vn 0.1064 0.0000 0.9943
vn 0.9912 0.0000 -0.1327
vn -0.1064 0.0000 -0.9943
vn -0.9944 0.0000 0.1059
vn -0.9977 0.0000 0.0679
vn 0.4425 0.0000 0.8968
vn 0.6632 0.0000 0.7484
vn 0.8372 0.0000 -0.5469
vn 0.8702 0.0000 -0.4926
vn 0.9148 0.0000 -0.4039
vn 0.9609 0.0000 -0.2768
vn 0.9797 0.0000 -0.2007
vn -0.6633 0.0000 -0.7483
vn -0.8840 0.0000 0.4674
vn 0.5190 0.0000 0.8548
vn 0.8834 0.0000 -0.4687
vn -0.4456 0.0000 -0.8952
vn -0.5102 0.0000 -0.8600
vn 0.1571 0.0000 0.9876
vn 0.2034 0.0000 0.9791
vn 0.2383 0.0000 0.9712
vn 0.9776 0.0000 -0.2106
vn -0.2083 0.0000 -0.9781
vn -0.9776 0.0000 0.2106
vn -0.2034 0.0000 -0.9791
vn 0.9853 0.0000 -0.1711
vn -0.2082 0.0000 -0.9781
vn -0.9853 0.0000 0.1711
vn 0.9574 0.0000 -0.2889
vn 0.2909 0.0000 0.9568
vn 0.9584 0.0000 -0.2855
vn -0.2909 0.0000 -0.9568
vn -0.9574 0.0000 0.2888
vn 0.2703 0.0000 0.9628
vn -0.0404 0.0000 -0.9992
vn -0.9993 0.0000 0.0365
vn -0.0409 0.0000 -0.9992
vn -0.9950 0.0000 0.0999
vn 0.0409 0.0000 0.9992
vn 0.9993 0.0000 -0.0365
g CityEngineMaterial_591_CityEngineMaterial_591_CityEngineMaterial_591_mat
usemtl CityEngineMaterial_591_mat
s 1
f 1/1/1 2/2/1 3/3/1 4/4/1
f 2/5/2 5/6/2 6/7/2 3/8/2
f 5/9/3 7/10/3 8/11/3 6/12/3
f 7/13/4 9/14/4 10/15/4 8/16/4
f 9/17/1 11/18/1 12/19/1 10/20/1
f 11/21/5 1/22/5 4/23/5 12/24/5
f 13/25/6 14/26/6 15/27/6 16/28/6
f 14/29/7 17/30/7 18/31/7 15/32/7
f 17/33/8 19/34/8 20/35/8 18/36/8
f 19/37/9 21/38/9 22/39/9 20/40/9
f 21/41/10 23/42/10 24/43/10 22/44/10
f 23/45/9 13/46/9 16/47/9 24/48/9
f 25/49/11 26/50/11 27/51/11 28/52/11
f 26/53/12 29/54/12 30/55/12 27/56/12
f 29/54/13 31/57/13 32/58/13 30/55/13
f 31/59/14 33/60/14 34/61/14 32/62/14
f 33/63/11 35/64/11 36/65/11 34/66/11
f 35/67/15 37/68/15 38/69/15 36/70/15
f 37/71/16 39/72/16 40/73/16 38/74/16
f 39/75/17 25/76/17 28/77/17 40/78/17
f 41/79/18 42/80/18 43/81/18 44/82/18
f 42/83/16 45/84/16 46/85/16 43/86/16
f 45/87/19 47/88/19 48/89/19 46/90/19
f 47/91/20 49/92/20 50/93/20 48/94/20
f 49/95/21 51/96/21 52/97/21 50/98/21
f 51/99/22 41/100/22 44/101/22 52/102/22
f 53/103/23 54/104/23 55/105/23 56/106/23
f 54/107/24 57/108/24 58/109/24 55/110/24
f 57/111/25 59/112/25 60/113/25 58/114/25
f 59/115/26 53/116/26 56/117/26 60/118/26
f 61/119/27 62/120/27 63/121/27 64/122/27
f 62/123/28 65/124/28 66/125/28 63/126/28
f 65/127/29 67/128/29 68/129/29 66/130/29
f 67/131/30 61/132/30 64/133/30 68/134/30
f 69/135/31 70/136/31 71/137/31 72/138/31
f 70/139/32 73/140/32 74/141/32 71/142/32
f 73/143/33 75/144/33 76/145/33 74/146/33
f 75/147/34 77/148/34 78/149/34 76/150/34
f 77/151/35 79/152/35 80/153/35 78/154/35
f 79/155/36 69/156/36 72/157/36 80/158/36
f 81/159/37 82/160/37 83/161/37 84/162/37
f 82/163/38 85/164/38 86/165/38 83/166/38
f 85/167/39 87/168/39 88/169/39 86/170/39
f 87/171/40 89/172/40 90/173/40 88/174/40
f 89/175/41 91/176/41 92/177/41 90/178/41
f 91/179/42 81/180/42 84/181/42 92/182/42
f 93/183/43 94/184/43 95/185/43 96/186/43
f 94/187/44 97/188/44 98/189/44 95/190/44
f 97/191/45 99/192/45 100/193/45 98/194/45
f 99/195/46 101/196/46 102/197/46 100/198/46
f 101/199/47 103/200/47 104/201/47 102/202/47
f 103/203/44 105/204/44 106/205/44 104/206/44
f 105/207/48 107/208/48 108/209/48 106/210/48
f 107/211/49 93/212/49 96/213/49 108/214/49
f 109/215/50 110/216/50 111/217/50 112/218/50
f 110/219/51 113/220/51 114/221/51 111/222/51
f 113/223/52 115/224/52 116/225/52 114/226/52
f 115/227/53 109/228/53 112/229/53 116/230/53
f 117/231/54 118/232/54 119/233/54 120/234/54
f 118/235/55 121/236/55 122/237/55 119/238/55
f 121/239/56 123/240/56 124/241/56 122/242/56
f 123/243/57 125/244/57 126/245/57 124/246/57
f 125/247/54 127/248/54 128/249/54 126/250/54
f 127/251/58 117/252/58 120/253/58 128/254/58
f 129/255/59 130/256/59 131/257/59 132/258/59
f 130/259/60 133/260/60 134/261/60 131/262/60
f 133/263/61 135/264/61 136/265/61 134/266/61
f 135/267/62 137/268/62 138/269/62 136/270/62
f 137/271/63 139/272/63 140/273/63 138/274/63
f 139/275/64 129/276/64 132/277/64 140/278/64
f 141/279/65 142/280/65 143/281/65 144/282/65
f 142/283/66 145/284/66 146/285/66 143/286/66
f 145/287/67 147/288/67 148/289/67 146/290/67
f 147/291/68 149/292/68 150/293/68 148/294/68
f 149/295/69 151/296/69 152/297/69 150/298/69
f 151/299/70 141/300/70 144/301/70 152/302/70
f 153/303/71 154/304/71 155/305/71 156/306/71
f 154/307/72 157/308/72 158/309/72 155/310/72
f 157/311/73 159/312/73 160/313/73 158/314/73
f 159/315/74 161/316/74 162/317/74 160/318/74
f 161/319/75 163/320/75 164/321/75 162/322/75
f 163/323/76 165/324/76 166/325/76 164/326/76
f 165/327/77 167/328/77 168/329/77 166/330/77
f 167/331/78 169/332/78 170/333/78 168/334/78
f 169/335/79 153/336/79 156/337/79 170/338/79
f 171/339/80 172/340/80 173/341/80 174/342/80
f 172/343/81 175/344/81 176/345/81 173/346/81
f 175/347/82 177/348/82 178/349/82 176/350/82
f 177/351/83 179/352/83 180/353/83 178/354/83
f 179/355/84 171/356/84 174/357/84 180/358/84
f 181/359/85 182/360/85 183/361/85 184/362/85
f 182/363/86 185/364/86 186/365/86 183/366/86
f 185/367/87 187/368/87 188/369/87 186/370/87
f 187/371/88 189/372/88 190/373/88 188/374/88
f 189/375/89 191/376/89 192/377/89 190/378/89
f 191/379/90 193/380/90 194/381/90 192/382/90
f 193/380/91 195/383/91 196/384/91 194/381/91
f 195/385/92 197/386/92 198/387/92 196/388/92
f 197/389/93 199/390/93 200/391/93 198/392/93
f 199/393/94 181/394/94 184/395/94 200/396/94
f 201/397/95 202/398/95 203/399/95 204/400/95
f 202/401/96 205/402/96 206/403/96 203/404/96
f 205/405/97 207/406/97 208/407/97 206/408/97
f 207/409/98 209/410/98 210/411/98 208/412/98
f 209/413/99 211/414/99 212/415/99 210/416/99
f 211/417/100 201/418/100 204/419/100 212/420/100
f 213/421/101 214/422/101 215/423/101 216/424/101
f 214/425/102 217/426/102 218/427/102 215/428/102
f 217/429/103 219/430/103 220/431/103 218/432/103
f 219/433/104 221/434/104 222/435/104 220/436/104
f 221/437/105 223/438/105 224/439/105 222/440/105
f 223/441/106 213/442/106 216/443/106 224/444/106
