# Blender v2.78 (sub 0) OBJ File: ''
# www.blender.org
mtllib CityEngineMaterial_816.mtl
o CityEngineMaterial_816
v -643.951111 7.443908 564.472595
v -641.980530 7.443911 546.416687
v -641.980530 9.215812 546.416687
v -643.951111 9.215809 564.472595
v -658.320679 7.443911 544.639282
v -658.320679 9.215812 544.639282
v -660.303223 7.443908 562.639893
v -660.303223 9.215809 562.639893
v 16.813601 4.657483 104.348000
v 18.365801 4.657480 119.786797
v 18.365801 6.383680 119.786797
v 16.813601 6.383683 104.348000
v 24.027399 4.657480 119.224503
v 24.027399 6.383680 119.224503
v 23.406601 4.657481 113.049599
v 23.406601 6.383681 113.049599
v 24.192400 4.657481 113.087196
v 24.192400 6.383681 113.087196
v 23.346500 4.657483 104.660400
v 23.346500 6.383683 104.660400
v -223.293396 1.753915 523.519714
v -221.388107 1.753911 543.551025
v -221.388107 3.838612 543.551025
v -223.293396 3.838715 523.519714
v -208.131699 1.753911 542.768982
v -208.131699 3.838612 542.768982
v -209.386398 1.753915 522.197021
v -209.386398 3.838715 522.197021
v -557.063477 9.637800 -614.485779
v -553.377686 9.637798 -602.343384
v -553.377686 11.968898 -602.343384
v -557.063477 11.968900 -614.485779
v -541.156128 9.637799 -606.015015
v -541.156128 11.968899 -606.015015
v -544.860229 9.637801 -618.190002
v -544.860229 11.968901 -618.190002
v 73.759300 4.476460 243.432907
v 71.905800 4.476459 253.524704
v 71.905800 6.434958 253.524704
v 73.759300 6.434960 243.432907
v 82.941498 4.476459 251.712006
v 82.941498 6.434959 251.712006
v 83.774902 4.476460 247.187607
v 83.774902 6.434960 247.187607
v 81.712196 4.476460 247.526398
v 81.712196 6.434959 247.526398
v 82.179100 4.476460 244.984207
v 82.179100 6.434960 244.984207
v -140.064606 1.313692 660.145020
v -155.850998 1.313692 660.598694
v -155.850998 3.449193 660.598694
v -140.064606 3.449193 660.145020
v -156.035202 1.313689 678.013794
v -156.035202 3.449190 678.013794
v -140.244904 1.313690 677.780884
v -140.244904 3.449190 677.780884
v -127.474800 3.166608 -47.660900
v -123.599503 3.166605 -28.809000
v -123.599503 5.065105 -28.809000
v -127.474800 5.065108 -47.660900
v -110.105499 3.166605 -29.058800
v -110.105499 5.065105 -29.058800
v -110.463303 3.166608 -47.968601
v -110.463303 5.065108 -47.968601
v -158.399399 2.748999 8.271600
v -158.149796 2.748998 13.529200
v -158.149796 4.862698 13.529201
v -158.399399 4.862699 8.271601
v -151.458603 2.748998 13.211500
v -151.458603 4.862698 13.211501
v -151.485306 2.748998 12.647900
v -151.485306 4.862698 12.647901
v -149.735001 2.748998 12.564800
v -149.735001 4.862698 12.564801
v -150.520996 2.748999 7.897601
v -150.520996 4.862699 7.897601
v 42.129200 38.826756 -952.921814
v 40.754101 38.826756 -961.648376
v 40.754101 40.135555 -961.648376
v 42.129200 40.135555 -952.921814
v 37.046902 38.826756 -961.067871
v 37.046902 40.135555 -961.067871
v 37.844002 38.826756 -956.008728
v 37.844002 40.135555 -956.008728
v 34.492298 38.826756 -955.483887
v 34.492298 40.135555 -955.483887
v 33.696201 38.826756 -960.543274
v 33.696201 40.135555 -960.543274
v 30.207800 38.826756 -959.997070
v 30.207800 40.135555 -959.997070
v 31.580999 38.826756 -951.270020
v 31.580999 40.135555 -951.270020
v -262.683289 1.931352 295.245911
v -248.492203 1.931352 293.898407
v -248.492203 3.783952 293.898407
v -262.683289 3.783952 295.245911
v -249.566299 1.931354 282.605713
v -249.566299 3.783954 282.605713
v -260.586700 1.931354 283.663788
v -260.586700 3.783954 283.663788
v -260.335114 1.931353 286.308411
v -260.335114 3.783953 286.308411
v -263.504791 1.931353 286.609497
v -263.504791 3.783953 286.609497
v -1221.818604 10.404851 298.295197
v -1223.945557 10.404851 297.868500
v -1223.945557 12.346951 297.868500
v -1221.818604 12.346951 298.295197
v -1225.965820 10.404849 307.920197
v -1225.965820 12.346950 307.920197
v -1214.240112 10.404849 310.272797
v -1214.240112 12.346950 310.272797
v -1209.871216 10.404853 288.534393
v -1209.871216 12.346953 288.534393
v -1219.468994 10.404853 286.604187
v -1219.468994 12.346953 286.604187
v 618.815186 20.688379 735.828430
v 619.452393 20.688379 737.444824
v 619.452393 22.828279 737.444824
v 618.815186 22.828279 735.828430
v 617.674377 20.688379 738.144226
v 617.674377 22.828279 738.144226
v 623.850525 20.688278 753.822205
v 623.850525 22.828278 753.822205
v 631.892273 20.688278 750.658813
v 631.892273 22.828278 750.658813
v 625.074402 20.688379 733.366516
v 625.074402 22.828279 733.366516
v -825.194519 15.267772 791.770508
v -839.788574 15.267772 787.864929
v -839.788574 16.733072 787.864929
v -825.194519 16.733070 791.770508
v -841.875488 15.267771 795.681091
v -841.875488 16.733070 795.681091
v -837.278381 15.267771 796.910828
v -837.278381 16.733070 796.910828
v -836.540405 15.267771 794.146912
v -836.540405 16.733070 794.146912
v -831.560181 15.267771 795.479614
v -831.560181 16.733070 795.479614
v -832.298584 15.267771 798.242920
v -832.298584 16.733070 798.242920
v -827.282410 15.267770 799.584778
v -827.282410 16.733070 799.584778
v -277.418915 2.622505 582.437500
v -278.083710 2.622507 571.185120
v -278.083710 4.335407 571.185120
v -277.418915 4.335405 582.437500
v -286.499298 2.622506 579.452515
v -286.499298 4.335405 579.452515
v -283.225006 2.622505 582.779602
v -283.225006 4.335405 582.779602
v -779.374023 8.680421 483.426086
v -785.572693 8.680421 482.939087
v -785.572693 10.100421 482.939087
v -779.374023 10.100421 483.426086
v -786.341492 8.680420 492.631012
v -786.341492 10.100420 492.631012
v -782.052979 8.680420 493.126587
v -782.052979 10.100420 493.126587
v -781.808289 8.680420 490.042908
v -781.808289 10.100420 490.042908
v -780.029480 8.680420 490.182587
v -780.029480 10.100420 490.182587
v -778.646790 8.680420 490.342407
v -778.646790 10.100420 490.342407
v -778.895325 8.680420 493.491486
v -778.895325 10.100420 493.491486
v -775.167297 8.680420 493.922302
v -775.167297 10.100420 493.922302
v -774.384521 8.680421 484.002594
v -774.384521 10.100421 484.002594
v 46.168400 20.238630 -190.863403
v 53.643398 20.238630 -192.390396
v 53.643398 22.130531 -192.390396
v 46.168400 22.130531 -190.863403
v 54.634602 20.238634 -210.885101
v 54.634602 22.130535 -210.885101
v 42.681801 20.238634 -208.352203
v 42.681801 22.130535 -208.352203
v 42.580502 20.238634 -207.944595
v 42.580502 22.130535 -207.944595
vt 0.1667 0.0000
vt 2.3333 0.0000
vt 2.3333 1.0000
vt 0.1667 1.0000
vt 0.6667 -0.0000
vt 2.6667 0.0000
vt 2.6667 1.0000
vt 0.6667 1.0000
vt 0.8333 0.0000
vt 3.0000 0.0000
vt 3.0000 1.0000
vt 0.8333 1.0000
vt 0.5000 0.0000
vt 2.5000 0.0000
vt 2.5000 1.0000
vt 0.5000 1.0000
vt 0.1667 0.0000
vt 2.3333 0.0000
vt 2.3333 1.0000
vt 0.1667 1.0000
vt 0.8333 0.0000
vt 1.6667 0.0000
vt 1.6667 1.0000
vt 0.8333 1.0000
vt 0.6667 -0.0000
vt 1.5000 0.0000
vt 1.5000 1.0000
vt 0.6667 1.0000
vt 0.6667 -0.0000
vt 0.8333 0.0000
vt 0.8333 1.0000
vt 0.6667 1.0000
vt 0.1667 0.0000
vt 1.3333 0.0000
vt 1.3333 1.0000
vt 0.1667 1.0000
vt 0.6667 -0.0000
vt 1.5000 0.0000
vt 1.5000 1.0000
vt 0.6667 1.0000
vt 0.8333 0.0000
vt 4.0000 0.0000
vt 4.0000 1.0000
vt 0.8333 1.0000
vt 0.1667 0.0000
vt 2.1667 -0.0000
vt 2.1667 1.0000
vt 0.1667 1.0000
vt 0.8333 0.0000
vt 4.0000 0.0000
vt 4.0000 1.0000
vt 0.8333 1.0000
vt 0.8333 0.0000
vt 3.0000 0.0000
vt 3.0000 1.0000
vt 0.8333 1.0000
vt 0.5000 0.0000
vt 2.0000 0.0000
vt 2.0000 1.0000
vt 0.5000 1.0000
vt 0.6667 -0.0000
vt 2.1667 -0.0000
vt 2.1667 1.0000
vt 0.6667 1.0000
vt -0.0000 0.0000
vt 1.5000 0.0000
vt 1.5000 1.0000
vt -0.0000 1.0000
vt -0.0000 0.0000
vt 1.5000 0.0000
vt 1.5000 1.0000
vt -0.0000 1.0000
vt 0.5000 0.0000
vt 1.8333 0.0000
vt 1.8333 1.0000
vt 0.5000 1.0000
vt 0.3333 -0.0000
vt 1.8333 0.0000
vt 1.8333 1.0000
vt 0.3333 1.0000
vt 0.8333 0.0000
vt 1.5000 0.0000
vt 1.5000 1.0000
vt 0.8333 1.0000
vt 0.8333 0.0000
vt 1.1667 0.0000
vt 1.1667 1.0000
vt 0.8333 1.0000
vt 0.1667 0.0000
vt 0.5000 0.0000
vt 0.5000 1.0000
vt 0.1667 1.0000
vt 0.8333 0.0000
vt 2.0000 0.0000
vt 2.0000 1.0000
vt 0.8333 1.0000
vt 0.5000 0.0000
vt 2.8333 0.0000
vt 2.8333 1.0000
vt 0.5000 1.0000
vt 0.6667 -0.0000
vt 3.1667 0.0000
vt 3.1667 1.0000
vt 0.6667 1.0000
vt 0.5000 0.0000
vt 2.8333 0.0000
vt 2.8333 1.0000
vt 0.5000 1.0000
vt 0.1667 0.0000
vt 2.6667 0.0000
vt 2.6667 1.0000
vt 0.1667 1.0000
vt 0.3333 -0.0000
vt 3.6667 0.0000
vt 3.6667 1.0000
vt 0.3333 1.0000
vt 0.6667 -0.0000
vt 3.0000 0.0000
vt 3.0000 1.0000
vt 0.6667 1.0000
vt 0.8333 0.0000
vt 4.0000 0.0000
vt 4.0000 1.0000
vt 0.8333 1.0000
vt -0.0000 0.0000
vt 2.8333 0.0000
vt 2.8333 1.0000
vt -0.0000 1.0000
vt 0.1667 0.0000
vt 0.8333 0.0000
vt 0.8333 1.0000
vt 0.1667 1.0000
vt 0.3333 -0.0000
vt 1.3333 0.0000
vt 1.3333 1.0000
vt 0.3333 1.0000
vt 0.1667 0.0000
vt 0.2000 0.0000
vt 0.2000 1.0000
vt 0.1667 1.0000
vt 0.6667 -0.0000
vt 0.8333 0.0000
vt 0.8333 1.0000
vt 0.6667 1.0000
vt 0.6667 -0.0000
vt 1.3333 0.0000
vt 1.3333 1.0000
vt 0.6667 1.0000
vt 0.8333 0.0000
vt 1.8333 0.0000
vt 1.8333 1.0000
vt 0.8333 1.0000
vt 0.3333 -0.0000
vt 1.6667 0.0000
vt 1.6667 1.0000
vt 0.3333 1.0000
vt 0.5000 0.0000
vt 1.0000 -0.0000
vt 1.0000 1.0000
vt 0.5000 1.0000
vt 0.5000 0.0000
vt 1.1667 0.0000
vt 1.1667 1.0000
vt 0.5000 1.0000
vt 0.6667 -0.0000
vt 1.1667 0.0000
vt 1.1667 1.0000
vt 0.6667 1.0000
vt 0.1667 0.0000
vt 0.8333 0.0000
vt 0.8333 1.0000
vt 0.1667 1.0000
vt -0.0000 0.0000
vt 0.5000 0.0000
vt 0.5000 1.0000
vt -0.0000 1.0000
vt 0.6667 -0.0000
vt 2.0000 0.0000
vt 2.0000 1.0000
vt 0.6667 1.0000
vt 0.3333 -0.0000
vt 1.8333 0.0000
vt 1.8333 1.0000
vt 0.3333 1.0000
vt 0.1667 0.0000
vt 2.5000 0.0000
vt 2.5000 1.0000
vt 0.1667 1.0000
vt 0.5000 0.0000
vt 2.3333 0.0000
vt 2.3333 1.0000
vt 0.5000 1.0000
vt 0.6667 -0.0000
vt 2.5000 0.0000
vt 2.5000 1.0000
vt 0.6667 1.0000
vt 0.5000 0.0000
vt 1.0000 -0.0000
vt 1.0000 1.0000
vt 0.5000 1.0000
vt 0.3333 -0.0000
vt 0.8333 0.0000
vt 0.8333 1.0000
vt 0.3333 1.0000
vt 0.3333 -0.0000
vt 1.6667 0.0000
vt 1.6667 1.0000
vt 0.3333 1.0000
vt 0.3333 -0.0000
vt 0.6667 -0.0000
vt 0.6667 1.0000
vt 0.3333 1.0000
vt 0.3333 -0.0000
vt 1.5000 0.0000
vt 1.5000 1.0000
vt 0.3333 1.0000
vt 0.5000 0.0000
vt 2.0000 0.0000
vt 2.0000 1.0000
vt 0.5000 1.0000
vt 0.6667 -0.0000
vt 3.3333 -0.0000
vt 3.3333 1.0000
vt 0.6667 1.0000
vt 0.5000 0.0000
vt 1.6667 0.0000
vt 1.6667 1.0000
vt 0.5000 1.0000
vt 0.1667 0.0000
vt 1.6667 0.0000
vt 1.6667 1.0000
vt 0.1667 1.0000
vt 0.6667 -0.0000
vt 0.8333 0.0000
vt 0.8333 1.0000
vt 0.6667 1.0000
vt 0.3333 -0.0000
vt 0.5000 0.0000
vt 0.5000 1.0000
vt 0.3333 1.0000
vt 2.6667 0.0000
vt 2.6667 1.0000
vt 0.6667 -0.0000
vt 1.8333 0.0000
vt 1.8333 1.0000
vt 0.6667 1.0000
vt 0.3333 -0.0000
vt 2.8333 0.0000
vt 2.8333 1.0000
vt 0.3333 1.0000
vt 0.5000 0.0000
vt 1.3333 0.0000
vt 1.3333 1.0000
vt 0.5000 1.0000
vt 0.1667 0.0000
vt 2.1667 -0.0000
vt 2.1667 1.0000
vt 0.1667 1.0000
vt 0.6667 -0.0000
vt 1.8333 0.0000
vt 1.8333 1.0000
vt 0.6667 1.0000
vt -0.0000 0.0000
vt 0.6667 -0.0000
vt 0.6667 1.0000
vt -0.0000 1.0000
vt 0.5000 0.0000
vt 0.8333 0.0000
vt 0.8333 1.0000
vt 0.5000 1.0000
vt 0.5000 0.0000
vt 1.1667 0.0000
vt 1.1667 1.0000
vt 0.5000 1.0000
vt 0.6667 -0.0000
vt 1.0000 -0.0000
vt 1.0000 1.0000
vt 0.6667 1.0000
vt 0.6667 -0.0000
vt 1.3333 0.0000
vt 1.3333 1.0000
vt 0.6667 1.0000
vt 0.3333 -0.0000
vt 1.5000 0.0000
vt 1.5000 1.0000
vt 0.3333 1.0000
vt 0.5000 0.0000
vt 2.5000 0.0000
vt 2.5000 1.0000
vt 0.5000 1.0000
vt 0.1667 0.0000
vt 2.1667 -0.0000
vt 2.1667 1.0000
vt 0.1667 1.0000
vt 0.5000 0.0000
vt 1.3333 0.0000
vt 1.3333 1.0000
vt 0.5000 1.0000
vt 0.8333 0.0000
vt 1.8333 0.0000
vt 1.8333 1.0000
vt 0.8333 1.0000
vt 0.8333 0.0000
vt 1.8333 0.0000
vt 1.8333 1.0000
vt 0.8333 1.0000
vt 0.5000 0.0000
vt 2.0000 0.0000
vt 2.0000 1.0000
vt 0.5000 1.0000
vt 0.3333 -0.0000
vt 1.0000 -0.0000
vt 1.0000 1.0000
vt 0.3333 1.0000
vt 0.3333 -0.0000
vt 0.8333 0.0000
vt 0.8333 1.0000
vt 0.3333 1.0000
vt 0.6667 -0.0000
vt 1.0000 -0.0000
vt 1.0000 1.0000
vt 0.6667 1.0000
vt 0.6667 -0.0000
vt 0.8333 0.0000
vt 0.8333 1.0000
vt 0.6667 1.0000
vt 0.6667 -0.0000
vt 1.1667 0.0000
vt 1.1667 1.0000
vt 0.6667 1.0000
vt 0.3333 -0.0000
vt 0.8333 0.0000
vt 0.8333 1.0000
vt 0.3333 1.0000
vt 0.3333 -0.0000
vt 1.8333 0.0000
vt 1.8333 1.0000
vt 0.3333 1.0000
vt 0.3333 -0.0000
vt 1.1667 0.0000
vt 1.1667 1.0000
vt 0.3333 1.0000
vt 0.3333 -0.0000
vt 1.5000 0.0000
vt 1.5000 1.0000
vt 0.3333 1.0000
vt 0.5000 0.0000
vt 3.3333 -0.0000
vt 3.3333 1.0000
vt 0.5000 1.0000
vt 0.6667 -0.0000
vt 2.5000 0.0000
vt 2.5000 1.0000
vt 0.6667 1.0000
vt 0.6667 -0.0000
vt 0.7000 0.0000
vt 0.7000 1.0000
vt 0.6667 1.0000
vt 0.6667 -0.0000
vt 3.3333 -0.0000
vt 3.3333 1.0000
vt 0.6667 1.0000
vn 0.9941 0.0000 0.1085
vn 0.1081 0.0000 -0.9941
vn -0.9940 0.0000 -0.1095
vn -0.1114 0.0000 0.9938
vn -0.9950 0.0000 0.1000
vn 0.0988 0.0000 0.9951
vn 0.9950 0.0000 -0.1000
vn -0.0478 0.0000 0.9989
vn 0.9950 0.0000 -0.0999
vn 0.0478 0.0000 -0.9989
vn -0.9955 0.0000 0.0947
vn 0.0589 0.0000 0.9983
vn 0.9981 0.0000 -0.0609
vn -0.0947 0.0000 -0.9955
vn -0.9569 0.0000 0.2905
vn 0.2877 0.0000 0.9577
vn 0.9567 0.0000 -0.2911
vn -0.2905 0.0000 -0.9569
vn -0.9835 0.0000 -0.1806
vn 0.1621 0.0000 0.9868
vn 0.9835 0.0000 0.1812
vn -0.1621 0.0000 -0.9868
vn 0.9835 0.0000 0.1806
vn 0.1812 0.0000 -0.9834
vn -0.0287 0.0000 -0.9996
vn -0.9999 0.0000 -0.0106
vn 0.0148 0.0000 0.9999
vn 0.9999 0.0000 0.0102
vn -0.9795 0.0000 0.2014
vn 0.0185 0.0000 0.9998
vn 0.9998 0.0000 -0.0189
vn -0.0181 0.0000 -0.9998
vn -0.9989 0.0000 0.0474
vn 0.0474 -0.0000 0.9989
vn 0.9989 0.0000 -0.0473
vn 0.9861 0.0000 -0.1661
vn -0.0474 0.0000 -0.9989
vn 0.9878 0.0000 -0.1557
vn -0.1547 0.0000 -0.9880
vn -0.9878 0.0000 0.1556
vn 0.9878 0.0000 -0.1554
vn -0.9878 0.0000 0.1554
vn 0.1547 0.0000 0.9880
vn 0.0945 0.0000 0.9955
vn 0.9955 0.0000 -0.0947
vn -0.0956 0.0000 -0.9954
vn -0.0946 0.0000 -0.9955
vn 0.1967 0.0000 -0.9805
vn -0.9804 0.0000 -0.1970
vn -0.1967 0.0000 0.9805
vn 0.9804 0.0000 0.1970
vn 0.1972 0.0000 -0.9804
vn -0.9303 0.0000 0.3667
vn -0.3660 0.0000 -0.9306
vn -0.9304 0.0000 0.3665
vn 0.3661 0.0000 0.9306
vn 0.9303 0.0000 -0.3668
vn 0.2585 0.0000 -0.9660
vn -0.9662 0.0000 -0.2580
vn -0.2584 0.0000 0.9660
vn 0.9662 0.0000 0.2580
vn -0.2585 0.0000 0.9660
vn -0.9661 0.0000 -0.2582
vn 0.9661 0.0000 0.2581
vn 0.9983 0.0000 -0.0590
vn -0.7008 0.0000 -0.7134
vn -0.7127 0.0000 0.7014
vn 0.0588 0.0000 0.9983
vn 0.0783 0.0000 -0.9969
vn -0.9969 0.0000 -0.0791
vn -0.1148 0.0000 0.9934
vn 0.9969 0.0000 0.0791
vn -0.0783 0.0000 0.9969
vn -0.9969 0.0000 -0.0787
vn 0.9969 0.0000 0.0787
vn 0.1148 0.0000 -0.9934
vn 0.2001 0.0000 0.9798
vn 0.9986 0.0000 0.0535
vn -0.2073 0.0000 -0.9783
vn -0.9705 0.0000 -0.2412
vn -0.9786 0.0000 0.2056
g CityEngineMaterial_816_CityEngineMaterial_816_CityEngineMaterial_816_mat
usemtl CityEngineMaterial_816_mat
s 1
f 1/1/1 2/2/1 3/3/1 4/4/1
f 2/5/2 5/6/2 6/7/2 3/8/2
f 5/9/3 7/10/3 8/11/3 6/12/3
f 7/13/4 1/14/4 4/15/4 8/16/4
f 9/17/5 10/18/5 11/19/5 12/20/5
f 10/21/6 13/22/6 14/23/6 11/24/6
f 13/25/7 15/26/7 16/27/7 14/28/7
f 15/29/8 17/30/8 18/31/8 16/32/8
f 17/33/9 19/34/9 20/35/9 18/36/9
f 19/37/10 9/38/10 12/39/10 20/40/10
f 21/41/11 22/42/11 23/43/11 24/44/11
f 22/45/12 25/46/12 26/47/12 23/48/12
f 25/49/13 27/50/13 28/51/13 26/52/13
f 27/53/14 21/54/14 24/55/14 28/56/14
f 29/57/15 30/58/15 31/59/15 32/60/15
f 30/61/16 33/62/16 34/63/16 31/64/16
f 33/65/17 35/66/17 36/67/17 34/68/17
f 35/69/18 29/70/18 32/71/18 36/72/18
f 37/73/19 38/74/19 39/75/19 40/76/19
f 38/77/20 41/78/20 42/79/20 39/80/20
f 41/81/21 43/82/21 44/83/21 42/84/21
f 43/85/22 45/86/22 46/87/22 44/88/22
f 45/89/23 47/90/23 48/91/23 46/92/23
f 47/93/24 37/94/24 40/95/24 48/96/24
f 49/97/25 50/98/25 51/99/25 52/100/25
f 50/101/26 53/102/26 54/103/26 51/104/26
f 53/105/27 55/106/27 56/107/27 54/108/27
f 55/109/28 49/110/28 52/111/28 56/112/28
f 57/113/29 58/114/29 59/115/29 60/116/29
f 58/117/30 61/118/30 62/119/30 59/120/30
f 61/121/31 63/122/31 64/123/31 62/124/31
f 63/125/32 57/126/32 60/127/32 64/128/32
f 65/129/33 66/130/33 67/131/33 68/132/33
f 66/133/34 69/134/34 70/135/34 67/136/34
f 69/137/35 71/138/35 72/139/35 70/140/35
f 71/141/34 73/142/34 74/143/34 72/144/34
f 73/145/36 75/146/36 76/147/36 74/148/36
f 75/149/37 65/150/37 68/151/37 76/152/37
f 77/153/38 78/154/38 79/155/38 80/156/38
f 78/157/39 81/158/39 82/159/39 79/160/39
f 81/161/40 83/162/40 84/163/40 82/164/40
f 83/165/39 85/166/39 86/167/39 84/168/39
f 85/169/41 87/170/41 88/171/41 86/172/41
f 87/173/39 89/174/39 90/175/39 88/176/39
f 89/177/42 91/178/42 92/179/42 90/180/42
f 91/181/43 77/182/43 80/183/43 92/184/43
f 93/185/44 94/186/44 95/187/44 96/188/44
f 94/189/45 97/190/45 98/191/45 95/192/45
f 97/193/46 99/194/46 100/195/46 98/196/46
f 99/197/11 101/198/11 102/199/11 100/200/11
f 101/201/47 103/202/47 104/203/47 102/204/47
f 103/205/11 93/206/11 96/207/11 104/208/11
f 105/209/48 106/210/48 107/211/48 108/212/48
f 106/213/49 109/214/49 110/215/49 107/216/49
f 109/217/50 111/218/50 112/219/50 110/220/50
f 111/221/51 113/222/51 114/223/51 112/224/51
f 113/225/52 115/226/52 116/227/52 114/228/52
f 115/229/49 105/230/49 108/231/49 116/232/49
f 117/233/53 118/234/53 119/235/53 120/236/53
f 118/237/54 121/238/54 122/239/54 119/240/54
f 121/238/55 123/241/55 124/242/55 122/239/55
f 123/243/56 125/244/56 126/245/56 124/246/56
f 125/247/57 127/248/57 128/249/57 126/250/57
f 127/251/54 117/252/54 120/253/54 128/254/54
f 129/255/58 130/256/58 131/257/58 132/258/58
f 130/259/59 133/260/59 134/261/59 131/262/59
f 133/263/60 135/264/60 136/265/60 134/266/60
f 135/267/61 137/268/61 138/269/61 136/270/61
f 137/271/62 139/272/62 140/273/62 138/274/62
f 139/275/63 141/276/63 142/277/63 140/278/63
f 141/279/60 143/280/60 144/281/60 142/282/60
f 143/283/64 129/284/64 132/285/64 144/286/64
f 145/287/65 146/288/65 147/289/65 148/290/65
f 146/291/66 149/292/66 150/293/66 147/294/66
f 149/295/67 151/296/67 152/297/67 150/298/67
f 151/299/68 145/300/68 148/301/68 152/302/68
f 153/303/69 154/304/69 155/305/69 156/306/69
f 154/307/70 157/308/70 158/309/70 155/310/70
f 157/311/71 159/312/71 160/313/71 158/314/71
f 159/315/72 161/316/72 162/317/72 160/318/72
f 161/319/73 163/320/73 164/321/73 162/322/73
f 163/323/71 165/324/71 166/325/71 164/326/71
f 165/327/74 167/328/74 168/329/74 166/330/74
f 167/331/71 169/332/71 170/333/71 168/334/71
f 169/335/75 171/336/75 172/337/75 170/338/75
f 171/339/76 153/340/76 156/341/76 172/342/76
f 173/343/77 174/344/77 175/345/77 176/346/77
f 174/347/78 177/348/78 178/349/78 175/350/78
f 177/351/79 179/352/79 180/353/79 178/354/79
f 179/355/80 181/356/80 182/357/80 180/358/80
f 181/359/81 173/360/81 176/361/81 182/362/81
