# Blender v2.78 (sub 0) OBJ File: ''
# www.blender.org
mtllib CityEngineMaterial_310.mtl
o CityEngineMaterial_310
v 574.582092 71.815567 181.165909
v 569.982605 71.815567 182.337021
v 570.166077 72.175972 183.057709
v 574.765625 72.175972 181.886612
v 570.349609 71.815567 183.778412
v 574.949097 71.815567 182.607315
v 569.870728 71.815567 181.897415
v 570.166077 71.815567 183.057709
v 571.242798 72.353966 182.783615
v 570.947327 72.353966 181.623215
v 572.319397 71.815567 182.509521
v 572.023926 71.815567 181.349121
v -267.233704 28.295612 537.403687
v -267.582001 28.295612 533.750671
v -268.317200 28.624212 533.820679
v -267.968811 28.624212 537.473816
v -269.052307 28.295612 533.890930
v -268.703888 28.295612 537.543884
v -267.269104 28.295612 533.720825
v -268.317200 28.295612 533.820679
v -268.234100 28.685213 534.692200
v -267.186005 28.685213 534.592285
v -268.151001 28.295612 535.563721
v -267.102905 28.295612 535.463684
v 105.476898 48.463932 -820.669373
v 105.133904 48.463932 -822.849915
v 104.511497 48.823032 -822.752625
v 104.853600 48.823532 -820.571716
v 103.889099 48.463932 -822.655090
v 104.230202 48.463932 -820.474182
v 105.427696 48.463932 -821.654419
v 104.701698 48.463932 -821.540222
v 104.777603 48.743134 -821.056274
v 105.503899 48.743435 -821.169983
v 104.853500 48.463932 -820.572205
v 105.580101 48.463932 -820.685608
v -708.049622 65.827774 -1069.176636
v -708.905701 65.827774 -1066.739380
v -708.579285 65.962975 -1066.624756
v -707.723328 65.962975 -1069.062012
v -708.253113 65.827774 -1066.510132
v -707.396973 65.827774 -1068.947388
v -708.551392 65.827774 -1067.991577
v -708.148926 65.827774 -1067.850342
v -707.936096 66.078873 -1068.456177
v -708.338623 66.078873 -1068.597534
v -707.723328 65.827774 -1069.062012
v -708.125671 65.827774 -1069.203369
v 584.105286 69.918404 15.354411
v 583.043274 69.918404 10.816112
v 581.752014 70.569199 11.118312
v 582.814026 70.569199 15.656611
v 580.460693 69.918404 11.420511
v 581.522705 69.918404 15.958812
v 73.572403 47.923306 -656.895325
v 68.900398 47.923306 -656.164978
v 70.128700 48.477207 -655.268799
v 72.676903 48.476807 -655.668030
v 69.232697 47.923306 -654.039917
v 73.904198 47.923306 -654.773193
v 71.058899 47.923306 -656.230225
v 68.942101 47.923306 -655.899414
v 70.166397 48.475407 -655.006104
v 69.286598 47.923306 -653.696228
v 70.179703 48.475407 -654.921082
v 71.404503 47.923306 -654.028687
v -63.681702 18.804842 -258.908203
v -60.645802 18.804842 -259.441315
v -60.902302 19.350042 -260.901886
v -63.938202 19.350042 -260.368805
v -61.158699 18.804842 -262.362488
v -64.194603 18.804842 -261.829498
v 305.589203 70.383484 74.174316
v 305.777405 70.383484 78.962814
v 306.277405 70.667282 78.943214
v 306.089203 70.667282 74.154617
v 306.777313 70.383484 78.923515
v 306.589111 70.383484 74.135017
v -1066.107422 20.293837 383.563110
v -1070.228271 20.293837 383.238708
v -1069.142578 20.857937 384.509888
v -1067.378418 20.857937 384.648712
v -1070.413818 20.293837 385.595398
v -1066.292847 20.293837 385.919800
v -1068.242065 20.293837 383.014587
v -1070.198486 20.293837 382.860596
v -1069.297241 20.762136 383.915710
v -1070.390503 20.293837 385.300812
v -1069.335327 20.762136 384.399689
v -1068.434204 20.293837 385.454803
v -386.129700 14.572959 254.378494
v -389.029602 14.572958 254.718994
v -388.937897 14.914358 255.499893
v -386.037994 14.914358 255.159302
v -388.846191 14.572958 256.280701
v -385.946289 14.572958 255.940201
v -388.468506 14.572959 254.313095
v -388.337402 14.572958 255.429306
v -387.487915 14.944358 255.329605
v -387.618988 14.944359 254.213303
v -386.638489 14.572958 255.229797
v -386.769592 14.572959 254.113495
v -124.261597 39.139320 -1368.080933
v -123.659103 39.139423 -1370.913330
v -124.102303 39.398125 -1371.007568
v -124.704803 39.398121 -1368.175171
v -124.545502 39.139423 -1371.101807
v -125.148003 39.139320 -1368.269531
v -1516.931763 26.013636 398.318115
v -1513.502197 26.013636 399.775391
v -1512.995117 26.759735 398.582214
v -1516.424805 26.759735 397.124908
v -1512.488159 26.013636 397.389099
v -1515.917847 26.013636 395.931793
v 192.328003 55.116222 -752.633789
v 190.156097 55.116222 -752.599976
v 190.163895 55.300022 -752.098206
v 192.335800 55.300022 -752.132019
v 190.171707 55.116222 -751.596375
v 192.343597 55.116222 -751.630188
v 190.151901 55.116222 -752.868713
v 190.163895 55.116222 -752.098206
v 190.605103 55.277821 -752.104980
v 190.593094 55.277821 -752.875610
v 191.046295 55.116222 -752.111877
v 191.034302 55.116222 -752.882385
v 1060.467041 124.792358 -393.624176
v 1061.712646 124.792358 -391.585480
v 1061.945679 125.056358 -392.551056
v 1061.432251 125.056259 -393.391357
v 1062.911133 124.792358 -392.318268
v 1061.664917 124.792358 -394.356659
v 1060.154297 124.792358 -393.433075
v 1060.598145 124.792358 -392.706665
v 1060.739502 124.952362 -393.291870
v 1061.959351 124.792358 -393.538361
v 1061.373901 124.952461 -393.679657
v 1061.515015 124.792358 -394.265076
v 408.304688 76.182228 -191.795792
v 408.573914 76.182228 -190.038391
v 408.884705 76.345131 -190.461685
v 408.727997 76.345131 -191.484985
v 409.308014 76.182228 -190.150787
v 409.038788 76.182228 -191.908188
v 408.228699 76.182228 -190.790787
v 408.349304 76.182228 -190.003983
v 408.682404 76.356827 -190.457687
v 409.216187 76.182228 -190.136780
v 408.762604 76.356827 -190.469879
v 409.095703 76.182228 -190.923584
v 766.255676 109.458748 -276.853882
v 767.702820 109.458748 -277.460663
v 767.602600 109.570847 -277.699677
v 766.155579 109.570847 -277.092773
v 767.502380 109.458748 -277.938568
v 766.055298 109.458748 -277.331757
v 767.418274 109.458748 -277.231476
v 767.278870 109.458748 -277.563873
v 766.879028 109.646248 -277.396179
v 767.018372 109.646248 -277.063873
v 766.479309 109.458748 -277.228577
v 766.618713 109.458748 -276.896179
v 379.463501 54.610920 -113.354996
v 379.700500 54.610920 -111.150391
v 380.035095 54.768921 -111.186295
v 379.798096 54.768921 -113.390991
v 380.369690 54.610920 -111.222290
v 380.132690 54.610920 -113.426994
v 379.647400 54.610920 -111.144691
v 380.035095 54.610920 -111.186295
v 379.984406 54.833820 -111.658394
v 379.596710 54.833820 -111.616692
v 379.933594 54.610920 -112.130394
v 379.545898 54.610920 -112.088692
v 417.409210 76.460945 -282.911407
v 421.484711 76.460945 -283.443207
v 421.283508 77.073647 -284.985504
v 417.207886 77.073647 -284.453796
v 421.082214 76.460945 -286.527802
v 417.006714 76.460945 -285.996094
v 421.526489 76.460945 -283.123108
v 421.283508 76.460945 -284.985504
v 420.521790 76.763443 -284.886108
v 420.764801 76.763443 -283.023712
v 419.760101 76.460945 -284.786804
v 420.003113 76.460945 -282.924286
v -584.886780 21.110176 153.017197
v -585.061829 21.110176 148.102493
v -585.815430 21.431776 148.129303
v -585.640503 21.431776 153.044006
v -586.568909 21.110176 148.156097
v -586.393982 21.110176 153.070801
v 257.707092 79.787262 -377.416290
v 262.909393 79.787262 -377.539703
v 262.886688 80.296761 -378.496887
v 257.684387 80.296761 -378.373413
v 262.864014 79.787262 -379.454010
v 257.661713 79.787262 -379.330597
v 259.806213 79.787262 -376.869507
v 259.769409 79.787262 -378.422913
v 258.726898 80.342262 -378.398193
v 258.763702 80.342262 -376.844788
v 257.684387 79.787262 -378.373413
v 257.721191 79.787262 -376.820007
v -480.526886 25.940153 295.819397
v -485.375092 25.940153 295.761810
v -485.386993 26.388853 296.766693
v -480.538788 26.388853 296.824310
v -485.398895 25.940153 297.771698
v -480.550812 25.940153 297.829315
v -485.370605 25.940153 295.385193
v -485.386993 25.940153 296.766693
v -484.075500 26.525753 296.782288
v -484.059113 26.525753 295.400787
v -482.764008 25.940153 296.797913
v -482.747711 25.940153 295.416412
v -227.467407 16.589540 -242.118805
v -227.666794 16.589539 -237.659103
v -226.498901 17.148739 -237.606796
v -226.299393 17.148741 -242.066605
v -225.330902 16.589539 -237.554596
v -225.131393 16.589540 -242.014297
v -227.875305 16.589539 -237.668396
v -226.498901 16.589539 -237.606796
v -226.450607 17.106039 -238.685593
v -227.827103 17.106039 -238.747101
v -226.402405 16.589539 -239.764297
v -227.778793 16.589539 -239.825806
v -373.687592 13.199395 27.425701
v -376.992188 13.199395 28.427603
v -376.136993 13.556595 28.884901
v -374.144806 13.556595 28.280901
v -376.594208 13.199395 29.740202
v -373.289612 13.199395 28.738201
v -375.228394 13.199395 27.646002
v -377.060699 13.199395 28.201601
v -376.165100 13.573495 28.680403
v -375.707214 13.573495 28.541601
v -376.644012 13.199395 29.576101
v -374.811615 13.199395 29.020502
v -663.847473 13.492337 388.585785
v -661.017700 13.492337 388.559692
v -661.022278 13.716537 388.055206
v -663.852173 13.716537 388.081390
v -661.026978 13.492337 387.550812
v -663.856812 13.492337 387.576904
v -662.167908 13.492337 388.651703
v -662.173279 13.492337 388.065796
v -663.012817 13.865337 388.073608
v -663.007324 13.865337 388.659393
v -663.852173 13.492337 388.081390
v -663.846802 13.492337 388.667114
v 456.071014 72.166534 -232.601883
v 456.635315 72.166534 -228.894379
v 457.351501 72.513641 -229.003387
v 456.787201 72.513641 -232.710892
v 458.067688 72.166534 -229.112381
v 457.503387 72.166534 -232.819885
v 456.242889 72.166435 -228.834686
v 457.351501 72.166534 -229.003387
v 457.244293 72.507835 -229.707779
v 456.135712 72.507835 -229.538986
v 457.137085 72.166534 -230.412186
v 456.028503 72.166534 -230.243484
vt -0.0342 -0.0252
vt 0.9157 -0.0252
vt 0.9157 0.1402
vt -0.0342 0.1402
vt -0.0058 -0.0683
vt 0.9440 -0.0683
vt 0.9440 0.0971
vt -0.0058 0.0971
vt -0.0714 -0.0663
vt 0.1682 -0.0663
vt 0.1682 0.1808
vt -0.0714 0.1808
vt -0.0469 -0.0583
vt 0.1927 -0.0583
vt 0.1927 0.1888
vt -0.0469 0.1888
vt -0.0135 -0.0967
vt 0.9136 -0.0967
vt 0.9136 0.1075
vt -0.0135 0.1075
vt -0.0723 -0.0421
vt 0.8548 -0.0421
vt 0.8548 0.1621
vt -0.0723 0.1621
vt -0.0425 -0.0611
vt 0.2235 -0.0611
vt 0.2235 0.1810
vt -0.0425 0.1810
vt -0.0367 -0.0484
vt 0.2293 -0.0484
vt 0.2293 0.1937
vt -0.0367 0.1937
vt -0.0431 -0.0445
vt 0.3452 -0.0445
vt 0.3453 0.0830
vt -0.0431 0.0832
vt -0.0275 -0.0381
vt 0.3608 -0.0381
vt 0.3608 0.0897
vt -0.0275 0.0895
vt -0.0382 -0.0339
vt 0.0911 -0.0339
vt 0.0911 0.0653
vt -0.0382 0.0654
vt -0.0168 -0.0139
vt 0.1126 -0.0139
vt 0.1125 0.0854
vt -0.0169 0.0853
vt -0.0212 -0.0680
vt 0.4443 -0.0680
vt 0.4443 -0.0011
vt -0.0212 -0.0011
vt -0.0506 -0.0123
vt 0.4149 -0.0123
vt 0.4149 0.0547
vt -0.0506 0.0547
vt -0.0074 -0.0580
vt 0.0695 -0.0580
vt 0.0695 0.0663
vt -0.0074 0.0663
vt -0.0405 -0.0199
vt 0.0363 -0.0199
vt 0.0363 0.1044
vt -0.0405 0.1044
vt -0.0555 -0.0160
vt 0.7447 -0.0160
vt 0.7447 0.2376
vt -0.0555 0.2376
vt -0.0670 -0.0619
vt 0.7332 -0.0619
vt 0.7332 0.1917
vt -0.0670 0.1917
vt -0.0833 -0.0463
vt 0.9369 -0.0463
vt 0.7049 0.2147
vt 0.1484 0.2144
vt -0.0254 -0.0207
vt 0.4386 -0.0207
vt 0.2065 0.2403
vt -0.0848 -0.0364
vt 0.9355 -0.0364
vt 0.7038 0.2243
vt 0.1473 0.2245
vt -0.0156 -0.0307
vt 0.4479 -0.0307
vt 0.2161 0.2301
vt -0.0584 -0.0596
vt 0.4038 -0.0596
vt 0.1726 0.2005
vt -0.0387 -0.0431
vt 0.4424 -0.0431
vt 0.2110 0.2170
vt 0.1925 0.2170
vt -0.0222 -0.0061
vt 0.4403 -0.0061
vt 0.2091 0.2540
vt -0.0701 -0.0230
vt 0.4107 -0.0230
vt 0.1796 0.2371
vt 0.1611 0.2371
vt -0.0324 -0.0619
vt 0.5923 -0.0619
vt 0.5923 0.2584
vt -0.0324 0.2584
vt -0.0423 -0.0421
vt 0.5824 -0.0421
vt 0.5824 0.2781
vt -0.0423 0.2781
vt -0.0270 -0.0914
vt 1.1414 -0.0914
vt 1.1414 0.0488
vt -0.0270 0.0488
vt -0.0678 -0.0273
vt 1.1006 -0.0273
vt 1.1006 0.1130
vt -0.0678 0.1130
vt -0.0406 -0.0276
vt 0.7750 -0.0276
vt 0.5418 0.2308
vt 0.1926 0.2308
vt -0.0085 -0.0587
vt 0.4579 -0.0587
vt 0.2247 0.1997
vt -0.0396 -0.0715
vt 0.7760 -0.0715
vt 0.5428 0.1869
vt 0.1936 0.1869
vt -0.0524 -0.0743
vt 0.4140 -0.0743
vt 0.1808 0.1841
vt -0.0330 -0.0648
vt 0.3542 -0.0648
vt 0.1606 0.1498
vt -0.0457 -0.0505
vt 0.4373 -0.0505
vt 0.2437 0.1641
vt 0.1479 0.1641
vt -0.0314 -0.0652
vt 0.3558 -0.0652
vt 0.1622 0.1493
vt -0.0462 -0.0218
vt 0.4368 -0.0218
vt 0.2432 0.1928
vt 0.1474 0.1928
vt -0.0126 -0.0115
vt 0.4999 -0.0115
vt 0.4999 0.1390
vt -0.0126 0.1390
vt -0.0636 -0.0029
vt 0.4489 -0.0029
vt 0.4489 0.1475
vt -0.0636 0.1475
vt -0.0313 -0.0442
vt 0.1660 -0.0442
vt 0.1660 0.1194
vt -0.0313 0.1194
vt -0.0273 -0.0015
vt 0.1700 -0.0015
vt 0.1700 0.1622
vt -0.0273 0.1622
vt -0.0295 -0.0471
vt 0.5124 -0.0471
vt 0.5124 0.0505
vt -0.0295 0.0505
vt -0.0291 -0.0486
vt 0.5128 -0.0486
vt 0.5128 0.0490
vt -0.0291 0.0490
vt -0.0344 -0.0307
vt 0.8685 -0.0307
vt 0.8685 0.3317
vt -0.0344 0.3317
vt -0.0073 -0.0207
vt 0.8955 -0.0207
vt 0.8955 0.3416
vt -0.0073 0.3416
vt -0.0491 -0.0672
vt 0.3278 -0.0672
vt 0.3278 0.0256
vt -0.0491 0.0256
vt -0.0504 -0.0556
vt 0.3266 -0.0556
vt 0.3266 0.0371
vt -0.0504 0.0371
vt -0.0145 -0.0089
vt 0.1192 -0.0089
vt 0.1192 0.0727
vt -0.0145 0.0727
vt -0.0604 -0.0310
vt 0.0733 -0.0310
vt 0.0733 0.0506
vt -0.0604 0.0506
vt -0.0376 -0.0449
vt 0.4274 -0.0449
vt 0.2907 0.1011
vt 0.0990 0.1010
vt -0.0261 -0.0359
vt 0.2473 -0.0359
vt 0.1106 0.1101
vt -0.0171 -0.0668
vt 0.4479 -0.0668
vt 0.3112 0.0792
vt 0.1196 0.0792
vt -0.0480 -0.0340
vt 0.2252 -0.0340
vt 0.0887 0.1120
vt -0.0590 -0.0174
vt 0.1067 -0.0174
vt 0.0238 0.0711
vt -0.0752 -0.0510
vt 0.2352 -0.0510
vt 0.1523 0.0375
vt 0.0076 0.0375
vt -0.0322 -0.0335
vt 0.1336 -0.0335
vt 0.0507 0.0551
vt -0.0146 -0.0614
vt 0.2958 -0.0614
vt 0.2129 0.0271
vt 0.0682 0.0272
vt -0.0546 -0.0460
vt 0.3526 -0.0460
vt 0.2675 0.0468
vt 0.0304 0.0468
vt -0.0239 -0.0662
vt 0.1462 -0.0662
vt 0.0611 0.0267
vt -0.0440 -0.0704
vt 0.3631 -0.0704
vt 0.2781 0.0224
vt 0.0410 0.0224
vt -0.0483 -0.0060
vt 0.1218 -0.0060
vt 0.0368 0.0869
vt -0.0413 -0.0697
vt 0.1410 -0.0697
vt 0.0498 0.0298
vt -0.0476 -0.0708
vt 0.1533 -0.0708
vt 0.0621 0.0287
vt 0.0436 0.0287
vt -0.0487 -0.0694
vt 0.1336 -0.0694
vt 0.0425 0.0302
vt -0.0472 -0.0819
vt 0.1536 -0.0819
vt 0.0625 0.0176
vt 0.0439 0.0176
vt -0.0731 -0.0114
vt 0.2189 -0.0114
vt 0.2189 0.0412
vt -0.0731 0.0412
vt -0.0666 -0.0072
vt 0.2253 -0.0072
vt 0.2253 0.0453
vt -0.0666 0.0453
vt -0.0391 -0.0603
vt 0.0280 -0.0603
vt 0.0280 0.0276
vt -0.0391 0.0276
vt -0.0423 -0.0316
vt 0.0248 -0.0316
vt 0.0248 0.0563
vt -0.0423 0.0563
vt -0.0238 -0.0414
vt 0.3700 -0.0414
vt 0.3700 0.0246
vt -0.0238 0.0246
vt -0.0242 -0.0320
vt 0.3696 -0.0320
vt 0.3696 0.0340
vt -0.0242 0.0340
vt -0.0495 -0.0218
vt 0.0197 -0.0218
vt 0.0197 0.0714
vt -0.0495 0.0714
vt -0.0046 -0.0419
vt 0.0647 -0.0419
vt 0.0647 0.0513
vt -0.0046 0.0513
vt -0.0228 -0.0313
vt 0.8821 -0.0313
vt 0.8821 0.3368
vt -0.0228 0.3368
vt -0.0100 -0.0842
vt 0.8949 -0.0842
vt 0.8949 0.2839
vt -0.0100 0.2839
vt -0.0538 -0.0290
vt 0.3597 -0.0290
vt 0.3597 0.1528
vt -0.0538 0.1528
vt -0.0077 -0.0016
vt 0.4058 -0.0016
vt 0.4058 0.1802
vt -0.0077 0.1802
vt -0.0729 -0.0616
vt 0.8788 -0.0616
vt 0.8788 0.0971
vt -0.0729 0.0971
vt -0.0429 -0.0312
vt 0.9089 -0.0312
vt 0.9089 0.1274
vt -0.0429 0.1274
vt -0.0483 -0.0003
vt 1.1139 -0.0003
vt 1.1139 0.2420
vt -0.0483 0.2420
vt -0.0666 -0.0239
vt 1.0956 -0.0239
vt 1.0956 0.2183
vt -0.0666 0.2183
vt -0.0624 -0.0160
vt 0.2846 -0.0160
vt 0.2846 0.2479
vt -0.0624 0.2479
vt -0.0823 -0.0245
vt 0.2647 -0.0245
vt 0.2647 0.2393
vt -0.0823 0.2393
vt -0.0665 -0.0221
vt 0.8410 -0.0221
vt 0.8410 0.1839
vt -0.0665 0.1839
vt -0.0040 -0.0486
vt 0.9035 -0.0486
vt 0.9035 0.1574
vt -0.0040 0.1574
vt -0.0471 -0.0211
vt 0.2115 -0.0211
vt 0.2115 0.2478
vt -0.0471 0.2478
vt -0.0030 -0.0032
vt 0.2556 -0.0032
vt 0.2556 0.2656
vt -0.0030 0.2656
vt -0.0826 -0.0441
vt 0.8644 -0.0441
vt 0.8644 0.2308
vt -0.0826 0.2308
vt -0.0236 -0.0672
vt 0.9234 -0.0672
vt 0.9234 0.2077
vt -0.0236 0.2077
vt -0.0415 -0.0392
vt 0.2508 -0.0392
vt 0.2508 0.2147
vt -0.0415 0.2147
vt -0.0187 -0.0403
vt 0.2736 -0.0403
vt 0.2736 0.2136
vt -0.0187 0.2136
vt -0.0756 -0.0709
vt 0.7315 -0.0709
vt 0.5712 0.1098
vt 0.0847 0.1098
vt -0.0483 -0.0099
vt 0.2723 -0.0099
vt 0.1120 0.1708
vt -0.0793 -0.0101
vt 0.7278 -0.0101
vt 0.5675 0.1707
vt 0.0810 0.1707
vt -0.0795 -0.0882
vt 0.2411 -0.0882
vt 0.0808 0.0925
vt -0.0270 -0.0643
vt 0.4206 -0.0643
vt 0.2527 0.1250
vt 0.1409 0.1250
vt -0.0417 -0.0661
vt 0.2940 -0.0661
vt 0.1262 0.1231
vt -0.0435 -0.0365
vt 0.4040 -0.0365
vt 0.2362 0.1528
vt 0.1243 0.1528
vt -0.0139 -0.0631
vt 0.3218 -0.0631
vt 0.1540 0.1262
vt -0.0538 -0.0280
vt 0.4284 -0.0280
vt 0.4284 0.0661
vt -0.0538 0.0661
vt -0.0115 -0.0529
vt 0.4706 -0.0529
vt 0.4706 0.0412
vt -0.0115 0.0412
vt -0.0015 -0.0384
vt 0.0983 -0.0384
vt 0.0983 0.1181
vt -0.0015 0.1181
vt -0.0219 -0.0308
vt 0.0779 -0.0308
vt 0.0779 0.1257
vt -0.0219 0.1257
vt -0.0687 -0.0825
vt 0.8081 -0.0825
vt 0.8081 0.1053
vt -0.0687 0.1053
vt -0.0599 -0.0477
vt 0.8168 -0.0477
vt 0.8168 0.1401
vt -0.0599 0.1401
vt -0.0736 -0.0190
vt 0.1885 -0.0190
vt 0.1885 0.1657
vt -0.0736 0.1657
vt -0.0884 -0.0426
vt 0.1737 -0.0426
vt 0.1737 0.1421
vt -0.0884 0.1421
vn -0.1076 0.8999 -0.4226
vn 0.1076 0.8999 0.4226
vn -0.4226 0.8999 0.1076
vn 0.4226 0.8999 -0.1076
vn 0.4047 0.9136 -0.0386
vn -0.4047 0.9136 0.0386
vn -0.0386 0.9136 -0.4048
vn 0.0386 0.9136 0.4048
vn 0.4892 0.8688 -0.0769
vn -0.4892 0.8688 0.0765
vn -0.0770 0.8688 -0.4892
vn 0.0763 0.8688 0.4892
vn -0.3435 0.9314 -0.1206
vn 0.3436 0.9313 0.1207
vn -0.1206 0.9314 0.3436
vn 0.1207 0.9313 -0.3436
vn 0.4290 0.8977 -0.1004
vn -0.4289 0.8977 0.1004
vn -0.0707 0.8890 -0.4525
vn -0.4525 0.8889 0.0708
vn 0.0710 0.8890 0.4525
vn 0.4525 0.8890 -0.0707
vn 0.0710 0.8889 0.4525
vn 0.4525 0.8889 -0.0710
vn 0.0597 0.9386 0.3399
vn -0.0597 0.9386 -0.3399
vn -0.4930 0.8698 0.0194
vn 0.4930 0.8698 -0.0194
vn 0.0338 0.9025 -0.4294
vn -0.4294 0.9025 -0.0338
vn -0.0338 0.9025 0.4294
vn 0.4294 0.9025 0.0338
vn 0.0338 0.9025 -0.4295
vn -0.0465 0.9173 -0.3956
vn 0.0465 0.9173 0.3956
vn -0.3956 0.9173 0.0465
vn 0.3956 0.9173 -0.0465
vn 0.4850 0.8684 0.1032
vn -0.4850 0.8684 -0.1032
vn -0.1951 0.8667 0.4591
vn 0.1951 0.8667 -0.4591
vn -0.0054 0.9390 -0.3439
vn 0.0053 0.9390 0.3438
vn -0.3439 0.9390 0.0054
vn 0.3439 0.9390 -0.0054
vn -0.3003 0.9361 0.1834
vn 0.1835 0.9361 0.3002
vn 0.3002 0.9361 -0.1835
vn -0.1837 0.9360 -0.3004
vn -0.3002 0.9361 0.1835
vn 0.1834 0.9361 0.3002
vn 0.3003 0.9360 -0.1836
vn -0.1836 0.9360 -0.3002
vn -0.3971 0.9157 0.0608
vn 0.0608 0.9158 0.3971
vn 0.3971 0.9157 -0.0608
vn -0.0608 0.9157 -0.3971
vn -0.3971 0.9158 0.0609
vn 0.0608 0.9157 0.3972
vn 0.3971 0.9158 -0.0608
vn -0.0608 0.9157 -0.3972
vn 0.1536 0.9178 0.3662
vn -0.1536 0.9178 -0.3662
vn 0.3661 0.9179 -0.1535
vn -0.3661 0.9178 0.1536
vn -0.4226 0.9052 0.0454
vn 0.4226 0.9052 -0.0454
vn 0.0454 0.9052 0.4226
vn -0.0455 0.9052 -0.4226
vn 0.0474 0.9304 0.3634
vn -0.0474 0.9304 -0.3634
vn 0.3633 0.9305 -0.0474
vn -0.3633 0.9305 0.0474
vn 0.3920 0.9199 -0.0140
vn -0.3921 0.9198 0.0140
vn 0.0111 0.8828 0.4696
vn -0.0111 0.8828 -0.4696
vn 0.4697 0.8828 -0.0111
vn -0.4697 0.8828 0.0111
vn 0.0048 0.9131 -0.4077
vn -0.0048 0.9131 0.4076
vn -0.4077 0.9131 -0.0048
vn 0.4077 0.9131 0.0048
vn -0.4311 0.9021 -0.0193
vn 0.4310 0.9021 0.0193
vn -0.0193 0.9021 0.4311
vn 0.0193 0.9021 -0.4311
vn -0.1340 0.8869 -0.4421
vn -0.4421 0.8869 0.1340
vn 0.1340 0.8869 0.4421
vn 0.4421 0.8869 -0.1340
vn -0.1341 0.8869 -0.4421
vn 0.4422 0.8869 -0.1341
vn 0.0038 0.9138 0.4061
vn -0.0038 0.9138 -0.4061
vn 0.4060 0.9139 -0.0038
vn -0.4060 0.9139 0.0038
vn -0.4272 0.9018 0.0650
vn 0.4272 0.9018 -0.0650
vn 0.0650 0.9018 0.4272
vn -0.0650 0.9019 -0.4271
g CityEngineMaterial_310_CityEngineMaterial_310_CityEngineMaterial_310_mat
usemtl CityEngineMaterial_310_mat
s 1
f 1/1/1 2/2/1 3/3/1 4/4/1
f 5/5/2 6/6/2 4/7/2 3/8/2
f 7/9/3 8/10/3 9/11/3 10/12/3
f 11/13/4 12/14/4 10/15/4 9/16/4
f 13/17/5 14/18/5 15/19/5 16/20/5
f 17/21/6 18/22/6 16/23/6 15/24/6
f 19/25/7 20/26/7 21/27/7 22/28/7
f 23/29/8 24/30/8 22/31/8 21/32/8
f 25/33/9 26/34/9 27/35/9 28/36/9
f 29/37/10 30/38/10 28/39/10 27/40/10
f 31/41/11 32/42/11 33/43/11 34/44/11
f 35/45/12 36/46/12 34/47/12 33/48/12
f 37/49/13 38/50/13 39/51/13 40/52/13
f 41/53/14 42/54/14 40/55/14 39/56/14
f 43/57/15 44/58/15 45/59/15 46/60/15
f 47/61/16 48/62/16 46/63/16 45/64/16
f 49/65/17 50/66/17 51/67/17 52/68/17
f 53/69/18 54/70/18 52/71/18 51/72/18
f 55/73/19 56/74/19 57/75/19 58/76/19
f 56/77/20 59/78/20 57/79/20
f 59/80/21 60/81/21 58/82/21 57/83/21
f 60/84/22 55/85/22 58/86/22
f 61/87/19 62/88/19 63/89/19
f 62/90/20 64/91/20 65/92/20 63/93/20
f 64/94/23 66/95/23 65/96/23
f 66/97/24 61/98/24 63/99/24 65/100/24
f 67/101/25 68/102/25 69/103/25 70/104/25
f 71/105/26 72/106/26 70/107/26 69/108/26
f 73/109/27 74/110/27 75/111/27 76/112/27
f 77/113/28 78/114/28 76/115/28 75/116/28
f 79/117/29 80/118/29 81/119/29 82/120/29
f 80/121/30 83/122/30 81/123/30
f 83/124/31 84/125/31 82/126/31 81/127/31
f 84/128/32 79/129/32 82/130/32
f 85/131/33 86/132/33 87/133/33
f 86/134/30 88/135/30 89/136/30 87/137/30
f 88/138/31 90/139/31 89/140/31
f 90/141/32 85/142/32 87/143/32 89/144/32
f 91/145/34 92/146/34 93/147/34 94/148/34
f 95/149/35 96/150/35 94/151/35 93/152/35
f 97/153/36 98/154/36 99/155/36 100/156/36
f 101/157/37 102/158/37 100/159/37 99/160/37
f 103/161/38 104/162/38 105/163/38 106/164/38
f 107/165/39 108/166/39 106/167/39 105/168/39
f 109/169/40 110/170/40 111/171/40 112/172/40
f 113/173/41 114/174/41 112/175/41 111/176/41
f 115/177/42 116/178/42 117/179/42 118/180/42
f 119/181/43 120/182/43 118/183/43 117/184/43
f 121/185/44 122/186/44 123/187/44 124/188/44
f 125/189/45 126/190/45 124/191/45 123/192/45
f 127/193/46 128/194/46 129/195/46 130/196/46
f 128/197/47 131/198/47 129/199/47
f 131/200/48 132/201/48 130/202/48 129/203/48
f 132/204/49 127/205/49 130/206/49
f 133/207/50 134/208/50 135/209/50
f 134/210/51 136/211/51 137/212/51 135/213/51
f 136/214/52 138/215/52 137/216/52
f 138/217/53 133/218/53 135/219/53 137/220/53
f 139/221/54 140/222/54 141/223/54 142/224/54
f 140/225/55 143/226/55 141/227/55
f 143/228/56 144/229/56 142/230/56 141/231/56
f 144/232/57 139/233/57 142/234/57
f 145/235/58 146/236/58 147/237/58
f 146/238/59 148/239/59 149/240/59 147/241/59
f 148/242/60 150/243/60 149/244/60
f 150/245/61 145/246/61 147/247/61 149/248/61
f 151/249/62 152/250/62 153/251/62 154/252/62
f 155/253/63 156/254/63 154/255/63 153/256/63
f 157/257/64 158/258/64 159/259/64 160/260/64
f 161/261/65 162/262/65 160/263/65 159/264/65
f 163/265/66 164/266/66 165/267/66 166/268/66
f 167/269/67 168/270/67 166/271/67 165/272/67
f 169/273/68 170/274/68 171/275/68 172/276/68
f 173/277/69 174/278/69 172/279/69 171/280/69
f 175/281/70 176/282/70 177/283/70 178/284/70
f 179/285/71 180/286/71 178/287/71 177/288/71
f 181/289/72 182/290/72 183/291/72 184/292/72
f 185/293/73 186/294/73 184/295/73 183/296/73
f 187/297/74 188/298/74 189/299/74 190/300/74
f 191/301/75 192/302/75 190/303/75 189/304/75
f 193/305/76 194/306/76 195/307/76 196/308/76
f 197/309/77 198/310/77 196/311/77 195/312/77
f 199/313/78 200/314/78 201/315/78 202/316/78
f 203/317/79 204/318/79 202/319/79 201/320/79
f 205/321/80 206/322/80 207/323/80 208/324/80
f 209/325/81 210/326/81 208/327/81 207/328/81
f 211/329/82 212/330/82 213/331/82 214/332/82
f 215/333/83 216/334/83 214/335/83 213/336/83
f 217/337/84 218/338/84 219/339/84 220/340/84
f 221/341/85 222/342/85 220/343/85 219/344/85
f 223/345/86 224/346/86 225/347/86 226/348/86
f 227/349/87 228/350/87 226/351/87 225/352/87
f 229/353/88 230/354/88 231/355/88 232/356/88
f 230/357/89 233/358/89 231/359/89
f 233/360/90 234/361/90 232/362/90 231/363/90
f 234/364/91 229/365/91 232/366/91
f 235/367/92 236/368/92 237/369/92 238/370/92
f 236/371/89 239/372/89 237/373/89
f 239/374/90 240/375/90 238/376/90 237/377/90
f 240/378/93 235/379/93 238/380/93
f 241/381/94 242/382/94 243/383/94 244/384/94
f 245/385/95 246/386/95 244/387/95 243/388/95
f 247/389/96 248/390/96 249/391/96 250/392/96
f 251/393/97 252/394/97 250/395/97 249/396/97
f 253/397/98 254/398/98 255/399/98 256/400/98
f 257/401/99 258/402/99 256/403/99 255/404/99
f 259/405/100 260/406/100 261/407/100 262/408/100
f 263/409/101 264/410/101 262/411/101 261/412/101
