# Blender v2.78 (sub 0) OBJ File: ''
# www.blender.org
mtllib CityEngineMaterial_107.mtl
o CityEngineMaterial_107
v 788.943298 34.673630 417.055603
v 796.482117 34.673630 416.179688
v 796.482117 36.176731 416.179688
v 788.943298 36.176731 417.055603
v 797.249878 34.673630 419.458710
v 797.249878 36.176731 419.458710
v 801.272278 34.673630 418.992615
v 801.272278 36.176731 418.992615
v 799.032715 34.673634 409.429291
v 799.032715 36.176735 409.429291
v 785.077515 34.673630 411.050598
v 785.077515 36.176731 411.050598
v 786.203796 34.673630 420.738800
v 786.203796 36.176731 420.738800
v 789.329407 34.673630 420.376587
v 789.329407 36.176731 420.376587
v -417.291107 2.363441 -253.251297
v -403.847687 2.363442 -257.331909
v -403.847687 4.587542 -257.331909
v -417.291107 4.587542 -253.251297
v -409.562286 2.363445 -276.606689
v -409.562286 4.587545 -276.606689
v -423.134888 2.363444 -272.486786
v -423.134888 4.587544 -272.486786
v -15.006500 38.387165 -1010.676819
v -13.837900 38.387165 -1003.228882
v -13.837900 39.952465 -1003.228882
v -15.006500 39.952465 -1010.676819
v -6.254400 38.387165 -1004.425171
v -6.254400 39.952465 -1004.425171
v -6.688600 38.387165 -1007.192200
v -6.688600 39.952465 -1007.192200
v 0.019000 38.387165 -1008.242615
v 0.019000 39.952465 -1008.242615
v 0.451200 38.387165 -1005.482788
v 0.451200 39.952465 -1005.482788
v 5.295900 38.387165 -1006.247070
v 5.295900 39.952465 -1006.247070
v 4.132900 38.387165 -1013.673889
v 4.132900 39.952465 -1013.673889
v 576.182312 25.883043 348.752899
v 561.246277 25.883043 352.605408
v 561.246277 28.031544 352.605408
v 576.182312 28.031544 348.752899
v 564.269775 25.883041 364.277405
v 564.269775 28.031542 364.277405
v 579.102417 25.883041 360.436005
v 579.102417 28.031542 360.436005
v 576.602112 25.883043 349.039703
v 576.602112 28.031544 349.039703
v 463.572693 66.614349 -299.351898
v 467.118713 66.614349 -283.994812
v 467.118713 68.804443 -283.994812
v 463.572693 68.804443 -299.351898
v 489.038391 66.614349 -289.135010
v 489.038391 68.804443 -289.135010
v 486.842590 66.614349 -296.631012
v 486.842590 68.804443 -296.631012
v 484.624786 66.614349 -304.202209
v 484.624786 68.804443 -304.202209
v 463.572693 70.348946 -299.351898
v 465.618103 70.348946 -290.493713
v 465.618103 72.539047 -290.493713
v 463.572693 72.539047 -299.351898
v 487.181396 70.348946 -295.474487
v 487.181396 72.539047 -295.474487
v 486.842590 70.348946 -296.631012
v 486.842590 72.539047 -296.631012
v 484.624786 70.348946 -304.202209
v 484.624786 72.539047 -304.202209
v -58.720798 40.008724 -769.681824
v -66.813400 40.008724 -768.411987
v -66.813400 41.761227 -768.411987
v -58.720798 41.761227 -769.681824
v -66.093002 40.008724 -763.829224
v -66.093002 41.761227 -763.829224
v -65.457703 40.008724 -763.928772
v -65.457703 41.761227 -763.928772
v -65.076401 40.008724 -761.494080
v -65.076401 41.761227 -761.494080
v -57.620300 40.008724 -762.654419
v -57.620300 41.761227 -762.654419
v 221.047699 40.661362 -982.988770
v 227.141403 40.661362 -983.935791
v 227.141403 41.883862 -983.935791
v 221.047699 41.883862 -982.988770
v 226.827896 40.661362 -992.412476
v 226.827896 41.883862 -992.412476
v 210.789200 40.661362 -989.934570
v 210.789200 41.883862 -989.934570
v 211.522202 40.661362 -985.175903
v 211.522202 41.883862 -985.175903
v 220.913101 40.661362 -986.626770
v 220.913101 41.883862 -986.626770
v 323.618591 39.594410 -79.360596
v 303.616913 39.594410 -77.344589
v 303.616913 41.812511 -77.344589
v 323.618591 41.812511 -79.360596
v 304.517914 39.594410 -64.063293
v 304.517914 41.812511 -64.063293
v 325.320587 39.594410 -63.528591
v 325.320587 41.812511 -63.528591
v 148.513794 47.013618 -733.060730
v 152.413895 47.013618 -718.592773
v 152.413895 48.881920 -718.592773
v 148.513794 48.881920 -733.060730
v 164.695908 47.013618 -721.908997
v 164.695908 48.881920 -721.908997
v 163.659393 47.013618 -725.754028
v 163.659393 48.881920 -725.754028
v 168.401306 47.013618 -726.356628
v 168.401306 48.881920 -726.356628
v 166.589401 47.013618 -733.093628
v 166.589401 48.881920 -733.093628
v 162.276306 47.013618 -732.545410
v 162.276306 48.881920 -732.545410
v 157.093903 47.013618 -732.307617
v 157.093903 48.881920 -732.307617
v 151.898895 47.013618 -732.632202
v 151.898895 48.881920 -732.632202
v -1098.805542 13.188615 521.859314
v -1097.706543 13.188616 513.474121
v -1097.706543 15.131316 513.474121
v -1098.805542 15.131315 521.859314
v -1108.274658 13.188617 511.072388
v -1108.274658 15.131317 511.072388
v -1109.127075 13.188616 517.575684
v -1109.127075 15.131316 517.575684
v -1106.246094 13.188615 518.230530
v -1106.246094 15.131315 518.230530
v -1106.587891 13.188615 520.837830
v -1106.587891 15.131315 520.837830
v -82.147903 40.491348 -912.104919
v -93.257896 40.491348 -910.471802
v -93.257896 41.738850 -910.471802
v -82.147903 41.738850 -912.104919
v -94.088303 40.491348 -916.116516
v -94.088303 41.738850 -916.116516
v -100.930496 40.491348 -915.110474
v -100.930496 41.738850 -915.110474
v -99.417900 40.491348 -904.830017
v -99.417900 41.738850 -904.830017
v -81.422897 40.491348 -907.475220
v -81.422897 41.738850 -907.475220
v 200.927994 49.728012 -686.842773
v 202.802200 49.728012 -679.886719
v 202.802200 51.423710 -679.886719
v 200.927994 51.423710 -686.842773
v 202.011002 49.728012 -679.671082
v 202.011002 51.423710 -679.671082
v 204.937500 49.728012 -668.823303
v 204.937500 51.423710 -668.823303
v 207.709396 49.728012 -669.578308
v 207.709396 51.423710 -669.578308
v 202.971802 49.728012 -687.162903
v 202.971802 51.423710 -687.162903
v -366.011993 3.784014 531.358276
v -368.205109 3.784016 517.088318
v -368.205109 6.014116 517.088318
v -366.011993 6.014113 531.358276
v -382.381500 3.784016 516.438721
v -382.381500 6.014116 516.438721
v -380.185699 3.784014 530.725281
v -380.185699 6.014114 530.725281
v -461.201294 1.313907 -44.031700
v -461.859497 1.313903 -18.219601
v -461.859497 3.478503 -18.219601
v -461.201294 3.478507 -44.031700
v -448.429108 1.313903 -19.796200
v -448.429108 3.478503 -19.796200
v -451.186005 1.313907 -44.477200
v -451.186005 3.478507 -44.477200
v -338.024811 3.197351 302.915894
v -335.458893 3.197351 302.671600
v -335.458893 4.862551 302.671600
v -338.024811 4.862551 302.915894
v -335.797394 3.197351 299.111511
v -335.797394 4.862551 299.111511
v -350.062897 3.197351 300.469086
v -350.062897 4.862551 300.469086
v -348.611603 3.197349 315.726288
v -348.611603 4.862548 315.726288
v -334.347107 3.197349 314.367096
v -334.347107 4.862549 314.367096
v -334.896790 3.197350 308.585114
v -334.896790 4.862550 308.585114
v -337.462311 3.197350 308.829498
v -337.462311 4.862549 308.829498
v -471.298889 3.628553 286.568909
v -471.488190 3.628551 302.875000
v -471.488190 5.389251 302.875000
v -471.298889 5.389253 286.568909
v -462.126495 3.628551 302.986206
v -462.126495 5.389250 302.986206
v -461.958496 3.628553 288.055511
v -461.958496 5.389253 288.055511
v -466.871185 3.628553 287.997101
v -466.871185 5.389253 287.997101
v -466.855286 3.628553 286.621185
v -466.855286 5.389253 286.621185
v 49.650101 32.991367 -430.227203
v 44.924801 32.991367 -429.485199
v 44.924801 34.657269 -429.485199
v 49.650101 34.657269 -430.227203
v 44.535198 32.991367 -431.973206
v 44.535198 34.657269 -431.973206
v 38.802700 32.991367 -431.078186
v 38.802700 34.657269 -431.078186
v 40.829800 32.991367 -418.134399
v 40.829800 34.657269 -418.134399
v 53.995602 32.991367 -420.201904
v 53.995602 34.657269 -420.201904
v 51.963001 32.991367 -433.132904
v 51.963001 34.657269 -433.132904
v 49.259701 32.991367 -432.710907
v 49.259701 34.657269 -432.710907
v 105.087700 44.416931 -788.101013
v 103.175598 44.416931 -787.801575
v 103.175598 46.502430 -787.801575
v 105.087700 46.502430 -788.101013
v 102.987900 44.416931 -789.003784
v 102.987900 46.502430 -789.003784
v 99.489502 44.416931 -788.456421
v 99.489502 46.502430 -788.456421
v 100.989304 44.416927 -778.853577
v 100.989304 46.502426 -778.853577
v 110.210197 44.416927 -780.297485
v 110.210197 46.502426 -780.297485
v 108.711197 44.416931 -789.899292
v 108.711197 46.502430 -789.899292
v 104.900101 44.416931 -789.302917
v 104.900101 46.502430 -789.302917
v -159.248093 1.313725 463.049011
v -145.780106 1.313725 461.768188
v -145.780106 3.207025 461.768188
v -159.248093 3.207025 463.049011
v -147.480896 1.313728 444.049194
v -147.480896 3.207028 444.049194
v -160.959503 1.313727 445.331085
v -160.959503 3.207027 445.331085
vt 0.1667 0.0000
vt 1.3333 0.0000
vt 1.3333 1.0000
vt 0.1667 1.0000
vt 0.5000 0.0000
vt 1.0000 0.0000
vt 1.0000 1.0000
vt 0.5000 1.0000
vt 0.6667 0.0000
vt 1.3333 0.0000
vt 1.3333 1.0000
vt 0.6667 1.0000
vt 0.5000 0.0000
vt 2.0000 0.0000
vt 2.0000 1.0000
vt 0.5000 1.0000
vt 0.8333 -0.0000
vt 2.8333 0.0000
vt 2.8333 1.0000
vt 0.8333 1.0000
vt -0.0000 0.0000
vt 1.3333 0.0000
vt 1.3333 1.0000
vt -0.0000 1.0000
vt 0.1667 0.0000
vt 0.6667 0.0000
vt 0.6667 1.0000
vt 0.1667 1.0000
vt -0.0000 0.0000
vt 0.5000 0.0000
vt 0.5000 1.0000
vt -0.0000 1.0000
vt 0.6667 0.0000
vt 3.1667 0.0000
vt 3.1667 1.0000
vt 0.6667 1.0000
vt 0.3333 0.0000
vt 3.8333 0.0000
vt 3.8333 1.0000
vt 0.3333 1.0000
vt -0.0000 0.0000
vt 2.5000 0.0000
vt 2.5000 1.0000
vt -0.0000 1.0000
vt 0.1667 0.0000
vt 3.6667 0.0000
vt 3.6667 1.0000
vt 0.1667 1.0000
vt 0.1667 0.0000
vt 1.1667 -0.0000
vt 1.1667 1.0000
vt 0.1667 1.0000
vt 0.3333 0.0000
vt 1.3333 0.0000
vt 1.3333 1.0000
vt 0.3333 1.0000
vt 0.3333 0.0000
vt 0.6667 0.0000
vt 0.6667 1.0000
vt 0.3333 1.0000
vt 0.5000 0.0000
vt 1.3333 0.0000
vt 1.3333 1.0000
vt 0.5000 1.0000
vt 0.1667 0.0000
vt 0.5000 0.0000
vt 0.5000 1.0000
vt 0.1667 1.0000
vt 1.1667 -0.0000
vt 1.1667 1.0000
vt 0.5000 0.0000
vt 1.5000 0.0000
vt 1.5000 1.0000
vt 0.5000 1.0000
vt -0.0000 0.0000
vt 2.5000 0.0000
vt 2.5000 1.0000
vt -0.0000 1.0000
vt 0.5000 0.0000
vt 2.5000 0.0000
vt 2.5000 1.0000
vt 0.5000 1.0000
vt 0.8333 -0.0000
vt 2.5000 0.0000
vt 2.5000 1.0000
vt 0.8333 1.0000
vt 0.5000 0.0000
vt 2.5000 0.0000
vt 2.5000 1.0000
vt 0.5000 1.0000
vt 0.5000 0.0000
vt 2.0000 0.0000
vt 2.0000 1.0000
vt 0.5000 1.0000
vt 0.1667 0.0000
vt 0.2000 -0.0000
vt 0.2000 1.0000
vt 0.1667 1.0000
vt 0.5000 0.0000
vt 2.3333 0.0000
vt 2.3333 1.0000
vt 0.5000 1.0000
vt 0.1667 0.0000
vt 2.8333 0.0000
vt 2.8333 1.0000
vt 0.1667 1.0000
vt 0.6667 0.0000
vt 1.6667 -0.0000
vt 1.6667 1.0000
vt 0.6667 1.0000
vt 0.1667 0.0000
vt 1.1667 -0.0000
vt 1.1667 1.0000
vt 0.1667 1.0000
vt 0.3333 0.0000
vt 3.0000 0.0000
vt 3.0000 1.0000
vt 0.3333 1.0000
vt 0.1667 0.0000
vt 1.3333 0.0000
vt 1.3333 1.0000
vt 0.1667 1.0000
vt -0.0000 0.0000
vt 2.6667 0.0000
vt 2.6667 1.0000
vt -0.0000 1.0000
vt 0.1667 0.0000
vt 0.3333 0.0000
vt 0.3333 1.0000
vt 0.1667 1.0000
vt 0.1667 0.0000
vt 1.1667 -0.0000
vt 1.1667 1.0000
vt 0.1667 1.0000
vt 0.5000 0.0000
vt 3.1667 0.0000
vt 3.1667 1.0000
vt 0.5000 1.0000
vt 0.1667 0.0000
vt 1.5000 0.0000
vt 1.5000 1.0000
vt 0.1667 1.0000
vt 0.3333 0.0000
vt 1.0000 0.0000
vt 1.0000 1.0000
vt 0.3333 1.0000
vt 0.8333 -0.0000
vt 1.0000 0.0000
vt 1.0000 1.0000
vt 0.8333 1.0000
vt 0.6667 0.0000
vt 1.0000 0.0000
vt 1.0000 1.0000
vt 0.6667 1.0000
vt 0.8333 -0.0000
vt 2.0000 0.0000
vt 2.0000 1.0000
vt 0.8333 1.0000
vt -0.0000 0.0000
vt 1.1667 -0.0000
vt 1.1667 1.0000
vt -0.0000 1.0000
vt -0.0000 0.0000
vt 1.0000 0.0000
vt 1.0000 1.0000
vt -0.0000 1.0000
vt 0.1667 0.0000
vt 1.5000 0.0000
vt 1.5000 1.0000
vt 0.1667 1.0000
vt 0.5000 0.0000
vt 3.0000 0.0000
vt 3.0000 1.0000
vt 0.5000 1.0000
vt 0.3333 0.0000
vt 1.0000 0.0000
vt 1.0000 1.0000
vt 0.3333 1.0000
vt 0.1667 0.0000
vt 1.6667 -0.0000
vt 1.6667 1.0000
vt 0.1667 1.0000
vt 0.1667 0.0000
vt 0.6667 0.0000
vt 0.6667 1.0000
vt 0.1667 1.0000
vt 0.5000 0.0000
vt 3.1667 0.0000
vt 3.1667 1.0000
vt 0.5000 1.0000
vt 0.5000 0.0000
vt 2.1667 0.0000
vt 2.1667 1.0000
vt 0.5000 1.0000
vt 0.6667 0.0000
vt 3.3333 0.0000
vt 3.3333 1.0000
vt 0.6667 1.0000
vt 0.6667 0.0000
vt 2.8333 0.0000
vt 2.8333 1.0000
vt 0.6667 1.0000
vt 0.3333 0.0000
vt 3.0000 0.0000
vt 3.0000 1.0000
vt 0.3333 1.0000
vt 0.6667 0.0000
vt 3.0000 0.0000
vt 3.0000 1.0000
vt 0.6667 1.0000
vt 0.5000 0.0000
vt 1.1667 -0.0000
vt 1.1667 1.0000
vt 0.5000 1.0000
vt -0.0000 0.0000
vt 0.8333 -0.0000
vt 0.8333 1.0000
vt -0.0000 1.0000
vt 0.1667 0.0000
vt 1.3333 0.0000
vt 1.3333 1.0000
vt 0.1667 1.0000
vt 0.1667 0.0000
vt 1.0000 0.0000
vt 1.0000 1.0000
vt 0.1667 1.0000
vt 0.6667 0.0000
vt 1.6667 -0.0000
vt 1.6667 1.0000
vt 0.6667 1.0000
vt 0.5000 0.0000
vt 1.5000 0.0000
vt 1.5000 1.0000
vt 0.5000 1.0000
vt 0.3333 0.0000
vt 1.0000 0.0000
vt 1.0000 1.0000
vt 0.3333 1.0000
vt 0.5000 0.0000
vt 1.8333 0.0000
vt 1.8333 1.0000
vt 0.5000 1.0000
vt 0.1667 0.0000
vt 1.8333 0.0000
vt 1.8333 1.0000
vt 0.1667 1.0000
vt 0.6667 0.0000
vt 1.6667 -0.0000
vt 1.6667 1.0000
vt 0.6667 1.0000
vt -0.0000 0.0000
vt 0.5000 0.0000
vt 0.5000 1.0000
vt -0.0000 1.0000
vt 0.8333 -0.0000
vt 1.3333 0.0000
vt 1.3333 1.0000
vt 0.8333 1.0000
vt 0.6667 0.0000
vt 2.0000 0.0000
vt 2.0000 1.0000
vt 0.6667 1.0000
vt 0.6667 0.0000
vt 2.0000 0.0000
vt 2.0000 1.0000
vt 0.6667 1.0000
vt 0.5000 0.0000
vt 1.1667 -0.0000
vt 1.1667 1.0000
vt 0.5000 1.0000
vt 0.6667 0.0000
vt 1.5000 0.0000
vt 1.5000 1.0000
vt 0.6667 1.0000
vt 0.3333 0.0000
vt 1.6667 -0.0000
vt 1.6667 1.0000
vt 0.3333 1.0000
vt 0.5000 0.0000
vt 2.6667 0.0000
vt 2.6667 1.0000
vt 0.5000 1.0000
vt 0.5000 0.0000
vt 1.0000 0.0000
vt 1.0000 1.0000
vt 0.5000 1.0000
vt 0.6667 0.0000
vt 1.6667 -0.0000
vt 1.6667 1.0000
vt 0.6667 1.0000
vt 0.5000 0.0000
vt 0.6667 0.0000
vt 0.6667 1.0000
vt 0.5000 1.0000
vt 0.8333 -0.0000
vt 2.3333 0.0000
vt 2.3333 1.0000
vt 0.8333 1.0000
vt 0.1667 0.0000
vt 0.5000 0.0000
vt 0.5000 1.0000
vt 0.1667 1.0000
vt 2.8333 0.0000
vt 2.8333 1.0000
vt 0.5000 0.0000
vt 0.8333 -0.0000
vt 0.8333 1.0000
vt 0.5000 1.0000
vt 0.5000 0.0000
vt 2.3333 0.0000
vt 2.3333 1.0000
vt 0.5000 1.0000
vt 0.1667 0.0000
vt 2.0000 0.0000
vt 2.0000 1.0000
vt 0.1667 1.0000
vt 0.3333 0.0000
vt 2.1667 0.0000
vt 2.1667 1.0000
vt 0.3333 1.0000
vt 0.6667 0.0000
vt 2.5000 0.0000
vt 2.5000 1.0000
vt 0.6667 1.0000
vt 0.3333 0.0000
vt 5.1667 0.0000
vt 5.1667 1.0000
vt 0.3333 1.0000
vt 0.3333 0.0000
vt 2.8333 0.0000
vt 2.8333 1.0000
vt 0.3333 1.0000
vt 0.8333 -0.0000
vt 5.5000 0.0000
vt 5.5000 1.0000
vt 0.8333 1.0000
vt 0.5000 0.0000
vt 2.3333 0.0000
vt 2.3333 1.0000
vt 0.5000 1.0000
vt 0.6667 0.0000
vt 1.0000 0.0000
vt 1.0000 1.0000
vt 0.6667 1.0000
vt 0.3333 0.0000
vt 0.8333 -0.0000
vt 0.8333 1.0000
vt 0.3333 1.0000
vt 0.6667 0.0000
vt 2.5000 0.0000
vt 2.5000 1.0000
vt 0.6667 1.0000
vt 0.5000 0.0000
vt 2.3333 0.0000
vt 2.3333 1.0000
vt 0.5000 1.0000
vt 0.8333 -0.0000
vt 2.6667 0.0000
vt 2.6667 1.0000
vt 0.8333 1.0000
vt 0.5000 0.0000
vt 1.1667 -0.0000
vt 1.1667 1.0000
vt 0.5000 1.0000
vt -0.0000 0.0000
vt 0.3333 0.0000
vt 0.3333 1.0000
vt -0.0000 1.0000
vt 0.1667 0.0000
vt 0.8333 -0.0000
vt 0.8333 1.0000
vt 0.1667 1.0000
vt 0.5000 0.0000
vt 2.3333 0.0000
vt 2.3333 1.0000
vt 0.5000 1.0000
vt -0.0000 0.0000
vt 1.1667 -0.0000
vt 1.1667 1.0000
vt -0.0000 1.0000
vt 0.3333 0.0000
vt 2.0000 0.0000
vt 2.0000 1.0000
vt 0.3333 1.0000
vt 0.8333 -0.0000
vt 1.3333 0.0000
vt 1.3333 1.0000
vt 0.8333 1.0000
vt -0.0000 0.0000
vt 0.1667 0.0000
vt 0.1667 1.0000
vt -0.0000 1.0000
vt 0.6667 0.0000
vt 0.6667 1.0000
vt 0.1667 0.0000
vt 0.8333 -0.0000
vt 0.8333 1.0000
vt 0.1667 1.0000
vt 0.3333 0.0000
vt 0.6667 0.0000
vt 0.6667 1.0000
vt 0.3333 1.0000
vt 0.1667 0.0000
vt 0.8333 -0.0000
vt 0.8333 1.0000
vt 0.1667 1.0000
vt 0.1667 0.0000
vt 1.8333 0.0000
vt 1.8333 1.0000
vt 0.1667 1.0000
vt 0.1667 0.0000
vt 1.8333 0.0000
vt 1.8333 1.0000
vt 0.1667 1.0000
vt 0.3333 0.0000
vt 2.0000 0.0000
vt 2.0000 1.0000
vt 0.3333 1.0000
vt 0.5000 0.0000
vt 0.8333 -0.0000
vt 0.8333 1.0000
vt 0.5000 1.0000
vt -0.0000 0.0000
vt 0.3333 0.0000
vt 0.3333 1.0000
vt -0.0000 1.0000
vt 0.1667 0.0000
vt 0.3333 0.0000
vt 0.3333 1.0000
vt 0.1667 1.0000
vt 0.6667 0.0000
vt 0.8333 -0.0000
vt 0.8333 1.0000
vt 0.6667 1.0000
vt 0.3333 0.0000
vt 0.8333 -0.0000
vt 0.8333 1.0000
vt 0.3333 1.0000
vt 0.3333 0.0000
vt 1.5000 0.0000
vt 1.5000 1.0000
vt 0.3333 1.0000
vt 0.3333 0.0000
vt 1.5000 0.0000
vt 1.5000 1.0000
vt 0.3333 1.0000
vt 0.5000 0.0000
vt 1.6667 -0.0000
vt 1.6667 1.0000
vt 0.5000 1.0000
vt 0.6667 0.0000
vt 1.1667 -0.0000
vt 1.1667 1.0000
vt 0.6667 1.0000
vt 0.1667 0.0000
vt 0.3333 0.0000
vt 0.3333 1.0000
vt 0.1667 1.0000
vt 0.6667 0.0000
vt 2.3333 0.0000
vt 2.3333 1.0000
vt 0.6667 1.0000
vt 0.8333 -0.0000
vt 3.0000 0.0000
vt 3.0000 1.0000
vt 0.8333 1.0000
vt 0.1667 0.0000
vt 1.8333 0.0000
vt 1.8333 1.0000
vt 0.1667 1.0000
vt 0.5000 0.0000
vt 2.6667 0.0000
vt 2.6667 1.0000
vt 0.5000 1.0000
vn 0.1154 0.0000 0.9933
vn -0.9737 0.0000 0.2280
vn 0.1151 0.0000 0.9934
vn 0.9737 0.0000 -0.2280
vn -0.1154 0.0000 -0.9933
vn -0.9933 0.0000 0.1155
vn 0.9933 0.0000 -0.1155
vn 0.2905 0.0000 0.9569
vn 0.9588 0.0000 -0.2843
vn -0.2905 0.0000 -0.9569
vn -0.9568 0.0000 0.2907
vn -0.9879 0.0000 0.1550
vn 0.1558 0.0000 0.9878
vn 0.9879 0.0000 -0.1550
vn 0.1547 0.0000 0.9880
vn -0.9880 0.0000 0.1547
vn 0.9880 0.0000 -0.1547
vn -0.1547 0.0000 -0.9880
vn -0.2498 0.0000 -0.9683
vn -0.9680 0.0000 0.2508
vn 0.2507 0.0000 0.9681
vn 0.9768 0.0000 -0.2143
vn 0.5641 0.0000 -0.8257
vn -0.9744 0.0000 0.2250
vn 0.2283 0.0000 0.9736
vn 0.9597 0.0000 -0.2811
vn -0.2245 0.0000 -0.9745
vn 0.2251 0.0000 0.9743
vn -0.1550 0.0000 -0.9879
vn -0.9879 0.0000 0.1553
vn 0.1548 0.0000 0.9879
vn 0.1538 0.0000 0.9881
vn 0.1536 0.0000 0.9881
vn 0.9993 0.0000 -0.0370
vn -0.1527 0.0000 -0.9883
vn -0.9883 0.0000 0.1522
vn 0.1527 0.0000 0.9883
vn -0.9993 0.0000 0.0370
vn -0.1003 0.0000 -0.9950
vn -0.9977 0.0000 0.0677
vn -0.0257 0.0000 0.9997
vn 0.9943 0.0000 -0.1069
vn -0.9655 0.0000 0.2603
vn 0.2607 0.0000 0.9654
vn 0.9655 0.0000 -0.2603
vn 0.1261 0.0000 0.9920
vn 0.9657 0.0000 -0.2597
vn -0.1261 0.0000 -0.9920
vn -0.0458 0.0000 -0.9989
vn 0.0623 0.0000 -0.9981
vn 0.1256 0.0000 -0.9921
vn 0.9915 0.0000 0.1300
vn 0.2216 0.0000 -0.9751
vn -0.9915 0.0000 -0.1300
vn -0.2216 0.0000 0.9751
vn -0.1301 0.0000 0.9915
vn -0.1454 0.0000 -0.9894
vn 0.9894 0.0000 -0.1455
vn -0.1455 0.0000 -0.9894
vn -0.9893 0.0000 0.1456
vn 0.1454 0.0000 0.9894
vn -0.9656 0.0000 0.2602
vn -0.2630 0.0000 -0.9648
vn -0.9655 0.0000 0.2605
vn 0.2628 0.0000 0.9648
vn 0.9656 0.0000 -0.2601
vn 0.9884 0.0000 -0.1519
vn 0.0458 0.0000 -0.9990
vn -0.9884 0.0000 0.1519
vn -0.0446 0.0000 0.9990
vn -0.9997 0.0000 -0.0255
vn 0.1166 0.0000 0.9932
vn 0.9938 0.0000 -0.1110
vn -0.0444 0.0000 -0.9990
vn 0.0948 0.0000 0.9955
vn 0.9955 0.0000 -0.0947
vn -0.0947 0.0000 -0.9955
vn -0.9955 0.0000 0.0947
vn 0.0949 0.0000 0.9955
vn 0.9955 0.0000 -0.0946
vn -0.0948 0.0000 -0.9955
vn -0.9999 0.0000 -0.0116
vn -0.0119 0.0000 0.9999
vn 0.9999 0.0000 0.0113
vn 0.0119 0.0000 -0.9999
vn 0.9999 0.0000 0.0116
vn 0.0118 0.0000 -0.9999
vn -0.1551 0.0000 -0.9879
vn -0.1543 0.0000 -0.9880
vn 0.1551 0.0000 0.9879
vn 0.9879 0.0000 -0.1553
vn -0.1542 0.0000 -0.9880
vn 0.9880 0.0000 -0.1543
vn -0.1546 0.0000 -0.9880
vn -0.9880 0.0000 0.1543
vn 0.9880 0.0000 -0.1542
vn -0.9880 0.0000 0.1542
vn 0.0947 0.0000 0.9955
vn 0.9954 0.0000 -0.0955
vn -0.9954 0.0000 0.0961
g CityEngineMaterial_107_CityEngineMaterial_107_CityEngineMaterial_107_mat
usemtl CityEngineMaterial_107_mat
s 1
f 1/1/1 2/2/1 3/3/1 4/4/1
f 2/5/2 5/6/2 6/7/2 3/8/2
f 5/9/3 7/10/3 8/11/3 6/12/3
f 7/13/4 9/14/4 10/15/4 8/16/4
f 9/17/5 11/18/5 12/19/5 10/20/5
f 11/21/6 13/22/6 14/23/6 12/24/6
f 13/25/3 15/26/3 16/27/3 14/28/3
f 15/29/7 1/30/7 4/31/7 16/32/7
f 17/33/8 18/34/8 19/35/8 20/36/8
f 18/37/9 21/38/9 22/39/9 19/40/9
f 21/41/10 23/42/10 24/43/10 22/44/10
f 23/45/11 17/46/11 20/47/11 24/48/11
f 25/49/12 26/50/12 27/51/12 28/52/12
f 26/53/13 29/54/13 30/55/13 27/56/13
f 29/57/14 31/58/14 32/59/14 30/60/14
f 31/61/15 33/62/15 34/63/15 32/64/15
f 33/65/16 35/66/16 36/67/16 34/68/16
f 35/66/13 37/69/13 38/70/13 36/67/13
f 37/71/17 39/72/17 40/73/17 38/74/17
f 39/75/18 25/76/18 28/77/18 40/78/18
f 41/79/19 42/80/19 43/81/19 44/82/19
f 42/83/20 45/84/20 46/85/20 43/86/20
f 45/87/21 47/88/21 48/89/21 46/90/21
f 47/91/22 49/92/22 50/93/22 48/94/22
f 49/95/23 41/96/23 44/97/23 50/98/23
f 51/99/24 52/100/24 53/101/24 54/102/24
f 52/103/25 55/104/25 56/105/25 53/106/25
f 55/107/26 57/108/26 58/109/26 56/110/26
f 57/111/26 59/112/26 60/113/26 58/114/26
f 59/115/27 51/116/27 54/117/27 60/118/27
f 61/119/24 62/120/24 63/121/24 64/122/24
f 62/123/28 65/124/28 66/125/28 63/126/28
f 65/127/26 67/128/26 68/129/26 66/130/26
f 67/131/26 69/132/26 70/133/26 68/134/26
f 69/135/27 61/136/27 64/137/27 70/138/27
f 71/139/29 72/140/29 73/141/29 74/142/29
f 72/143/30 75/144/30 76/145/30 73/146/30
f 75/147/31 77/148/31 78/149/31 76/150/31
f 77/151/16 79/152/16 80/153/16 78/154/16
f 79/155/32 81/156/32 82/157/32 80/158/32
f 81/159/17 71/160/17 74/161/17 82/162/17
f 83/163/33 84/164/33 85/165/33 86/166/33
f 84/167/34 87/168/34 88/169/34 85/170/34
f 87/171/35 89/172/35 90/173/35 88/174/35
f 89/175/36 91/176/36 92/177/36 90/178/36
f 91/179/37 93/180/37 94/181/37 92/182/37
f 93/183/38 83/184/38 86/185/38 94/186/38
f 95/187/39 96/188/39 97/189/39 98/190/39
f 96/191/40 99/192/40 100/193/40 97/194/40
f 99/195/41 101/196/41 102/197/41 100/198/41
f 101/199/42 95/200/42 98/201/42 102/202/42
f 103/203/43 104/204/43 105/205/43 106/206/43
f 104/207/44 107/208/44 108/209/44 105/210/44
f 107/211/45 109/212/45 110/213/45 108/214/45
f 109/215/46 111/216/46 112/217/46 110/218/46
f 111/219/47 113/220/47 114/221/47 112/222/47
f 113/223/48 115/224/48 116/225/48 114/226/48
f 115/227/49 117/228/49 118/229/49 116/230/49
f 117/231/50 119/232/50 120/233/50 118/234/50
f 119/235/51 103/236/51 106/237/51 120/238/51
f 121/239/52 122/240/52 123/241/52 124/242/52
f 122/243/53 125/244/53 126/245/53 123/246/53
f 125/247/54 127/248/54 128/249/54 126/250/54
f 127/251/55 129/252/55 130/253/55 128/254/55
f 129/255/54 131/256/54 132/257/54 130/258/54
f 131/259/56 121/260/56 124/261/56 132/262/56
f 133/263/57 134/264/57 135/265/57 136/266/57
f 134/267/58 137/268/58 138/269/58 135/270/58
f 137/271/59 139/272/59 140/273/59 138/274/59
f 139/275/60 141/276/60 142/277/60 140/278/60
f 141/279/61 143/280/61 144/281/61 142/282/61
f 143/283/17 133/284/17 136/285/17 144/286/17
f 145/287/62 146/288/62 147/289/62 148/290/62
f 146/291/63 149/292/63 150/293/63 147/294/63
f 149/295/64 151/296/64 152/297/64 150/298/64
f 151/299/65 153/300/65 154/301/65 152/302/65
f 153/300/66 155/303/66 156/304/66 154/301/66
f 155/305/18 145/306/18 148/307/18 156/308/18
f 157/309/67 158/310/67 159/311/67 160/312/67
f 158/313/68 161/314/68 162/315/68 159/316/68
f 161/317/69 163/318/69 164/319/69 162/320/69
f 163/321/70 157/322/70 160/323/70 164/324/70
f 165/325/71 166/326/71 167/327/71 168/328/71
f 166/329/72 169/330/72 170/331/72 167/332/72
f 169/333/73 171/334/73 172/335/73 170/336/73
f 171/337/74 165/338/74 168/339/74 172/340/74
f 173/341/75 174/342/75 175/343/75 176/344/75
f 174/345/76 177/346/76 178/347/76 175/348/76
f 177/349/77 179/350/77 180/351/77 178/352/77
f 179/353/78 181/354/78 182/355/78 180/356/78
f 181/357/79 183/358/79 184/359/79 182/360/79
f 183/361/80 185/362/80 186/363/80 184/364/80
f 185/365/81 187/366/81 188/367/81 186/368/81
f 187/369/76 173/370/76 176/371/76 188/372/76
f 189/373/82 190/374/82 191/375/82 192/376/82
f 190/377/83 193/378/83 194/379/83 191/380/83
f 193/381/84 195/382/84 196/383/84 194/384/84
f 195/385/85 197/386/85 198/387/85 196/388/85
f 197/389/86 199/390/86 200/391/86 198/392/86
f 199/390/87 189/393/87 192/394/87 200/391/87
f 201/395/88 202/396/88 203/397/88 204/398/88
f 202/399/17 205/400/17 206/401/17 203/402/17
f 205/403/89 207/404/89 208/405/89 206/406/89
f 207/407/16 209/408/16 210/409/16 208/410/16
f 209/411/90 211/412/90 212/413/90 210/414/90
f 211/415/91 213/416/91 214/417/91 212/418/91
f 213/419/92 215/420/92 216/421/92 214/422/92
f 215/423/30 201/424/30 204/425/30 216/426/30
f 217/427/18 218/428/18 219/429/18 220/430/18
f 218/431/93 221/432/93 222/433/93 219/434/93
f 221/435/94 223/436/94 224/437/94 222/438/94
f 223/439/95 225/440/95 226/441/95 224/442/95
f 225/443/15 227/444/15 228/445/15 226/446/15
f 227/447/96 229/448/96 230/449/96 228/450/96
f 229/451/94 231/452/94 232/453/94 230/454/94
f 231/455/97 217/456/97 220/457/97 232/458/97
f 233/459/98 234/460/98 235/461/98 236/462/98
f 234/463/99 237/464/99 238/465/99 235/466/99
f 237/467/77 239/468/77 240/469/77 238/470/77
f 239/471/100 233/472/100 236/473/100 240/474/100
