# Blender v2.78 (sub 0) OBJ File: ''
# www.blender.org
mtllib CityEngineMaterial_95.mtl
o CityEngineMaterial_95
v -1133.166260 10.223949 313.046600
v -1132.652710 10.223949 310.343903
v -1132.652710 13.259049 310.343903
v -1133.166260 13.259049 313.046600
v -1140.411133 10.223949 308.875885
v -1140.411133 13.259049 308.875885
v -1142.771729 10.223948 321.298706
v -1142.771729 13.259048 321.298706
v -1135.013550 10.223948 322.768005
v -1135.013550 13.259048 322.768005
v -1134.394409 10.223948 319.509308
v -1134.394409 13.259048 319.509308
v -1137.437744 10.223948 318.933014
v -1137.437744 13.259048 318.933014
v -1136.209717 10.223949 312.470795
v -1136.209717 13.259049 312.470795
v 784.117981 83.000320 -149.339081
v 790.190613 83.000320 -137.112579
v 790.190613 86.842422 -137.112579
v 784.117981 86.842422 -149.339081
v 799.805420 83.000320 -140.111679
v 799.805420 86.842422 -140.111679
v 793.023682 83.000320 -153.751892
v 793.023682 86.842422 -153.751892
v 790.190613 90.925720 -137.112579
v 784.117981 90.925720 -149.339081
v 795.190674 86.842422 -138.672287
v 795.190674 90.925720 -138.672287
v 788.752197 86.842422 -151.635391
v 788.752197 90.925720 -151.635391
v 791.558777 86.842422 -145.984680
v 791.558777 90.925720 -145.984680
v 795.830627 86.842422 -148.106384
v 795.830627 90.925720 -148.106384
v 793.023682 90.925720 -153.751984
v -56.388500 38.007065 -1013.629395
v -57.087700 38.007065 -1018.064575
v -57.087700 41.067165 -1018.064575
v -56.388500 41.067165 -1013.629395
v -63.016998 38.007065 -1017.136230
v -63.016998 41.067165 -1017.136230
v -63.622601 38.007069 -1020.965271
v -63.622601 41.067169 -1020.965271
v -66.635101 38.007069 -1020.493591
v -66.635101 41.067169 -1020.493591
v -65.328003 38.007065 -1012.229370
v -65.328003 41.067165 -1012.229370
v 105.381699 37.476574 -1066.170410
v 104.703102 37.476574 -1072.361694
v 104.703102 40.296276 -1072.361694
v 105.381699 40.296276 -1066.170410
v 109.478104 37.476574 -1073.341797
v 109.478104 40.296276 -1073.341797
v 110.801903 37.476574 -1066.884888
v 110.801903 40.296276 -1066.884888
v 113.070198 37.476574 -1067.350342
v 113.070198 40.296276 -1067.350342
v 110.746300 37.476574 -1078.684692
v 110.746300 40.296276 -1078.684692
v 102.122597 37.476574 -1076.914673
v 102.122597 40.296276 -1076.914673
v 103.311897 37.476574 -1066.065063
v 103.311897 40.296276 -1066.065063
v -98.015900 7.605031 -187.561707
v -99.483803 7.605032 -197.957794
v -99.483803 12.251633 -197.957794
v -98.015900 12.251631 -187.561707
v -99.806000 7.605032 -199.681793
v -99.806000 12.251633 -199.681793
v -117.803001 7.605032 -195.837708
v -117.803001 12.251632 -195.837708
v -115.259804 7.605030 -183.867996
v -115.259804 12.251630 -183.867996
v 260.442413 52.528591 -552.419128
v 272.804413 52.528591 -554.354980
v 272.804413 55.751492 -554.354980
v 260.442413 55.751492 -552.419128
v 269.645203 52.528595 -574.447388
v 269.645203 55.751495 -574.447388
v 257.281311 52.528591 -572.511292
v 257.281311 55.751492 -572.511292
v 151.471893 46.357021 -754.967590
v 155.192398 46.357021 -741.216370
v 155.192398 50.390923 -741.216370
v 151.471893 50.390923 -754.967590
v 159.794693 46.357021 -742.795898
v 159.794693 50.390923 -742.795898
v 163.003403 46.357021 -743.629272
v 163.003403 50.390923 -743.629272
v 158.687698 46.357021 -760.334900
v 158.687698 50.390923 -760.334900
v 156.658005 46.357021 -759.808105
v 156.658005 50.390923 -759.808105
v 157.418396 46.357021 -756.864624
v 157.418396 50.390923 -756.864624
v 155.694901 46.357021 -756.416870
v 155.694901 50.390923 -756.416870
v -192.968002 2.230201 -4.633800
v -188.245697 2.230201 -4.366799
v -188.245697 5.377000 -4.366799
v -192.968002 5.377001 -4.633799
v -189.300095 2.230204 -21.284500
v -189.300095 5.377003 -21.284500
v -203.018295 2.230203 -20.411900
v -203.018295 5.377003 -20.411900
v -201.955994 2.230201 -3.663500
v -201.955994 5.377000 -3.663499
v -197.563400 2.230201 -4.345500
v -197.563400 5.377000 -4.345499
v -105.988297 1.207314 525.793274
v -106.118896 1.207315 523.952881
v -106.118896 4.384215 523.952881
v -105.988297 4.384214 525.793274
v -115.205704 1.207315 520.701782
v -115.205704 4.384215 520.701782
v -115.009003 1.207315 523.468079
v -115.009003 4.384215 523.468079
v -114.058601 1.207315 523.808228
v -114.058601 4.384215 523.808228
v -114.901199 1.207314 524.984802
v -114.901199 4.384215 524.984802
v -114.321602 1.207313 533.135986
v -114.321602 4.384213 533.135986
v -111.082802 1.207313 532.907227
v -111.082802 4.384213 532.907227
v 1023.283630 117.430145 -290.286377
v 1031.347778 117.430145 -291.522766
v 1031.347778 120.306946 -291.522766
v 1023.283630 120.306946 -290.286377
v 1029.953491 117.430145 -300.587982
v 1029.953491 120.306946 -300.587982
v 1027.512207 117.430145 -300.213684
v 1027.512207 120.306946 -300.213684
v 1028.109741 117.430145 -296.328461
v 1028.109741 120.306946 -296.328461
v 1024.575195 117.430145 -295.786560
v 1024.575195 120.306946 -295.786560
v 1023.974670 117.430145 -299.671356
v 1023.974670 120.306946 -299.671356
v 1021.882324 117.430145 -299.350555
v 1021.882324 120.306946 -299.350555
v 1073.044678 114.507072 -420.087158
v 1068.752441 114.507072 -417.805756
v 1068.752441 117.414772 -417.805756
v 1073.044678 117.414772 -420.087158
v 1066.207642 114.507072 -421.086456
v 1066.207642 117.414772 -421.086456
v 1063.658203 114.507072 -419.735657
v 1063.658203 117.414772 -419.735657
v 1070.323364 114.507072 -411.143158
v 1070.323364 117.414772 -411.143158
v 1079.331055 114.507072 -415.931061
v 1079.331055 117.414772 -415.931061
v 1072.667603 114.507072 -424.509277
v 1072.667603 117.414772 -424.509277
v 1070.501221 114.507072 -423.361359
v 1070.501221 117.414772 -423.361359
v -113.981300 32.192810 -1285.725098
v -113.579803 32.192810 -1289.190063
v -113.579803 35.166309 -1289.190063
v -113.981300 35.166309 -1285.725098
v -121.944801 32.192810 -1290.159180
v -121.944801 35.166309 -1290.159180
v -123.602798 32.192806 -1275.847534
v -123.602798 35.166206 -1275.847534
v -115.235802 32.192806 -1274.896240
v -115.235802 35.166206 -1274.896240
v -114.754204 32.192810 -1279.053589
v -114.754204 35.166309 -1279.053589
v -118.149597 32.192810 -1279.439575
v -118.149597 35.166309 -1279.439575
v -117.375900 32.192810 -1286.118286
v -117.375900 35.166309 -1286.118286
v 957.060913 106.570030 -208.160782
v 958.109497 106.570030 -200.988586
v 958.109497 110.541328 -200.988586
v 957.060913 110.541328 -208.160782
v 967.254517 106.570030 -202.223892
v 967.254517 110.541328 -202.223892
v 966.939270 106.570030 -204.375778
v 966.939270 110.541328 -204.375778
v 964.451782 106.570030 -204.039886
v 964.451782 110.541328 -204.039886
v 963.713928 106.570030 -209.086792
v 963.713928 110.541328 -209.086792
v 861.444885 89.584023 -132.202286
v 861.046082 89.584023 -134.802689
v 861.046082 93.770020 -134.802689
v 861.444885 93.770020 -132.202286
v 857.445007 89.584023 -134.242981
v 857.445007 93.770020 -134.242981
v 857.479980 89.584023 -134.015182
v 857.479980 93.770020 -134.015182
v 854.093872 89.584023 -133.495682
v 854.093872 93.770020 -133.495682
v 854.058716 89.584023 -133.716690
v 854.058716 93.770020 -133.716690
v 850.114624 89.584023 -133.103790
v 850.114624 93.770020 -133.103790
v 850.525818 89.584023 -130.527283
v 850.525818 93.770020 -130.527283
v 466.161011 62.215240 -252.283386
v 467.368500 62.215237 -239.259583
v 467.368500 66.305939 -239.259583
v 466.161011 66.305939 -252.283386
v 483.406311 62.215237 -241.681381
v 483.406311 66.305939 -241.681381
v 481.527588 62.215240 -253.797989
v 481.527588 66.305939 -253.797989
v -501.817200 15.677216 -709.011719
v -515.581421 15.677215 -704.764526
v -515.581421 19.382515 -704.764526
v -501.817200 19.382517 -709.011719
v -509.823608 15.677212 -686.140503
v -509.823608 19.382513 -686.140503
v -494.443695 15.677213 -690.809204
v -494.443695 19.382513 -690.809204
vt 0.5000 -0.0000
vt 1.0000 -0.0000
vt 1.0000 1.0000
vt 0.5000 1.0000
vt 0.6667 0.0000
vt 1.8333 -0.0000
vt 1.8333 1.0000
vt 0.6667 1.0000
vt 0.6667 0.0000
vt 2.6667 0.0000
vt 2.6667 1.0000
vt 0.6667 1.0000
vt 0.5000 -0.0000
vt 1.6667 0.0000
vt 1.6667 1.0000
vt 0.5000 1.0000
vt 0.6667 0.0000
vt 1.1667 0.0000
vt 1.1667 1.0000
vt 0.6667 1.0000
vt 0.1667 0.0000
vt 0.6667 0.0000
vt 0.6667 1.0000
vt 0.1667 1.0000
vt 0.3333 0.0000
vt 1.3333 -0.0000
vt 1.3333 1.0000
vt 0.3333 1.0000
vt 0.5000 -0.0000
vt 1.0000 -0.0000
vt 1.0000 1.0000
vt 0.5000 1.0000
vt 0.3333 0.0000
vt 2.0000 0.0000
vt 2.0000 1.0000
vt 0.3333 1.0000
vt 0.6667 0.0000
vt 1.8333 -0.0000
vt 1.8333 1.0000
vt 0.6667 1.0000
vt 0.6667 0.0000
vt 2.5000 0.0000
vt 2.5000 1.0000
vt 0.6667 1.0000
vt 0.1667 0.0000
vt 1.3333 -0.0000
vt 1.3333 1.0000
vt 0.1667 1.0000
vt 0.1667 0.0000
vt 1.8333 -0.0000
vt 1.8333 1.0000
vt 0.1667 1.0000
vt 0.1667 0.0000
vt 0.8333 -0.0000
vt 0.8333 1.0000
vt 0.1667 1.0000
vt 0.5000 -0.0000
vt 2.1667 0.0000
vt 2.1667 1.0000
vt 0.5000 1.0000
vt 0.3333 0.0000
vt 1.0000 -0.0000
vt 1.0000 1.0000
vt 0.3333 1.0000
vt 0.6667 0.0000
vt 1.5000 -0.0000
vt 1.5000 1.0000
vt 0.6667 1.0000
vt 0.6667 0.0000
vt 1.1667 0.0000
vt 1.1667 1.0000
vt 0.6667 1.0000
vt 0.3333 0.0000
vt 1.1667 0.0000
vt 1.1667 1.0000
vt 0.3333 1.0000
vt 0.5000 -0.0000
vt 1.0000 -0.0000
vt 1.0000 1.0000
vt 0.5000 1.0000
vt 0.0000 0.0000
vt 0.6667 0.0000
vt 0.6667 1.0000
vt 0.0000 1.0000
vt 0.8333 -0.0000
vt 1.6667 0.0000
vt 1.6667 1.0000
vt 0.8333 1.0000
vt 0.3333 0.0000
vt 0.8333 -0.0000
vt 0.8333 1.0000
vt 0.3333 1.0000
vt 0.3333 0.0000
vt 0.8333 -0.0000
vt 0.8333 1.0000
vt 0.3333 1.0000
vt 0.1667 0.0000
vt 1.3333 -0.0000
vt 1.3333 1.0000
vt 0.1667 1.0000
vt 0.5000 -0.0000
vt 1.8333 -0.0000
vt 1.8333 1.0000
vt 0.5000 1.0000
vt 0.5000 -0.0000
vt 1.3333 -0.0000
vt 1.3333 1.0000
vt 0.5000 1.0000
vt 0.3333 0.0000
vt 1.0000 -0.0000
vt 1.0000 1.0000
vt 0.3333 1.0000
vt 0.1667 0.0000
vt 1.0000 -0.0000
vt 1.0000 1.0000
vt 0.1667 1.0000
vt 0.3333 0.0000
vt 0.6667 0.0000
vt 0.6667 1.0000
vt 0.3333 1.0000
vt 2.1667 0.0000
vt 2.1667 1.0000
vt 0.3333 0.0000
vt 1.5000 -0.0000
vt 1.5000 1.0000
vt 0.3333 1.0000
vt 0.0000 0.0000
vt 1.3333 -0.0000
vt 1.3333 1.0000
vt 0.0000 1.0000
vt 0.8333 -0.0000
vt 1.1667 0.0000
vt 1.1667 1.0000
vt 0.8333 1.0000
vt 0.0000 0.0000
vt 1.6667 0.0000
vt 1.6667 1.0000
vt 0.0000 1.0000
vt 0.1667 0.0000
vt 0.5000 -0.0000
vt 0.5000 1.0000
vt 0.1667 1.0000
vt 0.3333 0.0000
vt 3.1667 0.0000
vt 3.1667 1.0000
vt 0.3333 1.0000
vt 0.1667 0.0000
vt 2.0000 0.0000
vt 2.0000 1.0000
vt 0.1667 1.0000
vt 0.5000 -0.0000
vt 3.1667 0.0000
vt 3.1667 1.0000
vt 0.5000 1.0000
vt 0.6667 0.0000
vt 2.3333 -0.0000
vt 2.3333 0.5000
vt 0.6667 0.5000
vt 0.3333 0.0000
vt 3.0000 0.0000
vt 3.0000 0.5000
vt 0.3333 0.5000
vt 0.5000 -0.0000
vt 2.1667 0.0000
vt 2.1667 0.5000
vt 0.5000 0.5000
vt 0.3333 0.0000
vt 3.0000 0.0000
vt 3.0000 0.5000
vt 0.3333 0.5000
vt 0.8333 -0.0000
vt 3.3333 -0.0000
vt 3.3333 1.0000
vt 0.8333 1.0000
vt 0.0000 0.0000
vt 0.8333 -0.0000
vt 0.8333 1.0000
vt 0.0000 1.0000
vt 0.5000 -0.0000
vt 1.0000 -0.0000
vt 1.0000 1.0000
vt 0.5000 1.0000
vt 0.5000 -0.0000
vt 3.5000 0.0000
vt 3.5000 1.0000
vt 0.5000 1.0000
vt 0.6667 0.0000
vt 1.0000 -0.0000
vt 1.0000 1.0000
vt 0.6667 1.0000
vt 0.1667 0.0000
vt 0.6667 0.0000
vt 0.6667 1.0000
vt 0.1667 1.0000
vt 1.0000 -0.0000
vt 1.0000 1.0000
vt 0.3333 0.0000
vt 1.1667 0.0000
vt 1.1667 1.0000
vt 0.3333 1.0000
vt 0.0000 0.0000
vt 0.6667 0.0000
vt 0.6667 0.5000
vt 0.0000 0.5000
vt 0.3333 0.0000
vt 2.8333 0.0000
vt 2.8333 0.5000
vt 0.3333 0.5000
vt 0.6667 0.0000
vt 2.6667 0.0000
vt 2.6667 0.5000
vt 0.6667 0.5000
vt 0.0000 0.0000
vt 2.5000 0.0000
vt 2.5000 0.5000
vt 0.0000 0.5000
vt 0.6667 0.0000
vt 1.3333 -0.0000
vt 1.3333 0.5000
vt 0.6667 0.5000
vt 0.0000 0.0000
vt 0.6667 0.0000
vt 0.6667 0.5000
vt 0.0000 0.5000
vt 0.6667 0.0000
vt 1.0000 -0.0000
vt 1.0000 1.0000
vt 0.6667 1.0000
vt 0.1667 0.0000
vt 1.5000 -0.0000
vt 1.5000 1.0000
vt 0.1667 1.0000
vt 0.5000 -0.0000
vt 0.8333 -0.0000
vt 0.8333 1.0000
vt 0.5000 1.0000
vt 0.3333 0.0000
vt 0.5000 -0.0000
vt 0.5000 1.0000
vt 0.3333 1.0000
vt 0.6667 0.0000
vt 0.8333 -0.0000
vt 0.8333 1.0000
vt 0.6667 1.0000
vt 0.3333 0.0000
vt 1.5000 -0.0000
vt 1.5000 1.0000
vt 0.3333 1.0000
vt 0.5000 -0.0000
vt 1.0000 -0.0000
vt 1.0000 1.0000
vt 0.5000 1.0000
vt 0.5000 -0.0000
vt 1.6667 0.0000
vt 1.6667 1.0000
vt 0.5000 1.0000
vt 0.3333 0.0000
vt 1.5000 -0.0000
vt 1.5000 1.0000
vt 0.3333 1.0000
vt 0.6667 0.0000
vt 2.0000 0.0000
vt 2.0000 1.0000
vt 0.6667 1.0000
vt 0.5000 -0.0000
vt 0.8333 -0.0000
vt 0.8333 1.0000
vt 0.5000 1.0000
vt 0.1667 0.0000
vt 0.6667 0.0000
vt 0.6667 1.0000
vt 0.1667 1.0000
vt 0.3333 0.0000
vt 0.8333 -0.0000
vt 0.8333 1.0000
vt 0.3333 1.0000
vt 0.5000 -0.0000
vt 1.0000 -0.0000
vt 1.0000 1.0000
vt 0.5000 1.0000
vt 0.8333 -0.0000
vt 1.1667 0.0000
vt 1.1667 1.0000
vt 0.8333 1.0000
vt 0.3333 0.0000
vt 1.6667 0.0000
vt 1.6667 1.0000
vt 0.3333 1.0000
vt 0.3333 0.0000
vt 1.0000 -0.0000
vt 1.0000 1.0000
vt 0.3333 1.0000
vt 0.3333 0.0000
vt 1.0000 -0.0000
vt 1.0000 1.0000
vt 0.3333 1.0000
vt 0.0000 0.0000
vt 0.5000 -0.0000
vt 0.5000 1.0000
vt 0.0000 1.0000
vt 0.1667 0.0000
vt 1.8333 -0.0000
vt 1.8333 1.0000
vt 0.1667 1.0000
vt 0.0000 0.0000
vt 1.5000 -0.0000
vt 1.5000 1.0000
vt 0.0000 1.0000
vt 0.6667 0.0000
vt 2.3333 -0.0000
vt 2.3333 1.0000
vt 0.6667 1.0000
vt 0.6667 0.0000
vt 1.0000 -0.0000
vt 1.0000 1.0000
vt 0.6667 1.0000
vt 0.5000 -0.0000
vt 1.1667 0.0000
vt 1.1667 1.0000
vt 0.5000 1.0000
vt 0.6667 0.0000
vt 1.1667 0.0000
vt 1.1667 1.0000
vt 0.6667 1.0000
vt 0.8333 -0.0000
vt 2.0000 0.0000
vt 2.0000 1.0000
vt 0.8333 1.0000
vt 0.5000 -0.0000
vt 2.6667 0.0000
vt 2.6667 1.0000
vt 0.5000 1.0000
vt 0.8333 -0.0000
vt 2.0000 0.0000
vt 2.0000 1.0000
vt 0.8333 1.0000
vt 0.8333 -0.0000
vt 1.5000 -0.0000
vt 1.5000 1.0000
vt 0.8333 1.0000
vt 0.0000 0.0000
vt 0.5000 -0.0000
vt 0.5000 1.0000
vt 0.0000 1.0000
vt 0.6667 0.0000
vt 1.6667 0.0000
vt 1.6667 1.0000
vt 0.6667 1.0000
vt 0.6667 0.0000
vt 1.1667 0.0000
vt 1.1667 1.0000
vt 0.6667 1.0000
vt 0.1667 0.0000
vt 1.3333 -0.0000
vt 1.3333 1.0000
vt 0.1667 1.0000
vt 0.3333 0.0000
vt 1.8333 -0.0000
vt 1.8333 1.0000
vt 0.3333 1.0000
vt 0.8333 -0.0000
vt 1.1667 0.0000
vt 1.1667 1.0000
vt 0.8333 1.0000
vt 0.3333 0.0000
vt 0.6667 0.0000
vt 0.6667 1.0000
vt 0.3333 1.0000
vt 0.1667 0.0000
vt 1.0000 -0.0000
vt 1.0000 1.0000
vt 0.1667 1.0000
vt 0.5000 -0.0000
vt 1.6667 0.0000
vt 1.6667 1.0000
vt 0.5000 1.0000
vt 0.6667 0.0000
vt 1.0000 -0.0000
vt 1.0000 1.0000
vt 0.6667 1.0000
vt 0.6667 0.0000
vt 1.1667 0.0000
vt 1.1667 1.0000
vt 0.6667 1.0000
vt 0.5000 -0.0000
vt 0.5333 0.0000
vt 0.5333 1.0000
vt 0.5000 1.0000
vt 0.3333 0.0000
vt 0.8333 -0.0000
vt 0.8333 1.0000
vt 0.3333 1.0000
vt 0.8667 -0.0000
vt 0.8667 1.0000
vt 0.5000 -0.0000
vt 1.0000 -0.0000
vt 1.0000 1.0000
vt 0.5000 1.0000
vt 0.3333 0.0000
vt 0.6667 0.0000
vt 0.6667 1.0000
vt 0.3333 1.0000
vt 0.1667 0.0000
vt 1.5000 -0.0000
vt 1.5000 1.0000
vt 0.1667 1.0000
vt 0.3333 0.0000
vt 2.0000 0.0000
vt 2.0000 1.0000
vt 0.3333 1.0000
vt 0.8333 -0.0000
vt 2.8333 0.0000
vt 2.8333 1.0000
vt 0.8333 1.0000
vt 0.5000 -0.0000
vt 2.0000 0.0000
vt 2.0000 1.0000
vt 0.5000 1.0000
vt 0.3333 0.0000
vt 2.1667 0.0000
vt 2.1667 1.0000
vt 0.3333 1.0000
vt 0.1667 0.0000
vt 2.0000 0.0000
vt 2.0000 1.0000
vt 0.1667 1.0000
vt 0.6667 0.0000
vt 3.1667 0.0000
vt 3.1667 1.0000
vt 0.6667 1.0000
vt 0.6667 0.0000
vt 2.6667 0.0000
vt 2.6667 1.0000
vt 0.6667 1.0000
vt 0.5000 -0.0000
vt 3.0000 0.0000
vt 3.0000 1.0000
vt 0.5000 1.0000
vn 0.9824 0.0000 0.1867
vn 0.1859 0.0000 -0.9826
vn -0.9824 0.0000 -0.1867
vn -0.1861 0.0000 0.9825
vn 0.1861 0.0000 -0.9825
vn -0.1859 0.0000 0.9826
vn -0.8956 0.0000 0.4448
vn 0.2978 0.0000 0.9546
vn 0.8954 0.0000 -0.4452
vn -0.4440 0.0000 -0.8960
vn 0.8956 0.0000 -0.4448
vn 0.4448 0.0000 0.8956
vn 0.9878 0.0000 -0.1557
vn -0.1547 0.0000 -0.9880
vn 0.9877 0.0000 -0.1562
vn -0.9877 0.0000 0.1562
vn 0.1547 0.0000 0.9880
vn 0.9940 0.0000 -0.1090
vn 0.2011 0.0000 0.9796
vn -0.9796 0.0000 0.2008
vn 0.2010 0.0000 0.9796
vn 0.9796 0.0000 -0.2009
vn -0.2011 0.0000 -0.9796
vn -0.9940 0.0000 0.1090
vn 0.0508 0.0000 0.9987
vn 0.9902 0.0000 -0.1398
vn 0.9830 0.0000 -0.1837
vn -0.2089 0.0000 -0.9779
vn -0.9782 0.0000 0.2078
vn 0.2095 0.0000 0.9778
vn 0.9879 0.0000 -0.1553
vn -0.9878 0.0000 0.1554
vn -0.9653 0.0000 0.2612
vn 0.3246 0.0000 0.9458
vn 0.2514 0.0000 0.9679
vn 0.9682 0.0000 -0.2501
vn -0.2512 0.0000 -0.9679
vn -0.9682 0.0000 0.2501
vn -0.2514 0.0000 -0.9679
vn -0.3246 0.0000 -0.9458
vn -0.0565 0.0000 0.9984
vn 0.9981 0.0000 -0.0622
vn -0.0635 0.0000 -0.9980
vn -0.9980 0.0000 0.0633
vn 0.1534 0.0000 0.9882
vn 0.0626 -0.0000 0.9980
vn 0.9975 0.0000 -0.0708
vn 0.3369 0.0000 -0.9416
vn -0.9975 0.0000 0.0709
vn -0.3370 0.0000 0.9415
vn -0.8130 0.0000 -0.5822
vn 0.0704 0.0000 0.9975
vn 0.8130 0.0000 0.5822
vn 0.1515 0.0000 0.9884
vn 0.9884 0.0000 -0.1520
vn -0.1515 0.0000 -0.9884
vn -0.9884 0.0000 0.1520
vn -0.1515 0.0000 -0.9885
vn 0.9883 0.0000 -0.1528
vn -0.1516 0.0000 -0.9884
vn -0.9883 0.0000 0.1528
vn -0.4693 0.0000 -0.8830
vn 0.7902 0.0000 -0.6129
vn -0.4682 0.0000 -0.8836
vn -0.7901 0.0000 0.6129
vn 0.4694 0.0000 0.8830
vn 0.7897 0.0000 -0.6135
vn -0.7897 0.0000 0.6135
vn 0.9934 0.0000 0.1151
vn 0.1151 0.0000 -0.9934
vn -0.9934 0.0000 -0.1151
vn -0.1130 0.0000 0.9936
vn 0.1129 0.0000 -0.9936
vn -0.1150 0.0000 0.9934
vn -0.9895 0.0000 0.1447
vn 0.1339 0.0000 0.9910
vn 0.9894 0.0000 -0.1450
vn -0.1338 0.0000 -0.9910
vn 0.9895 0.0000 -0.1447
vn -0.1379 0.0000 -0.9905
vn 0.9884 0.0000 -0.1516
vn -0.1536 0.0000 -0.9881
vn -0.9884 0.0000 0.1518
vn -0.1517 0.0000 -0.9884
vn 0.9876 0.0000 -0.1571
vn -0.9875 0.0000 0.1576
vn 0.1516 0.0000 0.9884
vn -0.9957 0.0000 0.0923
vn 0.1493 0.0000 0.9888
vn 0.9882 0.0000 -0.1532
vn -0.0981 0.0000 -0.9952
vn -0.2949 0.0000 -0.9555
vn -0.9554 0.0000 0.2954
vn 0.2905 0.0000 0.9569
vn 0.9268 0.0000 -0.3754
g CityEngineMaterial_95_CityEngineMaterial_95_CityEngineMaterial_95_mat
usemtl CityEngineMaterial_95_mat
s 1
f 1/1/1 2/2/1 3/3/1 4/4/1
f 2/5/2 5/6/2 6/7/2 3/8/2
f 5/9/3 7/10/3 8/11/3 6/12/3
f 7/13/4 9/14/4 10/15/4 8/16/4
f 9/17/1 11/18/1 12/19/1 10/20/1
f 11/21/5 13/22/5 14/23/5 12/24/5
f 13/25/1 15/26/1 16/27/1 14/28/1
f 15/29/6 1/30/6 4/31/6 16/32/6
f 17/33/7 18/34/7 19/35/7 20/36/7
f 18/37/8 21/38/8 22/39/8 19/40/8
f 21/41/9 23/42/9 24/43/9 22/44/9
f 23/45/10 17/46/10 20/47/10 24/48/10
f 20/49/7 19/50/7 25/51/7 26/52/7
f 19/53/8 27/54/8 28/55/8 25/56/8
f 27/57/11 29/58/11 30/59/11 28/60/11
f 29/61/10 20/62/10 26/63/10 30/64/10
f 29/65/7 31/66/7 32/67/7 30/68/7
f 31/69/12 33/70/12 34/71/12 32/72/12
f 33/73/9 24/74/9 35/75/9 34/76/9
f 24/77/10 29/78/10 30/79/10 35/80/10
f 36/81/13 37/82/13 38/83/13 39/84/13
f 37/85/14 40/86/14 41/87/14 38/88/14
f 40/89/15 42/90/15 43/91/15 41/92/15
f 42/93/14 44/94/14 45/95/14 43/96/14
f 44/97/16 46/98/16 47/99/16 45/100/16
f 46/101/17 36/102/17 39/103/17 47/104/17
f 48/105/18 49/106/18 50/107/18 51/108/18
f 49/109/19 52/110/19 53/111/19 50/112/19
f 52/113/20 54/114/20 55/115/20 53/116/20
f 54/117/21 56/118/21 57/119/21 55/120/21
f 56/118/22 58/121/22 59/122/22 57/119/22
f 58/123/23 60/124/23 61/125/23 59/126/23
f 60/127/24 62/128/24 63/129/24 61/130/24
f 62/131/25 48/132/25 51/133/25 63/134/25
f 64/135/26 65/136/26 66/137/26 67/138/26
f 65/139/27 68/140/27 69/141/27 66/142/27
f 68/143/28 70/144/28 71/145/28 69/146/28
f 70/147/29 72/148/29 73/149/29 71/150/29
f 72/151/30 64/152/30 67/153/30 73/154/30
f 74/155/17 75/156/17 76/157/17 77/158/17
f 75/159/31 78/160/31 79/161/31 76/162/31
f 78/163/14 80/164/14 81/165/14 79/166/14
f 80/167/32 74/168/32 77/169/32 81/170/32
f 82/171/33 83/172/33 84/173/33 85/174/33
f 83/175/34 86/176/34 87/177/34 84/178/34
f 86/179/35 88/180/35 89/181/35 87/182/35
f 88/183/36 90/184/36 91/185/36 89/186/36
f 90/187/37 92/188/37 93/189/37 91/190/37
f 92/191/38 94/192/38 95/193/38 93/194/38
f 94/192/39 96/195/39 97/196/39 95/193/39
f 96/197/40 82/198/40 85/199/40 97/200/40
f 98/201/41 99/202/41 100/203/41 101/204/41
f 99/205/42 102/206/42 103/207/42 100/208/42
f 102/209/43 104/210/43 105/211/43 103/212/43
f 104/213/44 106/214/44 107/215/44 105/216/44
f 106/217/45 108/218/45 109/219/45 107/220/45
f 108/221/46 98/222/46 101/223/46 109/224/46
f 110/225/47 111/226/47 112/227/47 113/228/47
f 111/229/48 114/230/48 115/231/48 112/232/48
f 114/233/49 116/234/49 117/235/49 115/236/49
f 116/237/50 118/238/50 119/239/50 117/240/50
f 118/241/51 120/242/51 121/243/51 119/244/51
f 120/245/49 122/246/49 123/247/49 121/248/49
f 122/249/52 124/250/52 125/251/52 123/252/52
f 124/253/53 110/254/53 113/255/53 125/256/53
f 126/257/54 127/258/54 128/259/54 129/260/54
f 127/261/55 130/262/55 131/263/55 128/264/55
f 130/265/56 132/266/56 133/267/56 131/268/56
f 132/269/57 134/270/57 135/271/57 133/272/57
f 134/273/58 136/274/58 137/275/58 135/276/58
f 136/277/59 138/278/59 139/279/59 137/280/59
f 138/281/60 140/282/60 141/283/60 139/284/60
f 140/285/61 126/286/61 129/287/61 141/288/61
f 142/289/62 143/290/62 144/291/62 145/292/62
f 143/293/63 146/294/63 147/295/63 144/296/63
f 146/297/64 148/298/64 149/299/64 147/300/64
f 148/301/65 150/302/65 151/303/65 149/304/65
f 150/305/66 152/306/66 153/307/66 151/308/66
f 152/309/67 154/310/67 155/311/67 153/312/67
f 154/313/64 156/314/64 157/315/64 155/316/64
f 156/317/68 142/318/68 145/319/68 157/320/68
f 158/321/69 159/322/69 160/323/69 161/324/69
f 159/325/70 162/326/70 163/327/70 160/328/70
f 162/329/71 164/330/71 165/331/71 163/332/71
f 164/333/72 166/334/72 167/335/72 165/336/72
f 166/337/69 168/338/69 169/339/69 167/340/69
f 168/341/73 170/342/73 171/343/73 169/344/73
f 170/345/69 172/346/69 173/347/69 171/348/69
f 172/349/74 158/350/74 161/351/74 173/352/74
f 174/353/75 175/354/75 176/355/75 177/356/75
f 175/357/76 178/358/76 179/359/76 176/360/76
f 178/361/77 180/362/77 181/363/77 179/364/77
f 180/365/78 182/366/78 183/367/78 181/368/78
f 182/369/79 184/370/79 185/371/79 183/372/79
f 184/373/80 174/374/80 177/375/80 185/376/80
f 186/377/81 187/378/81 188/379/81 189/380/81
f 187/381/82 190/382/82 191/383/82 188/384/82
f 190/385/83 192/386/83 193/387/83 191/388/83
f 192/389/84 194/390/84 195/391/84 193/392/84
f 194/390/85 196/393/85 197/394/85 195/391/85
f 196/395/82 198/396/82 199/397/82 197/398/82
f 198/399/86 200/400/86 201/401/86 199/402/86
f 200/403/87 186/404/87 189/405/87 201/406/87
f 202/407/88 203/408/88 204/409/88 205/410/88
f 203/411/89 206/412/89 207/413/89 204/414/89
f 206/415/90 208/416/90 209/417/90 207/418/90
f 208/419/91 202/420/91 205/421/91 209/422/91
f 210/423/92 211/424/92 212/425/92 213/426/92
f 211/427/93 214/428/93 215/429/93 212/430/93
f 214/431/94 216/432/94 217/433/94 215/434/94
f 216/435/95 210/436/95 213/437/95 217/438/95
