# Blender v2.78 (sub 0) OBJ File: ''
# www.blender.org
mtllib CityEngineMaterial_373.mtl
o CityEngineMaterial_373
v -1397.547729 21.236027 439.427094
v -1397.281738 21.236029 438.521088
v -1402.361084 21.236029 436.160187
v -1405.866577 21.236027 448.101288
v -1398.986206 21.236025 451.297699
v -1394.187744 21.236027 440.988007
v -1403.223877 21.809427 439.099091
v -1405.595337 21.809427 447.177399
v -1401.275879 21.809427 448.445404
v -1398.904419 21.809427 440.367096
v -1398.945557 21.809427 440.506989
v -1400.245483 21.809427 444.935303
v -1397.202759 21.809427 445.828613
v -1395.902832 21.809427 441.400299
v 501.530487 39.548977 146.588104
v 502.149811 39.548973 157.401398
v 514.699280 39.548973 156.704102
v 514.350708 39.548977 145.844406
v 502.363098 73.112175 147.329910
v 502.892303 73.112175 156.570221
v 508.560394 73.112175 156.255219
v 508.024994 73.112175 147.001511
v 508.456909 73.519775 154.466309
v 508.127808 73.519775 148.778320
v 504.509399 73.519775 148.987717
v 504.838501 73.519775 154.675720
v 504.656494 73.519775 151.529617
v 502.465790 73.519775 149.105911
v 502.612915 73.519775 151.647919
v -776.929382 8.984177 142.473694
v -774.210571 8.984177 141.997101
v -775.029480 8.984178 137.324203
v -789.820007 8.984177 139.916702
v -788.371216 8.984176 148.184006
v -776.299377 8.984176 146.068497
v -779.123779 10.239977 138.041901
v -788.444580 10.239977 139.675598
v -787.559570 10.239976 144.725204
v -778.238892 10.239977 143.091507
v -782.036377 10.239976 143.757095
v -781.472412 10.239976 146.975006
v -777.674927 10.239976 146.309494
v -784.359375 10.239976 144.164307
v -786.995728 10.239976 147.942902
v -783.795410 10.239976 147.382095
v 125.150299 47.300095 -580.199585
v 134.715195 47.300095 -581.697510
v 132.309296 47.300098 -597.357971
v 120.224899 47.300095 -595.487915
v 124.303497 47.300095 -580.357788
v 125.150299 85.127090 -580.199585
v 134.715195 85.127090 -581.697510
v 133.289597 85.127098 -590.977173
v 121.917702 85.127098 -589.208374
v 124.303497 85.127090 -580.357788
v 126.249901 85.127098 -589.882202
v 132.309296 85.127098 -597.357971
v 125.256798 85.127098 -596.266602
v 132.535904 85.765701 -590.803589
v 123.594299 85.765701 -589.412720
v 124.481499 85.765694 -583.709106
v 133.423096 85.765694 -585.099976
v 132.647903 85.765694 -584.979370
v 128.987701 85.765694 -584.410095
v 129.492493 85.765694 -581.164978
v 133.152695 85.765694 -581.734314
v 131.056702 85.798897 -597.164185
v 126.507301 85.798897 -596.460083
v 127.065498 85.798897 -592.853271
v 131.614899 85.798897 -593.557312
v 130.551895 85.798897 -593.392822
v 127.782097 85.798897 -592.964111
v 128.211197 85.798897 -590.191284
v 130.981003 85.798897 -590.620117
v -136.610794 4.334757 259.389099
v -148.111298 4.334757 260.483002
v -145.768097 4.334754 281.307007
v -134.283096 4.334754 280.214813
v -147.619202 19.529257 264.856110
v -146.260101 19.529255 276.933899
v -134.771896 19.529255 275.841309
v -136.121994 19.529257 263.762512
v -146.926697 18.249859 260.370392
v -144.583496 18.249855 281.194305
v -135.467697 18.249855 280.327393
v -137.795303 18.249859 259.501801
v -135.924805 44.346756 274.839294
v -137.029007 44.346760 264.960297
v -146.465500 44.346760 265.857910
v -145.354004 44.346756 275.736115
v -136.495895 27.990355 278.525299
v -138.403305 27.990458 261.459503
v -145.897202 27.990358 262.172302
v -143.977005 27.990355 279.236694
v -145.518906 47.537560 266.676514
v -144.609695 47.537556 274.756805
v -136.870605 47.537556 274.020691
v -137.773895 47.537560 265.939789
v -145.052505 43.899960 263.648407
v -143.478897 43.899956 277.632996
v -137.339294 43.899956 277.049103
v -138.902496 43.899960 263.063385
v -137.646698 49.771152 273.350800
v -138.385605 49.771156 266.741608
v -144.742294 49.771156 267.346313
v -143.998703 49.771152 273.954987
v -138.031403 45.945454 275.838898
v -139.312302 45.945457 264.378296
v -144.359497 45.945457 264.858490
v -143.070099 45.945454 276.318207
v -144.105103 51.334660 267.893707
v -143.496796 51.334656 273.299286
v -138.283401 51.334656 272.803406
v -138.887802 51.334660 267.397308
v -143.790894 49.286457 265.849701
v -142.734207 49.286453 275.240997
v -138.599106 49.286453 274.847687
v -139.648804 49.286457 265.455597
v -138.805801 53.303154 272.355499
v -139.300201 53.303158 267.934113
v -143.582306 53.303158 268.341492
v -143.084793 53.303154 272.762512
v -139.064896 51.254955 274.035187
v -139.925095 51.254959 266.338593
v -143.324493 51.254959 266.662201
v -142.458603 51.254955 274.357910
v -142.966599 53.728657 268.841400
v -142.593506 53.728653 272.157410
v -140.499802 53.728653 271.958191
v -140.692703 53.728653 270.243591
v -139.612900 53.728653 270.140808
v -139.791901 53.728657 268.539307
v -140.812103 51.749954 270.559204
v -142.520905 51.749954 270.721710
v -142.154007 51.749954 273.982788
v -139.446304 51.749954 273.725311
v -141.231293 51.750057 266.809113
v -140.229996 51.750057 266.713715
v 379.352509 38.946289 77.342606
v 377.001312 38.946289 63.706608
v 372.820801 38.946289 64.418907
v 373.102112 38.946289 66.050407
v 367.294006 38.946289 67.032211
v 369.382202 38.946289 79.028107
v 379.113007 40.227989 76.251411
v 377.407410 40.227989 66.359406
v 371.513794 40.227989 67.375610
v 373.219513 40.227989 77.267609
v 373.011414 40.227989 76.061104
v 372.316986 40.227989 72.033806
v 368.295685 40.227989 72.727211
v 368.990204 40.227989 76.754509
v -505.434204 10.350013 531.104309
v -516.963684 10.350013 530.977417
v -517.005371 10.350013 534.491516
v -516.348328 10.350013 534.498718
v -516.389526 10.350012 537.964417
v -505.517303 10.350012 538.095520
v -515.501709 10.907613 533.671326
v -515.513977 10.907613 534.713684
v -513.845825 10.907613 534.732117
v -506.343903 10.907612 537.248779
v -513.874573 10.907612 537.158020
v -506.280701 10.907613 531.931824
v -516.158875 10.907613 533.664124
v -516.137024 10.907613 531.823425
v 278.257812 39.089706 -45.880894
v 260.893585 39.089706 -43.870392
v 261.292389 39.089703 -28.841394
v 278.677795 39.089703 -30.870193
v 264.943787 78.634705 -29.267487
v 275.026886 78.634705 -30.444187
v 274.606812 78.634705 -45.458187
v 264.545013 78.634705 -44.293190
v 261.248291 74.732307 -30.503288
v 278.631287 74.732307 -32.531788
v 278.304291 74.732307 -44.219387
v 260.937592 74.732307 -42.208588
v 273.601288 90.498207 -43.966885
v 265.625214 90.498207 -43.043385
v 265.951202 90.498207 -30.759985
v 273.944885 90.498207 -31.692785
v 276.648499 79.314911 -42.956688
v 262.651703 79.314911 -41.336090
v 262.905701 79.314911 -31.767786
v 276.915894 79.314911 -33.402687
v 266.751007 92.023506 -31.977385
v 273.084106 92.023506 -32.716484
v 272.803314 92.023506 -42.750584
v 266.484589 92.023506 -42.018986
v 264.241486 82.522705 -32.799286
v 275.532715 82.522705 -34.116886
v 275.314087 82.522705 -41.926685
v 264.033905 82.522705 -40.620586
v 272.168488 93.992004 -41.758286
v 267.169312 93.992004 -41.179386
v 267.387085 93.992004 -32.970486
v 272.398102 93.992004 -33.555286
v 274.237396 84.768211 -41.086384
v 265.149597 84.768211 -40.034184
v 265.319305 84.768211 -33.640785
v 274.416107 84.768211 -34.702286
v 266.187592 86.340004 -34.327187
v 273.516113 86.340004 -35.182384
v 273.369995 86.340004 -40.400887
v 266.049011 86.340004 -39.553284
v 267.182098 94.462006 -40.697285
v 267.362396 94.462006 -33.902985
v 270.850891 94.462006 -33.995586
v 270.670502 94.462006 -40.789886
v 272.670288 88.308510 -39.841785
v 266.774597 88.308510 -39.159184
v 266.887909 88.308510 -34.887085
v 272.789795 88.308510 -35.575787
v 270.722107 94.462006 -38.847485
v 272.245300 94.462006 -38.887886
v 272.193787 94.462006 -40.830284
v 267.213989 88.880508 -35.263287
v 272.445496 88.880508 -35.873783
v 272.391205 88.880508 -37.812286
v 270.337402 88.880508 -37.572685
v 270.293488 88.880508 -39.228485
v 267.118500 88.880508 -38.860886
v -284.923187 5.428924 465.660706
v -287.126801 5.428928 442.493011
v -301.541687 5.428927 443.867188
v -299.308685 5.428924 467.038605
v -285.848907 22.848726 455.928314
v -287.126801 22.848728 442.493011
v -301.541687 22.848728 443.867188
v -300.247101 22.848726 457.300903
v -291.460785 28.473524 466.286896
v -292.388885 28.473526 456.551788
v -300.247101 28.473526 457.300903
v -299.308685 28.473524 467.038605
v -290.133087 23.961227 446.132202
v -297.899200 23.961227 446.872589
v -297.688507 23.961227 449.058014
v -294.738800 23.961227 448.776794
v -294.300812 23.961226 453.381500
v -289.487305 23.961226 452.922607
v -295.035400 29.012024 464.851288
v -295.634094 29.012125 458.638092
v -300.077301 29.012125 459.063293
v -299.478394 29.012024 465.277893
v -291.685303 29.012024 463.947601
v -292.065002 29.012125 459.939789
v -295.476990 29.012125 460.268585
v -295.090790 29.012024 464.275696
v -49.020401 6.978882 106.921501
v -52.868099 6.978882 107.897102
v -53.671902 6.978882 108.147102
v -46.935299 6.978878 130.423798
v -38.320599 6.978879 128.272003
v -41.416000 6.978883 105.890800
v -45.204300 6.978883 106.234100
v -39.186901 84.230576 122.008316
v -48.747101 84.230576 124.432518
v -46.935299 84.230576 130.423813
v -38.320599 84.230576 128.272018
v -44.266602 84.822174 124.929314
v -43.640598 84.822174 129.455322
v -38.477798 84.822174 128.165817
v -39.305099 84.822174 122.183914
v -48.151501 84.822174 125.914413
v -48.569199 84.822174 124.533012
v 540.996704 40.565773 175.271500
v 553.628784 40.565773 172.055099
v 548.104126 40.565777 150.363098
v 539.672180 40.565773 152.521500
v 541.964783 54.809673 166.204514
v 550.071777 54.809673 164.140320
v 547.025818 54.809677 152.180817
v 541.234680 54.809673 153.663208
v 545.542786 55.741074 154.680817
v 543.383728 55.741074 155.233521
v 543.870789 55.741074 163.599518
v 544.629517 55.741074 160.415619
v 544.801086 55.741074 163.362610
v 546.858093 55.741074 159.845108
v -140.756195 39.440411 -1276.997803
v -140.737000 39.440411 -1279.733765
v -141.569000 39.440411 -1279.828247
v -148.232300 39.440411 -1282.558472
v -141.550293 39.440411 -1282.510132
v -148.265106 39.440411 -1277.851685
v -147.655304 40.562511 -1278.392334
v -141.357498 40.562511 -1277.676147
v -141.346802 40.562511 -1279.193115
v -142.178802 40.562511 -1279.287720
v -145.840698 40.562511 -1280.289917
v -142.174698 40.562511 -1279.873047
v -147.630493 40.562511 -1281.948120
v -145.829193 40.562511 -1281.935059
v -592.971130 12.620098 -601.914978
v -585.167480 12.620099 -606.657227
v -589.796570 12.620101 -622.159180
v -602.606201 12.620101 -618.348328
v -592.661987 31.529699 -603.139221
v -587.909729 31.529699 -606.027222
v -596.025330 31.529701 -619.382019
v -601.270630 31.529701 -617.821472
v -591.928589 20.549999 -612.640625
v -588.500671 20.550001 -614.723816
v -590.392029 20.550001 -621.057983
v -596.025330 20.550001 -619.382019
v -596.562073 32.154499 -617.988892
v -599.487976 32.154499 -617.118408
v -592.249695 32.154499 -604.773071
v -593.616882 32.154499 -609.288330
v -591.305908 32.154499 -605.346680
v -591.633423 32.154499 -609.878479
v -590.898071 21.706902 -620.122192
v -594.875427 21.706902 -618.939026
v -591.676270 21.706900 -613.674622
v -590.800903 21.706902 -616.068970
v -589.974426 21.706902 -614.708923
v -589.778625 21.706902 -616.373108
vt 0.1232 0.2521
vt 0.0578 0.2521
vt 0.0000 0.6331
vt 0.8618 0.6331
vt 0.9400 0.1170
vt 0.1614 0.0000
vt 0.0000 1.0000
vt 0.7180 1.0000
vt 0.7180 0.0000
vt 0.0000 0.0000
vt 0.0000 1.0000
vt 1.0000 1.0000
vt 1.0000 0.0000
vt 0.0000 0.0000
vt 1.1365 0.7544
vt 1.1372 0.0021
vt 0.0248 0.0000
vt 0.0000 0.7544
vt 0.6372 0.0009
vt 0.0009 0.0000
vt 0.0000 1.0000
vt 0.6373 1.0000
vt 0.0000 1.0000
vt 1.0000 1.0000
vt 1.0000 0.0000
vt 0.0000 0.0000
vt 0.0000 1.0000
vt 1.0000 1.0000
vt 1.0000 0.0000
vt 0.0000 0.0000
vt 0.3175 0.3017
vt 0.0000 0.3017
vt 0.0000 0.6940
vt 1.7273 0.6940
vt 1.7273 0.0000
vt 0.3175 0.0000
vt 0.0000 1.0000
vt 0.8850 1.0000
vt 0.8850 0.0000
vt 0.0000 0.0000
vt 0.0000 1.0000
vt 1.0000 1.0000
vt 1.0000 0.0000
vt 0.0000 0.0000
vt 0.0000 0.0000
vt 0.0000 1.0000
vt 1.0000 1.0000
vt 1.0000 0.0000
vt 0.0000 0.3098
vt 0.0012 1.4877
vt 0.6895 1.4877
vt 0.6889 0.0000
vt 0.0124 0.2109
vt 0.6297 0.0000
vt 0.0011 0.0007
vt 0.0000 0.6559
vt 0.7472 0.6559
vt 0.6824 0.0200
vt 0.9993 0.0000
vt 0.0010 0.0009
vt 0.0000 1.0000
vt 1.0000 1.0000
vt 0.0000 1.0000
vt 0.6514 1.0000
vt 0.6514 0.0000
vt 0.0000 0.0000
vt 0.0000 1.0000
vt 1.0000 1.0000
vt 1.0000 0.0000
vt 0.0000 0.0000
vt 0.0000 1.0000
vt 1.0000 1.0000
vt 1.0000 0.0000
vt 0.0000 0.0000
vt 0.0000 0.0000
vt 0.0000 1.0000
vt 1.0000 1.0000
vt 1.0000 0.0000
vt 0.0067 0.0000
vt 0.0000 1.4080
vt 0.7013 1.4080
vt 0.7080 0.0019
vt -0.0000 0.7562
vt 1.1116 0.7562
vt 1.1298 0.0006
vt 0.0182 -0.0000
vt 0.0000 0.9918
vt 1.1906 0.9918
vt 1.1995 0.0017
vt 0.0090 0.0000
vt 0.0000 1.0589
vt 1.1345 1.0589
vt 1.1523 0.0000
vt 0.0178 0.0008
vt 0.0000 1.0000
vt 0.5822 1.0000
vt 0.5865 0.0000
vt 0.0042 0.0017
vt 0.0000 1.0000
vt 0.7707 1.0000
vt 0.7834 0.0008
vt 0.0127 0.0000
vt 0.0000 1.0000
vt 1.7053 1.0000
vt 1.7182 0.0017
vt 0.0129 0.0000
vt 0.0000 1.0000
vt 0.9844 1.0000
vt 1.0000 0.0000
vt 0.0156 0.0008
vt 0.0000 1.0000
vt 0.9832 1.0000
vt 0.9903 -0.0000
vt 0.0071 0.0017
vt 0.0000 1.0000
vt 0.9837 1.0000
vt 1.0000 0.0007
vt 0.0163 0.0000
vt 0.0000 1.0000
vt 1.1502 1.0000
vt 1.1589 0.0017
vt 0.0087 0.0000
vt 0.0000 1.0000
vt 0.9843 1.0000
vt 1.0000 0.0000
vt 0.0157 0.0007
vt 0.0000 1.0000
vt 0.9928 1.0000
vt 1.0000 0.0000
vt 0.0072 0.0017
vt 0.0000 1.0000
vt 0.9893 1.0000
vt 1.0000 0.3405
vt 0.4885 0.3405
vt 0.4940 0.0003
vt 0.0163 0.0000
vt 0.4664 0.6305
vt 0.4704 -0.0000
vt 0.0063 0.0009
vt 0.0000 1.0000
vt 1.0000 0.6305
vt 0.9977 1.0000
vt 0.0000 1.0475
vt 1.4172 1.0475
vt 1.4181 0.6090
vt 1.2485 0.6090
vt 1.2505 0.0000
vt 0.0034 0.0020
vt 0.0000 1.0000
vt 0.8616 1.0000
vt 0.8616 -0.0000
vt 0.0000 0.0000
vt 0.0000 1.0000
vt 1.0000 1.0000
vt 1.0000 0.0000
vt 0.0000 0.0000
vt 0.0000 1.0000
vt 0.8051 1.0000
vt 0.8053 0.4974
vt 0.7595 0.4974
vt 0.7597 0.0016
vt 0.0004 0.0000
vt 0.5955 0.6538
vt 0.5956 0.4578
vt 0.4876 0.4578
vt 0.0003 0.0000
vt 0.4877 0.0015
vt 0.0000 1.0000
vt 0.6381 0.6538
vt 0.6379 1.0000
vt 1.0739 0.0012
vt 0.0768 -0.0000
vt 0.0000 1.0911
vt 0.9985 1.0911
vt 0.6824 0.7932
vt 0.6434 0.0000
vt 0.0000 0.0017
vt 0.0385 0.7932
vt 0.0000 0.7887
vt 0.5627 0.7887
vt 0.5958 0.0011
vt 0.0337 0.0000
vt -0.0000 0.0012
vt 0.0470 0.5322
vt 0.8580 0.5322
vt 0.8104 -0.0000
vt 0.9614 0.0016
vt 0.0551 0.0000
vt -0.0000 1.1944
vt 0.9072 1.1944
vt 1.0596 1.0000
vt 1.0026 0.0000
vt 0.0000 0.0023
vt 0.0563 1.0000
vt 0.0000 1.0000
vt 1.2222 1.0000
vt 1.2962 0.0013
vt 0.0753 0.0000
vt 0.0000 0.0023
vt 0.0543 1.0000
vt 1.0543 1.0000
vt 0.9993 0.0000
vt 0.9050 0.0013
vt 0.0533 -0.0000
vt 0.0000 1.0000
vt 0.8526 1.0000
vt 0.0000 1.0000
vt 0.9413 1.0000
vt 1.0000 0.0013
vt 0.0597 0.0000
vt 0.0000 1.0000
vt 1.0000 1.0000
vt 1.0000 0.0000
vt 0.0000 0.0000
vt 1.0000 0.0013
vt 0.0606 0.0000
vt 0.0000 1.0000
vt 0.9405 1.0000
vt 0.0000 1.0000
vt 1.0000 1.0000
vt 1.0000 0.0000
vt 0.0000 0.0000
vt 0.0000 1.0000
vt 0.9686 1.0000
vt 1.0000 0.4611
vt 0.6198 0.4611
vt 0.6470 0.0008
vt 0.0593 0.0000
vt 0.0005 1.3973
vt 1.0998 1.3973
vt 1.0996 0.0000
vt 0.0000 0.0028
vt 0.0003 0.0000
vt 0.0000 0.9232
vt 1.1407 0.9232
vt 1.1396 -0.0000
vt 0.0003 0.6127
vt 0.9373 0.6127
vt 0.9373 0.0000
vt -0.0000 0.0008
vt 0.0000 1.0000
vt 1.0000 1.0000
vt 0.9997 0.6781
vt 0.6199 0.6781
vt 0.6200 0.0000
vt 0.0003 0.0000
vt 0.0000 1.0000
vt 0.9995 1.0000
vt 1.0000 0.0000
vt 0.0003 0.0000
vt 0.0014 1.0000
vt 1.0000 1.0000
vt 0.9986 0.0000
vt -0.0000 0.0019
vt 0.0078 0.8050
vt 0.0000 1.2262
vt 0.0003 1.3157
vt 1.0098 1.3157
vt 1.0287 0.3735
vt 0.0606 0.0000
vt 0.0272 0.3958
vt 0.0000 1.0000
vt 0.8128 1.0000
vt 0.7894 0.0050
vt 0.0577 0.0000
vt 0.3695 0.7598
vt 0.4036 0.0032
vt 0.0450 0.0000
vt 0.0000 1.0000
vt 0.6396 0.7598
vt 0.6440 1.0000
vt 0.7906 1.3392
vt 0.7105 0.0000
vt 0.0000 0.4452
vt 0.0538 1.3392
vt 1.0541 0.5594
vt 0.9319 -0.0000
vt 0.0000 0.1598
vt 0.0879 0.5594
vt 0.0000 0.3165
vt 0.0312 1.0000
vt 0.6437 1.0000
vt 0.4146 0.7055
vt 0.6303 0.7055
vt 0.3824 0.0000
vt 0.5690 1.0000
vt 0.5485 0.4950
vt 0.4894 0.4950
vt 0.0000 0.1312
vt 0.4693 0.0000
vt 0.0353 1.0000
vt 0.0562 1.0000
vt 1.0000 1.0000
vt 0.9761 0.5952
vt 0.8514 0.5952
vt 0.2927 0.4390
vt 0.8421 0.4390
vt -0.0000 0.0511
vt 0.2667 0.0000
vt 1.0740 1.1033
vt 1.0659 0.3271
vt 0.1799 0.0000
vt 0.0000 1.1033
vt 0.9968 1.0000
vt 0.9916 -0.0000
vt 0.0765 0.0443
vt 0.0000 1.0000
vt 0.5400 1.0000
vt 0.5400 0.2943
vt 0.1022 0.0000
vt 0.0000 1.0000
vt 0.0609 0.0480
vt 0.0000 1.0000
vt 1.1960 1.0000
vt 0.8127 0.6454
vt 1.1946 0.6454
vt 0.8540 0.0000
vt 0.1712 0.0000
vt 0.0000 1.0000
vt 1.0000 1.0000
vt 0.7416 0.5038
vt 1.0000 0.5038
vt 0.7856 0.2468
vn 0.0000 1.0000 0.0000
g CityEngineMaterial_373_CityEngineMaterial_373_CityEngineMaterial_373_mat
usemtl CityEngineMaterial_373_mat
s 1
f 1/1/1 2/2/1 3/3/1 4/4/1
f 1/1/1 4/4/1 5/5/1 6/6/1
f 7/7/1 8/8/1 9/9/1 10/10/1
f 11/11/1 12/12/1 13/13/1 14/14/1
f 15/15/1 16/16/1 17/17/1 18/18/1
f 19/19/1 20/20/1 21/21/1 22/22/1
f 23/23/1 24/24/1 25/25/1 26/26/1
f 27/27/1 25/28/1 28/29/1 29/30/1
f 30/31/1 31/32/1 32/33/1 33/34/1
f 30/31/1 33/34/1 34/35/1 35/36/1
f 36/37/1 37/38/1 38/39/1 39/40/1
f 39/41/1 40/42/1 41/43/1 42/44/1
f 43/45/1 38/46/1 44/47/1 45/48/1
f 46/49/1 47/50/1 48/51/1 49/52/1
f 46/49/1 49/52/1 50/53/1
f 51/54/1 52/55/1 53/56/1 54/57/1
f 51/54/1 54/57/1 55/58/1
f 56/59/1 53/60/1 57/61/1 58/62/1
f 59/63/1 60/64/1 61/65/1 62/66/1
f 63/67/1 64/68/1 65/69/1 66/70/1
f 67/71/1 68/72/1 69/73/1 70/74/1
f 71/75/1 72/76/1 73/77/1 74/78/1
f 75/79/1 76/80/1 77/81/1 78/82/1
f 79/83/1 80/84/1 81/85/1 82/86/1
f 83/87/1 84/88/1 85/89/1 86/90/1
f 87/91/1 88/92/1 89/93/1 90/94/1
f 91/95/1 92/96/1 93/97/1 94/98/1
f 95/99/1 96/100/1 97/101/1 98/102/1
f 99/103/1 100/104/1 101/105/1 102/106/1
f 103/107/1 104/108/1 105/109/1 106/110/1
f 107/111/1 108/112/1 109/113/1 110/114/1
f 111/115/1 112/116/1 113/117/1 114/118/1
f 115/119/1 116/120/1 117/121/1 118/122/1
f 119/123/1 120/124/1 121/125/1 122/126/1
f 123/127/1 124/128/1 125/129/1 126/130/1
f 127/131/1 128/132/1 129/133/1 130/134/1
f 127/131/1 130/134/1 131/135/1 132/136/1
f 133/137/1 134/138/1 135/139/1 136/140/1
f 137/141/1 133/137/1 136/140/1 138/142/1
f 139/143/1 140/144/1 141/145/1 142/146/1
f 139/143/1 142/146/1 143/147/1 144/148/1
f 145/149/1 146/150/1 147/151/1 148/152/1
f 149/153/1 150/154/1 151/155/1 152/156/1
f 153/157/1 154/158/1 155/159/1 156/160/1
f 153/157/1 156/160/1 157/161/1 158/162/1
f 159/163/1 160/164/1 161/165/1 162/166/1
f 161/165/1 163/167/1 162/166/1
f 159/163/1 162/166/1 164/168/1 165/169/1
f 165/169/1 164/168/1 166/170/1
f 167/171/1 168/172/1 169/173/1 170/174/1
f 171/175/1 172/176/1 173/177/1 174/178/1
f 175/179/1 176/180/1 177/181/1 178/182/1
f 179/183/1 180/184/1 181/185/1 182/186/1
f 183/187/1 184/188/1 185/189/1 186/190/1
f 187/191/1 188/192/1 189/193/1 190/194/1
f 191/195/1 192/196/1 193/197/1 194/198/1
f 195/199/1 196/200/1 197/201/1 198/202/1
f 199/203/1 200/204/1 201/205/1 202/206/1
f 203/207/1 204/208/1 205/209/1 206/210/1
f 207/211/1 208/212/1 209/213/1 210/214/1
f 211/215/1 212/216/1 213/217/1 214/218/1
f 210/219/1 215/220/1 216/221/1 217/222/1
f 218/223/1 219/224/1 220/225/1 221/226/1
f 218/223/1 221/226/1 222/227/1 223/228/1
f 224/229/1 225/230/1 226/231/1 227/232/1
f 228/233/1 229/234/1 230/235/1 231/236/1
f 232/237/1 233/238/1 234/239/1 235/240/1
f 236/241/1 237/242/1 238/243/1 239/244/1
f 236/241/1 239/244/1 240/245/1 241/246/1
f 242/247/1 243/248/1 244/249/1 245/250/1
f 246/251/1 247/252/1 248/253/1 249/254/1
f 250/255/1 251/256/1 252/257/1 253/258/1
f 250/255/1 253/258/1 254/259/1 255/260/1
f 250/255/1 255/260/1 256/261/1
f 257/262/1 258/263/1 259/264/1 260/265/1
f 261/266/1 262/267/1 263/268/1 264/269/1
f 265/270/1 261/266/1 264/269/1 266/271/1
f 267/272/1 268/273/1 269/274/1 270/275/1
f 271/276/1 272/277/1 273/278/1 274/279/1
f 275/280/1 276/281/1 277/282/1 278/283/1
f 277/282/1 279/284/1 278/283/1
f 280/285/1 275/280/1 278/283/1
f 281/286/1 282/287/1 283/288/1 284/289/1
f 283/288/1 285/290/1 284/289/1
f 281/286/1 284/289/1 286/291/1
f 287/292/1 288/293/1 289/294/1 290/295/1
f 291/296/1 287/292/1 290/295/1 292/297/1
f 293/298/1 287/292/1 291/296/1 294/299/1
f 295/300/1 296/301/1 297/302/1 298/303/1
f 299/304/1 300/305/1 301/306/1 302/307/1
f 303/308/1 304/309/1 305/310/1 306/311/1
f 307/312/1 308/313/1 309/314/1 310/315/1
f 309/314/1 311/316/1 310/315/1
f 307/312/1 310/315/1 312/317/1
f 313/318/1 314/319/1 315/320/1 316/321/1
f 315/320/1 317/322/1 316/321/1
f 313/318/1 316/321/1 318/323/1
