# Blender v2.78 (sub 0) OBJ File: ''
# www.blender.org
mtllib CityEngineMaterial_501.mtl
o CityEngineMaterial_501
v -65.587898 41.456238 -848.715271
v -62.333302 41.456234 -827.932373
v -62.333302 44.886234 -827.932373
v -65.587898 44.886238 -848.715271
v -49.001900 41.456234 -830.017517
v -49.001900 44.886234 -830.017517
v -52.289700 41.456238 -850.797791
v -52.289700 44.886238 -850.797791
v 460.272308 55.692127 -152.329483
v 458.277893 55.692123 -151.986984
v 458.277893 59.185722 -151.986984
v 460.272308 59.185726 -152.329483
v 458.855499 55.692123 -148.583481
v 458.855499 59.185722 -148.583481
v 473.688202 55.692123 -151.130783
v 473.688202 59.185722 -151.130783
v 471.858093 55.692127 -161.817688
v 471.858093 59.185726 -161.817688
v 457.041107 55.692127 -159.273590
v 457.041107 59.185726 -159.273590
v 457.679688 55.692127 -155.511780
v 457.679688 59.185726 -155.511780
v 459.668793 55.692127 -155.853287
v 459.668793 59.185726 -155.853287
v 824.578918 97.681541 -234.724777
v 825.319885 97.681541 -229.761383
v 825.319885 101.346039 -229.761383
v 824.578918 101.346039 -234.724777
v 842.521301 97.681541 -232.399979
v 842.521301 101.346039 -232.399979
v 841.716675 97.681541 -237.364578
v 841.716675 101.346039 -237.364578
v 835.872620 97.681541 -236.464386
v 835.872620 101.346039 -236.464386
v 836.029419 97.681541 -235.496887
v 836.029419 101.346039 -235.496887
v 828.959473 97.681541 -234.412384
v 828.959473 101.346039 -234.412384
v 828.815308 97.681541 -235.377380
v 828.815308 101.346039 -235.377380
v 502.312592 20.458422 481.790802
v 506.547913 20.458418 502.000305
v 506.547913 24.649517 502.000305
v 502.312592 24.649521 481.790802
v 523.614624 20.458418 498.624298
v 523.614624 24.649517 498.624298
v 519.321472 20.458422 478.210114
v 519.321472 24.649521 478.210114
v 287.146698 48.076431 -790.283020
v 292.589813 48.076431 -791.130676
v 292.589813 51.538330 -791.130676
v 287.146698 51.538330 -790.283020
v 293.232086 48.076431 -803.691711
v 293.232086 51.538330 -803.691711
v 284.640289 48.076431 -802.346130
v 284.640289 51.538330 -802.346191
v 286.170502 48.076431 -792.471375
v 286.170502 51.538330 -792.471375
v 287.267303 48.076431 -792.643188
v 287.267303 51.538330 -792.643188
v 182.630096 44.748589 -527.444214
v 181.204300 44.748589 -536.544373
v 181.204300 48.910488 -536.544373
v 182.630096 48.910488 -527.444214
v 170.291000 44.748589 -534.835388
v 170.291000 48.910488 -534.835388
v 171.222794 44.748589 -528.888184
v 171.222794 48.910488 -528.888184
v 166.972107 44.748589 -528.230774
v 166.972107 48.910488 -528.230774
v 167.469498 44.748585 -525.099670
v 167.469498 48.910484 -525.099670
v 867.360229 80.362816 -77.856087
v 857.884583 80.362816 -86.876884
v 857.884583 83.398415 -86.876884
v 867.360229 83.398415 -77.856087
v 847.609680 80.362816 -85.300285
v 847.609680 83.398415 -85.300285
v 851.416321 80.362808 -60.485790
v 851.416321 83.398407 -60.485786
v -504.204407 2.913266 206.975098
v -503.187988 2.913261 236.771393
v -503.187988 6.022361 236.771393
v -504.204407 6.022366 206.975098
v -489.730103 2.913262 236.310699
v -489.730103 6.022361 236.310699
v -490.760895 2.913266 206.523804
v -490.760895 6.022366 206.523804
v -61.933899 35.833874 -1080.097900
v -67.023300 35.833874 -1079.553711
v -67.023300 38.971577 -1079.553711
v -61.933899 38.971577 -1080.097900
v -66.684402 35.833874 -1073.700317
v -66.684402 38.971577 -1073.700317
v -57.822899 35.833874 -1074.647705
v -57.822899 38.971577 -1074.647705
v -58.651600 35.833878 -1088.957642
v -58.651600 38.971581 -1088.957642
v -62.423599 35.833874 -1088.553345
v -62.423599 38.971577 -1088.553345
v -591.414001 3.166566 210.260895
v -589.602783 3.166566 210.058105
v -589.602783 6.391066 210.058105
v -591.414001 6.391066 210.260895
v -589.408203 3.166565 212.262100
v -589.408203 6.391065 212.262100
v -578.739014 3.166566 211.319794
v -578.739014 6.391066 211.319794
v -579.174927 3.166566 206.384995
v -579.174927 6.391066 206.384995
v -591.633179 3.166566 207.779907
v -591.633179 6.391066 207.779907
v -574.591370 6.473308 566.698303
v -574.472595 6.473309 562.792786
v -574.472595 9.684809 562.792786
v -574.591370 9.684808 566.698303
v -582.188904 6.473309 562.558716
v -582.188904 9.684809 562.558716
v -582.421021 6.473307 570.234497
v -582.421021 9.684808 570.234497
v -575.837585 6.473307 570.435974
v -575.837585 9.684808 570.435974
v -575.723572 6.473308 566.664001
v -575.723572 9.684808 566.664001
v 682.155823 34.046246 327.967590
v 698.264771 34.046246 324.194794
v 698.264771 36.932747 324.194794
v 682.155823 36.932747 327.967590
v 693.312622 34.046249 300.587006
v 693.312622 36.932751 300.587006
v 677.098999 34.046249 303.993805
v 677.098999 36.932751 303.993805
v 1149.484131 101.085892 -550.263916
v 1153.052246 101.085892 -553.135925
v 1153.052246 104.170090 -553.135925
v 1149.484131 104.170090 -550.263916
v 1149.965820 101.085892 -556.974487
v 1149.965820 104.170090 -556.974487
v 1154.557739 101.085892 -560.670288
v 1154.557739 104.170090 -560.670288
v 1152.704102 101.085892 -565.050720
v 1152.704102 104.170090 -565.050720
v 1143.531250 101.085892 -557.667603
v 1143.531250 104.170090 -557.667603
v -629.660583 3.166458 260.807404
v -608.298828 3.166457 262.045288
v -608.298828 5.974257 262.045288
v -629.660583 5.974257 260.807404
v -617.823486 3.166560 242.376495
v -617.823486 5.974260 242.376495
v -617.989380 3.166561 241.973495
v -617.989380 5.974260 241.973495
v -618.106079 3.166561 241.553207
v -618.106079 5.974260 241.553207
v -618.166626 3.166561 241.163406
v -618.166626 5.974261 241.163406
v -630.580627 3.166561 241.771896
v -630.580627 5.974260 241.771896
v -769.206482 3.784070 184.398407
v -764.534424 3.784070 183.579605
v -764.534424 7.036470 183.579605
v -769.206482 7.036470 184.398407
v -764.050476 3.784070 186.340607
v -764.050476 7.036469 186.340607
v -761.541382 3.784070 185.900803
v -761.541382 7.036469 185.900803
v -764.161804 3.784072 170.947906
v -764.161804 7.036472 170.947906
v -771.350891 3.784072 172.207794
v -771.350891 7.036472 172.207794
v -469.868988 5.347502 603.724670
v -469.079010 5.347502 598.581970
v -469.079010 9.440702 598.581970
v -469.868988 9.440701 603.724670
v -470.494385 5.347503 598.364319
v -470.494385 9.440702 598.364319
v -470.164215 5.347503 596.215271
v -470.164215 9.440702 596.215271
v -481.321899 5.347503 595.450012
v -481.321899 9.440702 595.450012
v -482.299500 5.347502 601.813416
v -482.299500 9.440701 601.813416
v 234.154007 43.831760 -380.515106
v 235.788498 43.831757 -355.327515
v 235.788498 47.784058 -355.327515
v 234.154007 47.784061 -380.515106
v 251.659897 43.831757 -356.341705
v 251.659897 47.784058 -356.341705
v 250.324203 43.831760 -380.898407
v 250.324203 47.784061 -380.898407
v 97.596802 34.708660 -368.257904
v 98.657600 34.708656 -360.697205
v 98.657600 38.660656 -360.697205
v 97.596802 38.660660 -368.257904
v 103.175102 34.708656 -361.331696
v 103.175102 38.660656 -361.331696
v 102.914200 34.708660 -363.191101
v 102.914200 38.660660 -363.191101
v 105.033401 34.708660 -363.433685
v 105.033401 38.660660 -363.433685
v 104.219299 34.708660 -369.015991
v 104.219299 38.660660 -369.015991
v -690.064575 25.887743 -877.982422
v -688.943420 25.887743 -874.312378
v -688.943420 28.437943 -874.312378
v -690.064575 28.437943 -877.982422
v -687.498718 25.887741 -869.531311
v -687.498718 28.437941 -869.531311
v -681.627808 25.887741 -871.306030
v -681.627808 28.437941 -871.306030
v -682.288513 25.887743 -873.492615
v -682.288513 28.437943 -873.492615
v -669.328125 25.887743 -877.402588
v -669.328125 28.437943 -877.402588
v -671.204529 25.887743 -883.672424
v -671.204529 28.437943 -883.672424
vt 0.1667 -0.0000
vt 3.5000 0.0000
vt 3.5000 1.0000
vt 0.1667 1.0000
vt 0.8333 -0.0000
vt 3.0000 0.0000
vt 3.0000 1.0000
vt 0.8333 1.0000
vt 0.6667 0.0000
vt 4.0000 -0.0000
vt 4.0000 1.0000
vt 0.6667 1.0000
vt 0.5000 0.0000
vt 2.6667 0.0000
vt 2.6667 1.0000
vt 0.5000 1.0000
vt 0.5000 0.0000
vt 0.8333 -0.0000
vt 0.8333 1.0000
vt 0.5000 1.0000
vt 0.1667 -0.0000
vt 0.6667 0.0000
vt 0.6667 1.0000
vt 0.1667 1.0000
vt 0.3333 0.0000
vt 2.8333 -0.0000
vt 2.8333 1.0000
vt 0.3333 1.0000
vt 0.8333 -0.0000
vt 2.6667 0.0000
vt 2.6667 1.0000
vt 0.8333 1.0000
vt 0.6667 0.0000
vt 3.1667 -0.0000
vt 3.1667 1.0000
vt 0.6667 1.0000
vt 0.6667 0.0000
vt 1.3333 0.0000
vt 1.3333 1.0000
vt 0.6667 1.0000
vt 0.3333 0.0000
vt 0.6667 0.0000
vt 0.6667 1.0000
vt 0.3333 1.0000
vt 1.3333 0.0000
vt 1.3333 1.0000
vt 0.6667 0.0000
vt 1.3333 0.0000
vt 1.3333 1.0000
vt 0.6667 1.0000
vt 0.5000 0.0000
vt 2.6667 0.0000
vt 2.6667 1.0000
vt 0.5000 1.0000
vt 0.3333 0.0000
vt 1.0000 0.0000
vt 1.0000 1.0000
vt 0.3333 1.0000
vt 0.3333 0.0000
vt 1.1667 0.0000
vt 1.1667 1.0000
vt 0.3333 1.0000
vt -0.0000 0.0000
vt 0.1667 -0.0000
vt 0.1667 1.0000
vt -0.0000 1.0000
vt 0.3333 0.0000
vt 1.1667 0.0000
vt 1.1667 1.0000
vt 0.3333 1.0000
vt -0.0000 0.0000
vt 0.1667 -0.0000
vt 0.1667 1.0000
vt -0.0000 1.0000
vt 0.5000 0.0000
vt 4.3333 0.0000
vt 4.3333 1.0000
vt 0.5000 1.0000
vt 0.3333 0.0000
vt 3.5000 0.0000
vt 3.5000 1.0000
vt 0.3333 1.0000
vt 0.1667 -0.0000
vt 4.0000 -0.0000
vt 4.0000 1.0000
vt 0.1667 1.0000
vt 0.1667 -0.0000
vt 3.3333 0.0000
vt 3.3333 1.0000
vt 0.1667 1.0000
vt 0.6667 0.0000
vt 1.3333 0.0000
vt 1.3333 1.0000
vt 0.6667 1.0000
vt 0.8333 -0.0000
vt 2.3333 0.0000
vt 2.3333 1.0000
vt 0.8333 1.0000
vt 0.6667 0.0000
vt 1.8333 0.0000
vt 1.8333 1.0000
vt 0.6667 1.0000
vt 0.1667 -0.0000
vt 1.5000 -0.0000
vt 1.5000 1.0000
vt 0.1667 1.0000
vt 0.8333 -0.0000
vt 1.0000 0.0000
vt 1.0000 1.0000
vt 0.8333 1.0000
vt 0.3333 0.0000
vt 0.3333 1.0000
vt 0.6667 0.0000
vt 2.3333 0.0000
vt 2.3333 1.0000
vt 0.6667 1.0000
vt 0.5000 0.0000
vt 2.5000 0.0000
vt 2.5000 1.0000
vt 0.5000 1.0000
vt 0.1667 -0.0000
vt 1.3333 0.0000
vt 1.3333 1.0000
vt 0.1667 1.0000
vt 0.8333 -0.0000
vt 1.6667 0.0000
vt 1.6667 1.0000
vt 0.8333 1.0000
vt 0.8333 -0.0000
vt 1.5000 -0.0000
vt 1.5000 1.0000
vt 0.8333 1.0000
vt 0.5000 0.0000
vt 3.3333 0.0000
vt 3.3333 1.0000
vt 0.5000 1.0000
vt 0.8333 -0.0000
vt 3.0000 0.0000
vt 3.0000 1.0000
vt 0.8333 1.0000
vt 0.6667 0.0000
vt 2.5000 0.0000
vt 2.5000 1.0000
vt 0.6667 1.0000
vt 0.3333 0.0000
vt 4.5000 0.0000
vt 4.5000 1.0000
vt 0.3333 1.0000
vt 0.1667 -0.0000
vt 4.1667 0.0000
vt 4.1667 1.0000
vt 0.1667 1.0000
vt 0.3333 0.0000
vt 4.0000 -0.0000
vt 4.0000 0.5000
vt 0.3333 0.5000
vt 0.6667 0.0000
vt 2.3333 0.0000
vt 2.3333 0.5000
vt 0.6667 0.5000
vt -0.0000 0.0000
vt 3.6667 -0.0000
vt 3.6667 0.5000
vt -0.0000 0.5000
vt 0.5000 0.0000
vt 2.1667 -0.0000
vt 2.1667 0.5000
vt 0.5000 0.5000
vt 0.8333 -0.0000
vt 1.5000 -0.0000
vt 1.5000 1.0000
vt 0.8333 1.0000
vt 0.5000 0.0000
vt 1.3333 0.0000
vt 1.3333 1.0000
vt 0.5000 1.0000
vt -0.0000 0.0000
vt 1.1667 0.0000
vt 1.1667 1.0000
vt -0.0000 1.0000
vt 0.6667 0.0000
vt 2.5000 0.0000
vt 2.5000 1.0000
vt 0.6667 1.0000
vt 0.5000 0.0000
vt 1.0000 0.0000
vt 1.0000 1.0000
vt 0.5000 1.0000
vt 0.6667 0.0000
vt 1.8333 0.0000
vt 1.8333 1.0000
vt 0.6667 1.0000
vt 0.5000 0.0000
vt 0.8333 -0.0000
vt 0.8333 1.0000
vt 0.5000 1.0000
vt 0.1667 -0.0000
vt 0.5000 0.0000
vt 0.5000 1.0000
vt 0.1667 1.0000
vt 0.6667 0.0000
vt 2.3333 0.0000
vt 2.3333 1.0000
vt 0.6667 1.0000
vt -0.0000 0.0000
vt 0.8333 -0.0000
vt 0.8333 1.0000
vt -0.0000 1.0000
vt 0.6667 0.0000
vt 2.6667 0.0000
vt 2.6667 1.0000
vt 0.6667 1.0000
vt 0.1667 -0.0000
vt 0.1667 1.0000
vt 0.1667 -0.0000
vt 0.6667 0.0000
vt 0.6667 1.0000
vt 0.1667 1.0000
vt 0.5000 0.0000
vt 1.6667 0.0000
vt 1.6667 1.0000
vt 0.5000 1.0000
vt 0.1667 -0.0000
vt 1.3333 0.0000
vt 1.3333 1.0000
vt 0.1667 1.0000
vt 0.8333 -0.0000
vt 1.8333 0.0000
vt 1.8333 1.0000
vt 0.8333 1.0000
vt 0.5000 0.0000
vt 1.0000 0.0000
vt 1.0000 1.0000
vt 0.5000 1.0000
vt 0.5000 0.0000
vt 0.6667 0.0000
vt 0.6667 1.0000
vt 0.5000 1.0000
vt 0.5000 0.0000
vt 2.3333 0.0000
vt 2.3333 0.5000
vt 0.5000 0.5000
vt 0.5000 0.0000
vt 3.1667 -0.0000
vt 3.1667 0.5000
vt 0.5000 0.5000
vt 0.8333 -0.0000
vt 2.6667 0.0000
vt 2.6667 0.5000
vt 0.8333 0.5000
vt 0.3333 0.0000
vt 3.1667 -0.0000
vt 3.1667 0.5000
vt 0.3333 0.5000
vt 0.1667 -0.0000
vt 0.8333 -0.0000
vt 0.8333 1.0000
vt 0.1667 1.0000
vt 0.3333 0.0000
vt 1.0000 0.0000
vt 1.0000 1.0000
vt 0.3333 1.0000
vt 0.6667 0.0000
vt 1.5000 -0.0000
vt 1.5000 1.0000
vt 0.6667 1.0000
vt 0.5000 0.0000
vt 1.1667 0.0000
vt 1.1667 1.0000
vt 0.5000 1.0000
vt 0.8333 -0.0000
vt 2.5000 0.0000
vt 2.5000 1.0000
vt 0.8333 1.0000
vt 0.3333 0.0000
vt 1.6667 0.0000
vt 1.6667 1.0000
vt 0.3333 1.0000
vt 0.3333 0.0000
vt 2.6667 0.0000
vt 2.6667 0.5000
vt 0.3333 0.5000
vt 0.8333 -0.0000
vt 3.1667 -0.0000
vt 3.1667 0.5000
vt 0.8333 0.5000
vt 0.5000 0.0000
vt 0.5333 -0.0000
vt 0.5333 0.5000
vt 0.5000 0.5000
vt -0.0000 0.0000
vt 0.0333 0.0000
vt 0.0333 0.5000
vt -0.0000 0.5000
vt 0.8333 -0.0000
vt 0.8667 0.0000
vt 0.8667 0.5000
vt 0.8333 0.5000
vt 0.5000 0.0000
vt 1.8333 0.0000
vt 1.8333 0.5000
vt 0.5000 0.5000
vt 0.3333 0.0000
vt 2.5000 0.0000
vt 2.5000 0.5000
vt 0.3333 0.5000
vt 0.8333 -0.0000
vt 1.5000 -0.0000
vt 1.5000 1.0000
vt 0.8333 1.0000
vt -0.0000 0.0000
vt 0.5000 0.0000
vt 0.5000 1.0000
vt -0.0000 1.0000
vt 0.1667 -0.0000
vt 0.5000 0.0000
vt 0.5000 1.0000
vt 0.1667 1.0000
vt 0.3333 0.0000
vt 2.6667 0.0000
vt 2.6667 1.0000
vt 0.3333 1.0000
vt 0.3333 0.0000
vt 1.5000 -0.0000
vt 1.5000 1.0000
vt 0.3333 1.0000
vt 0.8333 -0.0000
vt 2.6667 0.0000
vt 2.6667 1.0000
vt 0.8333 1.0000
vt 0.1667 -0.0000
vt 0.8333 -0.0000
vt 0.8333 1.0000
vt 0.1667 1.0000
vt 0.1667 -0.0000
vt 0.3333 0.0000
vt 0.3333 1.0000
vt 0.1667 1.0000
vt 0.1667 -0.0000
vt 0.5000 0.0000
vt 0.5000 1.0000
vt 0.1667 1.0000
vt 0.1667 -0.0000
vt 1.6667 0.0000
vt 1.6667 1.0000
vt 0.1667 1.0000
vt 0.5000 0.0000
vt 1.3333 0.0000
vt 1.3333 1.0000
vt 0.5000 1.0000
vt 0.6667 0.0000
vt 2.3333 0.0000
vt 2.3333 1.0000
vt 0.6667 1.0000
vt 0.6667 0.0000
vt 4.1667 0.0000
vt 4.1667 1.0000
vt 0.6667 1.0000
vt -0.0000 0.0000
vt 2.1667 -0.0000
vt 2.1667 1.0000
vt -0.0000 1.0000
vt -0.0000 0.0000
vt 3.3333 0.0000
vt 3.3333 1.0000
vt -0.0000 1.0000
vt 0.6667 0.0000
vt 2.8333 -0.0000
vt 2.8333 1.0000
vt 0.6667 1.0000
vt 0.6667 0.0000
vt 1.5000 -0.0000
vt 1.5000 1.0000
vt 0.6667 1.0000
vt 0.6667 0.0000
vt 1.1667 0.0000
vt 1.1667 1.0000
vt 0.6667 1.0000
vt 0.3333 0.0000
vt 0.5000 0.0000
vt 0.5000 1.0000
vt 0.3333 1.0000
vt 0.3333 0.0000
vt 0.5000 0.0000
vt 0.5000 1.0000
vt 0.3333 1.0000
vt -0.0000 0.0000
vt 0.6667 0.0000
vt 0.6667 1.0000
vt -0.0000 1.0000
vt 1.5000 -0.0000
vt 1.5000 1.0000
vt 0.8333 -0.0000
vt 1.5000 -0.0000
vt 1.5000 1.0000
vt 0.8333 1.0000
vt 0.8333 -0.0000
vt 1.6667 0.0000
vt 1.6667 1.0000
vt 0.8333 1.0000
vt 0.5000 0.0000
vt 1.5000 -0.0000
vt 1.5000 1.0000
vt 0.5000 1.0000
vt 0.1667 -0.0000
vt 0.5000 0.0000
vt 0.5000 1.0000
vt 0.1667 1.0000
vt 2.6667 0.0000
vt 2.6667 1.0000
vt 0.1667 -0.0000
vt 1.1667 0.0000
vt 1.1667 1.0000
vt 0.1667 1.0000
vt 0.5000 0.0000
vt 3.5000 0.0000
vt 3.5000 1.0000
vt 0.5000 1.0000
vn -0.9880 0.0000 0.1547
vn 0.1545 0.0000 0.9880
vn 0.9877 0.0000 -0.1563
vn -0.1547 0.0000 -0.9880
vn -0.1693 0.0000 -0.9856
vn -0.9859 0.0000 0.1673
vn 0.1693 0.0000 0.9856
vn 0.9857 0.0000 -0.1688
vn -0.1692 0.0000 -0.9856
vn -0.9859 0.0000 0.1674
vn 0.1692 0.0000 0.9856
vn -0.9856 0.0000 0.1688
vn -0.9890 0.0000 0.1477
vn 0.1516 0.0000 0.9884
vn 0.9871 0.0000 -0.1600
vn -0.1522 0.0000 -0.9883
vn -0.9871 0.0000 0.1600
vn -0.1516 0.0000 -0.9884
vn 0.9890 0.0000 -0.1478
vn -0.1523 0.0000 -0.9883
vn -0.9787 0.0000 0.2051
vn 0.1941 0.0000 0.9810
vn 0.9786 0.0000 -0.2058
vn -0.2060 0.0000 -0.9786
vn 0.1539 0.0000 0.9881
vn 0.9987 0.0000 0.0511
vn -0.9882 0.0000 0.1531
vn 0.1547 0.0000 0.9880
vn -0.9987 0.0000 -0.0510
vn 0.9879 0.0000 -0.1548
vn -0.9879 0.0000 0.1548
vn -0.1528 0.0000 -0.9883
vn -0.9876 0.0000 0.1569
vn 0.1528 0.0000 0.9883
vn 0.6895 0.0000 -0.7243
vn -0.1517 0.0000 -0.9884
vn -0.9884 0.0000 0.1516
vn 0.7367 0.0000 0.6762
vn -0.9994 0.0000 0.0341
vn 0.0342 0.0000 0.9994
vn 0.9994 0.0000 -0.0346
vn -0.0336 0.0000 -0.9994
vn -0.1063 0.0000 -0.9943
vn -0.9983 0.0000 0.0578
vn 0.1063 0.0000 0.9943
vn 0.9983 0.0000 -0.0578
vn -0.1066 0.0000 -0.9943
vn 0.1113 0.0000 0.9938
vn -0.9961 0.0000 0.0879
vn 0.0880 0.0000 0.9961
vn 0.9961 0.0000 -0.0880
vn -0.1113 0.0000 -0.9938
vn -0.9961 0.0000 0.0880
vn 0.9995 0.0000 0.0304
vn 0.0303 0.0000 -0.9995
vn -0.9995 0.0000 -0.0302
vn -0.0306 0.0000 0.9995
vn 0.9995 0.0000 0.0302
vn -0.0303 0.0000 0.9995
vn 0.2280 0.0000 0.9737
vn 0.9787 0.0000 -0.2053
vn -0.2056 0.0000 -0.9786
vn -0.9785 0.0000 0.2064
vn 0.6270 0.0000 0.7790
vn 0.7793 0.0000 -0.6266
vn 0.9209 0.0000 -0.3897
vn -0.6270 0.0000 -0.7790
vn -0.7793 0.0000 0.6266
vn -0.0579 0.0000 0.9983
vn 0.9000 0.0000 -0.4358
vn 0.9247 0.0000 -0.3807
vn 0.9635 0.0000 -0.2675
vn 0.9881 0.0000 -0.1535
vn -0.0490 0.0000 -0.9988
vn -0.9988 0.0000 0.0483
vn 0.1726 0.0000 0.9850
vn -0.9850 0.0000 0.1726
vn 0.1727 0.0000 0.9850
vn 0.9850 0.0000 -0.1726
vn -0.1726 0.0000 -0.9850
vn -0.9849 0.0000 0.1732
vn 0.9884 0.0000 0.1518
vn 0.1520 0.0000 -0.9884
vn 0.9884 0.0000 0.1519
vn 0.0684 0.0000 -0.9977
vn -0.9884 0.0000 -0.1518
vn -0.1520 0.0000 0.9884
vn -0.9979 0.0000 0.0648
vn 0.0638 0.0000 0.9980
vn 0.9985 0.0000 -0.0543
vn -0.0237 0.0000 -0.9997
vn -0.9903 0.0000 0.1389
vn 0.1391 0.0000 0.9903
vn 0.9903 0.0000 -0.1390
vn 0.1137 0.0000 0.9935
vn 0.9895 0.0000 -0.1443
vn -0.1137 0.0000 -0.9935
vn -0.9564 0.0000 0.2922
vn -0.9568 0.0000 0.2907
vn -0.9573 0.0000 0.2893
vn 0.2894 0.0000 0.9572
vn 0.9573 0.0000 -0.2892
vn 0.2888 0.0000 0.9574
vn 0.9580 0.0000 -0.2867
vn -0.2888 0.0000 -0.9574
g CityEngineMaterial_501_CityEngineMaterial_501_CityEngineMaterial_501_mat
usemtl CityEngineMaterial_501_mat
s 1
f 1/1/1 2/2/1 3/3/1 4/4/1
f 2/5/2 5/6/2 6/7/2 3/8/2
f 5/9/3 7/10/3 8/11/3 6/12/3
f 7/13/4 1/14/4 4/15/4 8/16/4
f 9/17/5 10/18/5 11/19/5 12/20/5
f 10/21/6 13/22/6 14/23/6 11/24/6
f 13/25/7 15/26/7 16/27/7 14/28/7
f 15/29/8 17/30/8 18/31/8 16/32/8
f 17/33/9 19/34/9 20/35/9 18/36/9
f 19/37/10 21/38/10 22/39/10 20/40/10
f 21/41/11 23/42/11 24/43/11 22/44/11
f 23/42/12 9/45/12 12/46/12 24/43/12
f 25/47/13 26/48/13 27/49/13 28/50/13
f 26/51/14 29/52/14 30/53/14 27/54/14
f 29/55/15 31/56/15 32/57/15 30/58/15
f 31/59/16 33/60/16 34/61/16 32/62/16
f 33/63/17 35/64/17 36/65/17 34/66/17
f 35/67/18 37/68/18 38/69/18 36/70/18
f 37/71/19 39/72/19 40/73/19 38/74/19
f 39/72/20 25/47/20 28/50/20 40/73/20
f 41/75/21 42/76/21 43/77/21 44/78/21
f 42/79/22 45/80/22 46/81/22 43/82/22
f 45/83/23 47/84/23 48/85/23 46/86/23
f 47/87/24 41/88/24 44/89/24 48/90/24
f 49/91/25 50/92/25 51/93/25 52/94/25
f 50/95/26 53/96/26 54/97/26 51/98/26
f 53/99/4 55/100/4 56/101/4 54/102/4
f 55/103/27 57/104/27 58/105/27 56/106/27
f 57/107/28 59/108/28 60/109/28 58/110/28
f 59/111/29 49/91/29 52/94/29 60/112/29
f 61/113/30 62/114/30 63/115/30 64/116/30
f 62/117/4 65/118/4 66/119/4 63/120/4
f 65/121/31 67/122/31 68/123/31 66/124/31
f 67/125/32 69/126/32 70/127/32 68/128/32
f 69/129/33 71/130/33 72/131/33 70/132/33
f 71/133/34 61/134/34 64/135/34 72/136/34
f 73/137/35 74/138/35 75/139/35 76/140/35
f 74/141/36 77/142/36 78/143/36 75/144/36
f 77/145/37 79/146/37 80/147/37 78/148/37
f 79/149/38 73/150/38 76/151/38 80/152/38
f 81/153/39 82/154/39 83/155/39 84/156/39
f 82/157/40 85/158/40 86/159/40 83/160/40
f 85/161/41 87/162/41 88/163/41 86/164/41
f 87/165/42 81/166/42 84/167/42 88/168/42
f 89/169/43 90/170/43 91/171/43 92/172/43
f 90/173/44 93/174/44 94/175/44 91/176/44
f 93/177/45 95/178/45 96/179/45 94/180/45
f 95/181/46 97/182/46 98/183/46 96/184/46
f 97/185/47 99/186/47 100/187/47 98/188/47
f 99/189/44 89/190/44 92/191/44 100/192/44
f 101/193/48 102/194/48 103/195/48 104/196/48
f 102/197/49 105/198/49 106/199/49 103/200/49
f 105/201/50 107/202/50 108/203/50 106/204/50
f 107/205/51 109/206/51 110/207/51 108/208/51
f 109/209/52 111/210/52 112/211/52 110/212/52
f 111/213/53 101/193/53 104/196/53 112/214/53
f 113/215/54 114/216/54 115/217/54 116/218/54
f 114/219/55 117/220/55 118/221/55 115/222/55
f 117/223/56 119/224/56 120/225/56 118/226/56
f 119/227/57 121/228/57 122/229/57 120/230/57
f 121/231/58 123/232/58 124/233/58 122/234/58
f 123/235/59 113/236/59 116/237/59 124/238/59
f 125/239/60 126/240/60 127/241/60 128/242/60
f 126/243/61 129/244/61 130/245/61 127/246/61
f 129/247/62 131/248/62 132/249/62 130/250/62
f 131/251/63 125/252/63 128/253/63 132/254/63
f 133/255/64 134/256/64 135/257/64 136/258/64
f 134/259/65 137/260/65 138/261/65 135/262/65
f 137/263/64 139/264/64 140/265/64 138/266/64
f 139/267/66 141/268/66 142/269/66 140/270/66
f 141/271/67 143/272/67 144/273/67 142/274/67
f 143/275/68 133/276/68 136/277/68 144/278/68
f 145/279/69 146/280/69 147/281/69 148/282/69
f 146/283/70 149/284/70 150/285/70 147/286/70
f 149/287/71 151/288/71 152/289/71 150/290/71
f 151/291/72 153/292/72 154/293/72 152/294/72
f 153/295/73 155/296/73 156/297/73 154/298/73
f 155/299/74 157/300/74 158/301/74 156/302/74
f 157/303/75 145/304/75 148/305/75 158/306/75
f 159/307/76 160/308/76 161/309/76 162/310/76
f 160/311/77 163/312/77 164/313/77 161/314/77
f 163/315/78 165/316/78 166/317/78 164/318/78
f 165/319/79 167/320/79 168/321/79 166/322/79
f 167/323/80 169/324/80 170/325/80 168/326/80
f 169/327/81 159/328/81 162/329/81 170/330/81
f 171/331/82 172/332/82 173/333/82 174/334/82
f 172/335/83 175/336/83 176/337/83 173/338/83
f 175/339/84 177/340/84 178/341/84 176/342/84
f 177/343/85 179/344/85 180/345/85 178/346/85
f 179/347/86 181/348/86 182/349/86 180/350/86
f 181/351/87 171/352/87 174/353/87 182/354/87
f 183/355/88 184/356/88 185/357/88 186/358/88
f 184/359/89 187/360/89 188/361/89 185/362/89
f 187/363/90 189/364/90 190/365/90 188/366/90
f 189/367/91 183/368/91 186/369/91 190/370/91
f 191/371/92 192/372/92 193/373/92 194/374/92
f 192/375/93 195/376/93 196/377/93 193/378/93
f 195/379/94 197/380/94 198/381/94 196/382/94
f 197/383/95 199/384/95 200/385/95 198/386/95
f 199/387/96 201/388/96 202/389/96 200/390/96
f 201/388/97 191/391/97 194/392/97 202/389/97
f 203/393/98 204/394/99 205/395/99 206/396/98
f 204/397/99 207/398/100 208/399/100 205/400/99
f 207/401/101 209/402/101 210/403/101 208/404/101
f 209/405/102 211/406/102 212/407/102 210/408/102
f 211/406/103 213/409/103 214/410/103 212/407/103
f 213/411/104 215/412/104 216/413/104 214/414/104
f 215/415/105 203/416/105 206/417/105 216/418/105
