# Blender v2.78 (sub 0) OBJ File: ''
# www.blender.org
mtllib CityEngineMaterial_168.mtl
o CityEngineMaterial_168
v -581.573425 5.217431 423.031311
v -582.054382 5.217432 416.021912
v -582.054382 7.352832 416.021912
v -581.573425 7.352831 423.031311
v -599.519470 5.217532 417.215393
v -599.519470 7.352832 417.215393
v -599.387329 5.217532 419.140015
v -599.387329 7.352832 419.140015
v -595.044312 5.217432 418.843201
v -595.044312 7.352832 418.843201
v -594.747925 5.217431 423.162598
v -594.747925 7.352831 423.162598
v -698.749512 53.577770 -1042.868408
v -697.937927 53.577770 -1045.176880
v -697.937927 54.850071 -1045.176880
v -698.749512 54.850071 -1042.868408
v -696.252014 53.577770 -1049.979492
v -696.252014 54.850071 -1049.979492
v -695.829773 53.577770 -1051.180176
v -695.829773 54.850071 -1051.180176
v -701.253601 53.577770 -1056.330078
v -701.253601 54.850071 -1056.330078
v -701.822021 53.577770 -1054.713623
v -701.822021 54.850071 -1054.713623
v -706.006287 53.577770 -1058.721436
v -706.006287 54.850071 -1058.721436
v -709.229614 53.577770 -1059.848999
v -709.229614 54.850071 -1059.848999
v -712.786804 53.577770 -1056.313721
v -712.786804 54.850071 -1056.313721
v -568.228271 17.886724 -756.167786
v -560.648010 17.886724 -758.473694
v -560.648010 19.319923 -758.473694
v -568.228271 19.319923 -756.167786
v -563.254700 17.886726 -767.053406
v -563.254700 19.319925 -767.053406
v -567.341370 17.886724 -765.606812
v -567.341370 19.319923 -765.606812
v -565.702881 17.886724 -760.213928
v -565.702881 19.319923 -760.213928
v -569.141479 17.886724 -759.167786
v -569.141479 19.319923 -759.167786
v 254.060196 24.805187 79.915611
v 243.641907 24.805187 80.538910
v 243.641907 26.463886 80.538910
v 254.060196 26.463886 79.915611
v 243.529602 24.805187 78.559608
v 243.529602 26.463886 78.559608
v 237.863007 24.805187 78.887611
v 237.863007 26.463886 78.887611
v 238.299896 24.805187 86.584305
v 238.299896 26.463886 86.584305
v 254.389297 24.805187 85.621605
v 254.389297 26.463886 85.621605
v -161.225800 1.317256 271.069214
v -160.974197 1.317255 273.713715
v -160.974197 3.287956 273.713715
v -161.225800 3.287956 271.069214
v -158.910004 1.317255 273.517395
v -158.910004 3.287956 273.517395
v -160.004501 1.317257 262.009796
v -160.004501 3.287957 262.009796
v -165.880905 1.317257 262.568695
v -165.880905 3.287957 262.568695
v -164.885605 1.317256 271.417297
v -164.885605 3.287956 271.417297
v 6.920200 27.581564 -393.726288
v 8.359500 27.581562 -384.535492
v 8.359500 29.736862 -384.535492
v 6.920200 29.736864 -393.726288
v 24.901300 27.581562 -387.089111
v 24.901300 29.736862 -387.089111
v 23.472000 27.581564 -396.300690
v 23.472000 29.736864 -396.300690
v 520.987122 21.467926 453.918701
v 525.392517 21.467922 474.507812
v 525.392517 23.294123 474.507812
v 520.987122 23.294127 453.918701
v 539.830322 21.467924 471.408813
v 539.830322 23.294125 471.408813
v 535.426270 21.467926 450.892700
v 535.426270 23.294127 450.892700
v -309.399414 2.698324 468.005188
v -307.433807 2.698320 488.555389
v -307.433807 4.560821 488.555389
v -309.399414 4.560824 468.005188
v -294.824493 2.698321 487.333191
v -294.824493 4.560821 487.333191
v -296.798798 2.698324 466.798187
v -296.798798 4.560824 466.798187
v -566.419922 7.390989 -547.039978
v -557.512573 7.390990 -550.807617
v -557.512573 9.347290 -550.807617
v -566.419922 9.347289 -547.039978
v -558.113098 7.390990 -552.223999
v -558.113098 9.347290 -552.223999
v -559.608887 7.390990 -551.591187
v -559.608887 9.347290 -551.591187
v -560.181030 7.390990 -552.941284
v -560.181030 9.347290 -552.941284
v -558.622314 7.390990 -553.425110
v -558.622314 9.347291 -553.425110
v -559.498779 7.390991 -555.492371
v -559.498779 9.347291 -555.492371
v -568.780823 7.390990 -552.610779
v -568.780823 9.347290 -552.610779
v -152.634903 1.313554 897.123230
v -154.490402 1.313553 901.149475
v -154.490402 3.001753 901.149475
v -152.634903 3.001754 897.123230
v -151.991302 1.313553 902.302002
v -151.991302 3.001753 902.302002
v -153.241501 1.313552 905.012878
v -153.241501 3.001753 905.012878
v -155.645706 1.313553 903.656128
v -155.645706 3.001753 903.656128
v -156.551895 1.313552 905.622314
v -156.551895 3.001752 905.622314
v -144.499893 1.313551 912.424072
v -144.499893 3.001751 912.424072
v -140.107895 1.313553 902.900085
v -140.107895 3.001753 902.900085
v -183.609802 1.596252 294.216705
v -183.906693 1.596253 291.095093
v -183.906693 3.289153 291.095093
v -183.609802 3.289152 294.216705
v -183.076096 1.596253 291.002808
v -183.076096 3.289153 291.002808
v -183.402496 1.596253 287.569702
v -183.402496 3.289153 287.569702
v -191.372299 1.596253 288.456390
v -191.372299 3.289153 288.456390
v -190.587204 1.596252 296.710693
v -190.587204 3.289152 296.710693
v -182.605392 1.596252 295.952087
v -182.605392 3.289152 295.952087
v -182.778000 1.596252 294.137695
v -182.778000 3.289152 294.137695
v 634.234619 81.311844 -293.884003
v 628.783020 81.311844 -292.871307
v 628.783020 83.401443 -292.871307
v 634.234619 83.401443 -293.884003
v 612.738892 81.311844 -289.549286
v 612.738892 83.401443 -289.549286
v 615.804688 81.311844 -274.810608
v 615.804688 83.401443 -274.810608
v 636.500916 81.311844 -279.109497
v 636.500916 83.401443 -279.109497
v 622.166382 84.607346 -277.205688
v 620.200623 84.607346 -290.020813
v 620.200623 86.696945 -290.020813
v 622.166382 86.696945 -277.205688
v 613.982300 84.607346 -288.733307
v 613.982300 86.696945 -288.733307
v 616.619812 84.607346 -276.053589
v 616.619812 86.696945 -276.053589
v -63.428398 32.725613 -1304.661133
v -56.606499 32.725613 -1304.931152
v -56.606499 34.158314 -1304.931152
v -63.428398 34.158314 -1304.661133
v -56.926300 32.725613 -1313.059326
v -56.926300 34.158314 -1313.059326
v -61.282398 32.725613 -1318.057495
v -61.282398 34.158314 -1318.057495
v -63.867001 32.725613 -1315.809082
v -63.867001 34.158314 -1315.809082
v -544.291382 6.337801 605.440125
v -544.440674 6.337799 619.415894
v -544.440674 8.238899 619.415894
v -544.291382 8.238902 605.440125
v -532.142517 6.337799 619.559021
v -532.142517 8.238899 619.559021
v -531.874084 6.337801 605.588074
v -531.874084 8.238902 605.588074
v 69.867798 42.077404 -637.065796
v 69.754799 42.077404 -637.786682
v 69.754799 43.969002 -637.786682
v 69.867798 43.969002 -637.065796
v 67.552498 42.077404 -637.442017
v 67.552498 43.969002 -637.442017
v 69.478500 42.077404 -625.142883
v 69.478500 43.969002 -625.142883
v 78.484299 42.077404 -626.553284
v 78.484299 43.969002 -626.553284
v 76.549004 42.077404 -638.850220
v 76.549004 43.969002 -638.850220
v 73.314903 42.077404 -638.343872
v 73.314903 43.969002 -638.343872
v 73.428299 42.077404 -637.623474
v 73.428299 43.969002 -637.623474
v -107.066704 1.313725 457.141388
v -107.879402 1.313726 452.066803
v -107.879402 2.952526 452.066803
v -107.066704 2.952526 457.141388
v -106.917900 1.313726 451.912811
v -106.917900 2.952526 451.912811
v -107.300301 1.313727 449.525085
v -107.300301 2.952527 449.525085
v -115.577599 1.313727 450.850708
v -115.577599 2.952527 450.850708
v -114.363899 1.313725 458.428589
v -114.363899 2.952525 458.428589
vt 0.5000 0.0000
vt 1.6667 0.0000
vt 1.6667 1.0000
vt 0.5000 1.0000
vt 0.0000 0.0000
vt 3.0000 0.0000
vt 3.0000 1.0000
vt 0.0000 1.0000
vt 0.1667 0.0000
vt 0.5000 0.0000
vt 0.5000 1.0000
vt 0.1667 1.0000
vt 1.1667 -0.0000
vt 1.1667 1.0000
vt 0.8333 0.0000
vt 1.5000 -0.0000
vt 1.5000 1.0000
vt 0.8333 1.0000
vt 0.0000 0.0000
vt 2.1667 0.0000
vt 2.1667 1.0000
vt 0.0000 1.0000
vt 0.6667 0.0000
vt 1.0000 -0.0000
vt 1.0000 1.0000
vt 0.6667 1.0000
vt 0.5000 0.0000
vt 1.1667 -0.0000
vt 1.1667 1.0000
vt 0.5000 1.0000
vt 0.5000 0.0000
vt 0.6667 0.0000
vt 0.6667 1.0000
vt 0.5000 1.0000
vt 0.0000 0.0000
vt 1.0000 -0.0000
vt 1.0000 1.0000
vt 0.0000 1.0000
vt 0.0000 0.0000
vt 0.1667 0.0000
vt 0.1667 1.0000
vt 0.0000 1.0000
vt 0.8333 0.0000
vt 1.6667 0.0000
vt 1.6667 1.0000
vt 0.8333 1.0000
vt 0.5000 0.0000
vt 1.0000 -0.0000
vt 1.0000 1.0000
vt 0.5000 1.0000
vt 0.3333 -0.0000
vt 1.0000 -0.0000
vt 1.0000 1.0000
vt 0.3333 1.0000
vt 0.3333 -0.0000
vt 2.8333 -0.0000
vt 2.8333 1.0000
vt 0.3333 1.0000
vt 0.5000 0.0000
vt 1.5000 -0.0000
vt 1.5000 1.0000
vt 0.5000 1.0000
vt 0.6667 0.0000
vt 1.8333 0.0000
vt 1.8333 1.0000
vt 0.6667 1.0000
vt 0.1667 0.0000
vt 0.6667 0.0000
vt 0.6667 1.0000
vt 0.1667 1.0000
vt 0.5000 0.0000
vt 1.1667 -0.0000
vt 1.1667 1.0000
vt 0.5000 1.0000
vt 0.1667 0.0000
vt 0.6667 0.0000
vt 0.6667 1.0000
vt 0.1667 1.0000
vt 0.8333 0.0000
vt 1.1667 -0.0000
vt 1.1667 1.0000
vt 0.8333 1.0000
vt 0.3333 -0.0000
vt 1.8333 0.0000
vt 1.8333 1.0000
vt 0.3333 1.0000
vt 0.5000 0.0000
vt 0.8333 0.0000
vt 0.8333 1.0000
vt 0.5000 1.0000
vt 0.5000 0.0000
vt 1.3333 0.0000
vt 1.3333 1.0000
vt 0.5000 1.0000
vt 0.5000 0.0000
vt 1.5000 -0.0000
vt 1.5000 1.0000
vt 0.5000 1.0000
vt 0.3333 -0.0000
vt 2.5000 -0.0000
vt 2.5000 1.0000
vt 0.3333 1.0000
vt 0.3333 -0.0000
vt 1.1667 -0.0000
vt 1.1667 1.0000
vt 0.3333 1.0000
vt 0.1667 0.0000
vt 0.5000 0.0000
vt 0.5000 1.0000
vt 0.1667 1.0000
vt 0.3333 -0.0000
vt 0.6667 0.0000
vt 0.6667 1.0000
vt 0.3333 1.0000
vt 0.3333 -0.0000
vt 1.8333 0.0000
vt 1.8333 1.0000
vt 0.3333 1.0000
vt 0.6667 0.0000
vt 1.5000 -0.0000
vt 1.5000 1.0000
vt 0.6667 1.0000
vt 0.5000 0.0000
vt 1.6667 0.0000
vt 1.6667 1.0000
vt 0.5000 1.0000
vt 0.6667 0.0000
vt 1.1667 -0.0000
vt 1.1667 1.0000
vt 0.6667 1.0000
vt 0.6667 0.0000
vt 2.3333 -0.0000
vt 2.3333 1.0000
vt 0.6667 1.0000
vt 0.6667 0.0000
vt 3.8333 -0.0000
vt 3.8333 1.0000
vt 0.6667 1.0000
vt 0.1667 0.0000
vt 1.8333 0.0000
vt 1.8333 1.0000
vt 0.1667 1.0000
vt 0.3333 -0.0000
vt 3.5000 0.0000
vt 3.5000 1.0000
vt 0.3333 1.0000
vt 0.0000 0.0000
vt 4.0000 0.0000
vt 4.0000 1.0000
vt 0.0000 1.0000
vt 0.1667 0.0000
vt 3.0000 0.0000
vt 3.0000 1.0000
vt 0.1667 1.0000
vt 0.6667 0.0000
vt 4.6667 0.0000
vt 4.6667 1.0000
vt 0.6667 1.0000
vt 0.0000 0.0000
vt 2.8333 -0.0000
vt 2.8333 1.0000
vt 0.0000 1.0000
vt 0.1667 0.0000
vt 2.6667 0.0000
vt 2.6667 1.0000
vt 0.1667 1.0000
vt 0.5000 0.0000
vt 2.0000 0.0000
vt 2.0000 1.0000
vt 0.5000 1.0000
vt 0.3333 -0.0000
vt 2.8333 -0.0000
vt 2.8333 1.0000
vt 0.3333 1.0000
vt 0.3333 -0.0000
vt 1.8333 0.0000
vt 1.8333 1.0000
vt 0.3333 1.0000
vt 0.3333 -0.0000
vt 1.5000 -0.0000
vt 1.5000 1.0000
vt 0.3333 1.0000
vt 0.3333 -0.0000
vt 0.5000 0.0000
vt 0.5000 1.0000
vt 0.3333 1.0000
vt 0.6667 0.0000
vt 0.8333 0.0000
vt 0.8333 1.0000
vt 0.6667 1.0000
vt 0.1667 0.0000
vt 0.3333 -0.0000
vt 0.3333 1.0000
vt 0.1667 1.0000
vt 0.5000 0.0000
vt 0.5000 1.0000
vt 0.6667 0.0000
vt 1.0000 -0.0000
vt 1.0000 1.0000
vt 0.6667 1.0000
vt 0.5000 0.0000
vt 1.6667 0.0000
vt 1.6667 1.0000
vt 0.5000 1.0000
vt 0.0000 0.0000
vt 0.6667 0.0000
vt 0.6667 1.0000
vt 0.0000 1.0000
vt 0.0000 0.0000
vt 0.6667 0.0000
vt 0.6667 1.0000
vt 0.0000 1.0000
vt 0.3333 -0.0000
vt 0.6667 0.0000
vt 0.6667 1.0000
vt 0.3333 1.0000
vt 1.1667 -0.0000
vt 1.1667 1.0000
vt 0.5000 0.0000
vt 0.8333 0.0000
vt 0.8333 1.0000
vt 0.5000 1.0000
vt 0.6667 0.0000
vt 1.0000 -0.0000
vt 1.0000 1.0000
vt 0.6667 1.0000
vt 0.0000 0.0000
vt 2.0000 0.0000
vt 2.0000 1.0000
vt 0.0000 1.0000
vt 0.0000 0.0000
vt 1.5000 -0.0000
vt 1.5000 1.0000
vt 0.0000 1.0000
vt 0.3333 -0.0000
vt 2.3333 -0.0000
vt 2.3333 1.0000
vt 0.3333 1.0000
vt 0.1667 0.0000
vt 0.6667 0.0000
vt 0.6667 1.0000
vt 0.1667 1.0000
vt 0.3333 -0.0000
vt 0.5000 0.0000
vt 0.5000 1.0000
vt 0.3333 1.0000
vt 0.3333 -0.0000
vt 0.8333 0.0000
vt 0.8333 1.0000
vt 0.3333 1.0000
vt 0.3333 -0.0000
vt 1.5000 -0.0000
vt 1.5000 1.0000
vt 0.3333 1.0000
vt 0.5000 0.0000
vt 1.6667 0.0000
vt 1.6667 1.0000
vt 0.5000 1.0000
vt 0.1667 0.0000
vt 1.3333 0.0000
vt 1.3333 1.0000
vt 0.1667 1.0000
vt 0.1667 0.0000
vt 0.5000 0.0000
vt 0.5000 1.0000
vt 0.1667 1.0000
vt 0.1667 0.0000
vt 0.3333 -0.0000
vt 0.3333 1.0000
vt 0.1667 1.0000
vt 0.3333 -0.0000
vt 1.0000 -0.0000
vt 1.0000 1.0000
vt 0.3333 1.0000
vt 0.5000 0.0000
vt 2.5000 -0.0000
vt 2.5000 1.0000
vt 0.5000 1.0000
vt 0.6667 0.0000
vt 2.5000 -0.0000
vt 2.5000 1.0000
vt 0.6667 1.0000
vt 0.3333 -0.0000
vt 2.8333 -0.0000
vt 2.8333 1.0000
vt 0.3333 1.0000
vt 0.3333 -0.0000
vt 2.1667 0.0000
vt 2.1667 1.0000
vt 0.3333 1.0000
vt 0.3333 -0.0000
vt 1.8333 0.0000
vt 1.8333 1.0000
vt 0.3333 1.0000
vt 0.1667 0.0000
vt 1.0000 -0.0000
vt 1.0000 1.0000
vt 0.1667 1.0000
vt 0.3333 -0.0000
vt 1.8333 0.0000
vt 1.8333 1.0000
vt 0.3333 1.0000
vt 0.3333 -0.0000
vt 1.0000 -0.0000
vt 1.0000 1.0000
vt 0.3333 1.0000
vt 0.5000 0.0000
vt 1.5000 -0.0000
vt 1.5000 1.0000
vt 0.5000 1.0000
vt 0.6667 0.0000
vt 2.0000 0.0000
vt 2.0000 1.0000
vt 0.6667 1.0000
vt 0.1667 0.0000
vt 1.1667 -0.0000
vt 1.1667 1.0000
vt 0.1667 1.0000
vt 0.0000 0.0000
vt 0.5000 0.0000
vt 0.5000 1.0000
vt 0.0000 1.0000
vt 0.6667 0.0000
vt 2.3333 -0.0000
vt 2.3333 1.0000
vt 0.6667 1.0000
vt 0.6667 0.0000
vt 2.5000 -0.0000
vt 2.5000 1.0000
vt 0.6667 1.0000
vt 0.8333 0.0000
vt 2.5000 -0.0000
vt 2.5000 1.0000
vt 0.8333 1.0000
vt 0.3333 -0.0000
vt 2.1667 0.0000
vt 2.1667 1.0000
vt 0.3333 1.0000
vt 0.6667 0.0000
vt 2.3333 -0.0000
vt 2.3333 1.0000
vt 0.6667 1.0000
vt 0.8333 0.0000
vt 1.0000 -0.0000
vt 1.0000 1.0000
vt 0.8333 1.0000
vt 0.5000 0.0000
vt 0.8333 0.0000
vt 0.8333 1.0000
vt 0.5000 1.0000
vt 0.0000 0.0000
vt 1.8333 0.0000
vt 1.8333 1.0000
vt 0.0000 1.0000
vt 0.0000 0.0000
vt 1.3333 0.0000
vt 1.3333 1.0000
vt 0.0000 1.0000
vt 0.3333 -0.0000
vt 2.1667 0.0000
vt 2.1667 1.0000
vt 0.3333 1.0000
vt 0.3333 -0.0000
vt 0.8333 0.0000
vt 0.8333 1.0000
vt 0.3333 1.0000
vt 0.6667 0.0000
vt 0.8333 0.0000
vt 0.8333 1.0000
vt 0.6667 1.0000
vt 0.1667 0.0000
vt 0.6667 0.0000
vt 0.6667 1.0000
vt 0.1667 1.0000
vt 0.8333 0.0000
vt 1.5000 -0.0000
vt 1.5000 1.0000
vt 0.8333 1.0000
vt 0.6667 0.0000
vt 0.8333 0.0000
vt 0.8333 1.0000
vt 0.6667 1.0000
vt 0.3333 -0.0000
vt 0.6667 0.0000
vt 0.6667 1.0000
vt 0.3333 1.0000
vt 1.6667 0.0000
vt 1.6667 1.0000
vt 0.5000 0.0000
vt 1.3333 0.0000
vt 1.3333 1.0000
vt 0.5000 1.0000
vt 0.6667 0.0000
vt 1.5000 -0.0000
vt 1.5000 1.0000
vt 0.6667 1.0000
vn 0.9977 0.0000 -0.0685
vn -0.0682 0.0000 -0.9977
vn -0.9977 0.0000 0.0685
vn 0.0682 0.0000 0.9977
vn 0.0100 0.0000 1.0000
vn 0.9434 0.0000 0.3317
vn 0.9435 0.0000 0.3314
vn 0.9435 0.0000 0.3315
vn 0.9434 0.0000 0.3318
vn 0.6886 0.0000 -0.7252
vn -0.9434 0.0000 -0.3317
vn 0.6917 0.0000 -0.7222
vn 0.3302 0.0000 -0.9439
vn -0.7049 0.0000 -0.7093
vn -0.6917 0.0000 0.7222
vn 0.2910 0.0000 0.9567
vn 0.9568 0.0000 -0.2907
vn -0.3337 0.0000 -0.9427
vn -0.9568 0.0000 0.2907
vn -0.2911 0.0000 -0.9567
vn -0.9567 0.0000 0.2912
vn -0.0597 0.0000 -0.9982
vn 0.9984 0.0000 -0.0566
vn -0.0578 0.0000 -0.9983
vn -0.9984 0.0000 0.0567
vn 0.0597 0.0000 0.9982
vn 0.9983 0.0000 -0.0576
vn -0.9955 0.0000 0.0947
vn 0.0947 0.0000 0.9955
vn 0.9955 0.0000 -0.0947
vn -0.0947 0.0000 -0.9955
vn -0.9937 0.0000 0.1118
vn -0.9880 0.0000 0.1547
vn 0.1526 0.0000 0.9883
vn 0.9882 0.0000 -0.1533
vn -0.1537 0.0000 -0.9881
vn -0.9779 0.0000 0.2092
vn 0.2099 0.0000 0.9777
vn 0.9777 0.0000 -0.2099
vn -0.2051 0.0000 -0.9787
vn -0.9955 0.0000 0.0952
vn 0.0965 0.0000 0.9953
vn 0.9954 0.0000 -0.0957
vn -0.0954 0.0000 -0.9954
vn 0.3896 0.0000 0.9210
vn 0.9207 0.0000 -0.3903
vn -0.3896 0.0000 -0.9210
vn 0.9207 0.0000 -0.3902
vn 0.2964 0.0000 0.9551
vn -0.2965 0.0000 -0.9550
vn -0.9207 0.0000 0.3902
vn -0.9082 0.0000 -0.4185
vn -0.4188 0.0000 0.9081
vn -0.9081 0.0000 -0.4188
vn 0.4915 0.0000 -0.8709
vn -0.9082 0.0000 -0.4186
vn -0.4915 0.0000 0.8709
vn 0.9081 0.0000 0.4188
vn 0.4188 0.0000 -0.9081
vn 0.1104 0.0000 0.9939
vn 0.9955 0.0000 -0.0946
vn -0.1106 0.0000 -0.9939
vn 0.0946 0.0000 0.9955
vn -0.0946 0.0000 -0.9955
vn -0.1826 0.0000 -0.9832
vn -0.2028 0.0000 -0.9792
vn -0.9790 0.0000 0.2037
vn 0.2034 0.0000 0.9791
vn 0.9884 0.0000 -0.1516
vn 0.0395 0.0000 0.9992
vn 0.9992 0.0000 -0.0393
vn 0.7539 0.0000 -0.6570
vn -0.6563 0.0000 -0.7545
vn -0.9992 0.0000 0.0393
vn -0.9999 0.0000 -0.0107
vn -0.0116 0.0000 0.9999
vn 0.9998 0.0000 0.0192
vn 0.0119 0.0000 -0.9999
vn 0.9879 0.0000 -0.1549
vn -0.1546 0.0000 -0.9880
vn 0.1547 0.0000 0.9880
vn 0.9878 0.0000 -0.1555
vn -0.1547 0.0000 -0.9880
vn -0.9878 0.0000 0.1555
vn 0.9874 0.0000 -0.1581
vn 0.1582 0.0000 0.9874
vn -0.1581 0.0000 -0.9874
vn -0.9874 0.0000 0.1581
vn 0.1737 0.0000 0.9848
g CityEngineMaterial_168_CityEngineMaterial_168_CityEngineMaterial_168_mat
usemtl CityEngineMaterial_168_mat
s 1
f 1/1/1 2/2/1 3/3/1 4/4/1
f 2/5/2 5/6/2 6/7/2 3/8/2
f 5/9/3 7/10/3 8/11/3 6/12/3
f 7/10/4 9/13/4 10/14/4 8/11/4
f 9/15/3 11/16/3 12/17/3 10/18/3
f 11/19/5 1/20/5 4/21/5 12/22/5
f 13/23/6 14/24/7 15/25/7 16/26/6
f 14/27/7 17/28/8 18/29/8 15/30/7
f 17/31/8 19/32/9 20/33/9 18/34/8
f 19/35/10 21/36/10 22/37/10 20/38/10
f 21/39/11 23/40/11 24/41/11 22/42/11
f 23/43/12 25/44/12 26/45/12 24/46/12
f 25/47/13 27/48/13 28/49/13 26/50/13
f 27/51/14 29/52/14 30/53/14 28/54/14
f 29/55/15 13/56/15 16/57/15 30/58/15
f 31/59/16 32/60/16 33/61/16 34/62/16
f 32/63/17 35/64/17 36/65/17 33/66/17
f 35/67/18 37/68/18 38/69/18 36/70/18
f 37/71/19 39/72/19 40/73/19 38/74/19
f 39/75/20 41/76/20 42/77/20 40/78/20
f 41/79/21 31/80/21 34/81/21 42/82/21
f 43/83/22 44/84/22 45/85/22 46/86/22
f 44/87/23 47/88/23 48/89/23 45/90/23
f 47/91/24 49/92/24 50/93/24 48/94/24
f 49/95/25 51/96/25 52/97/25 50/98/25
f 51/99/26 53/100/26 54/101/26 52/102/26
f 53/103/27 43/104/27 46/105/27 54/106/27
f 55/107/28 56/108/28 57/109/28 58/110/28
f 56/111/29 59/112/29 60/113/29 57/114/29
f 59/115/30 61/116/30 62/117/30 60/118/30
f 61/119/31 63/120/31 64/121/31 62/122/31
f 63/123/32 65/124/32 66/125/32 64/126/32
f 65/127/29 55/128/29 58/129/29 66/130/29
f 67/131/33 68/132/33 69/133/33 70/134/33
f 68/135/34 71/136/34 72/137/34 69/138/34
f 71/139/35 73/140/35 74/141/35 72/142/35
f 73/143/36 67/144/36 70/145/36 74/146/36
f 75/147/37 76/148/37 77/149/37 78/150/37
f 76/151/38 79/152/38 80/153/38 77/154/38
f 79/155/39 81/156/39 82/157/39 80/158/39
f 81/159/40 75/160/40 78/161/40 82/162/40
f 83/163/41 84/164/41 85/165/41 86/166/41
f 84/167/42 87/168/42 88/169/42 85/170/42
f 87/171/43 89/172/43 90/173/43 88/174/43
f 89/175/44 83/176/44 86/177/44 90/178/44
f 91/179/45 92/180/45 93/181/45 94/182/45
f 92/183/46 95/184/46 96/185/46 93/186/46
f 95/187/47 97/188/47 98/189/47 96/190/47
f 97/191/48 99/192/48 100/193/48 98/194/48
f 99/192/49 101/195/49 102/196/49 100/193/49
f 101/197/46 103/198/46 104/199/46 102/200/46
f 103/201/50 105/202/50 106/203/50 104/204/50
f 105/205/51 91/206/51 94/207/51 106/208/51
f 107/209/52 108/210/52 109/211/52 110/212/52
f 108/213/53 111/214/53 112/215/53 109/216/53
f 111/214/54 113/217/54 114/218/54 112/215/54
f 113/219/55 115/220/55 116/221/55 114/222/55
f 115/223/56 117/224/56 118/225/56 116/226/56
f 117/227/57 119/228/57 120/229/57 118/230/57
f 119/231/58 121/232/58 122/233/58 120/234/58
f 121/235/59 107/236/59 110/237/59 122/238/59
f 123/239/30 124/240/30 125/241/30 126/242/30
f 124/243/60 127/244/60 128/245/60 125/246/60
f 127/247/61 129/248/61 130/249/61 128/250/61
f 129/251/62 131/252/62 132/253/62 130/254/62
f 131/255/28 133/256/28 134/257/28 132/258/28
f 133/259/63 135/260/63 136/261/63 134/262/63
f 135/263/30 137/264/30 138/265/30 136/266/30
f 137/267/64 123/268/64 126/269/64 138/270/64
f 139/271/65 140/272/65 141/273/65 142/274/65
f 140/275/66 143/276/66 144/277/66 141/278/66
f 143/279/67 145/280/67 146/281/67 144/282/67
f 145/283/68 147/284/68 148/285/68 146/286/68
f 147/287/69 139/288/69 142/289/69 148/290/69
f 149/291/69 150/292/69 151/293/69 152/294/69
f 150/295/66 153/296/66 154/297/66 151/298/66
f 153/299/67 155/300/67 156/301/67 154/302/67
f 155/303/68 149/304/68 152/305/68 156/306/68
f 157/307/70 158/308/70 159/309/70 160/310/70
f 158/311/71 161/312/71 162/313/71 159/314/71
f 161/315/72 163/316/72 164/317/72 162/318/72
f 163/319/73 165/320/73 166/321/73 164/322/73
f 165/323/74 157/324/74 160/325/74 166/326/74
f 167/327/75 168/328/75 169/329/75 170/330/75
f 168/331/76 171/332/76 172/333/76 169/334/76
f 171/335/77 173/336/77 174/337/77 172/338/77
f 173/339/78 167/340/78 170/341/78 174/342/78
f 175/343/79 176/344/79 177/345/79 178/346/79
f 176/347/80 179/348/80 180/349/80 177/350/80
f 179/351/33 181/352/33 182/353/33 180/354/33
f 181/355/81 183/356/81 184/357/81 182/358/81
f 183/359/82 185/360/82 186/361/82 184/362/82
f 185/363/83 187/364/83 188/365/83 186/366/83
f 187/367/84 189/368/84 190/369/84 188/370/84
f 189/371/83 175/372/83 178/373/83 190/374/83
f 191/375/85 192/376/85 193/377/85 194/378/85
f 192/379/86 195/380/86 196/381/86 193/382/86
f 195/383/85 197/384/85 198/385/85 196/386/85
f 197/384/87 199/387/87 200/388/87 198/385/87
f 199/389/88 201/390/88 202/391/88 200/392/88
f 201/393/89 191/394/89 194/395/89 202/396/89
