# Blender v2.78 (sub 0) OBJ File: ''
# www.blender.org
mtllib CityEngineMaterial_851.mtl
o CityEngineMaterial_851
v -631.343689 19.516132 -812.988525
v -630.383789 19.055731 -809.807373
v -628.153687 18.606133 -802.416992
v -627.732117 18.606133 -802.289917
v -628.083130 18.606133 -802.183289
v -619.375793 19.841232 -805.103577
v -622.320984 19.521032 -803.932312
v -625.026123 18.926332 -803.111206
v -619.615112 19.841232 -804.753784
v -619.282227 19.841232 -804.854919
v -622.097473 20.226631 -812.333191
v -623.199219 20.597134 -815.259583
vt -0.0000 1.0000
vt 0.2958 0.9988
vt 0.9785 0.9877
vt 0.9996 0.9484
vt 1.0000 0.9871
vt 0.9578 0.0025
vt 0.9869 0.3394
vt 0.9942 0.6457
vt 0.9815 0.0367
vt 0.9811 -0.0000
vt 0.2771 0.0690
vt -0.0000 0.0931
vn -0.1045 0.9882 0.1124
g CityEngineMaterial_851_CityEngineMaterial_851_CityEngineMaterial_851_mat
usemtl CityEngineMaterial_851_mat
s 1
f 1/1/1 2/2/1 3/3/1 4/4/1
f 3/3/1 5/5/1 4/4/1
f 6/6/1 1/1/1 4/4/1 7/7/1
f 4/4/1 8/8/1 7/7/1
f 6/6/1 7/7/1 9/9/1 10/10/1
f 1/1/1 6/6/1 11/11/1 12/12/1
