# Blender v2.78 (sub 0) OBJ File: ''
# www.blender.org
mtllib CityEngineMaterial_152.mtl
o CityEngineMaterial_152
v 721.003784 35.280140 374.846497
v 723.978271 35.280140 375.217712
v 724.025330 35.280140 374.841095
v 720.805481 35.280140 374.740387
v 720.701111 35.280140 374.534302
v 724.041626 35.897640 371.014191
v 724.441528 35.897640 371.286804
v 724.239380 35.588840 373.126190
v 724.453430 35.897640 371.412903
v 724.285889 35.897640 371.091614
v 724.381287 35.897640 371.177612
v 724.168274 35.897640 371.035095
v 722.297485 35.588840 372.658203
v 723.812805 35.897640 371.104614
v 723.918823 35.897640 371.035187
v 720.718506 35.280140 374.308014
v 720.781616 35.280140 374.212189
v 720.692871 35.280140 374.418701
v 720.739929 35.280140 374.644897
v 720.894714 35.280140 374.810913
v -692.150024 21.843338 -845.887024
v -691.081421 21.442337 -843.168091
v -688.646973 21.076435 -836.975281
v -688.146973 21.076435 -836.862427
v -688.554077 21.076435 -836.738892
v -682.401428 22.311537 -838.883301
v -684.499084 21.991337 -837.969604
v -686.315308 21.396637 -837.418396
v -682.667419 22.311537 -838.525574
v -682.324402 22.311537 -838.629578
v -684.473206 22.677538 -845.709229
v -685.116272 22.960836 -847.827881
vt 0.0000 0.1076
vt 0.0000 0.9999
vt 0.0890 0.9999
vt 0.0189 0.0451
vt 0.0638 0.0067
vt 1.0000 0.8636
vt 0.9482 0.9918
vt 0.5043 0.9999
vt 0.9192 1.0000
vt 0.9891 0.9387
vt 0.9718 0.9700
vt 0.9988 0.9019
vt 0.5568 0.4091
vt 0.9723 0.7994
vt 0.9915 0.8281
vt 0.1170 0.0035
vt 0.1412 0.0186
vt 0.0905 -0.0000
vt 0.0392 0.0222
vt 0.0051 0.0741
vt 0.0000 1.0000
vt 0.2987 0.9678
vt 0.9743 0.8833
vt 0.9995 0.8239
vt 1.0000 0.8798
vt 0.9543 0.0009
vt 0.9868 0.3049
vt 0.9943 0.5661
vt 0.9816 0.0471
vt 0.9812 -0.0000
vt 0.2271 0.0174
vt 0.0000 0.0191
vn -0.0322 0.9905 0.1337
vn -0.0322 0.9905 0.1335
vn -0.0322 0.9905 0.1338
vn -0.0322 0.9905 0.1336
vn -0.1407 0.9820 0.1264
vn -0.1407 0.9819 0.1264
g CityEngineMaterial_152_CityEngineMaterial_152_CityEngineMaterial_152_mat
usemtl CityEngineMaterial_152_mat
s 1
f 1/1/1 2/2/1 3/3/1 4/4/1
f 5/5/1 4/4/1 3/3/1 6/6/1
f 7/7/1 6/6/1 3/3/1 8/8/1
f 8/8/1 9/9/1 7/7/1
f 10/10/1 6/6/1 7/7/1 11/11/1
f 10/10/1 12/12/2 6/6/1
f 13/13/1 5/5/1 6/6/1 14/14/1
f 6/6/1 15/15/3 14/14/1
f 16/16/1 5/5/1 13/13/1 17/17/1
f 16/16/1 18/18/1 5/5/1
f 5/5/1 19/19/4 4/4/1
f 1/1/1 4/4/1 20/20/2
f 21/21/5 22/22/6 23/23/6 24/24/6
f 23/23/6 25/25/6 24/24/6
f 26/26/6 21/21/5 24/24/6 27/27/5
f 24/24/6 28/28/6 27/27/5
f 26/26/6 27/27/5 29/29/6 30/30/6
f 21/21/5 26/26/6 31/31/6 32/32/6
