# Blender v2.78 (sub 0) OBJ File: ''
# www.blender.org
mtllib CityEngineMaterial_672.mtl
o CityEngineMaterial_672
v -1075.826538 11.495826 455.329712
v -1073.467651 11.495826 455.431488
v -1073.467651 13.330425 455.431488
v -1075.826538 13.330425 455.329712
v -1072.869263 11.495827 450.865997
v -1072.869263 13.330426 450.865997
v -1084.603760 11.495827 450.359802
v -1084.603760 13.330426 450.359802
v -1085.327271 11.495826 455.880615
v -1085.327271 13.330425 455.880615
v -1076.058105 11.495826 457.096588
v -1076.058105 13.330425 457.096588
v -802.265076 9.243619 497.712494
v -815.150879 9.243619 496.971802
v -815.150879 10.976919 496.971802
v -802.265076 10.976919 497.712494
v -815.944092 9.243617 507.063202
v -815.944092 10.976917 507.063202
v -808.149780 9.243617 507.511200
v -808.149780 10.976917 507.511200
v -808.208618 9.243617 508.262390
v -808.208618 10.976917 508.262390
v -803.113403 9.243617 508.555206
v -803.113403 10.976917 508.555206
v -596.286621 6.131112 542.860779
v -596.564392 6.131111 545.797729
v -596.564392 7.807211 545.797729
v -596.286621 7.807212 542.860779
v -585.228027 6.131111 546.643188
v -585.228027 7.807211 546.643188
v -584.392883 6.131112 537.815308
v -584.392883 7.807212 537.815308
v -594.180115 6.131113 536.886475
v -594.180115 7.807213 536.886475
v -594.755981 6.131111 542.974915
v -594.755981 7.807211 542.974915
v 645.455322 79.530937 -245.101181
v 646.481018 79.530937 -238.132584
v 646.481018 81.372635 -238.132584
v 645.455322 81.372635 -245.101181
v 647.549988 79.530937 -231.163483
v 647.549988 81.372635 -231.163483
v 663.368713 79.530937 -233.619186
v 663.368713 81.372635 -233.619186
v 661.224915 79.530937 -247.520187
v 661.224915 81.372635 -247.520187
v -755.983887 3.784078 134.219406
v -755.147583 3.784077 138.991104
v -755.147583 5.569777 138.991104
v -755.983887 5.569778 134.219406
v -756.268372 3.784077 139.187500
v -756.268372 5.569777 139.187500
v -755.764587 3.784077 142.061996
v -755.764587 5.569777 142.061996
v -739.812805 3.784077 139.266495
v -739.812805 5.569777 139.266495
v -741.155273 3.784079 131.605804
v -741.155273 5.569778 131.605804
v -721.545471 3.468062 233.824600
v -722.634827 3.468063 227.609406
v -722.634827 5.567463 227.609406
v -721.545471 5.567462 233.824600
v -730.916809 3.468063 229.060806
v -730.916809 5.567463 229.060806
v -730.517822 3.468062 231.337494
v -730.517822 5.567462 231.337494
v -729.149414 3.468062 231.097702
v -729.149414 5.567462 231.097702
v -728.832214 3.468062 232.907501
v -728.832214 5.567462 232.907501
v -730.200378 3.468062 233.148102
v -730.200378 5.567462 233.148102
v -729.826782 3.468062 235.280594
v -729.826782 5.567462 235.280594
v -221.575806 1.313897 16.711000
v -219.782898 1.313895 29.624300
v -219.782898 3.624995 29.624300
v -221.575806 3.624997 16.711000
v -198.403793 1.313896 25.995399
v -198.403793 3.624996 25.995399
v -200.372696 1.313898 13.649700
v -200.372696 3.624998 13.649701
v -204.979797 1.313898 14.154500
v -204.979797 3.624998 14.154501
v -209.282806 1.313898 14.495100
v -209.282806 3.624998 14.495201
v -213.519501 1.313898 14.865200
v -213.519501 3.624998 14.865201
v -217.634995 1.313897 15.403200
v -217.634995 3.624997 15.403201
v -221.584396 1.313897 16.242599
v -221.584396 3.624997 16.242599
v 676.676392 26.793026 460.610596
v 675.492188 26.793026 454.033813
v 675.492188 28.615026 454.033813
v 676.676392 28.615026 460.610596
v 665.448486 26.793026 455.823090
v 665.448486 28.615026 455.823090
v 667.048584 26.793024 464.738098
v 667.048584 28.615025 464.738098
v 676.187805 26.793024 463.108398
v 676.187805 28.615025 463.108398
v 675.768616 26.793026 460.772491
v 675.768616 28.615026 460.772491
v -485.454712 4.130348 320.694489
v -480.511688 4.130348 320.748810
v -480.511688 6.130948 320.748810
v -485.454712 6.130948 320.694489
v -480.401306 4.130349 311.868988
v -480.401306 6.130949 311.868988
v -481.833588 4.130349 311.853302
v -481.833588 6.130949 311.853302
v -481.776398 4.130350 307.237701
v -481.776398 6.130950 307.237701
v -485.287292 4.130350 307.196014
v -485.287292 6.130950 307.196014
v 392.667297 46.444214 -95.202896
v 395.045288 46.444214 -95.460594
v 395.045288 48.511314 -95.460594
v 392.667297 48.511314 -95.202896
v 394.877014 46.444214 -97.080391
v 394.877014 48.511314 -97.080391
v 378.724609 46.444214 -95.330193
v 378.724609 48.511314 -95.330193
v 379.564087 46.444214 -87.521194
v 379.564087 48.511314 -87.521194
v 395.713806 46.444214 -89.029594
v 395.713806 48.511314 -89.029594
v 395.407990 46.444214 -91.971390
v 395.407990 48.511314 -91.971390
v 393.038513 46.444214 -91.750092
v 393.038513 48.511314 -91.750092
v -473.682709 1.316411 -70.181000
v -473.861908 1.316410 -63.144699
v -473.861908 2.979010 -63.144699
v -473.682709 2.979012 -70.181000
v -472.725403 1.316410 -63.115700
v -472.725403 2.979010 -63.115700
v -472.846802 1.316410 -58.354599
v -472.846802 2.979010 -58.354599
v -464.470795 1.316409 -58.140999
v -464.470795 2.979010 -58.140999
v -464.170013 1.316411 -69.938400
v -464.170013 2.979012 -69.938400
v -224.954605 2.411870 794.761475
v -229.077698 2.411870 800.000427
v -229.077698 4.373770 800.000427
v -224.954605 4.373770 794.761475
v -215.842102 2.411768 810.417114
v -215.842102 4.373768 810.417114
v -215.227005 2.411768 809.635681
v -215.227005 4.373768 809.635681
v -214.532196 2.411768 810.275513
v -214.532196 4.373768 810.275513
v -211.831299 2.411869 806.843689
v -211.831299 4.373768 806.843689
v 90.644997 7.288775 152.647507
v 91.863197 7.288772 173.570007
v 91.863197 9.326471 173.570007
v 90.644997 9.326475 152.647507
v 111.317703 7.288772 173.643005
v 111.317703 9.326471 173.643005
v 110.774300 7.288775 151.504593
v 110.774300 9.326475 151.504593
v 374.489899 40.792103 -14.210693
v 374.924408 40.792103 -11.746293
v 374.924408 42.762005 -11.746293
v 374.489899 42.762005 -14.210693
v 380.104309 40.792103 -12.606593
v 380.104309 42.762005 -12.606593
v 380.263885 40.792099 -11.679893
v 380.263885 42.762001 -11.679893
v 387.741486 40.792103 -12.938193
v 387.741486 42.762005 -12.938193
v 387.153412 40.792103 -16.350994
v 387.153412 42.762005 -16.350992
v 386.683594 40.792103 -16.235895
v 386.683594 42.762005 -16.235893
v 612.500671 20.458281 739.771118
v 616.050415 20.458277 756.553284
v 616.050415 22.519377 756.553284
v 612.500671 22.519381 739.771118
v 616.514404 20.458277 756.734497
v 616.514404 22.519377 756.734497
v 623.859619 20.458279 753.845093
v 623.859619 22.519379 753.845093
v 618.320618 20.458281 739.784729
v 618.320618 22.519381 739.784729
v 616.950195 20.458281 740.323792
v 616.950195 22.519381 740.323792
v 616.500427 20.458281 738.197876
v 616.500427 22.519381 738.197876
v 346.586792 55.660172 -455.654785
v 357.592804 55.660175 -461.479095
v 357.592804 57.672775 -461.479095
v 346.586792 57.672771 -455.654785
v 349.541809 55.660175 -476.644012
v 349.541809 57.672775 -476.644012
v 338.550690 55.660175 -470.813812
v 338.550690 57.672775 -470.813812
v -395.953400 3.372351 298.561798
v -398.873505 3.372354 281.021698
v -398.873505 5.352954 281.021698
v -395.953400 5.352952 298.561798
v -416.323303 3.372354 283.146393
v -416.323303 5.352954 283.146393
v -413.400299 3.372351 300.704498
v -413.400299 5.352951 300.704498
v 305.740112 52.478416 -737.295227
v 314.531494 52.478420 -737.757629
v 314.531494 54.104523 -737.757629
v 305.740112 54.104519 -737.295227
v 314.467590 52.478420 -739.021484
v 314.467590 54.104523 -739.021484
v 312.887390 52.478420 -738.938416
v 312.887390 54.104523 -738.938416
v 312.659302 52.478420 -743.440979
v 312.659302 54.104523 -743.440979
v 305.489105 52.478420 -742.249695
v 305.489105 54.104523 -742.249695
v -369.550293 4.395973 782.397888
v -369.893799 4.395972 785.053223
v -369.893799 6.343172 785.053223
v -369.550293 6.343173 782.397888
v -357.502808 4.395972 785.905029
v -357.502808 6.343172 785.905029
v -356.209991 4.395974 775.912781
v -356.209991 6.343174 775.912781
v -366.883606 4.395974 774.531372
v -366.883606 6.343174 774.531372
v -367.915894 4.395973 782.510315
v -367.915894 6.343173 782.510315
vt 0.3333 0.0000
vt 0.6667 0.0000
vt 0.6667 1.0000
vt 0.3333 1.0000
vt 0.1667 -0.0000
vt 0.6667 0.0000
vt 0.6667 1.0000
vt 0.1667 1.0000
vt 0.3333 0.0000
vt 1.6667 -0.0000
vt 1.6667 1.0000
vt 0.3333 1.0000
vt 0.5000 0.0000
vt 1.1667 0.0000
vt 1.1667 1.0000
vt 0.5000 1.0000
vt 0.6667 0.0000
vt 1.8333 0.0000
vt 1.8333 1.0000
vt 0.6667 1.0000
vt 0.5000 0.0000
vt 0.6667 0.0000
vt 0.6667 1.0000
vt 0.5000 1.0000
vt 0.6667 0.0000
vt 2.1667 0.0000
vt 2.1667 1.0000
vt 0.6667 1.0000
vt 0.6667 0.0000
vt 1.8333 0.0000
vt 1.8333 1.0000
vt 0.6667 1.0000
vt 0.1667 -0.0000
vt 1.1667 0.0000
vt 1.1667 1.0000
vt 0.1667 1.0000
vt 0.5000 0.0000
vt 0.6667 0.0000
vt 0.6667 1.0000
vt 0.5000 1.0000
vt 1.3333 0.0000
vt 1.3333 1.0000
vt 0.5000 0.0000
vt 1.8333 0.0000
vt 1.8333 1.0000
vt 0.5000 1.0000
vt 0.3333 0.0000
vt 0.8333 0.0000
vt 0.8333 1.0000
vt 0.3333 1.0000
vt 0.6667 0.0000
vt 2.5000 0.0000
vt 2.5000 1.0000
vt 0.6667 1.0000
vt 0.3333 0.0000
vt 1.8333 0.0000
vt 1.8333 1.0000
vt 0.3333 1.0000
vt 0.1667 -0.0000
vt 1.8333 0.0000
vt 1.8333 1.0000
vt 0.1667 1.0000
vt 0.1667 -0.0000
vt 1.1667 0.0000
vt 1.1667 1.0000
vt 0.1667 1.0000
vt 0.6667 0.0000
vt 1.0000 0.0000
vt 1.0000 1.0000
vt 0.6667 1.0000
vt 0.3333 0.0000
vt 1.5000 -0.0000
vt 1.5000 1.0000
vt 0.3333 1.0000
vt 0.6667 0.0000
vt 1.8333 0.0000
vt 1.8333 1.0000
vt 0.6667 1.0000
vt 0.6667 0.0000
vt 3.1667 -0.0000
vt 3.1667 1.0000
vt 0.6667 1.0000
vt 0.1667 -0.0000
vt 2.3333 0.0000
vt 2.3333 1.0000
vt 0.1667 1.0000
vt 0.8333 0.0000
vt 3.3333 -0.0000
vt 3.3333 1.0000
vt 0.8333 1.0000
vt 0.3333 0.0000
vt 1.0000 0.0000
vt 1.0000 1.0000
vt 0.3333 1.0000
vt 0.8333 0.0000
vt 1.0000 0.0000
vt 1.0000 1.0000
vt 0.8333 1.0000
vt 0.1667 -0.0000
vt 0.5000 0.0000
vt 0.5000 1.0000
vt 0.1667 1.0000
vt 0.6667 0.0000
vt 2.6667 0.0000
vt 2.6667 1.0000
vt 0.6667 1.0000
vt 0.1667 -0.0000
vt 1.1667 0.0000
vt 1.1667 1.0000
vt 0.1667 1.0000
vt 0.1667 -0.0000
vt 2.0000 -0.0000
vt 2.0000 1.0000
vt 0.1667 1.0000
vt 0.8333 0.0000
vt 1.8333 0.0000
vt 1.8333 1.0000
vt 0.8333 1.0000
vt 0.6667 0.0000
vt 2.0000 -0.0000
vt 2.0000 1.0000
vt 0.6667 1.0000
vt 0.6667 0.0000
vt 1.0000 0.0000
vt 1.0000 1.0000
vt 0.6667 1.0000
vt 0.3333 0.0000
vt 0.5000 0.0000
vt 0.5000 1.0000
vt 0.3333 1.0000
vt 0.6667 0.0000
vt 1.0000 0.0000
vt 1.0000 1.0000
vt 0.6667 1.0000
vt 0.5000 0.0000
vt 0.6667 0.0000
vt 0.6667 1.0000
vt 0.5000 1.0000
vt 0.1667 -0.0000
vt 0.5000 0.0000
vt 0.5000 1.0000
vt 0.1667 1.0000
vt 0.3333 0.0000
vt 1.6667 -0.0000
vt 1.6667 1.0000
vt 0.3333 1.0000
vt 0.1667 -0.0000
vt 2.5000 0.0000
vt 2.5000 1.0000
vt 0.1667 1.0000
vt 0.6667 0.0000
vt 4.6667 0.0000
vt 4.6667 1.0000
vt 0.6667 1.0000
vt 0.1667 -0.0000
vt 2.5000 0.0000
vt 2.5000 1.0000
vt 0.1667 1.0000
vt 0.6667 0.0000
vt 1.5000 -0.0000
vt 1.5000 1.0000
vt 0.6667 1.0000
vt 0.6667 0.0000
vt 1.5000 -0.0000
vt 1.5000 1.0000
vt 0.6667 1.0000
vt 0.8333 0.0000
vt 1.6667 -0.0000
vt 1.6667 1.0000
vt 0.8333 1.0000
vt -0.0000 -0.0000
vt 0.8333 0.0000
vt 0.8333 1.0000
vt -0.0000 1.0000
vt 0.6667 0.0000
vt 1.3333 0.0000
vt 1.3333 1.0000
vt 0.6667 1.0000
vt 0.1667 -0.0000
vt 0.3333 0.0000
vt 0.3333 1.0000
vt 0.1667 1.0000
vt 0.3333 0.0000
vt 1.3333 0.0000
vt 1.3333 1.0000
vt 0.3333 1.0000
vt 0.5000 0.0000
vt 2.0000 -0.0000
vt 2.0000 1.0000
vt 0.5000 1.0000
vt 0.5000 0.0000
vt 1.8333 0.0000
vt 1.8333 1.0000
vt 0.5000 1.0000
vt 0.6667 0.0000
vt 2.0000 -0.0000
vt 2.0000 1.0000
vt 0.6667 1.0000
vt 0.5000 0.0000
vt 0.8333 0.0000
vt 0.8333 1.0000
vt 0.5000 1.0000
vt 0.6667 0.0000
vt 0.8333 0.0000
vt 0.8333 1.0000
vt 0.6667 1.0000
vt 0.1667 -0.0000
vt 0.8333 0.0000
vt 0.8333 1.0000
vt 0.1667 1.0000
vt 0.1667 -0.0000
vt 1.5000 -0.0000
vt 1.5000 1.0000
vt 0.1667 1.0000
vt 0.5000 0.0000
vt 0.6667 0.0000
vt 0.6667 1.0000
vt 0.5000 1.0000
vt 0.1667 -0.0000
vt 0.8333 0.0000
vt 0.8333 1.0000
vt 0.1667 1.0000
vt 0.1667 -0.0000
vt 0.6667 0.0000
vt 0.6667 1.0000
vt 0.1667 1.0000
vt 0.5000 0.0000
vt 2.5000 0.0000
vt 2.5000 1.0000
vt 0.5000 1.0000
vt 0.3333 0.0000
vt 0.6667 0.0000
vt 0.6667 1.0000
vt 0.3333 1.0000
vt 0.8333 0.0000
vt 0.8333 1.0000
vt 0.5000 0.0000
vt 2.6667 0.0000
vt 2.6667 1.0000
vt 0.5000 1.0000
vt -0.0000 -0.0000
vt 1.0000 0.0000
vt 1.0000 1.0000
vt -0.0000 1.0000
vt -0.0000 -0.0000
vt 2.1667 0.0000
vt 2.1667 1.0000
vt -0.0000 1.0000
vt 0.5000 0.0000
vt 0.8333 0.0000
vt 0.8333 1.0000
vt 0.5000 1.0000
vt 0.1667 -0.0000
vt 0.5000 0.0000
vt 0.5000 1.0000
vt 0.1667 1.0000
vt 0.3333 0.0000
vt 0.8333 0.0000
vt 0.8333 1.0000
vt 0.3333 1.0000
vt 0.3333 0.0000
vt 1.5000 -0.0000
vt 1.5000 1.0000
vt 0.3333 1.0000
vt 0.3333 0.0000
vt 0.5000 0.0000
vt 0.5000 1.0000
vt 0.3333 1.0000
vt 0.3333 0.0000
vt 1.1667 0.0000
vt 1.1667 1.0000
vt 0.3333 1.0000
vt 0.6667 0.0000
vt 2.1667 0.0000
vt 2.1667 1.0000
vt 0.6667 1.0000
vt 0.1667 -0.0000
vt 2.1667 0.0000
vt 2.1667 1.0000
vt 0.1667 1.0000
vt 0.3333 0.0000
vt 2.0000 -0.0000
vt 2.0000 1.0000
vt 0.3333 1.0000
vt 0.5000 0.0000
vt 1.5000 -0.0000
vt 1.5000 1.0000
vt 0.5000 1.0000
vt 0.5000 0.0000
vt 3.1667 -0.0000
vt 3.1667 1.0000
vt 0.5000 1.0000
vt 0.1667 -0.0000
vt 0.3333 0.0000
vt 0.3333 1.0000
vt 0.1667 1.0000
vt 0.6667 0.0000
vt 0.8333 0.0000
vt 0.8333 1.0000
vt 0.6667 1.0000
vt 0.6667 0.0000
vt 1.3333 0.0000
vt 1.3333 1.0000
vt 0.6667 1.0000
vt 0.1667 -0.0000
vt 3.0000 0.0000
vt 3.0000 1.0000
vt 0.1667 1.0000
vt 0.1667 -0.0000
vt 4.0000 0.0000
vt 4.0000 1.0000
vt 0.1667 1.0000
vt 0.5000 0.0000
vt 4.0000 0.0000
vt 4.0000 1.0000
vt 0.5000 1.0000
vt 0.8333 0.0000
vt 4.8333 -0.0000
vt 4.8333 1.0000
vt 0.8333 1.0000
vt 0.5000 0.0000
vt 4.1667 -0.0000
vt 4.1667 1.0000
vt 0.5000 1.0000
vt -0.0000 -0.0000
vt 0.3333 0.0000
vt 0.3333 1.0000
vt -0.0000 1.0000
vt 1.0000 0.0000
vt 1.0000 1.0000
vt 0.5000 0.0000
vt 0.6667 0.0000
vt 0.6667 1.0000
vt 0.5000 1.0000
vt 0.3333 0.0000
vt 1.3333 0.0000
vt 1.3333 1.0000
vt 0.3333 1.0000
vt 0.1667 -0.0000
vt 0.6667 0.0000
vt 0.6667 1.0000
vt 0.1667 1.0000
vt 0.7000 -0.0000
vt 0.7000 1.0000
vt 0.3333 0.0000
vt 1.8333 0.0000
vt 1.8333 1.0000
vt 0.3333 1.0000
vt 0.1667 -0.0000
vt 3.1667 -0.0000
vt 3.1667 1.0000
vt 0.1667 1.0000
vt 0.8333 0.0000
vt 1.0000 0.0000
vt 1.0000 1.0000
vt 0.8333 1.0000
vt 0.3333 0.0000
vt 1.6667 -0.0000
vt 1.6667 1.0000
vt 0.3333 1.0000
vt 0.8333 0.0000
vt 3.3333 -0.0000
vt 3.3333 1.0000
vt 0.8333 1.0000
vt 0.1667 -0.0000
vt 0.5000 0.0000
vt 0.5000 1.0000
vt 0.1667 1.0000
vt 0.8333 0.0000
vt 0.8333 1.0000
vt 1.5000 -0.0000
vt 1.5000 1.0000
vt -0.0000 -0.0000
vt 1.8333 0.0000
vt 1.8333 1.0000
vt -0.0000 1.0000
vt 0.6667 0.0000
vt 3.3333 -0.0000
vt 3.3333 1.0000
vt 0.6667 1.0000
vt -0.0000 -0.0000
vt 1.8333 0.0000
vt 1.8333 1.0000
vt -0.0000 1.0000
vt 0.8333 0.0000
vt 3.5000 0.0000
vt 3.5000 1.0000
vt 0.8333 1.0000
vt 0.6667 0.0000
vt 3.3333 -0.0000
vt 3.3333 1.0000
vt 0.6667 1.0000
vt 0.5000 0.0000
vt 3.1667 -0.0000
vt 3.1667 1.0000
vt 0.5000 1.0000
vt 0.1667 -0.0000
vt 2.8333 -0.0000
vt 2.8333 1.0000
vt 0.1667 1.0000
vt 0.8333 0.0000
vt 3.5000 0.0000
vt 3.5000 1.0000
vt 0.8333 1.0000
vt 0.1667 -0.0000
vt 1.3333 0.0000
vt 1.3333 1.0000
vt 0.1667 1.0000
vt 0.5000 0.0000
vt 0.6667 0.0000
vt 0.6667 1.0000
vt 0.5000 1.0000
vt 0.1667 -0.0000
vt 0.3333 0.0000
vt 0.3333 1.0000
vt 0.1667 1.0000
vt 0.8333 0.0000
vt 0.8333 1.0000
vt 0.3333 0.0000
vt 1.3333 0.0000
vt 1.3333 1.0000
vt 0.3333 1.0000
vt 0.6667 0.0000
vt 1.3333 0.0000
vt 1.3333 1.0000
vt 0.6667 1.0000
vt 0.8333 0.0000
vt 1.1667 0.0000
vt 1.1667 1.0000
vt 0.8333 1.0000
vt 0.6667 0.0000
vt 2.1667 0.0000
vt 2.1667 1.0000
vt 0.6667 1.0000
vt 0.1667 -0.0000
vt 1.3333 0.0000
vt 1.3333 1.0000
vt 0.1667 1.0000
vt 0.8333 0.0000
vt 2.1667 0.0000
vt 2.1667 1.0000
vt 0.8333 1.0000
vt -0.0000 -0.0000
vt 1.0000 0.0000
vt 1.0000 1.0000
vt -0.0000 1.0000
vt 0.5000 0.0000
vt 0.6667 0.0000
vt 0.6667 1.0000
vt 0.5000 1.0000
vn -0.0431 0.0000 0.9991
vn 0.9915 0.0000 0.1300
vn 0.0431 0.0000 -0.9991
vn -0.9915 0.0000 -0.1299
vn -0.1301 0.0000 0.9915
vn 0.9915 0.0000 0.1299
vn 0.0574 0.0000 -0.9984
vn -0.9969 0.0000 -0.0784
vn -0.0574 0.0000 0.9984
vn -0.9969 0.0000 -0.0781
vn 0.9970 0.0000 0.0780
vn -0.9956 0.0000 -0.0942
vn -0.0744 0.0000 0.9972
vn 0.9956 0.0000 0.0942
vn 0.0945 0.0000 -0.9955
vn 0.0744 0.0000 -0.9972
vn -0.9893 0.0000 0.1456
vn -0.9889 0.0000 0.1486
vn -0.9884 0.0000 0.1516
vn 0.1534 0.0000 0.9882
vn 0.9883 0.0000 -0.1524
vn -0.1516 0.0000 -0.9884
vn -0.9850 0.0000 0.1726
vn -0.1726 0.0000 -0.9850
vn 0.1726 0.0000 0.9850
vn 0.9850 0.0000 -0.1726
vn -0.1736 0.0000 -0.9848
vn -0.1732 0.0000 -0.9849
vn 0.1732 0.0000 0.9849
vn -0.9905 0.0000 0.1375
vn 0.1673 0.0000 0.9859
vn 0.9875 0.0000 -0.1575
vn -0.1089 0.0000 -0.9941
vn -0.0789 0.0000 -0.9969
vn -0.0830 0.0000 -0.9966
vn -0.0870 0.0000 -0.9962
vn -0.1296 0.0000 -0.9916
vn -0.2079 0.0000 -0.9782
vn -0.9998 0.0000 0.0183
vn 0.9842 0.0000 -0.1772
vn -0.1754 0.0000 -0.9845
vn -0.9843 0.0000 0.1767
vn 0.1755 0.0000 0.9845
vn 0.9843 0.0000 -0.1766
vn 0.1756 0.0000 0.9845
vn -0.0110 0.0000 0.9999
vn 0.9999 0.0000 0.0124
vn 0.0109 0.0000 -0.9999
vn 0.0119 0.0000 -0.9999
vn -0.9999 0.0000 -0.0124
vn 0.1077 0.0000 0.9942
vn 0.9946 0.0000 -0.1033
vn -0.1077 0.0000 -0.9942
vn -0.9943 0.0000 0.1069
vn 0.0930 0.0000 0.9957
vn 0.9946 0.0000 -0.1034
vn -0.0930 0.0000 -0.9957
vn 0.9943 0.0000 -0.1069
vn -0.9997 0.0000 -0.0255
vn -0.0255 0.0000 0.9997
vn 0.9997 0.0000 0.0255
vn 0.0255 0.0000 -0.9997
vn -0.7858 0.0000 -0.6184
vn -0.6185 0.0000 0.7858
vn 0.7858 0.0000 0.6185
vn -0.6774 0.0000 0.7356
vn 0.7858 0.0000 0.6184
vn 0.6773 0.0000 -0.7357
vn -0.9983 0.0000 0.0581
vn -0.0038 0.0000 1.0000
vn 0.9997 0.0000 -0.0245
vn -0.0567 0.0000 -0.9984
vn -0.9848 0.0000 0.1736
vn 0.1638 0.0000 0.9865
vn -0.9855 0.0000 0.1697
vn 0.1659 0.0000 0.9861
vn 0.9855 0.0000 -0.1698
vn -0.2380 0.0000 -0.9713
vn -0.1638 0.0000 -0.9865
vn -0.9784 0.0000 0.2069
vn -0.3637 0.0000 0.9315
vn 0.3661 0.0000 0.9306
vn 0.9304 0.0000 -0.3665
vn -0.3661 0.0000 -0.9306
vn 0.9783 0.0000 -0.2070
vn -0.3660 0.0000 -0.9306
vn 0.4677 0.0000 0.8839
vn 0.8832 0.0000 -0.4689
vn -0.4686 0.0000 -0.8834
vn -0.8835 0.0000 0.4684
vn 0.9864 0.0000 -0.1642
vn -0.1209 0.0000 -0.9927
vn -0.9864 0.0000 0.1642
vn 0.1219 0.0000 0.9925
vn 0.0525 0.0000 0.9986
vn 0.9987 0.0000 -0.0505
vn -0.0525 0.0000 -0.9986
vn 0.9987 0.0000 -0.0506
vn -0.1639 0.0000 -0.9865
vn -0.9987 0.0000 0.0506
vn -0.9917 0.0000 -0.1283
vn -0.0686 0.0000 0.9976
vn 0.9917 0.0000 0.1283
vn 0.1283 0.0000 -0.9917
vn 0.0686 0.0000 -0.9976
g CityEngineMaterial_672_CityEngineMaterial_672_CityEngineMaterial_672_mat
usemtl CityEngineMaterial_672_mat
s 1
f 1/1/1 2/2/1 3/3/1 4/4/1
f 2/5/2 5/6/2 6/7/2 3/8/2
f 5/9/3 7/10/3 8/11/3 6/12/3
f 7/13/4 9/14/4 10/15/4 8/16/4
f 9/17/5 11/18/5 12/19/5 10/20/5
f 11/21/6 1/22/6 4/23/6 12/24/6
f 13/25/7 14/26/7 15/27/7 16/28/7
f 14/29/8 17/30/8 18/31/8 15/32/8
f 17/33/9 19/34/9 20/35/9 18/36/9
f 19/37/10 21/38/10 22/39/10 20/40/10
f 21/38/9 23/41/9 24/42/9 22/39/9
f 23/43/11 13/44/11 16/45/11 24/46/11
f 25/47/12 26/48/12 27/49/12 28/50/12
f 26/51/13 29/52/13 30/53/13 27/54/13
f 29/55/14 31/56/14 32/57/14 30/58/14
f 31/59/15 33/60/15 34/61/15 32/62/15
f 33/63/12 35/64/12 36/65/12 34/66/12
f 35/67/16 25/68/16 28/69/16 36/70/16
f 37/71/17 38/72/18 39/73/18 40/74/17
f 38/75/18 41/76/19 42/77/19 39/78/18
f 41/79/20 43/80/20 44/81/20 42/82/20
f 43/83/21 45/84/21 46/85/21 44/86/21
f 45/87/22 37/88/22 40/89/22 46/90/22
f 47/91/23 48/92/23 49/93/23 50/94/23
f 48/95/24 51/96/24 52/97/24 49/98/24
f 51/99/23 53/100/23 54/101/23 52/102/23
f 53/103/25 55/104/25 56/105/25 54/106/25
f 55/107/26 57/108/26 58/109/26 56/110/26
f 57/111/27 47/112/27 50/113/27 58/114/27
f 59/115/26 60/116/26 61/117/26 62/118/26
f 60/119/24 63/120/24 64/121/24 61/122/24
f 63/123/23 65/124/23 66/125/23 64/126/23
f 65/127/25 67/128/25 68/129/25 66/130/25
f 67/131/23 69/132/23 70/133/23 68/134/23
f 69/135/28 71/136/28 72/137/28 70/138/28
f 71/139/23 73/140/23 74/141/23 72/142/23
f 73/143/29 59/144/29 62/145/29 74/146/29
f 75/147/30 76/148/30 77/149/30 78/150/30
f 76/151/31 79/152/31 80/153/31 77/154/31
f 79/155/32 81/156/32 82/157/32 80/158/32
f 81/159/33 83/160/33 84/161/33 82/162/33
f 83/163/34 85/164/35 86/165/35 84/166/34
f 85/167/35 87/168/36 88/169/36 86/170/35
f 87/171/37 89/172/37 90/173/37 88/174/37
f 89/175/38 91/176/38 92/177/38 90/178/38
f 91/179/39 75/180/39 78/181/39 92/182/39
f 93/183/40 94/184/40 95/185/40 96/186/40
f 94/187/41 97/188/41 98/189/41 95/190/41
f 97/191/42 99/192/42 100/193/42 98/194/42
f 99/195/43 101/196/43 102/197/43 100/198/43
f 101/199/44 103/200/44 104/201/44 102/202/44
f 103/203/45 93/204/45 96/205/45 104/206/45
f 105/207/46 106/208/46 107/209/46 108/210/46
f 106/211/47 109/212/47 110/213/47 107/214/47
f 109/215/48 111/216/48 112/217/48 110/218/48
f 111/219/47 113/220/47 114/221/47 112/222/47
f 113/223/49 115/224/49 116/225/49 114/226/49
f 115/227/50 105/228/50 108/229/50 116/230/50
f 117/231/51 118/232/51 119/233/51 120/234/51
f 118/232/52 121/235/52 122/236/52 119/233/52
f 121/237/53 123/238/53 124/239/53 122/240/53
f 123/241/54 125/242/54 126/243/54 124/244/54
f 125/245/55 127/246/55 128/247/55 126/248/55
f 127/249/56 129/250/56 130/251/56 128/252/56
f 129/253/57 131/254/57 132/255/57 130/256/57
f 131/257/58 117/258/58 120/259/58 132/260/58
f 133/261/59 134/262/59 135/263/59 136/264/59
f 134/265/60 137/266/60 138/267/60 135/268/60
f 137/269/59 139/270/59 140/271/59 138/272/59
f 139/273/60 141/274/60 142/275/60 140/276/60
f 141/277/61 143/278/61 144/279/61 142/280/61
f 143/281/62 133/282/62 136/283/62 144/284/62
f 145/285/63 146/286/63 147/287/63 148/288/63
f 146/289/64 149/290/64 150/291/64 147/292/64
f 149/293/65 151/294/65 152/295/65 150/296/65
f 151/297/66 153/298/66 154/299/66 152/300/66
f 153/301/67 155/302/67 156/303/67 154/304/67
f 155/305/68 145/306/68 148/307/68 156/308/68
f 157/309/69 158/310/69 159/311/69 160/312/69
f 158/313/70 161/314/70 162/315/70 159/316/70
f 161/317/71 163/318/71 164/319/71 162/320/71
f 163/321/72 157/322/72 160/323/72 164/324/72
f 165/325/73 166/326/73 167/327/73 168/328/73
f 166/326/74 169/329/74 170/330/74 167/327/74
f 169/331/75 171/332/75 172/333/75 170/334/75
f 171/335/76 173/336/76 174/337/76 172/338/76
f 173/339/77 175/340/77 176/341/77 174/342/77
f 175/340/78 177/343/78 178/344/78 176/341/78
f 177/345/79 165/346/79 168/347/79 178/348/79
f 179/349/80 180/350/80 181/351/80 182/352/80
f 180/353/81 183/354/81 184/355/81 181/356/81
f 183/357/82 185/358/82 186/359/82 184/360/82
f 185/361/83 187/362/83 188/363/83 186/364/83
f 187/365/84 189/366/84 190/367/84 188/368/84
f 189/366/85 191/369/85 192/370/85 190/367/85
f 191/369/86 179/371/86 182/372/86 192/370/86
f 193/373/87 194/374/87 195/375/87 196/376/87
f 194/377/88 197/378/88 198/379/88 195/380/88
f 197/381/89 199/382/89 200/383/89 198/384/89
f 199/385/90 193/386/90 196/387/90 200/388/90
f 201/389/91 202/390/91 203/391/91 204/392/91
f 202/393/92 205/394/92 206/395/92 203/396/92
f 205/397/93 207/398/93 208/399/93 206/400/93
f 207/401/94 201/402/94 204/403/94 208/404/94
f 209/405/95 210/406/95 211/407/95 212/408/95
f 210/409/96 213/410/96 214/411/96 211/412/96
f 213/413/97 215/414/97 216/415/97 214/416/97
f 215/414/98 217/417/98 218/418/98 216/415/98
f 217/419/99 219/420/99 220/421/99 218/422/99
f 219/423/100 209/424/100 212/425/100 220/426/100
f 221/427/101 222/428/101 223/429/101 224/430/101
f 222/431/102 225/432/102 226/433/102 223/434/102
f 225/435/103 227/436/103 228/437/103 226/438/103
f 227/439/104 229/440/104 230/441/104 228/442/104
f 229/443/101 231/444/101 232/445/101 230/446/101
f 231/447/105 221/448/105 224/449/105 232/450/105
