# WaveFront *.obj file (generated by CINEMA 4D)

mtllib ./plane.mtl

v -5692.88427734375 -493.24386596679688 -8920.3251953125
v -5692.88427734375 303.31741333007812 -8920.3251953125
v 5692.88427734375 -493.24386596679688 -8920.3251953125
v 5692.88427734375 303.31741333007812 -8920.3251953125
v 5692.88427734375 -493.24386596679688 8920.3251953125
v 5692.88427734375 303.31741333007812 8920.3251953125
v -5692.88427734375 -493.24386596679688 8920.3251953125
v -5692.88427734375 303.31741333007812 8920.3251953125
# 8 vertices

vn 0 0 -1
vn 1 0 0
vn 0 0 1
vn -1 0 0
vn 0 1 0
vn 0 -1 0
# 6 normals

o Cube
usemtl Mat
f 1//1 2//1 4//1 3//1
f 3//2 4//2 6//2 5//2
f 5//3 6//3 8//3 7//3
f 7//4 8//4 2//4 1//4
f 2//5 8//5 6//5 4//5
f 7//6 1//6 3//6 5//6

